%
M48
M72
T01C0.0120
T02C0.0315
T03C0.0320
T04C0.0394
T05C0.0400
T06C0.0512
T07C0.1102
T08C0.1181
%
T01
X10312Y13994
X10091Y6813
X11446Y15443
X9776Y15569
X8769Y15034
X10312Y4640
T02
X3300Y17282
X3300Y16282
X3300Y15282
X3300Y14282
X3300Y13282
X3300Y12282
X3300Y11282
X3300Y10282
X3300Y9282
X3300Y8282
X3300Y7282
X3300Y6282
X3300Y5282
X3300Y4282
X3300Y3282
X9300Y17282
X9300Y16282
X9300Y15282
X9300Y14282
X9300Y13282
X9300Y12282
X9300Y11282
X9300Y10282
X9300Y9282
X9300Y8282
X9300Y7282
X9300Y6282
X9300Y5282
X9300Y4282
X9300Y3282
T03
X5300Y7782
X5300Y3782
X6300Y3782
X6300Y7782
X7300Y3782
X7300Y7782
X8300Y3782
X8300Y7782
X5550Y21282
X5050Y22032
X4550Y21282
X14300Y18782
X10300Y18782
X10300Y19532
X14300Y19532
X10300Y18032
X14300Y18032
X14300Y17282
X10300Y17282
X10800Y16282
X10800Y12282
X17550Y6282
X17550Y7282
X17550Y8282
X17550Y9282
X14550Y9282
X14550Y8282
X14550Y7282
X14550Y6282
X19300Y6782
X18300Y6782
X13300Y9282
X13300Y13282
X13300Y8282
X13300Y4282
T04
X6050Y20282
X5050Y20282
X4050Y20282
X13800Y21282
X14800Y21282
X15800Y21282
X10800Y21282
X11800Y21282
X12800Y21282
X7800Y21282
X8800Y21282
X9800Y21282
X16800Y21282
X17800Y21282
X18800Y21282
X19800Y21282
T05
X1550Y20032
X1550Y19032
X1550Y18032
X1550Y17032
X1550Y16032
X1550Y15032
X1550Y14032
X1550Y13032
X1550Y12032
X1550Y11032
X1550Y10032
X1550Y9032
X1550Y8032
X1550Y7032
X1550Y6032
X1550Y5032
X18080Y17392
X18080Y19172
X15520Y17392
X15520Y19172
X17910Y13752
X19690Y13752
X17910Y16312
X19690Y16312
X12410Y13752
X14190Y13752
X12410Y16312
X14190Y16312
X18080Y10892
X18080Y12672
X15520Y10892
X15520Y12672
X16940Y16312
X15160Y16312
X16940Y13752
X15160Y13752
X11800Y7282
X10800Y7282
X11800Y8282
X10800Y8282
X11800Y9282
X10800Y9282
X11800Y10282
X10800Y10282
X11800Y11282
X10800Y11282
X13550Y3282
X14550Y3282
X12550Y3282
X11550Y3282
X10550Y3282
T06
X12050Y5282
X18869Y9219
T07
X1694Y21532
X19300Y12282
T08
X1694Y3676
X19444Y19176
M30
