G75*
%MOIN*%
%OFA0B0*%
%FSLAX24Y24*%
%IPPOS*%
%LPD*%
%AMOC8*
5,1,8,0,0,1.08239X$1,22.5*
%
%ADD10C,0.0000*%
%ADD11OC8,0.0520*%
%ADD12C,0.0600*%
%ADD13C,0.0594*%
%ADD14C,0.0594*%
%ADD15C,0.0600*%
%ADD16OC8,0.0740*%
%ADD17R,0.0700X0.0700*%
%ADD18C,0.0700*%
%ADD19C,0.0740*%
%ADD20C,0.0520*%
%ADD21C,0.0660*%
%ADD22C,0.0768*%
%ADD23C,0.0100*%
%ADD24C,0.0080*%
%ADD25C,0.0240*%
D10*
X000800Y002782D02*
X000800Y022467D01*
X020292Y022467D01*
X020292Y002782D01*
X000800Y002782D01*
X001103Y003676D02*
X001105Y003724D01*
X001111Y003772D01*
X001121Y003819D01*
X001134Y003865D01*
X001152Y003910D01*
X001172Y003954D01*
X001197Y003996D01*
X001225Y004035D01*
X001255Y004072D01*
X001289Y004106D01*
X001326Y004138D01*
X001364Y004167D01*
X001405Y004192D01*
X001448Y004214D01*
X001493Y004232D01*
X001539Y004246D01*
X001586Y004257D01*
X001634Y004264D01*
X001682Y004267D01*
X001730Y004266D01*
X001778Y004261D01*
X001826Y004252D01*
X001872Y004240D01*
X001917Y004223D01*
X001961Y004203D01*
X002003Y004180D01*
X002043Y004153D01*
X002081Y004123D01*
X002116Y004090D01*
X002148Y004054D01*
X002178Y004016D01*
X002204Y003975D01*
X002226Y003932D01*
X002246Y003888D01*
X002261Y003843D01*
X002273Y003796D01*
X002281Y003748D01*
X002285Y003700D01*
X002285Y003652D01*
X002281Y003604D01*
X002273Y003556D01*
X002261Y003509D01*
X002246Y003464D01*
X002226Y003420D01*
X002204Y003377D01*
X002178Y003336D01*
X002148Y003298D01*
X002116Y003262D01*
X002081Y003229D01*
X002043Y003199D01*
X002003Y003172D01*
X001961Y003149D01*
X001917Y003129D01*
X001872Y003112D01*
X001826Y003100D01*
X001778Y003091D01*
X001730Y003086D01*
X001682Y003085D01*
X001634Y003088D01*
X001586Y003095D01*
X001539Y003106D01*
X001493Y003120D01*
X001448Y003138D01*
X001405Y003160D01*
X001364Y003185D01*
X001326Y003214D01*
X001289Y003246D01*
X001255Y003280D01*
X001225Y003317D01*
X001197Y003356D01*
X001172Y003398D01*
X001152Y003442D01*
X001134Y003487D01*
X001121Y003533D01*
X001111Y003580D01*
X001105Y003628D01*
X001103Y003676D01*
X001143Y021532D02*
X001145Y021579D01*
X001151Y021625D01*
X001161Y021671D01*
X001174Y021716D01*
X001192Y021759D01*
X001213Y021801D01*
X001237Y021841D01*
X001265Y021878D01*
X001296Y021913D01*
X001330Y021946D01*
X001366Y021975D01*
X001405Y022001D01*
X001446Y022024D01*
X001489Y022043D01*
X001533Y022059D01*
X001578Y022071D01*
X001624Y022079D01*
X001671Y022083D01*
X001717Y022083D01*
X001764Y022079D01*
X001810Y022071D01*
X001855Y022059D01*
X001899Y022043D01*
X001942Y022024D01*
X001983Y022001D01*
X002022Y021975D01*
X002058Y021946D01*
X002092Y021913D01*
X002123Y021878D01*
X002151Y021841D01*
X002175Y021801D01*
X002196Y021759D01*
X002214Y021716D01*
X002227Y021671D01*
X002237Y021625D01*
X002243Y021579D01*
X002245Y021532D01*
X002243Y021485D01*
X002237Y021439D01*
X002227Y021393D01*
X002214Y021348D01*
X002196Y021305D01*
X002175Y021263D01*
X002151Y021223D01*
X002123Y021186D01*
X002092Y021151D01*
X002058Y021118D01*
X002022Y021089D01*
X001983Y021063D01*
X001942Y021040D01*
X001899Y021021D01*
X001855Y021005D01*
X001810Y020993D01*
X001764Y020985D01*
X001717Y020981D01*
X001671Y020981D01*
X001624Y020985D01*
X001578Y020993D01*
X001533Y021005D01*
X001489Y021021D01*
X001446Y021040D01*
X001405Y021063D01*
X001366Y021089D01*
X001330Y021118D01*
X001296Y021151D01*
X001265Y021186D01*
X001237Y021223D01*
X001213Y021263D01*
X001192Y021305D01*
X001174Y021348D01*
X001161Y021393D01*
X001151Y021439D01*
X001145Y021485D01*
X001143Y021532D01*
X018749Y012282D02*
X018751Y012329D01*
X018757Y012375D01*
X018767Y012421D01*
X018780Y012466D01*
X018798Y012509D01*
X018819Y012551D01*
X018843Y012591D01*
X018871Y012628D01*
X018902Y012663D01*
X018936Y012696D01*
X018972Y012725D01*
X019011Y012751D01*
X019052Y012774D01*
X019095Y012793D01*
X019139Y012809D01*
X019184Y012821D01*
X019230Y012829D01*
X019277Y012833D01*
X019323Y012833D01*
X019370Y012829D01*
X019416Y012821D01*
X019461Y012809D01*
X019505Y012793D01*
X019548Y012774D01*
X019589Y012751D01*
X019628Y012725D01*
X019664Y012696D01*
X019698Y012663D01*
X019729Y012628D01*
X019757Y012591D01*
X019781Y012551D01*
X019802Y012509D01*
X019820Y012466D01*
X019833Y012421D01*
X019843Y012375D01*
X019849Y012329D01*
X019851Y012282D01*
X019849Y012235D01*
X019843Y012189D01*
X019833Y012143D01*
X019820Y012098D01*
X019802Y012055D01*
X019781Y012013D01*
X019757Y011973D01*
X019729Y011936D01*
X019698Y011901D01*
X019664Y011868D01*
X019628Y011839D01*
X019589Y011813D01*
X019548Y011790D01*
X019505Y011771D01*
X019461Y011755D01*
X019416Y011743D01*
X019370Y011735D01*
X019323Y011731D01*
X019277Y011731D01*
X019230Y011735D01*
X019184Y011743D01*
X019139Y011755D01*
X019095Y011771D01*
X019052Y011790D01*
X019011Y011813D01*
X018972Y011839D01*
X018936Y011868D01*
X018902Y011901D01*
X018871Y011936D01*
X018843Y011973D01*
X018819Y012013D01*
X018798Y012055D01*
X018780Y012098D01*
X018767Y012143D01*
X018757Y012189D01*
X018751Y012235D01*
X018749Y012282D01*
X018853Y019176D02*
X018855Y019224D01*
X018861Y019272D01*
X018871Y019319D01*
X018884Y019365D01*
X018902Y019410D01*
X018922Y019454D01*
X018947Y019496D01*
X018975Y019535D01*
X019005Y019572D01*
X019039Y019606D01*
X019076Y019638D01*
X019114Y019667D01*
X019155Y019692D01*
X019198Y019714D01*
X019243Y019732D01*
X019289Y019746D01*
X019336Y019757D01*
X019384Y019764D01*
X019432Y019767D01*
X019480Y019766D01*
X019528Y019761D01*
X019576Y019752D01*
X019622Y019740D01*
X019667Y019723D01*
X019711Y019703D01*
X019753Y019680D01*
X019793Y019653D01*
X019831Y019623D01*
X019866Y019590D01*
X019898Y019554D01*
X019928Y019516D01*
X019954Y019475D01*
X019976Y019432D01*
X019996Y019388D01*
X020011Y019343D01*
X020023Y019296D01*
X020031Y019248D01*
X020035Y019200D01*
X020035Y019152D01*
X020031Y019104D01*
X020023Y019056D01*
X020011Y019009D01*
X019996Y018964D01*
X019976Y018920D01*
X019954Y018877D01*
X019928Y018836D01*
X019898Y018798D01*
X019866Y018762D01*
X019831Y018729D01*
X019793Y018699D01*
X019753Y018672D01*
X019711Y018649D01*
X019667Y018629D01*
X019622Y018612D01*
X019576Y018600D01*
X019528Y018591D01*
X019480Y018586D01*
X019432Y018585D01*
X019384Y018588D01*
X019336Y018595D01*
X019289Y018606D01*
X019243Y018620D01*
X019198Y018638D01*
X019155Y018660D01*
X019114Y018685D01*
X019076Y018714D01*
X019039Y018746D01*
X019005Y018780D01*
X018975Y018817D01*
X018947Y018856D01*
X018922Y018898D01*
X018902Y018942D01*
X018884Y018987D01*
X018871Y019033D01*
X018861Y019080D01*
X018855Y019128D01*
X018853Y019176D01*
D11*
X014300Y019532D03*
X014300Y018782D03*
X014300Y018032D03*
X014300Y017282D03*
X010800Y016282D03*
X010300Y017282D03*
X010300Y018032D03*
X010300Y018782D03*
X010300Y019532D03*
X005550Y021282D03*
X005050Y022032D03*
X004550Y021282D03*
X010800Y012282D03*
X013300Y013282D03*
X013300Y009282D03*
X013300Y008282D03*
X013300Y004282D03*
X008300Y003782D03*
X007300Y003782D03*
X006300Y003782D03*
X005300Y003782D03*
X005300Y007782D03*
X006300Y007782D03*
X007300Y007782D03*
X008300Y007782D03*
D12*
X013550Y003282D03*
X014550Y003282D03*
X001550Y005032D03*
X001550Y006032D03*
X001550Y007032D03*
X001550Y008032D03*
X001550Y009032D03*
X001550Y010032D03*
X001550Y011032D03*
X001550Y012032D03*
X001550Y013032D03*
X001550Y014032D03*
X001550Y015032D03*
X001550Y016032D03*
X001550Y017032D03*
X001550Y018032D03*
X001550Y019032D03*
X001550Y020032D03*
D13*
X004050Y020282D03*
X005050Y020282D03*
X006050Y020282D03*
D14*
X007800Y020985D02*
X007800Y021579D01*
X008800Y021579D02*
X008800Y020985D01*
X009800Y020985D02*
X009800Y021579D01*
X010800Y021579D02*
X010800Y020985D01*
X011800Y020985D02*
X011800Y021579D01*
X012800Y021579D02*
X012800Y020985D01*
X013800Y020985D02*
X013800Y021579D01*
X014800Y021579D02*
X014800Y020985D01*
X015800Y020985D02*
X015800Y021579D01*
X016800Y021579D02*
X016800Y020985D01*
X017800Y020985D02*
X017800Y021579D01*
X018800Y021579D02*
X018800Y020985D01*
X019800Y020985D02*
X019800Y021579D01*
D15*
X018380Y019172D02*
X017780Y019172D01*
X017780Y017392D02*
X018380Y017392D01*
X017910Y016612D02*
X017910Y016012D01*
X016940Y016012D02*
X016940Y016612D01*
X015820Y017392D02*
X015220Y017392D01*
X015160Y016612D02*
X015160Y016012D01*
X014190Y016012D02*
X014190Y016612D01*
X012410Y016612D02*
X012410Y016012D01*
X012410Y014052D02*
X012410Y013452D01*
X014190Y013452D02*
X014190Y014052D01*
X015160Y014052D02*
X015160Y013452D01*
X015220Y012672D02*
X015820Y012672D01*
X016940Y013452D02*
X016940Y014052D01*
X017910Y014052D02*
X017910Y013452D01*
X017780Y012672D02*
X018380Y012672D01*
X019690Y013452D02*
X019690Y014052D01*
X019690Y016012D02*
X019690Y016612D01*
X015820Y019172D02*
X015220Y019172D01*
X015220Y010892D02*
X015820Y010892D01*
X017780Y010892D02*
X018380Y010892D01*
D16*
X011800Y011282D03*
X010800Y011282D03*
X010800Y010282D03*
X010800Y009282D03*
X010800Y008282D03*
X010800Y007282D03*
X011800Y007282D03*
X011800Y008282D03*
X011800Y009282D03*
X011800Y010282D03*
D17*
X003300Y017282D03*
D18*
X003300Y016282D03*
X003300Y015282D03*
X003300Y014282D03*
X003300Y013282D03*
X003300Y012282D03*
X003300Y011282D03*
X003300Y010282D03*
X003300Y009282D03*
X003300Y008282D03*
X003300Y007282D03*
X003300Y006282D03*
X003300Y005282D03*
X003300Y004282D03*
X003300Y003282D03*
X009300Y003282D03*
X009300Y004282D03*
X009300Y005282D03*
X009300Y006282D03*
X009300Y007282D03*
X009300Y008282D03*
X009300Y009282D03*
X009300Y010282D03*
X009300Y011282D03*
X009300Y012282D03*
X009300Y013282D03*
X009300Y014282D03*
X009300Y015282D03*
X009300Y016282D03*
X009300Y017282D03*
D19*
X010550Y003282D03*
X011550Y003282D03*
X012550Y003282D03*
D20*
X014290Y006282D02*
X014810Y006282D01*
X014810Y007282D02*
X014290Y007282D01*
X014290Y008282D02*
X014810Y008282D01*
X014810Y009282D02*
X014290Y009282D01*
X017290Y009282D02*
X017810Y009282D01*
X017810Y008282D02*
X017290Y008282D01*
X017290Y007282D02*
X017810Y007282D01*
X017810Y006282D02*
X017290Y006282D01*
D21*
X018300Y006782D03*
X019300Y006782D03*
D22*
X018869Y009219D03*
X012050Y005282D03*
D23*
X012044Y005302D01*
X012044Y006341D01*
X011288Y007097D01*
X011288Y011412D01*
X011257Y011443D01*
X011099Y011286D01*
X010816Y011286D01*
X010800Y011282D01*
X011257Y011443D02*
X012706Y012892D01*
X013461Y012892D01*
X014280Y013711D01*
X014190Y013752D01*
X014186Y013805D01*
X014186Y016262D01*
X014190Y016312D01*
X014217Y016325D01*
X014784Y016325D01*
X014784Y017553D01*
X015509Y018278D01*
X015509Y019128D01*
X015520Y019172D01*
X015509Y019191D01*
X015115Y019585D01*
X016391Y020861D01*
X018060Y019191D01*
X018080Y019172D01*
X016391Y020861D02*
X016800Y021270D01*
X016800Y021282D01*
X015115Y019585D02*
X014091Y020609D01*
X014060Y020577D01*
X011603Y020577D01*
X010910Y021270D01*
X010847Y021270D01*
X010800Y021282D01*
X010690Y021270D01*
X009902Y020483D01*
X009902Y017207D01*
X009304Y016609D01*
X009304Y016294D01*
X009300Y016282D01*
X010658Y021302D02*
X009965Y021994D01*
X008485Y021994D01*
X007824Y021333D01*
X007800Y021282D01*
X007792Y021302D01*
X005556Y021302D01*
X005550Y021282D01*
X010658Y021302D02*
X010784Y021302D01*
X010800Y021282D01*
X013800Y021282D02*
X013808Y021270D01*
X013808Y020892D01*
X014091Y020609D01*
X014784Y016325D02*
X015131Y016325D01*
X015160Y016312D01*
X015131Y013774D02*
X014217Y013774D01*
X014190Y013752D01*
X014469Y013742D01*
X015509Y012703D01*
X015520Y012672D01*
X015572Y012672D01*
X016233Y012010D01*
X017335Y012010D01*
X017367Y011979D01*
X018060Y012672D01*
X018080Y012672D01*
X018123Y012672D01*
X019194Y013742D01*
X019666Y013742D01*
X019690Y013752D01*
X019698Y013774D01*
X019698Y016294D01*
X019690Y016312D01*
X017367Y011979D02*
X017367Y010719D01*
X017524Y010561D01*
X017524Y009302D01*
X017550Y009282D01*
X015160Y013752D02*
X015131Y013774D01*
D24*
X016926Y013774D02*
X016940Y013752D01*
X016926Y013774D02*
X016926Y016294D01*
X016940Y016312D01*
X017902Y016294D02*
X017910Y016312D01*
X017902Y016294D02*
X017902Y013774D01*
X017910Y013752D01*
X018080Y017392D02*
X018060Y017396D01*
X015540Y017396D01*
X015520Y017392D01*
X014312Y017302D02*
X014300Y017282D01*
X014312Y017302D02*
X014312Y018026D01*
X014300Y018032D01*
X014280Y019506D02*
X014300Y019532D01*
X014280Y019506D02*
X011745Y016971D01*
X010690Y018026D01*
X010312Y018026D01*
X010300Y018032D01*
X010312Y018782D02*
X010300Y018782D01*
X010312Y018782D02*
X010312Y019506D01*
X010300Y019532D01*
X008800Y020294D02*
X009776Y021270D01*
X009800Y021282D01*
X008800Y020294D02*
X008107Y020294D01*
X008107Y016829D01*
X009146Y015790D01*
X009871Y015790D01*
X009997Y015664D01*
X009997Y015002D01*
X009304Y014309D01*
X009300Y014282D01*
X009430Y014750D02*
X009115Y014750D01*
X008674Y014309D01*
X008674Y007884D01*
X009272Y007286D01*
X009300Y007282D01*
X010091Y007569D02*
X010091Y006813D01*
X010091Y007569D02*
X010784Y008262D01*
X010800Y008282D01*
X009300Y008282D02*
X009272Y008294D01*
X008831Y008735D01*
X008831Y012451D01*
X009115Y012735D01*
X009398Y012735D01*
X009776Y013113D01*
X009776Y013774D01*
X011446Y015443D01*
X010784Y015128D02*
X010784Y016262D01*
X010800Y016282D01*
X010784Y016294D01*
X010312Y016766D01*
X010312Y017270D01*
X010300Y017282D01*
X011745Y016971D02*
X012391Y016325D01*
X012410Y016312D01*
X012422Y016294D01*
X012422Y013774D01*
X012410Y013752D01*
X010784Y015128D02*
X009304Y013648D01*
X009304Y013302D01*
X009300Y013282D01*
X009300Y012282D02*
X009304Y012262D01*
X009304Y011916D01*
X009871Y011349D01*
X009871Y005931D01*
X011540Y004262D01*
X011540Y003286D01*
X011550Y003282D01*
X010550Y003282D02*
X010532Y003286D01*
X010532Y004735D01*
X009304Y005963D01*
X009304Y006278D01*
X009300Y006282D01*
X008300Y007782D02*
X008296Y007790D01*
X008296Y008294D01*
X005162Y011428D01*
X008769Y015034D01*
X009272Y015286D02*
X009300Y015282D01*
X009272Y015286D02*
X003320Y015286D01*
X003300Y015282D01*
X003300Y013282D02*
X003320Y013270D01*
X005162Y011428D01*
X005272Y010971D02*
X003414Y012829D01*
X003099Y012829D01*
X002847Y013081D01*
X002847Y017679D01*
X005052Y019884D01*
X005241Y019884D01*
X005461Y020105D01*
X005461Y020861D01*
X005052Y021270D01*
X005052Y022026D01*
X005050Y022032D01*
X004550Y021282D02*
X004548Y021270D01*
X004359Y021270D01*
X001524Y018435D01*
X001367Y018435D01*
X001146Y018215D01*
X001146Y005428D01*
X001524Y005050D01*
X001550Y005032D01*
X003300Y004282D02*
X003320Y004262D01*
X004296Y004262D01*
X005146Y003412D01*
X008769Y003412D01*
X009178Y003821D01*
X009493Y003821D01*
X010312Y004640D01*
X008296Y003790D02*
X008300Y003782D01*
X008296Y003790D02*
X007320Y003790D01*
X007300Y003782D01*
X007288Y003790D01*
X006312Y003790D01*
X006300Y003782D01*
X005300Y003782D02*
X005272Y003790D01*
X005272Y004325D01*
X003320Y006278D01*
X003300Y006282D01*
X003300Y007282D02*
X003320Y007286D01*
X006343Y007286D01*
X006816Y007758D01*
X007288Y007758D01*
X007300Y007782D01*
X005300Y007782D02*
X005272Y007790D01*
X005272Y010971D01*
X003300Y011282D02*
X003288Y011254D01*
X002091Y010057D01*
X001556Y010057D01*
X001550Y010032D01*
X001556Y009050D02*
X001550Y009032D01*
X001556Y009050D02*
X002060Y009050D01*
X003288Y010278D01*
X003300Y010282D01*
X003300Y009282D02*
X002060Y008042D01*
X001556Y008042D01*
X001550Y008032D01*
X001556Y007034D02*
X001550Y007032D01*
X001556Y007034D02*
X002060Y007034D01*
X003288Y008262D01*
X003300Y008282D01*
X009430Y014750D02*
X009776Y015097D01*
X009776Y015569D01*
X010312Y013994D02*
X010312Y011097D01*
X010784Y010624D01*
X010784Y010309D01*
X010800Y010282D01*
X011824Y011254D02*
X011800Y011282D01*
X011824Y011254D02*
X013367Y011254D01*
X015194Y009428D01*
X015194Y004924D01*
X013556Y003286D01*
X013550Y003282D01*
X013272Y003979D02*
X012580Y003286D01*
X012550Y003282D01*
X013272Y003979D02*
X013272Y004262D01*
X013300Y004282D01*
X013335Y004294D01*
X014532Y005490D01*
X014532Y006278D01*
X014550Y006282D01*
X014550Y008282D02*
X014532Y008294D01*
X013304Y008294D01*
X013300Y008282D01*
X013300Y009282D02*
X013304Y009302D01*
X014532Y009302D01*
X014550Y009282D01*
X017550Y008282D02*
X017556Y008294D01*
X017934Y008294D01*
X018847Y009207D01*
X018869Y009219D01*
X017550Y007282D02*
X017556Y007254D01*
X018816Y007254D01*
X019288Y006782D01*
X019300Y006782D01*
X018300Y006782D02*
X018280Y006782D01*
X017808Y006309D01*
X017556Y006309D01*
X017550Y006282D01*
X008107Y020294D02*
X006060Y020294D01*
X006050Y020282D01*
X005050Y020282D02*
X005020Y020262D01*
X004611Y020262D01*
X002406Y018057D01*
X001556Y018057D01*
X001550Y018032D01*
X012800Y021282D02*
X012800Y021302D01*
X012957Y021302D01*
X013650Y021994D01*
X015099Y021994D01*
X018973Y021994D01*
X019666Y021302D01*
X019792Y021302D01*
X019800Y021282D01*
X015800Y021282D02*
X015792Y021302D01*
X015099Y021994D01*
D25*
X009776Y015569D03*
X008769Y015034D03*
X010312Y013994D03*
X011446Y015443D03*
X010091Y006813D03*
X010312Y004640D03*
M02*
