G75*
%MOIN*%
%OFA0B0*%
%FSLAX24Y24*%
%IPPOS*%
%LPD*%
%AMOC8*
5,1,8,0,0,1.08239X$1,22.5*
%
%ADD10C,0.0000*%
%ADD11C,0.0040*%
%ADD12C,0.0060*%
%ADD13R,0.0240X0.0340*%
%ADD14C,0.0050*%
%ADD15C,0.0080*%
%ADD16C,0.0100*%
%ADD17R,0.0827X0.0157*%
%ADD18C,0.0020*%
%ADD19R,0.0340X0.0240*%
%ADD20C,0.0010*%
%ADD21R,0.0200X0.0200*%
%ADD22C,0.0160*%
%ADD23R,0.0160X0.0230*%
D10*
X000800Y002782D02*
X000800Y022467D01*
X020292Y022467D01*
X020292Y002782D01*
X000800Y002782D01*
X001103Y003676D02*
X001105Y003724D01*
X001111Y003772D01*
X001121Y003819D01*
X001134Y003865D01*
X001152Y003910D01*
X001172Y003954D01*
X001197Y003996D01*
X001225Y004035D01*
X001255Y004072D01*
X001289Y004106D01*
X001326Y004138D01*
X001364Y004167D01*
X001405Y004192D01*
X001448Y004214D01*
X001493Y004232D01*
X001539Y004246D01*
X001586Y004257D01*
X001634Y004264D01*
X001682Y004267D01*
X001730Y004266D01*
X001778Y004261D01*
X001826Y004252D01*
X001872Y004240D01*
X001917Y004223D01*
X001961Y004203D01*
X002003Y004180D01*
X002043Y004153D01*
X002081Y004123D01*
X002116Y004090D01*
X002148Y004054D01*
X002178Y004016D01*
X002204Y003975D01*
X002226Y003932D01*
X002246Y003888D01*
X002261Y003843D01*
X002273Y003796D01*
X002281Y003748D01*
X002285Y003700D01*
X002285Y003652D01*
X002281Y003604D01*
X002273Y003556D01*
X002261Y003509D01*
X002246Y003464D01*
X002226Y003420D01*
X002204Y003377D01*
X002178Y003336D01*
X002148Y003298D01*
X002116Y003262D01*
X002081Y003229D01*
X002043Y003199D01*
X002003Y003172D01*
X001961Y003149D01*
X001917Y003129D01*
X001872Y003112D01*
X001826Y003100D01*
X001778Y003091D01*
X001730Y003086D01*
X001682Y003085D01*
X001634Y003088D01*
X001586Y003095D01*
X001539Y003106D01*
X001493Y003120D01*
X001448Y003138D01*
X001405Y003160D01*
X001364Y003185D01*
X001326Y003214D01*
X001289Y003246D01*
X001255Y003280D01*
X001225Y003317D01*
X001197Y003356D01*
X001172Y003398D01*
X001152Y003442D01*
X001134Y003487D01*
X001121Y003533D01*
X001111Y003580D01*
X001105Y003628D01*
X001103Y003676D01*
X001143Y021532D02*
X001145Y021579D01*
X001151Y021625D01*
X001161Y021671D01*
X001174Y021716D01*
X001192Y021759D01*
X001213Y021801D01*
X001237Y021841D01*
X001265Y021878D01*
X001296Y021913D01*
X001330Y021946D01*
X001366Y021975D01*
X001405Y022001D01*
X001446Y022024D01*
X001489Y022043D01*
X001533Y022059D01*
X001578Y022071D01*
X001624Y022079D01*
X001671Y022083D01*
X001717Y022083D01*
X001764Y022079D01*
X001810Y022071D01*
X001855Y022059D01*
X001899Y022043D01*
X001942Y022024D01*
X001983Y022001D01*
X002022Y021975D01*
X002058Y021946D01*
X002092Y021913D01*
X002123Y021878D01*
X002151Y021841D01*
X002175Y021801D01*
X002196Y021759D01*
X002214Y021716D01*
X002227Y021671D01*
X002237Y021625D01*
X002243Y021579D01*
X002245Y021532D01*
X002243Y021485D01*
X002237Y021439D01*
X002227Y021393D01*
X002214Y021348D01*
X002196Y021305D01*
X002175Y021263D01*
X002151Y021223D01*
X002123Y021186D01*
X002092Y021151D01*
X002058Y021118D01*
X002022Y021089D01*
X001983Y021063D01*
X001942Y021040D01*
X001899Y021021D01*
X001855Y021005D01*
X001810Y020993D01*
X001764Y020985D01*
X001717Y020981D01*
X001671Y020981D01*
X001624Y020985D01*
X001578Y020993D01*
X001533Y021005D01*
X001489Y021021D01*
X001446Y021040D01*
X001405Y021063D01*
X001366Y021089D01*
X001330Y021118D01*
X001296Y021151D01*
X001265Y021186D01*
X001237Y021223D01*
X001213Y021263D01*
X001192Y021305D01*
X001174Y021348D01*
X001161Y021393D01*
X001151Y021439D01*
X001145Y021485D01*
X001143Y021532D01*
X018749Y012282D02*
X018751Y012329D01*
X018757Y012375D01*
X018767Y012421D01*
X018780Y012466D01*
X018798Y012509D01*
X018819Y012551D01*
X018843Y012591D01*
X018871Y012628D01*
X018902Y012663D01*
X018936Y012696D01*
X018972Y012725D01*
X019011Y012751D01*
X019052Y012774D01*
X019095Y012793D01*
X019139Y012809D01*
X019184Y012821D01*
X019230Y012829D01*
X019277Y012833D01*
X019323Y012833D01*
X019370Y012829D01*
X019416Y012821D01*
X019461Y012809D01*
X019505Y012793D01*
X019548Y012774D01*
X019589Y012751D01*
X019628Y012725D01*
X019664Y012696D01*
X019698Y012663D01*
X019729Y012628D01*
X019757Y012591D01*
X019781Y012551D01*
X019802Y012509D01*
X019820Y012466D01*
X019833Y012421D01*
X019843Y012375D01*
X019849Y012329D01*
X019851Y012282D01*
X019849Y012235D01*
X019843Y012189D01*
X019833Y012143D01*
X019820Y012098D01*
X019802Y012055D01*
X019781Y012013D01*
X019757Y011973D01*
X019729Y011936D01*
X019698Y011901D01*
X019664Y011868D01*
X019628Y011839D01*
X019589Y011813D01*
X019548Y011790D01*
X019505Y011771D01*
X019461Y011755D01*
X019416Y011743D01*
X019370Y011735D01*
X019323Y011731D01*
X019277Y011731D01*
X019230Y011735D01*
X019184Y011743D01*
X019139Y011755D01*
X019095Y011771D01*
X019052Y011790D01*
X019011Y011813D01*
X018972Y011839D01*
X018936Y011868D01*
X018902Y011901D01*
X018871Y011936D01*
X018843Y011973D01*
X018819Y012013D01*
X018798Y012055D01*
X018780Y012098D01*
X018767Y012143D01*
X018757Y012189D01*
X018751Y012235D01*
X018749Y012282D01*
X018853Y019176D02*
X018855Y019224D01*
X018861Y019272D01*
X018871Y019319D01*
X018884Y019365D01*
X018902Y019410D01*
X018922Y019454D01*
X018947Y019496D01*
X018975Y019535D01*
X019005Y019572D01*
X019039Y019606D01*
X019076Y019638D01*
X019114Y019667D01*
X019155Y019692D01*
X019198Y019714D01*
X019243Y019732D01*
X019289Y019746D01*
X019336Y019757D01*
X019384Y019764D01*
X019432Y019767D01*
X019480Y019766D01*
X019528Y019761D01*
X019576Y019752D01*
X019622Y019740D01*
X019667Y019723D01*
X019711Y019703D01*
X019753Y019680D01*
X019793Y019653D01*
X019831Y019623D01*
X019866Y019590D01*
X019898Y019554D01*
X019928Y019516D01*
X019954Y019475D01*
X019976Y019432D01*
X019996Y019388D01*
X020011Y019343D01*
X020023Y019296D01*
X020031Y019248D01*
X020035Y019200D01*
X020035Y019152D01*
X020031Y019104D01*
X020023Y019056D01*
X020011Y019009D01*
X019996Y018964D01*
X019976Y018920D01*
X019954Y018877D01*
X019928Y018836D01*
X019898Y018798D01*
X019866Y018762D01*
X019831Y018729D01*
X019793Y018699D01*
X019753Y018672D01*
X019711Y018649D01*
X019667Y018629D01*
X019622Y018612D01*
X019576Y018600D01*
X019528Y018591D01*
X019480Y018586D01*
X019432Y018585D01*
X019384Y018588D01*
X019336Y018595D01*
X019289Y018606D01*
X019243Y018620D01*
X019198Y018638D01*
X019155Y018660D01*
X019114Y018685D01*
X019076Y018714D01*
X019039Y018746D01*
X019005Y018780D01*
X018975Y018817D01*
X018947Y018856D01*
X018922Y018898D01*
X018902Y018942D01*
X018884Y018987D01*
X018871Y019033D01*
X018861Y019080D01*
X018855Y019128D01*
X018853Y019176D01*
D11*
X016868Y022802D02*
X016748Y022802D01*
X016688Y022862D01*
X016688Y022982D02*
X016808Y023042D01*
X016868Y023042D01*
X016929Y022982D01*
X016929Y022862D01*
X016868Y022802D01*
X016688Y022982D02*
X016688Y023162D01*
X016929Y023162D01*
X016560Y023162D02*
X016320Y022802D01*
X016560Y022802D02*
X016320Y023162D01*
X013929Y022802D02*
X013688Y022802D01*
X013808Y022802D02*
X013808Y023162D01*
X013688Y023042D01*
X013560Y023162D02*
X013320Y022802D01*
X013560Y022802D02*
X013320Y023162D01*
X010929Y023102D02*
X010868Y023162D01*
X010748Y023162D01*
X010688Y023102D01*
X010560Y023162D02*
X010320Y022802D01*
X010560Y022802D02*
X010320Y023162D01*
X010688Y022802D02*
X010929Y023042D01*
X010929Y023102D01*
X010929Y022802D02*
X010688Y022802D01*
X007929Y022862D02*
X007868Y022802D01*
X007748Y022802D01*
X007688Y022862D01*
X007560Y022802D02*
X007320Y023162D01*
X007560Y023162D02*
X007320Y022802D01*
X007688Y023102D02*
X007748Y023162D01*
X007868Y023162D01*
X007929Y023102D01*
X007929Y023042D01*
X007868Y022982D01*
X007929Y022922D01*
X007929Y022862D01*
X007868Y022982D02*
X007808Y022982D01*
X004631Y019509D02*
X004478Y019509D01*
X004401Y019432D01*
X004401Y019279D01*
X004478Y019202D01*
X004631Y019202D01*
X004708Y019355D02*
X004401Y019355D01*
X004248Y019432D02*
X004171Y019509D01*
X004094Y019432D01*
X004094Y019202D01*
X003941Y019202D02*
X003941Y019509D01*
X004018Y019509D01*
X004094Y019432D01*
X004248Y019432D02*
X004248Y019202D01*
X003787Y019202D02*
X003557Y019202D01*
X003480Y019279D01*
X003557Y019355D01*
X003787Y019355D01*
X003787Y019432D02*
X003787Y019202D01*
X003787Y019432D02*
X003711Y019509D01*
X003557Y019509D01*
X003327Y019662D02*
X003327Y019202D01*
X003020Y019662D01*
X003020Y019202D01*
X004631Y019509D02*
X004708Y019432D01*
X004708Y019355D01*
X006098Y018731D02*
X006098Y018270D01*
X006098Y018424D02*
X006328Y018424D01*
X006405Y018501D01*
X006405Y018654D01*
X006328Y018731D01*
X006098Y018731D01*
X006251Y018424D02*
X006405Y018270D01*
X006558Y018347D02*
X006635Y018270D01*
X006789Y018270D01*
X006865Y018347D01*
X006865Y018501D01*
X006789Y018577D01*
X006712Y018577D01*
X006558Y018501D01*
X006558Y018731D01*
X006865Y018731D01*
X013070Y012459D02*
X013430Y012459D01*
X013430Y012579D02*
X013430Y012338D01*
X013430Y012210D02*
X013430Y011970D01*
X013430Y012090D02*
X013070Y012090D01*
X013190Y011970D01*
X013250Y011842D02*
X013310Y011782D01*
X013310Y011602D01*
X013310Y011722D02*
X013430Y011842D01*
X013250Y011842D02*
X013130Y011842D01*
X013070Y011782D01*
X013070Y011602D01*
X013430Y011602D01*
X013190Y012338D02*
X013070Y012459D01*
X013230Y006124D02*
X013170Y006064D01*
X013170Y005944D01*
X013230Y005884D01*
X013230Y006124D02*
X013290Y006124D01*
X013530Y005884D01*
X013530Y006124D01*
X013530Y005755D02*
X013530Y005515D01*
X013530Y005635D02*
X013170Y005635D01*
X013290Y005515D01*
X013230Y005387D02*
X013350Y005387D01*
X013410Y005327D01*
X013410Y005147D01*
X013410Y005267D02*
X013530Y005387D01*
X013230Y005387D02*
X013170Y005327D01*
X013170Y005147D01*
X013530Y005147D01*
X016320Y004435D02*
X016320Y004129D01*
X016397Y004052D01*
X016550Y004052D01*
X016627Y004129D01*
X016627Y004435D01*
X016550Y004512D01*
X016397Y004512D01*
X016320Y004435D01*
X016780Y004512D02*
X016780Y004052D01*
X016780Y004205D02*
X017011Y004205D01*
X017087Y004282D01*
X017087Y004435D01*
X017011Y004512D01*
X016780Y004512D01*
X016934Y004205D02*
X017087Y004052D01*
X017241Y004052D02*
X017471Y004052D01*
X017548Y004129D01*
X017548Y004435D01*
X017471Y004512D01*
X017241Y004512D01*
X017241Y004052D01*
X017318Y003762D02*
X017471Y003762D01*
X017548Y003685D01*
X017241Y003379D01*
X017318Y003302D01*
X017471Y003302D01*
X017548Y003379D01*
X017548Y003685D01*
X017701Y003685D02*
X017701Y003379D01*
X018008Y003685D01*
X018008Y003379D01*
X017931Y003302D01*
X017778Y003302D01*
X017701Y003379D01*
X017701Y003685D02*
X017778Y003762D01*
X017931Y003762D01*
X018008Y003685D01*
X018162Y003685D02*
X018162Y003379D01*
X018468Y003685D01*
X018468Y003379D01*
X018392Y003302D01*
X018238Y003302D01*
X018162Y003379D01*
X018162Y003685D02*
X018238Y003762D01*
X018392Y003762D01*
X018468Y003685D01*
X018622Y003685D02*
X018699Y003762D01*
X018852Y003762D01*
X018929Y003685D01*
X018929Y003609D01*
X018622Y003302D01*
X018929Y003302D01*
X019082Y003302D02*
X019389Y003609D01*
X019389Y003685D01*
X019313Y003762D01*
X019159Y003762D01*
X019082Y003685D01*
X019082Y003302D02*
X019389Y003302D01*
X019543Y003379D02*
X019543Y003532D01*
X019773Y003532D01*
X019850Y003455D01*
X019850Y003379D01*
X019773Y003302D01*
X019619Y003302D01*
X019543Y003379D01*
X019543Y003532D02*
X019696Y003685D01*
X019850Y003762D01*
X020003Y003685D02*
X020080Y003762D01*
X020233Y003762D01*
X020310Y003685D01*
X020003Y003379D01*
X020080Y003302D01*
X020233Y003302D01*
X020310Y003379D01*
X020310Y003685D01*
X020464Y003532D02*
X020770Y003532D01*
X020694Y003302D02*
X020694Y003762D01*
X020464Y003532D01*
X020003Y003379D02*
X020003Y003685D01*
X018468Y004052D02*
X018315Y004205D01*
X018392Y004205D02*
X018162Y004205D01*
X018162Y004052D02*
X018162Y004512D01*
X018392Y004512D01*
X018468Y004435D01*
X018468Y004282D01*
X018392Y004205D01*
X018008Y004052D02*
X017701Y004052D01*
X017701Y004512D01*
X018008Y004512D01*
X017855Y004282D02*
X017701Y004282D01*
X017318Y003762D02*
X017241Y003685D01*
X017241Y003379D01*
X017087Y003302D02*
X016780Y003302D01*
X016934Y003302D02*
X016934Y003762D01*
X016780Y003609D01*
X016627Y003609D02*
X016550Y003609D01*
X016320Y003609D01*
X016320Y003455D02*
X016627Y003455D01*
X016550Y003302D02*
X016550Y003762D01*
X016397Y003762D02*
X016397Y003302D01*
X004815Y000932D02*
X004815Y000855D01*
X004508Y000855D01*
X004508Y000779D02*
X004508Y000932D01*
X004585Y001009D01*
X004738Y001009D01*
X004815Y000932D01*
X004738Y000702D02*
X004585Y000702D01*
X004508Y000779D01*
X004355Y000702D02*
X004355Y001009D01*
X004048Y001009D02*
X004048Y000779D01*
X004124Y000702D01*
X004355Y000702D01*
X003894Y000702D02*
X003741Y000702D01*
X003818Y000702D02*
X003818Y001162D01*
X003741Y001162D01*
X003587Y000932D02*
X003587Y000702D01*
X003357Y000702D01*
X003280Y000779D01*
X003357Y000855D01*
X003587Y000855D01*
X003587Y000932D02*
X003511Y001009D01*
X003357Y001009D01*
X003127Y000855D02*
X003127Y001162D01*
X003127Y000855D02*
X002973Y000702D01*
X002820Y000855D01*
X002820Y001162D01*
D12*
X004950Y004532D02*
X005650Y004532D01*
X005667Y004534D01*
X005684Y004538D01*
X005700Y004545D01*
X005714Y004555D01*
X005727Y004568D01*
X005737Y004582D01*
X005744Y004598D01*
X005748Y004615D01*
X005750Y004632D01*
X005750Y004782D01*
X005700Y004832D01*
X005700Y006732D01*
X005750Y006782D01*
X005750Y006932D01*
X005850Y006932D02*
X005850Y006782D01*
X005900Y006732D01*
X005900Y004832D01*
X005850Y004782D01*
X005850Y004632D01*
X005852Y004615D01*
X005856Y004598D01*
X005863Y004582D01*
X005873Y004568D01*
X005886Y004555D01*
X005900Y004545D01*
X005916Y004538D01*
X005933Y004534D01*
X005950Y004532D01*
X006650Y004532D01*
X006667Y004534D01*
X006684Y004538D01*
X006700Y004545D01*
X006714Y004555D01*
X006727Y004568D01*
X006737Y004582D01*
X006744Y004598D01*
X006748Y004615D01*
X006750Y004632D01*
X006750Y004782D01*
X006700Y004832D01*
X006700Y006732D01*
X006750Y006782D01*
X006750Y006932D01*
X006748Y006949D01*
X006744Y006966D01*
X006737Y006982D01*
X006727Y006996D01*
X006714Y007009D01*
X006700Y007019D01*
X006684Y007026D01*
X006667Y007030D01*
X006650Y007032D01*
X005950Y007032D01*
X005933Y007030D01*
X005916Y007026D01*
X005900Y007019D01*
X005886Y007009D01*
X005873Y006996D01*
X005863Y006982D01*
X005856Y006966D01*
X005852Y006949D01*
X005850Y006932D01*
X005750Y006932D02*
X005748Y006949D01*
X005744Y006966D01*
X005737Y006982D01*
X005727Y006996D01*
X005714Y007009D01*
X005700Y007019D01*
X005684Y007026D01*
X005667Y007030D01*
X005650Y007032D01*
X004950Y007032D01*
X004933Y007030D01*
X004916Y007026D01*
X004900Y007019D01*
X004886Y007009D01*
X004873Y006996D01*
X004863Y006982D01*
X004856Y006966D01*
X004852Y006949D01*
X004850Y006932D01*
X004850Y006782D01*
X004900Y006732D01*
X004900Y004832D01*
X004850Y004782D01*
X004850Y004632D01*
X004852Y004615D01*
X004856Y004598D01*
X004863Y004582D01*
X004873Y004568D01*
X004886Y004555D01*
X004900Y004545D01*
X004916Y004538D01*
X004933Y004534D01*
X004950Y004532D01*
X006850Y004632D02*
X006850Y004782D01*
X006900Y004832D01*
X006900Y006732D01*
X006850Y006782D01*
X006850Y006932D01*
X006852Y006949D01*
X006856Y006966D01*
X006863Y006982D01*
X006873Y006996D01*
X006886Y007009D01*
X006900Y007019D01*
X006916Y007026D01*
X006933Y007030D01*
X006950Y007032D01*
X007650Y007032D01*
X007667Y007030D01*
X007684Y007026D01*
X007700Y007019D01*
X007714Y007009D01*
X007727Y006996D01*
X007737Y006982D01*
X007744Y006966D01*
X007748Y006949D01*
X007750Y006932D01*
X007750Y006782D01*
X007700Y006732D01*
X007700Y004832D01*
X007750Y004782D01*
X007750Y004632D01*
X007748Y004615D01*
X007744Y004598D01*
X007737Y004582D01*
X007727Y004568D01*
X007714Y004555D01*
X007700Y004545D01*
X007684Y004538D01*
X007667Y004534D01*
X007650Y004532D01*
X006950Y004532D01*
X006933Y004534D01*
X006916Y004538D01*
X006900Y004545D01*
X006886Y004555D01*
X006873Y004568D01*
X006863Y004582D01*
X006856Y004598D01*
X006852Y004615D01*
X006850Y004632D01*
X007850Y004632D02*
X007850Y004782D01*
X007900Y004832D01*
X007900Y006732D01*
X007850Y006782D01*
X007850Y006932D01*
X007852Y006949D01*
X007856Y006966D01*
X007863Y006982D01*
X007873Y006996D01*
X007886Y007009D01*
X007900Y007019D01*
X007916Y007026D01*
X007933Y007030D01*
X007950Y007032D01*
X008650Y007032D01*
X008667Y007030D01*
X008684Y007026D01*
X008700Y007019D01*
X008714Y007009D01*
X008727Y006996D01*
X008737Y006982D01*
X008744Y006966D01*
X008748Y006949D01*
X008750Y006932D01*
X008750Y006782D01*
X008700Y006732D01*
X008700Y004832D01*
X008750Y004782D01*
X008750Y004632D01*
X008748Y004615D01*
X008744Y004598D01*
X008737Y004582D01*
X008727Y004568D01*
X008714Y004555D01*
X008700Y004545D01*
X008684Y004538D01*
X008667Y004534D01*
X008650Y004532D01*
X007950Y004532D01*
X007933Y004534D01*
X007916Y004538D01*
X007900Y004545D01*
X007886Y004555D01*
X007873Y004568D01*
X007863Y004582D01*
X007856Y004598D01*
X007852Y004615D01*
X007850Y004632D01*
X010300Y007032D02*
X010300Y007532D01*
X010550Y007782D01*
X012050Y007782D01*
X012300Y008032D01*
X012300Y008532D01*
X012050Y008782D01*
X010550Y008782D01*
X010300Y009032D01*
X010300Y009532D01*
X010550Y009782D01*
X012050Y009782D01*
X012300Y010032D01*
X012300Y010532D01*
X012050Y010782D01*
X012300Y011032D01*
X012300Y011532D01*
X012050Y011782D01*
X010550Y011782D01*
X010300Y011532D01*
X010300Y011032D01*
X010550Y010782D01*
X012050Y010782D01*
X012850Y010282D02*
X012900Y010332D01*
X012900Y012232D01*
X012850Y012282D01*
X012850Y012432D01*
X012852Y012449D01*
X012856Y012466D01*
X012863Y012482D01*
X012873Y012496D01*
X012886Y012509D01*
X012900Y012519D01*
X012916Y012526D01*
X012933Y012530D01*
X012950Y012532D01*
X013650Y012532D01*
X013667Y012530D01*
X013684Y012526D01*
X013700Y012519D01*
X013714Y012509D01*
X013727Y012496D01*
X013737Y012482D01*
X013744Y012466D01*
X013748Y012449D01*
X013750Y012432D01*
X013750Y012282D01*
X013700Y012232D01*
X013700Y010332D01*
X013750Y010282D01*
X013750Y010132D01*
X013748Y010115D01*
X013744Y010098D01*
X013737Y010082D01*
X013727Y010068D01*
X013714Y010055D01*
X013700Y010045D01*
X013684Y010038D01*
X013667Y010034D01*
X013650Y010032D01*
X012950Y010032D01*
X012933Y010034D01*
X012916Y010038D01*
X012900Y010045D01*
X012886Y010055D01*
X012873Y010068D01*
X012863Y010082D01*
X012856Y010098D01*
X012852Y010115D01*
X012850Y010132D01*
X012850Y010282D01*
X012300Y009532D02*
X012300Y009032D01*
X012050Y008782D01*
X012300Y009532D02*
X012050Y009782D01*
X010550Y009782D02*
X010300Y010032D01*
X010300Y010532D01*
X010550Y010782D01*
X010550Y008782D02*
X010300Y008532D01*
X010300Y008032D01*
X010550Y007782D01*
X010300Y007032D02*
X010550Y006782D01*
X012050Y006782D01*
X012300Y007032D01*
X012300Y007532D01*
X012050Y007782D01*
X012850Y007432D02*
X012850Y007282D01*
X012900Y007232D01*
X012900Y005332D01*
X012850Y005282D01*
X012850Y005132D01*
X012852Y005115D01*
X012856Y005098D01*
X012863Y005082D01*
X012873Y005068D01*
X012886Y005055D01*
X012900Y005045D01*
X012916Y005038D01*
X012933Y005034D01*
X012950Y005032D01*
X013650Y005032D01*
X013667Y005034D01*
X013684Y005038D01*
X013700Y005045D01*
X013714Y005055D01*
X013727Y005068D01*
X013737Y005082D01*
X013744Y005098D01*
X013748Y005115D01*
X013750Y005132D01*
X013750Y005282D01*
X013700Y005332D01*
X013700Y007232D01*
X013750Y007282D01*
X013750Y007432D01*
X013748Y007449D01*
X013744Y007466D01*
X013737Y007482D01*
X013727Y007496D01*
X013714Y007509D01*
X013700Y007519D01*
X013684Y007526D01*
X013667Y007530D01*
X013650Y007532D01*
X012950Y007532D01*
X012933Y007530D01*
X012916Y007526D01*
X012900Y007519D01*
X012886Y007509D01*
X012873Y007496D01*
X012863Y007482D01*
X012856Y007466D01*
X012852Y007449D01*
X012850Y007432D01*
X014950Y005782D02*
X014950Y009782D01*
X017150Y009782D01*
X017150Y005782D01*
X016300Y005782D01*
X016298Y005812D01*
X016293Y005842D01*
X016284Y005871D01*
X016271Y005898D01*
X016256Y005924D01*
X016237Y005948D01*
X016216Y005969D01*
X016192Y005988D01*
X016166Y006003D01*
X016139Y006016D01*
X016110Y006025D01*
X016080Y006030D01*
X016050Y006032D01*
X016020Y006030D01*
X015990Y006025D01*
X015961Y006016D01*
X015934Y006003D01*
X015908Y005988D01*
X015884Y005969D01*
X015863Y005948D01*
X015844Y005924D01*
X015829Y005898D01*
X015816Y005871D01*
X015807Y005842D01*
X015802Y005812D01*
X015800Y005782D01*
X014950Y005782D01*
X018400Y005982D02*
X018400Y003832D01*
X018402Y003815D01*
X018406Y003798D01*
X018413Y003782D01*
X018423Y003768D01*
X018436Y003755D01*
X018450Y003745D01*
X018466Y003738D01*
X018483Y003734D01*
X018500Y003732D01*
X019100Y003732D01*
X019117Y003734D01*
X019134Y003738D01*
X019150Y003745D01*
X019164Y003755D01*
X019177Y003768D01*
X019187Y003782D01*
X019194Y003798D01*
X019198Y003815D01*
X019200Y003832D01*
X019200Y005982D01*
X019150Y005982D01*
X018450Y005982D01*
X018400Y005982D01*
X018450Y005982D02*
X018450Y006132D01*
X019150Y006132D01*
X019150Y005982D01*
X018800Y005332D02*
X018800Y005132D01*
X018600Y005132D01*
X018600Y004982D02*
X018600Y004832D01*
X019000Y004832D01*
X019000Y004982D01*
X018600Y004982D01*
X018800Y005132D02*
X019000Y005132D01*
X019000Y004682D02*
X018800Y004682D01*
X018600Y004682D01*
X018800Y004682D02*
X018800Y004482D01*
X017650Y010582D02*
X017300Y010582D01*
X016300Y010582D01*
X015950Y010582D01*
X015600Y011382D02*
X015600Y011482D01*
X015500Y011482D01*
X015500Y012082D01*
X015600Y012082D01*
X015600Y012182D01*
X015950Y012982D02*
X016350Y012982D01*
X017300Y012982D01*
X017650Y012982D01*
X018000Y012182D02*
X018000Y012082D01*
X018100Y012082D01*
X018100Y011482D01*
X018000Y011482D01*
X018000Y011382D01*
X016700Y011782D02*
X016702Y011802D01*
X016708Y011820D01*
X016717Y011838D01*
X016729Y011853D01*
X016744Y011865D01*
X016762Y011874D01*
X016780Y011880D01*
X016800Y011882D01*
X016820Y011880D01*
X016838Y011874D01*
X016856Y011865D01*
X016871Y011853D01*
X016883Y011838D01*
X016892Y011820D01*
X016898Y011802D01*
X016900Y011782D01*
X016898Y011762D01*
X016892Y011744D01*
X016883Y011726D01*
X016871Y011711D01*
X016856Y011699D01*
X016838Y011690D01*
X016820Y011684D01*
X016800Y011682D01*
X016780Y011684D01*
X016762Y011690D01*
X016744Y011699D01*
X016729Y011711D01*
X016717Y011726D01*
X016708Y011744D01*
X016702Y011762D01*
X016700Y011782D01*
X016100Y011782D02*
X016102Y011834D01*
X016108Y011886D01*
X016118Y011938D01*
X016131Y011988D01*
X016148Y012038D01*
X016169Y012086D01*
X016194Y012132D01*
X016222Y012176D01*
X016253Y012218D01*
X016287Y012258D01*
X016324Y012295D01*
X016364Y012329D01*
X016406Y012360D01*
X016450Y012388D01*
X016496Y012413D01*
X016544Y012434D01*
X016594Y012451D01*
X016644Y012464D01*
X016696Y012474D01*
X016748Y012480D01*
X016800Y012482D01*
X016852Y012480D01*
X016904Y012474D01*
X016956Y012464D01*
X017006Y012451D01*
X017056Y012434D01*
X017104Y012413D01*
X017150Y012388D01*
X017194Y012360D01*
X017236Y012329D01*
X017276Y012295D01*
X017313Y012258D01*
X017347Y012218D01*
X017378Y012176D01*
X017406Y012132D01*
X017431Y012086D01*
X017452Y012038D01*
X017469Y011988D01*
X017482Y011938D01*
X017492Y011886D01*
X017498Y011834D01*
X017500Y011782D01*
X017498Y011730D01*
X017492Y011678D01*
X017482Y011626D01*
X017469Y011576D01*
X017452Y011526D01*
X017431Y011478D01*
X017406Y011432D01*
X017378Y011388D01*
X017347Y011346D01*
X017313Y011306D01*
X017276Y011269D01*
X017236Y011235D01*
X017194Y011204D01*
X017150Y011176D01*
X017104Y011151D01*
X017056Y011130D01*
X017006Y011113D01*
X016956Y011100D01*
X016904Y011090D01*
X016852Y011084D01*
X016800Y011082D01*
X016748Y011084D01*
X016696Y011090D01*
X016644Y011100D01*
X016594Y011113D01*
X016544Y011130D01*
X016496Y011151D01*
X016450Y011176D01*
X016406Y011204D01*
X016364Y011235D01*
X016324Y011269D01*
X016287Y011306D01*
X016253Y011346D01*
X016222Y011388D01*
X016194Y011432D01*
X016169Y011478D01*
X016148Y011526D01*
X016131Y011576D01*
X016118Y011626D01*
X016108Y011678D01*
X016102Y011730D01*
X016100Y011782D01*
X016350Y013732D02*
X015750Y013732D01*
X015750Y013832D01*
X015650Y013832D01*
X016350Y013832D02*
X016350Y013732D01*
X016350Y013832D02*
X016450Y013832D01*
X017250Y014182D02*
X017250Y014532D01*
X017250Y015532D01*
X017250Y015882D01*
X017600Y015882D02*
X017600Y015532D01*
X017600Y014532D01*
X017600Y014182D01*
X018400Y013832D02*
X018500Y013832D01*
X018500Y013732D01*
X019100Y013732D01*
X019100Y013832D01*
X019200Y013832D01*
X020000Y014182D02*
X020000Y014532D01*
X020000Y015482D01*
X020000Y015882D01*
X019200Y016232D02*
X019100Y016232D01*
X019100Y016332D01*
X018500Y016332D01*
X018500Y016232D01*
X018400Y016232D01*
X017650Y017082D02*
X017300Y017082D01*
X016300Y017082D01*
X015950Y017082D01*
X015750Y016332D02*
X015750Y016232D01*
X015650Y016232D01*
X015750Y016332D02*
X016350Y016332D01*
X016350Y016232D01*
X016450Y016232D01*
X015950Y015032D02*
X015952Y015052D01*
X015958Y015070D01*
X015967Y015088D01*
X015979Y015103D01*
X015994Y015115D01*
X016012Y015124D01*
X016030Y015130D01*
X016050Y015132D01*
X016070Y015130D01*
X016088Y015124D01*
X016106Y015115D01*
X016121Y015103D01*
X016133Y015088D01*
X016142Y015070D01*
X016148Y015052D01*
X016150Y015032D01*
X016148Y015012D01*
X016142Y014994D01*
X016133Y014976D01*
X016121Y014961D01*
X016106Y014949D01*
X016088Y014940D01*
X016070Y014934D01*
X016050Y014932D01*
X016030Y014934D01*
X016012Y014940D01*
X015994Y014949D01*
X015979Y014961D01*
X015967Y014976D01*
X015958Y014994D01*
X015952Y015012D01*
X015950Y015032D01*
X015350Y015032D02*
X015352Y015084D01*
X015358Y015136D01*
X015368Y015188D01*
X015381Y015238D01*
X015398Y015288D01*
X015419Y015336D01*
X015444Y015382D01*
X015472Y015426D01*
X015503Y015468D01*
X015537Y015508D01*
X015574Y015545D01*
X015614Y015579D01*
X015656Y015610D01*
X015700Y015638D01*
X015746Y015663D01*
X015794Y015684D01*
X015844Y015701D01*
X015894Y015714D01*
X015946Y015724D01*
X015998Y015730D01*
X016050Y015732D01*
X016102Y015730D01*
X016154Y015724D01*
X016206Y015714D01*
X016256Y015701D01*
X016306Y015684D01*
X016354Y015663D01*
X016400Y015638D01*
X016444Y015610D01*
X016486Y015579D01*
X016526Y015545D01*
X016563Y015508D01*
X016597Y015468D01*
X016628Y015426D01*
X016656Y015382D01*
X016681Y015336D01*
X016702Y015288D01*
X016719Y015238D01*
X016732Y015188D01*
X016742Y015136D01*
X016748Y015084D01*
X016750Y015032D01*
X016748Y014980D01*
X016742Y014928D01*
X016732Y014876D01*
X016719Y014826D01*
X016702Y014776D01*
X016681Y014728D01*
X016656Y014682D01*
X016628Y014638D01*
X016597Y014596D01*
X016563Y014556D01*
X016526Y014519D01*
X016486Y014485D01*
X016444Y014454D01*
X016400Y014426D01*
X016354Y014401D01*
X016306Y014380D01*
X016256Y014363D01*
X016206Y014350D01*
X016154Y014340D01*
X016102Y014334D01*
X016050Y014332D01*
X015998Y014334D01*
X015946Y014340D01*
X015894Y014350D01*
X015844Y014363D01*
X015794Y014380D01*
X015746Y014401D01*
X015700Y014426D01*
X015656Y014454D01*
X015614Y014485D01*
X015574Y014519D01*
X015537Y014556D01*
X015503Y014596D01*
X015472Y014638D01*
X015444Y014682D01*
X015419Y014728D01*
X015398Y014776D01*
X015381Y014826D01*
X015368Y014876D01*
X015358Y014928D01*
X015352Y014980D01*
X015350Y015032D01*
X014850Y014582D02*
X014850Y014182D01*
X014500Y014182D02*
X014500Y014532D01*
X014500Y015482D01*
X014500Y015882D01*
X014850Y015882D02*
X014850Y015532D01*
X014850Y014582D01*
X013700Y013832D02*
X013600Y013832D01*
X013600Y013732D01*
X013000Y013732D01*
X013000Y013832D01*
X012900Y013832D01*
X012100Y014182D02*
X012100Y014532D01*
X012100Y015532D01*
X012100Y015882D01*
X012900Y016232D02*
X013000Y016232D01*
X013000Y016332D01*
X013600Y016332D01*
X013600Y016232D01*
X013700Y016232D01*
X013450Y016832D02*
X013300Y016832D01*
X013250Y016882D01*
X011350Y016882D01*
X011300Y016832D01*
X011150Y016832D01*
X011133Y016834D01*
X011116Y016838D01*
X011100Y016845D01*
X011086Y016855D01*
X011073Y016868D01*
X011063Y016882D01*
X011056Y016898D01*
X011052Y016915D01*
X011050Y016932D01*
X011050Y017632D01*
X011050Y017682D02*
X011050Y018382D01*
X011050Y018432D02*
X011050Y019132D01*
X011050Y019182D02*
X011050Y019882D01*
X011052Y019899D01*
X011056Y019916D01*
X011063Y019932D01*
X011073Y019946D01*
X011086Y019959D01*
X011100Y019969D01*
X011116Y019976D01*
X011133Y019980D01*
X011150Y019982D01*
X011300Y019982D01*
X011350Y019932D01*
X013250Y019932D01*
X013300Y019982D01*
X013450Y019982D01*
X013467Y019980D01*
X013484Y019976D01*
X013500Y019969D01*
X013514Y019959D01*
X013527Y019946D01*
X013537Y019932D01*
X013544Y019916D01*
X013548Y019899D01*
X013550Y019882D01*
X013550Y019182D01*
X013550Y019132D02*
X013550Y018432D01*
X013550Y018382D02*
X013550Y017682D01*
X013550Y017632D02*
X013550Y016932D01*
X013548Y016915D01*
X013544Y016898D01*
X013537Y016882D01*
X013527Y016868D01*
X013514Y016855D01*
X013500Y016845D01*
X013484Y016838D01*
X013467Y016834D01*
X013450Y016832D01*
X013450Y017582D02*
X013300Y017582D01*
X013250Y017632D01*
X011350Y017632D01*
X011300Y017582D01*
X011150Y017582D01*
X011050Y017632D02*
X011052Y017649D01*
X011056Y017666D01*
X011063Y017682D01*
X011073Y017696D01*
X011086Y017709D01*
X011100Y017719D01*
X011116Y017726D01*
X011133Y017730D01*
X011150Y017732D01*
X011300Y017732D01*
X011350Y017682D01*
X013250Y017682D01*
X013300Y017732D01*
X013450Y017732D01*
X013550Y017682D02*
X013548Y017665D01*
X013544Y017648D01*
X013537Y017632D01*
X013527Y017618D01*
X013514Y017605D01*
X013500Y017595D01*
X013484Y017588D01*
X013467Y017584D01*
X013450Y017582D01*
X013550Y017632D02*
X013548Y017649D01*
X013544Y017666D01*
X013537Y017682D01*
X013527Y017696D01*
X013514Y017709D01*
X013500Y017719D01*
X013484Y017726D01*
X013467Y017730D01*
X013450Y017732D01*
X013450Y018332D02*
X013300Y018332D01*
X013250Y018382D01*
X011350Y018382D01*
X011300Y018332D01*
X011150Y018332D01*
X011050Y018382D02*
X011052Y018399D01*
X011056Y018416D01*
X011063Y018432D01*
X011073Y018446D01*
X011086Y018459D01*
X011100Y018469D01*
X011116Y018476D01*
X011133Y018480D01*
X011150Y018482D01*
X011300Y018482D01*
X011350Y018432D01*
X013250Y018432D01*
X013300Y018482D01*
X013450Y018482D01*
X013550Y018432D02*
X013548Y018415D01*
X013544Y018398D01*
X013537Y018382D01*
X013527Y018368D01*
X013514Y018355D01*
X013500Y018345D01*
X013484Y018338D01*
X013467Y018334D01*
X013450Y018332D01*
X013550Y018382D02*
X013548Y018399D01*
X013544Y018416D01*
X013537Y018432D01*
X013527Y018446D01*
X013514Y018459D01*
X013500Y018469D01*
X013484Y018476D01*
X013467Y018480D01*
X013450Y018482D01*
X013450Y019082D02*
X013300Y019082D01*
X013250Y019132D01*
X011350Y019132D01*
X011300Y019082D01*
X011150Y019082D01*
X011050Y019132D02*
X011052Y019149D01*
X011056Y019166D01*
X011063Y019182D01*
X011073Y019196D01*
X011086Y019209D01*
X011100Y019219D01*
X011116Y019226D01*
X011133Y019230D01*
X011150Y019232D01*
X011300Y019232D01*
X011350Y019182D01*
X013250Y019182D01*
X013300Y019232D01*
X013450Y019232D01*
X013550Y019182D02*
X013548Y019165D01*
X013544Y019148D01*
X013537Y019132D01*
X013527Y019118D01*
X013514Y019105D01*
X013500Y019095D01*
X013484Y019088D01*
X013467Y019084D01*
X013450Y019082D01*
X013550Y019132D02*
X013548Y019149D01*
X013544Y019166D01*
X013537Y019182D01*
X013527Y019196D01*
X013514Y019209D01*
X013500Y019219D01*
X013484Y019226D01*
X013467Y019230D01*
X013450Y019232D01*
X015500Y018582D02*
X015500Y017982D01*
X015600Y017982D01*
X015600Y017882D01*
X015600Y018582D02*
X015600Y018682D01*
X015600Y018582D02*
X015500Y018582D01*
X015950Y019482D02*
X016350Y019482D01*
X017300Y019482D01*
X017650Y019482D01*
X018000Y018682D02*
X018000Y018582D01*
X018100Y018582D01*
X018100Y017982D01*
X018000Y017982D01*
X018000Y017882D01*
X016700Y018282D02*
X016702Y018302D01*
X016708Y018320D01*
X016717Y018338D01*
X016729Y018353D01*
X016744Y018365D01*
X016762Y018374D01*
X016780Y018380D01*
X016800Y018382D01*
X016820Y018380D01*
X016838Y018374D01*
X016856Y018365D01*
X016871Y018353D01*
X016883Y018338D01*
X016892Y018320D01*
X016898Y018302D01*
X016900Y018282D01*
X016898Y018262D01*
X016892Y018244D01*
X016883Y018226D01*
X016871Y018211D01*
X016856Y018199D01*
X016838Y018190D01*
X016820Y018184D01*
X016800Y018182D01*
X016780Y018184D01*
X016762Y018190D01*
X016744Y018199D01*
X016729Y018211D01*
X016717Y018226D01*
X016708Y018244D01*
X016702Y018262D01*
X016700Y018282D01*
X016100Y018282D02*
X016102Y018334D01*
X016108Y018386D01*
X016118Y018438D01*
X016131Y018488D01*
X016148Y018538D01*
X016169Y018586D01*
X016194Y018632D01*
X016222Y018676D01*
X016253Y018718D01*
X016287Y018758D01*
X016324Y018795D01*
X016364Y018829D01*
X016406Y018860D01*
X016450Y018888D01*
X016496Y018913D01*
X016544Y018934D01*
X016594Y018951D01*
X016644Y018964D01*
X016696Y018974D01*
X016748Y018980D01*
X016800Y018982D01*
X016852Y018980D01*
X016904Y018974D01*
X016956Y018964D01*
X017006Y018951D01*
X017056Y018934D01*
X017104Y018913D01*
X017150Y018888D01*
X017194Y018860D01*
X017236Y018829D01*
X017276Y018795D01*
X017313Y018758D01*
X017347Y018718D01*
X017378Y018676D01*
X017406Y018632D01*
X017431Y018586D01*
X017452Y018538D01*
X017469Y018488D01*
X017482Y018438D01*
X017492Y018386D01*
X017498Y018334D01*
X017500Y018282D01*
X017498Y018230D01*
X017492Y018178D01*
X017482Y018126D01*
X017469Y018076D01*
X017452Y018026D01*
X017431Y017978D01*
X017406Y017932D01*
X017378Y017888D01*
X017347Y017846D01*
X017313Y017806D01*
X017276Y017769D01*
X017236Y017735D01*
X017194Y017704D01*
X017150Y017676D01*
X017104Y017651D01*
X017056Y017630D01*
X017006Y017613D01*
X016956Y017600D01*
X016904Y017590D01*
X016852Y017584D01*
X016800Y017582D01*
X016748Y017584D01*
X016696Y017590D01*
X016644Y017600D01*
X016594Y017613D01*
X016544Y017630D01*
X016496Y017651D01*
X016450Y017676D01*
X016406Y017704D01*
X016364Y017735D01*
X016324Y017769D01*
X016287Y017806D01*
X016253Y017846D01*
X016222Y017888D01*
X016194Y017932D01*
X016169Y017978D01*
X016148Y018026D01*
X016131Y018076D01*
X016118Y018126D01*
X016108Y018178D01*
X016102Y018230D01*
X016100Y018282D01*
X018700Y015032D02*
X018702Y015052D01*
X018708Y015070D01*
X018717Y015088D01*
X018729Y015103D01*
X018744Y015115D01*
X018762Y015124D01*
X018780Y015130D01*
X018800Y015132D01*
X018820Y015130D01*
X018838Y015124D01*
X018856Y015115D01*
X018871Y015103D01*
X018883Y015088D01*
X018892Y015070D01*
X018898Y015052D01*
X018900Y015032D01*
X018898Y015012D01*
X018892Y014994D01*
X018883Y014976D01*
X018871Y014961D01*
X018856Y014949D01*
X018838Y014940D01*
X018820Y014934D01*
X018800Y014932D01*
X018780Y014934D01*
X018762Y014940D01*
X018744Y014949D01*
X018729Y014961D01*
X018717Y014976D01*
X018708Y014994D01*
X018702Y015012D01*
X018700Y015032D01*
X018100Y015032D02*
X018102Y015084D01*
X018108Y015136D01*
X018118Y015188D01*
X018131Y015238D01*
X018148Y015288D01*
X018169Y015336D01*
X018194Y015382D01*
X018222Y015426D01*
X018253Y015468D01*
X018287Y015508D01*
X018324Y015545D01*
X018364Y015579D01*
X018406Y015610D01*
X018450Y015638D01*
X018496Y015663D01*
X018544Y015684D01*
X018594Y015701D01*
X018644Y015714D01*
X018696Y015724D01*
X018748Y015730D01*
X018800Y015732D01*
X018852Y015730D01*
X018904Y015724D01*
X018956Y015714D01*
X019006Y015701D01*
X019056Y015684D01*
X019104Y015663D01*
X019150Y015638D01*
X019194Y015610D01*
X019236Y015579D01*
X019276Y015545D01*
X019313Y015508D01*
X019347Y015468D01*
X019378Y015426D01*
X019406Y015382D01*
X019431Y015336D01*
X019452Y015288D01*
X019469Y015238D01*
X019482Y015188D01*
X019492Y015136D01*
X019498Y015084D01*
X019500Y015032D01*
X019498Y014980D01*
X019492Y014928D01*
X019482Y014876D01*
X019469Y014826D01*
X019452Y014776D01*
X019431Y014728D01*
X019406Y014682D01*
X019378Y014638D01*
X019347Y014596D01*
X019313Y014556D01*
X019276Y014519D01*
X019236Y014485D01*
X019194Y014454D01*
X019150Y014426D01*
X019104Y014401D01*
X019056Y014380D01*
X019006Y014363D01*
X018956Y014350D01*
X018904Y014340D01*
X018852Y014334D01*
X018800Y014332D01*
X018748Y014334D01*
X018696Y014340D01*
X018644Y014350D01*
X018594Y014363D01*
X018544Y014380D01*
X018496Y014401D01*
X018450Y014426D01*
X018406Y014454D01*
X018364Y014485D01*
X018324Y014519D01*
X018287Y014556D01*
X018253Y014596D01*
X018222Y014638D01*
X018194Y014682D01*
X018169Y014728D01*
X018148Y014776D01*
X018131Y014826D01*
X018118Y014876D01*
X018108Y014928D01*
X018102Y014980D01*
X018100Y015032D01*
X013200Y015032D02*
X013202Y015052D01*
X013208Y015070D01*
X013217Y015088D01*
X013229Y015103D01*
X013244Y015115D01*
X013262Y015124D01*
X013280Y015130D01*
X013300Y015132D01*
X013320Y015130D01*
X013338Y015124D01*
X013356Y015115D01*
X013371Y015103D01*
X013383Y015088D01*
X013392Y015070D01*
X013398Y015052D01*
X013400Y015032D01*
X013398Y015012D01*
X013392Y014994D01*
X013383Y014976D01*
X013371Y014961D01*
X013356Y014949D01*
X013338Y014940D01*
X013320Y014934D01*
X013300Y014932D01*
X013280Y014934D01*
X013262Y014940D01*
X013244Y014949D01*
X013229Y014961D01*
X013217Y014976D01*
X013208Y014994D01*
X013202Y015012D01*
X013200Y015032D01*
X012600Y015032D02*
X012602Y015084D01*
X012608Y015136D01*
X012618Y015188D01*
X012631Y015238D01*
X012648Y015288D01*
X012669Y015336D01*
X012694Y015382D01*
X012722Y015426D01*
X012753Y015468D01*
X012787Y015508D01*
X012824Y015545D01*
X012864Y015579D01*
X012906Y015610D01*
X012950Y015638D01*
X012996Y015663D01*
X013044Y015684D01*
X013094Y015701D01*
X013144Y015714D01*
X013196Y015724D01*
X013248Y015730D01*
X013300Y015732D01*
X013352Y015730D01*
X013404Y015724D01*
X013456Y015714D01*
X013506Y015701D01*
X013556Y015684D01*
X013604Y015663D01*
X013650Y015638D01*
X013694Y015610D01*
X013736Y015579D01*
X013776Y015545D01*
X013813Y015508D01*
X013847Y015468D01*
X013878Y015426D01*
X013906Y015382D01*
X013931Y015336D01*
X013952Y015288D01*
X013969Y015238D01*
X013982Y015188D01*
X013992Y015136D01*
X013998Y015084D01*
X014000Y015032D01*
X013998Y014980D01*
X013992Y014928D01*
X013982Y014876D01*
X013969Y014826D01*
X013952Y014776D01*
X013931Y014728D01*
X013906Y014682D01*
X013878Y014638D01*
X013847Y014596D01*
X013813Y014556D01*
X013776Y014519D01*
X013736Y014485D01*
X013694Y014454D01*
X013650Y014426D01*
X013604Y014401D01*
X013556Y014380D01*
X013506Y014363D01*
X013456Y014350D01*
X013404Y014340D01*
X013352Y014334D01*
X013300Y014332D01*
X013248Y014334D01*
X013196Y014340D01*
X013144Y014350D01*
X013094Y014363D01*
X013044Y014380D01*
X012996Y014401D01*
X012950Y014426D01*
X012906Y014454D01*
X012864Y014485D01*
X012824Y014519D01*
X012787Y014556D01*
X012753Y014596D01*
X012722Y014638D01*
X012694Y014682D01*
X012669Y014728D01*
X012648Y014776D01*
X012631Y014826D01*
X012618Y014876D01*
X012608Y014928D01*
X012602Y014980D01*
X012600Y015032D01*
X011250Y015282D02*
X011200Y015232D01*
X011200Y013332D01*
X011250Y013282D01*
X011250Y013132D01*
X011248Y013115D01*
X011244Y013098D01*
X011237Y013082D01*
X011227Y013068D01*
X011214Y013055D01*
X011200Y013045D01*
X011184Y013038D01*
X011167Y013034D01*
X011150Y013032D01*
X010450Y013032D01*
X010433Y013034D01*
X010416Y013038D01*
X010400Y013045D01*
X010386Y013055D01*
X010373Y013068D01*
X010363Y013082D01*
X010356Y013098D01*
X010352Y013115D01*
X010350Y013132D01*
X010350Y013282D01*
X010400Y013332D01*
X010400Y015232D01*
X010350Y015282D01*
X010350Y015432D01*
X010352Y015449D01*
X010356Y015466D01*
X010363Y015482D01*
X010373Y015496D01*
X010386Y015509D01*
X010400Y015519D01*
X010416Y015526D01*
X010433Y015530D01*
X010450Y015532D01*
X011150Y015532D01*
X011167Y015530D01*
X011184Y015526D01*
X011200Y015519D01*
X011214Y015509D01*
X011227Y015496D01*
X011237Y015482D01*
X011244Y015466D01*
X011248Y015449D01*
X011250Y015432D01*
X011250Y015282D01*
X011150Y017582D02*
X011133Y017584D01*
X011116Y017588D01*
X011100Y017595D01*
X011086Y017605D01*
X011073Y017618D01*
X011063Y017632D01*
X011056Y017648D01*
X011052Y017665D01*
X011050Y017682D01*
X011150Y018332D02*
X011133Y018334D01*
X011116Y018338D01*
X011100Y018345D01*
X011086Y018355D01*
X011073Y018368D01*
X011063Y018382D01*
X011056Y018398D01*
X011052Y018415D01*
X011050Y018432D01*
X011150Y019082D02*
X011133Y019084D01*
X011116Y019088D01*
X011100Y019095D01*
X011086Y019105D01*
X011073Y019118D01*
X011063Y019132D01*
X011056Y019148D01*
X011052Y019165D01*
X011050Y019182D01*
X003318Y019553D02*
X003320Y019594D01*
X003326Y019635D01*
X003336Y019675D01*
X003349Y019714D01*
X003366Y019751D01*
X003387Y019787D01*
X003411Y019821D01*
X003438Y019852D01*
X003467Y019880D01*
X003500Y019906D01*
X003534Y019928D01*
X003571Y019947D01*
X003609Y019962D01*
X003649Y019974D01*
X003689Y019982D01*
X003730Y019986D01*
X003772Y019986D01*
X003813Y019982D01*
X003853Y019974D01*
X003893Y019962D01*
X003931Y019947D01*
X003967Y019928D01*
X004002Y019906D01*
X004035Y019880D01*
X004064Y019852D01*
X004091Y019821D01*
X004115Y019787D01*
X004136Y019751D01*
X004153Y019714D01*
X004166Y019675D01*
X004176Y019635D01*
X004182Y019594D01*
X004184Y019553D01*
X004182Y019512D01*
X004176Y019471D01*
X004166Y019431D01*
X004153Y019392D01*
X004136Y019355D01*
X004115Y019319D01*
X004091Y019285D01*
X004064Y019254D01*
X004035Y019226D01*
X004002Y019200D01*
X003968Y019178D01*
X003931Y019159D01*
X003893Y019144D01*
X003853Y019132D01*
X003813Y019124D01*
X003772Y019120D01*
X003730Y019120D01*
X003689Y019124D01*
X003649Y019132D01*
X003609Y019144D01*
X003571Y019159D01*
X003535Y019178D01*
X003500Y019200D01*
X003467Y019226D01*
X003438Y019254D01*
X003411Y019285D01*
X003387Y019319D01*
X003366Y019355D01*
X003349Y019392D01*
X003336Y019431D01*
X003326Y019471D01*
X003320Y019512D01*
X003318Y019553D01*
D13*
X010800Y015702D03*
X010800Y012862D03*
X013300Y012702D03*
X013300Y009862D03*
X013300Y007702D03*
X013300Y004862D03*
X008300Y004362D03*
X007300Y004362D03*
X006300Y004362D03*
X005300Y004362D03*
X005300Y007202D03*
X006300Y007202D03*
X007300Y007202D03*
X008300Y007202D03*
D14*
X008200Y005367D02*
X008200Y005067D01*
X007975Y005292D01*
X008425Y005292D01*
X008425Y004907D02*
X008275Y004757D01*
X008275Y004832D02*
X008275Y004607D01*
X008425Y004607D02*
X007975Y004607D01*
X007975Y004832D01*
X008050Y004907D01*
X008200Y004907D01*
X008275Y004832D01*
X007425Y004907D02*
X007275Y004757D01*
X007275Y004832D02*
X007275Y004607D01*
X007425Y004607D02*
X006975Y004607D01*
X006975Y004832D01*
X007050Y004907D01*
X007200Y004907D01*
X007275Y004832D01*
X007350Y005067D02*
X007425Y005142D01*
X007425Y005292D01*
X007350Y005367D01*
X007275Y005367D01*
X007200Y005292D01*
X007200Y005217D01*
X007200Y005292D02*
X007125Y005367D01*
X007050Y005367D01*
X006975Y005292D01*
X006975Y005142D01*
X007050Y005067D01*
X006425Y005067D02*
X006125Y005367D01*
X006050Y005367D01*
X005975Y005292D01*
X005975Y005142D01*
X006050Y005067D01*
X006050Y004907D02*
X006200Y004907D01*
X006275Y004832D01*
X006275Y004607D01*
X006275Y004757D02*
X006425Y004907D01*
X006425Y005067D02*
X006425Y005367D01*
X006050Y004907D02*
X005975Y004832D01*
X005975Y004607D01*
X006425Y004607D01*
X005625Y004586D02*
X005175Y004586D01*
X005175Y004811D01*
X005250Y004886D01*
X005400Y004886D01*
X005475Y004811D01*
X005475Y004586D01*
X005475Y004736D02*
X005625Y004886D01*
X005625Y005046D02*
X005625Y005347D01*
X005625Y005197D02*
X005175Y005197D01*
X005325Y005046D01*
X002700Y001682D02*
X002700Y018882D01*
X009900Y018882D01*
X009900Y001682D01*
X002700Y001682D01*
X010724Y002912D02*
X010799Y002837D01*
X010874Y002837D01*
X010949Y002912D01*
X010949Y003287D01*
X010874Y003287D02*
X011024Y003287D01*
X011184Y003287D02*
X011409Y003287D01*
X011484Y003212D01*
X011484Y003062D01*
X011409Y002987D01*
X011184Y002987D01*
X011184Y002837D02*
X011184Y003287D01*
X011645Y003212D02*
X011720Y003287D01*
X011870Y003287D01*
X011945Y003212D01*
X011945Y003137D01*
X011645Y002837D01*
X011945Y002837D01*
X013545Y002602D02*
X013620Y002527D01*
X013695Y002527D01*
X013770Y002602D01*
X013770Y002977D01*
X013695Y002977D02*
X013845Y002977D01*
X014005Y002977D02*
X014231Y002977D01*
X014306Y002902D01*
X014306Y002752D01*
X014231Y002677D01*
X014005Y002677D01*
X014005Y002527D02*
X014005Y002977D01*
X014466Y002902D02*
X014541Y002977D01*
X014691Y002977D01*
X014766Y002902D01*
X014766Y002827D01*
X014691Y002752D01*
X014766Y002677D01*
X014766Y002602D01*
X014691Y002527D01*
X014541Y002527D01*
X014466Y002602D01*
X014616Y002752D02*
X014691Y002752D01*
X015997Y005147D02*
X016147Y005147D01*
X016072Y005147D02*
X016072Y005597D01*
X015997Y005597D02*
X016147Y005597D01*
X016304Y005522D02*
X016304Y005222D01*
X016379Y005147D01*
X016529Y005147D01*
X016604Y005222D01*
X016765Y005147D02*
X017065Y005147D01*
X016915Y005147D02*
X016915Y005597D01*
X016765Y005447D01*
X016604Y005522D02*
X016529Y005597D01*
X016379Y005597D01*
X016304Y005522D01*
X019375Y005697D02*
X019825Y005697D01*
X019825Y005847D02*
X019825Y005546D01*
X019825Y005386D02*
X019675Y005236D01*
X019825Y005161D02*
X019750Y005086D01*
X019450Y005086D01*
X019375Y005161D01*
X019375Y005311D01*
X019450Y005386D01*
X019750Y005386D01*
X019825Y005311D01*
X019825Y005161D01*
X019525Y005546D02*
X019375Y005697D01*
X017790Y009857D02*
X017790Y010307D01*
X017565Y010082D01*
X017865Y010082D01*
X017404Y010007D02*
X017404Y009932D01*
X017329Y009857D01*
X017179Y009857D01*
X017104Y009932D01*
X017179Y010082D02*
X017329Y010082D01*
X017404Y010007D01*
X017404Y010232D02*
X017329Y010307D01*
X017179Y010307D01*
X017104Y010232D01*
X017104Y010157D01*
X017179Y010082D01*
X017250Y013857D02*
X017325Y013932D01*
X017325Y014082D01*
X017250Y014157D01*
X017175Y014157D01*
X017100Y014082D01*
X017100Y013932D01*
X017025Y013857D01*
X016950Y013857D01*
X016875Y013932D01*
X016875Y014082D01*
X016950Y014157D01*
X016950Y014317D02*
X016875Y014392D01*
X016875Y014542D01*
X016950Y014617D01*
X017025Y014617D01*
X017325Y014317D01*
X017325Y014617D01*
X017600Y015336D02*
X017675Y015336D01*
X017750Y015411D01*
X017750Y015561D01*
X017825Y015636D01*
X017900Y015636D01*
X017975Y015561D01*
X017975Y015411D01*
X017900Y015336D01*
X017600Y015336D02*
X017525Y015411D01*
X017525Y015561D01*
X017600Y015636D01*
X017525Y015796D02*
X017750Y015796D01*
X017675Y015947D01*
X017675Y016022D01*
X017750Y016097D01*
X017900Y016097D01*
X017975Y016022D01*
X017975Y015872D01*
X017900Y015796D01*
X017525Y015796D02*
X017525Y016097D01*
X018429Y018107D02*
X018354Y018182D01*
X018429Y018107D02*
X018579Y018107D01*
X018654Y018182D01*
X018654Y018257D01*
X018579Y018332D01*
X018429Y018332D01*
X018354Y018407D01*
X018354Y018482D01*
X018429Y018557D01*
X018579Y018557D01*
X018654Y018482D01*
X018815Y018407D02*
X018965Y018557D01*
X018965Y018107D01*
X018815Y018107D02*
X019115Y018107D01*
X013365Y018532D02*
X013365Y018607D01*
X013290Y018682D01*
X013065Y018682D01*
X013065Y018532D01*
X013140Y018457D01*
X013290Y018457D01*
X013365Y018532D01*
X013215Y018832D02*
X013065Y018682D01*
X012904Y018682D02*
X012829Y018607D01*
X012604Y018607D01*
X012604Y018457D02*
X012604Y018907D01*
X012829Y018907D01*
X012904Y018832D01*
X012904Y018682D01*
X012754Y018607D02*
X012904Y018457D01*
X013215Y018832D02*
X013365Y018907D01*
X013085Y019407D02*
X013085Y019482D01*
X013386Y019782D01*
X013386Y019857D01*
X013085Y019857D01*
X012925Y019782D02*
X012925Y019632D01*
X012850Y019557D01*
X012625Y019557D01*
X012775Y019557D02*
X012925Y019407D01*
X012625Y019407D02*
X012625Y019857D01*
X012850Y019857D01*
X012925Y019782D01*
X012061Y018357D02*
X011910Y018357D01*
X011835Y018282D01*
X011835Y018207D01*
X011910Y018132D01*
X012061Y018132D01*
X012136Y018057D01*
X012136Y017982D01*
X012061Y017907D01*
X011910Y017907D01*
X011835Y017982D01*
X011835Y018057D01*
X011910Y018132D01*
X012061Y018132D02*
X012136Y018207D01*
X012136Y018282D01*
X012061Y018357D01*
X011675Y018282D02*
X011675Y018132D01*
X011600Y018057D01*
X011375Y018057D01*
X011525Y018057D02*
X011675Y017907D01*
X011375Y017907D02*
X011375Y018357D01*
X011600Y018357D01*
X011675Y018282D01*
X011640Y017407D02*
X011565Y017332D01*
X011565Y017257D01*
X011640Y017182D01*
X011865Y017182D01*
X011865Y017032D02*
X011865Y017332D01*
X011790Y017407D01*
X011640Y017407D01*
X011404Y017332D02*
X011404Y017182D01*
X011329Y017107D01*
X011104Y017107D01*
X011104Y016957D02*
X011104Y017407D01*
X011329Y017407D01*
X011404Y017332D01*
X011254Y017107D02*
X011404Y016957D01*
X011565Y017032D02*
X011640Y016957D01*
X011790Y016957D01*
X011865Y017032D01*
X010800Y015347D02*
X010500Y015347D01*
X010800Y015046D01*
X010875Y015122D01*
X010875Y015272D01*
X010800Y015347D01*
X010500Y015347D02*
X010425Y015272D01*
X010425Y015122D01*
X010500Y015046D01*
X010800Y015046D01*
X010875Y014886D02*
X010875Y014586D01*
X010875Y014736D02*
X010425Y014736D01*
X010575Y014586D01*
X010650Y014426D02*
X010725Y014351D01*
X010725Y014126D01*
X010725Y014276D02*
X010875Y014426D01*
X010650Y014426D02*
X010500Y014426D01*
X010425Y014351D01*
X010425Y014126D01*
X010875Y014126D01*
X011375Y014082D02*
X011375Y013932D01*
X011450Y013857D01*
X011525Y013857D01*
X011600Y013932D01*
X011600Y014082D01*
X011675Y014157D01*
X011750Y014157D01*
X011825Y014082D01*
X011825Y013932D01*
X011750Y013857D01*
X011450Y014157D02*
X011375Y014082D01*
X011450Y014317D02*
X011375Y014392D01*
X011375Y014542D01*
X011450Y014617D01*
X011525Y014617D01*
X011600Y014542D01*
X011675Y014617D01*
X011750Y014617D01*
X011825Y014542D01*
X011825Y014392D01*
X011750Y014317D01*
X011600Y014467D02*
X011600Y014542D01*
X005875Y020632D02*
X004225Y020632D01*
X004163Y021182D02*
X004005Y021182D01*
X004937Y021182D02*
X005163Y021182D01*
X004225Y020632D02*
X004190Y020680D01*
X004157Y020730D01*
X004126Y020782D01*
X004099Y020836D01*
X004075Y020891D01*
X004055Y020948D01*
X004037Y021005D01*
X004023Y021063D01*
X004012Y021122D01*
X004005Y021182D01*
X004001Y021244D01*
X004000Y021307D01*
X004004Y021369D01*
X004011Y021431D01*
X004021Y021492D01*
X004036Y021553D01*
X004054Y021613D01*
X004075Y021672D01*
X004100Y021729D01*
X004128Y021784D01*
X004159Y021838D01*
X004194Y021890D01*
X004232Y021940D01*
X004272Y021987D01*
X004316Y022032D01*
X004361Y022075D01*
X004410Y022114D01*
X004460Y022151D01*
X004513Y022184D01*
X004567Y022215D01*
X004624Y022242D01*
X004681Y022265D01*
X004740Y022285D01*
X005360Y022285D02*
X005420Y022265D01*
X005479Y022241D01*
X005536Y022213D01*
X005591Y022182D01*
X005645Y022147D01*
X005696Y022110D01*
X005745Y022069D01*
X005791Y022025D01*
X005835Y021979D01*
X005876Y021930D01*
X005914Y021879D01*
X005948Y021826D01*
X005980Y021770D01*
X006007Y021713D01*
X006032Y021654D01*
X006052Y021594D01*
X006070Y021533D01*
X006083Y021471D01*
X006092Y021408D01*
X006098Y021345D01*
X006100Y021281D01*
X006098Y021217D01*
X006092Y021154D01*
X006083Y021091D01*
X006069Y021029D01*
X006052Y020968D01*
X006031Y020908D01*
X006007Y020849D01*
X005979Y020792D01*
X005947Y020736D01*
X005912Y020683D01*
X005875Y020632D01*
X005937Y021182D02*
X006095Y021182D01*
X006475Y021557D02*
X006475Y022007D01*
X006325Y022007D02*
X006625Y022007D01*
X006785Y021857D02*
X006936Y022007D01*
X006936Y021557D01*
X007086Y021557D02*
X006785Y021557D01*
X002745Y020427D02*
X002745Y020126D01*
X002445Y020427D01*
X002370Y020427D01*
X002295Y020352D01*
X002295Y020202D01*
X002370Y020126D01*
X002370Y019966D02*
X002670Y019666D01*
X002745Y019741D01*
X002745Y019891D01*
X002670Y019966D01*
X002370Y019966D01*
X002295Y019891D01*
X002295Y019741D01*
X002370Y019666D01*
X002670Y019666D01*
X002670Y019506D02*
X002595Y019506D01*
X002520Y019431D01*
X002520Y019206D01*
X002670Y019206D01*
X002745Y019281D01*
X002745Y019431D01*
X002670Y019506D01*
X002370Y019356D02*
X002520Y019206D01*
X002370Y019356D02*
X002295Y019506D01*
X002745Y019046D02*
X002745Y018745D01*
X002745Y018895D02*
X002295Y018895D01*
X002445Y018745D01*
X002370Y018585D02*
X002295Y018510D01*
X002295Y018285D01*
X002745Y018285D01*
X002745Y018510D01*
X002670Y018585D01*
X002370Y018585D01*
X002370Y018125D02*
X002295Y018050D01*
X002295Y017900D01*
X002370Y017824D01*
X002670Y017824D01*
X002745Y017900D01*
X002745Y018050D01*
X002670Y018125D01*
X002745Y017664D02*
X002745Y017364D01*
X002295Y017364D01*
D15*
X002050Y017282D02*
X001800Y017532D01*
X002050Y017782D01*
X002050Y018282D01*
X001800Y018532D01*
X002050Y018782D01*
X002050Y019282D01*
X001800Y019532D01*
X002050Y019782D01*
X002050Y020282D01*
X001800Y020532D01*
X001300Y020532D01*
X001050Y020282D01*
X001050Y019782D01*
X001300Y019532D01*
X001050Y019282D01*
X001050Y018782D01*
X001300Y018532D01*
X001050Y018282D01*
X001050Y017782D01*
X001300Y017532D01*
X001050Y017282D01*
X001050Y016782D01*
X001300Y016532D01*
X001050Y016282D01*
X001050Y015782D01*
X001300Y015532D01*
X001050Y015282D01*
X001050Y014782D01*
X001300Y014532D01*
X001050Y014282D01*
X001050Y013782D01*
X001300Y013532D01*
X001050Y013282D01*
X001050Y012782D01*
X001300Y012532D01*
X001050Y012282D01*
X001050Y011782D01*
X001300Y011532D01*
X001050Y011282D01*
X001050Y010782D01*
X001300Y010532D01*
X001050Y010282D01*
X001050Y009782D01*
X001300Y009532D01*
X001050Y009282D01*
X001050Y008782D01*
X001300Y008532D01*
X001050Y008282D01*
X001050Y007782D01*
X001300Y007532D01*
X001050Y007282D01*
X001050Y006782D01*
X001300Y006532D01*
X001050Y006282D01*
X001050Y005782D01*
X001300Y005532D01*
X001050Y005282D01*
X001050Y004782D01*
X001300Y004532D01*
X001800Y004532D01*
X002050Y004782D01*
X002050Y005282D01*
X001800Y005532D01*
X002050Y005782D01*
X002050Y006282D01*
X001800Y006532D01*
X002050Y006782D01*
X002050Y007282D01*
X001800Y007532D01*
X002050Y007782D01*
X002050Y008282D01*
X001800Y008532D01*
X002050Y008782D01*
X002050Y009282D01*
X001800Y009532D01*
X002050Y009782D01*
X002050Y010282D01*
X001800Y010532D01*
X002050Y010782D01*
X002050Y011282D01*
X001800Y011532D01*
X002050Y011782D01*
X002050Y012282D01*
X001800Y012532D01*
X002050Y012782D01*
X002050Y013282D01*
X001800Y013532D01*
X002050Y013782D01*
X002050Y014282D01*
X001800Y014532D01*
X002050Y014782D01*
X002050Y015282D01*
X001800Y015532D01*
X002050Y015782D01*
X002050Y016282D01*
X001800Y016532D01*
X002050Y016782D01*
X002050Y017282D01*
X012550Y007532D02*
X012550Y007032D01*
X012300Y003782D02*
X012800Y003782D01*
X013050Y003532D01*
X013050Y003032D01*
X012800Y002782D01*
X012300Y002782D01*
X012050Y003032D01*
X011800Y002782D01*
X011300Y002782D01*
X011050Y003032D01*
X010800Y002782D01*
X010300Y002782D01*
X010050Y003032D01*
X010050Y003532D01*
X010300Y003782D01*
X010800Y003782D01*
X011050Y003532D01*
X011300Y003782D01*
X011800Y003782D01*
X012050Y003532D01*
X012300Y003782D01*
X013050Y003532D02*
X013300Y003782D01*
X013800Y003782D01*
X014050Y003532D01*
X014300Y003782D01*
X014800Y003782D01*
X015050Y003532D01*
X015050Y003032D01*
X014800Y002782D01*
X014300Y002782D01*
X014050Y003032D01*
X013800Y002782D01*
X013300Y002782D01*
X013050Y003032D01*
X013050Y003532D01*
D16*
X006940Y018983D02*
X003160Y018983D01*
X003160Y020774D01*
X003790Y020774D01*
X003790Y020676D01*
X006310Y020676D01*
X006310Y020774D01*
X006940Y020774D01*
X006940Y018983D01*
X007300Y020032D02*
X007300Y021782D01*
X010300Y021782D01*
X010300Y020032D01*
X007300Y020032D01*
X007300Y021782D02*
X007300Y022532D01*
X010300Y022532D01*
X010300Y021782D01*
X013300Y021782D01*
X013300Y020032D01*
X010300Y020032D01*
X010300Y021782D01*
X010300Y022532D01*
X013300Y022532D01*
X013300Y021782D01*
X016300Y021782D01*
X020300Y021782D01*
X020300Y020032D01*
X016300Y020032D01*
X016300Y021782D01*
X016300Y022532D01*
X020300Y022532D01*
X020300Y021782D01*
X016300Y021782D02*
X016300Y020032D01*
X013300Y020032D01*
X013300Y021782D01*
X013300Y022532D01*
X016300Y022532D01*
X016300Y021782D01*
D17*
X003751Y019553D03*
D18*
X012100Y015532D02*
X012200Y015532D01*
X012200Y014532D01*
X012100Y014532D01*
X014400Y014532D02*
X014500Y014532D01*
X014400Y014532D02*
X014400Y015482D01*
X014500Y015482D01*
X014850Y015532D02*
X014950Y015532D01*
X014950Y014582D01*
X014850Y014582D01*
X016350Y012982D02*
X016350Y012882D01*
X017300Y012882D01*
X017300Y012982D01*
X017250Y014532D02*
X017150Y014532D01*
X017150Y015532D01*
X017250Y015532D01*
X017600Y015532D02*
X017700Y015532D01*
X017700Y014532D01*
X017600Y014532D01*
X017300Y017082D02*
X017300Y017182D01*
X016300Y017182D01*
X016300Y017082D01*
X016350Y019382D02*
X016350Y019482D01*
X016350Y019382D02*
X017300Y019382D01*
X017300Y019482D01*
X019900Y015482D02*
X020000Y015482D01*
X019900Y015482D02*
X019900Y014532D01*
X020000Y014532D01*
X017300Y010682D02*
X016300Y010682D01*
X016300Y010582D01*
X017300Y010582D02*
X017300Y010682D01*
D19*
X013720Y017282D03*
X013720Y018032D03*
X013720Y018782D03*
X013720Y019532D03*
X010880Y019532D03*
X010880Y018782D03*
X010880Y018032D03*
X010880Y017282D03*
D20*
X012405Y010540D02*
X012405Y010440D01*
X012405Y010392D02*
X012405Y010292D01*
X012555Y010292D01*
X012555Y010392D01*
X012480Y010342D02*
X012480Y010292D01*
X012555Y010245D02*
X012405Y010245D01*
X012405Y010145D02*
X012555Y010245D01*
X012555Y010145D02*
X012405Y010145D01*
X012430Y010098D02*
X012480Y010098D01*
X012505Y010073D01*
X012505Y009998D01*
X012505Y010048D02*
X012555Y010098D01*
X012555Y009998D02*
X012405Y009998D01*
X012405Y010073D01*
X012430Y010098D01*
X012405Y009950D02*
X012405Y009850D01*
X012555Y009850D01*
X012555Y009950D01*
X012480Y009900D02*
X012480Y009850D01*
X012480Y009803D02*
X012480Y009703D01*
X012555Y009703D02*
X012405Y009703D01*
X012405Y009656D02*
X012405Y009556D01*
X012405Y009508D02*
X012405Y009408D01*
X012555Y009408D01*
X012555Y009508D01*
X012480Y009458D02*
X012480Y009408D01*
X012555Y009606D02*
X012405Y009606D01*
X012405Y009803D02*
X012555Y009803D01*
X012555Y010490D02*
X012405Y010490D01*
D21*
X011800Y009282D03*
D22*
X018600Y006482D02*
X018600Y006332D01*
X019000Y006282D02*
X019000Y006482D01*
D23*
X019000Y006267D03*
X018600Y006267D03*
M02*
