G75*
%MOIN*%
%OFA0B0*%
%FSLAX24Y24*%
%IPPOS*%
%LPD*%
%AMOC8*
5,1,8,0,0,1.08239X$1,22.5*
%
%ADD10C,0.0000*%
%ADD11C,0.0040*%
%ADD12C,0.0080*%
%ADD13C,0.0010*%
%ADD14C,0.0050*%
D10*
X000800Y002782D02*
X000800Y022467D01*
X020292Y022467D01*
X020292Y002782D01*
X000800Y002782D01*
X001103Y003676D02*
X001105Y003724D01*
X001111Y003772D01*
X001121Y003819D01*
X001134Y003865D01*
X001152Y003910D01*
X001172Y003954D01*
X001197Y003996D01*
X001225Y004035D01*
X001255Y004072D01*
X001289Y004106D01*
X001326Y004138D01*
X001364Y004167D01*
X001405Y004192D01*
X001448Y004214D01*
X001493Y004232D01*
X001539Y004246D01*
X001586Y004257D01*
X001634Y004264D01*
X001682Y004267D01*
X001730Y004266D01*
X001778Y004261D01*
X001826Y004252D01*
X001872Y004240D01*
X001917Y004223D01*
X001961Y004203D01*
X002003Y004180D01*
X002043Y004153D01*
X002081Y004123D01*
X002116Y004090D01*
X002148Y004054D01*
X002178Y004016D01*
X002204Y003975D01*
X002226Y003932D01*
X002246Y003888D01*
X002261Y003843D01*
X002273Y003796D01*
X002281Y003748D01*
X002285Y003700D01*
X002285Y003652D01*
X002281Y003604D01*
X002273Y003556D01*
X002261Y003509D01*
X002246Y003464D01*
X002226Y003420D01*
X002204Y003377D01*
X002178Y003336D01*
X002148Y003298D01*
X002116Y003262D01*
X002081Y003229D01*
X002043Y003199D01*
X002003Y003172D01*
X001961Y003149D01*
X001917Y003129D01*
X001872Y003112D01*
X001826Y003100D01*
X001778Y003091D01*
X001730Y003086D01*
X001682Y003085D01*
X001634Y003088D01*
X001586Y003095D01*
X001539Y003106D01*
X001493Y003120D01*
X001448Y003138D01*
X001405Y003160D01*
X001364Y003185D01*
X001326Y003214D01*
X001289Y003246D01*
X001255Y003280D01*
X001225Y003317D01*
X001197Y003356D01*
X001172Y003398D01*
X001152Y003442D01*
X001134Y003487D01*
X001121Y003533D01*
X001111Y003580D01*
X001105Y003628D01*
X001103Y003676D01*
X001143Y021532D02*
X001145Y021579D01*
X001151Y021625D01*
X001161Y021671D01*
X001174Y021716D01*
X001192Y021759D01*
X001213Y021801D01*
X001237Y021841D01*
X001265Y021878D01*
X001296Y021913D01*
X001330Y021946D01*
X001366Y021975D01*
X001405Y022001D01*
X001446Y022024D01*
X001489Y022043D01*
X001533Y022059D01*
X001578Y022071D01*
X001624Y022079D01*
X001671Y022083D01*
X001717Y022083D01*
X001764Y022079D01*
X001810Y022071D01*
X001855Y022059D01*
X001899Y022043D01*
X001942Y022024D01*
X001983Y022001D01*
X002022Y021975D01*
X002058Y021946D01*
X002092Y021913D01*
X002123Y021878D01*
X002151Y021841D01*
X002175Y021801D01*
X002196Y021759D01*
X002214Y021716D01*
X002227Y021671D01*
X002237Y021625D01*
X002243Y021579D01*
X002245Y021532D01*
X002243Y021485D01*
X002237Y021439D01*
X002227Y021393D01*
X002214Y021348D01*
X002196Y021305D01*
X002175Y021263D01*
X002151Y021223D01*
X002123Y021186D01*
X002092Y021151D01*
X002058Y021118D01*
X002022Y021089D01*
X001983Y021063D01*
X001942Y021040D01*
X001899Y021021D01*
X001855Y021005D01*
X001810Y020993D01*
X001764Y020985D01*
X001717Y020981D01*
X001671Y020981D01*
X001624Y020985D01*
X001578Y020993D01*
X001533Y021005D01*
X001489Y021021D01*
X001446Y021040D01*
X001405Y021063D01*
X001366Y021089D01*
X001330Y021118D01*
X001296Y021151D01*
X001265Y021186D01*
X001237Y021223D01*
X001213Y021263D01*
X001192Y021305D01*
X001174Y021348D01*
X001161Y021393D01*
X001151Y021439D01*
X001145Y021485D01*
X001143Y021532D01*
X018749Y012282D02*
X018751Y012329D01*
X018757Y012375D01*
X018767Y012421D01*
X018780Y012466D01*
X018798Y012509D01*
X018819Y012551D01*
X018843Y012591D01*
X018871Y012628D01*
X018902Y012663D01*
X018936Y012696D01*
X018972Y012725D01*
X019011Y012751D01*
X019052Y012774D01*
X019095Y012793D01*
X019139Y012809D01*
X019184Y012821D01*
X019230Y012829D01*
X019277Y012833D01*
X019323Y012833D01*
X019370Y012829D01*
X019416Y012821D01*
X019461Y012809D01*
X019505Y012793D01*
X019548Y012774D01*
X019589Y012751D01*
X019628Y012725D01*
X019664Y012696D01*
X019698Y012663D01*
X019729Y012628D01*
X019757Y012591D01*
X019781Y012551D01*
X019802Y012509D01*
X019820Y012466D01*
X019833Y012421D01*
X019843Y012375D01*
X019849Y012329D01*
X019851Y012282D01*
X019849Y012235D01*
X019843Y012189D01*
X019833Y012143D01*
X019820Y012098D01*
X019802Y012055D01*
X019781Y012013D01*
X019757Y011973D01*
X019729Y011936D01*
X019698Y011901D01*
X019664Y011868D01*
X019628Y011839D01*
X019589Y011813D01*
X019548Y011790D01*
X019505Y011771D01*
X019461Y011755D01*
X019416Y011743D01*
X019370Y011735D01*
X019323Y011731D01*
X019277Y011731D01*
X019230Y011735D01*
X019184Y011743D01*
X019139Y011755D01*
X019095Y011771D01*
X019052Y011790D01*
X019011Y011813D01*
X018972Y011839D01*
X018936Y011868D01*
X018902Y011901D01*
X018871Y011936D01*
X018843Y011973D01*
X018819Y012013D01*
X018798Y012055D01*
X018780Y012098D01*
X018767Y012143D01*
X018757Y012189D01*
X018751Y012235D01*
X018749Y012282D01*
X018853Y019176D02*
X018855Y019224D01*
X018861Y019272D01*
X018871Y019319D01*
X018884Y019365D01*
X018902Y019410D01*
X018922Y019454D01*
X018947Y019496D01*
X018975Y019535D01*
X019005Y019572D01*
X019039Y019606D01*
X019076Y019638D01*
X019114Y019667D01*
X019155Y019692D01*
X019198Y019714D01*
X019243Y019732D01*
X019289Y019746D01*
X019336Y019757D01*
X019384Y019764D01*
X019432Y019767D01*
X019480Y019766D01*
X019528Y019761D01*
X019576Y019752D01*
X019622Y019740D01*
X019667Y019723D01*
X019711Y019703D01*
X019753Y019680D01*
X019793Y019653D01*
X019831Y019623D01*
X019866Y019590D01*
X019898Y019554D01*
X019928Y019516D01*
X019954Y019475D01*
X019976Y019432D01*
X019996Y019388D01*
X020011Y019343D01*
X020023Y019296D01*
X020031Y019248D01*
X020035Y019200D01*
X020035Y019152D01*
X020031Y019104D01*
X020023Y019056D01*
X020011Y019009D01*
X019996Y018964D01*
X019976Y018920D01*
X019954Y018877D01*
X019928Y018836D01*
X019898Y018798D01*
X019866Y018762D01*
X019831Y018729D01*
X019793Y018699D01*
X019753Y018672D01*
X019711Y018649D01*
X019667Y018629D01*
X019622Y018612D01*
X019576Y018600D01*
X019528Y018591D01*
X019480Y018586D01*
X019432Y018585D01*
X019384Y018588D01*
X019336Y018595D01*
X019289Y018606D01*
X019243Y018620D01*
X019198Y018638D01*
X019155Y018660D01*
X019114Y018685D01*
X019076Y018714D01*
X019039Y018746D01*
X019005Y018780D01*
X018975Y018817D01*
X018947Y018856D01*
X018922Y018898D01*
X018902Y018942D01*
X018884Y018987D01*
X018871Y019033D01*
X018861Y019080D01*
X018855Y019128D01*
X018853Y019176D01*
D11*
X007704Y010188D02*
X007397Y010188D01*
X007320Y010265D01*
X007627Y010265D02*
X007627Y010111D01*
X007780Y009881D02*
X007320Y009881D01*
X007320Y009804D02*
X007320Y009958D01*
X007320Y009651D02*
X007320Y009574D01*
X007397Y009574D01*
X007397Y009651D01*
X007320Y009651D01*
X007473Y009421D02*
X007473Y009114D01*
X007397Y009114D02*
X007550Y009114D01*
X007627Y009190D01*
X007627Y009344D01*
X007550Y009421D01*
X007473Y009421D01*
X007320Y009344D02*
X007320Y009190D01*
X007397Y009114D01*
X007627Y008960D02*
X007627Y008884D01*
X007473Y008730D01*
X007320Y008730D02*
X007627Y008730D01*
X007627Y008500D02*
X007320Y008500D01*
X007320Y008423D02*
X007320Y008577D01*
X007627Y008500D02*
X007627Y008423D01*
X007780Y008500D02*
X007857Y008500D01*
X007780Y008270D02*
X007473Y008270D01*
X007320Y008116D01*
X007473Y007963D01*
X007780Y007963D01*
X007550Y007809D02*
X007473Y007809D01*
X007473Y007502D01*
X007397Y007502D02*
X007550Y007502D01*
X007627Y007579D01*
X007627Y007733D01*
X007550Y007809D01*
X007320Y007733D02*
X007320Y007579D01*
X007397Y007502D01*
X007320Y007349D02*
X007320Y007195D01*
X007320Y007272D02*
X007780Y007272D01*
X007780Y007195D01*
X007627Y007042D02*
X007320Y007042D01*
X007320Y006812D01*
X007397Y006735D01*
X007627Y006735D01*
X007550Y006582D02*
X007320Y006582D01*
X007320Y006351D01*
X007397Y006275D01*
X007473Y006351D01*
X007473Y006582D01*
X007550Y006582D02*
X007627Y006505D01*
X007627Y006351D01*
X007704Y006121D02*
X007780Y006044D01*
X007780Y005891D01*
X007704Y005814D01*
X007627Y005814D01*
X007550Y005891D01*
X007550Y006044D01*
X007473Y006121D01*
X007397Y006121D01*
X007320Y006044D01*
X007320Y005891D01*
X007397Y005814D01*
X007397Y005661D02*
X007320Y005661D01*
X007320Y005584D01*
X007397Y005584D01*
X007397Y005661D01*
X007397Y005431D02*
X007627Y005431D01*
X007397Y005431D02*
X007320Y005354D01*
X007397Y005277D01*
X007320Y005200D01*
X007397Y005124D01*
X007627Y005124D01*
X007627Y004970D02*
X007397Y004970D01*
X007320Y004893D01*
X007397Y004817D01*
X007320Y004740D01*
X007397Y004663D01*
X007627Y004663D01*
X007627Y004510D02*
X007397Y004510D01*
X007320Y004433D01*
X007397Y004356D01*
X007320Y004280D01*
X007397Y004203D01*
X007627Y004203D01*
X007030Y004280D02*
X006954Y004203D01*
X006877Y004203D01*
X006800Y004280D01*
X006800Y004433D01*
X006723Y004510D01*
X006647Y004510D01*
X006570Y004433D01*
X006570Y004280D01*
X006647Y004203D01*
X007030Y004280D02*
X007030Y004433D01*
X006954Y004510D01*
X006877Y004740D02*
X006877Y004893D01*
X006800Y004970D01*
X006570Y004970D01*
X006570Y004740D01*
X006647Y004663D01*
X006723Y004740D01*
X006723Y004970D01*
X006647Y005124D02*
X006570Y005200D01*
X006570Y005431D01*
X006877Y005431D01*
X007030Y005584D02*
X007030Y005661D01*
X006570Y005661D01*
X006570Y005584D02*
X006570Y005738D01*
X006647Y005891D02*
X006800Y005891D01*
X006877Y005968D01*
X006877Y006121D01*
X006800Y006198D01*
X006723Y006198D01*
X006723Y005891D01*
X006647Y005891D02*
X006570Y005968D01*
X006570Y006121D01*
X006570Y006351D02*
X006570Y006582D01*
X006647Y006658D01*
X006723Y006582D01*
X006723Y006428D01*
X006800Y006351D01*
X006877Y006428D01*
X006877Y006658D01*
X007030Y007272D02*
X006570Y007272D01*
X006723Y007272D02*
X006877Y007502D01*
X006800Y007656D02*
X006647Y007656D01*
X006570Y007733D01*
X006570Y007886D01*
X006647Y007963D01*
X006800Y007963D01*
X006877Y007886D01*
X006877Y007733D01*
X006800Y007656D01*
X006570Y007502D02*
X006723Y007272D01*
X006280Y007272D02*
X006280Y007195D01*
X006280Y007272D02*
X005820Y007272D01*
X005820Y007195D02*
X005820Y007349D01*
X005897Y007502D02*
X005820Y007579D01*
X005820Y007733D01*
X005973Y007809D02*
X005973Y007502D01*
X005897Y007502D02*
X006050Y007502D01*
X006127Y007579D01*
X006127Y007733D01*
X006050Y007809D01*
X005973Y007809D01*
X005973Y007963D02*
X005820Y008116D01*
X005973Y008270D01*
X006280Y008270D01*
X006127Y008423D02*
X006127Y008500D01*
X005820Y008500D01*
X005820Y008423D02*
X005820Y008577D01*
X005820Y008730D02*
X006127Y008730D01*
X005973Y008730D02*
X006127Y008884D01*
X006127Y008960D01*
X006050Y009114D02*
X006127Y009190D01*
X006127Y009344D01*
X006050Y009421D01*
X005973Y009421D01*
X005973Y009114D01*
X005897Y009114D02*
X006050Y009114D01*
X005897Y009114D02*
X005820Y009190D01*
X005820Y009344D01*
X005820Y009574D02*
X005820Y009651D01*
X005897Y009651D01*
X005897Y009574D01*
X005820Y009574D01*
X005820Y009804D02*
X005820Y009958D01*
X005820Y009881D02*
X006280Y009881D01*
X006280Y009804D01*
X006570Y009804D02*
X006647Y009881D01*
X006800Y009881D01*
X006877Y009804D01*
X006877Y009651D01*
X006800Y009574D01*
X006647Y009574D01*
X006570Y009651D01*
X006570Y009804D01*
X006570Y010035D02*
X006877Y010035D01*
X006877Y010188D02*
X006877Y010265D01*
X006877Y010188D02*
X006723Y010035D01*
X006570Y010418D02*
X006570Y010572D01*
X006570Y010495D02*
X006877Y010495D01*
X006877Y010418D01*
X007030Y010495D02*
X007107Y010495D01*
X006877Y010802D02*
X006877Y010955D01*
X006800Y011032D01*
X006570Y011032D01*
X006570Y010802D01*
X006647Y010725D01*
X006723Y010802D01*
X006723Y011032D01*
X006647Y011186D02*
X006570Y011262D01*
X006570Y011492D01*
X006877Y011492D01*
X006800Y011646D02*
X006877Y011723D01*
X006877Y011953D01*
X006723Y011876D02*
X006723Y011723D01*
X006800Y011646D01*
X006570Y011646D02*
X006570Y011876D01*
X006647Y011953D01*
X006723Y011876D01*
X006127Y011569D02*
X006127Y011339D01*
X005820Y011339D01*
X005973Y011186D02*
X005973Y010879D01*
X005897Y010879D02*
X006050Y010879D01*
X006127Y010955D01*
X006127Y011109D01*
X006050Y011186D01*
X005973Y011186D01*
X005820Y011109D02*
X005820Y010955D01*
X005897Y010879D01*
X006280Y010725D02*
X005820Y010418D01*
X005820Y010265D02*
X005897Y010188D01*
X006204Y010188D01*
X006127Y010111D02*
X006127Y010265D01*
X006570Y009421D02*
X006647Y009344D01*
X006954Y009344D01*
X006877Y009267D02*
X006877Y009421D01*
X006877Y009114D02*
X006723Y008884D01*
X006570Y009114D01*
X006570Y008884D02*
X007030Y008884D01*
X006800Y008730D02*
X006877Y008653D01*
X006877Y008500D01*
X006800Y008423D01*
X006647Y008423D01*
X006570Y008500D01*
X006570Y008653D01*
X006723Y008730D02*
X006723Y008423D01*
X006570Y008270D02*
X006570Y008116D01*
X006570Y008193D02*
X007030Y008193D01*
X007030Y008116D01*
X006800Y008730D02*
X006723Y008730D01*
X006357Y008500D02*
X006280Y008500D01*
X006280Y007963D02*
X005973Y007963D01*
X005530Y007963D02*
X005530Y008040D01*
X005070Y008040D01*
X005070Y008116D02*
X005070Y007963D01*
X005070Y007809D02*
X005070Y007656D01*
X005070Y007733D02*
X005530Y007733D01*
X005530Y007656D01*
X005300Y007502D02*
X005377Y007426D01*
X005377Y007272D01*
X005300Y007195D01*
X005147Y007195D01*
X005070Y007272D01*
X005070Y007426D01*
X005147Y007502D01*
X005300Y007502D01*
X005377Y007042D02*
X005377Y006812D01*
X005300Y006735D01*
X005147Y006735D01*
X005070Y006812D01*
X005070Y007042D01*
X005820Y007042D02*
X005820Y006812D01*
X005897Y006735D01*
X006127Y006735D01*
X006050Y006582D02*
X006127Y006505D01*
X006127Y006351D01*
X005973Y006351D02*
X005897Y006275D01*
X005820Y006351D01*
X005820Y006582D01*
X006050Y006582D01*
X005973Y006582D02*
X005973Y006351D01*
X005973Y006121D02*
X005897Y006121D01*
X005820Y006044D01*
X005820Y005891D01*
X005897Y005814D01*
X005897Y005661D02*
X005820Y005661D01*
X005820Y005584D01*
X005897Y005584D01*
X005897Y005661D01*
X005897Y005431D02*
X006127Y005431D01*
X005897Y005431D02*
X005820Y005354D01*
X005897Y005277D01*
X005820Y005200D01*
X005897Y005124D01*
X006127Y005124D01*
X006127Y004970D02*
X005897Y004970D01*
X005820Y004893D01*
X005897Y004817D01*
X005820Y004740D01*
X005897Y004663D01*
X006127Y004663D01*
X006127Y004510D02*
X005897Y004510D01*
X005820Y004433D01*
X005897Y004356D01*
X005820Y004280D01*
X005897Y004203D01*
X006127Y004203D01*
X005530Y004280D02*
X005454Y004203D01*
X005377Y004203D01*
X005300Y004280D01*
X005300Y004433D01*
X005223Y004510D01*
X005147Y004510D01*
X005070Y004433D01*
X005070Y004280D01*
X005147Y004203D01*
X005530Y004280D02*
X005530Y004433D01*
X005454Y004510D01*
X005300Y004663D02*
X005147Y004663D01*
X005070Y004740D01*
X005070Y004893D01*
X005147Y004970D01*
X005300Y004970D01*
X005377Y004893D01*
X005377Y004740D01*
X005300Y004663D01*
X005070Y005124D02*
X005070Y005277D01*
X005070Y005200D02*
X005530Y005200D01*
X005530Y005124D01*
X005377Y005507D02*
X005377Y005661D01*
X005300Y005738D01*
X005070Y005738D01*
X005070Y005507D01*
X005147Y005431D01*
X005223Y005507D01*
X005223Y005738D01*
X005223Y005891D02*
X005377Y006044D01*
X005377Y006121D01*
X005377Y005891D02*
X005070Y005891D01*
X005973Y006121D02*
X006050Y006044D01*
X006050Y005891D01*
X006127Y005814D01*
X006204Y005814D01*
X006280Y005891D01*
X006280Y006044D01*
X006204Y006121D01*
X006127Y007042D02*
X005820Y007042D01*
X005300Y008270D02*
X005147Y008270D01*
X005070Y008346D01*
X005070Y008500D01*
X005223Y008577D02*
X005223Y008270D01*
X005300Y008270D02*
X005377Y008346D01*
X005377Y008500D01*
X005300Y008577D01*
X005223Y008577D01*
X005147Y008730D02*
X005070Y008807D01*
X005070Y009037D01*
X005147Y009267D02*
X005070Y009344D01*
X005147Y009267D02*
X005454Y009267D01*
X005377Y009190D02*
X005377Y009344D01*
X005300Y009497D02*
X005147Y009497D01*
X005070Y009574D01*
X005070Y009728D01*
X005147Y009804D01*
X005300Y009804D01*
X005377Y009728D01*
X005377Y009574D01*
X005300Y009497D01*
X005377Y009037D02*
X005377Y008807D01*
X005300Y008730D01*
X005147Y008730D01*
X005223Y009958D02*
X005377Y010111D01*
X005377Y010188D01*
X005377Y009958D02*
X005070Y009958D01*
X005147Y010802D02*
X005070Y010879D01*
X005070Y011109D01*
X005147Y011262D02*
X005070Y011339D01*
X005070Y011492D01*
X005147Y011569D01*
X005300Y011569D01*
X005377Y011492D01*
X005377Y011339D01*
X005300Y011262D01*
X005147Y011262D01*
X005377Y011109D02*
X005377Y010879D01*
X005300Y010802D01*
X005147Y010802D01*
X005820Y011646D02*
X006050Y011646D01*
X006127Y011569D01*
X006647Y011186D02*
X006877Y011186D01*
X007780Y009881D02*
X007780Y009804D01*
X005377Y011723D02*
X005377Y011953D01*
X005300Y012030D01*
X005070Y012030D01*
X005147Y012260D02*
X005070Y012337D01*
X005147Y012260D02*
X005454Y012260D01*
X005377Y012183D02*
X005377Y012337D01*
X005377Y012490D02*
X005070Y012490D01*
X005223Y012490D02*
X005377Y012643D01*
X005377Y012720D01*
X005300Y012874D02*
X005147Y012874D01*
X005070Y012950D01*
X005070Y013104D01*
X005147Y013181D01*
X005300Y013181D01*
X005377Y013104D01*
X005377Y012950D01*
X005300Y012874D01*
X005070Y013334D02*
X005070Y013487D01*
X005070Y013411D02*
X005530Y013411D01*
X005530Y013334D01*
X005530Y013641D02*
X005530Y013718D01*
X005070Y013718D01*
X005070Y013794D02*
X005070Y013641D01*
X005147Y013948D02*
X005300Y013948D01*
X005377Y014025D01*
X005377Y014178D01*
X005300Y014255D01*
X005223Y014255D01*
X005223Y013948D01*
X005147Y013948D02*
X005070Y014025D01*
X005070Y014178D01*
X005070Y014408D02*
X005377Y014408D01*
X005223Y014408D02*
X005377Y014562D01*
X005377Y014638D01*
X005530Y015252D02*
X005223Y015252D01*
X005070Y015406D01*
X005223Y015559D01*
X005530Y015559D01*
X005377Y015713D02*
X005530Y015866D01*
X005070Y015866D01*
X005070Y015713D02*
X005070Y016020D01*
X005070Y016173D02*
X005070Y016250D01*
X005147Y016250D01*
X005147Y016173D01*
X005070Y016173D01*
X005070Y016403D02*
X005377Y016710D01*
X005454Y016710D01*
X005530Y016633D01*
X005530Y016480D01*
X005454Y016403D01*
X005070Y016403D02*
X005070Y016710D01*
X005070Y016864D02*
X005070Y017171D01*
X005070Y017017D02*
X005530Y017017D01*
X005377Y016864D01*
X006570Y016940D02*
X006570Y017247D01*
X006570Y017094D02*
X007030Y017094D01*
X006877Y016940D01*
X007030Y016787D02*
X006723Y016787D01*
X006570Y016633D01*
X006723Y016480D01*
X007030Y016480D01*
X006877Y015866D02*
X006877Y015636D01*
X006800Y015559D01*
X006723Y015636D01*
X006723Y015789D01*
X006647Y015866D01*
X006570Y015789D01*
X006570Y015559D01*
X006570Y015406D02*
X006570Y015252D01*
X006570Y015329D02*
X006877Y015329D01*
X006877Y015252D01*
X007030Y015329D02*
X007107Y015329D01*
X007030Y015022D02*
X006570Y015022D01*
X006570Y014945D02*
X006570Y015099D01*
X006570Y014792D02*
X006723Y014562D01*
X006877Y014792D01*
X007030Y014945D02*
X007030Y015022D01*
X007030Y014562D02*
X006570Y014562D01*
X006570Y014408D02*
X006570Y014255D01*
X006570Y014332D02*
X006877Y014332D01*
X006877Y014255D01*
X006877Y014101D02*
X006877Y013871D01*
X006800Y013794D01*
X006647Y013794D01*
X006570Y013871D01*
X006570Y014101D01*
X007030Y014101D01*
X007030Y014332D02*
X007107Y014332D01*
X006570Y013641D02*
X006570Y013487D01*
X006570Y013564D02*
X007030Y013564D01*
X007030Y013487D01*
X006877Y013257D02*
X006800Y013334D01*
X006570Y013334D01*
X006570Y013104D01*
X006647Y013027D01*
X006723Y013104D01*
X006723Y013334D01*
X006877Y013257D02*
X006877Y013104D01*
X006877Y012874D02*
X006570Y012720D01*
X006877Y012567D01*
X005377Y011723D02*
X005070Y011723D01*
X006570Y017401D02*
X006570Y017478D01*
X006647Y017478D01*
X006647Y017401D01*
X006570Y017401D01*
X006570Y017631D02*
X006877Y017938D01*
X006954Y017938D01*
X007030Y017861D01*
X007030Y017708D01*
X006954Y017631D01*
X006570Y017631D02*
X006570Y017938D01*
X006570Y018091D02*
X006570Y018398D01*
X006570Y018245D02*
X007030Y018245D01*
X006877Y018091D01*
X006877Y005124D02*
X006647Y005124D01*
X014433Y004032D02*
X014740Y004032D01*
X014510Y004262D01*
X014510Y003802D01*
X014894Y003879D02*
X014971Y003802D01*
X015124Y003802D01*
X015201Y003879D01*
X014894Y004185D01*
X014894Y003879D01*
X014894Y004185D02*
X014971Y004262D01*
X015124Y004262D01*
X015201Y004185D01*
X015201Y003879D01*
X015354Y003879D02*
X015354Y003955D01*
X015431Y004032D01*
X015661Y004032D01*
X015661Y003879D01*
X015584Y003802D01*
X015431Y003802D01*
X015354Y003879D01*
X015508Y004185D02*
X015661Y004032D01*
X015815Y004109D02*
X015815Y004185D01*
X015891Y004262D01*
X016045Y004262D01*
X016122Y004185D01*
X016275Y004185D02*
X016352Y004262D01*
X016505Y004262D01*
X016582Y004185D01*
X016735Y004185D02*
X016735Y003879D01*
X016812Y003802D01*
X016966Y003802D01*
X017042Y003879D01*
X016735Y004185D01*
X016812Y004262D01*
X016966Y004262D01*
X017042Y004185D01*
X017042Y003879D01*
X017196Y003879D02*
X017273Y003802D01*
X017426Y003802D01*
X017503Y003879D01*
X017196Y004185D01*
X017196Y003879D01*
X017196Y004185D02*
X017273Y004262D01*
X017426Y004262D01*
X017503Y004185D01*
X017503Y003879D01*
X017656Y003879D02*
X017733Y003802D01*
X017886Y003802D01*
X017963Y003879D01*
X017656Y004185D01*
X017656Y003879D01*
X017656Y004185D02*
X017733Y004262D01*
X017886Y004262D01*
X017963Y004185D01*
X017963Y003879D01*
X018117Y003802D02*
X018424Y003802D01*
X018270Y003802D02*
X018270Y004262D01*
X018424Y004109D01*
X018577Y004109D02*
X018654Y004109D01*
X018884Y004109D01*
X018884Y003955D02*
X018577Y003955D01*
X018654Y003802D02*
X018654Y004262D01*
X018807Y004262D02*
X018807Y003802D01*
X018807Y004552D02*
X018654Y004552D01*
X018577Y004629D01*
X018577Y004935D01*
X018654Y005012D01*
X018807Y005012D01*
X018884Y004935D01*
X018884Y004629D01*
X018807Y004552D01*
X018424Y004552D02*
X018424Y005012D01*
X018193Y005012D01*
X018117Y004935D01*
X018117Y004782D01*
X018193Y004705D01*
X018424Y004705D01*
X018270Y004705D02*
X018117Y004552D01*
X017963Y004552D02*
X017733Y004552D01*
X017656Y004629D01*
X017656Y004935D01*
X017733Y005012D01*
X017963Y005012D01*
X017963Y004552D01*
X017503Y004552D02*
X017503Y005012D01*
X017196Y005012D01*
X017042Y005012D02*
X016812Y005012D01*
X016735Y004935D01*
X016735Y004782D01*
X016812Y004705D01*
X017042Y004705D01*
X016889Y004705D02*
X016735Y004552D01*
X017042Y004552D02*
X017042Y005012D01*
X017349Y004782D02*
X017503Y004782D01*
X017503Y004552D02*
X017196Y004552D01*
X016582Y003802D02*
X016275Y004109D01*
X016275Y004185D01*
X016275Y003802D02*
X016582Y003802D01*
X016122Y003802D02*
X015815Y004109D01*
X015815Y003802D02*
X016122Y003802D01*
X015508Y004185D02*
X015354Y004262D01*
D12*
X019316Y007658D02*
X019332Y007529D01*
X019345Y007401D01*
X019353Y007272D01*
X019358Y007142D01*
X019359Y007013D01*
X019356Y006884D01*
X019348Y006754D01*
X019337Y006626D01*
X019322Y006497D01*
X019303Y006369D01*
X019281Y006242D01*
X019254Y006115D01*
X019223Y005990D01*
X019189Y005865D01*
X019151Y005741D01*
X019109Y005619D01*
X019063Y005498D01*
X019014Y005378D01*
X018961Y005260D01*
X018905Y005144D01*
X018845Y005029D01*
X018781Y004916D01*
X018714Y004806D01*
X018644Y004697D01*
X018571Y004591D01*
X018494Y004487D01*
X018414Y004385D01*
X018331Y004285D01*
X018245Y004189D01*
X018156Y004095D01*
X018065Y004003D01*
X017970Y003915D01*
X017873Y003829D01*
X017774Y003747D01*
X017672Y003668D01*
X017567Y003591D01*
X017460Y003518D01*
X017352Y003448D01*
X017241Y003382D01*
X017128Y003319D01*
X017013Y003259D01*
X016896Y003203D01*
X016778Y003151D01*
X016658Y003102D01*
X016537Y003057D01*
X016414Y003016D01*
X016291Y002978D01*
X016166Y002944D01*
X016040Y002914D01*
X015913Y002888D01*
X015786Y002866D01*
X015658Y002847D01*
X015529Y002833D01*
X015400Y002822D01*
X015271Y002816D01*
X015142Y002813D01*
X015012Y002814D01*
X014883Y002820D01*
X014754Y002829D01*
X014625Y002842D01*
X014497Y002859D01*
X014370Y002880D01*
X014243Y002905D01*
X014116Y002933D01*
X013991Y002966D01*
X013867Y003002D01*
X013744Y003042D01*
X013622Y003086D01*
X013502Y003133D01*
X013383Y003185D01*
X013266Y003239D01*
X013151Y003298D01*
X013037Y003359D01*
X012925Y003425D01*
X012816Y003493D01*
X012708Y003565D01*
X012603Y003640D01*
X012500Y003719D01*
X012399Y003800D01*
X012301Y003885D01*
X012206Y003972D01*
X012113Y004062D01*
X012024Y004155D01*
X011937Y004251D01*
X011853Y004350D01*
X011772Y004450D01*
X011694Y004554D01*
X011619Y004659D01*
X011548Y004767D01*
X011480Y004877D01*
X011415Y004989D01*
X011354Y005103D01*
X011296Y005219D01*
X011242Y005336D01*
X011191Y005455D01*
X011145Y005576D01*
X011101Y005698D01*
X011062Y005821D01*
X011026Y005945D01*
X010994Y006071D01*
X010966Y006197D01*
X010942Y006324D01*
X010922Y006452D01*
X010905Y006580D01*
X010893Y006709D01*
X010884Y006838D01*
X010880Y006967D01*
X010879Y007097D01*
X010883Y007226D01*
X010890Y007355D01*
X010901Y007484D01*
X010916Y007613D01*
X010935Y007740D01*
X010958Y007868D01*
X010985Y007994D01*
X011015Y008120D01*
X011050Y008245D01*
X011088Y008368D01*
X011130Y008491D01*
X011176Y008612D01*
X011225Y008731D01*
X011278Y008849D01*
X011335Y008965D01*
X011395Y009080D01*
X011458Y009193D01*
X011525Y009303D01*
X011596Y009412D01*
X011669Y009518D01*
X011746Y009622D01*
X011826Y009724D01*
X011909Y009823D01*
X011995Y009920D01*
X012084Y010014D01*
X012176Y010105D01*
X012270Y010193D01*
X012367Y010279D01*
X012467Y010361D01*
X012569Y010441D01*
X012674Y010517D01*
X012781Y010590D01*
X012890Y010660D01*
X013001Y010726D01*
X013114Y010789D01*
X013228Y010848D01*
X013345Y010904D01*
X013463Y010956D01*
X013583Y011005D01*
X013705Y011050D01*
X013827Y011091D01*
X013951Y011129D01*
X014076Y011163D01*
X014202Y011193D01*
X014328Y011219D01*
X014456Y011241D01*
X014584Y011259D01*
X014712Y011273D01*
X014841Y011284D01*
X014971Y011290D01*
X015100Y011293D01*
X015229Y011292D01*
X015358Y011286D01*
X015487Y011277D01*
X015616Y011264D01*
X015744Y011247D01*
X015872Y011226D01*
X015999Y011201D01*
X016125Y011172D01*
X016250Y011139D01*
X016374Y011103D01*
X016497Y011063D01*
X016619Y011019D01*
X016739Y010971D01*
X016858Y010920D01*
X016975Y010865D01*
X017091Y010807D01*
X017204Y010745D01*
X017316Y010679D01*
X017425Y010611D01*
X017533Y010539D01*
X017638Y010464D01*
X017741Y010385D01*
X017741Y010386D02*
X018764Y010976D01*
X020338Y008249D01*
X019316Y007658D01*
X019300Y005032D02*
X019800Y005032D01*
X020050Y004782D01*
X020050Y004282D01*
X019800Y004032D01*
X020050Y003782D01*
X020050Y003282D01*
X019800Y003032D01*
X019300Y003032D01*
X019050Y003282D01*
X019050Y003782D01*
X019300Y004032D01*
X019050Y004282D01*
X019050Y004782D01*
X019300Y005032D01*
D13*
X010377Y003848D02*
X010312Y003811D01*
X010278Y003820D01*
X010265Y003842D01*
X010274Y003876D01*
X010339Y003913D01*
X010274Y003876D02*
X010240Y003885D01*
X010228Y003907D01*
X010237Y003941D01*
X010302Y003978D01*
X010377Y003848D01*
X010249Y003775D02*
X010199Y003861D01*
X010131Y003880D01*
X010113Y003811D01*
X010163Y003725D01*
X010125Y003790D02*
X010212Y003840D01*
X010047Y003831D02*
X009960Y003781D01*
X010003Y003806D02*
X010078Y003676D01*
X009994Y003627D02*
X009908Y003577D01*
X009951Y003602D02*
X009876Y003732D01*
X009944Y003714D01*
D14*
X020295Y003487D02*
X020745Y003487D01*
X020745Y003712D01*
X020670Y003787D01*
X020520Y003787D01*
X020445Y003712D01*
X020445Y003487D01*
X020370Y003252D02*
X020295Y003177D01*
X020295Y003102D01*
X020370Y003027D01*
X020370Y003252D02*
X020745Y003252D01*
X020745Y003177D02*
X020745Y003327D01*
X020595Y003948D02*
X020745Y004098D01*
X020295Y004098D01*
X020295Y003948D02*
X020295Y004248D01*
M02*
