G75*
%MOIN*%
%OFA0B0*%
%FSLAX24Y24*%
%IPPOS*%
%LPD*%
%AMOC8*
5,1,8,0,0,1.08239X$1,22.5*
%
%ADD10C,0.0000*%
%ADD11OC8,0.0520*%
%ADD12C,0.0600*%
%ADD13C,0.0594*%
%ADD14C,0.0594*%
%ADD15C,0.0600*%
%ADD16OC8,0.0740*%
%ADD17R,0.0700X0.0700*%
%ADD18C,0.0700*%
%ADD19C,0.0740*%
%ADD20C,0.0520*%
%ADD21C,0.0660*%
%ADD22C,0.0768*%
%ADD23C,0.0100*%
%ADD24C,0.0080*%
%ADD25C,0.0240*%
D10*
X000800Y002782D02*
X000800Y022467D01*
X020292Y022467D01*
X020292Y002782D01*
X000800Y002782D01*
X001103Y003676D02*
X001105Y003724D01*
X001111Y003772D01*
X001121Y003819D01*
X001134Y003865D01*
X001152Y003910D01*
X001172Y003954D01*
X001197Y003996D01*
X001225Y004035D01*
X001255Y004072D01*
X001289Y004106D01*
X001326Y004138D01*
X001364Y004167D01*
X001405Y004192D01*
X001448Y004214D01*
X001493Y004232D01*
X001539Y004246D01*
X001586Y004257D01*
X001634Y004264D01*
X001682Y004267D01*
X001730Y004266D01*
X001778Y004261D01*
X001826Y004252D01*
X001872Y004240D01*
X001917Y004223D01*
X001961Y004203D01*
X002003Y004180D01*
X002043Y004153D01*
X002081Y004123D01*
X002116Y004090D01*
X002148Y004054D01*
X002178Y004016D01*
X002204Y003975D01*
X002226Y003932D01*
X002246Y003888D01*
X002261Y003843D01*
X002273Y003796D01*
X002281Y003748D01*
X002285Y003700D01*
X002285Y003652D01*
X002281Y003604D01*
X002273Y003556D01*
X002261Y003509D01*
X002246Y003464D01*
X002226Y003420D01*
X002204Y003377D01*
X002178Y003336D01*
X002148Y003298D01*
X002116Y003262D01*
X002081Y003229D01*
X002043Y003199D01*
X002003Y003172D01*
X001961Y003149D01*
X001917Y003129D01*
X001872Y003112D01*
X001826Y003100D01*
X001778Y003091D01*
X001730Y003086D01*
X001682Y003085D01*
X001634Y003088D01*
X001586Y003095D01*
X001539Y003106D01*
X001493Y003120D01*
X001448Y003138D01*
X001405Y003160D01*
X001364Y003185D01*
X001326Y003214D01*
X001289Y003246D01*
X001255Y003280D01*
X001225Y003317D01*
X001197Y003356D01*
X001172Y003398D01*
X001152Y003442D01*
X001134Y003487D01*
X001121Y003533D01*
X001111Y003580D01*
X001105Y003628D01*
X001103Y003676D01*
X001143Y021532D02*
X001145Y021579D01*
X001151Y021625D01*
X001161Y021671D01*
X001174Y021716D01*
X001192Y021759D01*
X001213Y021801D01*
X001237Y021841D01*
X001265Y021878D01*
X001296Y021913D01*
X001330Y021946D01*
X001366Y021975D01*
X001405Y022001D01*
X001446Y022024D01*
X001489Y022043D01*
X001533Y022059D01*
X001578Y022071D01*
X001624Y022079D01*
X001671Y022083D01*
X001717Y022083D01*
X001764Y022079D01*
X001810Y022071D01*
X001855Y022059D01*
X001899Y022043D01*
X001942Y022024D01*
X001983Y022001D01*
X002022Y021975D01*
X002058Y021946D01*
X002092Y021913D01*
X002123Y021878D01*
X002151Y021841D01*
X002175Y021801D01*
X002196Y021759D01*
X002214Y021716D01*
X002227Y021671D01*
X002237Y021625D01*
X002243Y021579D01*
X002245Y021532D01*
X002243Y021485D01*
X002237Y021439D01*
X002227Y021393D01*
X002214Y021348D01*
X002196Y021305D01*
X002175Y021263D01*
X002151Y021223D01*
X002123Y021186D01*
X002092Y021151D01*
X002058Y021118D01*
X002022Y021089D01*
X001983Y021063D01*
X001942Y021040D01*
X001899Y021021D01*
X001855Y021005D01*
X001810Y020993D01*
X001764Y020985D01*
X001717Y020981D01*
X001671Y020981D01*
X001624Y020985D01*
X001578Y020993D01*
X001533Y021005D01*
X001489Y021021D01*
X001446Y021040D01*
X001405Y021063D01*
X001366Y021089D01*
X001330Y021118D01*
X001296Y021151D01*
X001265Y021186D01*
X001237Y021223D01*
X001213Y021263D01*
X001192Y021305D01*
X001174Y021348D01*
X001161Y021393D01*
X001151Y021439D01*
X001145Y021485D01*
X001143Y021532D01*
X018749Y012282D02*
X018751Y012329D01*
X018757Y012375D01*
X018767Y012421D01*
X018780Y012466D01*
X018798Y012509D01*
X018819Y012551D01*
X018843Y012591D01*
X018871Y012628D01*
X018902Y012663D01*
X018936Y012696D01*
X018972Y012725D01*
X019011Y012751D01*
X019052Y012774D01*
X019095Y012793D01*
X019139Y012809D01*
X019184Y012821D01*
X019230Y012829D01*
X019277Y012833D01*
X019323Y012833D01*
X019370Y012829D01*
X019416Y012821D01*
X019461Y012809D01*
X019505Y012793D01*
X019548Y012774D01*
X019589Y012751D01*
X019628Y012725D01*
X019664Y012696D01*
X019698Y012663D01*
X019729Y012628D01*
X019757Y012591D01*
X019781Y012551D01*
X019802Y012509D01*
X019820Y012466D01*
X019833Y012421D01*
X019843Y012375D01*
X019849Y012329D01*
X019851Y012282D01*
X019849Y012235D01*
X019843Y012189D01*
X019833Y012143D01*
X019820Y012098D01*
X019802Y012055D01*
X019781Y012013D01*
X019757Y011973D01*
X019729Y011936D01*
X019698Y011901D01*
X019664Y011868D01*
X019628Y011839D01*
X019589Y011813D01*
X019548Y011790D01*
X019505Y011771D01*
X019461Y011755D01*
X019416Y011743D01*
X019370Y011735D01*
X019323Y011731D01*
X019277Y011731D01*
X019230Y011735D01*
X019184Y011743D01*
X019139Y011755D01*
X019095Y011771D01*
X019052Y011790D01*
X019011Y011813D01*
X018972Y011839D01*
X018936Y011868D01*
X018902Y011901D01*
X018871Y011936D01*
X018843Y011973D01*
X018819Y012013D01*
X018798Y012055D01*
X018780Y012098D01*
X018767Y012143D01*
X018757Y012189D01*
X018751Y012235D01*
X018749Y012282D01*
X018853Y019176D02*
X018855Y019224D01*
X018861Y019272D01*
X018871Y019319D01*
X018884Y019365D01*
X018902Y019410D01*
X018922Y019454D01*
X018947Y019496D01*
X018975Y019535D01*
X019005Y019572D01*
X019039Y019606D01*
X019076Y019638D01*
X019114Y019667D01*
X019155Y019692D01*
X019198Y019714D01*
X019243Y019732D01*
X019289Y019746D01*
X019336Y019757D01*
X019384Y019764D01*
X019432Y019767D01*
X019480Y019766D01*
X019528Y019761D01*
X019576Y019752D01*
X019622Y019740D01*
X019667Y019723D01*
X019711Y019703D01*
X019753Y019680D01*
X019793Y019653D01*
X019831Y019623D01*
X019866Y019590D01*
X019898Y019554D01*
X019928Y019516D01*
X019954Y019475D01*
X019976Y019432D01*
X019996Y019388D01*
X020011Y019343D01*
X020023Y019296D01*
X020031Y019248D01*
X020035Y019200D01*
X020035Y019152D01*
X020031Y019104D01*
X020023Y019056D01*
X020011Y019009D01*
X019996Y018964D01*
X019976Y018920D01*
X019954Y018877D01*
X019928Y018836D01*
X019898Y018798D01*
X019866Y018762D01*
X019831Y018729D01*
X019793Y018699D01*
X019753Y018672D01*
X019711Y018649D01*
X019667Y018629D01*
X019622Y018612D01*
X019576Y018600D01*
X019528Y018591D01*
X019480Y018586D01*
X019432Y018585D01*
X019384Y018588D01*
X019336Y018595D01*
X019289Y018606D01*
X019243Y018620D01*
X019198Y018638D01*
X019155Y018660D01*
X019114Y018685D01*
X019076Y018714D01*
X019039Y018746D01*
X019005Y018780D01*
X018975Y018817D01*
X018947Y018856D01*
X018922Y018898D01*
X018902Y018942D01*
X018884Y018987D01*
X018871Y019033D01*
X018861Y019080D01*
X018855Y019128D01*
X018853Y019176D01*
D11*
X014300Y019532D03*
X014300Y018782D03*
X014300Y018032D03*
X014300Y017282D03*
X010800Y016282D03*
X010300Y017282D03*
X010300Y018032D03*
X010300Y018782D03*
X010300Y019532D03*
X005550Y021282D03*
X005050Y022032D03*
X004550Y021282D03*
X010800Y012282D03*
X013300Y013282D03*
X013300Y009282D03*
X013300Y008282D03*
X013300Y004282D03*
X008300Y003782D03*
X007300Y003782D03*
X006300Y003782D03*
X005300Y003782D03*
X005300Y007782D03*
X006300Y007782D03*
X007300Y007782D03*
X008300Y007782D03*
D12*
X013550Y003282D03*
X014550Y003282D03*
X001550Y005032D03*
X001550Y006032D03*
X001550Y007032D03*
X001550Y008032D03*
X001550Y009032D03*
X001550Y010032D03*
X001550Y011032D03*
X001550Y012032D03*
X001550Y013032D03*
X001550Y014032D03*
X001550Y015032D03*
X001550Y016032D03*
X001550Y017032D03*
X001550Y018032D03*
X001550Y019032D03*
X001550Y020032D03*
D13*
X004050Y020282D03*
X005050Y020282D03*
X006050Y020282D03*
D14*
X007800Y020985D02*
X007800Y021579D01*
X008800Y021579D02*
X008800Y020985D01*
X009800Y020985D02*
X009800Y021579D01*
X010800Y021579D02*
X010800Y020985D01*
X011800Y020985D02*
X011800Y021579D01*
X012800Y021579D02*
X012800Y020985D01*
X013800Y020985D02*
X013800Y021579D01*
X014800Y021579D02*
X014800Y020985D01*
X015800Y020985D02*
X015800Y021579D01*
X016800Y021579D02*
X016800Y020985D01*
X017800Y020985D02*
X017800Y021579D01*
X018800Y021579D02*
X018800Y020985D01*
X019800Y020985D02*
X019800Y021579D01*
D15*
X018380Y019172D02*
X017780Y019172D01*
X017780Y017392D02*
X018380Y017392D01*
X017910Y016612D02*
X017910Y016012D01*
X016940Y016012D02*
X016940Y016612D01*
X015820Y017392D02*
X015220Y017392D01*
X015160Y016612D02*
X015160Y016012D01*
X014190Y016012D02*
X014190Y016612D01*
X012410Y016612D02*
X012410Y016012D01*
X012410Y014052D02*
X012410Y013452D01*
X014190Y013452D02*
X014190Y014052D01*
X015160Y014052D02*
X015160Y013452D01*
X015220Y012672D02*
X015820Y012672D01*
X016940Y013452D02*
X016940Y014052D01*
X017910Y014052D02*
X017910Y013452D01*
X017780Y012672D02*
X018380Y012672D01*
X019690Y013452D02*
X019690Y014052D01*
X019690Y016012D02*
X019690Y016612D01*
X015820Y019172D02*
X015220Y019172D01*
X015220Y010892D02*
X015820Y010892D01*
X017780Y010892D02*
X018380Y010892D01*
D16*
X011800Y011282D03*
X010800Y011282D03*
X010800Y010282D03*
X010800Y009282D03*
X010800Y008282D03*
X010800Y007282D03*
X011800Y007282D03*
X011800Y008282D03*
X011800Y009282D03*
X011800Y010282D03*
D17*
X003300Y017282D03*
D18*
X003300Y016282D03*
X003300Y015282D03*
X003300Y014282D03*
X003300Y013282D03*
X003300Y012282D03*
X003300Y011282D03*
X003300Y010282D03*
X003300Y009282D03*
X003300Y008282D03*
X003300Y007282D03*
X003300Y006282D03*
X003300Y005282D03*
X003300Y004282D03*
X003300Y003282D03*
X009300Y003282D03*
X009300Y004282D03*
X009300Y005282D03*
X009300Y006282D03*
X009300Y007282D03*
X009300Y008282D03*
X009300Y009282D03*
X009300Y010282D03*
X009300Y011282D03*
X009300Y012282D03*
X009300Y013282D03*
X009300Y014282D03*
X009300Y015282D03*
X009300Y016282D03*
X009300Y017282D03*
D19*
X010550Y003282D03*
X011550Y003282D03*
X012550Y003282D03*
D20*
X014290Y006282D02*
X014810Y006282D01*
X014810Y007282D02*
X014290Y007282D01*
X014290Y008282D02*
X014810Y008282D01*
X014810Y009282D02*
X014290Y009282D01*
X017290Y009282D02*
X017810Y009282D01*
X017810Y008282D02*
X017290Y008282D01*
X017290Y007282D02*
X017810Y007282D01*
X017810Y006282D02*
X017290Y006282D01*
D21*
X018300Y006782D03*
X019300Y006782D03*
D22*
X018869Y009219D03*
X012050Y005282D03*
D23*
X012076Y005270D01*
X012863Y005270D01*
X014532Y003601D01*
X014532Y003286D01*
X014550Y003282D01*
X003300Y014282D02*
X003288Y014278D01*
X001556Y016010D01*
X001550Y016032D01*
X001524Y016073D01*
X001524Y016451D01*
X001115Y016861D01*
X001115Y019601D01*
X001524Y020010D01*
X001550Y020032D01*
X001556Y020042D01*
X003792Y020042D01*
X004013Y020262D01*
X004050Y020282D01*
X004076Y020294D01*
X004485Y020294D01*
X005461Y021270D01*
X005524Y021270D01*
X005550Y021282D01*
D24*
X006050Y020282D02*
X006028Y020262D01*
X004800Y019034D01*
X001556Y019034D01*
X001550Y019032D01*
X001550Y015032D02*
X001556Y015002D01*
X001556Y014593D01*
X002847Y013302D01*
X002847Y012735D01*
X003300Y012282D01*
X003761Y013081D02*
X003761Y007727D01*
X003320Y007286D01*
X003300Y007282D01*
X001902Y006026D02*
X003194Y004735D01*
X005335Y004735D01*
X006280Y003790D01*
X006300Y003782D01*
X006343Y003286D02*
X006910Y003853D01*
X006910Y004546D01*
X009178Y006813D01*
X010091Y006813D01*
X010312Y006656D02*
X010312Y008798D01*
X010784Y009270D01*
X010800Y009282D01*
X010627Y009774D02*
X012800Y009774D01*
X013272Y009302D01*
X013300Y009282D01*
X013682Y008672D02*
X013304Y008294D01*
X013300Y008282D01*
X013682Y008672D02*
X013682Y010089D01*
X012013Y011758D01*
X010595Y011758D01*
X010123Y011286D01*
X009304Y011286D01*
X009300Y011282D01*
X009146Y010782D02*
X011320Y010782D01*
X011792Y010309D01*
X011800Y010282D01*
X011800Y009282D02*
X011792Y009270D01*
X011320Y008798D01*
X011320Y007128D01*
X010312Y006120D01*
X010312Y004640D01*
X009300Y004282D02*
X009304Y004262D01*
X012265Y004262D01*
X013241Y003286D01*
X013524Y003286D01*
X013550Y003282D01*
X012550Y003282D02*
X012548Y003286D01*
X012233Y003286D01*
X011761Y003758D01*
X008328Y003758D01*
X008300Y003782D01*
X007918Y003632D02*
X008265Y003286D01*
X009272Y003286D01*
X009300Y003282D01*
X007918Y003632D02*
X007918Y004546D01*
X009178Y005805D01*
X009461Y005805D01*
X010312Y006656D01*
X009493Y007821D02*
X009178Y007821D01*
X006658Y005302D01*
X003320Y005302D01*
X003300Y005282D01*
X001902Y006026D02*
X001556Y006026D01*
X001550Y006032D01*
X003300Y003282D02*
X003320Y003286D01*
X006343Y003286D01*
X006300Y007782D02*
X006312Y007790D01*
X006784Y007790D01*
X008265Y009270D01*
X008548Y009270D01*
X008548Y018530D01*
X008800Y018782D01*
X008800Y021282D01*
X009209Y020987D02*
X009209Y021742D01*
X008957Y021994D01*
X008643Y021994D01*
X008202Y021553D01*
X008202Y017522D01*
X003761Y013081D01*
X008548Y009270D02*
X009272Y009270D01*
X009300Y009282D01*
X009430Y009805D02*
X009115Y009805D01*
X008831Y010089D01*
X008831Y010467D01*
X009146Y010782D01*
X009300Y010282D02*
X009304Y010278D01*
X010123Y010278D01*
X010627Y009774D01*
X009871Y009365D02*
X009430Y009805D01*
X009871Y009365D02*
X009871Y008199D01*
X009493Y007821D01*
X012328Y011664D02*
X013902Y010089D01*
X013902Y006939D01*
X014532Y006309D01*
X014550Y006282D01*
X015520Y010892D02*
X015540Y010939D01*
X013776Y012703D01*
X013776Y013333D01*
X012643Y014467D01*
X012076Y014467D01*
X009934Y016609D01*
X009934Y018183D01*
X010280Y018530D01*
X010280Y018782D01*
X010300Y018782D01*
X010438Y019160D02*
X010154Y019160D01*
X009776Y018782D01*
X009776Y015569D01*
X009300Y015282D02*
X009304Y015254D01*
X010312Y014246D01*
X010312Y013994D01*
X009300Y014282D02*
X010784Y012798D01*
X012328Y012798D01*
X012328Y011664D01*
X012328Y012798D02*
X012800Y013270D01*
X013272Y013270D01*
X013300Y013282D01*
X011446Y015443D02*
X017934Y015443D01*
X018784Y016294D01*
X018784Y017553D01*
X017367Y018971D01*
X017367Y019349D01*
X018784Y020766D01*
X018784Y021270D01*
X018800Y021282D01*
X017800Y021282D02*
X017776Y021270D01*
X017650Y021270D01*
X016296Y019916D01*
X011194Y019916D01*
X010438Y019160D01*
X010312Y020073D02*
X008769Y018530D01*
X008769Y015034D01*
X010300Y017282D02*
X010312Y017302D01*
X010658Y017648D01*
X014469Y017648D01*
X014721Y017396D01*
X015509Y017396D01*
X015520Y017392D01*
X014753Y016640D02*
X014753Y015853D01*
X015005Y015601D01*
X017209Y015601D01*
X017902Y016294D01*
X017910Y016312D01*
X016940Y016312D02*
X016926Y016325D01*
X016926Y016861D01*
X015005Y018782D01*
X014300Y018782D01*
X013461Y020073D02*
X010312Y020073D01*
X010973Y020577D02*
X009619Y020577D01*
X009209Y020987D01*
X009800Y021282D02*
X009808Y021302D01*
X010501Y021994D01*
X011950Y021994D01*
X012643Y021302D01*
X012800Y021302D01*
X012800Y021282D01*
X011800Y021282D02*
X011792Y021270D01*
X011666Y021270D01*
X010973Y020577D01*
X013461Y020073D02*
X014658Y021270D01*
X014784Y021270D01*
X014800Y021282D01*
X014300Y017282D02*
X014312Y017270D01*
X014312Y017081D01*
X014753Y016640D01*
X010784Y012798D02*
X010784Y012294D01*
X010800Y012282D01*
X015520Y010892D02*
X015540Y010908D01*
X018060Y010908D01*
X018080Y010892D01*
D25*
X011446Y015443D03*
X010312Y013994D03*
X009776Y015569D03*
X008769Y015034D03*
X010091Y006813D03*
X010312Y004640D03*
M02*
