G75*
%MOIN*%
%OFA0B0*%
%FSLAX24Y24*%
%IPPOS*%
%LPD*%
%AMOC8*
5,1,8,0,0,1.08239X$1,22.5*
%
%ADD10C,0.0000*%
D10*
X000800Y002782D02*
X000800Y022467D01*
X020292Y022467D01*
X020292Y002782D01*
X000800Y002782D01*
X001103Y003676D02*
X001105Y003724D01*
X001111Y003772D01*
X001121Y003819D01*
X001134Y003865D01*
X001152Y003910D01*
X001172Y003954D01*
X001197Y003996D01*
X001225Y004035D01*
X001255Y004072D01*
X001289Y004106D01*
X001326Y004138D01*
X001364Y004167D01*
X001405Y004192D01*
X001448Y004214D01*
X001493Y004232D01*
X001539Y004246D01*
X001586Y004257D01*
X001634Y004264D01*
X001682Y004267D01*
X001730Y004266D01*
X001778Y004261D01*
X001826Y004252D01*
X001872Y004240D01*
X001917Y004223D01*
X001961Y004203D01*
X002003Y004180D01*
X002043Y004153D01*
X002081Y004123D01*
X002116Y004090D01*
X002148Y004054D01*
X002178Y004016D01*
X002204Y003975D01*
X002226Y003932D01*
X002246Y003888D01*
X002261Y003843D01*
X002273Y003796D01*
X002281Y003748D01*
X002285Y003700D01*
X002285Y003652D01*
X002281Y003604D01*
X002273Y003556D01*
X002261Y003509D01*
X002246Y003464D01*
X002226Y003420D01*
X002204Y003377D01*
X002178Y003336D01*
X002148Y003298D01*
X002116Y003262D01*
X002081Y003229D01*
X002043Y003199D01*
X002003Y003172D01*
X001961Y003149D01*
X001917Y003129D01*
X001872Y003112D01*
X001826Y003100D01*
X001778Y003091D01*
X001730Y003086D01*
X001682Y003085D01*
X001634Y003088D01*
X001586Y003095D01*
X001539Y003106D01*
X001493Y003120D01*
X001448Y003138D01*
X001405Y003160D01*
X001364Y003185D01*
X001326Y003214D01*
X001289Y003246D01*
X001255Y003280D01*
X001225Y003317D01*
X001197Y003356D01*
X001172Y003398D01*
X001152Y003442D01*
X001134Y003487D01*
X001121Y003533D01*
X001111Y003580D01*
X001105Y003628D01*
X001103Y003676D01*
X001143Y021532D02*
X001145Y021579D01*
X001151Y021625D01*
X001161Y021671D01*
X001174Y021716D01*
X001192Y021759D01*
X001213Y021801D01*
X001237Y021841D01*
X001265Y021878D01*
X001296Y021913D01*
X001330Y021946D01*
X001366Y021975D01*
X001405Y022001D01*
X001446Y022024D01*
X001489Y022043D01*
X001533Y022059D01*
X001578Y022071D01*
X001624Y022079D01*
X001671Y022083D01*
X001717Y022083D01*
X001764Y022079D01*
X001810Y022071D01*
X001855Y022059D01*
X001899Y022043D01*
X001942Y022024D01*
X001983Y022001D01*
X002022Y021975D01*
X002058Y021946D01*
X002092Y021913D01*
X002123Y021878D01*
X002151Y021841D01*
X002175Y021801D01*
X002196Y021759D01*
X002214Y021716D01*
X002227Y021671D01*
X002237Y021625D01*
X002243Y021579D01*
X002245Y021532D01*
X002243Y021485D01*
X002237Y021439D01*
X002227Y021393D01*
X002214Y021348D01*
X002196Y021305D01*
X002175Y021263D01*
X002151Y021223D01*
X002123Y021186D01*
X002092Y021151D01*
X002058Y021118D01*
X002022Y021089D01*
X001983Y021063D01*
X001942Y021040D01*
X001899Y021021D01*
X001855Y021005D01*
X001810Y020993D01*
X001764Y020985D01*
X001717Y020981D01*
X001671Y020981D01*
X001624Y020985D01*
X001578Y020993D01*
X001533Y021005D01*
X001489Y021021D01*
X001446Y021040D01*
X001405Y021063D01*
X001366Y021089D01*
X001330Y021118D01*
X001296Y021151D01*
X001265Y021186D01*
X001237Y021223D01*
X001213Y021263D01*
X001192Y021305D01*
X001174Y021348D01*
X001161Y021393D01*
X001151Y021439D01*
X001145Y021485D01*
X001143Y021532D01*
X018749Y012282D02*
X018751Y012329D01*
X018757Y012375D01*
X018767Y012421D01*
X018780Y012466D01*
X018798Y012509D01*
X018819Y012551D01*
X018843Y012591D01*
X018871Y012628D01*
X018902Y012663D01*
X018936Y012696D01*
X018972Y012725D01*
X019011Y012751D01*
X019052Y012774D01*
X019095Y012793D01*
X019139Y012809D01*
X019184Y012821D01*
X019230Y012829D01*
X019277Y012833D01*
X019323Y012833D01*
X019370Y012829D01*
X019416Y012821D01*
X019461Y012809D01*
X019505Y012793D01*
X019548Y012774D01*
X019589Y012751D01*
X019628Y012725D01*
X019664Y012696D01*
X019698Y012663D01*
X019729Y012628D01*
X019757Y012591D01*
X019781Y012551D01*
X019802Y012509D01*
X019820Y012466D01*
X019833Y012421D01*
X019843Y012375D01*
X019849Y012329D01*
X019851Y012282D01*
X019849Y012235D01*
X019843Y012189D01*
X019833Y012143D01*
X019820Y012098D01*
X019802Y012055D01*
X019781Y012013D01*
X019757Y011973D01*
X019729Y011936D01*
X019698Y011901D01*
X019664Y011868D01*
X019628Y011839D01*
X019589Y011813D01*
X019548Y011790D01*
X019505Y011771D01*
X019461Y011755D01*
X019416Y011743D01*
X019370Y011735D01*
X019323Y011731D01*
X019277Y011731D01*
X019230Y011735D01*
X019184Y011743D01*
X019139Y011755D01*
X019095Y011771D01*
X019052Y011790D01*
X019011Y011813D01*
X018972Y011839D01*
X018936Y011868D01*
X018902Y011901D01*
X018871Y011936D01*
X018843Y011973D01*
X018819Y012013D01*
X018798Y012055D01*
X018780Y012098D01*
X018767Y012143D01*
X018757Y012189D01*
X018751Y012235D01*
X018749Y012282D01*
X018853Y019176D02*
X018855Y019224D01*
X018861Y019272D01*
X018871Y019319D01*
X018884Y019365D01*
X018902Y019410D01*
X018922Y019454D01*
X018947Y019496D01*
X018975Y019535D01*
X019005Y019572D01*
X019039Y019606D01*
X019076Y019638D01*
X019114Y019667D01*
X019155Y019692D01*
X019198Y019714D01*
X019243Y019732D01*
X019289Y019746D01*
X019336Y019757D01*
X019384Y019764D01*
X019432Y019767D01*
X019480Y019766D01*
X019528Y019761D01*
X019576Y019752D01*
X019622Y019740D01*
X019667Y019723D01*
X019711Y019703D01*
X019753Y019680D01*
X019793Y019653D01*
X019831Y019623D01*
X019866Y019590D01*
X019898Y019554D01*
X019928Y019516D01*
X019954Y019475D01*
X019976Y019432D01*
X019996Y019388D01*
X020011Y019343D01*
X020023Y019296D01*
X020031Y019248D01*
X020035Y019200D01*
X020035Y019152D01*
X020031Y019104D01*
X020023Y019056D01*
X020011Y019009D01*
X019996Y018964D01*
X019976Y018920D01*
X019954Y018877D01*
X019928Y018836D01*
X019898Y018798D01*
X019866Y018762D01*
X019831Y018729D01*
X019793Y018699D01*
X019753Y018672D01*
X019711Y018649D01*
X019667Y018629D01*
X019622Y018612D01*
X019576Y018600D01*
X019528Y018591D01*
X019480Y018586D01*
X019432Y018585D01*
X019384Y018588D01*
X019336Y018595D01*
X019289Y018606D01*
X019243Y018620D01*
X019198Y018638D01*
X019155Y018660D01*
X019114Y018685D01*
X019076Y018714D01*
X019039Y018746D01*
X019005Y018780D01*
X018975Y018817D01*
X018947Y018856D01*
X018922Y018898D01*
X018902Y018942D01*
X018884Y018987D01*
X018871Y019033D01*
X018861Y019080D01*
X018855Y019128D01*
X018853Y019176D01*
M02*
