G75*
G70*
%OFA0B0*%
%FSLAX24Y24*%
%IPPOS*%
%LPD*%
%AMOC8*
5,1,8,0,0,1.08239X$1,22.5*
%
%ADD10C,0.0000*%
%ADD11C,0.0600*%
%ADD12OC8,0.0520*%
%ADD13C,0.0594*%
%ADD14C,0.0594*%
%ADD15C,0.0600*%
%ADD16C,0.0740*%
%ADD17OC8,0.0740*%
%ADD18C,0.0787*%
%ADD19C,0.0100*%
%ADD20C,0.0080*%
%ADD21C,0.0240*%
D10*
X001252Y000402D02*
X001252Y020087D01*
X020744Y020087D01*
X020744Y000402D01*
X001252Y000402D01*
X001751Y001296D02*
X001753Y001335D01*
X001759Y001374D01*
X001769Y001412D01*
X001782Y001449D01*
X001799Y001484D01*
X001819Y001518D01*
X001843Y001549D01*
X001870Y001578D01*
X001899Y001604D01*
X001931Y001627D01*
X001965Y001647D01*
X002001Y001663D01*
X002038Y001675D01*
X002077Y001684D01*
X002116Y001689D01*
X002155Y001690D01*
X002194Y001687D01*
X002233Y001680D01*
X002270Y001669D01*
X002307Y001655D01*
X002342Y001637D01*
X002375Y001616D01*
X002406Y001591D01*
X002434Y001564D01*
X002459Y001534D01*
X002481Y001501D01*
X002500Y001467D01*
X002515Y001431D01*
X002527Y001393D01*
X002535Y001355D01*
X002539Y001316D01*
X002539Y001276D01*
X002535Y001237D01*
X002527Y001199D01*
X002515Y001161D01*
X002500Y001125D01*
X002481Y001091D01*
X002459Y001058D01*
X002434Y001028D01*
X002406Y001001D01*
X002375Y000976D01*
X002342Y000955D01*
X002307Y000937D01*
X002270Y000923D01*
X002233Y000912D01*
X002194Y000905D01*
X002155Y000902D01*
X002116Y000903D01*
X002077Y000908D01*
X002038Y000917D01*
X002001Y000929D01*
X001965Y000945D01*
X001931Y000965D01*
X001899Y000988D01*
X001870Y001014D01*
X001843Y001043D01*
X001819Y001074D01*
X001799Y001108D01*
X001782Y001143D01*
X001769Y001180D01*
X001759Y001218D01*
X001753Y001257D01*
X001751Y001296D01*
X019201Y001402D02*
X019203Y001449D01*
X019209Y001495D01*
X019219Y001541D01*
X019232Y001586D01*
X019250Y001629D01*
X019271Y001671D01*
X019295Y001711D01*
X019323Y001748D01*
X019354Y001783D01*
X019388Y001816D01*
X019424Y001845D01*
X019463Y001871D01*
X019504Y001894D01*
X019547Y001913D01*
X019591Y001929D01*
X019636Y001941D01*
X019682Y001949D01*
X019729Y001953D01*
X019775Y001953D01*
X019822Y001949D01*
X019868Y001941D01*
X019913Y001929D01*
X019957Y001913D01*
X020000Y001894D01*
X020041Y001871D01*
X020080Y001845D01*
X020116Y001816D01*
X020150Y001783D01*
X020181Y001748D01*
X020209Y001711D01*
X020233Y001671D01*
X020254Y001629D01*
X020272Y001586D01*
X020285Y001541D01*
X020295Y001495D01*
X020301Y001449D01*
X020303Y001402D01*
X020301Y001355D01*
X020295Y001309D01*
X020285Y001263D01*
X020272Y001218D01*
X020254Y001175D01*
X020233Y001133D01*
X020209Y001093D01*
X020181Y001056D01*
X020150Y001021D01*
X020116Y000988D01*
X020080Y000959D01*
X020041Y000933D01*
X020000Y000910D01*
X019957Y000891D01*
X019913Y000875D01*
X019868Y000863D01*
X019822Y000855D01*
X019775Y000851D01*
X019729Y000851D01*
X019682Y000855D01*
X019636Y000863D01*
X019591Y000875D01*
X019547Y000891D01*
X019504Y000910D01*
X019463Y000933D01*
X019424Y000959D01*
X019388Y000988D01*
X019354Y001021D01*
X019323Y001056D01*
X019295Y001093D01*
X019271Y001133D01*
X019250Y001175D01*
X019232Y001218D01*
X019219Y001263D01*
X019209Y001309D01*
X019203Y001355D01*
X019201Y001402D01*
X001594Y018902D02*
X001596Y018949D01*
X001602Y018995D01*
X001612Y019041D01*
X001625Y019086D01*
X001643Y019129D01*
X001664Y019171D01*
X001688Y019211D01*
X001716Y019248D01*
X001747Y019283D01*
X001781Y019316D01*
X001817Y019345D01*
X001856Y019371D01*
X001897Y019394D01*
X001940Y019413D01*
X001984Y019429D01*
X002029Y019441D01*
X002075Y019449D01*
X002122Y019453D01*
X002168Y019453D01*
X002215Y019449D01*
X002261Y019441D01*
X002306Y019429D01*
X002350Y019413D01*
X002393Y019394D01*
X002434Y019371D01*
X002473Y019345D01*
X002509Y019316D01*
X002543Y019283D01*
X002574Y019248D01*
X002602Y019211D01*
X002626Y019171D01*
X002647Y019129D01*
X002665Y019086D01*
X002678Y019041D01*
X002688Y018995D01*
X002694Y018949D01*
X002696Y018902D01*
X002694Y018855D01*
X002688Y018809D01*
X002678Y018763D01*
X002665Y018718D01*
X002647Y018675D01*
X002626Y018633D01*
X002602Y018593D01*
X002574Y018556D01*
X002543Y018521D01*
X002509Y018488D01*
X002473Y018459D01*
X002434Y018433D01*
X002393Y018410D01*
X002350Y018391D01*
X002306Y018375D01*
X002261Y018363D01*
X002215Y018355D01*
X002168Y018351D01*
X002122Y018351D01*
X002075Y018355D01*
X002029Y018363D01*
X001984Y018375D01*
X001940Y018391D01*
X001897Y018410D01*
X001856Y018433D01*
X001817Y018459D01*
X001781Y018488D01*
X001747Y018521D01*
X001716Y018556D01*
X001688Y018593D01*
X001664Y018633D01*
X001643Y018675D01*
X001625Y018718D01*
X001612Y018763D01*
X001602Y018809D01*
X001596Y018855D01*
X001594Y018902D01*
X019751Y019296D02*
X019753Y019335D01*
X019759Y019374D01*
X019769Y019412D01*
X019782Y019449D01*
X019799Y019484D01*
X019819Y019518D01*
X019843Y019549D01*
X019870Y019578D01*
X019899Y019604D01*
X019931Y019627D01*
X019965Y019647D01*
X020001Y019663D01*
X020038Y019675D01*
X020077Y019684D01*
X020116Y019689D01*
X020155Y019690D01*
X020194Y019687D01*
X020233Y019680D01*
X020270Y019669D01*
X020307Y019655D01*
X020342Y019637D01*
X020375Y019616D01*
X020406Y019591D01*
X020434Y019564D01*
X020459Y019534D01*
X020481Y019501D01*
X020500Y019467D01*
X020515Y019431D01*
X020527Y019393D01*
X020535Y019355D01*
X020539Y019316D01*
X020539Y019276D01*
X020535Y019237D01*
X020527Y019199D01*
X020515Y019161D01*
X020500Y019125D01*
X020481Y019091D01*
X020459Y019058D01*
X020434Y019028D01*
X020406Y019001D01*
X020375Y018976D01*
X020342Y018955D01*
X020307Y018937D01*
X020270Y018923D01*
X020233Y018912D01*
X020194Y018905D01*
X020155Y018902D01*
X020116Y018903D01*
X020077Y018908D01*
X020038Y018917D01*
X020001Y018929D01*
X019965Y018945D01*
X019931Y018965D01*
X019899Y018988D01*
X019870Y019014D01*
X019843Y019043D01*
X019819Y019074D01*
X019799Y019108D01*
X019782Y019143D01*
X019769Y019180D01*
X019759Y019218D01*
X019753Y019257D01*
X019751Y019296D01*
D11*
X010252Y012402D03*
X010252Y011402D03*
X010252Y010402D03*
X010252Y009402D03*
X010252Y008402D03*
X010252Y007402D03*
X010252Y006402D03*
X010252Y005402D03*
X010252Y004402D03*
X010252Y003402D03*
X010252Y002402D03*
X010252Y001402D03*
X004252Y001402D03*
X004252Y002402D03*
X004252Y003402D03*
X004252Y004402D03*
X004252Y005402D03*
X004252Y006402D03*
X004252Y007402D03*
X004252Y008402D03*
X004252Y009402D03*
X004252Y010402D03*
X004252Y011402D03*
X004252Y012402D03*
X004752Y013402D03*
X005752Y013402D03*
X006752Y013402D03*
X007752Y013402D03*
X008752Y013402D03*
X009752Y013402D03*
X009252Y008902D03*
X009252Y007902D03*
X002252Y007402D03*
X002252Y008402D03*
X002252Y009402D03*
X002252Y010402D03*
X002252Y011402D03*
X002252Y012402D03*
X002252Y013402D03*
X002252Y014402D03*
X002252Y015402D03*
X002252Y016402D03*
X002252Y017402D03*
X002252Y006402D03*
X002252Y005402D03*
X002252Y004402D03*
X002252Y003402D03*
X002252Y002402D03*
D12*
X005752Y002902D03*
X006752Y002902D03*
X007752Y002902D03*
X008752Y002902D03*
X011252Y000902D03*
X013252Y000902D03*
X013252Y004902D03*
X011252Y004902D03*
X008752Y006902D03*
X007752Y006902D03*
X006752Y006902D03*
X005752Y006902D03*
X011752Y008902D03*
X012752Y009402D03*
X013752Y009402D03*
X011752Y012902D03*
X012752Y013402D03*
X013752Y013402D03*
X004252Y014902D03*
X003752Y014152D03*
X003252Y014902D03*
D13*
X011752Y014402D03*
X011752Y015402D03*
X011752Y016402D03*
D14*
X011752Y018605D02*
X011752Y019199D01*
X012752Y019199D02*
X012752Y018605D01*
X013752Y018605D02*
X013752Y019199D01*
X015752Y019199D02*
X015752Y018605D01*
X016752Y018605D02*
X016752Y019199D01*
X017752Y019199D02*
X017752Y018605D01*
X018752Y018605D02*
X018752Y019199D01*
X019455Y012902D02*
X020048Y012902D01*
X020048Y011902D02*
X019455Y011902D01*
X019455Y010902D02*
X020048Y010902D01*
X020048Y009902D02*
X019455Y009902D01*
X019705Y004152D02*
X020298Y004152D01*
X020298Y003152D02*
X019705Y003152D01*
X009752Y018605D02*
X009752Y019199D01*
X008752Y019199D02*
X008752Y018605D01*
X007752Y018605D02*
X007752Y019199D01*
X005752Y019199D02*
X005752Y018605D01*
X004752Y018605D02*
X004752Y019199D01*
X003752Y019199D02*
X003752Y018605D01*
D15*
X014672Y011292D02*
X015272Y011292D01*
X015272Y009512D02*
X014672Y009512D01*
X014142Y008482D02*
X014142Y007882D01*
X015362Y007882D02*
X015362Y008482D01*
X017142Y008482D02*
X017142Y007882D01*
X018362Y007882D02*
X018362Y008482D01*
X017832Y009512D02*
X017232Y009512D01*
X017232Y011292D02*
X017832Y011292D01*
X020142Y008482D02*
X020142Y007882D01*
X020142Y005922D02*
X020142Y005322D01*
X018362Y005322D02*
X018362Y005922D01*
X017142Y005922D02*
X017142Y005322D01*
X017232Y004292D02*
X017832Y004292D01*
X017832Y002512D02*
X017232Y002512D01*
X015272Y002512D02*
X014672Y002512D01*
X014672Y004292D02*
X015272Y004292D01*
X015362Y005322D02*
X015362Y005922D01*
X014142Y005922D02*
X014142Y005322D01*
X012362Y005322D02*
X012362Y005922D01*
X012362Y007882D02*
X012362Y008482D01*
D16*
X009252Y001402D03*
X008252Y001402D03*
X007252Y001402D03*
D17*
X007252Y015902D03*
X006252Y015902D03*
X005252Y015902D03*
X005252Y016902D03*
X006252Y016902D03*
X007252Y016902D03*
X008252Y016902D03*
X009252Y016902D03*
X009252Y015902D03*
X008252Y015902D03*
D18*
X016819Y014811D02*
X016819Y014024D01*
X019299Y014024D02*
X019299Y014811D01*
X018393Y016386D02*
X017606Y016386D01*
D19*
X017992Y016392D02*
X017992Y016662D01*
X015752Y018902D01*
X015712Y018872D01*
X015032Y018192D01*
X012462Y018192D01*
X011752Y018902D01*
X011252Y016902D02*
X009252Y016902D01*
X011252Y016902D02*
X011752Y016402D01*
X007752Y018902D02*
X007042Y018192D01*
X004462Y018192D01*
X003752Y018902D01*
X010252Y011402D02*
X010332Y011322D01*
X014932Y011322D01*
X014972Y011292D01*
X017532Y011292D01*
X017572Y011322D01*
X017742Y011492D01*
X020222Y011492D01*
X020462Y011732D01*
X020462Y012902D01*
X019752Y012902D01*
X018000Y016386D02*
X017992Y016392D01*
X020142Y005622D02*
X018812Y004292D01*
X017532Y004292D01*
D20*
X018762Y002912D02*
X009762Y002912D01*
X008252Y001402D01*
X007722Y000932D02*
X007252Y001402D01*
X007722Y000932D02*
X010352Y000932D01*
X010682Y001262D01*
X018112Y001262D01*
X020002Y003152D01*
X020002Y004152D02*
X018762Y002912D01*
X015362Y005622D02*
X015362Y008182D01*
X014662Y008882D01*
X013272Y008882D01*
X012752Y009402D01*
X012782Y008752D02*
X012782Y006402D01*
X010252Y006402D01*
X010252Y005402D02*
X010752Y005402D01*
X011252Y004902D01*
X010252Y004402D02*
X008112Y006542D01*
X007482Y006542D01*
X007192Y006462D02*
X006682Y006462D01*
X006752Y006902D02*
X007597Y007747D01*
X005962Y009382D01*
X006062Y009802D02*
X004682Y008422D01*
X004652Y008402D01*
X004252Y008402D01*
X004652Y008402D02*
X004652Y007002D01*
X008752Y002902D01*
X008902Y002542D02*
X008122Y002542D01*
X007782Y002882D01*
X007752Y002902D01*
X006252Y001402D01*
X004252Y001402D01*
X004252Y002402D02*
X005252Y002402D01*
X005752Y002902D01*
X005602Y003262D02*
X006392Y003262D01*
X006752Y002902D01*
X005602Y003262D02*
X005342Y003002D01*
X002652Y003002D01*
X002252Y003402D01*
X003252Y003402D02*
X002252Y004402D01*
X003252Y004402D02*
X002252Y005402D01*
X003252Y005402D02*
X002252Y006402D01*
X003252Y006402D02*
X002252Y007402D01*
X001852Y007572D02*
X002082Y007802D01*
X002652Y007802D01*
X002652Y011372D01*
X004082Y012802D01*
X004252Y012802D01*
X004252Y014902D01*
X005462Y015262D02*
X002892Y015262D01*
X002892Y015042D01*
X002252Y014402D01*
X002252Y015402D02*
X011752Y015402D01*
X012362Y015902D02*
X009252Y015902D01*
X009902Y016372D02*
X007722Y016372D01*
X007252Y015902D01*
X005462Y015262D02*
X007352Y013372D01*
X007352Y011832D01*
X010062Y011832D01*
X010082Y011802D01*
X009852Y011572D01*
X009852Y010802D01*
X010422Y010802D01*
X010652Y010572D01*
X010652Y008902D01*
X009252Y008902D01*
X010252Y008402D02*
X008252Y008402D01*
X007597Y007747D01*
X007192Y006462D02*
X010252Y003402D01*
X009332Y002972D02*
X008902Y002542D01*
X013252Y004902D02*
X013272Y004922D01*
X014662Y004922D01*
X015362Y005622D01*
X013752Y009402D02*
X013862Y009512D01*
X014972Y009512D01*
X017532Y009512D01*
X018762Y009912D02*
X012252Y009912D01*
X010652Y008312D01*
X010652Y007902D01*
X009252Y007902D01*
X010222Y009802D02*
X006062Y009802D01*
X007352Y010402D02*
X007352Y010432D01*
X007352Y010402D02*
X004252Y010402D01*
X004252Y011402D02*
X005852Y013002D01*
X006352Y013002D01*
X006752Y013402D01*
X005752Y013402D02*
X005352Y013002D01*
X004852Y013002D01*
X004252Y012402D01*
X007352Y010402D02*
X010252Y010402D01*
X010302Y009882D02*
X010222Y009802D01*
X010082Y011802D02*
X019652Y011802D01*
X019752Y011902D01*
X019752Y010902D02*
X018762Y009912D01*
X015892Y012022D02*
X014142Y012022D01*
X012782Y013382D01*
X012752Y013402D01*
X012252Y013402D01*
X011752Y012902D01*
X011152Y013802D02*
X008152Y013802D01*
X007752Y013402D01*
X010152Y016122D02*
X009902Y016372D01*
X011752Y014402D02*
X011782Y014412D01*
X013512Y014412D01*
X013512Y014442D01*
X013512Y014412D02*
X016812Y014412D01*
X016819Y014418D01*
X012372Y015892D02*
X012362Y015902D01*
X011752Y014402D02*
X011152Y013802D01*
X009752Y018902D02*
X009782Y018922D01*
X010462Y019602D01*
X013052Y019602D01*
X013752Y018902D01*
X009752Y018902D02*
X009052Y019602D01*
X006452Y019602D01*
X005752Y018902D01*
X005722Y018922D01*
X005042Y019602D01*
X003352Y019602D01*
X003352Y017502D01*
X002252Y016402D01*
X001852Y007572D02*
X001852Y002402D01*
X002252Y002402D01*
X003252Y003402D02*
X004252Y003402D01*
X004252Y004402D02*
X003252Y004402D01*
X003252Y005402D02*
X004252Y005402D01*
X004252Y006402D02*
X003252Y006402D01*
D21*
X005962Y009382D03*
X007352Y010432D03*
X010302Y009882D03*
X012782Y008752D03*
X015892Y012022D03*
X013512Y014442D03*
X012372Y015892D03*
X010152Y016122D03*
X007482Y006542D03*
X006682Y006462D03*
X009332Y002972D03*
M02*
