G75*
G70*
%OFA0B0*%
%FSLAX24Y24*%
%IPPOS*%
%LPD*%
%AMOC8*
5,1,8,0,0,1.08239X$1,22.5*
%
%ADD10C,0.0000*%
%ADD11C,0.0600*%
%ADD12OC8,0.0520*%
%ADD13C,0.0594*%
%ADD14C,0.0594*%
%ADD15C,0.0600*%
%ADD16C,0.0740*%
%ADD17OC8,0.0740*%
%ADD18C,0.1660*%
%ADD19C,0.1620*%
%ADD20R,0.0790X0.0590*%
%ADD21R,0.0790X0.1500*%
%ADD22C,0.0100*%
%ADD23C,0.0080*%
%ADD24C,0.0240*%
D10*
X001252Y001133D02*
X001252Y020818D01*
X020744Y020818D01*
X020744Y001133D01*
X001252Y001133D01*
X001804Y002027D02*
X001806Y002075D01*
X001812Y002123D01*
X001822Y002170D01*
X001835Y002216D01*
X001853Y002261D01*
X001873Y002305D01*
X001898Y002347D01*
X001926Y002386D01*
X001956Y002423D01*
X001990Y002457D01*
X002027Y002489D01*
X002065Y002518D01*
X002106Y002543D01*
X002149Y002565D01*
X002194Y002583D01*
X002240Y002597D01*
X002287Y002608D01*
X002335Y002615D01*
X002383Y002618D01*
X002431Y002617D01*
X002479Y002612D01*
X002527Y002603D01*
X002573Y002591D01*
X002618Y002574D01*
X002662Y002554D01*
X002704Y002531D01*
X002744Y002504D01*
X002782Y002474D01*
X002817Y002441D01*
X002849Y002405D01*
X002879Y002367D01*
X002905Y002326D01*
X002927Y002283D01*
X002947Y002239D01*
X002962Y002194D01*
X002974Y002147D01*
X002982Y002099D01*
X002986Y002051D01*
X002986Y002003D01*
X002982Y001955D01*
X002974Y001907D01*
X002962Y001860D01*
X002947Y001815D01*
X002927Y001771D01*
X002905Y001728D01*
X002879Y001687D01*
X002849Y001649D01*
X002817Y001613D01*
X002782Y001580D01*
X002744Y001550D01*
X002704Y001523D01*
X002662Y001500D01*
X002618Y001480D01*
X002573Y001463D01*
X002527Y001451D01*
X002479Y001442D01*
X002431Y001437D01*
X002383Y001436D01*
X002335Y001439D01*
X002287Y001446D01*
X002240Y001457D01*
X002194Y001471D01*
X002149Y001489D01*
X002106Y001511D01*
X002065Y001536D01*
X002027Y001565D01*
X001990Y001597D01*
X001956Y001631D01*
X001926Y001668D01*
X001898Y001707D01*
X001873Y001749D01*
X001853Y001793D01*
X001835Y001838D01*
X001822Y001884D01*
X001812Y001931D01*
X001806Y001979D01*
X001804Y002027D01*
X019201Y010633D02*
X019203Y010680D01*
X019209Y010726D01*
X019219Y010772D01*
X019232Y010817D01*
X019250Y010860D01*
X019271Y010902D01*
X019295Y010942D01*
X019323Y010979D01*
X019354Y011014D01*
X019388Y011047D01*
X019424Y011076D01*
X019463Y011102D01*
X019504Y011125D01*
X019547Y011144D01*
X019591Y011160D01*
X019636Y011172D01*
X019682Y011180D01*
X019729Y011184D01*
X019775Y011184D01*
X019822Y011180D01*
X019868Y011172D01*
X019913Y011160D01*
X019957Y011144D01*
X020000Y011125D01*
X020041Y011102D01*
X020080Y011076D01*
X020116Y011047D01*
X020150Y011014D01*
X020181Y010979D01*
X020209Y010942D01*
X020233Y010902D01*
X020254Y010860D01*
X020272Y010817D01*
X020285Y010772D01*
X020295Y010726D01*
X020301Y010680D01*
X020303Y010633D01*
X020301Y010586D01*
X020295Y010540D01*
X020285Y010494D01*
X020272Y010449D01*
X020254Y010406D01*
X020233Y010364D01*
X020209Y010324D01*
X020181Y010287D01*
X020150Y010252D01*
X020116Y010219D01*
X020080Y010190D01*
X020041Y010164D01*
X020000Y010141D01*
X019957Y010122D01*
X019913Y010106D01*
X019868Y010094D01*
X019822Y010086D01*
X019775Y010082D01*
X019729Y010082D01*
X019682Y010086D01*
X019636Y010094D01*
X019591Y010106D01*
X019547Y010122D01*
X019504Y010141D01*
X019463Y010164D01*
X019424Y010190D01*
X019388Y010219D01*
X019354Y010252D01*
X019323Y010287D01*
X019295Y010324D01*
X019271Y010364D01*
X019250Y010406D01*
X019232Y010449D01*
X019219Y010494D01*
X019209Y010540D01*
X019203Y010586D01*
X019201Y010633D01*
X019304Y017527D02*
X019306Y017575D01*
X019312Y017623D01*
X019322Y017670D01*
X019335Y017716D01*
X019353Y017761D01*
X019373Y017805D01*
X019398Y017847D01*
X019426Y017886D01*
X019456Y017923D01*
X019490Y017957D01*
X019527Y017989D01*
X019565Y018018D01*
X019606Y018043D01*
X019649Y018065D01*
X019694Y018083D01*
X019740Y018097D01*
X019787Y018108D01*
X019835Y018115D01*
X019883Y018118D01*
X019931Y018117D01*
X019979Y018112D01*
X020027Y018103D01*
X020073Y018091D01*
X020118Y018074D01*
X020162Y018054D01*
X020204Y018031D01*
X020244Y018004D01*
X020282Y017974D01*
X020317Y017941D01*
X020349Y017905D01*
X020379Y017867D01*
X020405Y017826D01*
X020427Y017783D01*
X020447Y017739D01*
X020462Y017694D01*
X020474Y017647D01*
X020482Y017599D01*
X020486Y017551D01*
X020486Y017503D01*
X020482Y017455D01*
X020474Y017407D01*
X020462Y017360D01*
X020447Y017315D01*
X020427Y017271D01*
X020405Y017228D01*
X020379Y017187D01*
X020349Y017149D01*
X020317Y017113D01*
X020282Y017080D01*
X020244Y017050D01*
X020204Y017023D01*
X020162Y017000D01*
X020118Y016980D01*
X020073Y016963D01*
X020027Y016951D01*
X019979Y016942D01*
X019931Y016937D01*
X019883Y016936D01*
X019835Y016939D01*
X019787Y016946D01*
X019740Y016957D01*
X019694Y016971D01*
X019649Y016989D01*
X019606Y017011D01*
X019565Y017036D01*
X019527Y017065D01*
X019490Y017097D01*
X019456Y017131D01*
X019426Y017168D01*
X019398Y017207D01*
X019373Y017249D01*
X019353Y017293D01*
X019335Y017338D01*
X019322Y017384D01*
X019312Y017431D01*
X019306Y017479D01*
X019304Y017527D01*
X001594Y019883D02*
X001596Y019930D01*
X001602Y019976D01*
X001612Y020022D01*
X001625Y020067D01*
X001643Y020110D01*
X001664Y020152D01*
X001688Y020192D01*
X001716Y020229D01*
X001747Y020264D01*
X001781Y020297D01*
X001817Y020326D01*
X001856Y020352D01*
X001897Y020375D01*
X001940Y020394D01*
X001984Y020410D01*
X002029Y020422D01*
X002075Y020430D01*
X002122Y020434D01*
X002168Y020434D01*
X002215Y020430D01*
X002261Y020422D01*
X002306Y020410D01*
X002350Y020394D01*
X002393Y020375D01*
X002434Y020352D01*
X002473Y020326D01*
X002509Y020297D01*
X002543Y020264D01*
X002574Y020229D01*
X002602Y020192D01*
X002626Y020152D01*
X002647Y020110D01*
X002665Y020067D01*
X002678Y020022D01*
X002688Y019976D01*
X002694Y019930D01*
X002696Y019883D01*
X002694Y019836D01*
X002688Y019790D01*
X002678Y019744D01*
X002665Y019699D01*
X002647Y019656D01*
X002626Y019614D01*
X002602Y019574D01*
X002574Y019537D01*
X002543Y019502D01*
X002509Y019469D01*
X002473Y019440D01*
X002434Y019414D01*
X002393Y019391D01*
X002350Y019372D01*
X002306Y019356D01*
X002261Y019344D01*
X002215Y019336D01*
X002168Y019332D01*
X002122Y019332D01*
X002075Y019336D01*
X002029Y019344D01*
X001984Y019356D01*
X001940Y019372D01*
X001897Y019391D01*
X001856Y019414D01*
X001817Y019440D01*
X001781Y019469D01*
X001747Y019502D01*
X001716Y019537D01*
X001688Y019574D01*
X001664Y019614D01*
X001643Y019656D01*
X001625Y019699D01*
X001612Y019744D01*
X001602Y019790D01*
X001596Y019836D01*
X001594Y019883D01*
D11*
X002252Y018383D03*
X002252Y017383D03*
X002252Y016383D03*
X002252Y015383D03*
X002252Y014383D03*
X002252Y013383D03*
X002252Y012383D03*
X002252Y011383D03*
X002252Y010383D03*
X002252Y009383D03*
X002252Y008383D03*
X002252Y007383D03*
X002252Y006383D03*
X002252Y005383D03*
X002252Y004383D03*
X002252Y003383D03*
X004252Y003133D03*
X004252Y004133D03*
X004252Y005133D03*
X004252Y006133D03*
X004252Y007133D03*
X004252Y008133D03*
X004252Y009133D03*
X004252Y010133D03*
X004252Y011133D03*
X004252Y012133D03*
X004252Y013133D03*
X004752Y014133D03*
X005752Y014133D03*
X006752Y014133D03*
X007752Y014133D03*
X008752Y014133D03*
X009752Y014133D03*
X010252Y013133D03*
X010252Y012133D03*
X010252Y011133D03*
X010252Y010133D03*
X010252Y009133D03*
X010252Y008133D03*
X010252Y007133D03*
X010252Y006133D03*
X010252Y005133D03*
X010252Y004133D03*
X010252Y003133D03*
X010252Y002133D03*
X014252Y001883D03*
X015252Y001883D03*
X009252Y008633D03*
X009252Y009633D03*
X004252Y002133D03*
D12*
X005752Y003633D03*
X006752Y003633D03*
X007752Y003633D03*
X008752Y003633D03*
X008752Y007633D03*
X007752Y007633D03*
X006752Y007633D03*
X005752Y007633D03*
X011752Y010633D03*
X013752Y011633D03*
X011752Y014633D03*
X012002Y015383D03*
X012002Y016383D03*
X012002Y017383D03*
X008002Y017383D03*
X008002Y016383D03*
X008002Y015383D03*
X004252Y015633D03*
X003752Y014883D03*
X003252Y015633D03*
X013752Y007633D03*
D13*
X006252Y016883D03*
X005252Y016883D03*
X004252Y016883D03*
D14*
X004752Y019336D02*
X004752Y019930D01*
X003752Y019930D02*
X003752Y019336D01*
X005752Y019336D02*
X005752Y019930D01*
X007752Y019930D02*
X007752Y019336D01*
X008752Y019336D02*
X008752Y019930D01*
X009752Y019930D02*
X009752Y019336D01*
X011752Y019336D02*
X011752Y019930D01*
X012752Y019930D02*
X012752Y019336D01*
X013752Y019336D02*
X013752Y019930D01*
X015752Y019930D02*
X015752Y019336D01*
X016752Y019336D02*
X016752Y019930D01*
X017752Y019930D02*
X017752Y019336D01*
X018752Y019336D02*
X018752Y019930D01*
X019455Y008633D02*
X020048Y008633D01*
X020048Y007633D02*
X019455Y007633D01*
X019455Y006633D02*
X020048Y006633D01*
X020048Y005633D02*
X019455Y005633D01*
X013002Y002430D02*
X013002Y001836D01*
X012002Y001836D02*
X012002Y002430D01*
D15*
X014922Y009243D02*
X015522Y009243D01*
X015522Y011023D02*
X014922Y011023D01*
X014642Y011803D02*
X014642Y012403D01*
X015612Y012403D02*
X015612Y011803D01*
X017392Y011803D02*
X017392Y012403D01*
X018362Y012403D02*
X018362Y011803D01*
X018082Y011023D02*
X017482Y011023D01*
X017482Y009243D02*
X018082Y009243D01*
X020142Y011803D02*
X020142Y012403D01*
X020142Y014363D02*
X020142Y014963D01*
X018362Y014963D02*
X018362Y014363D01*
X017392Y014363D02*
X017392Y014963D01*
X017482Y015743D02*
X018082Y015743D01*
X018082Y017523D02*
X017482Y017523D01*
X015522Y017523D02*
X014922Y017523D01*
X014922Y015743D02*
X015522Y015743D01*
X015612Y014963D02*
X015612Y014363D01*
X014642Y014363D02*
X014642Y014963D01*
X012862Y014963D02*
X012862Y014363D01*
X012862Y012403D02*
X012862Y011803D01*
D16*
X009252Y002133D03*
X008252Y002133D03*
X007252Y002133D03*
D17*
X011502Y005383D03*
X012502Y005383D03*
X012502Y006383D03*
X012502Y007383D03*
X011502Y007383D03*
X011502Y006383D03*
X011502Y008383D03*
X012502Y008383D03*
X012502Y009383D03*
X011502Y009383D03*
D18*
X016538Y002883D03*
D19*
X017789Y004364D03*
X019420Y002893D03*
D20*
X015012Y005973D03*
X015012Y006873D03*
X015012Y007773D03*
D21*
X017492Y006883D03*
D22*
X019752Y005633D02*
X020462Y006343D01*
X020462Y011773D01*
X020172Y012063D01*
X020142Y012103D01*
X020142Y014663D01*
X015612Y014663D02*
X015132Y014663D01*
X015132Y012103D01*
X014642Y012103D01*
X015132Y012103D02*
X015192Y012103D01*
X015192Y011063D01*
X015222Y011023D01*
X014512Y010313D01*
X014512Y009863D01*
X011982Y009863D01*
X011502Y009383D01*
X014512Y009863D02*
X014512Y008273D01*
X015012Y007773D01*
X015192Y012103D02*
X015612Y012103D01*
X015132Y014663D02*
X014642Y014663D01*
X014612Y014703D01*
X014512Y014803D01*
X014512Y016803D01*
X015192Y017483D01*
X015222Y017523D01*
X015222Y018923D01*
X012462Y018923D01*
X011752Y019633D01*
X015222Y019103D02*
X015222Y018923D01*
X015222Y019103D02*
X015752Y019633D01*
X006252Y016883D02*
X006252Y016473D01*
X003222Y016473D01*
X003222Y017413D01*
X002252Y018383D01*
X003222Y016473D02*
X003222Y015673D01*
X003252Y015633D01*
X002252Y014633D01*
X002252Y014383D01*
D23*
X003752Y014883D02*
X003752Y015993D01*
X004402Y015993D01*
X005152Y015243D01*
X005152Y008233D01*
X005752Y007633D01*
X006752Y007633D02*
X007152Y008033D01*
X007152Y017233D01*
X004752Y019633D01*
X008002Y017383D02*
X008002Y016383D01*
X008002Y015383D02*
X007752Y015133D01*
X007752Y014133D01*
X007752Y007633D01*
X007752Y004633D01*
X006752Y003633D01*
X007752Y003633D02*
X008152Y004033D01*
X008152Y014103D01*
X008362Y014313D01*
X008362Y019243D01*
X008752Y019633D01*
X010152Y020333D02*
X010152Y015103D01*
X009152Y014103D01*
X009152Y010103D01*
X008392Y009343D01*
X008392Y003993D01*
X008752Y003633D01*
X010252Y003133D02*
X012032Y004913D01*
X012032Y006913D01*
X012502Y007383D01*
X012972Y007913D02*
X012502Y008383D01*
X012972Y007913D02*
X012972Y004853D01*
X010252Y002133D01*
X010252Y004133D02*
X011032Y004913D01*
X011032Y005913D01*
X011502Y006383D01*
X010892Y006773D02*
X010892Y005773D01*
X010252Y005133D01*
X010252Y006133D02*
X010752Y006633D01*
X010752Y008253D01*
X011032Y008533D01*
X011032Y013403D01*
X012112Y014483D01*
X012112Y015263D01*
X012022Y015353D01*
X012002Y015383D01*
X012002Y016383D01*
X011642Y017023D02*
X011642Y014743D01*
X011752Y014633D01*
X011152Y015043D02*
X010152Y014043D01*
X010152Y013603D01*
X009852Y013303D01*
X009852Y007533D01*
X010252Y007133D01*
X010892Y006773D02*
X011502Y007383D01*
X010812Y008633D02*
X010652Y008793D01*
X010652Y010733D01*
X010252Y011133D01*
X012502Y009383D02*
X012512Y009383D01*
X014112Y007783D01*
X014112Y007773D01*
X015012Y006873D01*
X014992Y006843D01*
X014512Y006363D01*
X014512Y002143D01*
X014252Y001883D01*
X016532Y002883D02*
X016538Y002883D01*
X016532Y002883D02*
X016532Y004453D01*
X015727Y005258D01*
X015752Y005283D01*
X018402Y005283D01*
X019752Y006633D01*
X017082Y009913D02*
X017082Y011793D01*
X017392Y012103D01*
X017392Y014663D01*
X018362Y014663D02*
X018362Y012103D01*
X017082Y009913D02*
X015792Y008623D01*
X016012Y009163D02*
X015102Y008253D01*
X015222Y009243D02*
X015222Y009693D01*
X014842Y010073D01*
X016012Y009163D02*
X016012Y017893D01*
X017752Y019633D01*
X012752Y019633D02*
X012052Y020333D01*
X010152Y020333D01*
X012002Y017383D02*
X011642Y017023D01*
X012862Y014663D02*
X012862Y012103D01*
X015012Y005973D02*
X015727Y005258D01*
X004112Y013563D02*
X002652Y012103D01*
X002652Y003783D01*
X002252Y003383D01*
X004112Y013563D02*
X004112Y015493D01*
X004252Y015633D01*
D24*
X011152Y015043D03*
X014842Y010073D03*
X015792Y008623D03*
X015102Y008253D03*
X010812Y008633D03*
M02*
