G75*
G70*
%OFA0B0*%
%FSLAX24Y24*%
%IPPOS*%
%LPD*%
%AMOC8*
5,1,8,0,0,1.08239X$1,22.5*
%
%ADD10C,0.0000*%
D10*
X001252Y000402D02*
X001252Y020087D01*
X020744Y020087D01*
X020744Y000402D01*
X001252Y000402D01*
X001751Y001296D02*
X001753Y001335D01*
X001759Y001374D01*
X001769Y001412D01*
X001782Y001449D01*
X001799Y001484D01*
X001819Y001518D01*
X001843Y001549D01*
X001870Y001578D01*
X001899Y001604D01*
X001931Y001627D01*
X001965Y001647D01*
X002001Y001663D01*
X002038Y001675D01*
X002077Y001684D01*
X002116Y001689D01*
X002155Y001690D01*
X002194Y001687D01*
X002233Y001680D01*
X002270Y001669D01*
X002307Y001655D01*
X002342Y001637D01*
X002375Y001616D01*
X002406Y001591D01*
X002434Y001564D01*
X002459Y001534D01*
X002481Y001501D01*
X002500Y001467D01*
X002515Y001431D01*
X002527Y001393D01*
X002535Y001355D01*
X002539Y001316D01*
X002539Y001276D01*
X002535Y001237D01*
X002527Y001199D01*
X002515Y001161D01*
X002500Y001125D01*
X002481Y001091D01*
X002459Y001058D01*
X002434Y001028D01*
X002406Y001001D01*
X002375Y000976D01*
X002342Y000955D01*
X002307Y000937D01*
X002270Y000923D01*
X002233Y000912D01*
X002194Y000905D01*
X002155Y000902D01*
X002116Y000903D01*
X002077Y000908D01*
X002038Y000917D01*
X002001Y000929D01*
X001965Y000945D01*
X001931Y000965D01*
X001899Y000988D01*
X001870Y001014D01*
X001843Y001043D01*
X001819Y001074D01*
X001799Y001108D01*
X001782Y001143D01*
X001769Y001180D01*
X001759Y001218D01*
X001753Y001257D01*
X001751Y001296D01*
X016622Y013985D02*
X016622Y014851D01*
X016819Y015048D02*
X016845Y015046D01*
X016870Y015041D01*
X016894Y015033D01*
X016918Y015022D01*
X016939Y015007D01*
X016958Y014990D01*
X016975Y014971D01*
X016990Y014950D01*
X017001Y014926D01*
X017009Y014902D01*
X017014Y014877D01*
X017016Y014851D01*
X017015Y014851D02*
X017015Y013985D01*
X017016Y013985D02*
X017014Y013959D01*
X017009Y013934D01*
X017001Y013910D01*
X016990Y013887D01*
X016975Y013865D01*
X016958Y013846D01*
X016939Y013829D01*
X016918Y013814D01*
X016894Y013803D01*
X016870Y013795D01*
X016845Y013790D01*
X016819Y013788D01*
X016819Y015048D01*
X016793Y015046D01*
X016768Y015041D01*
X016744Y015033D01*
X016721Y015022D01*
X016699Y015007D01*
X016680Y014990D01*
X016663Y014971D01*
X016648Y014950D01*
X016637Y014926D01*
X016629Y014902D01*
X016624Y014877D01*
X016622Y014851D01*
X016622Y013985D02*
X016624Y013959D01*
X016629Y013934D01*
X016637Y013910D01*
X016648Y013887D01*
X016663Y013865D01*
X016680Y013846D01*
X016699Y013829D01*
X016721Y013814D01*
X016744Y013803D01*
X016768Y013795D01*
X016793Y013790D01*
X016819Y013788D01*
X019102Y013985D02*
X019102Y014851D01*
X019299Y015048D02*
X019325Y015046D01*
X019350Y015041D01*
X019374Y015033D01*
X019398Y015022D01*
X019419Y015007D01*
X019438Y014990D01*
X019455Y014971D01*
X019470Y014950D01*
X019481Y014926D01*
X019489Y014902D01*
X019494Y014877D01*
X019496Y014851D01*
X019496Y013985D01*
X019494Y013959D01*
X019489Y013934D01*
X019481Y013910D01*
X019470Y013887D01*
X019455Y013865D01*
X019438Y013846D01*
X019419Y013829D01*
X019398Y013814D01*
X019374Y013803D01*
X019350Y013795D01*
X019325Y013790D01*
X019299Y013788D01*
X019273Y013790D01*
X019248Y013795D01*
X019224Y013803D01*
X019201Y013814D01*
X019179Y013829D01*
X019160Y013846D01*
X019143Y013865D01*
X019128Y013887D01*
X019117Y013910D01*
X019109Y013934D01*
X019104Y013959D01*
X019102Y013985D01*
X019102Y014851D02*
X019104Y014877D01*
X019109Y014902D01*
X019117Y014926D01*
X019128Y014950D01*
X019143Y014971D01*
X019160Y014990D01*
X019179Y015007D01*
X019201Y015022D01*
X019224Y015033D01*
X019248Y015041D01*
X019273Y015046D01*
X019299Y015048D01*
X018433Y016189D02*
X017567Y016189D01*
X017541Y016191D01*
X017516Y016196D01*
X017492Y016204D01*
X017469Y016215D01*
X017447Y016230D01*
X017428Y016247D01*
X017411Y016266D01*
X017396Y016288D01*
X017385Y016311D01*
X017377Y016335D01*
X017372Y016360D01*
X017370Y016386D01*
X017372Y016412D01*
X017377Y016437D01*
X017385Y016461D01*
X017396Y016485D01*
X017411Y016506D01*
X017428Y016525D01*
X017447Y016542D01*
X017469Y016557D01*
X017492Y016568D01*
X017516Y016576D01*
X017541Y016581D01*
X017567Y016583D01*
X018433Y016583D01*
X018630Y016386D02*
X018628Y016360D01*
X018623Y016335D01*
X018615Y016311D01*
X018604Y016288D01*
X018589Y016266D01*
X018572Y016247D01*
X018553Y016230D01*
X018532Y016215D01*
X018508Y016204D01*
X018484Y016196D01*
X018459Y016191D01*
X018433Y016189D01*
X018630Y016386D02*
X018628Y016412D01*
X018623Y016437D01*
X018615Y016461D01*
X018604Y016485D01*
X018589Y016506D01*
X018572Y016525D01*
X018553Y016542D01*
X018532Y016557D01*
X018508Y016568D01*
X018484Y016576D01*
X018459Y016581D01*
X018433Y016583D01*
X019751Y019296D02*
X019753Y019335D01*
X019759Y019374D01*
X019769Y019412D01*
X019782Y019449D01*
X019799Y019484D01*
X019819Y019518D01*
X019843Y019549D01*
X019870Y019578D01*
X019899Y019604D01*
X019931Y019627D01*
X019965Y019647D01*
X020001Y019663D01*
X020038Y019675D01*
X020077Y019684D01*
X020116Y019689D01*
X020155Y019690D01*
X020194Y019687D01*
X020233Y019680D01*
X020270Y019669D01*
X020307Y019655D01*
X020342Y019637D01*
X020375Y019616D01*
X020406Y019591D01*
X020434Y019564D01*
X020459Y019534D01*
X020481Y019501D01*
X020500Y019467D01*
X020515Y019431D01*
X020527Y019393D01*
X020535Y019355D01*
X020539Y019316D01*
X020539Y019276D01*
X020535Y019237D01*
X020527Y019199D01*
X020515Y019161D01*
X020500Y019125D01*
X020481Y019091D01*
X020459Y019058D01*
X020434Y019028D01*
X020406Y019001D01*
X020375Y018976D01*
X020342Y018955D01*
X020307Y018937D01*
X020270Y018923D01*
X020233Y018912D01*
X020194Y018905D01*
X020155Y018902D01*
X020116Y018903D01*
X020077Y018908D01*
X020038Y018917D01*
X020001Y018929D01*
X019965Y018945D01*
X019931Y018965D01*
X019899Y018988D01*
X019870Y019014D01*
X019843Y019043D01*
X019819Y019074D01*
X019799Y019108D01*
X019782Y019143D01*
X019769Y019180D01*
X019759Y019218D01*
X019753Y019257D01*
X019751Y019296D01*
X001594Y018902D02*
X001596Y018949D01*
X001602Y018995D01*
X001612Y019041D01*
X001625Y019086D01*
X001643Y019129D01*
X001664Y019171D01*
X001688Y019211D01*
X001716Y019248D01*
X001747Y019283D01*
X001781Y019316D01*
X001817Y019345D01*
X001856Y019371D01*
X001897Y019394D01*
X001940Y019413D01*
X001984Y019429D01*
X002029Y019441D01*
X002075Y019449D01*
X002122Y019453D01*
X002168Y019453D01*
X002215Y019449D01*
X002261Y019441D01*
X002306Y019429D01*
X002350Y019413D01*
X002393Y019394D01*
X002434Y019371D01*
X002473Y019345D01*
X002509Y019316D01*
X002543Y019283D01*
X002574Y019248D01*
X002602Y019211D01*
X002626Y019171D01*
X002647Y019129D01*
X002665Y019086D01*
X002678Y019041D01*
X002688Y018995D01*
X002694Y018949D01*
X002696Y018902D01*
X002694Y018855D01*
X002688Y018809D01*
X002678Y018763D01*
X002665Y018718D01*
X002647Y018675D01*
X002626Y018633D01*
X002602Y018593D01*
X002574Y018556D01*
X002543Y018521D01*
X002509Y018488D01*
X002473Y018459D01*
X002434Y018433D01*
X002393Y018410D01*
X002350Y018391D01*
X002306Y018375D01*
X002261Y018363D01*
X002215Y018355D01*
X002168Y018351D01*
X002122Y018351D01*
X002075Y018355D01*
X002029Y018363D01*
X001984Y018375D01*
X001940Y018391D01*
X001897Y018410D01*
X001856Y018433D01*
X001817Y018459D01*
X001781Y018488D01*
X001747Y018521D01*
X001716Y018556D01*
X001688Y018593D01*
X001664Y018633D01*
X001643Y018675D01*
X001625Y018718D01*
X001612Y018763D01*
X001602Y018809D01*
X001596Y018855D01*
X001594Y018902D01*
X019201Y001402D02*
X019203Y001449D01*
X019209Y001495D01*
X019219Y001541D01*
X019232Y001586D01*
X019250Y001629D01*
X019271Y001671D01*
X019295Y001711D01*
X019323Y001748D01*
X019354Y001783D01*
X019388Y001816D01*
X019424Y001845D01*
X019463Y001871D01*
X019504Y001894D01*
X019547Y001913D01*
X019591Y001929D01*
X019636Y001941D01*
X019682Y001949D01*
X019729Y001953D01*
X019775Y001953D01*
X019822Y001949D01*
X019868Y001941D01*
X019913Y001929D01*
X019957Y001913D01*
X020000Y001894D01*
X020041Y001871D01*
X020080Y001845D01*
X020116Y001816D01*
X020150Y001783D01*
X020181Y001748D01*
X020209Y001711D01*
X020233Y001671D01*
X020254Y001629D01*
X020272Y001586D01*
X020285Y001541D01*
X020295Y001495D01*
X020301Y001449D01*
X020303Y001402D01*
X020301Y001355D01*
X020295Y001309D01*
X020285Y001263D01*
X020272Y001218D01*
X020254Y001175D01*
X020233Y001133D01*
X020209Y001093D01*
X020181Y001056D01*
X020150Y001021D01*
X020116Y000988D01*
X020080Y000959D01*
X020041Y000933D01*
X020000Y000910D01*
X019957Y000891D01*
X019913Y000875D01*
X019868Y000863D01*
X019822Y000855D01*
X019775Y000851D01*
X019729Y000851D01*
X019682Y000855D01*
X019636Y000863D01*
X019591Y000875D01*
X019547Y000891D01*
X019504Y000910D01*
X019463Y000933D01*
X019424Y000959D01*
X019388Y000988D01*
X019354Y001021D01*
X019323Y001056D01*
X019295Y001093D01*
X019271Y001133D01*
X019250Y001175D01*
X019232Y001218D01*
X019219Y001263D01*
X019209Y001309D01*
X019203Y001355D01*
X019201Y001402D01*
M02*
