G75*
G70*
%OFA0B0*%
%FSLAX24Y24*%
%IPPOS*%
%LPD*%
%AMOC8*
5,1,8,0,0,1.08239X$1,22.5*
%
%ADD10C,0.0000*%
%ADD11C,0.0040*%
%ADD12C,0.0080*%
%ADD13C,0.0050*%
%ADD14C,0.0060*%
%ADD15R,0.0240X0.0340*%
%ADD16C,0.0100*%
%ADD17R,0.0827X0.0157*%
%ADD18C,0.0020*%
%ADD19R,0.0340X0.0240*%
%ADD20C,0.0010*%
%ADD21R,0.0200X0.0200*%
D10*
X001252Y001133D02*
X001252Y020818D01*
X020744Y020818D01*
X020744Y001133D01*
X001252Y001133D01*
X001804Y002027D02*
X001806Y002075D01*
X001812Y002123D01*
X001822Y002170D01*
X001835Y002216D01*
X001853Y002261D01*
X001873Y002305D01*
X001898Y002347D01*
X001926Y002386D01*
X001956Y002423D01*
X001990Y002457D01*
X002027Y002489D01*
X002065Y002518D01*
X002106Y002543D01*
X002149Y002565D01*
X002194Y002583D01*
X002240Y002597D01*
X002287Y002608D01*
X002335Y002615D01*
X002383Y002618D01*
X002431Y002617D01*
X002479Y002612D01*
X002527Y002603D01*
X002573Y002591D01*
X002618Y002574D01*
X002662Y002554D01*
X002704Y002531D01*
X002744Y002504D01*
X002782Y002474D01*
X002817Y002441D01*
X002849Y002405D01*
X002879Y002367D01*
X002905Y002326D01*
X002927Y002283D01*
X002947Y002239D01*
X002962Y002194D01*
X002974Y002147D01*
X002982Y002099D01*
X002986Y002051D01*
X002986Y002003D01*
X002982Y001955D01*
X002974Y001907D01*
X002962Y001860D01*
X002947Y001815D01*
X002927Y001771D01*
X002905Y001728D01*
X002879Y001687D01*
X002849Y001649D01*
X002817Y001613D01*
X002782Y001580D01*
X002744Y001550D01*
X002704Y001523D01*
X002662Y001500D01*
X002618Y001480D01*
X002573Y001463D01*
X002527Y001451D01*
X002479Y001442D01*
X002431Y001437D01*
X002383Y001436D01*
X002335Y001439D01*
X002287Y001446D01*
X002240Y001457D01*
X002194Y001471D01*
X002149Y001489D01*
X002106Y001511D01*
X002065Y001536D01*
X002027Y001565D01*
X001990Y001597D01*
X001956Y001631D01*
X001926Y001668D01*
X001898Y001707D01*
X001873Y001749D01*
X001853Y001793D01*
X001835Y001838D01*
X001822Y001884D01*
X001812Y001931D01*
X001806Y001979D01*
X001804Y002027D01*
X019201Y010633D02*
X019203Y010680D01*
X019209Y010726D01*
X019219Y010772D01*
X019232Y010817D01*
X019250Y010860D01*
X019271Y010902D01*
X019295Y010942D01*
X019323Y010979D01*
X019354Y011014D01*
X019388Y011047D01*
X019424Y011076D01*
X019463Y011102D01*
X019504Y011125D01*
X019547Y011144D01*
X019591Y011160D01*
X019636Y011172D01*
X019682Y011180D01*
X019729Y011184D01*
X019775Y011184D01*
X019822Y011180D01*
X019868Y011172D01*
X019913Y011160D01*
X019957Y011144D01*
X020000Y011125D01*
X020041Y011102D01*
X020080Y011076D01*
X020116Y011047D01*
X020150Y011014D01*
X020181Y010979D01*
X020209Y010942D01*
X020233Y010902D01*
X020254Y010860D01*
X020272Y010817D01*
X020285Y010772D01*
X020295Y010726D01*
X020301Y010680D01*
X020303Y010633D01*
X020301Y010586D01*
X020295Y010540D01*
X020285Y010494D01*
X020272Y010449D01*
X020254Y010406D01*
X020233Y010364D01*
X020209Y010324D01*
X020181Y010287D01*
X020150Y010252D01*
X020116Y010219D01*
X020080Y010190D01*
X020041Y010164D01*
X020000Y010141D01*
X019957Y010122D01*
X019913Y010106D01*
X019868Y010094D01*
X019822Y010086D01*
X019775Y010082D01*
X019729Y010082D01*
X019682Y010086D01*
X019636Y010094D01*
X019591Y010106D01*
X019547Y010122D01*
X019504Y010141D01*
X019463Y010164D01*
X019424Y010190D01*
X019388Y010219D01*
X019354Y010252D01*
X019323Y010287D01*
X019295Y010324D01*
X019271Y010364D01*
X019250Y010406D01*
X019232Y010449D01*
X019219Y010494D01*
X019209Y010540D01*
X019203Y010586D01*
X019201Y010633D01*
X019304Y017527D02*
X019306Y017575D01*
X019312Y017623D01*
X019322Y017670D01*
X019335Y017716D01*
X019353Y017761D01*
X019373Y017805D01*
X019398Y017847D01*
X019426Y017886D01*
X019456Y017923D01*
X019490Y017957D01*
X019527Y017989D01*
X019565Y018018D01*
X019606Y018043D01*
X019649Y018065D01*
X019694Y018083D01*
X019740Y018097D01*
X019787Y018108D01*
X019835Y018115D01*
X019883Y018118D01*
X019931Y018117D01*
X019979Y018112D01*
X020027Y018103D01*
X020073Y018091D01*
X020118Y018074D01*
X020162Y018054D01*
X020204Y018031D01*
X020244Y018004D01*
X020282Y017974D01*
X020317Y017941D01*
X020349Y017905D01*
X020379Y017867D01*
X020405Y017826D01*
X020427Y017783D01*
X020447Y017739D01*
X020462Y017694D01*
X020474Y017647D01*
X020482Y017599D01*
X020486Y017551D01*
X020486Y017503D01*
X020482Y017455D01*
X020474Y017407D01*
X020462Y017360D01*
X020447Y017315D01*
X020427Y017271D01*
X020405Y017228D01*
X020379Y017187D01*
X020349Y017149D01*
X020317Y017113D01*
X020282Y017080D01*
X020244Y017050D01*
X020204Y017023D01*
X020162Y017000D01*
X020118Y016980D01*
X020073Y016963D01*
X020027Y016951D01*
X019979Y016942D01*
X019931Y016937D01*
X019883Y016936D01*
X019835Y016939D01*
X019787Y016946D01*
X019740Y016957D01*
X019694Y016971D01*
X019649Y016989D01*
X019606Y017011D01*
X019565Y017036D01*
X019527Y017065D01*
X019490Y017097D01*
X019456Y017131D01*
X019426Y017168D01*
X019398Y017207D01*
X019373Y017249D01*
X019353Y017293D01*
X019335Y017338D01*
X019322Y017384D01*
X019312Y017431D01*
X019306Y017479D01*
X019304Y017527D01*
X001594Y019883D02*
X001596Y019930D01*
X001602Y019976D01*
X001612Y020022D01*
X001625Y020067D01*
X001643Y020110D01*
X001664Y020152D01*
X001688Y020192D01*
X001716Y020229D01*
X001747Y020264D01*
X001781Y020297D01*
X001817Y020326D01*
X001856Y020352D01*
X001897Y020375D01*
X001940Y020394D01*
X001984Y020410D01*
X002029Y020422D01*
X002075Y020430D01*
X002122Y020434D01*
X002168Y020434D01*
X002215Y020430D01*
X002261Y020422D01*
X002306Y020410D01*
X002350Y020394D01*
X002393Y020375D01*
X002434Y020352D01*
X002473Y020326D01*
X002509Y020297D01*
X002543Y020264D01*
X002574Y020229D01*
X002602Y020192D01*
X002626Y020152D01*
X002647Y020110D01*
X002665Y020067D01*
X002678Y020022D01*
X002688Y019976D01*
X002694Y019930D01*
X002696Y019883D01*
X002694Y019836D01*
X002688Y019790D01*
X002678Y019744D01*
X002665Y019699D01*
X002647Y019656D01*
X002626Y019614D01*
X002602Y019574D01*
X002574Y019537D01*
X002543Y019502D01*
X002509Y019469D01*
X002473Y019440D01*
X002434Y019414D01*
X002393Y019391D01*
X002350Y019372D01*
X002306Y019356D01*
X002261Y019344D01*
X002215Y019336D01*
X002168Y019332D01*
X002122Y019332D01*
X002075Y019336D01*
X002029Y019344D01*
X001984Y019356D01*
X001940Y019372D01*
X001897Y019391D01*
X001856Y019414D01*
X001817Y019440D01*
X001781Y019469D01*
X001747Y019502D01*
X001716Y019537D01*
X001688Y019574D01*
X001664Y019614D01*
X001643Y019656D01*
X001625Y019699D01*
X001612Y019744D01*
X001602Y019790D01*
X001596Y019836D01*
X001594Y019883D01*
D11*
X003323Y018895D02*
X003323Y018435D01*
X003323Y018588D02*
X003553Y018588D01*
X003630Y018665D01*
X003630Y018818D01*
X003553Y018895D01*
X003323Y018895D01*
X003476Y018588D02*
X003630Y018435D01*
X003783Y018512D02*
X003860Y018435D01*
X004013Y018435D01*
X004090Y018512D01*
X004090Y018665D01*
X004013Y018742D01*
X003937Y018742D01*
X003783Y018665D01*
X003783Y018895D01*
X004090Y018895D01*
X003820Y021153D02*
X003700Y021153D01*
X003640Y021213D01*
X003512Y021153D02*
X003272Y021514D01*
X003512Y021514D02*
X003272Y021153D01*
X003640Y021454D02*
X003700Y021514D01*
X003820Y021514D01*
X003880Y021454D01*
X003880Y021394D01*
X003820Y021333D01*
X003880Y021273D01*
X003880Y021213D01*
X003820Y021153D01*
X003820Y021333D02*
X003760Y021333D01*
X007272Y021153D02*
X007512Y021514D01*
X007640Y021454D02*
X007700Y021514D01*
X007820Y021514D01*
X007880Y021454D01*
X007880Y021394D01*
X007640Y021153D01*
X007880Y021153D01*
X007512Y021153D02*
X007272Y021514D01*
X011272Y021514D02*
X011512Y021153D01*
X011640Y021153D02*
X011880Y021153D01*
X011760Y021153D02*
X011760Y021514D01*
X011640Y021394D01*
X011512Y021514D02*
X011272Y021153D01*
X015272Y021153D02*
X015512Y021514D01*
X015640Y021514D02*
X015640Y021333D01*
X015760Y021394D01*
X015820Y021394D01*
X015880Y021333D01*
X015880Y021213D01*
X015820Y021153D01*
X015700Y021153D01*
X015640Y021213D01*
X015512Y021153D02*
X015272Y021514D01*
X015640Y021514D02*
X015880Y021514D01*
X007232Y013173D02*
X006771Y013173D01*
X007001Y012943D01*
X007001Y013250D01*
X006848Y012789D02*
X007155Y012483D01*
X007232Y012559D01*
X007232Y012713D01*
X007155Y012789D01*
X006848Y012789D01*
X006771Y012713D01*
X006771Y012559D01*
X006848Y012483D01*
X007155Y012483D01*
X007155Y012329D02*
X007078Y012329D01*
X007001Y012252D01*
X007001Y012022D01*
X007155Y012022D01*
X007232Y012099D01*
X007232Y012252D01*
X007155Y012329D01*
X006848Y012176D02*
X007001Y012022D01*
X006925Y011869D02*
X006848Y011869D01*
X006771Y011792D01*
X006771Y011638D01*
X006848Y011562D01*
X006848Y011408D02*
X006771Y011332D01*
X006771Y011178D01*
X006848Y011101D01*
X006848Y010948D02*
X007155Y010641D01*
X007232Y010718D01*
X007232Y010871D01*
X007155Y010948D01*
X006848Y010948D01*
X006771Y010871D01*
X006771Y010718D01*
X006848Y010641D01*
X007155Y010641D01*
X007155Y010488D02*
X007232Y010411D01*
X007232Y010257D01*
X007155Y010181D01*
X006848Y010488D01*
X007155Y010488D01*
X006848Y010488D02*
X006771Y010411D01*
X006771Y010257D01*
X006848Y010181D01*
X007155Y010181D01*
X007155Y010027D02*
X007232Y009950D01*
X007232Y009797D01*
X007155Y009720D01*
X006848Y010027D01*
X007155Y010027D01*
X007155Y009720D02*
X006848Y009720D01*
X006771Y009797D01*
X006771Y009950D01*
X006848Y010027D01*
X006482Y009950D02*
X006405Y010027D01*
X006098Y010027D01*
X006021Y009950D01*
X006021Y009720D01*
X006482Y009720D01*
X006482Y009950D01*
X006482Y010181D02*
X006482Y010488D01*
X006482Y010641D02*
X006021Y010641D01*
X006021Y010871D01*
X006098Y010948D01*
X006251Y010948D01*
X006328Y010871D01*
X006328Y010641D01*
X006328Y010794D02*
X006482Y010948D01*
X006848Y011408D02*
X006925Y011408D01*
X007232Y011101D01*
X007232Y011408D01*
X007232Y011562D02*
X006925Y011869D01*
X007232Y011869D02*
X007232Y011562D01*
X006848Y012176D02*
X006771Y012329D01*
X006021Y010488D02*
X006021Y010181D01*
X006482Y010181D01*
X006251Y010181D02*
X006251Y010334D01*
X006251Y009567D02*
X006098Y009567D01*
X006021Y009490D01*
X006021Y009260D01*
X006482Y009260D01*
X006328Y009260D02*
X006328Y009490D01*
X006251Y009567D01*
X006328Y009413D02*
X006482Y009567D01*
X006771Y009413D02*
X007232Y009413D01*
X007232Y009260D02*
X007232Y009567D01*
X006925Y009260D02*
X006771Y009413D01*
X006925Y009106D02*
X006925Y009030D01*
X006925Y008799D01*
X007078Y008799D02*
X007078Y009106D01*
X007232Y009030D02*
X006771Y009030D01*
X006771Y008876D02*
X007232Y008876D01*
X006482Y008876D02*
X006482Y009030D01*
X006405Y009106D01*
X006098Y009106D01*
X006021Y009030D01*
X006021Y008876D01*
X006098Y008799D01*
X006405Y008799D01*
X006482Y008876D01*
X010056Y004210D02*
X010056Y003980D01*
X010133Y003903D01*
X010210Y003980D01*
X010287Y003903D01*
X010363Y003980D01*
X010363Y004210D01*
X010517Y004210D02*
X010517Y003980D01*
X010593Y003903D01*
X010670Y003980D01*
X010747Y003903D01*
X010824Y003980D01*
X010824Y004210D01*
X010977Y004210D02*
X010977Y003980D01*
X011054Y003903D01*
X011131Y003980D01*
X011207Y003903D01*
X011284Y003980D01*
X011284Y004210D01*
X011438Y003980D02*
X011514Y003980D01*
X011514Y003903D01*
X011438Y003903D01*
X011438Y003980D01*
X011668Y003980D02*
X011744Y003903D01*
X011898Y003903D01*
X011975Y003980D01*
X011975Y004057D01*
X011898Y004134D01*
X011744Y004134D01*
X011668Y004210D01*
X011668Y004287D01*
X011744Y004364D01*
X011898Y004364D01*
X011975Y004287D01*
X012205Y004210D02*
X012358Y004210D01*
X012435Y004134D01*
X012435Y003903D01*
X012205Y003903D01*
X012128Y003980D01*
X012205Y004057D01*
X012435Y004057D01*
X012588Y003980D02*
X012665Y003903D01*
X012895Y003903D01*
X012895Y004210D01*
X013049Y004364D02*
X013126Y004364D01*
X013126Y003903D01*
X013202Y003903D02*
X013049Y003903D01*
X013356Y003980D02*
X013433Y003903D01*
X013586Y003903D01*
X013663Y004057D02*
X013356Y004057D01*
X013356Y004134D02*
X013433Y004210D01*
X013586Y004210D01*
X013663Y004134D01*
X013663Y004057D01*
X013816Y004057D02*
X013970Y003903D01*
X014123Y004057D01*
X014123Y004364D01*
X014277Y004210D02*
X014353Y004210D01*
X014353Y003903D01*
X014277Y003903D02*
X014430Y003903D01*
X014584Y003903D02*
X014584Y004210D01*
X014737Y004210D02*
X014814Y004210D01*
X014737Y004210D02*
X014584Y004057D01*
X014967Y004057D02*
X015274Y004057D01*
X015274Y004134D01*
X015197Y004210D01*
X015044Y004210D01*
X014967Y004134D01*
X014967Y003980D01*
X015044Y003903D01*
X015197Y003903D01*
X015428Y003903D02*
X015428Y003980D01*
X015504Y003980D01*
X015504Y003903D01*
X015428Y003903D01*
X015658Y003903D02*
X015811Y003903D01*
X015735Y003903D02*
X015735Y004364D01*
X015658Y004364D01*
X015965Y004210D02*
X016118Y004210D01*
X016041Y004287D02*
X016041Y003980D01*
X016118Y003903D01*
X014353Y004364D02*
X014353Y004440D01*
X013816Y004364D02*
X013816Y004057D01*
X013356Y003980D02*
X013356Y004134D01*
X012588Y004210D02*
X012588Y003980D01*
X012785Y000614D02*
X013025Y000253D01*
X013153Y000313D02*
X013213Y000253D01*
X013333Y000253D01*
X013394Y000313D01*
X013394Y000373D01*
X013333Y000433D01*
X013153Y000433D01*
X013153Y000313D01*
X013153Y000433D02*
X013273Y000554D01*
X013394Y000614D01*
X013025Y000614D02*
X012785Y000253D01*
X020521Y006167D02*
X020882Y006407D01*
X020701Y006535D02*
X020701Y006775D01*
X020521Y006715D02*
X020701Y006535D01*
X020521Y006407D02*
X020882Y006167D01*
X020882Y006715D02*
X020521Y006715D01*
D12*
X020721Y004595D02*
X018734Y004595D01*
X016884Y004595D02*
X016388Y004595D01*
X016388Y003828D01*
X015502Y002383D02*
X015002Y002383D01*
X014752Y002133D01*
X014502Y002383D01*
X014002Y002383D01*
X013752Y002133D01*
X013752Y001633D01*
X014002Y001383D01*
X014502Y001383D01*
X014752Y001633D01*
X015002Y001383D01*
X015502Y001383D01*
X015752Y001633D01*
X015752Y002133D01*
X015502Y002383D01*
X016388Y001938D02*
X016388Y001172D01*
X020721Y001172D01*
X020721Y004595D01*
X013252Y005133D02*
X013252Y005633D01*
X010752Y005383D02*
X010752Y004883D01*
X010502Y004633D01*
X010752Y004383D01*
X010752Y003883D01*
X010502Y003633D01*
X010752Y003383D01*
X010752Y002883D01*
X010502Y002633D01*
X010752Y002383D01*
X010752Y001883D01*
X010502Y001633D01*
X010002Y001633D01*
X009752Y001883D01*
X009752Y002383D01*
X009502Y002633D01*
X009002Y002633D01*
X008752Y002383D01*
X008502Y002633D01*
X008002Y002633D01*
X007752Y002383D01*
X007502Y002633D01*
X007002Y002633D01*
X006752Y002383D01*
X006752Y001883D01*
X007002Y001633D01*
X007502Y001633D01*
X007752Y001883D01*
X008002Y001633D01*
X008502Y001633D01*
X008752Y001883D01*
X009002Y001633D01*
X009502Y001633D01*
X009752Y001883D01*
X009752Y002383D01*
X010002Y002633D01*
X009752Y002883D01*
X009752Y003383D01*
X010002Y003633D01*
X009752Y003883D01*
X009752Y004383D01*
X010002Y004633D01*
X009752Y004883D01*
X009752Y005383D01*
X010002Y005633D01*
X009752Y005883D01*
X009752Y006383D01*
X010002Y006633D01*
X009752Y006883D01*
X009752Y007383D01*
X010002Y007633D01*
X009752Y007883D01*
X009752Y008383D01*
X009752Y008883D01*
X009502Y009133D01*
X009752Y009383D01*
X009752Y009883D01*
X009502Y010133D01*
X009002Y010133D01*
X008752Y009883D01*
X008752Y009383D01*
X009002Y009133D01*
X008752Y008883D01*
X008752Y008383D01*
X009002Y008133D01*
X009502Y008133D01*
X009752Y008383D01*
X010002Y008633D01*
X009752Y008883D01*
X009752Y009383D01*
X010002Y009633D01*
X009752Y009883D01*
X009752Y010383D01*
X010002Y010633D01*
X009752Y010883D01*
X009752Y011383D01*
X010002Y011633D01*
X009752Y011883D01*
X009752Y012383D01*
X010002Y012633D01*
X009752Y012883D01*
X009752Y013383D01*
X010002Y013633D01*
X009502Y013633D01*
X009252Y013883D01*
X009002Y013633D01*
X008502Y013633D01*
X008252Y013883D01*
X008002Y013633D01*
X007502Y013633D01*
X007252Y013883D01*
X007002Y013633D01*
X006502Y013633D01*
X006252Y013883D01*
X006002Y013633D01*
X005502Y013633D01*
X005252Y013883D01*
X005002Y013633D01*
X004502Y013633D01*
X004252Y013883D01*
X004252Y014383D01*
X004502Y014633D01*
X005002Y014633D01*
X005252Y014383D01*
X005502Y014633D01*
X006002Y014633D01*
X006252Y014383D01*
X006502Y014633D01*
X007002Y014633D01*
X007252Y014383D01*
X007502Y014633D01*
X008002Y014633D01*
X008252Y014383D01*
X008502Y014633D01*
X009002Y014633D01*
X009252Y014383D01*
X009502Y014633D01*
X010002Y014633D01*
X010252Y014383D01*
X010252Y013883D01*
X010002Y013633D01*
X010502Y013633D01*
X010752Y013383D01*
X010752Y012883D01*
X010502Y012633D01*
X010752Y012383D01*
X010752Y011883D01*
X010502Y011633D01*
X010752Y011383D01*
X010752Y010883D01*
X010502Y010633D01*
X010752Y010383D01*
X010752Y009883D01*
X010502Y009633D01*
X010752Y009383D01*
X010752Y008883D01*
X010502Y008633D01*
X010752Y008383D01*
X010752Y007883D01*
X010502Y007633D01*
X010752Y007383D01*
X010752Y006883D01*
X010502Y006633D01*
X010752Y006383D01*
X010752Y005883D01*
X010502Y005633D01*
X010752Y005383D01*
X004752Y005383D02*
X004752Y004883D01*
X004502Y004633D01*
X004752Y004383D01*
X004752Y003883D01*
X004502Y003633D01*
X004752Y003383D01*
X004752Y002883D01*
X004502Y002633D01*
X004752Y002383D01*
X004752Y001883D01*
X004502Y001633D01*
X004002Y001633D01*
X003752Y001883D01*
X003752Y002383D01*
X004002Y002633D01*
X003752Y002883D01*
X003752Y003383D01*
X004002Y003633D01*
X003752Y003883D01*
X003752Y004383D01*
X004002Y004633D01*
X003752Y004883D01*
X003752Y005383D01*
X004002Y005633D01*
X003752Y005883D01*
X003752Y006383D01*
X004002Y006633D01*
X003752Y006883D01*
X003752Y007383D01*
X004002Y007633D01*
X003752Y007883D01*
X003752Y008383D01*
X004002Y008633D01*
X003752Y008883D01*
X003752Y009383D01*
X004002Y009633D01*
X003752Y009883D01*
X003752Y010383D01*
X004002Y010633D01*
X003752Y010883D01*
X003752Y011383D01*
X004002Y011633D01*
X003752Y011883D01*
X003752Y012383D01*
X004002Y012633D01*
X003752Y012883D01*
X003752Y013383D01*
X004002Y013633D01*
X004502Y013633D01*
X004752Y013383D01*
X004752Y012883D01*
X004502Y012633D01*
X004752Y012383D01*
X004752Y011883D01*
X004502Y011633D01*
X004752Y011383D01*
X004752Y010883D01*
X004502Y010633D01*
X004752Y010383D01*
X004752Y009883D01*
X004502Y009633D01*
X004752Y009383D01*
X004752Y008883D01*
X004502Y008633D01*
X004752Y008383D01*
X004752Y007883D01*
X004502Y007633D01*
X004752Y007383D01*
X004752Y006883D01*
X004502Y006633D01*
X004752Y006383D01*
X004752Y005883D01*
X004502Y005633D01*
X004752Y005383D01*
X002752Y005133D02*
X002502Y004883D01*
X002752Y004633D01*
X002752Y004133D01*
X002502Y003883D01*
X002752Y003633D01*
X002752Y003133D01*
X002502Y002883D01*
X002002Y002883D01*
X001752Y003133D01*
X001752Y003633D01*
X002002Y003883D01*
X001752Y004133D01*
X001752Y004633D01*
X002002Y004883D01*
X001752Y005133D01*
X001752Y005633D01*
X002002Y005883D01*
X001752Y006133D01*
X001752Y006633D01*
X002002Y006883D01*
X001752Y007133D01*
X001752Y007633D01*
X002002Y007883D01*
X001752Y008133D01*
X001752Y008633D01*
X002002Y008883D01*
X001752Y009133D01*
X001752Y009633D01*
X002002Y009883D01*
X001752Y010133D01*
X001752Y010633D01*
X002002Y010883D01*
X001752Y011133D01*
X001752Y011633D01*
X002002Y011883D01*
X001752Y012133D01*
X001752Y012633D01*
X002002Y012883D01*
X001752Y013133D01*
X001752Y013633D01*
X002002Y013883D01*
X001752Y014133D01*
X001752Y014633D01*
X002002Y014883D01*
X001752Y015133D01*
X001752Y015633D01*
X002002Y015883D01*
X001752Y016133D01*
X001752Y016633D01*
X002002Y016883D01*
X001752Y017133D01*
X001752Y017633D01*
X002002Y017883D01*
X001752Y018133D01*
X001752Y018633D01*
X002002Y018883D01*
X002502Y018883D01*
X002752Y018633D01*
X002752Y018133D01*
X002502Y017883D01*
X002752Y017633D01*
X002752Y017133D01*
X002502Y016883D01*
X002752Y016633D01*
X002752Y016133D01*
X002502Y015883D01*
X002752Y015633D01*
X002752Y015133D01*
X002502Y014883D01*
X002752Y014633D01*
X002752Y014133D01*
X002502Y013883D01*
X002752Y013633D01*
X002752Y013133D01*
X002502Y012883D01*
X002752Y012633D01*
X002752Y012133D01*
X002502Y011883D01*
X002752Y011633D01*
X002752Y011133D01*
X002502Y010883D01*
X002752Y010633D01*
X002752Y010133D01*
X002502Y009883D01*
X002752Y009633D01*
X002752Y009133D01*
X002502Y008883D01*
X002752Y008633D01*
X002752Y008133D01*
X002502Y007883D01*
X002752Y007633D01*
X002752Y007133D01*
X002502Y006883D01*
X002752Y006633D01*
X002752Y006133D01*
X002502Y005883D01*
X002752Y005633D01*
X002752Y005133D01*
D13*
X003056Y005158D02*
X003056Y005383D01*
X003131Y005458D01*
X003281Y005458D01*
X003357Y005383D01*
X003357Y005158D01*
X003507Y005158D02*
X003056Y005158D01*
X003056Y005618D02*
X003056Y005844D01*
X003131Y005919D01*
X003281Y005919D01*
X003357Y005844D01*
X003357Y005618D01*
X003507Y005618D02*
X003056Y005618D01*
X003357Y005769D02*
X003507Y005919D01*
X003432Y006079D02*
X003507Y006154D01*
X003507Y006304D01*
X003432Y006379D01*
X003131Y006379D01*
X003056Y006304D01*
X003056Y006154D01*
X003131Y006079D01*
X003432Y006079D01*
X003582Y006539D02*
X003582Y006839D01*
X003507Y007000D02*
X003056Y007000D01*
X003206Y007150D01*
X003056Y007300D01*
X003507Y007300D01*
X003507Y007460D02*
X003507Y007610D01*
X003507Y007535D02*
X003056Y007535D01*
X003056Y007460D02*
X003056Y007610D01*
X003056Y007767D02*
X003507Y008067D01*
X003056Y008067D01*
X003056Y008227D02*
X003056Y008377D01*
X003056Y008302D02*
X003507Y008302D01*
X003507Y008227D02*
X003507Y008377D01*
X003582Y008534D02*
X003582Y008834D01*
X003507Y008995D02*
X003507Y009295D01*
X003507Y009145D02*
X003056Y009145D01*
X003206Y008995D01*
X003056Y007767D02*
X003507Y007767D01*
X005626Y005048D02*
X006077Y005048D01*
X006077Y004898D02*
X006077Y005198D01*
X006426Y005144D02*
X006426Y004994D01*
X006501Y004919D01*
X006501Y004759D02*
X006426Y004684D01*
X006426Y004458D01*
X006877Y004458D01*
X006727Y004458D02*
X006727Y004684D01*
X006651Y004759D01*
X006501Y004759D01*
X006727Y004608D02*
X006877Y004759D01*
X006877Y004919D02*
X006576Y005219D01*
X006501Y005219D01*
X006426Y005144D01*
X006877Y005219D02*
X006877Y004919D01*
X007626Y004973D02*
X007626Y005123D01*
X007701Y005198D01*
X007776Y005198D01*
X007851Y005123D01*
X007927Y005198D01*
X008002Y005198D01*
X008077Y005123D01*
X008077Y004973D01*
X008002Y004898D01*
X008077Y004738D02*
X007927Y004588D01*
X007927Y004663D02*
X007927Y004438D01*
X008077Y004438D02*
X007626Y004438D01*
X007626Y004663D01*
X007701Y004738D01*
X007851Y004738D01*
X007927Y004663D01*
X007701Y004898D02*
X007626Y004973D01*
X007851Y005048D02*
X007851Y005123D01*
X008626Y005123D02*
X008851Y004898D01*
X008851Y005198D01*
X008626Y005123D02*
X009077Y005123D01*
X009077Y004738D02*
X008927Y004588D01*
X008927Y004663D02*
X008927Y004438D01*
X009077Y004438D02*
X008626Y004438D01*
X008626Y004663D01*
X008701Y004738D01*
X008851Y004738D01*
X008927Y004663D01*
X007893Y003329D02*
X007667Y003104D01*
X007968Y003104D01*
X007893Y003329D02*
X007893Y002878D01*
X007507Y003104D02*
X007432Y003028D01*
X007207Y003028D01*
X007207Y002878D02*
X007207Y003329D01*
X007432Y003329D01*
X007507Y003254D01*
X007507Y003104D01*
X007047Y003329D02*
X006897Y003329D01*
X006972Y003329D02*
X006972Y002953D01*
X006897Y002878D01*
X006822Y002878D01*
X006747Y002953D01*
X006077Y004438D02*
X005626Y004438D01*
X005626Y004663D01*
X005701Y004738D01*
X005851Y004738D01*
X005927Y004663D01*
X005927Y004438D01*
X005927Y004588D02*
X006077Y004738D01*
X005776Y004898D02*
X005626Y005048D01*
X003582Y004998D02*
X003582Y004698D01*
X003432Y004537D02*
X003131Y004537D01*
X003056Y004462D01*
X003056Y004312D01*
X003131Y004237D01*
X003432Y004237D01*
X003507Y004312D01*
X003507Y004462D01*
X003432Y004537D01*
X003507Y004077D02*
X003056Y004077D01*
X003056Y003777D02*
X003507Y004077D01*
X003507Y003777D02*
X003056Y003777D01*
X003056Y003620D02*
X003056Y003470D01*
X003056Y003545D02*
X003507Y003545D01*
X003507Y003470D02*
X003507Y003620D01*
X003432Y003310D02*
X003056Y003310D01*
X003056Y003010D02*
X003432Y003010D01*
X003507Y003085D01*
X003507Y003235D01*
X003432Y003310D01*
X003432Y002849D02*
X003131Y002849D01*
X003056Y002774D01*
X003056Y002549D01*
X003507Y002549D01*
X003507Y002774D01*
X003432Y002849D01*
X003507Y002389D02*
X003357Y002239D01*
X003357Y002314D02*
X003357Y002089D01*
X003507Y002089D02*
X003056Y002089D01*
X003056Y002314D01*
X003131Y002389D01*
X003281Y002389D01*
X003357Y002314D01*
X003281Y001929D02*
X003281Y001628D01*
X003206Y001628D02*
X003056Y001778D01*
X003206Y001929D01*
X003507Y001929D01*
X003507Y001628D02*
X003206Y001628D01*
X008432Y008128D02*
X008507Y008203D01*
X008507Y008278D01*
X008432Y008354D01*
X008056Y008354D01*
X008056Y008429D02*
X008056Y008278D01*
X008056Y008589D02*
X008056Y008814D01*
X008131Y008889D01*
X008281Y008889D01*
X008357Y008814D01*
X008357Y008589D01*
X008507Y008589D02*
X008056Y008589D01*
X008131Y009049D02*
X008056Y009124D01*
X008056Y009274D01*
X008131Y009349D01*
X008206Y009349D01*
X008507Y009049D01*
X008507Y009349D01*
X010996Y009391D02*
X010996Y009617D01*
X011071Y009692D01*
X011221Y009692D01*
X011297Y009617D01*
X011297Y009391D01*
X011447Y009391D02*
X010996Y009391D01*
X010996Y009852D02*
X010996Y010077D01*
X011071Y010152D01*
X011221Y010152D01*
X011297Y010077D01*
X011297Y009852D01*
X011447Y009852D02*
X010996Y009852D01*
X011297Y010002D02*
X011447Y010152D01*
X011372Y010312D02*
X011447Y010387D01*
X011447Y010537D01*
X011372Y010612D01*
X011071Y010612D01*
X010996Y010537D01*
X010996Y010387D01*
X011071Y010312D01*
X011372Y010312D01*
X011522Y010772D02*
X011522Y011073D01*
X011447Y011233D02*
X010996Y011233D01*
X011146Y011383D01*
X010996Y011533D01*
X011447Y011533D01*
X011447Y011693D02*
X011447Y011843D01*
X011447Y011768D02*
X010996Y011768D01*
X010996Y011693D02*
X010996Y011843D01*
X010996Y012000D02*
X011447Y012300D01*
X010996Y012300D01*
X010996Y012461D02*
X010996Y012611D01*
X010996Y012536D02*
X011447Y012536D01*
X011447Y012461D02*
X011447Y012611D01*
X011522Y012768D02*
X011522Y013068D01*
X011426Y012958D02*
X011426Y013184D01*
X011501Y013259D01*
X011651Y013259D01*
X011727Y013184D01*
X011727Y012958D01*
X011826Y012894D02*
X011901Y012969D01*
X011976Y012969D01*
X012051Y012894D01*
X012127Y012969D01*
X012202Y012969D01*
X012277Y012894D01*
X012277Y012744D01*
X012202Y012669D01*
X012202Y012509D02*
X012127Y012509D01*
X012051Y012434D01*
X012051Y012283D01*
X011976Y012208D01*
X011901Y012208D01*
X011826Y012283D01*
X011826Y012434D01*
X011901Y012509D01*
X011901Y012669D02*
X011826Y012744D01*
X011826Y012894D01*
X011877Y012958D02*
X011426Y012958D01*
X011447Y013228D02*
X011146Y013528D01*
X011071Y013528D01*
X010996Y013453D01*
X010996Y013303D01*
X011071Y013228D01*
X011426Y013419D02*
X011426Y013719D01*
X011501Y013719D01*
X011802Y013419D01*
X011877Y013419D01*
X011877Y013259D02*
X011727Y013108D01*
X011447Y013228D02*
X011447Y013528D01*
X012051Y012894D02*
X012051Y012819D01*
X012202Y012509D02*
X012277Y012434D01*
X012277Y012283D01*
X012202Y012208D01*
X011447Y012000D02*
X010996Y012000D01*
X011522Y009231D02*
X011522Y008931D01*
X011372Y008771D02*
X011071Y008771D01*
X010996Y008696D01*
X010996Y008546D01*
X011071Y008471D01*
X011372Y008471D01*
X011447Y008546D01*
X011447Y008696D01*
X011372Y008771D01*
X011447Y008310D02*
X010996Y008310D01*
X010996Y008010D02*
X011447Y008310D01*
X011447Y008010D02*
X010996Y008010D01*
X010996Y007853D02*
X010996Y007703D01*
X010996Y007778D02*
X011447Y007778D01*
X011447Y007703D02*
X011447Y007853D01*
X011372Y007543D02*
X010996Y007543D01*
X010996Y007243D02*
X011372Y007243D01*
X011447Y007318D01*
X011447Y007468D01*
X011372Y007543D01*
X011372Y007083D02*
X011071Y007083D01*
X010996Y007008D01*
X010996Y006782D01*
X011447Y006782D01*
X011447Y007008D01*
X011372Y007083D01*
X011447Y006622D02*
X011297Y006472D01*
X011297Y006547D02*
X011297Y006322D01*
X011447Y006322D02*
X010996Y006322D01*
X010996Y006547D01*
X011071Y006622D01*
X011221Y006622D01*
X011297Y006547D01*
X011221Y006162D02*
X011221Y005862D01*
X011146Y005862D02*
X010996Y006012D01*
X011146Y006162D01*
X011447Y006162D01*
X011447Y005862D02*
X011146Y005862D01*
X013426Y008458D02*
X013426Y008684D01*
X013501Y008759D01*
X013651Y008759D01*
X013727Y008684D01*
X013727Y008458D01*
X013877Y008458D02*
X013426Y008458D01*
X013727Y008608D02*
X013877Y008759D01*
X013802Y008919D02*
X013877Y008994D01*
X013877Y009144D01*
X013802Y009219D01*
X013727Y009219D01*
X013651Y009144D01*
X013651Y008919D01*
X013802Y008919D01*
X013651Y008919D02*
X013501Y009069D01*
X013426Y009219D01*
X016806Y008584D02*
X016806Y008509D01*
X016881Y008434D01*
X017031Y008434D01*
X017106Y008358D01*
X017106Y008283D01*
X017031Y008208D01*
X016881Y008208D01*
X016806Y008283D01*
X016806Y008584D02*
X016881Y008659D01*
X017031Y008659D01*
X017106Y008584D01*
X017266Y008434D02*
X017567Y008434D01*
X017491Y008659D02*
X017491Y008208D01*
X017266Y008434D02*
X017491Y008659D01*
X018427Y007748D02*
X018427Y007448D01*
X018427Y007598D02*
X017976Y007598D01*
X018126Y007448D01*
X018051Y007288D02*
X017976Y007213D01*
X017976Y007063D01*
X018051Y006988D01*
X018352Y006988D01*
X018427Y007063D01*
X018427Y007213D01*
X018352Y007288D01*
X018427Y006831D02*
X018427Y006681D01*
X018427Y006756D02*
X017976Y006756D01*
X017976Y006681D02*
X017976Y006831D01*
X014893Y003079D02*
X014742Y003079D01*
X014667Y003004D01*
X014507Y003004D02*
X014432Y003079D01*
X014207Y003079D01*
X014207Y002628D01*
X014207Y002778D02*
X014432Y002778D01*
X014507Y002854D01*
X014507Y003004D01*
X014667Y002703D02*
X014742Y002628D01*
X014893Y002628D01*
X014968Y002703D01*
X014968Y002778D01*
X014893Y002854D01*
X014818Y002854D01*
X014893Y002854D02*
X014968Y002929D01*
X014968Y003004D01*
X014893Y003079D01*
X014047Y003079D02*
X013897Y003079D01*
X013972Y003079D02*
X013972Y002703D01*
X013897Y002628D01*
X013822Y002628D01*
X013747Y002703D01*
X017401Y012208D02*
X017326Y012283D01*
X017326Y012434D01*
X017401Y012509D01*
X017401Y012669D02*
X017326Y012744D01*
X017326Y012894D01*
X017401Y012969D01*
X017476Y012969D01*
X017777Y012669D01*
X017777Y012969D01*
X017702Y012509D02*
X017627Y012509D01*
X017551Y012434D01*
X017551Y012283D01*
X017476Y012208D01*
X017401Y012208D01*
X017702Y012208D02*
X017777Y012283D01*
X017777Y012434D01*
X017702Y012509D01*
X018051Y013688D02*
X018126Y013688D01*
X018201Y013763D01*
X018201Y013913D01*
X018277Y013988D01*
X018352Y013988D01*
X018427Y013913D01*
X018427Y013763D01*
X018352Y013688D01*
X018051Y013688D02*
X017976Y013763D01*
X017976Y013913D01*
X018051Y013988D01*
X017976Y014148D02*
X018201Y014148D01*
X018126Y014298D01*
X018126Y014373D01*
X018201Y014448D01*
X018352Y014448D01*
X018427Y014373D01*
X018427Y014223D01*
X018352Y014148D01*
X017976Y014148D02*
X017976Y014448D01*
X018131Y016458D02*
X018056Y016533D01*
X018131Y016458D02*
X018281Y016458D01*
X018356Y016533D01*
X018356Y016608D01*
X018281Y016684D01*
X018131Y016684D01*
X018056Y016759D01*
X018056Y016834D01*
X018131Y016909D01*
X018281Y016909D01*
X018356Y016834D01*
X018516Y016759D02*
X018666Y016909D01*
X018666Y016458D01*
X018516Y016458D02*
X018817Y016458D01*
X011087Y016484D02*
X010862Y016484D01*
X010787Y016559D01*
X010787Y016634D01*
X010862Y016709D01*
X011012Y016709D01*
X011087Y016634D01*
X011087Y016333D01*
X011012Y016258D01*
X010862Y016258D01*
X010787Y016333D01*
X010627Y016258D02*
X010477Y016408D01*
X010552Y016408D02*
X010327Y016408D01*
X010327Y016258D02*
X010327Y016709D01*
X010552Y016709D01*
X010627Y016634D01*
X010627Y016484D01*
X010552Y016408D01*
X010591Y017058D02*
X010516Y017133D01*
X010516Y017208D01*
X010591Y017284D01*
X010741Y017284D01*
X010817Y017208D01*
X010817Y017133D01*
X010741Y017058D01*
X010591Y017058D01*
X010591Y017284D02*
X010516Y017359D01*
X010516Y017434D01*
X010591Y017509D01*
X010741Y017509D01*
X010817Y017434D01*
X010817Y017359D01*
X010741Y017284D01*
X010356Y017284D02*
X010281Y017208D01*
X010056Y017208D01*
X010056Y017058D02*
X010056Y017509D01*
X010281Y017509D01*
X010356Y017434D01*
X010356Y017284D01*
X010206Y017208D02*
X010356Y017058D01*
X010456Y015759D02*
X010456Y015308D01*
X010306Y015308D02*
X010606Y015308D01*
X010766Y015383D02*
X011067Y015684D01*
X011067Y015383D01*
X010991Y015308D01*
X010841Y015308D01*
X010766Y015383D01*
X010766Y015684D01*
X010841Y015759D01*
X010991Y015759D01*
X011067Y015684D01*
X010456Y015759D02*
X010306Y015609D01*
X010146Y015684D02*
X010146Y015534D01*
X010071Y015458D01*
X009845Y015458D01*
X009845Y015308D02*
X009845Y015759D01*
X010071Y015759D01*
X010146Y015684D01*
X009996Y015458D02*
X010146Y015308D01*
X005468Y014878D02*
X005167Y014878D01*
X005318Y014878D02*
X005318Y015329D01*
X005167Y015179D01*
X005007Y015254D02*
X005007Y015104D01*
X004932Y015028D01*
X004707Y015028D01*
X004707Y014878D02*
X004707Y015329D01*
X004932Y015329D01*
X005007Y015254D01*
X004547Y015329D02*
X004397Y015329D01*
X004472Y015329D02*
X004472Y014953D01*
X004397Y014878D01*
X004322Y014878D01*
X004247Y014953D01*
X004062Y014630D02*
X004121Y014650D01*
X004178Y014673D01*
X004235Y014700D01*
X004289Y014731D01*
X004342Y014764D01*
X004392Y014801D01*
X004441Y014840D01*
X004486Y014883D01*
X004530Y014928D01*
X004570Y014975D01*
X004608Y015025D01*
X004643Y015077D01*
X004674Y015131D01*
X004702Y015186D01*
X004727Y015243D01*
X004748Y015302D01*
X004766Y015362D01*
X004781Y015423D01*
X004791Y015484D01*
X004798Y015546D01*
X004802Y015608D01*
X004801Y015671D01*
X004797Y015733D01*
X004639Y015733D01*
X004576Y016283D02*
X002927Y016283D01*
X002996Y016251D02*
X003071Y016176D01*
X003372Y016176D01*
X003447Y016251D01*
X003447Y016401D01*
X003372Y016476D01*
X003447Y016636D02*
X003447Y016862D01*
X003372Y016937D01*
X003071Y016937D01*
X002996Y016862D01*
X002996Y016636D01*
X003447Y016636D01*
X003071Y016476D02*
X002996Y016401D01*
X002996Y016251D01*
X003447Y016016D02*
X003447Y015716D01*
X002996Y015716D01*
X002864Y015733D02*
X002706Y015733D01*
X002216Y015359D02*
X002216Y014908D01*
X002066Y014908D02*
X002367Y014908D01*
X002066Y015209D02*
X002216Y015359D01*
X001906Y015359D02*
X001606Y015359D01*
X001756Y015359D02*
X001756Y014908D01*
X003639Y015733D02*
X003864Y015733D01*
X004577Y016283D02*
X004612Y016235D01*
X004645Y016185D01*
X004676Y016133D01*
X004703Y016079D01*
X004727Y016024D01*
X004747Y015967D01*
X004765Y015910D01*
X004779Y015852D01*
X004790Y015793D01*
X004797Y015733D01*
X003442Y014630D02*
X003382Y014650D01*
X003323Y014674D01*
X003266Y014702D01*
X003211Y014733D01*
X003157Y014768D01*
X003106Y014805D01*
X003057Y014846D01*
X003011Y014890D01*
X002967Y014936D01*
X002926Y014985D01*
X002888Y015036D01*
X002854Y015089D01*
X002822Y015145D01*
X002795Y015202D01*
X002770Y015261D01*
X002750Y015321D01*
X002732Y015382D01*
X002719Y015444D01*
X002710Y015507D01*
X002704Y015570D01*
X002702Y015634D01*
X002704Y015698D01*
X002710Y015761D01*
X002719Y015824D01*
X002733Y015886D01*
X002750Y015947D01*
X002771Y016007D01*
X002795Y016066D01*
X002823Y016123D01*
X002855Y016179D01*
X002890Y016232D01*
X002927Y016283D01*
X003146Y017097D02*
X002996Y017247D01*
X003447Y017247D01*
X003447Y017097D02*
X003447Y017397D01*
X003372Y017557D02*
X003221Y017557D01*
X003221Y017782D01*
X003297Y017857D01*
X003372Y017857D01*
X003447Y017782D01*
X003447Y017632D01*
X003372Y017557D01*
X003221Y017557D02*
X003071Y017707D01*
X002996Y017857D01*
X003071Y018018D02*
X002996Y018093D01*
X002996Y018243D01*
X003071Y018318D01*
X003372Y018018D01*
X003447Y018093D01*
X003447Y018243D01*
X003372Y018318D01*
X003071Y018318D01*
X003071Y018478D02*
X002996Y018553D01*
X002996Y018703D01*
X003071Y018778D01*
X003146Y018778D01*
X003447Y018478D01*
X003447Y018778D01*
X003372Y018018D02*
X003071Y018018D01*
D14*
X006118Y017612D02*
X006120Y017653D01*
X006126Y017694D01*
X006136Y017734D01*
X006149Y017773D01*
X006166Y017810D01*
X006187Y017846D01*
X006211Y017880D01*
X006238Y017911D01*
X006267Y017939D01*
X006300Y017965D01*
X006334Y017987D01*
X006371Y018006D01*
X006409Y018021D01*
X006449Y018033D01*
X006489Y018041D01*
X006530Y018045D01*
X006572Y018045D01*
X006613Y018041D01*
X006653Y018033D01*
X006693Y018021D01*
X006731Y018006D01*
X006767Y017987D01*
X006802Y017965D01*
X006835Y017939D01*
X006864Y017911D01*
X006891Y017880D01*
X006915Y017846D01*
X006936Y017810D01*
X006953Y017773D01*
X006966Y017734D01*
X006976Y017694D01*
X006982Y017653D01*
X006984Y017612D01*
X006982Y017571D01*
X006976Y017530D01*
X006966Y017490D01*
X006953Y017451D01*
X006936Y017414D01*
X006915Y017378D01*
X006891Y017344D01*
X006864Y017313D01*
X006835Y017285D01*
X006802Y017259D01*
X006768Y017237D01*
X006731Y017218D01*
X006693Y017203D01*
X006653Y017191D01*
X006613Y017183D01*
X006572Y017179D01*
X006530Y017179D01*
X006489Y017183D01*
X006449Y017191D01*
X006409Y017203D01*
X006371Y017218D01*
X006335Y017237D01*
X006300Y017259D01*
X006267Y017285D01*
X006238Y017313D01*
X006211Y017344D01*
X006187Y017378D01*
X006166Y017414D01*
X006149Y017451D01*
X006136Y017490D01*
X006126Y017530D01*
X006120Y017571D01*
X006118Y017612D01*
X008752Y017733D02*
X008752Y017033D01*
X008754Y017016D01*
X008758Y016999D01*
X008765Y016983D01*
X008775Y016969D01*
X008788Y016956D01*
X008802Y016946D01*
X008818Y016939D01*
X008835Y016935D01*
X008852Y016933D01*
X009002Y016933D01*
X009052Y016983D01*
X010952Y016983D01*
X011002Y016933D01*
X011152Y016933D01*
X011152Y016833D02*
X011002Y016833D01*
X010952Y016783D01*
X009052Y016783D01*
X009002Y016833D01*
X008852Y016833D01*
X008835Y016831D01*
X008818Y016827D01*
X008802Y016820D01*
X008788Y016810D01*
X008775Y016797D01*
X008765Y016783D01*
X008758Y016767D01*
X008754Y016750D01*
X008752Y016733D01*
X008752Y016033D01*
X008754Y016016D01*
X008758Y015999D01*
X008765Y015983D01*
X008775Y015969D01*
X008788Y015956D01*
X008802Y015946D01*
X008818Y015939D01*
X008835Y015935D01*
X008852Y015933D01*
X009002Y015933D01*
X009052Y015983D01*
X010952Y015983D01*
X011002Y015933D01*
X011152Y015933D01*
X011152Y015833D02*
X011002Y015833D01*
X010952Y015783D01*
X009052Y015783D01*
X009002Y015833D01*
X008852Y015833D01*
X008835Y015831D01*
X008818Y015827D01*
X008802Y015820D01*
X008788Y015810D01*
X008775Y015797D01*
X008765Y015783D01*
X008758Y015767D01*
X008754Y015750D01*
X008752Y015733D01*
X008752Y015033D01*
X008754Y015016D01*
X008758Y014999D01*
X008765Y014983D01*
X008775Y014969D01*
X008788Y014956D01*
X008802Y014946D01*
X008818Y014939D01*
X008835Y014935D01*
X008852Y014933D01*
X009002Y014933D01*
X009052Y014983D01*
X010952Y014983D01*
X011002Y014933D01*
X011152Y014933D01*
X011169Y014935D01*
X011186Y014939D01*
X011202Y014946D01*
X011216Y014956D01*
X011229Y014969D01*
X011239Y014983D01*
X011246Y014999D01*
X011250Y015016D01*
X011252Y015033D01*
X011252Y015733D01*
X011250Y015750D01*
X011246Y015767D01*
X011239Y015783D01*
X011229Y015797D01*
X011216Y015810D01*
X011202Y015820D01*
X011186Y015827D01*
X011169Y015831D01*
X011152Y015833D01*
X011152Y015933D02*
X011169Y015935D01*
X011186Y015939D01*
X011202Y015946D01*
X011216Y015956D01*
X011229Y015969D01*
X011239Y015983D01*
X011246Y015999D01*
X011250Y016016D01*
X011252Y016033D01*
X011252Y016733D01*
X011250Y016750D01*
X011246Y016767D01*
X011239Y016783D01*
X011229Y016797D01*
X011216Y016810D01*
X011202Y016820D01*
X011186Y016827D01*
X011169Y016831D01*
X011152Y016833D01*
X011152Y016933D02*
X011169Y016935D01*
X011186Y016939D01*
X011202Y016946D01*
X011216Y016956D01*
X011229Y016969D01*
X011239Y016983D01*
X011246Y016999D01*
X011250Y017016D01*
X011252Y017033D01*
X011252Y017733D01*
X011250Y017750D01*
X011246Y017767D01*
X011239Y017783D01*
X011229Y017797D01*
X011216Y017810D01*
X011202Y017820D01*
X011186Y017827D01*
X011169Y017831D01*
X011152Y017833D01*
X011002Y017833D01*
X010952Y017783D01*
X009052Y017783D01*
X009002Y017833D01*
X008852Y017833D01*
X008835Y017831D01*
X008818Y017827D01*
X008802Y017820D01*
X008788Y017810D01*
X008775Y017797D01*
X008765Y017783D01*
X008758Y017767D01*
X008754Y017750D01*
X008752Y017733D01*
X012552Y014233D02*
X012552Y013883D01*
X012552Y012883D01*
X012552Y012533D01*
X013352Y012183D02*
X013452Y012183D01*
X013452Y012083D01*
X014052Y012083D01*
X014052Y012183D01*
X014152Y012183D01*
X014952Y012533D02*
X014952Y012883D01*
X014952Y013833D01*
X014952Y014233D01*
X015302Y014233D02*
X015302Y013883D01*
X015302Y012933D01*
X015302Y012533D01*
X016102Y012183D02*
X016202Y012183D01*
X016202Y012083D01*
X016802Y012083D01*
X016802Y012183D01*
X016902Y012183D01*
X017002Y011333D02*
X016052Y011333D01*
X015652Y011333D01*
X015302Y010533D02*
X015302Y010433D01*
X015202Y010433D01*
X015202Y009833D01*
X015302Y009833D01*
X015302Y009733D01*
X015652Y008933D02*
X016002Y008933D01*
X017002Y008933D01*
X017352Y008933D01*
X017702Y009733D02*
X017702Y009833D01*
X017802Y009833D01*
X017802Y010433D01*
X017702Y010433D01*
X017702Y010533D01*
X017352Y011333D02*
X017002Y011333D01*
X017702Y012533D02*
X017702Y012883D01*
X017702Y013883D01*
X017702Y014233D01*
X018052Y014233D02*
X018052Y013883D01*
X018052Y012883D01*
X018052Y012533D01*
X018852Y012183D02*
X018952Y012183D01*
X018952Y012083D01*
X019552Y012083D01*
X019552Y012183D01*
X019652Y012183D01*
X020452Y012533D02*
X020452Y012883D01*
X020452Y013833D01*
X020452Y014233D01*
X019652Y014583D02*
X019552Y014583D01*
X019552Y014683D01*
X018952Y014683D01*
X018952Y014583D01*
X018852Y014583D01*
X019152Y013383D02*
X019154Y013403D01*
X019160Y013421D01*
X019169Y013439D01*
X019181Y013454D01*
X019196Y013466D01*
X019214Y013475D01*
X019232Y013481D01*
X019252Y013483D01*
X019272Y013481D01*
X019290Y013475D01*
X019308Y013466D01*
X019323Y013454D01*
X019335Y013439D01*
X019344Y013421D01*
X019350Y013403D01*
X019352Y013383D01*
X019350Y013363D01*
X019344Y013345D01*
X019335Y013327D01*
X019323Y013312D01*
X019308Y013300D01*
X019290Y013291D01*
X019272Y013285D01*
X019252Y013283D01*
X019232Y013285D01*
X019214Y013291D01*
X019196Y013300D01*
X019181Y013312D01*
X019169Y013327D01*
X019160Y013345D01*
X019154Y013363D01*
X019152Y013383D01*
X018552Y013383D02*
X018554Y013435D01*
X018560Y013487D01*
X018570Y013539D01*
X018583Y013589D01*
X018600Y013639D01*
X018621Y013687D01*
X018646Y013733D01*
X018674Y013777D01*
X018705Y013819D01*
X018739Y013859D01*
X018776Y013896D01*
X018816Y013930D01*
X018858Y013961D01*
X018902Y013989D01*
X018948Y014014D01*
X018996Y014035D01*
X019046Y014052D01*
X019096Y014065D01*
X019148Y014075D01*
X019200Y014081D01*
X019252Y014083D01*
X019304Y014081D01*
X019356Y014075D01*
X019408Y014065D01*
X019458Y014052D01*
X019508Y014035D01*
X019556Y014014D01*
X019602Y013989D01*
X019646Y013961D01*
X019688Y013930D01*
X019728Y013896D01*
X019765Y013859D01*
X019799Y013819D01*
X019830Y013777D01*
X019858Y013733D01*
X019883Y013687D01*
X019904Y013639D01*
X019921Y013589D01*
X019934Y013539D01*
X019944Y013487D01*
X019950Y013435D01*
X019952Y013383D01*
X019950Y013331D01*
X019944Y013279D01*
X019934Y013227D01*
X019921Y013177D01*
X019904Y013127D01*
X019883Y013079D01*
X019858Y013033D01*
X019830Y012989D01*
X019799Y012947D01*
X019765Y012907D01*
X019728Y012870D01*
X019688Y012836D01*
X019646Y012805D01*
X019602Y012777D01*
X019556Y012752D01*
X019508Y012731D01*
X019458Y012714D01*
X019408Y012701D01*
X019356Y012691D01*
X019304Y012685D01*
X019252Y012683D01*
X019200Y012685D01*
X019148Y012691D01*
X019096Y012701D01*
X019046Y012714D01*
X018996Y012731D01*
X018948Y012752D01*
X018902Y012777D01*
X018858Y012805D01*
X018816Y012836D01*
X018776Y012870D01*
X018739Y012907D01*
X018705Y012947D01*
X018674Y012989D01*
X018646Y013033D01*
X018621Y013079D01*
X018600Y013127D01*
X018583Y013177D01*
X018570Y013227D01*
X018560Y013279D01*
X018554Y013331D01*
X018552Y013383D01*
X016902Y014583D02*
X016802Y014583D01*
X016802Y014683D01*
X016202Y014683D01*
X016202Y014583D01*
X016102Y014583D01*
X016002Y015433D02*
X015652Y015433D01*
X016002Y015433D02*
X017002Y015433D01*
X017352Y015433D01*
X017702Y016233D02*
X017702Y016333D01*
X017802Y016333D01*
X017802Y016933D01*
X017702Y016933D01*
X017702Y017033D01*
X017352Y017833D02*
X017002Y017833D01*
X016052Y017833D01*
X015652Y017833D01*
X015302Y017033D02*
X015302Y016933D01*
X015202Y016933D01*
X015202Y016333D01*
X015302Y016333D01*
X015302Y016233D01*
X016402Y016633D02*
X016404Y016653D01*
X016410Y016671D01*
X016419Y016689D01*
X016431Y016704D01*
X016446Y016716D01*
X016464Y016725D01*
X016482Y016731D01*
X016502Y016733D01*
X016522Y016731D01*
X016540Y016725D01*
X016558Y016716D01*
X016573Y016704D01*
X016585Y016689D01*
X016594Y016671D01*
X016600Y016653D01*
X016602Y016633D01*
X016600Y016613D01*
X016594Y016595D01*
X016585Y016577D01*
X016573Y016562D01*
X016558Y016550D01*
X016540Y016541D01*
X016522Y016535D01*
X016502Y016533D01*
X016482Y016535D01*
X016464Y016541D01*
X016446Y016550D01*
X016431Y016562D01*
X016419Y016577D01*
X016410Y016595D01*
X016404Y016613D01*
X016402Y016633D01*
X015802Y016633D02*
X015804Y016685D01*
X015810Y016737D01*
X015820Y016789D01*
X015833Y016839D01*
X015850Y016889D01*
X015871Y016937D01*
X015896Y016983D01*
X015924Y017027D01*
X015955Y017069D01*
X015989Y017109D01*
X016026Y017146D01*
X016066Y017180D01*
X016108Y017211D01*
X016152Y017239D01*
X016198Y017264D01*
X016246Y017285D01*
X016296Y017302D01*
X016346Y017315D01*
X016398Y017325D01*
X016450Y017331D01*
X016502Y017333D01*
X016554Y017331D01*
X016606Y017325D01*
X016658Y017315D01*
X016708Y017302D01*
X016758Y017285D01*
X016806Y017264D01*
X016852Y017239D01*
X016896Y017211D01*
X016938Y017180D01*
X016978Y017146D01*
X017015Y017109D01*
X017049Y017069D01*
X017080Y017027D01*
X017108Y016983D01*
X017133Y016937D01*
X017154Y016889D01*
X017171Y016839D01*
X017184Y016789D01*
X017194Y016737D01*
X017200Y016685D01*
X017202Y016633D01*
X017200Y016581D01*
X017194Y016529D01*
X017184Y016477D01*
X017171Y016427D01*
X017154Y016377D01*
X017133Y016329D01*
X017108Y016283D01*
X017080Y016239D01*
X017049Y016197D01*
X017015Y016157D01*
X016978Y016120D01*
X016938Y016086D01*
X016896Y016055D01*
X016852Y016027D01*
X016806Y016002D01*
X016758Y015981D01*
X016708Y015964D01*
X016658Y015951D01*
X016606Y015941D01*
X016554Y015935D01*
X016502Y015933D01*
X016450Y015935D01*
X016398Y015941D01*
X016346Y015951D01*
X016296Y015964D01*
X016246Y015981D01*
X016198Y016002D01*
X016152Y016027D01*
X016108Y016055D01*
X016066Y016086D01*
X016026Y016120D01*
X015989Y016157D01*
X015955Y016197D01*
X015924Y016239D01*
X015896Y016283D01*
X015871Y016329D01*
X015850Y016377D01*
X015833Y016427D01*
X015820Y016477D01*
X015810Y016529D01*
X015804Y016581D01*
X015802Y016633D01*
X014052Y014683D02*
X013452Y014683D01*
X013452Y014583D01*
X013352Y014583D01*
X014052Y014583D02*
X014152Y014583D01*
X014052Y014583D02*
X014052Y014683D01*
X013652Y013383D02*
X013654Y013403D01*
X013660Y013421D01*
X013669Y013439D01*
X013681Y013454D01*
X013696Y013466D01*
X013714Y013475D01*
X013732Y013481D01*
X013752Y013483D01*
X013772Y013481D01*
X013790Y013475D01*
X013808Y013466D01*
X013823Y013454D01*
X013835Y013439D01*
X013844Y013421D01*
X013850Y013403D01*
X013852Y013383D01*
X013850Y013363D01*
X013844Y013345D01*
X013835Y013327D01*
X013823Y013312D01*
X013808Y013300D01*
X013790Y013291D01*
X013772Y013285D01*
X013752Y013283D01*
X013732Y013285D01*
X013714Y013291D01*
X013696Y013300D01*
X013681Y013312D01*
X013669Y013327D01*
X013660Y013345D01*
X013654Y013363D01*
X013652Y013383D01*
X013052Y013383D02*
X013054Y013435D01*
X013060Y013487D01*
X013070Y013539D01*
X013083Y013589D01*
X013100Y013639D01*
X013121Y013687D01*
X013146Y013733D01*
X013174Y013777D01*
X013205Y013819D01*
X013239Y013859D01*
X013276Y013896D01*
X013316Y013930D01*
X013358Y013961D01*
X013402Y013989D01*
X013448Y014014D01*
X013496Y014035D01*
X013546Y014052D01*
X013596Y014065D01*
X013648Y014075D01*
X013700Y014081D01*
X013752Y014083D01*
X013804Y014081D01*
X013856Y014075D01*
X013908Y014065D01*
X013958Y014052D01*
X014008Y014035D01*
X014056Y014014D01*
X014102Y013989D01*
X014146Y013961D01*
X014188Y013930D01*
X014228Y013896D01*
X014265Y013859D01*
X014299Y013819D01*
X014330Y013777D01*
X014358Y013733D01*
X014383Y013687D01*
X014404Y013639D01*
X014421Y013589D01*
X014434Y013539D01*
X014444Y013487D01*
X014450Y013435D01*
X014452Y013383D01*
X014450Y013331D01*
X014444Y013279D01*
X014434Y013227D01*
X014421Y013177D01*
X014404Y013127D01*
X014383Y013079D01*
X014358Y013033D01*
X014330Y012989D01*
X014299Y012947D01*
X014265Y012907D01*
X014228Y012870D01*
X014188Y012836D01*
X014146Y012805D01*
X014102Y012777D01*
X014056Y012752D01*
X014008Y012731D01*
X013958Y012714D01*
X013908Y012701D01*
X013856Y012691D01*
X013804Y012685D01*
X013752Y012683D01*
X013700Y012685D01*
X013648Y012691D01*
X013596Y012701D01*
X013546Y012714D01*
X013496Y012731D01*
X013448Y012752D01*
X013402Y012777D01*
X013358Y012805D01*
X013316Y012836D01*
X013276Y012870D01*
X013239Y012907D01*
X013205Y012947D01*
X013174Y012989D01*
X013146Y013033D01*
X013121Y013079D01*
X013100Y013127D01*
X013083Y013177D01*
X013070Y013227D01*
X013060Y013279D01*
X013054Y013331D01*
X013052Y013383D01*
X012202Y013633D02*
X012202Y013783D01*
X012200Y013800D01*
X012196Y013817D01*
X012189Y013833D01*
X012179Y013847D01*
X012166Y013860D01*
X012152Y013870D01*
X012136Y013877D01*
X012119Y013881D01*
X012102Y013883D01*
X011402Y013883D01*
X011385Y013881D01*
X011368Y013877D01*
X011352Y013870D01*
X011338Y013860D01*
X011325Y013847D01*
X011315Y013833D01*
X011308Y013817D01*
X011304Y013800D01*
X011302Y013783D01*
X011302Y013633D01*
X011352Y013583D01*
X011352Y011683D01*
X011302Y011633D01*
X011302Y011483D01*
X011304Y011466D01*
X011308Y011449D01*
X011315Y011433D01*
X011325Y011419D01*
X011338Y011406D01*
X011352Y011396D01*
X011368Y011389D01*
X011385Y011385D01*
X011402Y011383D01*
X012102Y011383D01*
X012119Y011385D01*
X012136Y011389D01*
X012152Y011396D01*
X012166Y011406D01*
X012179Y011419D01*
X012189Y011433D01*
X012196Y011449D01*
X012200Y011466D01*
X012202Y011483D01*
X012202Y011633D01*
X012152Y011683D01*
X012152Y013583D01*
X012202Y013633D01*
X013402Y010883D02*
X014102Y010883D01*
X014119Y010881D01*
X014136Y010877D01*
X014152Y010870D01*
X014166Y010860D01*
X014179Y010847D01*
X014189Y010833D01*
X014196Y010817D01*
X014200Y010800D01*
X014202Y010783D01*
X014202Y010633D01*
X014152Y010583D01*
X014152Y008683D01*
X014202Y008633D01*
X014202Y008483D01*
X014200Y008466D01*
X014196Y008449D01*
X014189Y008433D01*
X014179Y008419D01*
X014166Y008406D01*
X014152Y008396D01*
X014136Y008389D01*
X014119Y008385D01*
X014102Y008383D01*
X013402Y008383D01*
X013385Y008385D01*
X013368Y008389D01*
X013352Y008396D01*
X013338Y008406D01*
X013325Y008419D01*
X013315Y008433D01*
X013308Y008449D01*
X013304Y008466D01*
X013302Y008483D01*
X013302Y008633D01*
X013352Y008683D01*
X013352Y010583D01*
X013302Y010633D01*
X013302Y010783D01*
X013304Y010800D01*
X013308Y010817D01*
X013315Y010833D01*
X013325Y010847D01*
X013338Y010860D01*
X013352Y010870D01*
X013368Y010877D01*
X013385Y010881D01*
X013402Y010883D01*
X012752Y009883D02*
X011252Y009883D01*
X011002Y009633D01*
X011002Y009133D01*
X011252Y008883D01*
X012752Y008883D01*
X013002Y009133D01*
X013002Y009633D01*
X012752Y009883D01*
X012752Y008883D02*
X013002Y008633D01*
X013002Y008133D01*
X012752Y007883D01*
X011252Y007883D01*
X011002Y008133D01*
X011002Y008633D01*
X011252Y008883D01*
X011252Y007883D02*
X011002Y007633D01*
X011002Y007133D01*
X011252Y006883D01*
X012752Y006883D01*
X013002Y007133D01*
X013002Y007633D01*
X012752Y007883D01*
X012752Y006883D02*
X013002Y006633D01*
X013002Y006133D01*
X012752Y005883D01*
X011252Y005883D01*
X011002Y006133D01*
X011002Y006633D01*
X011252Y006883D01*
X011252Y005883D02*
X011002Y005633D01*
X011002Y005133D01*
X011252Y004883D01*
X012752Y004883D01*
X013002Y005133D01*
X013002Y005633D01*
X012752Y005883D01*
X015571Y005653D02*
X015571Y008113D01*
X016933Y008113D01*
X016933Y005653D01*
X015571Y005653D01*
X016402Y010133D02*
X016404Y010153D01*
X016410Y010171D01*
X016419Y010189D01*
X016431Y010204D01*
X016446Y010216D01*
X016464Y010225D01*
X016482Y010231D01*
X016502Y010233D01*
X016522Y010231D01*
X016540Y010225D01*
X016558Y010216D01*
X016573Y010204D01*
X016585Y010189D01*
X016594Y010171D01*
X016600Y010153D01*
X016602Y010133D01*
X016600Y010113D01*
X016594Y010095D01*
X016585Y010077D01*
X016573Y010062D01*
X016558Y010050D01*
X016540Y010041D01*
X016522Y010035D01*
X016502Y010033D01*
X016482Y010035D01*
X016464Y010041D01*
X016446Y010050D01*
X016431Y010062D01*
X016419Y010077D01*
X016410Y010095D01*
X016404Y010113D01*
X016402Y010133D01*
X015802Y010133D02*
X015804Y010185D01*
X015810Y010237D01*
X015820Y010289D01*
X015833Y010339D01*
X015850Y010389D01*
X015871Y010437D01*
X015896Y010483D01*
X015924Y010527D01*
X015955Y010569D01*
X015989Y010609D01*
X016026Y010646D01*
X016066Y010680D01*
X016108Y010711D01*
X016152Y010739D01*
X016198Y010764D01*
X016246Y010785D01*
X016296Y010802D01*
X016346Y010815D01*
X016398Y010825D01*
X016450Y010831D01*
X016502Y010833D01*
X016554Y010831D01*
X016606Y010825D01*
X016658Y010815D01*
X016708Y010802D01*
X016758Y010785D01*
X016806Y010764D01*
X016852Y010739D01*
X016896Y010711D01*
X016938Y010680D01*
X016978Y010646D01*
X017015Y010609D01*
X017049Y010569D01*
X017080Y010527D01*
X017108Y010483D01*
X017133Y010437D01*
X017154Y010389D01*
X017171Y010339D01*
X017184Y010289D01*
X017194Y010237D01*
X017200Y010185D01*
X017202Y010133D01*
X017200Y010081D01*
X017194Y010029D01*
X017184Y009977D01*
X017171Y009927D01*
X017154Y009877D01*
X017133Y009829D01*
X017108Y009783D01*
X017080Y009739D01*
X017049Y009697D01*
X017015Y009657D01*
X016978Y009620D01*
X016938Y009586D01*
X016896Y009555D01*
X016852Y009527D01*
X016806Y009502D01*
X016758Y009481D01*
X016708Y009464D01*
X016658Y009451D01*
X016606Y009441D01*
X016554Y009435D01*
X016502Y009433D01*
X016450Y009435D01*
X016398Y009441D01*
X016346Y009451D01*
X016296Y009464D01*
X016246Y009481D01*
X016198Y009502D01*
X016152Y009527D01*
X016108Y009555D01*
X016066Y009586D01*
X016026Y009620D01*
X015989Y009657D01*
X015955Y009697D01*
X015924Y009739D01*
X015896Y009783D01*
X015871Y009829D01*
X015850Y009877D01*
X015833Y009927D01*
X015820Y009977D01*
X015810Y010029D01*
X015804Y010081D01*
X015802Y010133D01*
X016402Y013383D02*
X016404Y013403D01*
X016410Y013421D01*
X016419Y013439D01*
X016431Y013454D01*
X016446Y013466D01*
X016464Y013475D01*
X016482Y013481D01*
X016502Y013483D01*
X016522Y013481D01*
X016540Y013475D01*
X016558Y013466D01*
X016573Y013454D01*
X016585Y013439D01*
X016594Y013421D01*
X016600Y013403D01*
X016602Y013383D01*
X016600Y013363D01*
X016594Y013345D01*
X016585Y013327D01*
X016573Y013312D01*
X016558Y013300D01*
X016540Y013291D01*
X016522Y013285D01*
X016502Y013283D01*
X016482Y013285D01*
X016464Y013291D01*
X016446Y013300D01*
X016431Y013312D01*
X016419Y013327D01*
X016410Y013345D01*
X016404Y013363D01*
X016402Y013383D01*
X015802Y013383D02*
X015804Y013435D01*
X015810Y013487D01*
X015820Y013539D01*
X015833Y013589D01*
X015850Y013639D01*
X015871Y013687D01*
X015896Y013733D01*
X015924Y013777D01*
X015955Y013819D01*
X015989Y013859D01*
X016026Y013896D01*
X016066Y013930D01*
X016108Y013961D01*
X016152Y013989D01*
X016198Y014014D01*
X016246Y014035D01*
X016296Y014052D01*
X016346Y014065D01*
X016398Y014075D01*
X016450Y014081D01*
X016502Y014083D01*
X016554Y014081D01*
X016606Y014075D01*
X016658Y014065D01*
X016708Y014052D01*
X016758Y014035D01*
X016806Y014014D01*
X016852Y013989D01*
X016896Y013961D01*
X016938Y013930D01*
X016978Y013896D01*
X017015Y013859D01*
X017049Y013819D01*
X017080Y013777D01*
X017108Y013733D01*
X017133Y013687D01*
X017154Y013639D01*
X017171Y013589D01*
X017184Y013539D01*
X017194Y013487D01*
X017200Y013435D01*
X017202Y013383D01*
X017200Y013331D01*
X017194Y013279D01*
X017184Y013227D01*
X017171Y013177D01*
X017154Y013127D01*
X017133Y013079D01*
X017108Y013033D01*
X017080Y012989D01*
X017049Y012947D01*
X017015Y012907D01*
X016978Y012870D01*
X016938Y012836D01*
X016896Y012805D01*
X016852Y012777D01*
X016806Y012752D01*
X016758Y012731D01*
X016708Y012714D01*
X016658Y012701D01*
X016606Y012691D01*
X016554Y012685D01*
X016502Y012683D01*
X016450Y012685D01*
X016398Y012691D01*
X016346Y012701D01*
X016296Y012714D01*
X016246Y012731D01*
X016198Y012752D01*
X016152Y012777D01*
X016108Y012805D01*
X016066Y012836D01*
X016026Y012870D01*
X015989Y012907D01*
X015955Y012947D01*
X015924Y012989D01*
X015896Y013033D01*
X015871Y013079D01*
X015850Y013127D01*
X015833Y013177D01*
X015820Y013227D01*
X015810Y013279D01*
X015804Y013331D01*
X015802Y013383D01*
X009202Y006783D02*
X009202Y006633D01*
X009152Y006583D01*
X009152Y004683D01*
X009202Y004633D01*
X009202Y004483D01*
X009200Y004466D01*
X009196Y004449D01*
X009189Y004433D01*
X009179Y004419D01*
X009166Y004406D01*
X009152Y004396D01*
X009136Y004389D01*
X009119Y004385D01*
X009102Y004383D01*
X008402Y004383D01*
X008385Y004385D01*
X008368Y004389D01*
X008352Y004396D01*
X008338Y004406D01*
X008325Y004419D01*
X008315Y004433D01*
X008308Y004449D01*
X008304Y004466D01*
X008302Y004483D01*
X008302Y004633D01*
X008352Y004683D01*
X008352Y006583D01*
X008302Y006633D01*
X008302Y006783D01*
X008304Y006800D01*
X008308Y006817D01*
X008315Y006833D01*
X008325Y006847D01*
X008338Y006860D01*
X008352Y006870D01*
X008368Y006877D01*
X008385Y006881D01*
X008402Y006883D01*
X009102Y006883D01*
X009119Y006881D01*
X009136Y006877D01*
X009152Y006870D01*
X009166Y006860D01*
X009179Y006847D01*
X009189Y006833D01*
X009196Y006817D01*
X009200Y006800D01*
X009202Y006783D01*
X008202Y006783D02*
X008202Y006633D01*
X008152Y006583D01*
X008152Y004683D01*
X008202Y004633D01*
X008202Y004483D01*
X008200Y004466D01*
X008196Y004449D01*
X008189Y004433D01*
X008179Y004419D01*
X008166Y004406D01*
X008152Y004396D01*
X008136Y004389D01*
X008119Y004385D01*
X008102Y004383D01*
X007402Y004383D01*
X007385Y004385D01*
X007368Y004389D01*
X007352Y004396D01*
X007338Y004406D01*
X007325Y004419D01*
X007315Y004433D01*
X007308Y004449D01*
X007304Y004466D01*
X007302Y004483D01*
X007302Y004633D01*
X007352Y004683D01*
X007352Y006583D01*
X007302Y006633D01*
X007302Y006783D01*
X007304Y006800D01*
X007308Y006817D01*
X007315Y006833D01*
X007325Y006847D01*
X007338Y006860D01*
X007352Y006870D01*
X007368Y006877D01*
X007385Y006881D01*
X007402Y006883D01*
X008102Y006883D01*
X008119Y006881D01*
X008136Y006877D01*
X008152Y006870D01*
X008166Y006860D01*
X008179Y006847D01*
X008189Y006833D01*
X008196Y006817D01*
X008200Y006800D01*
X008202Y006783D01*
X007202Y006783D02*
X007202Y006633D01*
X007152Y006583D01*
X007152Y004683D01*
X007202Y004633D01*
X007202Y004483D01*
X007200Y004466D01*
X007196Y004449D01*
X007189Y004433D01*
X007179Y004419D01*
X007166Y004406D01*
X007152Y004396D01*
X007136Y004389D01*
X007119Y004385D01*
X007102Y004383D01*
X006402Y004383D01*
X006385Y004385D01*
X006368Y004389D01*
X006352Y004396D01*
X006338Y004406D01*
X006325Y004419D01*
X006315Y004433D01*
X006308Y004449D01*
X006304Y004466D01*
X006302Y004483D01*
X006302Y004633D01*
X006352Y004683D01*
X006352Y006583D01*
X006302Y006633D01*
X006302Y006783D01*
X006304Y006800D01*
X006308Y006817D01*
X006315Y006833D01*
X006325Y006847D01*
X006338Y006860D01*
X006352Y006870D01*
X006368Y006877D01*
X006385Y006881D01*
X006402Y006883D01*
X007102Y006883D01*
X007119Y006881D01*
X007136Y006877D01*
X007152Y006870D01*
X007166Y006860D01*
X007179Y006847D01*
X007189Y006833D01*
X007196Y006817D01*
X007200Y006800D01*
X007202Y006783D01*
X006202Y006783D02*
X006202Y006633D01*
X006152Y006583D01*
X006152Y004683D01*
X006202Y004633D01*
X006202Y004483D01*
X006200Y004466D01*
X006196Y004449D01*
X006189Y004433D01*
X006179Y004419D01*
X006166Y004406D01*
X006152Y004396D01*
X006136Y004389D01*
X006119Y004385D01*
X006102Y004383D01*
X005402Y004383D01*
X005385Y004385D01*
X005368Y004389D01*
X005352Y004396D01*
X005338Y004406D01*
X005325Y004419D01*
X005315Y004433D01*
X005308Y004449D01*
X005304Y004466D01*
X005302Y004483D01*
X005302Y004633D01*
X005352Y004683D01*
X005352Y006583D01*
X005302Y006633D01*
X005302Y006783D01*
X005304Y006800D01*
X005308Y006817D01*
X005315Y006833D01*
X005325Y006847D01*
X005338Y006860D01*
X005352Y006870D01*
X005368Y006877D01*
X005385Y006881D01*
X005402Y006883D01*
X006102Y006883D01*
X006119Y006881D01*
X006136Y006877D01*
X006152Y006870D01*
X006166Y006860D01*
X006179Y006847D01*
X006189Y006833D01*
X006196Y006817D01*
X006200Y006800D01*
X006202Y006783D01*
X022243Y004070D02*
X022349Y003963D01*
X022456Y003963D01*
X022563Y004070D01*
X022563Y004604D01*
X022456Y004604D02*
X022670Y004604D01*
X022887Y004390D02*
X023101Y004604D01*
X023101Y003963D01*
X023314Y003963D02*
X022887Y003963D01*
D15*
X013752Y008213D03*
X013752Y011053D03*
X011752Y011213D03*
X011752Y014053D03*
X008752Y007053D03*
X007752Y007053D03*
X006752Y007053D03*
X005752Y007053D03*
X005752Y004213D03*
X006752Y004213D03*
X007752Y004213D03*
X008752Y004213D03*
D16*
X011502Y003383D02*
X011502Y001633D01*
X013502Y001633D01*
X013502Y000883D01*
X011502Y000883D01*
X011502Y001633D01*
X011502Y003383D02*
X013502Y003383D01*
X013502Y001633D01*
X018502Y005133D02*
X018502Y009133D01*
X020252Y009133D01*
X020252Y005133D01*
X018502Y005133D01*
X020252Y005133D02*
X021002Y005133D01*
X021002Y009133D01*
X020252Y009133D01*
X019252Y018383D02*
X015252Y018383D01*
X015252Y020133D01*
X019252Y020133D01*
X019252Y018383D01*
X019252Y020133D02*
X019252Y020883D01*
X015252Y020883D01*
X015252Y020133D01*
X014252Y020133D02*
X011252Y020133D01*
X011252Y020883D01*
X014252Y020883D01*
X014252Y020133D01*
X014252Y018383D01*
X011252Y018383D01*
X011252Y020133D01*
X010252Y020133D02*
X007252Y020133D01*
X007252Y020883D01*
X010252Y020883D01*
X010252Y020133D01*
X010252Y018383D01*
X007252Y018383D01*
X007252Y020133D01*
X006252Y020133D02*
X003252Y020133D01*
X003252Y020883D01*
X006252Y020883D01*
X006252Y020133D01*
X006252Y018383D01*
X003252Y018383D01*
X003252Y020133D01*
X003362Y018183D02*
X007141Y018183D01*
X007141Y016391D01*
X006511Y016391D01*
X006511Y016490D01*
X003992Y016490D01*
X003992Y016391D01*
X003362Y016391D01*
X003362Y018183D01*
D17*
X006551Y017612D03*
D18*
X012552Y013883D02*
X012652Y013883D01*
X012652Y012883D01*
X012552Y012883D01*
X014852Y012883D02*
X014952Y012883D01*
X014852Y012883D02*
X014852Y013833D01*
X014952Y013833D01*
X015302Y013883D02*
X015402Y013883D01*
X015402Y012933D01*
X015302Y012933D01*
X016052Y011333D02*
X016052Y011233D01*
X017002Y011233D01*
X017002Y011333D01*
X017602Y012883D02*
X017702Y012883D01*
X017602Y012883D02*
X017602Y013883D01*
X017702Y013883D01*
X018052Y013883D02*
X018152Y013883D01*
X018152Y012883D01*
X018052Y012883D01*
X020352Y012883D02*
X020452Y012883D01*
X020352Y012883D02*
X020352Y013833D01*
X020452Y013833D01*
X017002Y015433D02*
X017002Y015533D01*
X016002Y015533D01*
X016002Y015433D01*
X016052Y017733D02*
X016052Y017833D01*
X016052Y017733D02*
X017002Y017733D01*
X017002Y017833D01*
X017002Y009033D02*
X016002Y009033D01*
X016002Y008933D01*
X017002Y008933D02*
X017002Y009033D01*
D19*
X011422Y015383D03*
X011422Y016383D03*
X011422Y017383D03*
X008582Y017383D03*
X008582Y016383D03*
X008582Y015383D03*
D20*
X013107Y008641D02*
X013107Y008541D01*
X013107Y008494D02*
X013107Y008394D01*
X013257Y008394D01*
X013257Y008494D01*
X013182Y008444D02*
X013182Y008394D01*
X013257Y008346D02*
X013107Y008346D01*
X013107Y008246D02*
X013257Y008346D01*
X013257Y008246D02*
X013107Y008246D01*
X013132Y008199D02*
X013107Y008174D01*
X013107Y008099D01*
X013257Y008099D01*
X013257Y008052D02*
X013257Y007952D01*
X013107Y007952D01*
X013107Y008052D01*
X013182Y008002D02*
X013182Y007952D01*
X013182Y007904D02*
X013182Y007804D01*
X013257Y007804D02*
X013107Y007804D01*
X013107Y007757D02*
X013107Y007657D01*
X013107Y007610D02*
X013107Y007510D01*
X013257Y007510D01*
X013257Y007610D01*
X013182Y007560D02*
X013182Y007510D01*
X013257Y007707D02*
X013107Y007707D01*
X013107Y007904D02*
X013257Y007904D01*
X013207Y008099D02*
X013207Y008174D01*
X013182Y008199D01*
X013132Y008199D01*
X013207Y008149D02*
X013257Y008199D01*
X013257Y008591D02*
X013107Y008591D01*
D21*
X012502Y007383D03*
M02*
