G75*
G70*
%OFA0B0*%
%FSLAX24Y24*%
%IPPOS*%
%LPD*%
%AMOC8*
5,1,8,0,0,1.08239X$1,22.5*
%
%ADD10C,0.0000*%
%ADD11C,0.0040*%
%ADD12C,0.0080*%
%ADD13C,0.0050*%
%ADD14C,0.0060*%
%ADD15R,0.0240X0.0340*%
%ADD16C,0.0100*%
%ADD17R,0.0157X0.0827*%
%ADD18C,0.0020*%
%ADD19C,0.0010*%
%ADD20R,0.0200X0.0200*%
D10*
X001252Y000402D02*
X001252Y020087D01*
X020744Y020087D01*
X020744Y000402D01*
X001252Y000402D01*
X001751Y001296D02*
X001753Y001335D01*
X001759Y001374D01*
X001769Y001412D01*
X001782Y001449D01*
X001799Y001484D01*
X001819Y001518D01*
X001843Y001549D01*
X001870Y001578D01*
X001899Y001604D01*
X001931Y001627D01*
X001965Y001647D01*
X002001Y001663D01*
X002038Y001675D01*
X002077Y001684D01*
X002116Y001689D01*
X002155Y001690D01*
X002194Y001687D01*
X002233Y001680D01*
X002270Y001669D01*
X002307Y001655D01*
X002342Y001637D01*
X002375Y001616D01*
X002406Y001591D01*
X002434Y001564D01*
X002459Y001534D01*
X002481Y001501D01*
X002500Y001467D01*
X002515Y001431D01*
X002527Y001393D01*
X002535Y001355D01*
X002539Y001316D01*
X002539Y001276D01*
X002535Y001237D01*
X002527Y001199D01*
X002515Y001161D01*
X002500Y001125D01*
X002481Y001091D01*
X002459Y001058D01*
X002434Y001028D01*
X002406Y001001D01*
X002375Y000976D01*
X002342Y000955D01*
X002307Y000937D01*
X002270Y000923D01*
X002233Y000912D01*
X002194Y000905D01*
X002155Y000902D01*
X002116Y000903D01*
X002077Y000908D01*
X002038Y000917D01*
X002001Y000929D01*
X001965Y000945D01*
X001931Y000965D01*
X001899Y000988D01*
X001870Y001014D01*
X001843Y001043D01*
X001819Y001074D01*
X001799Y001108D01*
X001782Y001143D01*
X001769Y001180D01*
X001759Y001218D01*
X001753Y001257D01*
X001751Y001296D01*
X019201Y001402D02*
X019203Y001449D01*
X019209Y001495D01*
X019219Y001541D01*
X019232Y001586D01*
X019250Y001629D01*
X019271Y001671D01*
X019295Y001711D01*
X019323Y001748D01*
X019354Y001783D01*
X019388Y001816D01*
X019424Y001845D01*
X019463Y001871D01*
X019504Y001894D01*
X019547Y001913D01*
X019591Y001929D01*
X019636Y001941D01*
X019682Y001949D01*
X019729Y001953D01*
X019775Y001953D01*
X019822Y001949D01*
X019868Y001941D01*
X019913Y001929D01*
X019957Y001913D01*
X020000Y001894D01*
X020041Y001871D01*
X020080Y001845D01*
X020116Y001816D01*
X020150Y001783D01*
X020181Y001748D01*
X020209Y001711D01*
X020233Y001671D01*
X020254Y001629D01*
X020272Y001586D01*
X020285Y001541D01*
X020295Y001495D01*
X020301Y001449D01*
X020303Y001402D01*
X020301Y001355D01*
X020295Y001309D01*
X020285Y001263D01*
X020272Y001218D01*
X020254Y001175D01*
X020233Y001133D01*
X020209Y001093D01*
X020181Y001056D01*
X020150Y001021D01*
X020116Y000988D01*
X020080Y000959D01*
X020041Y000933D01*
X020000Y000910D01*
X019957Y000891D01*
X019913Y000875D01*
X019868Y000863D01*
X019822Y000855D01*
X019775Y000851D01*
X019729Y000851D01*
X019682Y000855D01*
X019636Y000863D01*
X019591Y000875D01*
X019547Y000891D01*
X019504Y000910D01*
X019463Y000933D01*
X019424Y000959D01*
X019388Y000988D01*
X019354Y001021D01*
X019323Y001056D01*
X019295Y001093D01*
X019271Y001133D01*
X019250Y001175D01*
X019232Y001218D01*
X019219Y001263D01*
X019209Y001309D01*
X019203Y001355D01*
X019201Y001402D01*
X001594Y018902D02*
X001596Y018949D01*
X001602Y018995D01*
X001612Y019041D01*
X001625Y019086D01*
X001643Y019129D01*
X001664Y019171D01*
X001688Y019211D01*
X001716Y019248D01*
X001747Y019283D01*
X001781Y019316D01*
X001817Y019345D01*
X001856Y019371D01*
X001897Y019394D01*
X001940Y019413D01*
X001984Y019429D01*
X002029Y019441D01*
X002075Y019449D01*
X002122Y019453D01*
X002168Y019453D01*
X002215Y019449D01*
X002261Y019441D01*
X002306Y019429D01*
X002350Y019413D01*
X002393Y019394D01*
X002434Y019371D01*
X002473Y019345D01*
X002509Y019316D01*
X002543Y019283D01*
X002574Y019248D01*
X002602Y019211D01*
X002626Y019171D01*
X002647Y019129D01*
X002665Y019086D01*
X002678Y019041D01*
X002688Y018995D01*
X002694Y018949D01*
X002696Y018902D01*
X002694Y018855D01*
X002688Y018809D01*
X002678Y018763D01*
X002665Y018718D01*
X002647Y018675D01*
X002626Y018633D01*
X002602Y018593D01*
X002574Y018556D01*
X002543Y018521D01*
X002509Y018488D01*
X002473Y018459D01*
X002434Y018433D01*
X002393Y018410D01*
X002350Y018391D01*
X002306Y018375D01*
X002261Y018363D01*
X002215Y018355D01*
X002168Y018351D01*
X002122Y018351D01*
X002075Y018355D01*
X002029Y018363D01*
X001984Y018375D01*
X001940Y018391D01*
X001897Y018410D01*
X001856Y018433D01*
X001817Y018459D01*
X001781Y018488D01*
X001747Y018521D01*
X001716Y018556D01*
X001688Y018593D01*
X001664Y018633D01*
X001643Y018675D01*
X001625Y018718D01*
X001612Y018763D01*
X001602Y018809D01*
X001596Y018855D01*
X001594Y018902D01*
X019751Y019296D02*
X019753Y019335D01*
X019759Y019374D01*
X019769Y019412D01*
X019782Y019449D01*
X019799Y019484D01*
X019819Y019518D01*
X019843Y019549D01*
X019870Y019578D01*
X019899Y019604D01*
X019931Y019627D01*
X019965Y019647D01*
X020001Y019663D01*
X020038Y019675D01*
X020077Y019684D01*
X020116Y019689D01*
X020155Y019690D01*
X020194Y019687D01*
X020233Y019680D01*
X020270Y019669D01*
X020307Y019655D01*
X020342Y019637D01*
X020375Y019616D01*
X020406Y019591D01*
X020434Y019564D01*
X020459Y019534D01*
X020481Y019501D01*
X020500Y019467D01*
X020515Y019431D01*
X020527Y019393D01*
X020535Y019355D01*
X020539Y019316D01*
X020539Y019276D01*
X020535Y019237D01*
X020527Y019199D01*
X020515Y019161D01*
X020500Y019125D01*
X020481Y019091D01*
X020459Y019058D01*
X020434Y019028D01*
X020406Y019001D01*
X020375Y018976D01*
X020342Y018955D01*
X020307Y018937D01*
X020270Y018923D01*
X020233Y018912D01*
X020194Y018905D01*
X020155Y018902D01*
X020116Y018903D01*
X020077Y018908D01*
X020038Y018917D01*
X020001Y018929D01*
X019965Y018945D01*
X019931Y018965D01*
X019899Y018988D01*
X019870Y019014D01*
X019843Y019043D01*
X019819Y019074D01*
X019799Y019108D01*
X019782Y019143D01*
X019769Y019180D01*
X019759Y019218D01*
X019753Y019257D01*
X019751Y019296D01*
D11*
X015880Y020482D02*
X015820Y020422D01*
X015700Y020422D01*
X015640Y020482D01*
X015640Y020602D02*
X015760Y020662D01*
X015820Y020662D01*
X015880Y020602D01*
X015880Y020482D01*
X015640Y020602D02*
X015640Y020782D01*
X015880Y020782D01*
X015512Y020782D02*
X015272Y020422D01*
X015512Y020422D02*
X015272Y020782D01*
X011880Y020422D02*
X011640Y020422D01*
X011760Y020422D02*
X011760Y020782D01*
X011640Y020662D01*
X011512Y020782D02*
X011272Y020422D01*
X011512Y020422D02*
X011272Y020782D01*
X007880Y020722D02*
X007820Y020782D01*
X007700Y020782D01*
X007640Y020722D01*
X007512Y020782D02*
X007272Y020422D01*
X007512Y020422D02*
X007272Y020782D01*
X007640Y020422D02*
X007880Y020662D01*
X007880Y020722D01*
X007880Y020422D02*
X007640Y020422D01*
X003880Y020482D02*
X003820Y020422D01*
X003700Y020422D01*
X003640Y020482D01*
X003512Y020422D02*
X003272Y020782D01*
X003512Y020782D02*
X003272Y020422D01*
X003640Y020722D02*
X003700Y020782D01*
X003820Y020782D01*
X003880Y020722D01*
X003880Y020662D01*
X003820Y020602D01*
X003880Y020542D01*
X003880Y020482D01*
X003820Y020602D02*
X003760Y020602D01*
X009740Y014241D02*
X009740Y013934D01*
X009970Y013934D01*
X009893Y014087D01*
X009893Y014164D01*
X009970Y014241D01*
X010123Y014241D01*
X010200Y014164D01*
X010200Y014010D01*
X010123Y013934D01*
X010200Y013780D02*
X010047Y013627D01*
X010047Y013703D02*
X010047Y013473D01*
X010200Y013473D02*
X009740Y013473D01*
X009740Y013703D01*
X009816Y013780D01*
X009970Y013780D01*
X010047Y013703D01*
X021271Y013234D02*
X021451Y013054D01*
X021451Y013294D01*
X021271Y013234D02*
X021632Y013234D01*
X021632Y012926D02*
X021271Y012685D01*
X021271Y012926D02*
X021632Y012685D01*
X021521Y004544D02*
X021581Y004424D01*
X021701Y004304D01*
X021701Y004484D01*
X021762Y004544D01*
X021822Y004544D01*
X021882Y004484D01*
X021882Y004364D01*
X021822Y004304D01*
X021701Y004304D01*
X021521Y004176D02*
X021882Y003935D01*
X021882Y004176D02*
X021521Y003935D01*
X019041Y001306D02*
X019041Y000999D01*
X019118Y000922D01*
X019118Y001229D02*
X018965Y001229D01*
X018735Y001382D02*
X018735Y000922D01*
X018811Y000922D02*
X018658Y000922D01*
X018504Y000922D02*
X018428Y000922D01*
X018428Y000999D01*
X018504Y000999D01*
X018504Y000922D01*
X018274Y001075D02*
X017967Y001075D01*
X017967Y000999D02*
X017967Y001152D01*
X018044Y001229D01*
X018197Y001229D01*
X018274Y001152D01*
X018274Y001075D01*
X018197Y000922D02*
X018044Y000922D01*
X017967Y000999D01*
X017814Y001229D02*
X017737Y001229D01*
X017584Y001075D01*
X017584Y000922D02*
X017584Y001229D01*
X017353Y001229D02*
X017353Y000922D01*
X017277Y000922D02*
X017430Y000922D01*
X017353Y001229D02*
X017277Y001229D01*
X017353Y001382D02*
X017353Y001459D01*
X017123Y001382D02*
X017123Y001075D01*
X016970Y000922D01*
X016816Y001075D01*
X016816Y001382D01*
X016586Y001229D02*
X016663Y001152D01*
X016663Y001075D01*
X016356Y001075D01*
X016356Y000999D02*
X016356Y001152D01*
X016433Y001229D01*
X016586Y001229D01*
X016586Y000922D02*
X016433Y000922D01*
X016356Y000999D01*
X016202Y000922D02*
X016049Y000922D01*
X016126Y000922D02*
X016126Y001382D01*
X016049Y001382D01*
X015895Y001229D02*
X015895Y000922D01*
X015665Y000922D01*
X015588Y000999D01*
X015588Y001229D01*
X015435Y001152D02*
X015435Y000922D01*
X015205Y000922D01*
X015128Y000999D01*
X015205Y001075D01*
X015435Y001075D01*
X015435Y001152D02*
X015358Y001229D01*
X015205Y001229D01*
X014975Y001306D02*
X014898Y001382D01*
X014744Y001382D01*
X014668Y001306D01*
X014668Y001229D01*
X014744Y001152D01*
X014898Y001152D01*
X014975Y001075D01*
X014975Y000999D01*
X014898Y000922D01*
X014744Y000922D01*
X014668Y000999D01*
X014514Y000999D02*
X014514Y000922D01*
X014438Y000922D01*
X014438Y000999D01*
X014514Y000999D01*
X014284Y000999D02*
X014284Y001229D01*
X014284Y000999D02*
X014207Y000922D01*
X014131Y000999D01*
X014054Y000922D01*
X013977Y000999D01*
X013977Y001229D01*
X013824Y001229D02*
X013824Y000999D01*
X013747Y000922D01*
X013670Y000999D01*
X013593Y000922D01*
X013517Y000999D01*
X013517Y001229D01*
X013363Y001229D02*
X013363Y000999D01*
X013287Y000922D01*
X013210Y000999D01*
X013133Y000922D01*
X013056Y000999D01*
X013056Y001229D01*
X018658Y001382D02*
X018735Y001382D01*
D12*
X010752Y001152D02*
X010502Y000902D01*
X010002Y000902D01*
X009752Y001152D01*
X009752Y001652D01*
X009502Y001902D01*
X009002Y001902D01*
X008752Y001652D01*
X008502Y001902D01*
X008002Y001902D01*
X007752Y001652D01*
X007502Y001902D01*
X007002Y001902D01*
X006752Y001652D01*
X006752Y001152D01*
X007002Y000902D01*
X007502Y000902D01*
X007752Y001152D01*
X008002Y000902D01*
X008502Y000902D01*
X008752Y001152D01*
X009002Y000902D01*
X009502Y000902D01*
X009752Y001152D01*
X009752Y001652D01*
X010002Y001902D01*
X009752Y002152D01*
X009752Y002652D01*
X010002Y002902D01*
X009752Y003152D01*
X009752Y003652D01*
X010002Y003902D01*
X009752Y004152D01*
X009752Y004652D01*
X010002Y004902D01*
X009752Y005152D01*
X009752Y005652D01*
X010002Y005902D01*
X009752Y006152D01*
X009752Y006652D01*
X010002Y006902D01*
X009752Y007152D01*
X009752Y007652D01*
X009752Y008152D01*
X009502Y008402D01*
X009752Y008652D01*
X009752Y009152D01*
X009502Y009402D01*
X009002Y009402D01*
X008752Y009152D01*
X008752Y008652D01*
X009002Y008402D01*
X008752Y008152D01*
X008752Y007652D01*
X009002Y007402D01*
X009502Y007402D01*
X009752Y007652D01*
X010002Y007902D01*
X009752Y008152D01*
X009752Y008652D01*
X010002Y008902D01*
X009752Y009152D01*
X009752Y009652D01*
X010002Y009902D01*
X009752Y010152D01*
X009752Y010652D01*
X010002Y010902D01*
X009752Y011152D01*
X009752Y011652D01*
X010002Y011902D01*
X009752Y012152D01*
X009752Y012652D01*
X010002Y012902D01*
X009502Y012902D01*
X009252Y013152D01*
X009002Y012902D01*
X008502Y012902D01*
X008252Y013152D01*
X008002Y012902D01*
X007502Y012902D01*
X007252Y013152D01*
X007002Y012902D01*
X006502Y012902D01*
X006252Y013152D01*
X006002Y012902D01*
X005502Y012902D01*
X005252Y013152D01*
X005002Y012902D01*
X004502Y012902D01*
X004252Y013152D01*
X004252Y013652D01*
X004502Y013902D01*
X005002Y013902D01*
X005252Y013652D01*
X005502Y013902D01*
X006002Y013902D01*
X006252Y013652D01*
X006502Y013902D01*
X007002Y013902D01*
X007252Y013652D01*
X007502Y013902D01*
X008002Y013902D01*
X008252Y013652D01*
X008502Y013902D01*
X009002Y013902D01*
X009252Y013652D01*
X009502Y013902D01*
X010002Y013902D01*
X010252Y013652D01*
X010252Y013152D01*
X010002Y012902D01*
X010502Y012902D01*
X010752Y012652D01*
X010752Y012152D01*
X010502Y011902D01*
X010752Y011652D01*
X010752Y011152D01*
X010502Y010902D01*
X010752Y010652D01*
X010752Y010152D01*
X010502Y009902D01*
X010752Y009652D01*
X010752Y009152D01*
X010502Y008902D01*
X010752Y008652D01*
X010752Y008152D01*
X010502Y007902D01*
X010752Y007652D01*
X010752Y007152D01*
X010502Y006902D01*
X010752Y006652D01*
X010752Y006152D01*
X010502Y005902D01*
X010752Y005652D01*
X010752Y005152D01*
X010502Y004902D01*
X010752Y004652D01*
X010752Y004152D01*
X010502Y003902D01*
X010752Y003652D01*
X010752Y003152D01*
X010502Y002902D01*
X010752Y002652D01*
X010752Y002152D01*
X010502Y001902D01*
X010752Y001652D01*
X010752Y001152D01*
X004752Y001152D02*
X004752Y001652D01*
X004502Y001902D01*
X004752Y002152D01*
X004752Y002652D01*
X004502Y002902D01*
X004752Y003152D01*
X004752Y003652D01*
X004502Y003902D01*
X004752Y004152D01*
X004752Y004652D01*
X004502Y004902D01*
X004752Y005152D01*
X004752Y005652D01*
X004502Y005902D01*
X004752Y006152D01*
X004752Y006652D01*
X004502Y006902D01*
X004752Y007152D01*
X004752Y007652D01*
X004502Y007902D01*
X004752Y008152D01*
X004752Y008652D01*
X004502Y008902D01*
X004752Y009152D01*
X004752Y009652D01*
X004502Y009902D01*
X004752Y010152D01*
X004752Y010652D01*
X004502Y010902D01*
X004752Y011152D01*
X004752Y011652D01*
X004502Y011902D01*
X004752Y012152D01*
X004752Y012652D01*
X004502Y012902D01*
X004002Y012902D01*
X003752Y012652D01*
X003752Y012152D01*
X004002Y011902D01*
X003752Y011652D01*
X003752Y011152D01*
X004002Y010902D01*
X003752Y010652D01*
X003752Y010152D01*
X004002Y009902D01*
X003752Y009652D01*
X003752Y009152D01*
X004002Y008902D01*
X003752Y008652D01*
X003752Y008152D01*
X004002Y007902D01*
X003752Y007652D01*
X003752Y007152D01*
X004002Y006902D01*
X003752Y006652D01*
X003752Y006152D01*
X004002Y005902D01*
X003752Y005652D01*
X003752Y005152D01*
X004002Y004902D01*
X003752Y004652D01*
X003752Y004152D01*
X004002Y003902D01*
X003752Y003652D01*
X003752Y003152D01*
X004002Y002902D01*
X003752Y002652D01*
X003752Y002152D01*
X004002Y001902D01*
X003752Y001652D01*
X003752Y001152D01*
X004002Y000902D01*
X004502Y000902D01*
X004752Y001152D01*
X002752Y002152D02*
X002502Y001902D01*
X002002Y001902D01*
X001752Y002152D01*
X001752Y002652D01*
X002002Y002902D01*
X001752Y003152D01*
X001752Y003652D01*
X002002Y003902D01*
X001752Y004152D01*
X001752Y004652D01*
X002002Y004902D01*
X001752Y005152D01*
X001752Y005652D01*
X002002Y005902D01*
X001752Y006152D01*
X001752Y006652D01*
X002002Y006902D01*
X001752Y007152D01*
X001752Y007652D01*
X002002Y007902D01*
X001752Y008152D01*
X001752Y008652D01*
X002002Y008902D01*
X001752Y009152D01*
X001752Y009652D01*
X002002Y009902D01*
X001752Y010152D01*
X001752Y010652D01*
X002002Y010902D01*
X001752Y011152D01*
X001752Y011652D01*
X002002Y011902D01*
X001752Y012152D01*
X001752Y012652D01*
X002002Y012902D01*
X001752Y013152D01*
X001752Y013652D01*
X002002Y013902D01*
X001752Y014152D01*
X001752Y014652D01*
X002002Y014902D01*
X001752Y015152D01*
X001752Y015652D01*
X002002Y015902D01*
X001752Y016152D01*
X001752Y016652D01*
X002002Y016902D01*
X001752Y017152D01*
X001752Y017652D01*
X002002Y017902D01*
X002502Y017902D01*
X002752Y017652D01*
X002752Y017152D01*
X002502Y016902D01*
X002752Y016652D01*
X002752Y016152D01*
X002502Y015902D01*
X002752Y015652D01*
X002752Y015152D01*
X002502Y014902D01*
X002752Y014652D01*
X002752Y014152D01*
X002502Y013902D01*
X002752Y013652D01*
X002752Y013152D01*
X002502Y012902D01*
X002752Y012652D01*
X002752Y012152D01*
X002502Y011902D01*
X002752Y011652D01*
X002752Y011152D01*
X002502Y010902D01*
X002752Y010652D01*
X002752Y010152D01*
X002502Y009902D01*
X002752Y009652D01*
X002752Y009152D01*
X002502Y008902D01*
X002752Y008652D01*
X002752Y008152D01*
X002502Y007902D01*
X002752Y007652D01*
X002752Y007152D01*
X002502Y006902D01*
X002752Y006652D01*
X002752Y006152D01*
X002502Y005902D01*
X002752Y005652D01*
X002752Y005152D01*
X002502Y004902D01*
X002752Y004652D01*
X002752Y004152D01*
X002502Y003902D01*
X002752Y003652D01*
X002752Y003152D01*
X002502Y002902D01*
X002752Y002652D01*
X002752Y002152D01*
X005002Y015152D02*
X005502Y015152D01*
X016858Y015304D02*
X016858Y017075D01*
X021031Y017075D01*
X021031Y017056D01*
X021031Y017075D02*
X021031Y013729D01*
X019689Y013729D01*
X018945Y013729D02*
X017252Y013729D01*
D13*
X016927Y015699D02*
X016927Y015849D01*
X016927Y015774D02*
X016476Y015774D01*
X016476Y015699D02*
X016476Y015849D01*
X016551Y016006D02*
X016852Y016006D01*
X016927Y016081D01*
X016927Y016231D01*
X016852Y016307D01*
X016927Y016467D02*
X016927Y016767D01*
X016927Y016617D02*
X016476Y016617D01*
X016626Y016467D01*
X016551Y016307D02*
X016476Y016231D01*
X016476Y016081D01*
X016551Y016006D01*
X013627Y013187D02*
X013552Y013187D01*
X013251Y013488D01*
X013176Y013488D01*
X013176Y013187D01*
X013251Y013027D02*
X013176Y012952D01*
X013176Y012727D01*
X013627Y012727D01*
X013477Y012727D02*
X013477Y012952D01*
X013401Y013027D01*
X013251Y013027D01*
X013477Y012877D02*
X013627Y013027D01*
X011447Y012797D02*
X011447Y012497D01*
X011146Y012797D01*
X011071Y012797D01*
X010996Y012722D01*
X010996Y012572D01*
X011071Y012497D01*
X011522Y012336D02*
X011522Y012036D01*
X011447Y011879D02*
X011447Y011729D01*
X011447Y011804D02*
X010996Y011804D01*
X010996Y011729D02*
X010996Y011879D01*
X010996Y011569D02*
X011447Y011569D01*
X010996Y011269D01*
X011447Y011269D01*
X011447Y011112D02*
X011447Y010962D01*
X011447Y011037D02*
X010996Y011037D01*
X010996Y010962D02*
X010996Y011112D01*
X010996Y010802D02*
X011447Y010802D01*
X011447Y010502D02*
X010996Y010502D01*
X011146Y010652D01*
X010996Y010802D01*
X011522Y010341D02*
X011522Y010041D01*
X011372Y009881D02*
X011071Y009881D01*
X010996Y009806D01*
X010996Y009656D01*
X011071Y009581D01*
X011372Y009581D01*
X011447Y009656D01*
X011447Y009806D01*
X011372Y009881D01*
X011252Y009467D02*
X011327Y009392D01*
X011327Y009242D01*
X011252Y009167D01*
X011177Y009167D01*
X011101Y009242D01*
X011101Y009392D01*
X011177Y009467D01*
X011252Y009467D01*
X011221Y009421D02*
X011071Y009421D01*
X010996Y009346D01*
X010996Y009120D01*
X011447Y009120D01*
X011297Y009120D02*
X011297Y009346D01*
X011221Y009421D01*
X011101Y009392D02*
X011026Y009467D01*
X010951Y009467D01*
X010876Y009392D01*
X010876Y009242D01*
X010951Y009167D01*
X011026Y009167D01*
X011101Y009242D01*
X011297Y009271D02*
X011447Y009421D01*
X011327Y009007D02*
X011177Y008856D01*
X011177Y008931D02*
X011177Y008706D01*
X011297Y008660D02*
X011297Y008885D01*
X011221Y008960D01*
X011071Y008960D01*
X010996Y008885D01*
X010996Y008660D01*
X011447Y008660D01*
X011327Y008706D02*
X010876Y008706D01*
X010876Y008931D01*
X010951Y009007D01*
X011101Y009007D01*
X011177Y008931D01*
X011522Y008500D02*
X011522Y008200D01*
X011372Y008039D02*
X011447Y007964D01*
X011447Y007814D01*
X011372Y007739D01*
X011071Y007739D01*
X010996Y007814D01*
X010996Y007964D01*
X011071Y008039D01*
X011372Y008039D01*
X011447Y007579D02*
X010996Y007579D01*
X010996Y007279D02*
X011447Y007579D01*
X011447Y007279D02*
X010996Y007279D01*
X010996Y007122D02*
X010996Y006972D01*
X010996Y007047D02*
X011447Y007047D01*
X011447Y006972D02*
X011447Y007122D01*
X011372Y006812D02*
X010996Y006812D01*
X011372Y006812D02*
X011447Y006737D01*
X011447Y006587D01*
X011372Y006512D01*
X010996Y006512D01*
X011071Y006351D02*
X010996Y006276D01*
X010996Y006051D01*
X011447Y006051D01*
X011447Y006276D01*
X011372Y006351D01*
X011071Y006351D01*
X011326Y006413D02*
X011326Y006262D01*
X011401Y006187D01*
X011401Y006027D02*
X011326Y005952D01*
X011326Y005802D01*
X011401Y005727D01*
X011476Y005727D01*
X011551Y005802D01*
X011551Y005952D01*
X011627Y006027D01*
X011702Y006027D01*
X011777Y005952D01*
X011777Y005802D01*
X011702Y005727D01*
X011447Y005591D02*
X010996Y005591D01*
X010996Y005816D01*
X011071Y005891D01*
X011221Y005891D01*
X011297Y005816D01*
X011297Y005591D01*
X011297Y005741D02*
X011447Y005891D01*
X011777Y006187D02*
X011476Y006488D01*
X011401Y006488D01*
X011326Y006413D01*
X011777Y006488D02*
X011777Y006187D01*
X011447Y005431D02*
X011146Y005431D01*
X010996Y005280D01*
X011146Y005130D01*
X011447Y005130D01*
X011221Y005130D02*
X011221Y005431D01*
X013676Y004988D02*
X013751Y004838D01*
X013901Y004687D01*
X013901Y004913D01*
X013977Y004988D01*
X014052Y004988D01*
X014127Y004913D01*
X014127Y004762D01*
X014052Y004687D01*
X013901Y004687D01*
X013901Y004527D02*
X013751Y004527D01*
X013676Y004452D01*
X013676Y004227D01*
X014127Y004227D01*
X013977Y004227D02*
X013977Y004452D01*
X013901Y004527D01*
X013977Y004377D02*
X014127Y004527D01*
X014401Y005727D02*
X014326Y005802D01*
X014326Y005952D01*
X014401Y006027D01*
X014551Y005952D02*
X014627Y006027D01*
X014702Y006027D01*
X014777Y005952D01*
X014777Y005802D01*
X014702Y005727D01*
X014551Y005802D02*
X014551Y005952D01*
X014551Y005802D02*
X014476Y005727D01*
X014401Y005727D01*
X014551Y006187D02*
X014551Y006488D01*
X014326Y006413D02*
X014551Y006187D01*
X014326Y006413D02*
X014777Y006413D01*
X016631Y008477D02*
X016556Y008552D01*
X016631Y008477D02*
X016781Y008477D01*
X016856Y008552D01*
X016856Y008627D01*
X016781Y008702D01*
X016631Y008702D01*
X016556Y008777D01*
X016556Y008852D01*
X016631Y008927D01*
X016781Y008927D01*
X016856Y008852D01*
X017016Y008777D02*
X017166Y008927D01*
X017166Y008477D01*
X017016Y008477D02*
X017317Y008477D01*
X017401Y006488D02*
X017476Y006488D01*
X017551Y006413D01*
X017627Y006488D01*
X017702Y006488D01*
X017777Y006413D01*
X017777Y006262D01*
X017702Y006187D01*
X017702Y006027D02*
X017777Y005952D01*
X017777Y005802D01*
X017702Y005727D01*
X017551Y005802D02*
X017551Y005952D01*
X017627Y006027D01*
X017702Y006027D01*
X017551Y005802D02*
X017476Y005727D01*
X017401Y005727D01*
X017326Y005802D01*
X017326Y005952D01*
X017401Y006027D01*
X017401Y006187D02*
X017326Y006262D01*
X017326Y006413D01*
X017401Y006488D01*
X017551Y006413D02*
X017551Y006338D01*
X013327Y009206D02*
X012876Y009206D01*
X012876Y009431D01*
X012951Y009507D01*
X013101Y009507D01*
X013177Y009431D01*
X013177Y009206D01*
X013177Y009356D02*
X013327Y009507D01*
X013252Y009667D02*
X013327Y009742D01*
X013327Y009892D01*
X013252Y009967D01*
X012951Y009967D01*
X012876Y009892D01*
X012876Y009742D01*
X012951Y009667D01*
X013026Y009667D01*
X013101Y009742D01*
X013101Y009967D01*
X008507Y008618D02*
X008507Y008318D01*
X008206Y008618D01*
X008131Y008618D01*
X008056Y008543D01*
X008056Y008393D01*
X008131Y008318D01*
X008131Y008158D02*
X008281Y008158D01*
X008357Y008083D01*
X008357Y007857D01*
X008507Y007857D02*
X008056Y007857D01*
X008056Y008083D01*
X008131Y008158D01*
X008056Y007697D02*
X008056Y007547D01*
X008056Y007622D02*
X008432Y007622D01*
X008507Y007547D01*
X008507Y007472D01*
X008432Y007397D01*
X007627Y006988D02*
X007627Y006687D01*
X007326Y006988D01*
X007251Y006988D01*
X007176Y006913D01*
X007176Y006762D01*
X007251Y006687D01*
X007251Y006527D02*
X007401Y006527D01*
X007477Y006452D01*
X007477Y006227D01*
X007627Y006227D02*
X007176Y006227D01*
X007176Y006452D01*
X007251Y006527D01*
X007477Y006377D02*
X007627Y006527D01*
X007252Y003467D02*
X007327Y003392D01*
X007327Y003242D01*
X007252Y003167D01*
X007327Y003007D02*
X007177Y002856D01*
X007177Y002931D02*
X007177Y002706D01*
X007207Y002597D02*
X007432Y002597D01*
X007507Y002522D01*
X007507Y002372D01*
X007432Y002297D01*
X007207Y002297D01*
X007207Y002147D02*
X007207Y002597D01*
X007047Y002597D02*
X006897Y002597D01*
X006972Y002597D02*
X006972Y002222D01*
X006897Y002147D01*
X006822Y002147D01*
X006747Y002222D01*
X006876Y002706D02*
X006876Y002931D01*
X006951Y003007D01*
X007101Y003007D01*
X007177Y002931D01*
X007327Y002706D02*
X006876Y002706D01*
X006951Y003167D02*
X006876Y003242D01*
X006876Y003392D01*
X006951Y003467D01*
X007026Y003467D01*
X007101Y003392D01*
X007177Y003467D01*
X007252Y003467D01*
X007101Y003392D02*
X007101Y003317D01*
X007876Y003392D02*
X008101Y003167D01*
X008101Y003467D01*
X007876Y003392D02*
X008327Y003392D01*
X008327Y003007D02*
X008177Y002856D01*
X008177Y002931D02*
X008177Y002706D01*
X008327Y002706D02*
X007876Y002706D01*
X007876Y002931D01*
X007951Y003007D01*
X008101Y003007D01*
X008177Y002931D01*
X007893Y002597D02*
X007667Y002372D01*
X007968Y002372D01*
X007893Y002147D02*
X007893Y002597D01*
X005327Y002706D02*
X004876Y002706D01*
X004876Y002931D01*
X004951Y003007D01*
X005101Y003007D01*
X005177Y002931D01*
X005177Y002706D01*
X005177Y002856D02*
X005327Y003007D01*
X005327Y003167D02*
X005327Y003467D01*
X005327Y003317D02*
X004876Y003317D01*
X005026Y003167D01*
X003507Y003046D02*
X003056Y003046D01*
X003507Y003346D01*
X003056Y003346D01*
X003131Y003506D02*
X003432Y003506D01*
X003507Y003581D01*
X003507Y003731D01*
X003432Y003806D01*
X003131Y003806D01*
X003056Y003731D01*
X003056Y003581D01*
X003131Y003506D01*
X003582Y003966D02*
X003582Y004267D01*
X003507Y004427D02*
X003056Y004427D01*
X003056Y004652D01*
X003131Y004727D01*
X003281Y004727D01*
X003357Y004652D01*
X003357Y004427D01*
X003357Y004887D02*
X003357Y005112D01*
X003281Y005187D01*
X003131Y005187D01*
X003056Y005112D01*
X003056Y004887D01*
X003507Y004887D01*
X003357Y005037D02*
X003507Y005187D01*
X003432Y005347D02*
X003507Y005423D01*
X003507Y005573D01*
X003432Y005648D01*
X003131Y005648D01*
X003056Y005573D01*
X003056Y005423D01*
X003131Y005347D01*
X003432Y005347D01*
X003582Y005808D02*
X003582Y006108D01*
X003507Y006268D02*
X003056Y006268D01*
X003206Y006418D01*
X003056Y006569D01*
X003507Y006569D01*
X003507Y006729D02*
X003507Y006879D01*
X003507Y006804D02*
X003056Y006804D01*
X003056Y006729D02*
X003056Y006879D01*
X003056Y007036D02*
X003507Y007336D01*
X003056Y007336D01*
X003056Y007496D02*
X003056Y007646D01*
X003056Y007571D02*
X003507Y007571D01*
X003507Y007496D02*
X003507Y007646D01*
X003582Y007803D02*
X003582Y008103D01*
X003507Y008263D02*
X003507Y008564D01*
X003507Y008413D02*
X003056Y008413D01*
X003206Y008263D01*
X003056Y007036D02*
X003507Y007036D01*
X003507Y002889D02*
X003507Y002739D01*
X003507Y002814D02*
X003056Y002814D01*
X003056Y002739D02*
X003056Y002889D01*
X003056Y002578D02*
X003432Y002578D01*
X003507Y002503D01*
X003507Y002353D01*
X003432Y002278D01*
X003056Y002278D01*
X003131Y002118D02*
X003056Y002043D01*
X003056Y001818D01*
X003507Y001818D01*
X003507Y002043D01*
X003432Y002118D01*
X003131Y002118D01*
X003131Y001658D02*
X003281Y001658D01*
X003357Y001583D01*
X003357Y001357D01*
X003507Y001357D02*
X003056Y001357D01*
X003056Y001583D01*
X003131Y001658D01*
X003357Y001508D02*
X003507Y001658D01*
X003507Y001197D02*
X003206Y001197D01*
X003056Y001047D01*
X003206Y000897D01*
X003507Y000897D01*
X003281Y000897D02*
X003281Y001197D01*
X010376Y001242D02*
X010376Y001392D01*
X010451Y001467D01*
X010752Y001167D01*
X010827Y001242D01*
X010827Y001392D01*
X010752Y001467D01*
X010451Y001467D01*
X010376Y001242D02*
X010451Y001167D01*
X010752Y001167D01*
X010827Y001007D02*
X010827Y000706D01*
X010827Y000856D02*
X010376Y000856D01*
X010526Y000706D01*
X010451Y000546D02*
X010601Y000546D01*
X010677Y000471D01*
X010677Y000246D01*
X010827Y000246D02*
X010376Y000246D01*
X010376Y000471D01*
X010451Y000546D01*
X010677Y000396D02*
X010827Y000546D01*
X016556Y001552D02*
X016631Y001477D01*
X016781Y001477D01*
X016856Y001552D01*
X016856Y001627D01*
X016781Y001702D01*
X016631Y001702D01*
X016556Y001777D01*
X016556Y001852D01*
X016631Y001927D01*
X016781Y001927D01*
X016856Y001852D01*
X017016Y001927D02*
X017016Y001702D01*
X017166Y001777D01*
X017241Y001777D01*
X017317Y001702D01*
X017317Y001552D01*
X017241Y001477D01*
X017091Y001477D01*
X017016Y001552D01*
X017016Y001927D02*
X017317Y001927D01*
X005468Y014147D02*
X005167Y014147D01*
X005318Y014147D02*
X005318Y014597D01*
X005167Y014447D01*
X005007Y014372D02*
X004932Y014297D01*
X004707Y014297D01*
X004707Y014147D02*
X004707Y014597D01*
X004932Y014597D01*
X005007Y014522D01*
X005007Y014372D01*
X004547Y014597D02*
X004397Y014597D01*
X004472Y014597D02*
X004472Y014222D01*
X004397Y014147D01*
X004322Y014147D01*
X004247Y014222D01*
X004062Y013899D02*
X004121Y013919D01*
X004178Y013942D01*
X004235Y013969D01*
X004289Y014000D01*
X004342Y014033D01*
X004392Y014070D01*
X004441Y014109D01*
X004486Y014152D01*
X004530Y014197D01*
X004570Y014244D01*
X004608Y014294D01*
X004643Y014346D01*
X004674Y014400D01*
X004702Y014455D01*
X004727Y014512D01*
X004748Y014571D01*
X004766Y014631D01*
X004781Y014692D01*
X004791Y014753D01*
X004798Y014815D01*
X004802Y014877D01*
X004801Y014940D01*
X004797Y015002D01*
X004639Y015002D01*
X004576Y015552D02*
X002927Y015552D01*
X002996Y015655D02*
X002996Y015880D01*
X003071Y015955D01*
X003372Y015955D01*
X003447Y015880D01*
X003447Y015655D01*
X002996Y015655D01*
X003071Y015495D02*
X002996Y015420D01*
X002996Y015270D01*
X003071Y015195D01*
X003372Y015195D01*
X003447Y015270D01*
X003447Y015420D01*
X003372Y015495D01*
X003447Y015035D02*
X003447Y014734D01*
X002996Y014734D01*
X002864Y015002D02*
X002706Y015002D01*
X002216Y014627D02*
X002216Y014177D01*
X002066Y014177D02*
X002367Y014177D01*
X002066Y014477D02*
X002216Y014627D01*
X001906Y014627D02*
X001606Y014627D01*
X001756Y014627D02*
X001756Y014177D01*
X003639Y015002D02*
X003864Y015002D01*
X004577Y015552D02*
X004612Y015504D01*
X004645Y015454D01*
X004676Y015402D01*
X004703Y015348D01*
X004727Y015293D01*
X004747Y015236D01*
X004765Y015179D01*
X004779Y015121D01*
X004790Y015062D01*
X004797Y015002D01*
X003442Y013899D02*
X003382Y013919D01*
X003323Y013943D01*
X003266Y013971D01*
X003211Y014002D01*
X003157Y014037D01*
X003106Y014074D01*
X003057Y014115D01*
X003011Y014159D01*
X002967Y014205D01*
X002926Y014254D01*
X002888Y014305D01*
X002854Y014358D01*
X002822Y014414D01*
X002795Y014471D01*
X002770Y014530D01*
X002750Y014590D01*
X002732Y014651D01*
X002719Y014713D01*
X002710Y014776D01*
X002704Y014839D01*
X002702Y014903D01*
X002704Y014967D01*
X002710Y015030D01*
X002719Y015093D01*
X002733Y015155D01*
X002750Y015216D01*
X002771Y015276D01*
X002795Y015335D01*
X002823Y015392D01*
X002855Y015448D01*
X002890Y015501D01*
X002927Y015552D01*
X003146Y016115D02*
X002996Y016266D01*
X003447Y016266D01*
X003447Y016416D02*
X003447Y016115D01*
X003372Y016576D02*
X003447Y016651D01*
X003447Y016801D01*
X003372Y016876D01*
X003297Y016876D01*
X003221Y016801D01*
X003221Y016576D01*
X003372Y016576D01*
X003221Y016576D02*
X003071Y016726D01*
X002996Y016876D01*
X003071Y017036D02*
X002996Y017111D01*
X002996Y017261D01*
X003071Y017336D01*
X003372Y017036D01*
X003447Y017111D01*
X003447Y017261D01*
X003372Y017336D01*
X003071Y017336D01*
X003071Y017497D02*
X002996Y017572D01*
X002996Y017722D01*
X003071Y017797D01*
X003146Y017797D01*
X003447Y017497D01*
X003447Y017797D01*
X003372Y017036D02*
X003071Y017036D01*
D14*
X004752Y017152D02*
X004752Y015652D01*
X005002Y015402D01*
X005502Y015402D01*
X005752Y015652D01*
X005752Y017152D01*
X006002Y017402D01*
X006502Y017402D01*
X006752Y017152D01*
X006752Y015652D01*
X007002Y015402D01*
X007502Y015402D01*
X007752Y015652D01*
X007752Y017152D01*
X008002Y017402D01*
X008502Y017402D01*
X008752Y017152D01*
X009002Y017402D01*
X009502Y017402D01*
X009752Y017152D01*
X009752Y015652D01*
X009502Y015402D01*
X009002Y015402D01*
X008752Y015652D01*
X008752Y017152D01*
X007752Y017152D02*
X007502Y017402D01*
X007002Y017402D01*
X006752Y017152D01*
X005752Y017152D02*
X005502Y017402D01*
X005002Y017402D01*
X004752Y017152D01*
X005752Y015652D02*
X006002Y015402D01*
X006502Y015402D01*
X006752Y015652D01*
X007752Y015652D02*
X008002Y015402D01*
X008502Y015402D01*
X008752Y015652D01*
X010590Y016701D02*
X010592Y016742D01*
X010598Y016783D01*
X010608Y016823D01*
X010621Y016862D01*
X010638Y016899D01*
X010659Y016935D01*
X010683Y016969D01*
X010710Y017000D01*
X010739Y017028D01*
X010772Y017054D01*
X010806Y017076D01*
X010843Y017095D01*
X010881Y017110D01*
X010921Y017122D01*
X010961Y017130D01*
X011002Y017134D01*
X011044Y017134D01*
X011085Y017130D01*
X011125Y017122D01*
X011165Y017110D01*
X011203Y017095D01*
X011239Y017076D01*
X011274Y017054D01*
X011307Y017028D01*
X011336Y017000D01*
X011363Y016969D01*
X011387Y016935D01*
X011408Y016899D01*
X011425Y016862D01*
X011438Y016823D01*
X011448Y016783D01*
X011454Y016742D01*
X011456Y016701D01*
X011454Y016660D01*
X011448Y016619D01*
X011438Y016579D01*
X011425Y016540D01*
X011408Y016503D01*
X011387Y016467D01*
X011363Y016433D01*
X011336Y016402D01*
X011307Y016374D01*
X011274Y016348D01*
X011240Y016326D01*
X011203Y016307D01*
X011165Y016292D01*
X011125Y016280D01*
X011085Y016272D01*
X011044Y016268D01*
X011002Y016268D01*
X010961Y016272D01*
X010921Y016280D01*
X010881Y016292D01*
X010843Y016307D01*
X010807Y016326D01*
X010772Y016348D01*
X010739Y016374D01*
X010710Y016402D01*
X010683Y016433D01*
X010659Y016467D01*
X010638Y016503D01*
X010621Y016540D01*
X010608Y016579D01*
X010598Y016619D01*
X010592Y016660D01*
X010590Y016701D01*
X014071Y017132D02*
X014071Y014672D01*
X015433Y014672D01*
X015433Y017132D01*
X014071Y017132D01*
X014102Y012652D02*
X013402Y012652D01*
X013385Y012650D01*
X013368Y012646D01*
X013352Y012639D01*
X013338Y012629D01*
X013325Y012616D01*
X013315Y012602D01*
X013308Y012586D01*
X013304Y012569D01*
X013302Y012552D01*
X013302Y012402D01*
X013352Y012352D01*
X013352Y010452D01*
X013302Y010402D01*
X013302Y010252D01*
X013304Y010235D01*
X013308Y010218D01*
X013315Y010202D01*
X013325Y010188D01*
X013338Y010175D01*
X013352Y010165D01*
X013368Y010158D01*
X013385Y010154D01*
X013402Y010152D01*
X014102Y010152D01*
X014119Y010154D01*
X014136Y010158D01*
X014152Y010165D01*
X014166Y010175D01*
X014179Y010188D01*
X014189Y010202D01*
X014196Y010218D01*
X014200Y010235D01*
X014202Y010252D01*
X014202Y010402D01*
X014152Y010452D01*
X014152Y012352D01*
X014202Y012402D01*
X014202Y012552D01*
X014200Y012569D01*
X014196Y012586D01*
X014189Y012602D01*
X014179Y012616D01*
X014166Y012629D01*
X014152Y012639D01*
X014136Y012646D01*
X014119Y012650D01*
X014102Y012652D01*
X013202Y012552D02*
X013202Y012402D01*
X013152Y012352D01*
X013152Y010452D01*
X013202Y010402D01*
X013202Y010252D01*
X013200Y010235D01*
X013196Y010218D01*
X013189Y010202D01*
X013179Y010188D01*
X013166Y010175D01*
X013152Y010165D01*
X013136Y010158D01*
X013119Y010154D01*
X013102Y010152D01*
X012402Y010152D01*
X012385Y010154D01*
X012368Y010158D01*
X012352Y010165D01*
X012338Y010175D01*
X012325Y010188D01*
X012315Y010202D01*
X012308Y010218D01*
X012304Y010235D01*
X012302Y010252D01*
X012302Y010402D01*
X012352Y010452D01*
X012352Y012352D01*
X012302Y012402D01*
X012302Y012552D01*
X012304Y012569D01*
X012308Y012586D01*
X012315Y012602D01*
X012325Y012616D01*
X012338Y012629D01*
X012352Y012639D01*
X012368Y012646D01*
X012385Y012650D01*
X012402Y012652D01*
X013102Y012652D01*
X013119Y012650D01*
X013136Y012646D01*
X013152Y012639D01*
X013166Y012629D01*
X013179Y012616D01*
X013189Y012602D01*
X013196Y012586D01*
X013200Y012569D01*
X013202Y012552D01*
X012202Y012052D02*
X012202Y011902D01*
X012152Y011852D01*
X012152Y009952D01*
X012202Y009902D01*
X012202Y009752D01*
X012200Y009735D01*
X012196Y009718D01*
X012189Y009702D01*
X012179Y009688D01*
X012166Y009675D01*
X012152Y009665D01*
X012136Y009658D01*
X012119Y009654D01*
X012102Y009652D01*
X011402Y009652D01*
X011385Y009654D01*
X011368Y009658D01*
X011352Y009665D01*
X011338Y009675D01*
X011325Y009688D01*
X011315Y009702D01*
X011308Y009718D01*
X011304Y009735D01*
X011302Y009752D01*
X011302Y009902D01*
X011352Y009952D01*
X011352Y011852D01*
X011302Y011902D01*
X011302Y012052D01*
X011304Y012069D01*
X011308Y012086D01*
X011315Y012102D01*
X011325Y012116D01*
X011338Y012129D01*
X011352Y012139D01*
X011368Y012146D01*
X011385Y012150D01*
X011402Y012152D01*
X012102Y012152D01*
X012119Y012150D01*
X012136Y012146D01*
X012152Y012139D01*
X012166Y012129D01*
X012179Y012116D01*
X012189Y012102D01*
X012196Y012086D01*
X012200Y012069D01*
X012202Y012052D01*
X014952Y010702D02*
X014952Y010102D01*
X015052Y010102D01*
X015052Y010002D01*
X015052Y010702D02*
X014952Y010702D01*
X015052Y010702D02*
X015052Y010802D01*
X015402Y011602D02*
X015802Y011602D01*
X016752Y011602D01*
X017102Y011602D01*
X017452Y010802D02*
X017452Y010702D01*
X017552Y010702D01*
X017552Y010102D01*
X017452Y010102D01*
X017452Y010002D01*
X017102Y009202D02*
X016752Y009202D01*
X015752Y009202D01*
X015402Y009202D01*
X015952Y008202D02*
X015952Y008102D01*
X015852Y008102D01*
X015952Y008202D02*
X016552Y008202D01*
X016552Y008102D01*
X016652Y008102D01*
X017452Y007752D02*
X017452Y007352D01*
X017452Y006402D01*
X017452Y006052D01*
X018052Y006052D02*
X018052Y006402D01*
X018052Y007402D01*
X018052Y007752D01*
X018852Y008102D02*
X018952Y008102D01*
X018952Y008202D01*
X019552Y008202D01*
X019552Y008102D01*
X019652Y008102D01*
X020452Y007752D02*
X020452Y007352D01*
X020452Y006402D01*
X020452Y006052D01*
X019652Y005702D02*
X019552Y005702D01*
X019552Y005602D01*
X018952Y005602D01*
X018952Y005702D01*
X018852Y005702D01*
X019152Y006902D02*
X019154Y006922D01*
X019160Y006940D01*
X019169Y006958D01*
X019181Y006973D01*
X019196Y006985D01*
X019214Y006994D01*
X019232Y007000D01*
X019252Y007002D01*
X019272Y007000D01*
X019290Y006994D01*
X019308Y006985D01*
X019323Y006973D01*
X019335Y006958D01*
X019344Y006940D01*
X019350Y006922D01*
X019352Y006902D01*
X019350Y006882D01*
X019344Y006864D01*
X019335Y006846D01*
X019323Y006831D01*
X019308Y006819D01*
X019290Y006810D01*
X019272Y006804D01*
X019252Y006802D01*
X019232Y006804D01*
X019214Y006810D01*
X019196Y006819D01*
X019181Y006831D01*
X019169Y006846D01*
X019160Y006864D01*
X019154Y006882D01*
X019152Y006902D01*
X018552Y006902D02*
X018554Y006954D01*
X018560Y007006D01*
X018570Y007058D01*
X018583Y007108D01*
X018600Y007158D01*
X018621Y007206D01*
X018646Y007252D01*
X018674Y007296D01*
X018705Y007338D01*
X018739Y007378D01*
X018776Y007415D01*
X018816Y007449D01*
X018858Y007480D01*
X018902Y007508D01*
X018948Y007533D01*
X018996Y007554D01*
X019046Y007571D01*
X019096Y007584D01*
X019148Y007594D01*
X019200Y007600D01*
X019252Y007602D01*
X019304Y007600D01*
X019356Y007594D01*
X019408Y007584D01*
X019458Y007571D01*
X019508Y007554D01*
X019556Y007533D01*
X019602Y007508D01*
X019646Y007480D01*
X019688Y007449D01*
X019728Y007415D01*
X019765Y007378D01*
X019799Y007338D01*
X019830Y007296D01*
X019858Y007252D01*
X019883Y007206D01*
X019904Y007158D01*
X019921Y007108D01*
X019934Y007058D01*
X019944Y007006D01*
X019950Y006954D01*
X019952Y006902D01*
X019950Y006850D01*
X019944Y006798D01*
X019934Y006746D01*
X019921Y006696D01*
X019904Y006646D01*
X019883Y006598D01*
X019858Y006552D01*
X019830Y006508D01*
X019799Y006466D01*
X019765Y006426D01*
X019728Y006389D01*
X019688Y006355D01*
X019646Y006324D01*
X019602Y006296D01*
X019556Y006271D01*
X019508Y006250D01*
X019458Y006233D01*
X019408Y006220D01*
X019356Y006210D01*
X019304Y006204D01*
X019252Y006202D01*
X019200Y006204D01*
X019148Y006210D01*
X019096Y006220D01*
X019046Y006233D01*
X018996Y006250D01*
X018948Y006271D01*
X018902Y006296D01*
X018858Y006324D01*
X018816Y006355D01*
X018776Y006389D01*
X018739Y006426D01*
X018705Y006466D01*
X018674Y006508D01*
X018646Y006552D01*
X018621Y006598D01*
X018600Y006646D01*
X018583Y006696D01*
X018570Y006746D01*
X018560Y006798D01*
X018554Y006850D01*
X018552Y006902D01*
X016652Y005702D02*
X016552Y005702D01*
X016552Y005602D01*
X015952Y005602D01*
X015952Y005702D01*
X015852Y005702D01*
X015052Y006052D02*
X015052Y006402D01*
X015052Y007402D01*
X015052Y007752D01*
X014452Y007752D02*
X014452Y007352D01*
X014452Y006402D01*
X014452Y006052D01*
X013652Y005702D02*
X013552Y005702D01*
X013552Y005602D01*
X012952Y005602D01*
X012952Y005702D01*
X012852Y005702D01*
X012052Y006052D02*
X012052Y006402D01*
X012052Y007402D01*
X012052Y007752D01*
X012852Y008102D02*
X012952Y008102D01*
X012952Y008202D01*
X013552Y008202D01*
X013552Y008102D01*
X013652Y008102D01*
X013152Y006902D02*
X013154Y006922D01*
X013160Y006940D01*
X013169Y006958D01*
X013181Y006973D01*
X013196Y006985D01*
X013214Y006994D01*
X013232Y007000D01*
X013252Y007002D01*
X013272Y007000D01*
X013290Y006994D01*
X013308Y006985D01*
X013323Y006973D01*
X013335Y006958D01*
X013344Y006940D01*
X013350Y006922D01*
X013352Y006902D01*
X013350Y006882D01*
X013344Y006864D01*
X013335Y006846D01*
X013323Y006831D01*
X013308Y006819D01*
X013290Y006810D01*
X013272Y006804D01*
X013252Y006802D01*
X013232Y006804D01*
X013214Y006810D01*
X013196Y006819D01*
X013181Y006831D01*
X013169Y006846D01*
X013160Y006864D01*
X013154Y006882D01*
X013152Y006902D01*
X012552Y006902D02*
X012554Y006954D01*
X012560Y007006D01*
X012570Y007058D01*
X012583Y007108D01*
X012600Y007158D01*
X012621Y007206D01*
X012646Y007252D01*
X012674Y007296D01*
X012705Y007338D01*
X012739Y007378D01*
X012776Y007415D01*
X012816Y007449D01*
X012858Y007480D01*
X012902Y007508D01*
X012948Y007533D01*
X012996Y007554D01*
X013046Y007571D01*
X013096Y007584D01*
X013148Y007594D01*
X013200Y007600D01*
X013252Y007602D01*
X013304Y007600D01*
X013356Y007594D01*
X013408Y007584D01*
X013458Y007571D01*
X013508Y007554D01*
X013556Y007533D01*
X013602Y007508D01*
X013646Y007480D01*
X013688Y007449D01*
X013728Y007415D01*
X013765Y007378D01*
X013799Y007338D01*
X013830Y007296D01*
X013858Y007252D01*
X013883Y007206D01*
X013904Y007158D01*
X013921Y007108D01*
X013934Y007058D01*
X013944Y007006D01*
X013950Y006954D01*
X013952Y006902D01*
X013950Y006850D01*
X013944Y006798D01*
X013934Y006746D01*
X013921Y006696D01*
X013904Y006646D01*
X013883Y006598D01*
X013858Y006552D01*
X013830Y006508D01*
X013799Y006466D01*
X013765Y006426D01*
X013728Y006389D01*
X013688Y006355D01*
X013646Y006324D01*
X013602Y006296D01*
X013556Y006271D01*
X013508Y006250D01*
X013458Y006233D01*
X013408Y006220D01*
X013356Y006210D01*
X013304Y006204D01*
X013252Y006202D01*
X013200Y006204D01*
X013148Y006210D01*
X013096Y006220D01*
X013046Y006233D01*
X012996Y006250D01*
X012948Y006271D01*
X012902Y006296D01*
X012858Y006324D01*
X012816Y006355D01*
X012776Y006389D01*
X012739Y006426D01*
X012705Y006466D01*
X012674Y006508D01*
X012646Y006552D01*
X012621Y006598D01*
X012600Y006646D01*
X012583Y006696D01*
X012570Y006746D01*
X012560Y006798D01*
X012554Y006850D01*
X012552Y006902D01*
X015402Y004602D02*
X015802Y004602D01*
X016752Y004602D01*
X017102Y004602D01*
X017452Y003802D02*
X017452Y003702D01*
X017552Y003702D01*
X017552Y003102D01*
X017452Y003102D01*
X017452Y003002D01*
X017102Y002202D02*
X016752Y002202D01*
X015752Y002202D01*
X015402Y002202D01*
X015052Y003002D02*
X015052Y003102D01*
X014952Y003102D01*
X014952Y003702D01*
X015052Y003702D01*
X015052Y003802D01*
X016152Y003402D02*
X016154Y003422D01*
X016160Y003440D01*
X016169Y003458D01*
X016181Y003473D01*
X016196Y003485D01*
X016214Y003494D01*
X016232Y003500D01*
X016252Y003502D01*
X016272Y003500D01*
X016290Y003494D01*
X016308Y003485D01*
X016323Y003473D01*
X016335Y003458D01*
X016344Y003440D01*
X016350Y003422D01*
X016352Y003402D01*
X016350Y003382D01*
X016344Y003364D01*
X016335Y003346D01*
X016323Y003331D01*
X016308Y003319D01*
X016290Y003310D01*
X016272Y003304D01*
X016252Y003302D01*
X016232Y003304D01*
X016214Y003310D01*
X016196Y003319D01*
X016181Y003331D01*
X016169Y003346D01*
X016160Y003364D01*
X016154Y003382D01*
X016152Y003402D01*
X015552Y003402D02*
X015554Y003454D01*
X015560Y003506D01*
X015570Y003558D01*
X015583Y003608D01*
X015600Y003658D01*
X015621Y003706D01*
X015646Y003752D01*
X015674Y003796D01*
X015705Y003838D01*
X015739Y003878D01*
X015776Y003915D01*
X015816Y003949D01*
X015858Y003980D01*
X015902Y004008D01*
X015948Y004033D01*
X015996Y004054D01*
X016046Y004071D01*
X016096Y004084D01*
X016148Y004094D01*
X016200Y004100D01*
X016252Y004102D01*
X016304Y004100D01*
X016356Y004094D01*
X016408Y004084D01*
X016458Y004071D01*
X016508Y004054D01*
X016556Y004033D01*
X016602Y004008D01*
X016646Y003980D01*
X016688Y003949D01*
X016728Y003915D01*
X016765Y003878D01*
X016799Y003838D01*
X016830Y003796D01*
X016858Y003752D01*
X016883Y003706D01*
X016904Y003658D01*
X016921Y003608D01*
X016934Y003558D01*
X016944Y003506D01*
X016950Y003454D01*
X016952Y003402D01*
X016950Y003350D01*
X016944Y003298D01*
X016934Y003246D01*
X016921Y003196D01*
X016904Y003146D01*
X016883Y003098D01*
X016858Y003052D01*
X016830Y003008D01*
X016799Y002966D01*
X016765Y002926D01*
X016728Y002889D01*
X016688Y002855D01*
X016646Y002824D01*
X016602Y002796D01*
X016556Y002771D01*
X016508Y002750D01*
X016458Y002733D01*
X016408Y002720D01*
X016356Y002710D01*
X016304Y002704D01*
X016252Y002702D01*
X016200Y002704D01*
X016148Y002710D01*
X016096Y002720D01*
X016046Y002733D01*
X015996Y002750D01*
X015948Y002771D01*
X015902Y002796D01*
X015858Y002824D01*
X015816Y002855D01*
X015776Y002889D01*
X015739Y002926D01*
X015705Y002966D01*
X015674Y003008D01*
X015646Y003052D01*
X015621Y003098D01*
X015600Y003146D01*
X015583Y003196D01*
X015570Y003246D01*
X015560Y003298D01*
X015554Y003350D01*
X015552Y003402D01*
X013702Y003902D02*
X013702Y004052D01*
X013700Y004069D01*
X013696Y004086D01*
X013689Y004102D01*
X013679Y004116D01*
X013666Y004129D01*
X013652Y004139D01*
X013636Y004146D01*
X013619Y004150D01*
X013602Y004152D01*
X012902Y004152D01*
X012885Y004150D01*
X012868Y004146D01*
X012852Y004139D01*
X012838Y004129D01*
X012825Y004116D01*
X012815Y004102D01*
X012808Y004086D01*
X012804Y004069D01*
X012802Y004052D01*
X012802Y003902D01*
X012852Y003852D01*
X012852Y001952D01*
X012802Y001902D01*
X012802Y001752D01*
X012804Y001735D01*
X012808Y001718D01*
X012815Y001702D01*
X012825Y001688D01*
X012838Y001675D01*
X012852Y001665D01*
X012868Y001658D01*
X012885Y001654D01*
X012902Y001652D01*
X013602Y001652D01*
X013619Y001654D01*
X013636Y001658D01*
X013652Y001665D01*
X013666Y001675D01*
X013679Y001688D01*
X013689Y001702D01*
X013696Y001718D01*
X013700Y001735D01*
X013702Y001752D01*
X013702Y001902D01*
X013652Y001952D01*
X013652Y003852D01*
X013702Y003902D01*
X011702Y003902D02*
X011652Y003852D01*
X011652Y001952D01*
X011702Y001902D01*
X011702Y001752D01*
X011700Y001735D01*
X011696Y001718D01*
X011689Y001702D01*
X011679Y001688D01*
X011666Y001675D01*
X011652Y001665D01*
X011636Y001658D01*
X011619Y001654D01*
X011602Y001652D01*
X010902Y001652D01*
X010885Y001654D01*
X010868Y001658D01*
X010852Y001665D01*
X010838Y001675D01*
X010825Y001688D01*
X010815Y001702D01*
X010808Y001718D01*
X010804Y001735D01*
X010802Y001752D01*
X010802Y001902D01*
X010852Y001952D01*
X010852Y003852D01*
X010802Y003902D01*
X010802Y004052D01*
X010804Y004069D01*
X010808Y004086D01*
X010815Y004102D01*
X010825Y004116D01*
X010838Y004129D01*
X010852Y004139D01*
X010868Y004146D01*
X010885Y004150D01*
X010902Y004152D01*
X011602Y004152D01*
X011619Y004150D01*
X011636Y004146D01*
X011652Y004139D01*
X011666Y004129D01*
X011679Y004116D01*
X011689Y004102D01*
X011696Y004086D01*
X011700Y004069D01*
X011702Y004052D01*
X011702Y003902D01*
X009202Y003902D02*
X009202Y003752D01*
X009200Y003735D01*
X009196Y003718D01*
X009189Y003702D01*
X009179Y003688D01*
X009166Y003675D01*
X009152Y003665D01*
X009136Y003658D01*
X009119Y003654D01*
X009102Y003652D01*
X008402Y003652D01*
X008385Y003654D01*
X008368Y003658D01*
X008352Y003665D01*
X008338Y003675D01*
X008325Y003688D01*
X008315Y003702D01*
X008308Y003718D01*
X008304Y003735D01*
X008302Y003752D01*
X008302Y003902D01*
X008352Y003952D01*
X008352Y005852D01*
X008302Y005902D01*
X008302Y006052D01*
X008304Y006069D01*
X008308Y006086D01*
X008315Y006102D01*
X008325Y006116D01*
X008338Y006129D01*
X008352Y006139D01*
X008368Y006146D01*
X008385Y006150D01*
X008402Y006152D01*
X009102Y006152D01*
X009119Y006150D01*
X009136Y006146D01*
X009152Y006139D01*
X009166Y006129D01*
X009179Y006116D01*
X009189Y006102D01*
X009196Y006086D01*
X009200Y006069D01*
X009202Y006052D01*
X009202Y005902D01*
X009152Y005852D01*
X009152Y003952D01*
X009202Y003902D01*
X008202Y003902D02*
X008202Y003752D01*
X008200Y003735D01*
X008196Y003718D01*
X008189Y003702D01*
X008179Y003688D01*
X008166Y003675D01*
X008152Y003665D01*
X008136Y003658D01*
X008119Y003654D01*
X008102Y003652D01*
X007402Y003652D01*
X007385Y003654D01*
X007368Y003658D01*
X007352Y003665D01*
X007338Y003675D01*
X007325Y003688D01*
X007315Y003702D01*
X007308Y003718D01*
X007304Y003735D01*
X007302Y003752D01*
X007302Y003902D01*
X007352Y003952D01*
X007352Y005852D01*
X007302Y005902D01*
X007302Y006052D01*
X007304Y006069D01*
X007308Y006086D01*
X007315Y006102D01*
X007325Y006116D01*
X007338Y006129D01*
X007352Y006139D01*
X007368Y006146D01*
X007385Y006150D01*
X007402Y006152D01*
X008102Y006152D01*
X008119Y006150D01*
X008136Y006146D01*
X008152Y006139D01*
X008166Y006129D01*
X008179Y006116D01*
X008189Y006102D01*
X008196Y006086D01*
X008200Y006069D01*
X008202Y006052D01*
X008202Y005902D01*
X008152Y005852D01*
X008152Y003952D01*
X008202Y003902D01*
X007202Y003902D02*
X007202Y003752D01*
X007200Y003735D01*
X007196Y003718D01*
X007189Y003702D01*
X007179Y003688D01*
X007166Y003675D01*
X007152Y003665D01*
X007136Y003658D01*
X007119Y003654D01*
X007102Y003652D01*
X006402Y003652D01*
X006385Y003654D01*
X006368Y003658D01*
X006352Y003665D01*
X006338Y003675D01*
X006325Y003688D01*
X006315Y003702D01*
X006308Y003718D01*
X006304Y003735D01*
X006302Y003752D01*
X006302Y003902D01*
X006352Y003952D01*
X006352Y005852D01*
X006302Y005902D01*
X006302Y006052D01*
X006304Y006069D01*
X006308Y006086D01*
X006315Y006102D01*
X006325Y006116D01*
X006338Y006129D01*
X006352Y006139D01*
X006368Y006146D01*
X006385Y006150D01*
X006402Y006152D01*
X007102Y006152D01*
X007119Y006150D01*
X007136Y006146D01*
X007152Y006139D01*
X007166Y006129D01*
X007179Y006116D01*
X007189Y006102D01*
X007196Y006086D01*
X007200Y006069D01*
X007202Y006052D01*
X007202Y005902D01*
X007152Y005852D01*
X007152Y003952D01*
X007202Y003902D01*
X006202Y003902D02*
X006202Y003752D01*
X006200Y003735D01*
X006196Y003718D01*
X006189Y003702D01*
X006179Y003688D01*
X006166Y003675D01*
X006152Y003665D01*
X006136Y003658D01*
X006119Y003654D01*
X006102Y003652D01*
X005402Y003652D01*
X005385Y003654D01*
X005368Y003658D01*
X005352Y003665D01*
X005338Y003675D01*
X005325Y003688D01*
X005315Y003702D01*
X005308Y003718D01*
X005304Y003735D01*
X005302Y003752D01*
X005302Y003902D01*
X005352Y003952D01*
X005352Y005852D01*
X005302Y005902D01*
X005302Y006052D01*
X005304Y006069D01*
X005308Y006086D01*
X005315Y006102D01*
X005325Y006116D01*
X005338Y006129D01*
X005352Y006139D01*
X005368Y006146D01*
X005385Y006150D01*
X005402Y006152D01*
X006102Y006152D01*
X006119Y006150D01*
X006136Y006146D01*
X006152Y006139D01*
X006166Y006129D01*
X006179Y006116D01*
X006189Y006102D01*
X006196Y006086D01*
X006200Y006069D01*
X006202Y006052D01*
X006202Y005902D01*
X006152Y005852D01*
X006152Y003952D01*
X006202Y003902D01*
X016152Y006902D02*
X016154Y006922D01*
X016160Y006940D01*
X016169Y006958D01*
X016181Y006973D01*
X016196Y006985D01*
X016214Y006994D01*
X016232Y007000D01*
X016252Y007002D01*
X016272Y007000D01*
X016290Y006994D01*
X016308Y006985D01*
X016323Y006973D01*
X016335Y006958D01*
X016344Y006940D01*
X016350Y006922D01*
X016352Y006902D01*
X016350Y006882D01*
X016344Y006864D01*
X016335Y006846D01*
X016323Y006831D01*
X016308Y006819D01*
X016290Y006810D01*
X016272Y006804D01*
X016252Y006802D01*
X016232Y006804D01*
X016214Y006810D01*
X016196Y006819D01*
X016181Y006831D01*
X016169Y006846D01*
X016160Y006864D01*
X016154Y006882D01*
X016152Y006902D01*
X015552Y006902D02*
X015554Y006954D01*
X015560Y007006D01*
X015570Y007058D01*
X015583Y007108D01*
X015600Y007158D01*
X015621Y007206D01*
X015646Y007252D01*
X015674Y007296D01*
X015705Y007338D01*
X015739Y007378D01*
X015776Y007415D01*
X015816Y007449D01*
X015858Y007480D01*
X015902Y007508D01*
X015948Y007533D01*
X015996Y007554D01*
X016046Y007571D01*
X016096Y007584D01*
X016148Y007594D01*
X016200Y007600D01*
X016252Y007602D01*
X016304Y007600D01*
X016356Y007594D01*
X016408Y007584D01*
X016458Y007571D01*
X016508Y007554D01*
X016556Y007533D01*
X016602Y007508D01*
X016646Y007480D01*
X016688Y007449D01*
X016728Y007415D01*
X016765Y007378D01*
X016799Y007338D01*
X016830Y007296D01*
X016858Y007252D01*
X016883Y007206D01*
X016904Y007158D01*
X016921Y007108D01*
X016934Y007058D01*
X016944Y007006D01*
X016950Y006954D01*
X016952Y006902D01*
X016950Y006850D01*
X016944Y006798D01*
X016934Y006746D01*
X016921Y006696D01*
X016904Y006646D01*
X016883Y006598D01*
X016858Y006552D01*
X016830Y006508D01*
X016799Y006466D01*
X016765Y006426D01*
X016728Y006389D01*
X016688Y006355D01*
X016646Y006324D01*
X016602Y006296D01*
X016556Y006271D01*
X016508Y006250D01*
X016458Y006233D01*
X016408Y006220D01*
X016356Y006210D01*
X016304Y006204D01*
X016252Y006202D01*
X016200Y006204D01*
X016148Y006210D01*
X016096Y006220D01*
X016046Y006233D01*
X015996Y006250D01*
X015948Y006271D01*
X015902Y006296D01*
X015858Y006324D01*
X015816Y006355D01*
X015776Y006389D01*
X015739Y006426D01*
X015705Y006466D01*
X015674Y006508D01*
X015646Y006552D01*
X015621Y006598D01*
X015600Y006646D01*
X015583Y006696D01*
X015570Y006746D01*
X015560Y006798D01*
X015554Y006850D01*
X015552Y006902D01*
X016152Y010402D02*
X016154Y010422D01*
X016160Y010440D01*
X016169Y010458D01*
X016181Y010473D01*
X016196Y010485D01*
X016214Y010494D01*
X016232Y010500D01*
X016252Y010502D01*
X016272Y010500D01*
X016290Y010494D01*
X016308Y010485D01*
X016323Y010473D01*
X016335Y010458D01*
X016344Y010440D01*
X016350Y010422D01*
X016352Y010402D01*
X016350Y010382D01*
X016344Y010364D01*
X016335Y010346D01*
X016323Y010331D01*
X016308Y010319D01*
X016290Y010310D01*
X016272Y010304D01*
X016252Y010302D01*
X016232Y010304D01*
X016214Y010310D01*
X016196Y010319D01*
X016181Y010331D01*
X016169Y010346D01*
X016160Y010364D01*
X016154Y010382D01*
X016152Y010402D01*
X015552Y010402D02*
X015554Y010454D01*
X015560Y010506D01*
X015570Y010558D01*
X015583Y010608D01*
X015600Y010658D01*
X015621Y010706D01*
X015646Y010752D01*
X015674Y010796D01*
X015705Y010838D01*
X015739Y010878D01*
X015776Y010915D01*
X015816Y010949D01*
X015858Y010980D01*
X015902Y011008D01*
X015948Y011033D01*
X015996Y011054D01*
X016046Y011071D01*
X016096Y011084D01*
X016148Y011094D01*
X016200Y011100D01*
X016252Y011102D01*
X016304Y011100D01*
X016356Y011094D01*
X016408Y011084D01*
X016458Y011071D01*
X016508Y011054D01*
X016556Y011033D01*
X016602Y011008D01*
X016646Y010980D01*
X016688Y010949D01*
X016728Y010915D01*
X016765Y010878D01*
X016799Y010838D01*
X016830Y010796D01*
X016858Y010752D01*
X016883Y010706D01*
X016904Y010658D01*
X016921Y010608D01*
X016934Y010558D01*
X016944Y010506D01*
X016950Y010454D01*
X016952Y010402D01*
X016950Y010350D01*
X016944Y010298D01*
X016934Y010246D01*
X016921Y010196D01*
X016904Y010146D01*
X016883Y010098D01*
X016858Y010052D01*
X016830Y010008D01*
X016799Y009966D01*
X016765Y009926D01*
X016728Y009889D01*
X016688Y009855D01*
X016646Y009824D01*
X016602Y009796D01*
X016556Y009771D01*
X016508Y009750D01*
X016458Y009733D01*
X016408Y009720D01*
X016356Y009710D01*
X016304Y009704D01*
X016252Y009702D01*
X016200Y009704D01*
X016148Y009710D01*
X016096Y009720D01*
X016046Y009733D01*
X015996Y009750D01*
X015948Y009771D01*
X015902Y009796D01*
X015858Y009824D01*
X015816Y009855D01*
X015776Y009889D01*
X015739Y009926D01*
X015705Y009966D01*
X015674Y010008D01*
X015646Y010052D01*
X015621Y010098D01*
X015600Y010146D01*
X015583Y010196D01*
X015570Y010246D01*
X015560Y010298D01*
X015554Y010350D01*
X015552Y010402D01*
X020993Y012839D02*
X021099Y012732D01*
X021206Y012732D01*
X021313Y012839D01*
X021313Y013373D01*
X021206Y013373D02*
X021420Y013373D01*
X021637Y013159D02*
X021851Y013373D01*
X021851Y012732D01*
X022064Y012732D02*
X021637Y012732D01*
D15*
X013752Y012822D03*
X012752Y012822D03*
X011752Y012322D03*
X012752Y009982D03*
X013752Y009982D03*
X011752Y009482D03*
X008752Y006322D03*
X007752Y006322D03*
X006752Y006322D03*
X005752Y006322D03*
X005752Y003482D03*
X006752Y003482D03*
X007752Y003482D03*
X008752Y003482D03*
X011252Y004322D03*
X013252Y004322D03*
X013252Y001482D03*
X011252Y001482D03*
D16*
X018752Y002652D02*
X018752Y004652D01*
X020502Y004652D01*
X020502Y002652D01*
X018752Y002652D01*
X020502Y002652D02*
X021252Y002652D01*
X021252Y004652D01*
X020502Y004652D01*
X020252Y009402D02*
X018502Y009402D01*
X018502Y013402D01*
X020252Y013402D01*
X020252Y009402D01*
X021002Y009402D01*
X021002Y013402D01*
X020252Y013402D01*
X019252Y017652D02*
X015252Y017652D01*
X015252Y019402D01*
X019252Y019402D01*
X019252Y017652D01*
X019252Y019402D02*
X019252Y020152D01*
X015252Y020152D01*
X015252Y019402D01*
X014252Y019402D02*
X011252Y019402D01*
X011252Y020152D01*
X014252Y020152D01*
X014252Y019402D01*
X014252Y017652D01*
X011252Y017652D01*
X011252Y019402D01*
X010252Y019402D02*
X007252Y019402D01*
X007252Y020152D01*
X010252Y020152D01*
X010252Y019402D01*
X010252Y017652D01*
X007252Y017652D01*
X007252Y019402D01*
X006252Y019402D02*
X003252Y019402D01*
X003252Y020152D01*
X006252Y020152D01*
X006252Y019402D01*
X006252Y017652D01*
X003252Y017652D01*
X003252Y019402D01*
X010452Y017292D02*
X010452Y013512D01*
X012244Y013512D01*
X012244Y014142D01*
X012145Y014142D01*
X012145Y016662D01*
X012244Y016662D01*
X012244Y017292D01*
X010452Y017292D01*
D17*
X011023Y016701D03*
D18*
X015802Y011602D02*
X015802Y011502D01*
X016752Y011502D01*
X016752Y011602D01*
X016752Y009302D02*
X015752Y009302D01*
X015752Y009202D01*
X016752Y009202D02*
X016752Y009302D01*
X018052Y007402D02*
X018152Y007402D01*
X018152Y006402D01*
X018052Y006402D01*
X017452Y006402D02*
X017352Y006402D01*
X017352Y007352D01*
X017452Y007352D01*
X015152Y007402D02*
X015152Y006402D01*
X015052Y006402D01*
X014452Y006402D02*
X014352Y006402D01*
X014352Y007352D01*
X014452Y007352D01*
X015052Y007402D02*
X015152Y007402D01*
X012152Y007402D02*
X012152Y006402D01*
X012052Y006402D01*
X012052Y007402D02*
X012152Y007402D01*
X015802Y004602D02*
X015802Y004502D01*
X016752Y004502D01*
X016752Y004602D01*
X016752Y002302D02*
X015752Y002302D01*
X015752Y002202D01*
X016752Y002202D02*
X016752Y002302D01*
X020352Y006402D02*
X020452Y006402D01*
X020352Y006402D02*
X020352Y007352D01*
X020452Y007352D01*
D19*
X008459Y015147D02*
X008459Y015297D01*
X008409Y015297D02*
X008509Y015297D01*
X008362Y015297D02*
X008262Y015297D01*
X008262Y015147D01*
X008362Y015147D01*
X008312Y015222D02*
X008262Y015222D01*
X008215Y015147D02*
X008215Y015297D01*
X008115Y015297D02*
X008215Y015147D01*
X008115Y015147D02*
X008115Y015297D01*
X008067Y015272D02*
X008067Y015222D01*
X008042Y015197D01*
X007967Y015197D01*
X007967Y015147D02*
X007967Y015297D01*
X008042Y015297D01*
X008067Y015272D01*
X008017Y015197D02*
X008067Y015147D01*
X007920Y015147D02*
X007820Y015147D01*
X007820Y015297D01*
X007920Y015297D01*
X007870Y015222D02*
X007820Y015222D01*
X007773Y015222D02*
X007673Y015222D01*
X007673Y015147D02*
X007673Y015297D01*
X007625Y015297D02*
X007525Y015297D01*
X007478Y015297D02*
X007378Y015297D01*
X007378Y015147D01*
X007478Y015147D01*
X007428Y015222D02*
X007378Y015222D01*
X007575Y015147D02*
X007575Y015297D01*
X007773Y015297D02*
X007773Y015147D01*
D20*
X007252Y015902D03*
M02*
