G75*
G70*
%OFA0B0*%
%FSLAX24Y24*%
%IPPOS*%
%LPD*%
%AMOC8*
5,1,8,0,0,1.08239X$1,22.5*
%
%ADD10C,0.0000*%
D10*
X001252Y001133D02*
X001252Y020818D01*
X020744Y020818D01*
X020744Y001133D01*
X001252Y001133D01*
X001804Y002027D02*
X001806Y002075D01*
X001812Y002123D01*
X001822Y002170D01*
X001835Y002216D01*
X001853Y002261D01*
X001873Y002305D01*
X001898Y002347D01*
X001926Y002386D01*
X001956Y002423D01*
X001990Y002457D01*
X002027Y002489D01*
X002065Y002518D01*
X002106Y002543D01*
X002149Y002565D01*
X002194Y002583D01*
X002240Y002597D01*
X002287Y002608D01*
X002335Y002615D01*
X002383Y002618D01*
X002431Y002617D01*
X002479Y002612D01*
X002527Y002603D01*
X002573Y002591D01*
X002618Y002574D01*
X002662Y002554D01*
X002704Y002531D01*
X002744Y002504D01*
X002782Y002474D01*
X002817Y002441D01*
X002849Y002405D01*
X002879Y002367D01*
X002905Y002326D01*
X002927Y002283D01*
X002947Y002239D01*
X002962Y002194D01*
X002974Y002147D01*
X002982Y002099D01*
X002986Y002051D01*
X002986Y002003D01*
X002982Y001955D01*
X002974Y001907D01*
X002962Y001860D01*
X002947Y001815D01*
X002927Y001771D01*
X002905Y001728D01*
X002879Y001687D01*
X002849Y001649D01*
X002817Y001613D01*
X002782Y001580D01*
X002744Y001550D01*
X002704Y001523D01*
X002662Y001500D01*
X002618Y001480D01*
X002573Y001463D01*
X002527Y001451D01*
X002479Y001442D01*
X002431Y001437D01*
X002383Y001436D01*
X002335Y001439D01*
X002287Y001446D01*
X002240Y001457D01*
X002194Y001471D01*
X002149Y001489D01*
X002106Y001511D01*
X002065Y001536D01*
X002027Y001565D01*
X001990Y001597D01*
X001956Y001631D01*
X001926Y001668D01*
X001898Y001707D01*
X001873Y001749D01*
X001853Y001793D01*
X001835Y001838D01*
X001822Y001884D01*
X001812Y001931D01*
X001806Y001979D01*
X001804Y002027D01*
X019201Y010633D02*
X019203Y010680D01*
X019209Y010726D01*
X019219Y010772D01*
X019232Y010817D01*
X019250Y010860D01*
X019271Y010902D01*
X019295Y010942D01*
X019323Y010979D01*
X019354Y011014D01*
X019388Y011047D01*
X019424Y011076D01*
X019463Y011102D01*
X019504Y011125D01*
X019547Y011144D01*
X019591Y011160D01*
X019636Y011172D01*
X019682Y011180D01*
X019729Y011184D01*
X019775Y011184D01*
X019822Y011180D01*
X019868Y011172D01*
X019913Y011160D01*
X019957Y011144D01*
X020000Y011125D01*
X020041Y011102D01*
X020080Y011076D01*
X020116Y011047D01*
X020150Y011014D01*
X020181Y010979D01*
X020209Y010942D01*
X020233Y010902D01*
X020254Y010860D01*
X020272Y010817D01*
X020285Y010772D01*
X020295Y010726D01*
X020301Y010680D01*
X020303Y010633D01*
X020301Y010586D01*
X020295Y010540D01*
X020285Y010494D01*
X020272Y010449D01*
X020254Y010406D01*
X020233Y010364D01*
X020209Y010324D01*
X020181Y010287D01*
X020150Y010252D01*
X020116Y010219D01*
X020080Y010190D01*
X020041Y010164D01*
X020000Y010141D01*
X019957Y010122D01*
X019913Y010106D01*
X019868Y010094D01*
X019822Y010086D01*
X019775Y010082D01*
X019729Y010082D01*
X019682Y010086D01*
X019636Y010094D01*
X019591Y010106D01*
X019547Y010122D01*
X019504Y010141D01*
X019463Y010164D01*
X019424Y010190D01*
X019388Y010219D01*
X019354Y010252D01*
X019323Y010287D01*
X019295Y010324D01*
X019271Y010364D01*
X019250Y010406D01*
X019232Y010449D01*
X019219Y010494D01*
X019209Y010540D01*
X019203Y010586D01*
X019201Y010633D01*
X019304Y017527D02*
X019306Y017575D01*
X019312Y017623D01*
X019322Y017670D01*
X019335Y017716D01*
X019353Y017761D01*
X019373Y017805D01*
X019398Y017847D01*
X019426Y017886D01*
X019456Y017923D01*
X019490Y017957D01*
X019527Y017989D01*
X019565Y018018D01*
X019606Y018043D01*
X019649Y018065D01*
X019694Y018083D01*
X019740Y018097D01*
X019787Y018108D01*
X019835Y018115D01*
X019883Y018118D01*
X019931Y018117D01*
X019979Y018112D01*
X020027Y018103D01*
X020073Y018091D01*
X020118Y018074D01*
X020162Y018054D01*
X020204Y018031D01*
X020244Y018004D01*
X020282Y017974D01*
X020317Y017941D01*
X020349Y017905D01*
X020379Y017867D01*
X020405Y017826D01*
X020427Y017783D01*
X020447Y017739D01*
X020462Y017694D01*
X020474Y017647D01*
X020482Y017599D01*
X020486Y017551D01*
X020486Y017503D01*
X020482Y017455D01*
X020474Y017407D01*
X020462Y017360D01*
X020447Y017315D01*
X020427Y017271D01*
X020405Y017228D01*
X020379Y017187D01*
X020349Y017149D01*
X020317Y017113D01*
X020282Y017080D01*
X020244Y017050D01*
X020204Y017023D01*
X020162Y017000D01*
X020118Y016980D01*
X020073Y016963D01*
X020027Y016951D01*
X019979Y016942D01*
X019931Y016937D01*
X019883Y016936D01*
X019835Y016939D01*
X019787Y016946D01*
X019740Y016957D01*
X019694Y016971D01*
X019649Y016989D01*
X019606Y017011D01*
X019565Y017036D01*
X019527Y017065D01*
X019490Y017097D01*
X019456Y017131D01*
X019426Y017168D01*
X019398Y017207D01*
X019373Y017249D01*
X019353Y017293D01*
X019335Y017338D01*
X019322Y017384D01*
X019312Y017431D01*
X019306Y017479D01*
X019304Y017527D01*
X001594Y019883D02*
X001596Y019930D01*
X001602Y019976D01*
X001612Y020022D01*
X001625Y020067D01*
X001643Y020110D01*
X001664Y020152D01*
X001688Y020192D01*
X001716Y020229D01*
X001747Y020264D01*
X001781Y020297D01*
X001817Y020326D01*
X001856Y020352D01*
X001897Y020375D01*
X001940Y020394D01*
X001984Y020410D01*
X002029Y020422D01*
X002075Y020430D01*
X002122Y020434D01*
X002168Y020434D01*
X002215Y020430D01*
X002261Y020422D01*
X002306Y020410D01*
X002350Y020394D01*
X002393Y020375D01*
X002434Y020352D01*
X002473Y020326D01*
X002509Y020297D01*
X002543Y020264D01*
X002574Y020229D01*
X002602Y020192D01*
X002626Y020152D01*
X002647Y020110D01*
X002665Y020067D01*
X002678Y020022D01*
X002688Y019976D01*
X002694Y019930D01*
X002696Y019883D01*
X002694Y019836D01*
X002688Y019790D01*
X002678Y019744D01*
X002665Y019699D01*
X002647Y019656D01*
X002626Y019614D01*
X002602Y019574D01*
X002574Y019537D01*
X002543Y019502D01*
X002509Y019469D01*
X002473Y019440D01*
X002434Y019414D01*
X002393Y019391D01*
X002350Y019372D01*
X002306Y019356D01*
X002261Y019344D01*
X002215Y019336D01*
X002168Y019332D01*
X002122Y019332D01*
X002075Y019336D01*
X002029Y019344D01*
X001984Y019356D01*
X001940Y019372D01*
X001897Y019391D01*
X001856Y019414D01*
X001817Y019440D01*
X001781Y019469D01*
X001747Y019502D01*
X001716Y019537D01*
X001688Y019574D01*
X001664Y019614D01*
X001643Y019656D01*
X001625Y019699D01*
X001612Y019744D01*
X001602Y019790D01*
X001596Y019836D01*
X001594Y019883D01*
M02*
