%
M48
M72
T01C0.0120
T02C0.0320
T03C0.0394
T04C0.0400
T05C0.0787
T06C0.1102
%
T01
X7352Y10432
X6682Y6462
X9332Y2972
X5962Y9382
X12782Y8752
X10302Y9882
X10152Y16122
X13512Y14442
X15892Y12022
X7482Y6542
X12372Y15892
T02
X5752Y6902
X5752Y2902
X6752Y2902
X6752Y6902
X7752Y6902
X7752Y2902
X8752Y6902
X8752Y2902
X3252Y14902
X3752Y14152
X4252Y14902
X13252Y902
X13252Y4902
X12752Y9402
X12752Y13402
X11752Y12902
X11752Y8902
X13752Y13402
X13752Y9402
X11252Y4902
X11252Y902
T03
X11752Y14402
X11752Y15402
X11752Y16402
X11752Y18902
X12752Y18902
X13752Y18902
X7752Y18902
X8752Y18902
X9752Y18902
X3752Y18902
X4752Y18902
X5752Y18902
X15752Y18902
X16752Y18902
X17752Y18902
X18752Y18902
X16819Y14418
X19299Y14418
X18000Y16386
X19752Y12902
X19752Y11902
X19752Y10902
X19752Y9902
X20002Y4152
X20002Y3152
T04
X10252Y12402
X10252Y11402
X10252Y10402
X10252Y9402
X10252Y8402
X10252Y7402
X10252Y6402
X10252Y5402
X10252Y4402
X10252Y3402
X10252Y2402
X10252Y1402
X4252Y1402
X4252Y2402
X4252Y3402
X4252Y4402
X4252Y5402
X4252Y6402
X4252Y7402
X4252Y8402
X4252Y9402
X4252Y10402
X4252Y11402
X4252Y12402
X9252Y7902
X9252Y8902
X4752Y13402
X5752Y13402
X6752Y13402
X7752Y13402
X8752Y13402
X9752Y13402
X2252Y17402
X2252Y16402
X2252Y15402
X2252Y14402
X2252Y13402
X2252Y12402
X2252Y11402
X2252Y10402
X2252Y9402
X2252Y8402
X2252Y7402
X2252Y6402
X2252Y5402
X2252Y4402
X2252Y3402
X2252Y2402
X17532Y9512
X17532Y11292
X14972Y9512
X14972Y11292
X12362Y5622
X14142Y5622
X12362Y8182
X14142Y8182
X18362Y5622
X20142Y5622
X18362Y8182
X20142Y8182
X15362Y5622
X17142Y5622
X15362Y8182
X17142Y8182
X17532Y2512
X17532Y4292
X14972Y2512
X14972Y4292
X7252Y1402
X8252Y1402
X9252Y1402
X5252Y15902
X5252Y16902
X6252Y15902
X6252Y16902
X7252Y15902
X7252Y16902
X8252Y15902
X8252Y16902
X9252Y15902
X9252Y16902
T05
X2145Y1296
X20145Y19296
T06
X2145Y18902
X19752Y1402
M30
