G75*
G70*
%OFA0B0*%
%FSLAX24Y24*%
%IPPOS*%
%LPD*%
%AMOC8*
5,1,8,0,0,1.08239X$1,22.5*
%
%ADD10C,0.0000*%
%ADD11C,0.0040*%
D10*
X001252Y001133D02*
X001252Y020818D01*
X020744Y020818D01*
X020744Y001133D01*
X001252Y001133D01*
X001804Y002027D02*
X001806Y002075D01*
X001812Y002123D01*
X001822Y002170D01*
X001835Y002216D01*
X001853Y002261D01*
X001873Y002305D01*
X001898Y002347D01*
X001926Y002386D01*
X001956Y002423D01*
X001990Y002457D01*
X002027Y002489D01*
X002065Y002518D01*
X002106Y002543D01*
X002149Y002565D01*
X002194Y002583D01*
X002240Y002597D01*
X002287Y002608D01*
X002335Y002615D01*
X002383Y002618D01*
X002431Y002617D01*
X002479Y002612D01*
X002527Y002603D01*
X002573Y002591D01*
X002618Y002574D01*
X002662Y002554D01*
X002704Y002531D01*
X002744Y002504D01*
X002782Y002474D01*
X002817Y002441D01*
X002849Y002405D01*
X002879Y002367D01*
X002905Y002326D01*
X002927Y002283D01*
X002947Y002239D01*
X002962Y002194D01*
X002974Y002147D01*
X002982Y002099D01*
X002986Y002051D01*
X002986Y002003D01*
X002982Y001955D01*
X002974Y001907D01*
X002962Y001860D01*
X002947Y001815D01*
X002927Y001771D01*
X002905Y001728D01*
X002879Y001687D01*
X002849Y001649D01*
X002817Y001613D01*
X002782Y001580D01*
X002744Y001550D01*
X002704Y001523D01*
X002662Y001500D01*
X002618Y001480D01*
X002573Y001463D01*
X002527Y001451D01*
X002479Y001442D01*
X002431Y001437D01*
X002383Y001436D01*
X002335Y001439D01*
X002287Y001446D01*
X002240Y001457D01*
X002194Y001471D01*
X002149Y001489D01*
X002106Y001511D01*
X002065Y001536D01*
X002027Y001565D01*
X001990Y001597D01*
X001956Y001631D01*
X001926Y001668D01*
X001898Y001707D01*
X001873Y001749D01*
X001853Y001793D01*
X001835Y001838D01*
X001822Y001884D01*
X001812Y001931D01*
X001806Y001979D01*
X001804Y002027D01*
X019201Y010633D02*
X019203Y010680D01*
X019209Y010726D01*
X019219Y010772D01*
X019232Y010817D01*
X019250Y010860D01*
X019271Y010902D01*
X019295Y010942D01*
X019323Y010979D01*
X019354Y011014D01*
X019388Y011047D01*
X019424Y011076D01*
X019463Y011102D01*
X019504Y011125D01*
X019547Y011144D01*
X019591Y011160D01*
X019636Y011172D01*
X019682Y011180D01*
X019729Y011184D01*
X019775Y011184D01*
X019822Y011180D01*
X019868Y011172D01*
X019913Y011160D01*
X019957Y011144D01*
X020000Y011125D01*
X020041Y011102D01*
X020080Y011076D01*
X020116Y011047D01*
X020150Y011014D01*
X020181Y010979D01*
X020209Y010942D01*
X020233Y010902D01*
X020254Y010860D01*
X020272Y010817D01*
X020285Y010772D01*
X020295Y010726D01*
X020301Y010680D01*
X020303Y010633D01*
X020301Y010586D01*
X020295Y010540D01*
X020285Y010494D01*
X020272Y010449D01*
X020254Y010406D01*
X020233Y010364D01*
X020209Y010324D01*
X020181Y010287D01*
X020150Y010252D01*
X020116Y010219D01*
X020080Y010190D01*
X020041Y010164D01*
X020000Y010141D01*
X019957Y010122D01*
X019913Y010106D01*
X019868Y010094D01*
X019822Y010086D01*
X019775Y010082D01*
X019729Y010082D01*
X019682Y010086D01*
X019636Y010094D01*
X019591Y010106D01*
X019547Y010122D01*
X019504Y010141D01*
X019463Y010164D01*
X019424Y010190D01*
X019388Y010219D01*
X019354Y010252D01*
X019323Y010287D01*
X019295Y010324D01*
X019271Y010364D01*
X019250Y010406D01*
X019232Y010449D01*
X019219Y010494D01*
X019209Y010540D01*
X019203Y010586D01*
X019201Y010633D01*
X019304Y017527D02*
X019306Y017575D01*
X019312Y017623D01*
X019322Y017670D01*
X019335Y017716D01*
X019353Y017761D01*
X019373Y017805D01*
X019398Y017847D01*
X019426Y017886D01*
X019456Y017923D01*
X019490Y017957D01*
X019527Y017989D01*
X019565Y018018D01*
X019606Y018043D01*
X019649Y018065D01*
X019694Y018083D01*
X019740Y018097D01*
X019787Y018108D01*
X019835Y018115D01*
X019883Y018118D01*
X019931Y018117D01*
X019979Y018112D01*
X020027Y018103D01*
X020073Y018091D01*
X020118Y018074D01*
X020162Y018054D01*
X020204Y018031D01*
X020244Y018004D01*
X020282Y017974D01*
X020317Y017941D01*
X020349Y017905D01*
X020379Y017867D01*
X020405Y017826D01*
X020427Y017783D01*
X020447Y017739D01*
X020462Y017694D01*
X020474Y017647D01*
X020482Y017599D01*
X020486Y017551D01*
X020486Y017503D01*
X020482Y017455D01*
X020474Y017407D01*
X020462Y017360D01*
X020447Y017315D01*
X020427Y017271D01*
X020405Y017228D01*
X020379Y017187D01*
X020349Y017149D01*
X020317Y017113D01*
X020282Y017080D01*
X020244Y017050D01*
X020204Y017023D01*
X020162Y017000D01*
X020118Y016980D01*
X020073Y016963D01*
X020027Y016951D01*
X019979Y016942D01*
X019931Y016937D01*
X019883Y016936D01*
X019835Y016939D01*
X019787Y016946D01*
X019740Y016957D01*
X019694Y016971D01*
X019649Y016989D01*
X019606Y017011D01*
X019565Y017036D01*
X019527Y017065D01*
X019490Y017097D01*
X019456Y017131D01*
X019426Y017168D01*
X019398Y017207D01*
X019373Y017249D01*
X019353Y017293D01*
X019335Y017338D01*
X019322Y017384D01*
X019312Y017431D01*
X019306Y017479D01*
X019304Y017527D01*
X001594Y019883D02*
X001596Y019930D01*
X001602Y019976D01*
X001612Y020022D01*
X001625Y020067D01*
X001643Y020110D01*
X001664Y020152D01*
X001688Y020192D01*
X001716Y020229D01*
X001747Y020264D01*
X001781Y020297D01*
X001817Y020326D01*
X001856Y020352D01*
X001897Y020375D01*
X001940Y020394D01*
X001984Y020410D01*
X002029Y020422D01*
X002075Y020430D01*
X002122Y020434D01*
X002168Y020434D01*
X002215Y020430D01*
X002261Y020422D01*
X002306Y020410D01*
X002350Y020394D01*
X002393Y020375D01*
X002434Y020352D01*
X002473Y020326D01*
X002509Y020297D01*
X002543Y020264D01*
X002574Y020229D01*
X002602Y020192D01*
X002626Y020152D01*
X002647Y020110D01*
X002665Y020067D01*
X002678Y020022D01*
X002688Y019976D01*
X002694Y019930D01*
X002696Y019883D01*
X002694Y019836D01*
X002688Y019790D01*
X002678Y019744D01*
X002665Y019699D01*
X002647Y019656D01*
X002626Y019614D01*
X002602Y019574D01*
X002574Y019537D01*
X002543Y019502D01*
X002509Y019469D01*
X002473Y019440D01*
X002434Y019414D01*
X002393Y019391D01*
X002350Y019372D01*
X002306Y019356D01*
X002261Y019344D01*
X002215Y019336D01*
X002168Y019332D01*
X002122Y019332D01*
X002075Y019336D01*
X002029Y019344D01*
X001984Y019356D01*
X001940Y019372D01*
X001897Y019391D01*
X001856Y019414D01*
X001817Y019440D01*
X001781Y019469D01*
X001747Y019502D01*
X001716Y019537D01*
X001688Y019574D01*
X001664Y019614D01*
X001643Y019656D01*
X001625Y019699D01*
X001612Y019744D01*
X001602Y019790D01*
X001596Y019836D01*
X001594Y019883D01*
D11*
X006022Y013173D02*
X006482Y013173D01*
X006252Y012943D01*
X006252Y013250D01*
X006405Y012789D02*
X006098Y012789D01*
X006022Y012713D01*
X006022Y012559D01*
X006098Y012483D01*
X006405Y012789D01*
X006482Y012713D01*
X006482Y012559D01*
X006405Y012483D01*
X006098Y012483D01*
X006098Y012329D02*
X006175Y012329D01*
X006252Y012252D01*
X006252Y012022D01*
X006098Y012022D01*
X006022Y012099D01*
X006022Y012252D01*
X006098Y012329D01*
X006405Y012176D02*
X006252Y012022D01*
X006329Y011869D02*
X006405Y011869D01*
X006482Y011792D01*
X006482Y011638D01*
X006405Y011562D01*
X006405Y011408D02*
X006482Y011332D01*
X006482Y011178D01*
X006405Y011101D01*
X006405Y010948D02*
X006098Y010948D01*
X006022Y010871D01*
X006022Y010718D01*
X006098Y010641D01*
X006405Y010948D01*
X006482Y010871D01*
X006482Y010718D01*
X006405Y010641D01*
X006098Y010641D01*
X006098Y010488D02*
X006022Y010411D01*
X006022Y010257D01*
X006098Y010181D01*
X006405Y010488D01*
X006098Y010488D01*
X006405Y010488D02*
X006482Y010411D01*
X006482Y010257D01*
X006405Y010181D01*
X006098Y010181D01*
X006098Y010027D02*
X006022Y009950D01*
X006022Y009797D01*
X006098Y009720D01*
X006405Y010027D01*
X006098Y010027D01*
X006405Y010027D02*
X006482Y009950D01*
X006482Y009797D01*
X006405Y009720D01*
X006098Y009720D01*
X006022Y009567D02*
X006022Y009260D01*
X006022Y009413D02*
X006482Y009413D01*
X006329Y009260D01*
X006329Y009106D02*
X006329Y009030D01*
X006329Y008799D01*
X006175Y008799D02*
X006175Y009106D01*
X006022Y009030D02*
X006482Y009030D01*
X006482Y008876D02*
X006022Y008876D01*
X006772Y008876D02*
X006772Y009030D01*
X006848Y009106D01*
X007155Y009106D01*
X007232Y009030D01*
X007232Y008876D01*
X007155Y008799D01*
X006848Y008799D01*
X006772Y008876D01*
X006772Y009260D02*
X007232Y009260D01*
X007232Y009490D01*
X007155Y009567D01*
X007002Y009567D01*
X006925Y009490D01*
X006925Y009260D01*
X006925Y009413D02*
X006772Y009567D01*
X006772Y009720D02*
X006772Y009950D01*
X006848Y010027D01*
X007155Y010027D01*
X007232Y009950D01*
X007232Y009720D01*
X006772Y009720D01*
X006772Y010181D02*
X006772Y010488D01*
X006772Y010641D02*
X007232Y010641D01*
X007232Y010871D01*
X007155Y010948D01*
X007002Y010948D01*
X006925Y010871D01*
X006925Y010641D01*
X006925Y010794D02*
X006772Y010948D01*
X006405Y011408D02*
X006329Y011408D01*
X006022Y011101D01*
X006022Y011408D01*
X006022Y011562D02*
X006329Y011869D01*
X006022Y011869D02*
X006022Y011562D01*
X006405Y012176D02*
X006482Y012329D01*
X007232Y010488D02*
X007232Y010181D01*
X006772Y010181D01*
X007002Y010181D02*
X007002Y010334D01*
X016022Y010312D02*
X016022Y010235D01*
X016098Y010235D01*
X016098Y010312D01*
X016022Y010312D01*
X016022Y010465D02*
X016329Y010772D01*
X016405Y010772D01*
X016482Y010695D01*
X016482Y010542D01*
X016405Y010465D01*
X016022Y010465D02*
X016022Y010772D01*
X016022Y010082D02*
X016022Y009775D01*
X016022Y009928D02*
X016482Y009928D01*
X016329Y009775D01*
X016175Y009621D02*
X016482Y009621D01*
X016482Y009314D02*
X016175Y009314D01*
X016022Y009468D01*
X016175Y009621D01*
X016329Y008700D02*
X016329Y008624D01*
X016175Y008470D01*
X016175Y008317D02*
X016175Y008010D01*
X016098Y008010D02*
X016252Y008010D01*
X016329Y008086D01*
X016329Y008240D01*
X016252Y008317D01*
X016175Y008317D01*
X016022Y008240D02*
X016022Y008086D01*
X016098Y008010D01*
X016022Y007856D02*
X016022Y007703D01*
X016022Y007780D02*
X016482Y007780D01*
X016482Y007703D01*
X016482Y007473D02*
X016022Y007473D01*
X016022Y007549D02*
X016022Y007396D01*
X016098Y007242D02*
X016252Y007242D01*
X016329Y007166D01*
X016329Y007012D01*
X016252Y006936D01*
X016098Y006936D01*
X016022Y007012D01*
X016022Y007166D01*
X016098Y007242D01*
X016482Y007396D02*
X016482Y007473D01*
X016329Y006782D02*
X016329Y006705D01*
X016175Y006552D01*
X016022Y006552D02*
X016329Y006552D01*
X016329Y006398D02*
X016329Y006245D01*
X016405Y006322D02*
X016098Y006322D01*
X016022Y006398D01*
X016022Y006091D02*
X016252Y006091D01*
X016329Y006015D01*
X016329Y005785D01*
X016022Y005785D01*
X016098Y005631D02*
X016252Y005631D01*
X016329Y005554D01*
X016329Y005401D01*
X016252Y005324D01*
X016098Y005324D01*
X016022Y005401D01*
X016022Y005554D01*
X016098Y005631D01*
X016022Y005171D02*
X016022Y004940D01*
X016098Y004864D01*
X016252Y004864D01*
X016329Y004940D01*
X016329Y005171D01*
X016772Y005171D02*
X016772Y005017D01*
X016848Y004940D01*
X017002Y004940D01*
X017079Y005017D01*
X017079Y005171D01*
X017002Y005247D01*
X016925Y005247D01*
X016925Y004940D01*
X017232Y004787D02*
X016772Y004480D01*
X016772Y004327D02*
X016848Y004250D01*
X017155Y004250D01*
X017079Y004173D02*
X017079Y004327D01*
X017232Y003943D02*
X016772Y003943D01*
X016772Y003866D02*
X016772Y004020D01*
X016772Y003713D02*
X016772Y003636D01*
X016848Y003636D01*
X016848Y003713D01*
X016772Y003713D01*
X016925Y003483D02*
X016925Y003176D01*
X016848Y003176D02*
X017002Y003176D01*
X017079Y003252D01*
X017079Y003406D01*
X017002Y003483D01*
X016925Y003483D01*
X016772Y003406D02*
X016772Y003252D01*
X016848Y003176D01*
X017079Y003022D02*
X017079Y002945D01*
X016925Y002792D01*
X016772Y002792D02*
X017079Y002792D01*
X017079Y002562D02*
X016772Y002562D01*
X016772Y002485D02*
X016772Y002639D01*
X017079Y002562D02*
X017079Y002485D01*
X017232Y002562D02*
X017309Y002562D01*
X017522Y002562D02*
X017522Y002715D01*
X017522Y002562D02*
X017598Y002485D01*
X017752Y002485D01*
X017829Y002562D01*
X017829Y002715D01*
X017752Y002792D01*
X017675Y002792D01*
X017675Y002485D01*
X017522Y002332D02*
X017522Y002178D01*
X017522Y002255D02*
X017982Y002255D01*
X017982Y002178D01*
X017752Y002025D02*
X017829Y001948D01*
X017829Y001794D01*
X017752Y001718D01*
X017598Y001718D01*
X017522Y001794D01*
X017522Y001948D01*
X017598Y002025D01*
X017752Y002025D01*
X017829Y001564D02*
X017675Y001334D01*
X017522Y001564D01*
X017522Y001334D02*
X017982Y001334D01*
X018272Y001334D02*
X018732Y001334D01*
X018732Y001257D01*
X018579Y001104D02*
X018272Y001104D01*
X018272Y000874D01*
X018348Y000797D01*
X018579Y000797D01*
X018502Y000643D02*
X018272Y000643D01*
X018272Y000413D01*
X018348Y000337D01*
X018425Y000413D01*
X018425Y000643D01*
X018502Y000643D02*
X018579Y000567D01*
X018579Y000413D01*
X018655Y000183D02*
X018732Y000106D01*
X018732Y-000047D01*
X018655Y-000124D01*
X018579Y-000124D01*
X018502Y-000047D01*
X018502Y000106D01*
X018425Y000183D01*
X018348Y000183D01*
X018272Y000106D01*
X018272Y-000047D01*
X018348Y-000124D01*
X018348Y-000277D02*
X018272Y-000277D01*
X018272Y-000354D01*
X018348Y-000354D01*
X018348Y-000277D01*
X018348Y-000507D02*
X018579Y-000507D01*
X018348Y-000507D02*
X018272Y-000584D01*
X018348Y-000661D01*
X018272Y-000738D01*
X018348Y-000814D01*
X018579Y-000814D01*
X018579Y-000968D02*
X018348Y-000968D01*
X018272Y-001045D01*
X018348Y-001121D01*
X018272Y-001198D01*
X018348Y-001275D01*
X018579Y-001275D01*
X018579Y-001428D02*
X018348Y-001428D01*
X018272Y-001505D01*
X018348Y-001582D01*
X018272Y-001658D01*
X018348Y-001735D01*
X018579Y-001735D01*
X017982Y-001658D02*
X017905Y-001735D01*
X017829Y-001735D01*
X017752Y-001658D01*
X017752Y-001505D01*
X017675Y-001428D01*
X017598Y-001428D01*
X017522Y-001505D01*
X017522Y-001658D01*
X017598Y-001735D01*
X017598Y-001275D02*
X017675Y-001198D01*
X017675Y-000968D01*
X017752Y-000968D02*
X017522Y-000968D01*
X017522Y-001198D01*
X017598Y-001275D01*
X017829Y-001198D02*
X017829Y-001045D01*
X017752Y-000968D01*
X017829Y-000814D02*
X017598Y-000814D01*
X017522Y-000738D01*
X017522Y-000507D01*
X017829Y-000507D01*
X017982Y-000354D02*
X017982Y-000277D01*
X017522Y-000277D01*
X017522Y-000201D02*
X017522Y-000354D01*
X017598Y-000047D02*
X017752Y-000047D01*
X017829Y000030D01*
X017829Y000183D01*
X017752Y000260D01*
X017675Y000260D01*
X017675Y-000047D01*
X017598Y-000047D02*
X017522Y000030D01*
X017522Y000183D01*
X017522Y000413D02*
X017522Y000643D01*
X017598Y000720D01*
X017675Y000643D01*
X017675Y000490D01*
X017752Y000413D01*
X017829Y000490D01*
X017829Y000720D01*
X018272Y001257D02*
X018272Y001411D01*
X018348Y001564D02*
X018502Y001564D01*
X018579Y001641D01*
X018579Y001794D01*
X018502Y001871D01*
X018425Y001871D01*
X018425Y001564D01*
X018348Y001564D02*
X018272Y001641D01*
X018272Y001794D01*
X018425Y002025D02*
X018272Y002178D01*
X018425Y002332D01*
X018732Y002332D01*
X018579Y002485D02*
X018579Y002562D01*
X018272Y002562D01*
X018272Y002485D02*
X018272Y002639D01*
X018272Y002792D02*
X018579Y002792D01*
X018579Y002945D02*
X018425Y002792D01*
X018579Y002945D02*
X018579Y003022D01*
X018502Y003176D02*
X018348Y003176D01*
X018272Y003252D01*
X018272Y003406D01*
X018425Y003483D02*
X018425Y003176D01*
X018502Y003176D02*
X018579Y003252D01*
X018579Y003406D01*
X018502Y003483D01*
X018425Y003483D01*
X018348Y003636D02*
X018348Y003713D01*
X018272Y003713D01*
X018272Y003636D01*
X018348Y003636D01*
X018272Y003866D02*
X018272Y004020D01*
X018272Y003943D02*
X018732Y003943D01*
X018732Y003866D01*
X018579Y004173D02*
X018579Y004327D01*
X018655Y004250D02*
X018348Y004250D01*
X018272Y004327D01*
X018059Y004557D02*
X017982Y004557D01*
X017829Y004557D02*
X017522Y004557D01*
X017522Y004480D02*
X017522Y004634D01*
X017598Y004787D02*
X017675Y004864D01*
X017675Y005094D01*
X017752Y005094D02*
X017522Y005094D01*
X017522Y004864D01*
X017598Y004787D01*
X017829Y004864D02*
X017829Y005017D01*
X017752Y005094D01*
X017829Y005247D02*
X017598Y005247D01*
X017522Y005324D01*
X017522Y005554D01*
X017829Y005554D01*
X017752Y005708D02*
X017829Y005785D01*
X017829Y006015D01*
X017675Y005938D02*
X017675Y005785D01*
X017752Y005708D01*
X017522Y005708D02*
X017522Y005938D01*
X017598Y006015D01*
X017675Y005938D01*
X017079Y005631D02*
X017079Y005401D01*
X016772Y005401D01*
X017079Y005631D02*
X017002Y005708D01*
X016772Y005708D01*
X017522Y006782D02*
X017829Y006629D01*
X017829Y006936D02*
X017522Y006782D01*
X017598Y007089D02*
X017675Y007166D01*
X017675Y007396D01*
X017752Y007396D02*
X017522Y007396D01*
X017522Y007166D01*
X017598Y007089D01*
X017829Y007166D02*
X017829Y007319D01*
X017752Y007396D01*
X017982Y007549D02*
X017982Y007626D01*
X017522Y007626D01*
X017522Y007549D02*
X017522Y007703D01*
X017598Y007856D02*
X017752Y007856D01*
X017829Y007933D01*
X017829Y008163D01*
X017982Y008163D02*
X017522Y008163D01*
X017522Y007933D01*
X017598Y007856D01*
X017522Y008317D02*
X017522Y008470D01*
X017522Y008393D02*
X017829Y008393D01*
X017829Y008317D01*
X017982Y008393D02*
X018059Y008393D01*
X017982Y008624D02*
X017522Y008624D01*
X017675Y008624D02*
X017522Y008854D01*
X017522Y009007D02*
X017522Y009161D01*
X017522Y009084D02*
X017982Y009084D01*
X017982Y009007D01*
X017829Y008854D02*
X017675Y008624D01*
X017522Y009314D02*
X017522Y009468D01*
X017522Y009391D02*
X017829Y009391D01*
X017829Y009314D01*
X017982Y009391D02*
X018059Y009391D01*
X017829Y009698D02*
X017829Y009928D01*
X017675Y009851D02*
X017675Y009698D01*
X017752Y009621D01*
X017829Y009698D01*
X017675Y009851D02*
X017598Y009928D01*
X017522Y009851D01*
X017522Y009621D01*
X017675Y010542D02*
X017522Y010695D01*
X017675Y010849D01*
X017982Y010849D01*
X017829Y011002D02*
X017982Y011156D01*
X017522Y011156D01*
X017522Y011309D02*
X017522Y011002D01*
X017522Y011463D02*
X017522Y011539D01*
X017598Y011539D01*
X017598Y011463D01*
X017522Y011463D01*
X017522Y011693D02*
X017829Y012000D01*
X017905Y012000D01*
X017982Y011923D01*
X017982Y011770D01*
X017905Y011693D01*
X017522Y011693D02*
X017522Y012000D01*
X017675Y010542D02*
X017982Y010542D01*
X016329Y008470D02*
X016022Y008470D01*
X017829Y004557D02*
X017829Y004480D01*
X017829Y004327D02*
X017829Y004250D01*
X017675Y004096D01*
X017522Y004096D02*
X017829Y004096D01*
X017752Y003943D02*
X017829Y003866D01*
X017829Y003713D01*
X017752Y003636D01*
X017598Y003636D01*
X017522Y003713D01*
X017522Y003866D01*
X017598Y003943D01*
X017752Y003943D01*
X017232Y003943D02*
X017232Y003866D01*
X017522Y003483D02*
X017598Y003406D01*
X017905Y003406D01*
X017829Y003329D02*
X017829Y003483D01*
X017829Y003176D02*
X017675Y002945D01*
X017522Y003176D01*
X017522Y002945D02*
X017982Y002945D01*
X018732Y002562D02*
X018809Y002562D01*
X018732Y002025D02*
X018425Y002025D01*
X017232Y002025D02*
X016925Y002025D01*
X016772Y002178D01*
X016925Y002332D01*
X017232Y002332D01*
X017002Y001871D02*
X016925Y001871D01*
X016925Y001564D01*
X016848Y001564D02*
X017002Y001564D01*
X017079Y001641D01*
X017079Y001794D01*
X017002Y001871D01*
X016772Y001794D02*
X016772Y001641D01*
X016848Y001564D01*
X016772Y001411D02*
X016772Y001257D01*
X016772Y001334D02*
X017232Y001334D01*
X017232Y001257D01*
X017079Y001104D02*
X016772Y001104D01*
X016772Y000874D01*
X016848Y000797D01*
X017079Y000797D01*
X017002Y000643D02*
X016772Y000643D01*
X016772Y000413D01*
X016848Y000337D01*
X016925Y000413D01*
X016925Y000643D01*
X017002Y000643D02*
X017079Y000567D01*
X017079Y000413D01*
X017155Y000183D02*
X017232Y000106D01*
X017232Y-000047D01*
X017155Y-000124D01*
X017079Y-000124D01*
X017002Y-000047D01*
X017002Y000106D01*
X016925Y000183D01*
X016848Y000183D01*
X016772Y000106D01*
X016772Y-000047D01*
X016848Y-000124D01*
X016848Y-000277D02*
X016772Y-000277D01*
X016772Y-000354D01*
X016848Y-000354D01*
X016848Y-000277D01*
X016848Y-000507D02*
X017079Y-000507D01*
X016848Y-000507D02*
X016772Y-000584D01*
X016848Y-000661D01*
X016772Y-000738D01*
X016848Y-000814D01*
X017079Y-000814D01*
X017079Y-000968D02*
X016848Y-000968D01*
X016772Y-001045D01*
X016848Y-001121D01*
X016772Y-001198D01*
X016848Y-001275D01*
X017079Y-001275D01*
X017079Y-001428D02*
X016848Y-001428D01*
X016772Y-001505D01*
X016848Y-001582D01*
X016772Y-001658D01*
X016848Y-001735D01*
X017079Y-001735D01*
X016482Y-001658D02*
X016405Y-001735D01*
X016329Y-001735D01*
X016252Y-001658D01*
X016252Y-001505D01*
X016175Y-001428D01*
X016098Y-001428D01*
X016022Y-001505D01*
X016022Y-001658D01*
X016098Y-001735D01*
X016405Y-001428D02*
X016482Y-001505D01*
X016482Y-001658D01*
X016252Y-001275D02*
X016098Y-001275D01*
X016022Y-001198D01*
X016022Y-001045D01*
X016098Y-000968D01*
X016252Y-000968D01*
X016329Y-001045D01*
X016329Y-001198D01*
X016252Y-001275D01*
X016482Y-000814D02*
X016482Y-000738D01*
X016022Y-000738D01*
X016022Y-000814D02*
X016022Y-000661D01*
X016098Y-000507D02*
X016175Y-000431D01*
X016175Y-000201D01*
X016252Y-000201D02*
X016022Y-000201D01*
X016022Y-000431D01*
X016098Y-000507D01*
X016329Y-000431D02*
X016329Y-000277D01*
X016252Y-000201D01*
X016329Y-000047D02*
X016022Y-000047D01*
X016175Y-000047D02*
X016329Y000106D01*
X016329Y000183D01*
X016252Y000797D02*
X016098Y000797D01*
X016022Y000874D01*
X016022Y001104D01*
X016098Y001257D02*
X016022Y001334D01*
X016022Y001488D01*
X016098Y001564D01*
X016252Y001564D01*
X016329Y001488D01*
X016329Y001334D01*
X016252Y001257D01*
X016098Y001257D01*
X016329Y001104D02*
X016329Y000874D01*
X016252Y000797D01*
X016482Y001718D02*
X016482Y001794D01*
X016022Y001794D01*
X016022Y001718D02*
X016022Y001871D01*
X016022Y002025D02*
X016022Y002178D01*
X016022Y002101D02*
X016482Y002101D01*
X016482Y002025D01*
X016252Y002332D02*
X016329Y002408D01*
X016329Y002562D01*
X016252Y002639D01*
X016175Y002639D01*
X016175Y002332D01*
X016098Y002332D02*
X016252Y002332D01*
X016098Y002332D02*
X016022Y002408D01*
X016022Y002562D01*
X016098Y002792D02*
X016022Y002869D01*
X016022Y003099D01*
X016098Y003329D02*
X016022Y003406D01*
X016098Y003329D02*
X016405Y003329D01*
X016329Y003252D02*
X016329Y003406D01*
X016252Y003559D02*
X016098Y003559D01*
X016022Y003636D01*
X016022Y003790D01*
X016098Y003866D01*
X016252Y003866D01*
X016329Y003790D01*
X016329Y003636D01*
X016252Y003559D01*
X016329Y003099D02*
X016329Y002869D01*
X016252Y002792D01*
X016098Y002792D01*
X016022Y004020D02*
X016329Y004020D01*
X016329Y004173D02*
X016329Y004250D01*
X016329Y004173D02*
X016175Y004020D01*
X017905Y-001428D02*
X017982Y-001505D01*
X017982Y-001658D01*
M02*
