G75*
G70*
%OFA0B0*%
%FSLAX24Y24*%
%IPPOS*%
%LPD*%
%AMOC8*
5,1,8,0,0,1.08239X$1,22.5*
%
%ADD10C,0.0000*%
D10*
X000100Y000377D02*
X000100Y020062D01*
X019592Y020062D01*
X019592Y000377D01*
X000100Y000377D01*
X000443Y001271D02*
X000445Y001318D01*
X000451Y001364D01*
X000461Y001410D01*
X000474Y001455D01*
X000492Y001498D01*
X000513Y001540D01*
X000537Y001580D01*
X000565Y001617D01*
X000596Y001652D01*
X000630Y001685D01*
X000666Y001714D01*
X000705Y001740D01*
X000746Y001763D01*
X000789Y001782D01*
X000833Y001798D01*
X000878Y001810D01*
X000924Y001818D01*
X000971Y001822D01*
X001017Y001822D01*
X001064Y001818D01*
X001110Y001810D01*
X001155Y001798D01*
X001199Y001782D01*
X001242Y001763D01*
X001283Y001740D01*
X001322Y001714D01*
X001358Y001685D01*
X001392Y001652D01*
X001423Y001617D01*
X001451Y001580D01*
X001475Y001540D01*
X001496Y001498D01*
X001514Y001455D01*
X001527Y001410D01*
X001537Y001364D01*
X001543Y001318D01*
X001545Y001271D01*
X001543Y001224D01*
X001537Y001178D01*
X001527Y001132D01*
X001514Y001087D01*
X001496Y001044D01*
X001475Y001002D01*
X001451Y000962D01*
X001423Y000925D01*
X001392Y000890D01*
X001358Y000857D01*
X001322Y000828D01*
X001283Y000802D01*
X001242Y000779D01*
X001199Y000760D01*
X001155Y000744D01*
X001110Y000732D01*
X001064Y000724D01*
X001017Y000720D01*
X000971Y000720D01*
X000924Y000724D01*
X000878Y000732D01*
X000833Y000744D01*
X000789Y000760D01*
X000746Y000779D01*
X000705Y000802D01*
X000666Y000828D01*
X000630Y000857D01*
X000596Y000890D01*
X000565Y000925D01*
X000537Y000962D01*
X000513Y001002D01*
X000492Y001044D01*
X000474Y001087D01*
X000461Y001132D01*
X000451Y001178D01*
X000445Y001224D01*
X000443Y001271D01*
X015470Y013960D02*
X015470Y014826D01*
X015667Y015023D02*
X015693Y015021D01*
X015718Y015016D01*
X015742Y015008D01*
X015766Y014997D01*
X015787Y014982D01*
X015806Y014965D01*
X015823Y014946D01*
X015838Y014925D01*
X015849Y014901D01*
X015857Y014877D01*
X015862Y014852D01*
X015864Y014826D01*
X015864Y013960D01*
X015862Y013934D01*
X015857Y013909D01*
X015849Y013885D01*
X015838Y013862D01*
X015823Y013840D01*
X015806Y013821D01*
X015787Y013804D01*
X015766Y013789D01*
X015742Y013778D01*
X015718Y013770D01*
X015693Y013765D01*
X015667Y013763D01*
X015667Y015023D01*
X015641Y015021D01*
X015616Y015016D01*
X015592Y015008D01*
X015569Y014997D01*
X015547Y014982D01*
X015528Y014965D01*
X015511Y014946D01*
X015496Y014925D01*
X015485Y014901D01*
X015477Y014877D01*
X015472Y014852D01*
X015470Y014826D01*
X015470Y013960D02*
X015472Y013934D01*
X015477Y013909D01*
X015485Y013885D01*
X015496Y013862D01*
X015511Y013840D01*
X015528Y013821D01*
X015547Y013804D01*
X015569Y013789D01*
X015592Y013778D01*
X015616Y013770D01*
X015641Y013765D01*
X015667Y013763D01*
X017950Y013960D02*
X017950Y014826D01*
X018147Y015023D02*
X018173Y015021D01*
X018198Y015016D01*
X018222Y015008D01*
X018246Y014997D01*
X018267Y014982D01*
X018286Y014965D01*
X018303Y014946D01*
X018318Y014925D01*
X018329Y014901D01*
X018337Y014877D01*
X018342Y014852D01*
X018344Y014826D01*
X018344Y013960D01*
X018342Y013934D01*
X018337Y013909D01*
X018329Y013885D01*
X018318Y013862D01*
X018303Y013840D01*
X018286Y013821D01*
X018267Y013804D01*
X018246Y013789D01*
X018222Y013778D01*
X018198Y013770D01*
X018173Y013765D01*
X018147Y013763D01*
X018121Y013765D01*
X018096Y013770D01*
X018072Y013778D01*
X018049Y013789D01*
X018027Y013804D01*
X018008Y013821D01*
X017991Y013840D01*
X017976Y013862D01*
X017965Y013885D01*
X017957Y013909D01*
X017952Y013934D01*
X017950Y013960D01*
X017950Y014826D02*
X017952Y014852D01*
X017957Y014877D01*
X017965Y014901D01*
X017976Y014925D01*
X017991Y014946D01*
X018008Y014965D01*
X018027Y014982D01*
X018049Y014997D01*
X018072Y015008D01*
X018096Y015016D01*
X018121Y015021D01*
X018147Y015023D01*
X017281Y016165D02*
X016415Y016165D01*
X016389Y016167D01*
X016364Y016172D01*
X016340Y016180D01*
X016317Y016191D01*
X016295Y016206D01*
X016276Y016223D01*
X016259Y016242D01*
X016244Y016264D01*
X016233Y016287D01*
X016225Y016311D01*
X016220Y016336D01*
X016218Y016362D01*
X016220Y016388D01*
X016225Y016413D01*
X016233Y016437D01*
X016244Y016461D01*
X016259Y016482D01*
X016276Y016501D01*
X016295Y016518D01*
X016317Y016533D01*
X016340Y016544D01*
X016364Y016552D01*
X016389Y016557D01*
X016415Y016559D01*
X017281Y016559D01*
X017478Y016362D02*
X017476Y016336D01*
X017471Y016311D01*
X017463Y016287D01*
X017452Y016264D01*
X017437Y016242D01*
X017420Y016223D01*
X017401Y016206D01*
X017380Y016191D01*
X017356Y016180D01*
X017332Y016172D01*
X017307Y016167D01*
X017281Y016165D01*
X017478Y016362D02*
X017476Y016388D01*
X017471Y016413D01*
X017463Y016437D01*
X017452Y016461D01*
X017437Y016482D01*
X017420Y016501D01*
X017401Y016518D01*
X017380Y016533D01*
X017356Y016544D01*
X017332Y016552D01*
X017307Y016557D01*
X017281Y016559D01*
X022049Y017377D02*
X022051Y017424D01*
X022057Y017470D01*
X022067Y017516D01*
X022080Y017561D01*
X022098Y017604D01*
X022119Y017646D01*
X022143Y017686D01*
X022171Y017723D01*
X022202Y017758D01*
X022236Y017791D01*
X022272Y017820D01*
X022311Y017846D01*
X022352Y017869D01*
X022395Y017888D01*
X022439Y017904D01*
X022484Y017916D01*
X022530Y017924D01*
X022577Y017928D01*
X022623Y017928D01*
X022670Y017924D01*
X022716Y017916D01*
X022761Y017904D01*
X022805Y017888D01*
X022848Y017869D01*
X022889Y017846D01*
X022928Y017820D01*
X022964Y017791D01*
X022998Y017758D01*
X023029Y017723D01*
X023057Y017686D01*
X023081Y017646D01*
X023102Y017604D01*
X023120Y017561D01*
X023133Y017516D01*
X023143Y017470D01*
X023149Y017424D01*
X023151Y017377D01*
X023149Y017330D01*
X023143Y017284D01*
X023133Y017238D01*
X023120Y017193D01*
X023102Y017150D01*
X023081Y017108D01*
X023057Y017068D01*
X023029Y017031D01*
X022998Y016996D01*
X022964Y016963D01*
X022928Y016934D01*
X022889Y016908D01*
X022848Y016885D01*
X022805Y016866D01*
X022761Y016850D01*
X022716Y016838D01*
X022670Y016830D01*
X022623Y016826D01*
X022577Y016826D01*
X022530Y016830D01*
X022484Y016838D01*
X022439Y016850D01*
X022395Y016866D01*
X022352Y016885D01*
X022311Y016908D01*
X022272Y016934D01*
X022236Y016963D01*
X022202Y016996D01*
X022171Y017031D01*
X022143Y017068D01*
X022119Y017108D01*
X022098Y017150D01*
X022080Y017193D01*
X022067Y017238D01*
X022057Y017284D01*
X022051Y017330D01*
X022049Y017377D01*
X018049Y001877D02*
X018051Y001924D01*
X018057Y001970D01*
X018067Y002016D01*
X018080Y002061D01*
X018098Y002104D01*
X018119Y002146D01*
X018143Y002186D01*
X018171Y002223D01*
X018202Y002258D01*
X018236Y002291D01*
X018272Y002320D01*
X018311Y002346D01*
X018352Y002369D01*
X018395Y002388D01*
X018439Y002404D01*
X018484Y002416D01*
X018530Y002424D01*
X018577Y002428D01*
X018623Y002428D01*
X018670Y002424D01*
X018716Y002416D01*
X018761Y002404D01*
X018805Y002388D01*
X018848Y002369D01*
X018889Y002346D01*
X018928Y002320D01*
X018964Y002291D01*
X018998Y002258D01*
X019029Y002223D01*
X019057Y002186D01*
X019081Y002146D01*
X019102Y002104D01*
X019120Y002061D01*
X019133Y002016D01*
X019143Y001970D01*
X019149Y001924D01*
X019151Y001877D01*
X019149Y001830D01*
X019143Y001784D01*
X019133Y001738D01*
X019120Y001693D01*
X019102Y001650D01*
X019081Y001608D01*
X019057Y001568D01*
X019029Y001531D01*
X018998Y001496D01*
X018964Y001463D01*
X018928Y001434D01*
X018889Y001408D01*
X018848Y001385D01*
X018805Y001366D01*
X018761Y001350D01*
X018716Y001338D01*
X018670Y001330D01*
X018623Y001326D01*
X018577Y001326D01*
X018530Y001330D01*
X018484Y001338D01*
X018439Y001350D01*
X018395Y001366D01*
X018352Y001385D01*
X018311Y001408D01*
X018272Y001434D01*
X018236Y001463D01*
X018202Y001496D01*
X018171Y001531D01*
X018143Y001568D01*
X018119Y001608D01*
X018098Y001650D01*
X018080Y001693D01*
X018067Y001738D01*
X018057Y001784D01*
X018051Y001830D01*
X018049Y001877D01*
X000443Y018877D02*
X000445Y018924D01*
X000451Y018970D01*
X000461Y019016D01*
X000474Y019061D01*
X000492Y019104D01*
X000513Y019146D01*
X000537Y019186D01*
X000565Y019223D01*
X000596Y019258D01*
X000630Y019291D01*
X000666Y019320D01*
X000705Y019346D01*
X000746Y019369D01*
X000789Y019388D01*
X000833Y019404D01*
X000878Y019416D01*
X000924Y019424D01*
X000971Y019428D01*
X001017Y019428D01*
X001064Y019424D01*
X001110Y019416D01*
X001155Y019404D01*
X001199Y019388D01*
X001242Y019369D01*
X001283Y019346D01*
X001322Y019320D01*
X001358Y019291D01*
X001392Y019258D01*
X001423Y019223D01*
X001451Y019186D01*
X001475Y019146D01*
X001496Y019104D01*
X001514Y019061D01*
X001527Y019016D01*
X001537Y018970D01*
X001543Y018924D01*
X001545Y018877D01*
X001543Y018830D01*
X001537Y018784D01*
X001527Y018738D01*
X001514Y018693D01*
X001496Y018650D01*
X001475Y018608D01*
X001451Y018568D01*
X001423Y018531D01*
X001392Y018496D01*
X001358Y018463D01*
X001322Y018434D01*
X001283Y018408D01*
X001242Y018385D01*
X001199Y018366D01*
X001155Y018350D01*
X001110Y018338D01*
X001064Y018330D01*
X001017Y018326D01*
X000971Y018326D01*
X000924Y018330D01*
X000878Y018338D01*
X000833Y018350D01*
X000789Y018366D01*
X000746Y018385D01*
X000705Y018408D01*
X000666Y018434D01*
X000630Y018463D01*
X000596Y018496D01*
X000565Y018531D01*
X000537Y018568D01*
X000513Y018608D01*
X000492Y018650D01*
X000474Y018693D01*
X000461Y018738D01*
X000451Y018784D01*
X000445Y018830D01*
X000443Y018877D01*
M02*
