G75*
G70*
%OFA0B0*%
%FSLAX24Y24*%
%IPPOS*%
%LPD*%
%AMOC8*
5,1,8,0,0,1.08239X$1,22.5*
%
%ADD10C,0.0000*%
%ADD11C,0.0600*%
%ADD12OC8,0.0520*%
%ADD13C,0.0594*%
%ADD14C,0.0594*%
%ADD15C,0.0600*%
%ADD16C,0.0740*%
%ADD17OC8,0.0740*%
%ADD18C,0.0787*%
%ADD19R,0.0790X0.0590*%
%ADD20R,0.0790X0.1500*%
%ADD21C,0.0100*%
%ADD22C,0.0080*%
%ADD23C,0.0240*%
D10*
X001252Y000402D02*
X001252Y020087D01*
X020744Y020087D01*
X020744Y000402D01*
X001252Y000402D01*
X001751Y001296D02*
X001753Y001335D01*
X001759Y001374D01*
X001769Y001412D01*
X001782Y001449D01*
X001799Y001484D01*
X001819Y001518D01*
X001843Y001549D01*
X001870Y001578D01*
X001899Y001604D01*
X001931Y001627D01*
X001965Y001647D01*
X002001Y001663D01*
X002038Y001675D01*
X002077Y001684D01*
X002116Y001689D01*
X002155Y001690D01*
X002194Y001687D01*
X002233Y001680D01*
X002270Y001669D01*
X002307Y001655D01*
X002342Y001637D01*
X002375Y001616D01*
X002406Y001591D01*
X002434Y001564D01*
X002459Y001534D01*
X002481Y001501D01*
X002500Y001467D01*
X002515Y001431D01*
X002527Y001393D01*
X002535Y001355D01*
X002539Y001316D01*
X002539Y001276D01*
X002535Y001237D01*
X002527Y001199D01*
X002515Y001161D01*
X002500Y001125D01*
X002481Y001091D01*
X002459Y001058D01*
X002434Y001028D01*
X002406Y001001D01*
X002375Y000976D01*
X002342Y000955D01*
X002307Y000937D01*
X002270Y000923D01*
X002233Y000912D01*
X002194Y000905D01*
X002155Y000902D01*
X002116Y000903D01*
X002077Y000908D01*
X002038Y000917D01*
X002001Y000929D01*
X001965Y000945D01*
X001931Y000965D01*
X001899Y000988D01*
X001870Y001014D01*
X001843Y001043D01*
X001819Y001074D01*
X001799Y001108D01*
X001782Y001143D01*
X001769Y001180D01*
X001759Y001218D01*
X001753Y001257D01*
X001751Y001296D01*
X019201Y001402D02*
X019203Y001449D01*
X019209Y001495D01*
X019219Y001541D01*
X019232Y001586D01*
X019250Y001629D01*
X019271Y001671D01*
X019295Y001711D01*
X019323Y001748D01*
X019354Y001783D01*
X019388Y001816D01*
X019424Y001845D01*
X019463Y001871D01*
X019504Y001894D01*
X019547Y001913D01*
X019591Y001929D01*
X019636Y001941D01*
X019682Y001949D01*
X019729Y001953D01*
X019775Y001953D01*
X019822Y001949D01*
X019868Y001941D01*
X019913Y001929D01*
X019957Y001913D01*
X020000Y001894D01*
X020041Y001871D01*
X020080Y001845D01*
X020116Y001816D01*
X020150Y001783D01*
X020181Y001748D01*
X020209Y001711D01*
X020233Y001671D01*
X020254Y001629D01*
X020272Y001586D01*
X020285Y001541D01*
X020295Y001495D01*
X020301Y001449D01*
X020303Y001402D01*
X020301Y001355D01*
X020295Y001309D01*
X020285Y001263D01*
X020272Y001218D01*
X020254Y001175D01*
X020233Y001133D01*
X020209Y001093D01*
X020181Y001056D01*
X020150Y001021D01*
X020116Y000988D01*
X020080Y000959D01*
X020041Y000933D01*
X020000Y000910D01*
X019957Y000891D01*
X019913Y000875D01*
X019868Y000863D01*
X019822Y000855D01*
X019775Y000851D01*
X019729Y000851D01*
X019682Y000855D01*
X019636Y000863D01*
X019591Y000875D01*
X019547Y000891D01*
X019504Y000910D01*
X019463Y000933D01*
X019424Y000959D01*
X019388Y000988D01*
X019354Y001021D01*
X019323Y001056D01*
X019295Y001093D01*
X019271Y001133D01*
X019250Y001175D01*
X019232Y001218D01*
X019219Y001263D01*
X019209Y001309D01*
X019203Y001355D01*
X019201Y001402D01*
X001594Y018902D02*
X001596Y018949D01*
X001602Y018995D01*
X001612Y019041D01*
X001625Y019086D01*
X001643Y019129D01*
X001664Y019171D01*
X001688Y019211D01*
X001716Y019248D01*
X001747Y019283D01*
X001781Y019316D01*
X001817Y019345D01*
X001856Y019371D01*
X001897Y019394D01*
X001940Y019413D01*
X001984Y019429D01*
X002029Y019441D01*
X002075Y019449D01*
X002122Y019453D01*
X002168Y019453D01*
X002215Y019449D01*
X002261Y019441D01*
X002306Y019429D01*
X002350Y019413D01*
X002393Y019394D01*
X002434Y019371D01*
X002473Y019345D01*
X002509Y019316D01*
X002543Y019283D01*
X002574Y019248D01*
X002602Y019211D01*
X002626Y019171D01*
X002647Y019129D01*
X002665Y019086D01*
X002678Y019041D01*
X002688Y018995D01*
X002694Y018949D01*
X002696Y018902D01*
X002694Y018855D01*
X002688Y018809D01*
X002678Y018763D01*
X002665Y018718D01*
X002647Y018675D01*
X002626Y018633D01*
X002602Y018593D01*
X002574Y018556D01*
X002543Y018521D01*
X002509Y018488D01*
X002473Y018459D01*
X002434Y018433D01*
X002393Y018410D01*
X002350Y018391D01*
X002306Y018375D01*
X002261Y018363D01*
X002215Y018355D01*
X002168Y018351D01*
X002122Y018351D01*
X002075Y018355D01*
X002029Y018363D01*
X001984Y018375D01*
X001940Y018391D01*
X001897Y018410D01*
X001856Y018433D01*
X001817Y018459D01*
X001781Y018488D01*
X001747Y018521D01*
X001716Y018556D01*
X001688Y018593D01*
X001664Y018633D01*
X001643Y018675D01*
X001625Y018718D01*
X001612Y018763D01*
X001602Y018809D01*
X001596Y018855D01*
X001594Y018902D01*
X019751Y019296D02*
X019753Y019335D01*
X019759Y019374D01*
X019769Y019412D01*
X019782Y019449D01*
X019799Y019484D01*
X019819Y019518D01*
X019843Y019549D01*
X019870Y019578D01*
X019899Y019604D01*
X019931Y019627D01*
X019965Y019647D01*
X020001Y019663D01*
X020038Y019675D01*
X020077Y019684D01*
X020116Y019689D01*
X020155Y019690D01*
X020194Y019687D01*
X020233Y019680D01*
X020270Y019669D01*
X020307Y019655D01*
X020342Y019637D01*
X020375Y019616D01*
X020406Y019591D01*
X020434Y019564D01*
X020459Y019534D01*
X020481Y019501D01*
X020500Y019467D01*
X020515Y019431D01*
X020527Y019393D01*
X020535Y019355D01*
X020539Y019316D01*
X020539Y019276D01*
X020535Y019237D01*
X020527Y019199D01*
X020515Y019161D01*
X020500Y019125D01*
X020481Y019091D01*
X020459Y019058D01*
X020434Y019028D01*
X020406Y019001D01*
X020375Y018976D01*
X020342Y018955D01*
X020307Y018937D01*
X020270Y018923D01*
X020233Y018912D01*
X020194Y018905D01*
X020155Y018902D01*
X020116Y018903D01*
X020077Y018908D01*
X020038Y018917D01*
X020001Y018929D01*
X019965Y018945D01*
X019931Y018965D01*
X019899Y018988D01*
X019870Y019014D01*
X019843Y019043D01*
X019819Y019074D01*
X019799Y019108D01*
X019782Y019143D01*
X019769Y019180D01*
X019759Y019218D01*
X019753Y019257D01*
X019751Y019296D01*
D11*
X010252Y012402D03*
X010252Y011402D03*
X010252Y010402D03*
X010252Y009402D03*
X010252Y008402D03*
X010252Y007402D03*
X010252Y006402D03*
X010252Y005402D03*
X010252Y004402D03*
X010252Y003402D03*
X010252Y002402D03*
X010252Y001402D03*
X004252Y001402D03*
X004252Y002402D03*
X004252Y003402D03*
X004252Y004402D03*
X004252Y005402D03*
X004252Y006402D03*
X004252Y007402D03*
X004252Y008402D03*
X004252Y009402D03*
X004252Y010402D03*
X004252Y011402D03*
X004252Y012402D03*
X004752Y013402D03*
X005752Y013402D03*
X006752Y013402D03*
X007752Y013402D03*
X008752Y013402D03*
X009752Y013402D03*
X009252Y008902D03*
X009252Y007902D03*
X002252Y007402D03*
X002252Y008402D03*
X002252Y009402D03*
X002252Y010402D03*
X002252Y011402D03*
X002252Y012402D03*
X002252Y013402D03*
X002252Y014402D03*
X002252Y015402D03*
X002252Y016402D03*
X002252Y017402D03*
X002252Y006402D03*
X002252Y005402D03*
X002252Y004402D03*
X002252Y003402D03*
X002252Y002402D03*
D12*
X005752Y002902D03*
X006752Y002902D03*
X007752Y002902D03*
X008752Y002902D03*
X011252Y000902D03*
X013252Y000902D03*
X013252Y004902D03*
X011252Y004902D03*
X008752Y006902D03*
X007752Y006902D03*
X006752Y006902D03*
X005752Y006902D03*
X011752Y008902D03*
X012752Y009402D03*
X013752Y009402D03*
X011752Y012902D03*
X012752Y013402D03*
X013752Y013402D03*
X004252Y014902D03*
X003752Y014152D03*
X003252Y014902D03*
D13*
X011752Y014402D03*
X011752Y015402D03*
X011752Y016402D03*
D14*
X011752Y018605D02*
X011752Y019199D01*
X012752Y019199D02*
X012752Y018605D01*
X013752Y018605D02*
X013752Y019199D01*
X015752Y019199D02*
X015752Y018605D01*
X016752Y018605D02*
X016752Y019199D01*
X017752Y019199D02*
X017752Y018605D01*
X018752Y018605D02*
X018752Y019199D01*
X019455Y012902D02*
X020048Y012902D01*
X020048Y011902D02*
X019455Y011902D01*
X019455Y010902D02*
X020048Y010902D01*
X020048Y009902D02*
X019455Y009902D01*
X019705Y004152D02*
X020298Y004152D01*
X020298Y003152D02*
X019705Y003152D01*
X009752Y018605D02*
X009752Y019199D01*
X008752Y019199D02*
X008752Y018605D01*
X007752Y018605D02*
X007752Y019199D01*
X005752Y019199D02*
X005752Y018605D01*
X004752Y018605D02*
X004752Y019199D01*
X003752Y019199D02*
X003752Y018605D01*
D15*
X014672Y011292D02*
X015272Y011292D01*
X015272Y009512D02*
X014672Y009512D01*
X014142Y008482D02*
X014142Y007882D01*
X015362Y007882D02*
X015362Y008482D01*
X017142Y008482D02*
X017142Y007882D01*
X018362Y007882D02*
X018362Y008482D01*
X017832Y009512D02*
X017232Y009512D01*
X017232Y011292D02*
X017832Y011292D01*
X020142Y008482D02*
X020142Y007882D01*
X020142Y005922D02*
X020142Y005322D01*
X018362Y005322D02*
X018362Y005922D01*
X017142Y005922D02*
X017142Y005322D01*
X017232Y004292D02*
X017832Y004292D01*
X017832Y002512D02*
X017232Y002512D01*
X015272Y002512D02*
X014672Y002512D01*
X014672Y004292D02*
X015272Y004292D01*
X015362Y005322D02*
X015362Y005922D01*
X014142Y005922D02*
X014142Y005322D01*
X012362Y005322D02*
X012362Y005922D01*
X012362Y007882D02*
X012362Y008482D01*
D16*
X009252Y001402D03*
X008252Y001402D03*
X007252Y001402D03*
D17*
X007252Y015902D03*
X006252Y015902D03*
X005252Y015902D03*
X005252Y016902D03*
X006252Y016902D03*
X007252Y016902D03*
X008252Y016902D03*
X009252Y016902D03*
X009252Y015902D03*
X008252Y015902D03*
D18*
X016819Y014811D02*
X016819Y014024D01*
X019299Y014024D02*
X019299Y014811D01*
X018393Y016386D02*
X017606Y016386D01*
D19*
X013512Y016792D03*
X013512Y015892D03*
X013512Y014992D03*
D20*
X015992Y015902D03*
D21*
X018002Y015742D02*
X018002Y016382D01*
X018000Y016386D01*
X018002Y015742D02*
X019282Y014462D01*
X019299Y014418D01*
X019302Y014412D01*
X019302Y013352D01*
X019752Y012902D01*
X014972Y011292D02*
X014172Y010492D01*
X014172Y008222D01*
X014142Y008182D01*
X014142Y005622D01*
X014142Y005122D01*
X014972Y004292D01*
X015012Y004322D01*
X015342Y004652D01*
X017102Y004652D01*
X017142Y004682D01*
X017142Y005622D01*
X017142Y008182D01*
X020142Y008182D02*
X020142Y005622D01*
X017532Y004292D02*
X017142Y004682D01*
X008752Y013402D02*
X008772Y013422D01*
X008772Y016412D01*
X009222Y016862D01*
X009252Y016902D01*
X009252Y017402D01*
X007752Y018902D01*
X011752Y018902D02*
X011752Y016402D01*
X013162Y017142D02*
X013162Y019372D01*
X012922Y019612D01*
X011752Y019612D01*
X011752Y018902D01*
X013162Y017142D02*
X013512Y016792D01*
X004252Y009402D02*
X002802Y010852D01*
X002802Y012842D01*
X002282Y013362D01*
X002252Y013402D01*
X002662Y013812D01*
X002662Y014312D01*
X003252Y014902D01*
X003222Y014942D01*
X003222Y016422D01*
X002282Y017362D01*
X002252Y017402D01*
X003752Y018902D01*
D22*
X004752Y018902D02*
X004782Y018872D01*
X004782Y013942D01*
X005352Y013372D01*
X005352Y009992D01*
X005962Y009382D01*
X007352Y010432D02*
X007352Y013572D01*
X007722Y013942D01*
X007722Y016372D01*
X008252Y016902D01*
X008252Y015902D02*
X008252Y008332D01*
X009112Y007472D01*
X009112Y002542D01*
X010252Y001402D01*
X009722Y001602D02*
X009722Y000902D01*
X011252Y000902D01*
X009722Y001602D02*
X008782Y002542D01*
X008112Y002542D01*
X008112Y003052D01*
X007507Y003657D01*
X006752Y002902D01*
X007507Y003657D02*
X007752Y003902D01*
X007752Y006902D01*
X007752Y013402D01*
X007152Y013232D02*
X007152Y015332D01*
X006782Y015702D01*
X006782Y016432D01*
X007252Y016902D01*
X006252Y016902D02*
X005782Y016432D01*
X005782Y015702D01*
X006182Y015302D01*
X006182Y006962D01*
X006682Y006462D01*
X007132Y006892D02*
X007132Y013212D01*
X007152Y013232D01*
X009352Y013572D02*
X009352Y009372D01*
X009652Y009072D01*
X009652Y003292D01*
X009332Y002972D01*
X009852Y002802D02*
X009852Y012932D01*
X010152Y013232D01*
X010152Y016122D01*
X009722Y017932D02*
X009722Y013942D01*
X009352Y013572D01*
X012152Y011732D02*
X010302Y009882D01*
X011772Y008932D02*
X011752Y008902D01*
X012362Y008292D01*
X012362Y008182D01*
X012362Y005622D01*
X012892Y004902D02*
X012892Y008542D01*
X013752Y009402D01*
X013392Y009362D02*
X012782Y008752D01*
X013392Y009362D02*
X013392Y010582D01*
X014292Y011482D01*
X014292Y016442D01*
X016752Y018902D01*
X017052Y019602D02*
X014152Y019602D01*
X014152Y014312D01*
X013112Y013272D01*
X013112Y010772D01*
X010652Y008312D01*
X010652Y007802D01*
X010252Y007402D01*
X008752Y006902D02*
X007752Y006902D01*
X007482Y006542D02*
X007132Y006892D01*
X005752Y006902D02*
X004652Y008002D01*
X004652Y012932D01*
X003752Y013832D01*
X003752Y014152D01*
X002252Y012402D02*
X002652Y012002D01*
X002652Y009002D01*
X004252Y007402D01*
X009852Y002802D02*
X010252Y002402D01*
X011252Y004902D02*
X012892Y004902D01*
X014862Y002512D02*
X014972Y002512D01*
X017532Y002512D01*
X014862Y002512D02*
X013252Y000902D01*
X018362Y005622D02*
X018362Y008182D01*
X018342Y008212D01*
X018342Y009572D01*
X015892Y012022D01*
X013752Y013402D02*
X013252Y012902D01*
X013252Y010412D01*
X011772Y008932D01*
X012152Y011732D02*
X012152Y018302D01*
X012752Y018902D01*
X013752Y018902D02*
X014012Y018642D01*
X014012Y015492D01*
X013512Y014992D01*
X013512Y014442D01*
X013512Y015892D02*
X012372Y015892D01*
X009722Y017932D02*
X008752Y018902D01*
X016822Y016972D02*
X016822Y014422D01*
X016819Y014418D01*
X016842Y014382D01*
X018232Y012992D01*
X018232Y011422D01*
X019752Y009902D01*
X016822Y016972D02*
X018752Y018902D01*
X017752Y018902D02*
X017052Y019602D01*
D23*
X012372Y015892D03*
X013512Y014442D03*
X015892Y012022D03*
X012782Y008752D03*
X010302Y009882D03*
X007352Y010432D03*
X005962Y009382D03*
X007482Y006542D03*
X006682Y006462D03*
X009332Y002972D03*
X010152Y016122D03*
M02*
