%
M48
M72
T01C0.0120
T02C0.0320
T03C0.0394
T04C0.0400
T05C0.1102
T06C0.1180
T07C0.1181
T08C0.1260
%
T01
X10812Y8633
X15102Y8253
X11152Y15043
X15792Y8623
X14842Y10073
T02
X5752Y7633
X5752Y3633
X6752Y3633
X6752Y7633
X7752Y7633
X7752Y3633
X8752Y7633
X8752Y3633
X3252Y15633
X3752Y14883
X4252Y15633
X13752Y7633
X13752Y11633
X11752Y10633
X11752Y14633
X12002Y17383
X8002Y17383
X8002Y16383
X12002Y16383
X12002Y15383
X8002Y15383
T03
X4252Y16883
X5252Y16883
X6252Y16883
X11752Y19633
X12752Y19633
X13752Y19633
X7752Y19633
X8752Y19633
X9752Y19633
X3752Y19633
X4752Y19633
X5752Y19633
X15752Y19633
X16752Y19633
X17752Y19633
X18752Y19633
X19752Y8633
X19752Y7633
X19752Y6633
X19752Y5633
X13002Y2133
X12002Y2133
T04
X10252Y13133
X10252Y12133
X10252Y11133
X10252Y10133
X10252Y9133
X10252Y8133
X10252Y7133
X10252Y6133
X10252Y5133
X10252Y4133
X10252Y3133
X10252Y2133
X4252Y2133
X4252Y3133
X4252Y4133
X4252Y5133
X4252Y6133
X4252Y7133
X4252Y8133
X4252Y9133
X4252Y10133
X4252Y11133
X4252Y12133
X4252Y13133
X9252Y8633
X9252Y9633
X4752Y14133
X5752Y14133
X6752Y14133
X7752Y14133
X8752Y14133
X9752Y14133
X2252Y18383
X2252Y17383
X2252Y16383
X2252Y15383
X2252Y14383
X2252Y13383
X2252Y12383
X2252Y11383
X2252Y10383
X2252Y9383
X2252Y8383
X2252Y7383
X2252Y6383
X2252Y5383
X2252Y4383
X2252Y3383
X17782Y15743
X17782Y17523
X15222Y15743
X15222Y17523
X18362Y12103
X20142Y12103
X18362Y14663
X20142Y14663
X12862Y12103
X14642Y12103
X12862Y14663
X14642Y14663
X17782Y9243
X17782Y11023
X15222Y9243
X15222Y11023
X17392Y14663
X15612Y14663
X17392Y12103
X15612Y12103
X7252Y2133
X8252Y2133
X9252Y2133
X12502Y5383
X11502Y5383
X12502Y6383
X11502Y6383
X12502Y7383
X11502Y7383
X12502Y8383
X11502Y8383
X12502Y9383
X11502Y9383
X14252Y1883
X15252Y1883
T05
X2145Y19883
X19752Y10633
T06
X19420Y2893
X17789Y4364
T07
X2395Y2027
X19895Y17527
T08
X16538Y2883
M30
