%
M48
M72
T01C0.0120
T02C0.0320
T03C0.0394
T04C0.0400
T05C0.1102
%
T01
X7600Y7877
X6600Y5877
X4600Y6877
X5100Y12377
X10100Y17377
X11100Y14377
X15100Y13377
X17100Y9877
X17600Y12877
X12100Y12377
X2600Y16877
X1600Y15877
X5100Y11877
X16100Y17377
X13100Y10877
X9600Y8377
X5600Y10877
X5600Y9377
X15100Y12877
X7600Y13877
X6100Y14377
X17100Y11877
X7100Y11877
T02
X4100Y14877
X8100Y14877
X4600Y3377
X4600Y7377
X5600Y7377
X5600Y3377
X6600Y7377
X6600Y3377
X2600Y14377
X3350Y14877
X2600Y15377
X12100Y877
X12100Y4877
X11600Y9377
X11600Y13377
X10600Y12877
X10600Y8877
X12600Y13377
X12600Y9377
X10100Y4877
X10100Y877
T03
X10600Y14377
X10600Y15377
X10600Y16377
X11600Y18877
X12600Y18877
X13600Y18877
X7600Y18877
X8600Y18877
X9600Y18877
X3600Y18877
X4600Y18877
X5600Y18877
X15600Y18877
X16600Y18877
X17600Y18877
X18600Y18877
X15667Y14393
X18147Y14393
X16848Y16362
X18600Y12877
X18600Y11877
X18600Y10877
X18600Y9877
T04
X9100Y12377
X9100Y11377
X9100Y10377
X9100Y9377
X9100Y8377
X9100Y7377
X9100Y6377
X9100Y5377
X9100Y4377
X9100Y3377
X9100Y2377
X9100Y1377
X3100Y1377
X3100Y2377
X3100Y3377
X3100Y4377
X3100Y5377
X3100Y6377
X3100Y7377
X3100Y8377
X3100Y9377
X3100Y10377
X3100Y11377
X3100Y12377
X8100Y7877
X8100Y8877
X3600Y13377
X4600Y13377
X5600Y13377
X6600Y13377
X7600Y13377
X8600Y13377
X1100Y17377
X1100Y16377
X1100Y15377
X1100Y14377
X1100Y13377
X1100Y12377
X1100Y11377
X1100Y10377
X1100Y9377
X1100Y8377
X1100Y7377
X1100Y6377
X1100Y5377
X1100Y4377
X1100Y3377
X1100Y2377
X16380Y9487
X16380Y11267
X13820Y9487
X13820Y11267
X11210Y5597
X12990Y5597
X11210Y8157
X12990Y8157
X17210Y5597
X18990Y5597
X17210Y8157
X18990Y8157
X14210Y5597
X15990Y5597
X14210Y8157
X15990Y8157
X16380Y2487
X16380Y4267
X13820Y2487
X13820Y4267
X6100Y1377
X7100Y1377
X8100Y1377
X4600Y15877
X4600Y16877
X5600Y15877
X5600Y16877
X6600Y15877
X6600Y16877
X7600Y15877
X7600Y16877
X8600Y15877
X8600Y16877
T05
X22600Y17377
X18600Y1877
X994Y1271
X994Y18877
M30
