%
M48
M72
T01C0.0120
T02C0.0315
T03C0.0320
T04C0.0394
T05C0.0400
T06C0.0700
T07C0.1102
T08C0.1180
T09C0.1181
T10C0.1260
%
T01
X9528Y9615
X9623Y6433
X11292Y9111
X9938Y21268
X10221Y15410
X12583Y11095
X10095Y7819
X9969Y11095
T02
X3050Y16900
X3050Y15900
X3050Y14900
X3050Y13900
X3050Y12900
X3050Y11900
X3050Y10900
X3050Y9900
X3050Y8900
X3050Y7900
X3050Y6900
X3050Y5900
X3050Y4900
X3050Y3900
X3050Y2900
X9050Y16900
X9050Y15900
X9050Y14900
X9050Y13900
X9050Y12900
X9050Y11900
X9050Y10900
X9050Y9900
X9050Y8900
X9050Y7900
X9050Y6900
X9050Y5900
X9050Y4900
X9050Y3900
X9050Y2900
T03
X4800Y7150
X4800Y3150
X5800Y3150
X5800Y7150
X6800Y3150
X6800Y7150
X7800Y3150
X7800Y7150
X3800Y20650
X3300Y21400
X2800Y20650
X17300Y9400
X13300Y9400
X10800Y11650
X10800Y15650
X13300Y8650
X17300Y8650
X13300Y7150
X17300Y7150
X17300Y7900
X13300Y7900
T04
X6300Y19400
X6300Y20400
X6300Y21400
X13300Y20650
X14300Y20650
X15300Y20650
X10300Y20650
X11300Y20650
X12300Y20650
X7300Y20650
X8300Y20650
X9300Y20650
X16300Y20650
X17300Y20650
X18300Y20650
X19300Y20650
X18800Y9650
X18800Y8650
X18800Y7650
X18800Y6650
T05
X1300Y19400
X1300Y18400
X1300Y17400
X1300Y16400
X1300Y15400
X1300Y14400
X1300Y13400
X1300Y12400
X1300Y11400
X1300Y10400
X1300Y9400
X1300Y8400
X1300Y7400
X1300Y6400
X1300Y5400
X1300Y4400
X17080Y16760
X17080Y18540
X14520Y16760
X14520Y18540
X17410Y13120
X19190Y13120
X17410Y15680
X19190Y15680
X11910Y13120
X13690Y13120
X11910Y15680
X13690Y15680
X17080Y10260
X17080Y12040
X14520Y10260
X14520Y12040
X16440Y15680
X14660Y15680
X16440Y13120
X14660Y13120
X11800Y6400
X10800Y6400
X11800Y7400
X10800Y7400
X11800Y8400
X10800Y8400
X11800Y9400
X10800Y9400
X11800Y10400
X10800Y10400
X13550Y2650
X14550Y2650
X12550Y2650
X11550Y2650
X10550Y2650
T06
X3050Y17900
X3050Y1900
X9050Y1900
X9050Y17900
T07
X1194Y20900
X18800Y11650
T08
X18469Y3910
X16837Y5381
T09
X1444Y3044
X18944Y18544
T10
X15586Y3900
M30
