G75*
%MOIN*%
%OFA0B0*%
%FSLAX24Y24*%
%IPPOS*%
%LPD*%
%AMOC8*
5,1,8,0,0,1.08239X$1,22.5*
%
%ADD10C,0.0000*%
%ADD11C,0.0040*%
%ADD12C,0.0050*%
D10*
X000300Y002150D02*
X000300Y021835D01*
X019792Y021835D01*
X019792Y002150D01*
X000300Y002150D01*
X000853Y003044D02*
X000855Y003092D01*
X000861Y003140D01*
X000871Y003187D01*
X000884Y003233D01*
X000902Y003278D01*
X000922Y003322D01*
X000947Y003364D01*
X000975Y003403D01*
X001005Y003440D01*
X001039Y003474D01*
X001076Y003506D01*
X001114Y003535D01*
X001155Y003560D01*
X001198Y003582D01*
X001243Y003600D01*
X001289Y003614D01*
X001336Y003625D01*
X001384Y003632D01*
X001432Y003635D01*
X001480Y003634D01*
X001528Y003629D01*
X001576Y003620D01*
X001622Y003608D01*
X001667Y003591D01*
X001711Y003571D01*
X001753Y003548D01*
X001793Y003521D01*
X001831Y003491D01*
X001866Y003458D01*
X001898Y003422D01*
X001928Y003384D01*
X001954Y003343D01*
X001976Y003300D01*
X001996Y003256D01*
X002011Y003211D01*
X002023Y003164D01*
X002031Y003116D01*
X002035Y003068D01*
X002035Y003020D01*
X002031Y002972D01*
X002023Y002924D01*
X002011Y002877D01*
X001996Y002832D01*
X001976Y002788D01*
X001954Y002745D01*
X001928Y002704D01*
X001898Y002666D01*
X001866Y002630D01*
X001831Y002597D01*
X001793Y002567D01*
X001753Y002540D01*
X001711Y002517D01*
X001667Y002497D01*
X001622Y002480D01*
X001576Y002468D01*
X001528Y002459D01*
X001480Y002454D01*
X001432Y002453D01*
X001384Y002456D01*
X001336Y002463D01*
X001289Y002474D01*
X001243Y002488D01*
X001198Y002506D01*
X001155Y002528D01*
X001114Y002553D01*
X001076Y002582D01*
X001039Y002614D01*
X001005Y002648D01*
X000975Y002685D01*
X000947Y002724D01*
X000922Y002766D01*
X000902Y002810D01*
X000884Y002855D01*
X000871Y002901D01*
X000861Y002948D01*
X000855Y002996D01*
X000853Y003044D01*
X002700Y001900D02*
X002702Y001937D01*
X002708Y001974D01*
X002718Y002010D01*
X002731Y002045D01*
X002748Y002078D01*
X002769Y002109D01*
X002793Y002137D01*
X002820Y002163D01*
X002849Y002186D01*
X002880Y002206D01*
X002914Y002222D01*
X002949Y002235D01*
X002985Y002244D01*
X003022Y002249D01*
X003059Y002250D01*
X003096Y002247D01*
X003133Y002240D01*
X003169Y002229D01*
X003203Y002215D01*
X003236Y002197D01*
X003266Y002175D01*
X003294Y002151D01*
X003319Y002123D01*
X003342Y002093D01*
X003361Y002061D01*
X003376Y002027D01*
X003388Y001992D01*
X003396Y001956D01*
X003400Y001919D01*
X003400Y001881D01*
X003396Y001844D01*
X003388Y001808D01*
X003376Y001773D01*
X003361Y001739D01*
X003342Y001707D01*
X003319Y001677D01*
X003294Y001649D01*
X003266Y001625D01*
X003236Y001603D01*
X003203Y001585D01*
X003169Y001571D01*
X003133Y001560D01*
X003096Y001553D01*
X003059Y001550D01*
X003022Y001551D01*
X002985Y001556D01*
X002949Y001565D01*
X002914Y001578D01*
X002880Y001594D01*
X002849Y001614D01*
X002820Y001637D01*
X002793Y001663D01*
X002769Y001691D01*
X002748Y001722D01*
X002731Y001755D01*
X002718Y001790D01*
X002708Y001826D01*
X002702Y001863D01*
X002700Y001900D01*
X008700Y001900D02*
X008702Y001937D01*
X008708Y001974D01*
X008718Y002010D01*
X008731Y002045D01*
X008748Y002078D01*
X008769Y002109D01*
X008793Y002137D01*
X008820Y002163D01*
X008849Y002186D01*
X008880Y002206D01*
X008914Y002222D01*
X008949Y002235D01*
X008985Y002244D01*
X009022Y002249D01*
X009059Y002250D01*
X009096Y002247D01*
X009133Y002240D01*
X009169Y002229D01*
X009203Y002215D01*
X009236Y002197D01*
X009266Y002175D01*
X009294Y002151D01*
X009319Y002123D01*
X009342Y002093D01*
X009361Y002061D01*
X009376Y002027D01*
X009388Y001992D01*
X009396Y001956D01*
X009400Y001919D01*
X009400Y001881D01*
X009396Y001844D01*
X009388Y001808D01*
X009376Y001773D01*
X009361Y001739D01*
X009342Y001707D01*
X009319Y001677D01*
X009294Y001649D01*
X009266Y001625D01*
X009236Y001603D01*
X009203Y001585D01*
X009169Y001571D01*
X009133Y001560D01*
X009096Y001553D01*
X009059Y001550D01*
X009022Y001551D01*
X008985Y001556D01*
X008949Y001565D01*
X008914Y001578D01*
X008880Y001594D01*
X008849Y001614D01*
X008820Y001637D01*
X008793Y001663D01*
X008769Y001691D01*
X008748Y001722D01*
X008731Y001755D01*
X008718Y001790D01*
X008708Y001826D01*
X008702Y001863D01*
X008700Y001900D01*
X018249Y011650D02*
X018251Y011697D01*
X018257Y011743D01*
X018267Y011789D01*
X018280Y011834D01*
X018298Y011877D01*
X018319Y011919D01*
X018343Y011959D01*
X018371Y011996D01*
X018402Y012031D01*
X018436Y012064D01*
X018472Y012093D01*
X018511Y012119D01*
X018552Y012142D01*
X018595Y012161D01*
X018639Y012177D01*
X018684Y012189D01*
X018730Y012197D01*
X018777Y012201D01*
X018823Y012201D01*
X018870Y012197D01*
X018916Y012189D01*
X018961Y012177D01*
X019005Y012161D01*
X019048Y012142D01*
X019089Y012119D01*
X019128Y012093D01*
X019164Y012064D01*
X019198Y012031D01*
X019229Y011996D01*
X019257Y011959D01*
X019281Y011919D01*
X019302Y011877D01*
X019320Y011834D01*
X019333Y011789D01*
X019343Y011743D01*
X019349Y011697D01*
X019351Y011650D01*
X019349Y011603D01*
X019343Y011557D01*
X019333Y011511D01*
X019320Y011466D01*
X019302Y011423D01*
X019281Y011381D01*
X019257Y011341D01*
X019229Y011304D01*
X019198Y011269D01*
X019164Y011236D01*
X019128Y011207D01*
X019089Y011181D01*
X019048Y011158D01*
X019005Y011139D01*
X018961Y011123D01*
X018916Y011111D01*
X018870Y011103D01*
X018823Y011099D01*
X018777Y011099D01*
X018730Y011103D01*
X018684Y011111D01*
X018639Y011123D01*
X018595Y011139D01*
X018552Y011158D01*
X018511Y011181D01*
X018472Y011207D01*
X018436Y011236D01*
X018402Y011269D01*
X018371Y011304D01*
X018343Y011341D01*
X018319Y011381D01*
X018298Y011423D01*
X018280Y011466D01*
X018267Y011511D01*
X018257Y011557D01*
X018251Y011603D01*
X018249Y011650D01*
X018353Y018544D02*
X018355Y018592D01*
X018361Y018640D01*
X018371Y018687D01*
X018384Y018733D01*
X018402Y018778D01*
X018422Y018822D01*
X018447Y018864D01*
X018475Y018903D01*
X018505Y018940D01*
X018539Y018974D01*
X018576Y019006D01*
X018614Y019035D01*
X018655Y019060D01*
X018698Y019082D01*
X018743Y019100D01*
X018789Y019114D01*
X018836Y019125D01*
X018884Y019132D01*
X018932Y019135D01*
X018980Y019134D01*
X019028Y019129D01*
X019076Y019120D01*
X019122Y019108D01*
X019167Y019091D01*
X019211Y019071D01*
X019253Y019048D01*
X019293Y019021D01*
X019331Y018991D01*
X019366Y018958D01*
X019398Y018922D01*
X019428Y018884D01*
X019454Y018843D01*
X019476Y018800D01*
X019496Y018756D01*
X019511Y018711D01*
X019523Y018664D01*
X019531Y018616D01*
X019535Y018568D01*
X019535Y018520D01*
X019531Y018472D01*
X019523Y018424D01*
X019511Y018377D01*
X019496Y018332D01*
X019476Y018288D01*
X019454Y018245D01*
X019428Y018204D01*
X019398Y018166D01*
X019366Y018130D01*
X019331Y018097D01*
X019293Y018067D01*
X019253Y018040D01*
X019211Y018017D01*
X019167Y017997D01*
X019122Y017980D01*
X019076Y017968D01*
X019028Y017959D01*
X018980Y017954D01*
X018932Y017953D01*
X018884Y017956D01*
X018836Y017963D01*
X018789Y017974D01*
X018743Y017988D01*
X018698Y018006D01*
X018655Y018028D01*
X018614Y018053D01*
X018576Y018082D01*
X018539Y018114D01*
X018505Y018148D01*
X018475Y018185D01*
X018447Y018224D01*
X018422Y018266D01*
X018402Y018310D01*
X018384Y018355D01*
X018371Y018401D01*
X018361Y018448D01*
X018355Y018496D01*
X018353Y018544D01*
X008700Y017900D02*
X008702Y017937D01*
X008708Y017974D01*
X008718Y018010D01*
X008731Y018045D01*
X008748Y018078D01*
X008769Y018109D01*
X008793Y018137D01*
X008820Y018163D01*
X008849Y018186D01*
X008880Y018206D01*
X008914Y018222D01*
X008949Y018235D01*
X008985Y018244D01*
X009022Y018249D01*
X009059Y018250D01*
X009096Y018247D01*
X009133Y018240D01*
X009169Y018229D01*
X009203Y018215D01*
X009236Y018197D01*
X009266Y018175D01*
X009294Y018151D01*
X009319Y018123D01*
X009342Y018093D01*
X009361Y018061D01*
X009376Y018027D01*
X009388Y017992D01*
X009396Y017956D01*
X009400Y017919D01*
X009400Y017881D01*
X009396Y017844D01*
X009388Y017808D01*
X009376Y017773D01*
X009361Y017739D01*
X009342Y017707D01*
X009319Y017677D01*
X009294Y017649D01*
X009266Y017625D01*
X009236Y017603D01*
X009203Y017585D01*
X009169Y017571D01*
X009133Y017560D01*
X009096Y017553D01*
X009059Y017550D01*
X009022Y017551D01*
X008985Y017556D01*
X008949Y017565D01*
X008914Y017578D01*
X008880Y017594D01*
X008849Y017614D01*
X008820Y017637D01*
X008793Y017663D01*
X008769Y017691D01*
X008748Y017722D01*
X008731Y017755D01*
X008718Y017790D01*
X008708Y017826D01*
X008702Y017863D01*
X008700Y017900D01*
X002700Y017900D02*
X002702Y017937D01*
X002708Y017974D01*
X002718Y018010D01*
X002731Y018045D01*
X002748Y018078D01*
X002769Y018109D01*
X002793Y018137D01*
X002820Y018163D01*
X002849Y018186D01*
X002880Y018206D01*
X002914Y018222D01*
X002949Y018235D01*
X002985Y018244D01*
X003022Y018249D01*
X003059Y018250D01*
X003096Y018247D01*
X003133Y018240D01*
X003169Y018229D01*
X003203Y018215D01*
X003236Y018197D01*
X003266Y018175D01*
X003294Y018151D01*
X003319Y018123D01*
X003342Y018093D01*
X003361Y018061D01*
X003376Y018027D01*
X003388Y017992D01*
X003396Y017956D01*
X003400Y017919D01*
X003400Y017881D01*
X003396Y017844D01*
X003388Y017808D01*
X003376Y017773D01*
X003361Y017739D01*
X003342Y017707D01*
X003319Y017677D01*
X003294Y017649D01*
X003266Y017625D01*
X003236Y017603D01*
X003203Y017585D01*
X003169Y017571D01*
X003133Y017560D01*
X003096Y017553D01*
X003059Y017550D01*
X003022Y017551D01*
X002985Y017556D01*
X002949Y017565D01*
X002914Y017578D01*
X002880Y017594D01*
X002849Y017614D01*
X002820Y017637D01*
X002793Y017663D01*
X002769Y017691D01*
X002748Y017722D01*
X002731Y017755D01*
X002718Y017790D01*
X002708Y017826D01*
X002702Y017863D01*
X002700Y017900D01*
X000643Y020900D02*
X000645Y020947D01*
X000651Y020993D01*
X000661Y021039D01*
X000674Y021084D01*
X000692Y021127D01*
X000713Y021169D01*
X000737Y021209D01*
X000765Y021246D01*
X000796Y021281D01*
X000830Y021314D01*
X000866Y021343D01*
X000905Y021369D01*
X000946Y021392D01*
X000989Y021411D01*
X001033Y021427D01*
X001078Y021439D01*
X001124Y021447D01*
X001171Y021451D01*
X001217Y021451D01*
X001264Y021447D01*
X001310Y021439D01*
X001355Y021427D01*
X001399Y021411D01*
X001442Y021392D01*
X001483Y021369D01*
X001522Y021343D01*
X001558Y021314D01*
X001592Y021281D01*
X001623Y021246D01*
X001651Y021209D01*
X001675Y021169D01*
X001696Y021127D01*
X001714Y021084D01*
X001727Y021039D01*
X001737Y020993D01*
X001743Y020947D01*
X001745Y020900D01*
X001743Y020853D01*
X001737Y020807D01*
X001727Y020761D01*
X001714Y020716D01*
X001696Y020673D01*
X001675Y020631D01*
X001651Y020591D01*
X001623Y020554D01*
X001592Y020519D01*
X001558Y020486D01*
X001522Y020457D01*
X001483Y020431D01*
X001442Y020408D01*
X001399Y020389D01*
X001355Y020373D01*
X001310Y020361D01*
X001264Y020353D01*
X001217Y020349D01*
X001171Y020349D01*
X001124Y020353D01*
X001078Y020361D01*
X001033Y020373D01*
X000989Y020389D01*
X000946Y020408D01*
X000905Y020431D01*
X000866Y020457D01*
X000830Y020486D01*
X000796Y020519D01*
X000765Y020554D01*
X000737Y020591D01*
X000713Y020631D01*
X000692Y020673D01*
X000674Y020716D01*
X000661Y020761D01*
X000651Y020807D01*
X000645Y020853D01*
X000643Y020900D01*
D11*
X004570Y016539D02*
X004570Y016232D01*
X004570Y016385D02*
X005030Y016385D01*
X004877Y016232D01*
X004877Y016078D02*
X004954Y016078D01*
X005030Y016002D01*
X005030Y015848D01*
X004954Y015771D01*
X004877Y016078D02*
X004570Y015771D01*
X004570Y016078D01*
X004570Y015618D02*
X004570Y015541D01*
X004647Y015541D01*
X004647Y015618D01*
X004570Y015618D01*
X004570Y015388D02*
X004570Y015081D01*
X004570Y015234D02*
X005030Y015234D01*
X004877Y015081D01*
X004723Y014927D02*
X005030Y014927D01*
X005030Y014620D02*
X004723Y014620D01*
X004570Y014774D01*
X004723Y014927D01*
X004877Y014007D02*
X004877Y013930D01*
X004723Y013776D01*
X004570Y013776D02*
X004877Y013776D01*
X004800Y013623D02*
X004723Y013623D01*
X004723Y013316D01*
X004647Y013316D02*
X004800Y013316D01*
X004877Y013393D01*
X004877Y013546D01*
X004800Y013623D01*
X004570Y013546D02*
X004570Y013393D01*
X004647Y013316D01*
X004570Y013163D02*
X004570Y013009D01*
X004570Y013086D02*
X005030Y013086D01*
X005030Y013009D01*
X005030Y012779D02*
X004570Y012779D01*
X004570Y012702D02*
X004570Y012856D01*
X004647Y012549D02*
X004800Y012549D01*
X004877Y012472D01*
X004877Y012319D01*
X004800Y012242D01*
X004647Y012242D01*
X004570Y012319D01*
X004570Y012472D01*
X004647Y012549D01*
X005030Y012702D02*
X005030Y012779D01*
X004877Y012088D02*
X004877Y012012D01*
X004723Y011858D01*
X004570Y011858D02*
X004877Y011858D01*
X004877Y011705D02*
X004877Y011551D01*
X004954Y011628D02*
X004647Y011628D01*
X004570Y011705D01*
X004570Y011398D02*
X004800Y011398D01*
X004877Y011321D01*
X004877Y011091D01*
X004570Y011091D01*
X004647Y010937D02*
X004570Y010861D01*
X004570Y010707D01*
X004647Y010630D01*
X004800Y010630D01*
X004877Y010707D01*
X004877Y010861D01*
X004800Y010937D01*
X004647Y010937D01*
X004570Y010477D02*
X004570Y010247D01*
X004647Y010170D01*
X004800Y010170D01*
X004877Y010247D01*
X004877Y010477D01*
X005320Y010477D02*
X005320Y010323D01*
X005397Y010247D01*
X005550Y010247D01*
X005627Y010323D01*
X005627Y010477D01*
X005550Y010554D01*
X005473Y010554D01*
X005473Y010247D01*
X005780Y010093D02*
X005320Y009786D01*
X005320Y009633D02*
X005397Y009556D01*
X005704Y009556D01*
X005627Y009479D02*
X005627Y009633D01*
X005780Y009249D02*
X005320Y009249D01*
X005320Y009173D02*
X005320Y009326D01*
X005320Y009019D02*
X005320Y008942D01*
X005397Y008942D01*
X005397Y009019D01*
X005320Y009019D01*
X005473Y008789D02*
X005473Y008482D01*
X005397Y008482D02*
X005550Y008482D01*
X005627Y008559D01*
X005627Y008712D01*
X005550Y008789D01*
X005473Y008789D01*
X005320Y008712D02*
X005320Y008559D01*
X005397Y008482D01*
X005627Y008328D02*
X005627Y008252D01*
X005473Y008098D01*
X005320Y008098D02*
X005627Y008098D01*
X005627Y007868D02*
X005320Y007868D01*
X005320Y007791D02*
X005320Y007945D01*
X005627Y007868D02*
X005627Y007791D01*
X005780Y007868D02*
X005857Y007868D01*
X006070Y007868D02*
X006070Y008022D01*
X006070Y007868D02*
X006147Y007791D01*
X006300Y007791D01*
X006377Y007868D01*
X006377Y008022D01*
X006300Y008098D01*
X006223Y008098D01*
X006223Y007791D01*
X006070Y007638D02*
X006070Y007484D01*
X006070Y007561D02*
X006530Y007561D01*
X006530Y007484D01*
X006377Y007254D02*
X006377Y007101D01*
X006300Y007024D01*
X006147Y007024D01*
X006070Y007101D01*
X006070Y007254D01*
X006147Y007331D01*
X006300Y007331D01*
X006377Y007254D01*
X006377Y006871D02*
X006223Y006640D01*
X006070Y006871D01*
X006070Y006640D02*
X006530Y006640D01*
X006820Y006640D02*
X007280Y006640D01*
X007280Y006564D01*
X007127Y006410D02*
X006820Y006410D01*
X006820Y006180D01*
X006897Y006103D01*
X007127Y006103D01*
X007050Y005950D02*
X007127Y005873D01*
X007127Y005720D01*
X006973Y005720D02*
X006897Y005643D01*
X006820Y005720D01*
X006820Y005950D01*
X007050Y005950D01*
X006973Y005950D02*
X006973Y005720D01*
X006973Y005489D02*
X006897Y005489D01*
X006820Y005413D01*
X006820Y005259D01*
X006897Y005182D01*
X006897Y005029D02*
X006820Y005029D01*
X006820Y004952D01*
X006897Y004952D01*
X006897Y005029D01*
X006897Y004799D02*
X007127Y004799D01*
X006897Y004799D02*
X006820Y004722D01*
X006897Y004645D01*
X006820Y004569D01*
X006897Y004492D01*
X007127Y004492D01*
X007127Y004338D02*
X006897Y004338D01*
X006820Y004262D01*
X006897Y004185D01*
X006820Y004108D01*
X006897Y004031D01*
X007127Y004031D01*
X007127Y003878D02*
X006897Y003878D01*
X006820Y003801D01*
X006897Y003725D01*
X006820Y003648D01*
X006897Y003571D01*
X007127Y003571D01*
X006530Y003648D02*
X006454Y003571D01*
X006377Y003571D01*
X006300Y003648D01*
X006300Y003801D01*
X006223Y003878D01*
X006147Y003878D01*
X006070Y003801D01*
X006070Y003648D01*
X006147Y003571D01*
X006530Y003648D02*
X006530Y003801D01*
X006454Y003878D01*
X006377Y004108D02*
X006377Y004262D01*
X006300Y004338D01*
X006070Y004338D01*
X006070Y004108D01*
X006147Y004031D01*
X006223Y004108D01*
X006223Y004338D01*
X006147Y004492D02*
X006377Y004492D01*
X006147Y004492D02*
X006070Y004569D01*
X006070Y004799D01*
X006377Y004799D01*
X006530Y004952D02*
X006530Y005029D01*
X006070Y005029D01*
X006070Y004952D02*
X006070Y005106D01*
X006147Y005259D02*
X006300Y005259D01*
X006377Y005336D01*
X006377Y005489D01*
X006300Y005566D01*
X006223Y005566D01*
X006223Y005259D01*
X006147Y005259D02*
X006070Y005336D01*
X006070Y005489D01*
X006070Y005720D02*
X006070Y005950D01*
X006147Y006026D01*
X006223Y005950D01*
X006223Y005796D01*
X006300Y005720D01*
X006377Y005796D01*
X006377Y006026D01*
X006820Y006564D02*
X006820Y006717D01*
X006897Y006871D02*
X006820Y006947D01*
X006820Y007101D01*
X006973Y007177D02*
X006973Y006871D01*
X006897Y006871D02*
X007050Y006871D01*
X007127Y006947D01*
X007127Y007101D01*
X007050Y007177D01*
X006973Y007177D01*
X006973Y007331D02*
X006820Y007484D01*
X006973Y007638D01*
X007280Y007638D01*
X007127Y007791D02*
X007127Y007868D01*
X006820Y007868D01*
X006820Y007791D02*
X006820Y007945D01*
X006820Y008098D02*
X007127Y008098D01*
X006973Y008098D02*
X007127Y008252D01*
X007127Y008328D01*
X007050Y008482D02*
X007127Y008559D01*
X007127Y008712D01*
X007050Y008789D01*
X006973Y008789D01*
X006973Y008482D01*
X006897Y008482D02*
X007050Y008482D01*
X006897Y008482D02*
X006820Y008559D01*
X006820Y008712D01*
X006820Y008942D02*
X006820Y009019D01*
X006897Y009019D01*
X006897Y008942D01*
X006820Y008942D01*
X006820Y009173D02*
X006820Y009326D01*
X006820Y009249D02*
X007280Y009249D01*
X007280Y009173D01*
X007127Y009479D02*
X007127Y009633D01*
X007204Y009556D02*
X006897Y009556D01*
X006820Y009633D01*
X006607Y009863D02*
X006530Y009863D01*
X006377Y009863D02*
X006377Y009786D01*
X006377Y009863D02*
X006070Y009863D01*
X006070Y009786D02*
X006070Y009940D01*
X006147Y010093D02*
X006223Y010170D01*
X006223Y010400D01*
X006300Y010400D02*
X006070Y010400D01*
X006070Y010170D01*
X006147Y010093D01*
X006377Y010170D02*
X006377Y010323D01*
X006300Y010400D01*
X006377Y010554D02*
X006147Y010554D01*
X006070Y010630D01*
X006070Y010861D01*
X006377Y010861D01*
X006300Y011014D02*
X006377Y011091D01*
X006377Y011321D01*
X006223Y011244D02*
X006223Y011091D01*
X006300Y011014D01*
X006070Y011014D02*
X006070Y011244D01*
X006147Y011321D01*
X006223Y011244D01*
X005627Y010937D02*
X005627Y010707D01*
X005320Y010707D01*
X005320Y011014D02*
X005550Y011014D01*
X005627Y010937D01*
X006070Y012088D02*
X006377Y011935D01*
X006377Y012242D02*
X006070Y012088D01*
X006147Y012395D02*
X006223Y012472D01*
X006223Y012702D01*
X006300Y012702D02*
X006070Y012702D01*
X006070Y012472D01*
X006147Y012395D01*
X006377Y012472D02*
X006377Y012625D01*
X006300Y012702D01*
X006070Y012856D02*
X006070Y013009D01*
X006070Y012932D02*
X006530Y012932D01*
X006530Y012856D01*
X006300Y013163D02*
X006377Y013239D01*
X006377Y013470D01*
X006377Y013623D02*
X006377Y013700D01*
X006070Y013700D01*
X006070Y013776D02*
X006070Y013623D01*
X006070Y013470D02*
X006070Y013239D01*
X006147Y013163D01*
X006300Y013163D01*
X006530Y013470D02*
X006070Y013470D01*
X006070Y013930D02*
X006530Y013930D01*
X006530Y013700D02*
X006607Y013700D01*
X006223Y013930D02*
X006377Y014160D01*
X006530Y014314D02*
X006530Y014390D01*
X006070Y014390D01*
X006070Y014314D02*
X006070Y014467D01*
X006070Y014620D02*
X006070Y014774D01*
X006070Y014697D02*
X006377Y014697D01*
X006377Y014620D01*
X006530Y014697D02*
X006607Y014697D01*
X006300Y014927D02*
X006377Y015004D01*
X006377Y015234D01*
X006223Y015158D02*
X006223Y015004D01*
X006300Y014927D01*
X006070Y014927D02*
X006070Y015158D01*
X006147Y015234D01*
X006223Y015158D01*
X006223Y015848D02*
X006070Y016002D01*
X006223Y016155D01*
X006530Y016155D01*
X006377Y016309D02*
X006530Y016462D01*
X006070Y016462D01*
X006070Y016309D02*
X006070Y016616D01*
X006070Y016769D02*
X006070Y016846D01*
X006147Y016846D01*
X006147Y016769D01*
X006070Y016769D01*
X006070Y016999D02*
X006377Y017306D01*
X006454Y017306D01*
X006530Y017229D01*
X006530Y017076D01*
X006454Y016999D01*
X006070Y016999D02*
X006070Y017306D01*
X006070Y017460D02*
X006070Y017766D01*
X006070Y017613D02*
X006530Y017613D01*
X006377Y017460D01*
X006530Y015848D02*
X006223Y015848D01*
X006070Y014160D02*
X006223Y013930D01*
X006377Y009633D02*
X006377Y009556D01*
X006223Y009403D01*
X006070Y009403D02*
X006377Y009403D01*
X006300Y009249D02*
X006147Y009249D01*
X006070Y009173D01*
X006070Y009019D01*
X006147Y008942D01*
X006300Y008942D01*
X006377Y009019D01*
X006377Y009173D01*
X006300Y009249D01*
X006377Y008789D02*
X006377Y008635D01*
X006454Y008712D02*
X006147Y008712D01*
X006070Y008789D01*
X006070Y008482D02*
X006223Y008252D01*
X006377Y008482D01*
X006530Y008252D02*
X006070Y008252D01*
X005780Y007638D02*
X005473Y007638D01*
X005320Y007484D01*
X005473Y007331D01*
X005780Y007331D01*
X005550Y007177D02*
X005473Y007177D01*
X005473Y006871D01*
X005397Y006871D02*
X005550Y006871D01*
X005627Y006947D01*
X005627Y007101D01*
X005550Y007177D01*
X005320Y007101D02*
X005320Y006947D01*
X005397Y006871D01*
X005320Y006717D02*
X005320Y006564D01*
X005320Y006640D02*
X005780Y006640D01*
X005780Y006564D01*
X005627Y006410D02*
X005320Y006410D01*
X005320Y006180D01*
X005397Y006103D01*
X005627Y006103D01*
X005550Y005950D02*
X005320Y005950D01*
X005320Y005720D01*
X005397Y005643D01*
X005473Y005720D01*
X005473Y005950D01*
X005550Y005950D02*
X005627Y005873D01*
X005627Y005720D01*
X005704Y005489D02*
X005780Y005413D01*
X005780Y005259D01*
X005704Y005182D01*
X005627Y005182D01*
X005550Y005259D01*
X005550Y005413D01*
X005473Y005489D01*
X005397Y005489D01*
X005320Y005413D01*
X005320Y005259D01*
X005397Y005182D01*
X005397Y005029D02*
X005320Y005029D01*
X005320Y004952D01*
X005397Y004952D01*
X005397Y005029D01*
X005397Y004799D02*
X005627Y004799D01*
X005397Y004799D02*
X005320Y004722D01*
X005397Y004645D01*
X005320Y004569D01*
X005397Y004492D01*
X005627Y004492D01*
X005627Y004338D02*
X005397Y004338D01*
X005320Y004262D01*
X005397Y004185D01*
X005320Y004108D01*
X005397Y004031D01*
X005627Y004031D01*
X005627Y003878D02*
X005397Y003878D01*
X005320Y003801D01*
X005397Y003725D01*
X005320Y003648D01*
X005397Y003571D01*
X005627Y003571D01*
X005030Y003648D02*
X004954Y003571D01*
X004877Y003571D01*
X004800Y003648D01*
X004800Y003801D01*
X004723Y003878D01*
X004647Y003878D01*
X004570Y003801D01*
X004570Y003648D01*
X004647Y003571D01*
X005030Y003648D02*
X005030Y003801D01*
X004954Y003878D01*
X004800Y004031D02*
X004877Y004108D01*
X004877Y004262D01*
X004800Y004338D01*
X004647Y004338D01*
X004570Y004262D01*
X004570Y004108D01*
X004647Y004031D01*
X004800Y004031D01*
X004570Y004492D02*
X004570Y004645D01*
X004570Y004569D02*
X005030Y004569D01*
X005030Y004492D01*
X004877Y004876D02*
X004877Y005029D01*
X004800Y005106D01*
X004570Y005106D01*
X004570Y004876D01*
X004647Y004799D01*
X004723Y004876D01*
X004723Y005106D01*
X004723Y005259D02*
X004877Y005413D01*
X004877Y005489D01*
X004877Y005259D02*
X004570Y005259D01*
X004647Y006103D02*
X004570Y006180D01*
X004570Y006410D01*
X004647Y006564D02*
X004570Y006640D01*
X004570Y006794D01*
X004647Y006871D01*
X004800Y006871D01*
X004877Y006794D01*
X004877Y006640D01*
X004800Y006564D01*
X004647Y006564D01*
X004877Y006410D02*
X004877Y006180D01*
X004800Y006103D01*
X004647Y006103D01*
X004570Y007024D02*
X004570Y007177D01*
X004570Y007101D02*
X005030Y007101D01*
X005030Y007024D01*
X005030Y007331D02*
X005030Y007408D01*
X004570Y007408D01*
X004570Y007484D02*
X004570Y007331D01*
X004647Y007638D02*
X004570Y007715D01*
X004570Y007868D01*
X004723Y007945D02*
X004723Y007638D01*
X004647Y007638D02*
X004800Y007638D01*
X004877Y007715D01*
X004877Y007868D01*
X004800Y007945D01*
X004723Y007945D01*
X004647Y008098D02*
X004570Y008175D01*
X004570Y008405D01*
X004647Y008635D02*
X004570Y008712D01*
X004647Y008635D02*
X004954Y008635D01*
X004877Y008559D02*
X004877Y008712D01*
X004800Y008866D02*
X004877Y008942D01*
X004877Y009096D01*
X004800Y009173D01*
X004647Y009173D01*
X004570Y009096D01*
X004570Y008942D01*
X004647Y008866D01*
X004800Y008866D01*
X004723Y009326D02*
X004877Y009479D01*
X004877Y009556D01*
X004877Y009326D02*
X004570Y009326D01*
X004877Y008405D02*
X004877Y008175D01*
X004800Y008098D01*
X004647Y008098D01*
X005780Y009173D02*
X005780Y009249D01*
X007280Y007868D02*
X007357Y007868D01*
X007280Y007331D02*
X006973Y007331D01*
X006973Y005489D02*
X007050Y005413D01*
X007050Y005259D01*
X007127Y005182D01*
X007204Y005182D01*
X007280Y005259D01*
X007280Y005413D01*
X007204Y005489D01*
X010433Y004400D02*
X010740Y004400D01*
X010510Y004630D01*
X010510Y004170D01*
X010894Y004247D02*
X010894Y004554D01*
X010971Y004630D01*
X011124Y004630D01*
X011201Y004554D01*
X011201Y004477D01*
X011124Y004400D01*
X010894Y004400D01*
X010894Y004247D02*
X010971Y004170D01*
X011124Y004170D01*
X011201Y004247D01*
X011354Y004554D02*
X011661Y004247D01*
X011661Y004170D01*
X011815Y004247D02*
X011891Y004170D01*
X012045Y004170D01*
X012122Y004247D01*
X012122Y004323D01*
X012045Y004400D01*
X011891Y004400D01*
X011815Y004323D01*
X011815Y004247D01*
X011891Y004400D02*
X011815Y004477D01*
X011815Y004554D01*
X011891Y004630D01*
X012045Y004630D01*
X012122Y004554D01*
X012122Y004477D01*
X012045Y004400D01*
X012275Y004323D02*
X012275Y004247D01*
X012352Y004170D01*
X012505Y004170D01*
X012582Y004247D01*
X012735Y004247D02*
X012735Y004554D01*
X013042Y004247D01*
X012966Y004170D01*
X012812Y004170D01*
X012735Y004247D01*
X012735Y004554D02*
X012812Y004630D01*
X012966Y004630D01*
X013042Y004554D01*
X013042Y004247D01*
X013196Y004247D02*
X013196Y004554D01*
X013503Y004247D01*
X013426Y004170D01*
X013273Y004170D01*
X013196Y004247D01*
X013196Y004554D02*
X013273Y004630D01*
X013426Y004630D01*
X013503Y004554D01*
X013503Y004247D01*
X013656Y004247D02*
X013733Y004170D01*
X013886Y004170D01*
X013963Y004247D01*
X013656Y004554D01*
X013656Y004247D01*
X013656Y004554D02*
X013733Y004630D01*
X013886Y004630D01*
X013963Y004554D01*
X013963Y004247D01*
X014117Y004170D02*
X014424Y004170D01*
X014270Y004170D02*
X014270Y004630D01*
X014424Y004477D01*
X014577Y004477D02*
X014654Y004477D01*
X014884Y004477D01*
X014884Y004323D02*
X014577Y004323D01*
X014654Y004170D02*
X014654Y004630D01*
X014807Y004630D02*
X014807Y004170D01*
X014807Y004920D02*
X014654Y004920D01*
X014577Y004997D01*
X014577Y005304D01*
X014654Y005380D01*
X014807Y005380D01*
X014884Y005304D01*
X014884Y004997D01*
X014807Y004920D01*
X014424Y004920D02*
X014424Y005380D01*
X014193Y005380D01*
X014117Y005304D01*
X014117Y005150D01*
X014193Y005073D01*
X014424Y005073D01*
X014270Y005073D02*
X014117Y004920D01*
X013963Y004920D02*
X013733Y004920D01*
X013656Y004997D01*
X013656Y005304D01*
X013733Y005380D01*
X013963Y005380D01*
X013963Y004920D01*
X013503Y004920D02*
X013503Y005380D01*
X013196Y005380D01*
X013042Y005380D02*
X012812Y005380D01*
X012735Y005304D01*
X012735Y005150D01*
X012812Y005073D01*
X013042Y005073D01*
X013042Y004920D02*
X013042Y005380D01*
X012889Y005073D02*
X012735Y004920D01*
X012505Y004630D02*
X012352Y004630D01*
X012275Y004554D01*
X012275Y004477D01*
X012352Y004400D01*
X012275Y004323D01*
X012352Y004400D02*
X012429Y004400D01*
X012582Y004554D02*
X012505Y004630D01*
X013196Y004920D02*
X013503Y004920D01*
X013503Y005150D02*
X013349Y005150D01*
X011661Y004630D02*
X011354Y004630D01*
X011354Y004554D01*
D12*
X015700Y013475D02*
X015625Y013550D01*
X015625Y013700D01*
X015700Y013775D01*
X015775Y013775D01*
X015850Y013700D01*
X015850Y013550D01*
X015925Y013475D01*
X016000Y013475D01*
X016075Y013550D01*
X016075Y013700D01*
X016000Y013775D01*
X016075Y013935D02*
X015850Y013935D01*
X015925Y014086D01*
X015925Y014161D01*
X015850Y014236D01*
X015700Y014236D01*
X015625Y014161D01*
X015625Y014010D01*
X015700Y013935D01*
X016075Y013935D02*
X016075Y014236D01*
M02*
