G75*
%MOIN*%
%OFA0B0*%
%FSLAX24Y24*%
%IPPOS*%
%LPD*%
%AMOC8*
5,1,8,0,0,1.08239X$1,22.5*
%
%ADD10C,0.0000*%
%ADD11C,0.0040*%
%ADD12C,0.0060*%
%ADD13R,0.0240X0.0340*%
%ADD14C,0.0050*%
%ADD15C,0.0080*%
%ADD16C,0.0100*%
%ADD17R,0.0157X0.0827*%
%ADD18C,0.0020*%
%ADD19R,0.0340X0.0240*%
%ADD20C,0.0010*%
%ADD21R,0.0200X0.0200*%
D10*
X000300Y002150D02*
X000300Y021835D01*
X019792Y021835D01*
X019792Y002150D01*
X000300Y002150D01*
X000853Y003044D02*
X000855Y003092D01*
X000861Y003140D01*
X000871Y003187D01*
X000884Y003233D01*
X000902Y003278D01*
X000922Y003322D01*
X000947Y003364D01*
X000975Y003403D01*
X001005Y003440D01*
X001039Y003474D01*
X001076Y003506D01*
X001114Y003535D01*
X001155Y003560D01*
X001198Y003582D01*
X001243Y003600D01*
X001289Y003614D01*
X001336Y003625D01*
X001384Y003632D01*
X001432Y003635D01*
X001480Y003634D01*
X001528Y003629D01*
X001576Y003620D01*
X001622Y003608D01*
X001667Y003591D01*
X001711Y003571D01*
X001753Y003548D01*
X001793Y003521D01*
X001831Y003491D01*
X001866Y003458D01*
X001898Y003422D01*
X001928Y003384D01*
X001954Y003343D01*
X001976Y003300D01*
X001996Y003256D01*
X002011Y003211D01*
X002023Y003164D01*
X002031Y003116D01*
X002035Y003068D01*
X002035Y003020D01*
X002031Y002972D01*
X002023Y002924D01*
X002011Y002877D01*
X001996Y002832D01*
X001976Y002788D01*
X001954Y002745D01*
X001928Y002704D01*
X001898Y002666D01*
X001866Y002630D01*
X001831Y002597D01*
X001793Y002567D01*
X001753Y002540D01*
X001711Y002517D01*
X001667Y002497D01*
X001622Y002480D01*
X001576Y002468D01*
X001528Y002459D01*
X001480Y002454D01*
X001432Y002453D01*
X001384Y002456D01*
X001336Y002463D01*
X001289Y002474D01*
X001243Y002488D01*
X001198Y002506D01*
X001155Y002528D01*
X001114Y002553D01*
X001076Y002582D01*
X001039Y002614D01*
X001005Y002648D01*
X000975Y002685D01*
X000947Y002724D01*
X000922Y002766D01*
X000902Y002810D01*
X000884Y002855D01*
X000871Y002901D01*
X000861Y002948D01*
X000855Y002996D01*
X000853Y003044D01*
X002700Y001900D02*
X002702Y001937D01*
X002708Y001974D01*
X002718Y002010D01*
X002731Y002045D01*
X002748Y002078D01*
X002769Y002109D01*
X002793Y002137D01*
X002820Y002163D01*
X002849Y002186D01*
X002880Y002206D01*
X002914Y002222D01*
X002949Y002235D01*
X002985Y002244D01*
X003022Y002249D01*
X003059Y002250D01*
X003096Y002247D01*
X003133Y002240D01*
X003169Y002229D01*
X003203Y002215D01*
X003236Y002197D01*
X003266Y002175D01*
X003294Y002151D01*
X003319Y002123D01*
X003342Y002093D01*
X003361Y002061D01*
X003376Y002027D01*
X003388Y001992D01*
X003396Y001956D01*
X003400Y001919D01*
X003400Y001881D01*
X003396Y001844D01*
X003388Y001808D01*
X003376Y001773D01*
X003361Y001739D01*
X003342Y001707D01*
X003319Y001677D01*
X003294Y001649D01*
X003266Y001625D01*
X003236Y001603D01*
X003203Y001585D01*
X003169Y001571D01*
X003133Y001560D01*
X003096Y001553D01*
X003059Y001550D01*
X003022Y001551D01*
X002985Y001556D01*
X002949Y001565D01*
X002914Y001578D01*
X002880Y001594D01*
X002849Y001614D01*
X002820Y001637D01*
X002793Y001663D01*
X002769Y001691D01*
X002748Y001722D01*
X002731Y001755D01*
X002718Y001790D01*
X002708Y001826D01*
X002702Y001863D01*
X002700Y001900D01*
X008700Y001900D02*
X008702Y001937D01*
X008708Y001974D01*
X008718Y002010D01*
X008731Y002045D01*
X008748Y002078D01*
X008769Y002109D01*
X008793Y002137D01*
X008820Y002163D01*
X008849Y002186D01*
X008880Y002206D01*
X008914Y002222D01*
X008949Y002235D01*
X008985Y002244D01*
X009022Y002249D01*
X009059Y002250D01*
X009096Y002247D01*
X009133Y002240D01*
X009169Y002229D01*
X009203Y002215D01*
X009236Y002197D01*
X009266Y002175D01*
X009294Y002151D01*
X009319Y002123D01*
X009342Y002093D01*
X009361Y002061D01*
X009376Y002027D01*
X009388Y001992D01*
X009396Y001956D01*
X009400Y001919D01*
X009400Y001881D01*
X009396Y001844D01*
X009388Y001808D01*
X009376Y001773D01*
X009361Y001739D01*
X009342Y001707D01*
X009319Y001677D01*
X009294Y001649D01*
X009266Y001625D01*
X009236Y001603D01*
X009203Y001585D01*
X009169Y001571D01*
X009133Y001560D01*
X009096Y001553D01*
X009059Y001550D01*
X009022Y001551D01*
X008985Y001556D01*
X008949Y001565D01*
X008914Y001578D01*
X008880Y001594D01*
X008849Y001614D01*
X008820Y001637D01*
X008793Y001663D01*
X008769Y001691D01*
X008748Y001722D01*
X008731Y001755D01*
X008718Y001790D01*
X008708Y001826D01*
X008702Y001863D01*
X008700Y001900D01*
X018249Y011650D02*
X018251Y011697D01*
X018257Y011743D01*
X018267Y011789D01*
X018280Y011834D01*
X018298Y011877D01*
X018319Y011919D01*
X018343Y011959D01*
X018371Y011996D01*
X018402Y012031D01*
X018436Y012064D01*
X018472Y012093D01*
X018511Y012119D01*
X018552Y012142D01*
X018595Y012161D01*
X018639Y012177D01*
X018684Y012189D01*
X018730Y012197D01*
X018777Y012201D01*
X018823Y012201D01*
X018870Y012197D01*
X018916Y012189D01*
X018961Y012177D01*
X019005Y012161D01*
X019048Y012142D01*
X019089Y012119D01*
X019128Y012093D01*
X019164Y012064D01*
X019198Y012031D01*
X019229Y011996D01*
X019257Y011959D01*
X019281Y011919D01*
X019302Y011877D01*
X019320Y011834D01*
X019333Y011789D01*
X019343Y011743D01*
X019349Y011697D01*
X019351Y011650D01*
X019349Y011603D01*
X019343Y011557D01*
X019333Y011511D01*
X019320Y011466D01*
X019302Y011423D01*
X019281Y011381D01*
X019257Y011341D01*
X019229Y011304D01*
X019198Y011269D01*
X019164Y011236D01*
X019128Y011207D01*
X019089Y011181D01*
X019048Y011158D01*
X019005Y011139D01*
X018961Y011123D01*
X018916Y011111D01*
X018870Y011103D01*
X018823Y011099D01*
X018777Y011099D01*
X018730Y011103D01*
X018684Y011111D01*
X018639Y011123D01*
X018595Y011139D01*
X018552Y011158D01*
X018511Y011181D01*
X018472Y011207D01*
X018436Y011236D01*
X018402Y011269D01*
X018371Y011304D01*
X018343Y011341D01*
X018319Y011381D01*
X018298Y011423D01*
X018280Y011466D01*
X018267Y011511D01*
X018257Y011557D01*
X018251Y011603D01*
X018249Y011650D01*
X018353Y018544D02*
X018355Y018592D01*
X018361Y018640D01*
X018371Y018687D01*
X018384Y018733D01*
X018402Y018778D01*
X018422Y018822D01*
X018447Y018864D01*
X018475Y018903D01*
X018505Y018940D01*
X018539Y018974D01*
X018576Y019006D01*
X018614Y019035D01*
X018655Y019060D01*
X018698Y019082D01*
X018743Y019100D01*
X018789Y019114D01*
X018836Y019125D01*
X018884Y019132D01*
X018932Y019135D01*
X018980Y019134D01*
X019028Y019129D01*
X019076Y019120D01*
X019122Y019108D01*
X019167Y019091D01*
X019211Y019071D01*
X019253Y019048D01*
X019293Y019021D01*
X019331Y018991D01*
X019366Y018958D01*
X019398Y018922D01*
X019428Y018884D01*
X019454Y018843D01*
X019476Y018800D01*
X019496Y018756D01*
X019511Y018711D01*
X019523Y018664D01*
X019531Y018616D01*
X019535Y018568D01*
X019535Y018520D01*
X019531Y018472D01*
X019523Y018424D01*
X019511Y018377D01*
X019496Y018332D01*
X019476Y018288D01*
X019454Y018245D01*
X019428Y018204D01*
X019398Y018166D01*
X019366Y018130D01*
X019331Y018097D01*
X019293Y018067D01*
X019253Y018040D01*
X019211Y018017D01*
X019167Y017997D01*
X019122Y017980D01*
X019076Y017968D01*
X019028Y017959D01*
X018980Y017954D01*
X018932Y017953D01*
X018884Y017956D01*
X018836Y017963D01*
X018789Y017974D01*
X018743Y017988D01*
X018698Y018006D01*
X018655Y018028D01*
X018614Y018053D01*
X018576Y018082D01*
X018539Y018114D01*
X018505Y018148D01*
X018475Y018185D01*
X018447Y018224D01*
X018422Y018266D01*
X018402Y018310D01*
X018384Y018355D01*
X018371Y018401D01*
X018361Y018448D01*
X018355Y018496D01*
X018353Y018544D01*
X008700Y017900D02*
X008702Y017937D01*
X008708Y017974D01*
X008718Y018010D01*
X008731Y018045D01*
X008748Y018078D01*
X008769Y018109D01*
X008793Y018137D01*
X008820Y018163D01*
X008849Y018186D01*
X008880Y018206D01*
X008914Y018222D01*
X008949Y018235D01*
X008985Y018244D01*
X009022Y018249D01*
X009059Y018250D01*
X009096Y018247D01*
X009133Y018240D01*
X009169Y018229D01*
X009203Y018215D01*
X009236Y018197D01*
X009266Y018175D01*
X009294Y018151D01*
X009319Y018123D01*
X009342Y018093D01*
X009361Y018061D01*
X009376Y018027D01*
X009388Y017992D01*
X009396Y017956D01*
X009400Y017919D01*
X009400Y017881D01*
X009396Y017844D01*
X009388Y017808D01*
X009376Y017773D01*
X009361Y017739D01*
X009342Y017707D01*
X009319Y017677D01*
X009294Y017649D01*
X009266Y017625D01*
X009236Y017603D01*
X009203Y017585D01*
X009169Y017571D01*
X009133Y017560D01*
X009096Y017553D01*
X009059Y017550D01*
X009022Y017551D01*
X008985Y017556D01*
X008949Y017565D01*
X008914Y017578D01*
X008880Y017594D01*
X008849Y017614D01*
X008820Y017637D01*
X008793Y017663D01*
X008769Y017691D01*
X008748Y017722D01*
X008731Y017755D01*
X008718Y017790D01*
X008708Y017826D01*
X008702Y017863D01*
X008700Y017900D01*
X002700Y017900D02*
X002702Y017937D01*
X002708Y017974D01*
X002718Y018010D01*
X002731Y018045D01*
X002748Y018078D01*
X002769Y018109D01*
X002793Y018137D01*
X002820Y018163D01*
X002849Y018186D01*
X002880Y018206D01*
X002914Y018222D01*
X002949Y018235D01*
X002985Y018244D01*
X003022Y018249D01*
X003059Y018250D01*
X003096Y018247D01*
X003133Y018240D01*
X003169Y018229D01*
X003203Y018215D01*
X003236Y018197D01*
X003266Y018175D01*
X003294Y018151D01*
X003319Y018123D01*
X003342Y018093D01*
X003361Y018061D01*
X003376Y018027D01*
X003388Y017992D01*
X003396Y017956D01*
X003400Y017919D01*
X003400Y017881D01*
X003396Y017844D01*
X003388Y017808D01*
X003376Y017773D01*
X003361Y017739D01*
X003342Y017707D01*
X003319Y017677D01*
X003294Y017649D01*
X003266Y017625D01*
X003236Y017603D01*
X003203Y017585D01*
X003169Y017571D01*
X003133Y017560D01*
X003096Y017553D01*
X003059Y017550D01*
X003022Y017551D01*
X002985Y017556D01*
X002949Y017565D01*
X002914Y017578D01*
X002880Y017594D01*
X002849Y017614D01*
X002820Y017637D01*
X002793Y017663D01*
X002769Y017691D01*
X002748Y017722D01*
X002731Y017755D01*
X002718Y017790D01*
X002708Y017826D01*
X002702Y017863D01*
X002700Y017900D01*
X000643Y020900D02*
X000645Y020947D01*
X000651Y020993D01*
X000661Y021039D01*
X000674Y021084D01*
X000692Y021127D01*
X000713Y021169D01*
X000737Y021209D01*
X000765Y021246D01*
X000796Y021281D01*
X000830Y021314D01*
X000866Y021343D01*
X000905Y021369D01*
X000946Y021392D01*
X000989Y021411D01*
X001033Y021427D01*
X001078Y021439D01*
X001124Y021447D01*
X001171Y021451D01*
X001217Y021451D01*
X001264Y021447D01*
X001310Y021439D01*
X001355Y021427D01*
X001399Y021411D01*
X001442Y021392D01*
X001483Y021369D01*
X001522Y021343D01*
X001558Y021314D01*
X001592Y021281D01*
X001623Y021246D01*
X001651Y021209D01*
X001675Y021169D01*
X001696Y021127D01*
X001714Y021084D01*
X001727Y021039D01*
X001737Y020993D01*
X001743Y020947D01*
X001745Y020900D01*
X001743Y020853D01*
X001737Y020807D01*
X001727Y020761D01*
X001714Y020716D01*
X001696Y020673D01*
X001675Y020631D01*
X001651Y020591D01*
X001623Y020554D01*
X001592Y020519D01*
X001558Y020486D01*
X001522Y020457D01*
X001483Y020431D01*
X001442Y020408D01*
X001399Y020389D01*
X001355Y020373D01*
X001310Y020361D01*
X001264Y020353D01*
X001217Y020349D01*
X001171Y020349D01*
X001124Y020353D01*
X001078Y020361D01*
X001033Y020373D01*
X000989Y020389D01*
X000946Y020408D01*
X000905Y020431D01*
X000866Y020457D01*
X000830Y020486D01*
X000796Y020519D01*
X000765Y020554D01*
X000737Y020591D01*
X000713Y020631D01*
X000692Y020673D01*
X000674Y020716D01*
X000661Y020761D01*
X000651Y020807D01*
X000645Y020853D01*
X000643Y020900D01*
D11*
X002770Y019280D02*
X002770Y018820D01*
X003077Y018820D02*
X003077Y019280D01*
X003307Y019127D02*
X003461Y019127D01*
X003537Y019050D01*
X003537Y018820D01*
X003307Y018820D01*
X003230Y018897D01*
X003307Y018973D01*
X003537Y018973D01*
X003691Y018820D02*
X003691Y019127D01*
X003768Y019127D01*
X003844Y019050D01*
X003921Y019127D01*
X003998Y019050D01*
X003998Y018820D01*
X003844Y018820D02*
X003844Y019050D01*
X004151Y019050D02*
X004151Y018897D01*
X004228Y018820D01*
X004381Y018820D01*
X004365Y018778D02*
X004518Y018778D01*
X004595Y018701D01*
X004595Y018471D01*
X004749Y018471D02*
X004288Y018471D01*
X004288Y018701D01*
X004365Y018778D01*
X004288Y018932D02*
X004518Y018932D01*
X004442Y019085D01*
X004442Y019162D01*
X004518Y019239D01*
X004672Y019239D01*
X004749Y019162D01*
X004749Y019008D01*
X004672Y018932D01*
X004749Y018778D02*
X004595Y018625D01*
X004458Y018973D02*
X004151Y018973D01*
X004151Y019050D02*
X004228Y019127D01*
X004381Y019127D01*
X004458Y019050D01*
X004458Y018973D01*
X004288Y018932D02*
X004288Y019239D01*
X003077Y018820D02*
X002770Y019280D01*
X006820Y022170D02*
X007060Y022530D01*
X007188Y022470D02*
X007248Y022530D01*
X007368Y022530D01*
X007429Y022470D01*
X007429Y022410D01*
X007368Y022350D01*
X007429Y022290D01*
X007429Y022230D01*
X007368Y022170D01*
X007248Y022170D01*
X007188Y022230D01*
X007060Y022170D02*
X006820Y022530D01*
X007308Y022350D02*
X007368Y022350D01*
X009820Y022170D02*
X010060Y022530D01*
X010188Y022470D02*
X010248Y022530D01*
X010368Y022530D01*
X010429Y022470D01*
X010429Y022410D01*
X010188Y022170D01*
X010429Y022170D01*
X010060Y022170D02*
X009820Y022530D01*
X012820Y022530D02*
X013060Y022170D01*
X013188Y022170D02*
X013429Y022170D01*
X013308Y022170D02*
X013308Y022530D01*
X013188Y022410D01*
X013060Y022530D02*
X012820Y022170D01*
X015820Y022170D02*
X016060Y022530D01*
X016188Y022530D02*
X016188Y022350D01*
X016308Y022410D01*
X016368Y022410D01*
X016429Y022350D01*
X016429Y022230D01*
X016368Y022170D01*
X016248Y022170D01*
X016188Y022230D01*
X016060Y022170D02*
X015820Y022530D01*
X016188Y022530D02*
X016429Y022530D01*
X019750Y007792D02*
X019750Y007552D01*
X019570Y007732D01*
X019930Y007732D01*
X019930Y007424D02*
X019570Y007183D01*
X019570Y007424D02*
X019930Y007183D01*
X015694Y004630D02*
X015694Y004170D01*
X015770Y004400D02*
X015464Y004400D01*
X015694Y004630D01*
X015310Y004554D02*
X015310Y004247D01*
X015233Y004170D01*
X015080Y004170D01*
X015003Y004247D01*
X015080Y004400D02*
X015310Y004400D01*
X015310Y004554D02*
X015233Y004630D01*
X015080Y004630D01*
X015003Y004554D01*
X015003Y004477D01*
X015080Y004400D01*
X014850Y004554D02*
X014850Y004630D01*
X014543Y004630D01*
X014389Y004554D02*
X014389Y004477D01*
X014313Y004400D01*
X014159Y004400D01*
X014082Y004477D01*
X014082Y004554D01*
X014159Y004630D01*
X014313Y004630D01*
X014389Y004554D01*
X014313Y004400D02*
X014389Y004323D01*
X014389Y004247D01*
X014313Y004170D01*
X014159Y004170D01*
X014082Y004247D01*
X014082Y004323D01*
X014159Y004400D01*
X013929Y004323D02*
X013929Y004247D01*
X013852Y004170D01*
X013699Y004170D01*
X013622Y004247D01*
X013468Y004247D02*
X013468Y004554D01*
X013162Y004247D01*
X013238Y004170D01*
X013392Y004170D01*
X013468Y004247D01*
X013162Y004247D02*
X013162Y004554D01*
X013238Y004630D01*
X013392Y004630D01*
X013468Y004554D01*
X013622Y004554D02*
X013699Y004630D01*
X013852Y004630D01*
X013929Y004554D01*
X013929Y004477D01*
X013852Y004400D01*
X013929Y004323D01*
X013852Y004400D02*
X013775Y004400D01*
X013468Y004920D02*
X013315Y005073D01*
X013392Y005073D02*
X013162Y005073D01*
X013162Y004920D02*
X013162Y005380D01*
X013392Y005380D01*
X013468Y005304D01*
X013468Y005150D01*
X013392Y005073D01*
X013008Y004920D02*
X012701Y004920D01*
X012701Y005380D01*
X013008Y005380D01*
X012855Y005150D02*
X012701Y005150D01*
X012548Y004997D02*
X012548Y005304D01*
X012471Y005380D01*
X012241Y005380D01*
X012241Y004920D01*
X012471Y004920D01*
X012548Y004997D01*
X012471Y004630D02*
X012318Y004630D01*
X012241Y004554D01*
X012241Y004247D01*
X012548Y004554D01*
X012548Y004247D01*
X012471Y004170D01*
X012318Y004170D01*
X012241Y004247D01*
X012087Y004170D02*
X011780Y004170D01*
X011934Y004170D02*
X011934Y004630D01*
X011780Y004477D01*
X011627Y004477D02*
X011550Y004477D01*
X011320Y004477D01*
X011320Y004323D02*
X011627Y004323D01*
X011550Y004170D02*
X011550Y004630D01*
X011397Y004630D02*
X011397Y004170D01*
X011397Y004920D02*
X011550Y004920D01*
X011627Y004997D01*
X011627Y005304D01*
X011550Y005380D01*
X011397Y005380D01*
X011320Y005304D01*
X011320Y004997D01*
X011397Y004920D01*
X011780Y004920D02*
X011780Y005380D01*
X012011Y005380D01*
X012087Y005304D01*
X012087Y005150D01*
X012011Y005073D01*
X011780Y005073D01*
X011934Y005073D02*
X012087Y004920D01*
X012471Y004630D02*
X012548Y004554D01*
X012701Y004554D02*
X012701Y004247D01*
X013008Y004554D01*
X013008Y004247D01*
X012931Y004170D01*
X012778Y004170D01*
X012701Y004247D01*
X012701Y004554D02*
X012778Y004630D01*
X012931Y004630D01*
X013008Y004554D01*
X014543Y004247D02*
X014543Y004170D01*
X014543Y004247D02*
X014850Y004554D01*
X004565Y000550D02*
X004565Y000473D01*
X004258Y000473D01*
X004258Y000397D02*
X004258Y000550D01*
X004335Y000627D01*
X004488Y000627D01*
X004565Y000550D01*
X004488Y000320D02*
X004335Y000320D01*
X004258Y000397D01*
X004105Y000320D02*
X004105Y000627D01*
X004105Y000320D02*
X003874Y000320D01*
X003798Y000397D01*
X003798Y000627D01*
X003568Y000780D02*
X003568Y000320D01*
X003644Y000320D02*
X003491Y000320D01*
X003337Y000320D02*
X003337Y000550D01*
X003261Y000627D01*
X003107Y000627D01*
X003107Y000473D02*
X003337Y000473D01*
X003337Y000320D02*
X003107Y000320D01*
X003030Y000397D01*
X003107Y000473D01*
X002877Y000473D02*
X002877Y000780D01*
X002877Y000473D02*
X002723Y000320D01*
X002570Y000473D01*
X002570Y000780D01*
X003491Y000780D02*
X003568Y000780D01*
D12*
X004450Y003900D02*
X005150Y003900D01*
X005167Y003902D01*
X005184Y003906D01*
X005200Y003913D01*
X005214Y003923D01*
X005227Y003936D01*
X005237Y003950D01*
X005244Y003966D01*
X005248Y003983D01*
X005250Y004000D01*
X005250Y004150D01*
X005200Y004200D01*
X005200Y006100D01*
X005250Y006150D01*
X005250Y006300D01*
X005248Y006317D01*
X005244Y006334D01*
X005237Y006350D01*
X005227Y006364D01*
X005214Y006377D01*
X005200Y006387D01*
X005184Y006394D01*
X005167Y006398D01*
X005150Y006400D01*
X004450Y006400D01*
X004433Y006398D01*
X004416Y006394D01*
X004400Y006387D01*
X004386Y006377D01*
X004373Y006364D01*
X004363Y006350D01*
X004356Y006334D01*
X004352Y006317D01*
X004350Y006300D01*
X004350Y006150D01*
X004400Y006100D01*
X004400Y004200D01*
X004350Y004150D01*
X004350Y004000D01*
X004352Y003983D01*
X004356Y003966D01*
X004363Y003950D01*
X004373Y003936D01*
X004386Y003923D01*
X004400Y003913D01*
X004416Y003906D01*
X004433Y003902D01*
X004450Y003900D01*
X005350Y004000D02*
X005350Y004150D01*
X005400Y004200D01*
X005400Y006100D01*
X005350Y006150D01*
X005350Y006300D01*
X005352Y006317D01*
X005356Y006334D01*
X005363Y006350D01*
X005373Y006364D01*
X005386Y006377D01*
X005400Y006387D01*
X005416Y006394D01*
X005433Y006398D01*
X005450Y006400D01*
X006150Y006400D01*
X006167Y006398D01*
X006184Y006394D01*
X006200Y006387D01*
X006214Y006377D01*
X006227Y006364D01*
X006237Y006350D01*
X006244Y006334D01*
X006248Y006317D01*
X006250Y006300D01*
X006250Y006150D01*
X006200Y006100D01*
X006200Y004200D01*
X006250Y004150D01*
X006250Y004000D01*
X006350Y004000D02*
X006350Y004150D01*
X006400Y004200D01*
X006400Y006100D01*
X006350Y006150D01*
X006350Y006300D01*
X006352Y006317D01*
X006356Y006334D01*
X006363Y006350D01*
X006373Y006364D01*
X006386Y006377D01*
X006400Y006387D01*
X006416Y006394D01*
X006433Y006398D01*
X006450Y006400D01*
X007150Y006400D01*
X007167Y006398D01*
X007184Y006394D01*
X007200Y006387D01*
X007214Y006377D01*
X007227Y006364D01*
X007237Y006350D01*
X007244Y006334D01*
X007248Y006317D01*
X007250Y006300D01*
X007250Y006150D01*
X007200Y006100D01*
X007200Y004200D01*
X007250Y004150D01*
X007250Y004000D01*
X007248Y003983D01*
X007244Y003966D01*
X007237Y003950D01*
X007227Y003936D01*
X007214Y003923D01*
X007200Y003913D01*
X007184Y003906D01*
X007167Y003902D01*
X007150Y003900D01*
X006450Y003900D01*
X006433Y003902D01*
X006416Y003906D01*
X006400Y003913D01*
X006386Y003923D01*
X006373Y003936D01*
X006363Y003950D01*
X006356Y003966D01*
X006352Y003983D01*
X006350Y004000D01*
X006250Y004000D02*
X006248Y003983D01*
X006244Y003966D01*
X006237Y003950D01*
X006227Y003936D01*
X006214Y003923D01*
X006200Y003913D01*
X006184Y003906D01*
X006167Y003902D01*
X006150Y003900D01*
X005450Y003900D01*
X005433Y003902D01*
X005416Y003906D01*
X005400Y003913D01*
X005386Y003923D01*
X005373Y003936D01*
X005363Y003950D01*
X005356Y003966D01*
X005352Y003983D01*
X005350Y004000D01*
X007350Y004000D02*
X007350Y004150D01*
X007400Y004200D01*
X007400Y006100D01*
X007350Y006150D01*
X007350Y006300D01*
X007352Y006317D01*
X007356Y006334D01*
X007363Y006350D01*
X007373Y006364D01*
X007386Y006377D01*
X007400Y006387D01*
X007416Y006394D01*
X007433Y006398D01*
X007450Y006400D01*
X008150Y006400D01*
X008167Y006398D01*
X008184Y006394D01*
X008200Y006387D01*
X008214Y006377D01*
X008227Y006364D01*
X008237Y006350D01*
X008244Y006334D01*
X008248Y006317D01*
X008250Y006300D01*
X008250Y006150D01*
X008200Y006100D01*
X008200Y004200D01*
X008250Y004150D01*
X008250Y004000D01*
X008248Y003983D01*
X008244Y003966D01*
X008237Y003950D01*
X008227Y003936D01*
X008214Y003923D01*
X008200Y003913D01*
X008184Y003906D01*
X008167Y003902D01*
X008150Y003900D01*
X007450Y003900D01*
X007433Y003902D01*
X007416Y003906D01*
X007400Y003913D01*
X007386Y003923D01*
X007373Y003936D01*
X007363Y003950D01*
X007356Y003966D01*
X007352Y003983D01*
X007350Y004000D01*
X010300Y006150D02*
X010300Y006650D01*
X010550Y006900D01*
X012050Y006900D01*
X012300Y007150D01*
X012300Y007650D01*
X012050Y007900D01*
X010550Y007900D01*
X010300Y008150D01*
X010300Y008650D01*
X010550Y008900D01*
X012050Y008900D01*
X012300Y009150D01*
X012300Y009650D01*
X012050Y009900D01*
X012300Y010150D01*
X012300Y010650D01*
X012050Y010900D01*
X010550Y010900D01*
X010300Y010650D01*
X010300Y010150D01*
X010550Y009900D01*
X012050Y009900D01*
X012050Y008900D02*
X012300Y008650D01*
X012300Y008150D01*
X012050Y007900D01*
X012050Y006900D02*
X012300Y006650D01*
X012300Y006150D01*
X012050Y005900D01*
X010550Y005900D01*
X010300Y006150D01*
X010550Y006900D02*
X010300Y007150D01*
X010300Y007650D01*
X010550Y007900D01*
X010550Y008900D02*
X010300Y009150D01*
X010300Y009650D01*
X010550Y009900D01*
X010450Y012400D02*
X011150Y012400D01*
X011167Y012402D01*
X011184Y012406D01*
X011200Y012413D01*
X011214Y012423D01*
X011227Y012436D01*
X011237Y012450D01*
X011244Y012466D01*
X011248Y012483D01*
X011250Y012500D01*
X011250Y012650D01*
X011200Y012700D01*
X011200Y014600D01*
X011250Y014650D01*
X011250Y014800D01*
X011248Y014817D01*
X011244Y014834D01*
X011237Y014850D01*
X011227Y014864D01*
X011214Y014877D01*
X011200Y014887D01*
X011184Y014894D01*
X011167Y014898D01*
X011150Y014900D01*
X010450Y014900D01*
X010433Y014898D01*
X010416Y014894D01*
X010400Y014887D01*
X010386Y014877D01*
X010373Y014864D01*
X010363Y014850D01*
X010356Y014834D01*
X010352Y014817D01*
X010350Y014800D01*
X010350Y014650D01*
X010400Y014600D01*
X010400Y012700D01*
X010350Y012650D01*
X010350Y012500D01*
X010352Y012483D01*
X010356Y012466D01*
X010363Y012450D01*
X010373Y012436D01*
X010386Y012423D01*
X010400Y012413D01*
X010416Y012406D01*
X010433Y012402D01*
X010450Y012400D01*
X011600Y013550D02*
X011600Y013900D01*
X011600Y014900D01*
X011600Y015250D01*
X012400Y015600D02*
X012500Y015600D01*
X012500Y015700D01*
X013100Y015700D01*
X013100Y015600D01*
X013200Y015600D01*
X014000Y015250D02*
X014000Y014850D01*
X014000Y013900D01*
X014000Y013550D01*
X014350Y013550D02*
X014350Y013950D01*
X014350Y014900D01*
X014350Y015250D01*
X015150Y015600D02*
X015250Y015600D01*
X015250Y015700D01*
X015850Y015700D01*
X015850Y015600D01*
X015950Y015600D01*
X016750Y015250D02*
X016750Y014900D01*
X016750Y013900D01*
X016750Y013550D01*
X017100Y013550D02*
X017100Y013900D01*
X017100Y014900D01*
X017100Y015250D01*
X017900Y015600D02*
X018000Y015600D01*
X018000Y015700D01*
X018600Y015700D01*
X018600Y015600D01*
X018700Y015600D01*
X019500Y015250D02*
X019500Y014850D01*
X019500Y013900D01*
X019500Y013550D01*
X018700Y013200D02*
X018600Y013200D01*
X018600Y013100D01*
X018000Y013100D01*
X018000Y013200D01*
X017900Y013200D01*
X018200Y014400D02*
X018202Y014420D01*
X018208Y014438D01*
X018217Y014456D01*
X018229Y014471D01*
X018244Y014483D01*
X018262Y014492D01*
X018280Y014498D01*
X018300Y014500D01*
X018320Y014498D01*
X018338Y014492D01*
X018356Y014483D01*
X018371Y014471D01*
X018383Y014456D01*
X018392Y014438D01*
X018398Y014420D01*
X018400Y014400D01*
X018398Y014380D01*
X018392Y014362D01*
X018383Y014344D01*
X018371Y014329D01*
X018356Y014317D01*
X018338Y014308D01*
X018320Y014302D01*
X018300Y014300D01*
X018280Y014302D01*
X018262Y014308D01*
X018244Y014317D01*
X018229Y014329D01*
X018217Y014344D01*
X018208Y014362D01*
X018202Y014380D01*
X018200Y014400D01*
X017600Y014400D02*
X017602Y014452D01*
X017608Y014504D01*
X017618Y014556D01*
X017631Y014606D01*
X017648Y014656D01*
X017669Y014704D01*
X017694Y014750D01*
X017722Y014794D01*
X017753Y014836D01*
X017787Y014876D01*
X017824Y014913D01*
X017864Y014947D01*
X017906Y014978D01*
X017950Y015006D01*
X017996Y015031D01*
X018044Y015052D01*
X018094Y015069D01*
X018144Y015082D01*
X018196Y015092D01*
X018248Y015098D01*
X018300Y015100D01*
X018352Y015098D01*
X018404Y015092D01*
X018456Y015082D01*
X018506Y015069D01*
X018556Y015052D01*
X018604Y015031D01*
X018650Y015006D01*
X018694Y014978D01*
X018736Y014947D01*
X018776Y014913D01*
X018813Y014876D01*
X018847Y014836D01*
X018878Y014794D01*
X018906Y014750D01*
X018931Y014704D01*
X018952Y014656D01*
X018969Y014606D01*
X018982Y014556D01*
X018992Y014504D01*
X018998Y014452D01*
X019000Y014400D01*
X018998Y014348D01*
X018992Y014296D01*
X018982Y014244D01*
X018969Y014194D01*
X018952Y014144D01*
X018931Y014096D01*
X018906Y014050D01*
X018878Y014006D01*
X018847Y013964D01*
X018813Y013924D01*
X018776Y013887D01*
X018736Y013853D01*
X018694Y013822D01*
X018650Y013794D01*
X018604Y013769D01*
X018556Y013748D01*
X018506Y013731D01*
X018456Y013718D01*
X018404Y013708D01*
X018352Y013702D01*
X018300Y013700D01*
X018248Y013702D01*
X018196Y013708D01*
X018144Y013718D01*
X018094Y013731D01*
X018044Y013748D01*
X017996Y013769D01*
X017950Y013794D01*
X017906Y013822D01*
X017864Y013853D01*
X017824Y013887D01*
X017787Y013924D01*
X017753Y013964D01*
X017722Y014006D01*
X017694Y014050D01*
X017669Y014096D01*
X017648Y014144D01*
X017631Y014194D01*
X017618Y014244D01*
X017608Y014296D01*
X017602Y014348D01*
X017600Y014400D01*
X015950Y013200D02*
X015850Y013200D01*
X015850Y013100D01*
X015250Y013100D01*
X015250Y013200D01*
X015150Y013200D01*
X015350Y012350D02*
X014950Y012350D01*
X015350Y012350D02*
X016300Y012350D01*
X016650Y012350D01*
X017000Y011550D02*
X017000Y011450D01*
X017100Y011450D01*
X017100Y010850D01*
X017000Y010850D01*
X017000Y010750D01*
X016650Y009950D02*
X016300Y009950D01*
X015300Y009950D01*
X014950Y009950D01*
X014350Y009800D02*
X016250Y009800D01*
X016300Y009850D01*
X016450Y009850D01*
X016467Y009848D01*
X016484Y009844D01*
X016500Y009837D01*
X016514Y009827D01*
X016527Y009814D01*
X016537Y009800D01*
X016544Y009784D01*
X016548Y009767D01*
X016550Y009750D01*
X016550Y009050D01*
X016550Y009000D02*
X016550Y008300D01*
X016550Y008250D02*
X016550Y007550D01*
X016550Y007500D02*
X016550Y006800D01*
X016548Y006783D01*
X016544Y006766D01*
X016537Y006750D01*
X016527Y006736D01*
X016514Y006723D01*
X016500Y006713D01*
X016484Y006706D01*
X016467Y006702D01*
X016450Y006700D01*
X016300Y006700D01*
X016250Y006750D01*
X014350Y006750D01*
X014300Y006700D01*
X014150Y006700D01*
X014133Y006702D01*
X014116Y006706D01*
X014100Y006713D01*
X014086Y006723D01*
X014073Y006736D01*
X014063Y006750D01*
X014056Y006766D01*
X014052Y006783D01*
X014050Y006800D01*
X014050Y007500D01*
X014050Y007550D02*
X014050Y008250D01*
X014050Y008300D02*
X014050Y009000D01*
X014050Y009050D02*
X014050Y009750D01*
X014052Y009767D01*
X014056Y009784D01*
X014063Y009800D01*
X014073Y009814D01*
X014086Y009827D01*
X014100Y009837D01*
X014116Y009844D01*
X014133Y009848D01*
X014150Y009850D01*
X014300Y009850D01*
X014350Y009800D01*
X014300Y009100D02*
X014150Y009100D01*
X014050Y009050D02*
X014052Y009033D01*
X014056Y009016D01*
X014063Y009000D01*
X014073Y008986D01*
X014086Y008973D01*
X014100Y008963D01*
X014116Y008956D01*
X014133Y008952D01*
X014150Y008950D01*
X014300Y008950D01*
X014350Y009000D01*
X016250Y009000D01*
X016300Y008950D01*
X016450Y008950D01*
X016550Y009000D02*
X016548Y009017D01*
X016544Y009034D01*
X016537Y009050D01*
X016527Y009064D01*
X016514Y009077D01*
X016500Y009087D01*
X016484Y009094D01*
X016467Y009098D01*
X016450Y009100D01*
X016300Y009100D01*
X016250Y009050D01*
X014350Y009050D01*
X014300Y009100D01*
X014150Y009100D02*
X014133Y009098D01*
X014116Y009094D01*
X014100Y009087D01*
X014086Y009077D01*
X014073Y009064D01*
X014063Y009050D01*
X014056Y009034D01*
X014052Y009017D01*
X014050Y009000D01*
X014150Y008350D02*
X014300Y008350D01*
X014350Y008300D01*
X016250Y008300D01*
X016300Y008350D01*
X016450Y008350D01*
X016550Y008300D02*
X016548Y008283D01*
X016544Y008266D01*
X016537Y008250D01*
X016527Y008236D01*
X016514Y008223D01*
X016500Y008213D01*
X016484Y008206D01*
X016467Y008202D01*
X016450Y008200D01*
X016300Y008200D01*
X016250Y008250D01*
X014350Y008250D01*
X014300Y008200D01*
X014150Y008200D01*
X014050Y008250D02*
X014052Y008267D01*
X014056Y008284D01*
X014063Y008300D01*
X014073Y008314D01*
X014086Y008327D01*
X014100Y008337D01*
X014116Y008344D01*
X014133Y008348D01*
X014150Y008350D01*
X014050Y008300D02*
X014052Y008283D01*
X014056Y008266D01*
X014063Y008250D01*
X014073Y008236D01*
X014086Y008223D01*
X014100Y008213D01*
X014116Y008206D01*
X014133Y008202D01*
X014150Y008200D01*
X014150Y007600D02*
X014300Y007600D01*
X014350Y007550D01*
X016250Y007550D01*
X016300Y007600D01*
X016450Y007600D01*
X016550Y007550D02*
X016548Y007533D01*
X016544Y007516D01*
X016537Y007500D01*
X016527Y007486D01*
X016514Y007473D01*
X016500Y007463D01*
X016484Y007456D01*
X016467Y007452D01*
X016450Y007450D01*
X016300Y007450D01*
X016250Y007500D01*
X014350Y007500D01*
X014300Y007450D01*
X014150Y007450D01*
X014050Y007500D02*
X014052Y007517D01*
X014056Y007534D01*
X014063Y007550D01*
X014073Y007564D01*
X014086Y007577D01*
X014100Y007587D01*
X014116Y007594D01*
X014133Y007598D01*
X014150Y007600D01*
X014050Y007550D02*
X014052Y007533D01*
X014056Y007516D01*
X014063Y007500D01*
X014073Y007486D01*
X014086Y007473D01*
X014100Y007463D01*
X014116Y007456D01*
X014133Y007452D01*
X014150Y007450D01*
X016450Y007600D02*
X016467Y007598D01*
X016484Y007594D01*
X016500Y007587D01*
X016514Y007577D01*
X016527Y007564D01*
X016537Y007550D01*
X016544Y007534D01*
X016548Y007517D01*
X016550Y007500D01*
X016550Y008250D02*
X016548Y008267D01*
X016544Y008284D01*
X016537Y008300D01*
X016527Y008314D01*
X016514Y008327D01*
X016500Y008337D01*
X016484Y008344D01*
X016467Y008348D01*
X016450Y008350D01*
X016450Y008950D02*
X016467Y008952D01*
X016484Y008956D01*
X016500Y008963D01*
X016514Y008973D01*
X016527Y008986D01*
X016537Y009000D01*
X016544Y009016D01*
X016548Y009033D01*
X016550Y009050D01*
X015700Y011150D02*
X015702Y011170D01*
X015708Y011188D01*
X015717Y011206D01*
X015729Y011221D01*
X015744Y011233D01*
X015762Y011242D01*
X015780Y011248D01*
X015800Y011250D01*
X015820Y011248D01*
X015838Y011242D01*
X015856Y011233D01*
X015871Y011221D01*
X015883Y011206D01*
X015892Y011188D01*
X015898Y011170D01*
X015900Y011150D01*
X015898Y011130D01*
X015892Y011112D01*
X015883Y011094D01*
X015871Y011079D01*
X015856Y011067D01*
X015838Y011058D01*
X015820Y011052D01*
X015800Y011050D01*
X015780Y011052D01*
X015762Y011058D01*
X015744Y011067D01*
X015729Y011079D01*
X015717Y011094D01*
X015708Y011112D01*
X015702Y011130D01*
X015700Y011150D01*
X015100Y011150D02*
X015102Y011202D01*
X015108Y011254D01*
X015118Y011306D01*
X015131Y011356D01*
X015148Y011406D01*
X015169Y011454D01*
X015194Y011500D01*
X015222Y011544D01*
X015253Y011586D01*
X015287Y011626D01*
X015324Y011663D01*
X015364Y011697D01*
X015406Y011728D01*
X015450Y011756D01*
X015496Y011781D01*
X015544Y011802D01*
X015594Y011819D01*
X015644Y011832D01*
X015696Y011842D01*
X015748Y011848D01*
X015800Y011850D01*
X015852Y011848D01*
X015904Y011842D01*
X015956Y011832D01*
X016006Y011819D01*
X016056Y011802D01*
X016104Y011781D01*
X016150Y011756D01*
X016194Y011728D01*
X016236Y011697D01*
X016276Y011663D01*
X016313Y011626D01*
X016347Y011586D01*
X016378Y011544D01*
X016406Y011500D01*
X016431Y011454D01*
X016452Y011406D01*
X016469Y011356D01*
X016482Y011306D01*
X016492Y011254D01*
X016498Y011202D01*
X016500Y011150D01*
X016498Y011098D01*
X016492Y011046D01*
X016482Y010994D01*
X016469Y010944D01*
X016452Y010894D01*
X016431Y010846D01*
X016406Y010800D01*
X016378Y010756D01*
X016347Y010714D01*
X016313Y010674D01*
X016276Y010637D01*
X016236Y010603D01*
X016194Y010572D01*
X016150Y010544D01*
X016104Y010519D01*
X016056Y010498D01*
X016006Y010481D01*
X015956Y010468D01*
X015904Y010458D01*
X015852Y010452D01*
X015800Y010450D01*
X015748Y010452D01*
X015696Y010458D01*
X015644Y010468D01*
X015594Y010481D01*
X015544Y010498D01*
X015496Y010519D01*
X015450Y010544D01*
X015406Y010572D01*
X015364Y010603D01*
X015324Y010637D01*
X015287Y010674D01*
X015253Y010714D01*
X015222Y010756D01*
X015194Y010800D01*
X015169Y010846D01*
X015148Y010894D01*
X015131Y010944D01*
X015118Y010994D01*
X015108Y011046D01*
X015102Y011098D01*
X015100Y011150D01*
X014600Y011450D02*
X014600Y011550D01*
X014600Y011450D02*
X014500Y011450D01*
X014500Y010850D01*
X014600Y010850D01*
X014600Y010750D01*
X013100Y013100D02*
X012500Y013100D01*
X012500Y013200D01*
X012400Y013200D01*
X013100Y013200D02*
X013200Y013200D01*
X013100Y013200D02*
X013100Y013100D01*
X012700Y014400D02*
X012702Y014420D01*
X012708Y014438D01*
X012717Y014456D01*
X012729Y014471D01*
X012744Y014483D01*
X012762Y014492D01*
X012780Y014498D01*
X012800Y014500D01*
X012820Y014498D01*
X012838Y014492D01*
X012856Y014483D01*
X012871Y014471D01*
X012883Y014456D01*
X012892Y014438D01*
X012898Y014420D01*
X012900Y014400D01*
X012898Y014380D01*
X012892Y014362D01*
X012883Y014344D01*
X012871Y014329D01*
X012856Y014317D01*
X012838Y014308D01*
X012820Y014302D01*
X012800Y014300D01*
X012780Y014302D01*
X012762Y014308D01*
X012744Y014317D01*
X012729Y014329D01*
X012717Y014344D01*
X012708Y014362D01*
X012702Y014380D01*
X012700Y014400D01*
X012100Y014400D02*
X012102Y014452D01*
X012108Y014504D01*
X012118Y014556D01*
X012131Y014606D01*
X012148Y014656D01*
X012169Y014704D01*
X012194Y014750D01*
X012222Y014794D01*
X012253Y014836D01*
X012287Y014876D01*
X012324Y014913D01*
X012364Y014947D01*
X012406Y014978D01*
X012450Y015006D01*
X012496Y015031D01*
X012544Y015052D01*
X012594Y015069D01*
X012644Y015082D01*
X012696Y015092D01*
X012748Y015098D01*
X012800Y015100D01*
X012852Y015098D01*
X012904Y015092D01*
X012956Y015082D01*
X013006Y015069D01*
X013056Y015052D01*
X013104Y015031D01*
X013150Y015006D01*
X013194Y014978D01*
X013236Y014947D01*
X013276Y014913D01*
X013313Y014876D01*
X013347Y014836D01*
X013378Y014794D01*
X013406Y014750D01*
X013431Y014704D01*
X013452Y014656D01*
X013469Y014606D01*
X013482Y014556D01*
X013492Y014504D01*
X013498Y014452D01*
X013500Y014400D01*
X013498Y014348D01*
X013492Y014296D01*
X013482Y014244D01*
X013469Y014194D01*
X013452Y014144D01*
X013431Y014096D01*
X013406Y014050D01*
X013378Y014006D01*
X013347Y013964D01*
X013313Y013924D01*
X013276Y013887D01*
X013236Y013853D01*
X013194Y013822D01*
X013150Y013794D01*
X013104Y013769D01*
X013056Y013748D01*
X013006Y013731D01*
X012956Y013718D01*
X012904Y013708D01*
X012852Y013702D01*
X012800Y013700D01*
X012748Y013702D01*
X012696Y013708D01*
X012644Y013718D01*
X012594Y013731D01*
X012544Y013748D01*
X012496Y013769D01*
X012450Y013794D01*
X012406Y013822D01*
X012364Y013853D01*
X012324Y013887D01*
X012287Y013924D01*
X012253Y013964D01*
X012222Y014006D01*
X012194Y014050D01*
X012169Y014096D01*
X012148Y014144D01*
X012131Y014194D01*
X012118Y014244D01*
X012108Y014296D01*
X012102Y014348D01*
X012100Y014400D01*
X014600Y017250D02*
X014600Y017350D01*
X014500Y017350D01*
X014500Y017950D01*
X014600Y017950D01*
X014600Y018050D01*
X014950Y018850D02*
X015350Y018850D01*
X016300Y018850D01*
X016650Y018850D01*
X017000Y018050D02*
X017000Y017950D01*
X017100Y017950D01*
X017100Y017350D01*
X017000Y017350D01*
X017000Y017250D01*
X016650Y016450D02*
X016300Y016450D01*
X015300Y016450D01*
X014950Y016450D01*
X015700Y017650D02*
X015702Y017670D01*
X015708Y017688D01*
X015717Y017706D01*
X015729Y017721D01*
X015744Y017733D01*
X015762Y017742D01*
X015780Y017748D01*
X015800Y017750D01*
X015820Y017748D01*
X015838Y017742D01*
X015856Y017733D01*
X015871Y017721D01*
X015883Y017706D01*
X015892Y017688D01*
X015898Y017670D01*
X015900Y017650D01*
X015898Y017630D01*
X015892Y017612D01*
X015883Y017594D01*
X015871Y017579D01*
X015856Y017567D01*
X015838Y017558D01*
X015820Y017552D01*
X015800Y017550D01*
X015780Y017552D01*
X015762Y017558D01*
X015744Y017567D01*
X015729Y017579D01*
X015717Y017594D01*
X015708Y017612D01*
X015702Y017630D01*
X015700Y017650D01*
X015100Y017650D02*
X015102Y017702D01*
X015108Y017754D01*
X015118Y017806D01*
X015131Y017856D01*
X015148Y017906D01*
X015169Y017954D01*
X015194Y018000D01*
X015222Y018044D01*
X015253Y018086D01*
X015287Y018126D01*
X015324Y018163D01*
X015364Y018197D01*
X015406Y018228D01*
X015450Y018256D01*
X015496Y018281D01*
X015544Y018302D01*
X015594Y018319D01*
X015644Y018332D01*
X015696Y018342D01*
X015748Y018348D01*
X015800Y018350D01*
X015852Y018348D01*
X015904Y018342D01*
X015956Y018332D01*
X016006Y018319D01*
X016056Y018302D01*
X016104Y018281D01*
X016150Y018256D01*
X016194Y018228D01*
X016236Y018197D01*
X016276Y018163D01*
X016313Y018126D01*
X016347Y018086D01*
X016378Y018044D01*
X016406Y018000D01*
X016431Y017954D01*
X016452Y017906D01*
X016469Y017856D01*
X016482Y017806D01*
X016492Y017754D01*
X016498Y017702D01*
X016500Y017650D01*
X016498Y017598D01*
X016492Y017546D01*
X016482Y017494D01*
X016469Y017444D01*
X016452Y017394D01*
X016431Y017346D01*
X016406Y017300D01*
X016378Y017256D01*
X016347Y017214D01*
X016313Y017174D01*
X016276Y017137D01*
X016236Y017103D01*
X016194Y017072D01*
X016150Y017044D01*
X016104Y017019D01*
X016056Y016998D01*
X016006Y016981D01*
X015956Y016968D01*
X015904Y016958D01*
X015852Y016952D01*
X015800Y016950D01*
X015748Y016952D01*
X015696Y016958D01*
X015644Y016968D01*
X015594Y016981D01*
X015544Y016998D01*
X015496Y017019D01*
X015450Y017044D01*
X015406Y017072D01*
X015364Y017103D01*
X015324Y017137D01*
X015287Y017174D01*
X015253Y017214D01*
X015222Y017256D01*
X015194Y017300D01*
X015169Y017346D01*
X015148Y017394D01*
X015131Y017444D01*
X015118Y017494D01*
X015108Y017546D01*
X015102Y017598D01*
X015100Y017650D01*
X015450Y014400D02*
X015452Y014420D01*
X015458Y014438D01*
X015467Y014456D01*
X015479Y014471D01*
X015494Y014483D01*
X015512Y014492D01*
X015530Y014498D01*
X015550Y014500D01*
X015570Y014498D01*
X015588Y014492D01*
X015606Y014483D01*
X015621Y014471D01*
X015633Y014456D01*
X015642Y014438D01*
X015648Y014420D01*
X015650Y014400D01*
X015648Y014380D01*
X015642Y014362D01*
X015633Y014344D01*
X015621Y014329D01*
X015606Y014317D01*
X015588Y014308D01*
X015570Y014302D01*
X015550Y014300D01*
X015530Y014302D01*
X015512Y014308D01*
X015494Y014317D01*
X015479Y014329D01*
X015467Y014344D01*
X015458Y014362D01*
X015452Y014380D01*
X015450Y014400D01*
X014850Y014400D02*
X014852Y014452D01*
X014858Y014504D01*
X014868Y014556D01*
X014881Y014606D01*
X014898Y014656D01*
X014919Y014704D01*
X014944Y014750D01*
X014972Y014794D01*
X015003Y014836D01*
X015037Y014876D01*
X015074Y014913D01*
X015114Y014947D01*
X015156Y014978D01*
X015200Y015006D01*
X015246Y015031D01*
X015294Y015052D01*
X015344Y015069D01*
X015394Y015082D01*
X015446Y015092D01*
X015498Y015098D01*
X015550Y015100D01*
X015602Y015098D01*
X015654Y015092D01*
X015706Y015082D01*
X015756Y015069D01*
X015806Y015052D01*
X015854Y015031D01*
X015900Y015006D01*
X015944Y014978D01*
X015986Y014947D01*
X016026Y014913D01*
X016063Y014876D01*
X016097Y014836D01*
X016128Y014794D01*
X016156Y014750D01*
X016181Y014704D01*
X016202Y014656D01*
X016219Y014606D01*
X016232Y014556D01*
X016242Y014504D01*
X016248Y014452D01*
X016250Y014400D01*
X016248Y014348D01*
X016242Y014296D01*
X016232Y014244D01*
X016219Y014194D01*
X016202Y014144D01*
X016181Y014096D01*
X016156Y014050D01*
X016128Y014006D01*
X016097Y013964D01*
X016063Y013924D01*
X016026Y013887D01*
X015986Y013853D01*
X015944Y013822D01*
X015900Y013794D01*
X015854Y013769D01*
X015806Y013748D01*
X015756Y013731D01*
X015706Y013718D01*
X015654Y013708D01*
X015602Y013702D01*
X015550Y013700D01*
X015498Y013702D01*
X015446Y013708D01*
X015394Y013718D01*
X015344Y013731D01*
X015294Y013748D01*
X015246Y013769D01*
X015200Y013794D01*
X015156Y013822D01*
X015114Y013853D01*
X015074Y013887D01*
X015037Y013924D01*
X015003Y013964D01*
X014972Y014006D01*
X014944Y014050D01*
X014919Y014096D01*
X014898Y014144D01*
X014881Y014194D01*
X014868Y014244D01*
X014858Y014296D01*
X014852Y014348D01*
X014850Y014400D01*
X021504Y005621D02*
X021718Y005621D01*
X021611Y005621D02*
X021611Y005087D01*
X021504Y004980D01*
X021398Y004980D01*
X021291Y005087D01*
X021935Y004980D02*
X022362Y004980D01*
X022149Y004980D02*
X022149Y005621D01*
X021935Y005407D01*
X005139Y021699D02*
X005141Y021740D01*
X005147Y021781D01*
X005157Y021821D01*
X005170Y021860D01*
X005187Y021897D01*
X005208Y021933D01*
X005232Y021967D01*
X005259Y021998D01*
X005288Y022026D01*
X005321Y022052D01*
X005355Y022074D01*
X005392Y022093D01*
X005430Y022108D01*
X005470Y022120D01*
X005510Y022128D01*
X005551Y022132D01*
X005593Y022132D01*
X005634Y022128D01*
X005674Y022120D01*
X005714Y022108D01*
X005752Y022093D01*
X005788Y022074D01*
X005823Y022052D01*
X005856Y022026D01*
X005885Y021998D01*
X005912Y021967D01*
X005936Y021933D01*
X005957Y021897D01*
X005974Y021860D01*
X005987Y021821D01*
X005997Y021781D01*
X006003Y021740D01*
X006005Y021699D01*
X006003Y021658D01*
X005997Y021617D01*
X005987Y021577D01*
X005974Y021538D01*
X005957Y021501D01*
X005936Y021465D01*
X005912Y021431D01*
X005885Y021400D01*
X005856Y021372D01*
X005823Y021346D01*
X005789Y021324D01*
X005752Y021305D01*
X005714Y021290D01*
X005674Y021278D01*
X005634Y021270D01*
X005593Y021266D01*
X005551Y021266D01*
X005510Y021270D01*
X005470Y021278D01*
X005430Y021290D01*
X005392Y021305D01*
X005356Y021324D01*
X005321Y021346D01*
X005288Y021372D01*
X005259Y021400D01*
X005232Y021431D01*
X005208Y021465D01*
X005187Y021501D01*
X005170Y021538D01*
X005157Y021577D01*
X005147Y021617D01*
X005141Y021658D01*
X005139Y021699D01*
D13*
X010800Y015070D03*
X010800Y012230D03*
X007800Y006570D03*
X006800Y006570D03*
X005800Y006570D03*
X004800Y006570D03*
X004800Y003730D03*
X005800Y003730D03*
X006800Y003730D03*
X007800Y003730D03*
D14*
X007775Y003975D02*
X007775Y004200D01*
X007700Y004275D01*
X007550Y004275D01*
X007475Y004200D01*
X007475Y003975D01*
X007925Y003975D01*
X007775Y004125D02*
X007925Y004275D01*
X007700Y004435D02*
X007700Y004736D01*
X007925Y004661D02*
X007475Y004661D01*
X007700Y004435D01*
X006925Y004510D02*
X006850Y004435D01*
X006925Y004510D02*
X006925Y004661D01*
X006850Y004736D01*
X006775Y004736D01*
X006700Y004661D01*
X006700Y004586D01*
X006700Y004661D02*
X006625Y004736D01*
X006550Y004736D01*
X006475Y004661D01*
X006475Y004510D01*
X006550Y004435D01*
X006550Y004275D02*
X006700Y004275D01*
X006775Y004200D01*
X006775Y003975D01*
X006925Y003975D02*
X006475Y003975D01*
X006475Y004200D01*
X006550Y004275D01*
X006775Y004125D02*
X006925Y004275D01*
X005925Y004275D02*
X005775Y004125D01*
X005775Y004200D02*
X005775Y003975D01*
X005925Y003975D02*
X005475Y003975D01*
X005475Y004200D01*
X005550Y004275D01*
X005700Y004275D01*
X005775Y004200D01*
X005925Y004435D02*
X005625Y004736D01*
X005550Y004736D01*
X005475Y004661D01*
X005475Y004510D01*
X005550Y004435D01*
X005925Y004435D02*
X005925Y004736D01*
X005125Y004715D02*
X005125Y004415D01*
X005125Y004565D02*
X004675Y004565D01*
X004825Y004415D01*
X004750Y004254D02*
X004900Y004254D01*
X004975Y004179D01*
X004975Y003954D01*
X005125Y003954D02*
X004675Y003954D01*
X004675Y004179D01*
X004750Y004254D01*
X004975Y004104D02*
X005125Y004254D01*
X002450Y001300D02*
X002450Y018500D01*
X009650Y018500D01*
X009650Y001300D01*
X002450Y001300D01*
X010724Y002280D02*
X010799Y002205D01*
X010874Y002205D01*
X010949Y002280D01*
X010949Y002655D01*
X010874Y002655D02*
X011024Y002655D01*
X011184Y002655D02*
X011409Y002655D01*
X011484Y002580D01*
X011484Y002430D01*
X011409Y002355D01*
X011184Y002355D01*
X011184Y002205D02*
X011184Y002655D01*
X011645Y002580D02*
X011720Y002655D01*
X011870Y002655D01*
X011945Y002580D01*
X011945Y002505D01*
X011645Y002205D01*
X011945Y002205D01*
X013545Y001970D02*
X013620Y001895D01*
X013695Y001895D01*
X013770Y001970D01*
X013770Y002345D01*
X013695Y002345D02*
X013845Y002345D01*
X014005Y002345D02*
X014231Y002345D01*
X014306Y002270D01*
X014306Y002120D01*
X014231Y002045D01*
X014005Y002045D01*
X014005Y001895D02*
X014005Y002345D01*
X014466Y002270D02*
X014541Y002345D01*
X014691Y002345D01*
X014766Y002270D01*
X014766Y002195D01*
X014691Y002120D01*
X014766Y002045D01*
X014766Y001970D01*
X014691Y001895D01*
X014541Y001895D01*
X014466Y001970D01*
X014616Y002120D02*
X014691Y002120D01*
X015625Y006775D02*
X015625Y007225D01*
X015850Y007225D01*
X015925Y007150D01*
X015925Y007000D01*
X015850Y006925D01*
X015625Y006925D01*
X015775Y006925D02*
X015925Y006775D01*
X016085Y006850D02*
X016160Y006775D01*
X016311Y006775D01*
X016386Y006850D01*
X016386Y007150D01*
X016311Y007225D01*
X016160Y007225D01*
X016085Y007150D01*
X016085Y007075D01*
X016160Y007000D01*
X016386Y007000D01*
X016040Y007575D02*
X015890Y007575D01*
X015815Y007650D01*
X016115Y007950D01*
X016115Y007650D01*
X016040Y007575D01*
X015815Y007650D02*
X015815Y007950D01*
X015890Y008025D01*
X016040Y008025D01*
X016115Y007950D01*
X016061Y008275D02*
X015910Y008275D01*
X015835Y008350D01*
X015835Y008425D01*
X015910Y008500D01*
X016061Y008500D01*
X016136Y008425D01*
X016136Y008350D01*
X016061Y008275D01*
X016061Y008500D02*
X016136Y008575D01*
X016136Y008650D01*
X016061Y008725D01*
X015910Y008725D01*
X015835Y008650D01*
X015835Y008575D01*
X015910Y008500D01*
X015675Y008500D02*
X015600Y008425D01*
X015375Y008425D01*
X015375Y008275D02*
X015375Y008725D01*
X015600Y008725D01*
X015675Y008650D01*
X015675Y008500D01*
X015525Y008425D02*
X015675Y008275D01*
X015504Y008025D02*
X015504Y007575D01*
X015354Y007575D02*
X015654Y007575D01*
X015354Y007875D02*
X015504Y008025D01*
X015194Y007950D02*
X015194Y007800D01*
X015119Y007725D01*
X014894Y007725D01*
X015044Y007725D02*
X015194Y007575D01*
X014894Y007575D02*
X014894Y008025D01*
X015119Y008025D01*
X015194Y007950D01*
X015354Y009075D02*
X015354Y009525D01*
X015579Y009525D01*
X015654Y009450D01*
X015654Y009300D01*
X015579Y009225D01*
X015354Y009225D01*
X015504Y009225D02*
X015654Y009075D01*
X015815Y009150D02*
X015890Y009075D01*
X016040Y009075D01*
X016115Y009150D01*
X016115Y009225D01*
X016040Y009300D01*
X015815Y009300D01*
X015815Y009150D01*
X015815Y009300D02*
X015965Y009450D01*
X016115Y009525D01*
X016104Y009525D02*
X016179Y009450D01*
X016329Y009450D01*
X016404Y009375D01*
X016404Y009300D01*
X016329Y009225D01*
X016179Y009225D01*
X016104Y009300D01*
X016104Y009525D02*
X016104Y009600D01*
X016179Y009675D01*
X016329Y009675D01*
X016404Y009600D01*
X016565Y009450D02*
X016865Y009450D01*
X016790Y009225D02*
X016790Y009675D01*
X016565Y009450D01*
X013075Y012300D02*
X013000Y012225D01*
X013075Y012300D02*
X013075Y012450D01*
X013000Y012525D01*
X012925Y012525D01*
X012850Y012450D01*
X012850Y012300D01*
X012775Y012225D01*
X012700Y012225D01*
X012625Y012300D01*
X012625Y012450D01*
X012700Y012525D01*
X012700Y012685D02*
X012625Y012760D01*
X012625Y012911D01*
X012700Y012986D01*
X012775Y012986D01*
X012850Y012911D01*
X012925Y012986D01*
X013000Y012986D01*
X013075Y012911D01*
X013075Y012760D01*
X013000Y012685D01*
X012850Y012836D02*
X012850Y012911D01*
X010925Y013975D02*
X010475Y013975D01*
X010475Y014200D01*
X010550Y014275D01*
X010700Y014275D01*
X010775Y014200D01*
X010775Y013975D01*
X010775Y014125D02*
X010925Y014275D01*
X010925Y014435D02*
X010850Y014435D01*
X010550Y014736D01*
X010475Y014736D01*
X010475Y014435D01*
X016375Y013911D02*
X016375Y013760D01*
X016450Y013685D01*
X016450Y013525D02*
X016375Y013450D01*
X016375Y013300D01*
X016450Y013225D01*
X016525Y013225D01*
X016600Y013300D01*
X016600Y013450D01*
X016675Y013525D01*
X016750Y013525D01*
X016825Y013450D01*
X016825Y013300D01*
X016750Y013225D01*
X016825Y013685D02*
X016525Y013986D01*
X016450Y013986D01*
X016375Y013911D01*
X016825Y013986D02*
X016825Y013685D01*
X017429Y017475D02*
X017354Y017550D01*
X017429Y017475D02*
X017579Y017475D01*
X017654Y017550D01*
X017654Y017625D01*
X017579Y017700D01*
X017429Y017700D01*
X017354Y017775D01*
X017354Y017850D01*
X017429Y017925D01*
X017579Y017925D01*
X017654Y017850D01*
X017815Y017775D02*
X017965Y017925D01*
X017965Y017475D01*
X017815Y017475D02*
X018115Y017475D01*
X005336Y020925D02*
X005035Y020925D01*
X005186Y020925D02*
X005186Y021375D01*
X005035Y021225D01*
X004875Y021375D02*
X004575Y021375D01*
X004725Y021375D02*
X004725Y020925D01*
X004345Y020550D02*
X004187Y020550D01*
X004125Y020000D02*
X002475Y020000D01*
X002495Y019795D02*
X002495Y019495D01*
X002195Y019795D01*
X002120Y019795D01*
X002045Y019720D01*
X002045Y019570D01*
X002120Y019495D01*
X002120Y019334D02*
X002045Y019259D01*
X002045Y019109D01*
X002120Y019034D01*
X002420Y019034D01*
X002120Y019334D01*
X002420Y019334D01*
X002495Y019259D01*
X002495Y019109D01*
X002420Y019034D01*
X002420Y018874D02*
X002345Y018874D01*
X002270Y018799D01*
X002270Y018574D01*
X002420Y018574D01*
X002495Y018649D01*
X002495Y018799D01*
X002420Y018874D01*
X002120Y018724D02*
X002270Y018574D01*
X002120Y018724D02*
X002045Y018874D01*
X002045Y018264D02*
X002495Y018264D01*
X002495Y018414D02*
X002495Y018113D01*
X002420Y017953D02*
X002120Y017953D01*
X002045Y017878D01*
X002045Y017653D01*
X002495Y017653D01*
X002495Y017878D01*
X002420Y017953D01*
X002195Y018113D02*
X002045Y018264D01*
X002120Y017493D02*
X002045Y017418D01*
X002045Y017268D01*
X002120Y017193D01*
X002420Y017193D01*
X002495Y017268D01*
X002495Y017418D01*
X002420Y017493D01*
X002495Y017033D02*
X002495Y016732D01*
X002045Y016732D01*
X002255Y020550D02*
X002413Y020550D01*
X003187Y020550D02*
X003413Y020550D01*
X002475Y020000D02*
X002440Y020048D01*
X002407Y020098D01*
X002376Y020150D01*
X002349Y020204D01*
X002325Y020259D01*
X002305Y020316D01*
X002287Y020373D01*
X002273Y020431D01*
X002262Y020490D01*
X002255Y020550D01*
X002251Y020612D01*
X002250Y020675D01*
X002254Y020737D01*
X002261Y020799D01*
X002271Y020860D01*
X002286Y020921D01*
X002304Y020981D01*
X002325Y021040D01*
X002350Y021097D01*
X002378Y021152D01*
X002409Y021206D01*
X002444Y021258D01*
X002482Y021308D01*
X002522Y021355D01*
X002566Y021400D01*
X002611Y021443D01*
X002660Y021482D01*
X002710Y021519D01*
X002763Y021552D01*
X002817Y021583D01*
X002874Y021610D01*
X002931Y021633D01*
X002990Y021653D01*
X003610Y021653D02*
X003670Y021633D01*
X003729Y021609D01*
X003786Y021581D01*
X003841Y021550D01*
X003895Y021515D01*
X003946Y021478D01*
X003995Y021437D01*
X004041Y021393D01*
X004085Y021347D01*
X004126Y021298D01*
X004164Y021247D01*
X004198Y021194D01*
X004230Y021138D01*
X004257Y021081D01*
X004282Y021022D01*
X004302Y020962D01*
X004320Y020901D01*
X004333Y020839D01*
X004342Y020776D01*
X004348Y020713D01*
X004350Y020649D01*
X004348Y020585D01*
X004342Y020522D01*
X004333Y020459D01*
X004319Y020397D01*
X004302Y020336D01*
X004281Y020276D01*
X004257Y020217D01*
X004229Y020160D01*
X004197Y020104D01*
X004162Y020051D01*
X004125Y020000D01*
D15*
X001800Y019650D02*
X001800Y019150D01*
X001550Y018900D01*
X001800Y018650D01*
X001800Y018150D01*
X001550Y017900D01*
X001800Y017650D01*
X001800Y017150D01*
X001550Y016900D01*
X001800Y016650D01*
X001800Y016150D01*
X001550Y015900D01*
X001800Y015650D01*
X001800Y015150D01*
X001550Y014900D01*
X001800Y014650D01*
X001800Y014150D01*
X001550Y013900D01*
X001800Y013650D01*
X001800Y013150D01*
X001550Y012900D01*
X001800Y012650D01*
X001800Y012150D01*
X001550Y011900D01*
X001800Y011650D01*
X001800Y011150D01*
X001550Y010900D01*
X001800Y010650D01*
X001800Y010150D01*
X001550Y009900D01*
X001800Y009650D01*
X001800Y009150D01*
X001550Y008900D01*
X001800Y008650D01*
X001800Y008150D01*
X001550Y007900D01*
X001800Y007650D01*
X001800Y007150D01*
X001550Y006900D01*
X001800Y006650D01*
X001800Y006150D01*
X001550Y005900D01*
X001800Y005650D01*
X001800Y005150D01*
X001550Y004900D01*
X001800Y004650D01*
X001800Y004150D01*
X001550Y003900D01*
X001050Y003900D01*
X000800Y004150D01*
X000800Y004650D01*
X001050Y004900D01*
X000800Y005150D01*
X000800Y005650D01*
X001050Y005900D01*
X000800Y006150D01*
X000800Y006650D01*
X001050Y006900D01*
X000800Y007150D01*
X000800Y007650D01*
X001050Y007900D01*
X000800Y008150D01*
X000800Y008650D01*
X001050Y008900D01*
X000800Y009150D01*
X000800Y009650D01*
X001050Y009900D01*
X000800Y010150D01*
X000800Y010650D01*
X001050Y010900D01*
X000800Y011150D01*
X000800Y011650D01*
X001050Y011900D01*
X000800Y012150D01*
X000800Y012650D01*
X001050Y012900D01*
X000800Y013150D01*
X000800Y013650D01*
X001050Y013900D01*
X000800Y014150D01*
X000800Y014650D01*
X001050Y014900D01*
X000800Y015150D01*
X000800Y015650D01*
X001050Y015900D01*
X000800Y016150D01*
X000800Y016650D01*
X001050Y016900D01*
X000800Y017150D01*
X000800Y017650D01*
X001050Y017900D01*
X000800Y018150D01*
X000800Y018650D01*
X001050Y018900D01*
X000800Y019150D01*
X000800Y019650D01*
X001050Y019900D01*
X001550Y019900D01*
X001800Y019650D01*
X012550Y006650D02*
X012550Y006150D01*
X015436Y005612D02*
X015436Y004845D01*
X015436Y005612D02*
X015932Y005612D01*
X017782Y005612D02*
X019769Y005612D01*
X019769Y002188D01*
X015436Y002188D01*
X015436Y002955D01*
X015050Y002900D02*
X015050Y002400D01*
X014800Y002150D01*
X014300Y002150D01*
X014050Y002400D01*
X013800Y002150D01*
X013300Y002150D01*
X013050Y002400D01*
X012800Y002150D01*
X012300Y002150D01*
X012050Y002400D01*
X011800Y002150D01*
X011300Y002150D01*
X011050Y002400D01*
X010800Y002150D01*
X010300Y002150D01*
X010050Y002400D01*
X010050Y002900D01*
X010300Y003150D01*
X010800Y003150D01*
X011050Y002900D01*
X011300Y003150D01*
X011800Y003150D01*
X012050Y002900D01*
X012300Y003150D01*
X012800Y003150D01*
X013050Y002900D01*
X013050Y002400D01*
X013050Y002900D01*
X013300Y003150D01*
X013800Y003150D01*
X014050Y002900D01*
X014300Y003150D01*
X014800Y003150D01*
X015050Y002900D01*
D16*
X017550Y006150D02*
X017550Y010150D01*
X019300Y010150D01*
X019300Y006150D01*
X017550Y006150D01*
X019300Y006150D02*
X020050Y006150D01*
X020050Y010150D01*
X019300Y010150D01*
X019800Y019400D02*
X015800Y019400D01*
X015800Y021150D01*
X019800Y021150D01*
X019800Y019400D01*
X019800Y021150D02*
X019800Y021900D01*
X015800Y021900D01*
X015800Y021150D01*
X012800Y021150D01*
X009800Y021150D01*
X006800Y021150D01*
X006800Y021900D01*
X009800Y021900D01*
X009800Y021150D01*
X009800Y019400D01*
X006800Y019400D01*
X006800Y021150D01*
X006792Y021660D02*
X006694Y021660D01*
X006694Y019140D01*
X006792Y019140D01*
X006792Y018510D01*
X005001Y018510D01*
X005001Y022290D01*
X006792Y022290D01*
X006792Y021660D01*
X009800Y021900D02*
X009800Y021150D01*
X009800Y019400D01*
X012800Y019400D01*
X012800Y021150D01*
X012800Y021900D01*
X009800Y021900D01*
X012800Y021900D02*
X012800Y021150D01*
X012800Y019400D01*
X015800Y019400D01*
X015800Y021150D01*
X015800Y021900D01*
X012800Y021900D01*
D17*
X005572Y021699D03*
D18*
X011600Y014900D02*
X011700Y014900D01*
X011700Y013900D01*
X011600Y013900D01*
X013900Y013900D02*
X014000Y013900D01*
X013900Y013900D02*
X013900Y014850D01*
X014000Y014850D01*
X014350Y014900D02*
X014450Y014900D01*
X014450Y013950D01*
X014350Y013950D01*
X015350Y012350D02*
X015350Y012250D01*
X016300Y012250D01*
X016300Y012350D01*
X016650Y013900D02*
X016750Y013900D01*
X016650Y013900D02*
X016650Y014900D01*
X016750Y014900D01*
X017100Y014900D02*
X017200Y014900D01*
X017200Y013900D01*
X017100Y013900D01*
X019400Y013900D02*
X019500Y013900D01*
X019400Y013900D02*
X019400Y014850D01*
X019500Y014850D01*
X016300Y016450D02*
X016300Y016550D01*
X015300Y016550D01*
X015300Y016450D01*
X015350Y018750D02*
X015350Y018850D01*
X015350Y018750D02*
X016300Y018750D01*
X016300Y018850D01*
X016300Y010050D02*
X015300Y010050D01*
X015300Y009950D01*
X016300Y009950D02*
X016300Y010050D01*
D19*
X016720Y009400D03*
X016720Y008650D03*
X016720Y007900D03*
X016720Y007150D03*
X013880Y007150D03*
X013880Y007900D03*
X013880Y008650D03*
X013880Y009400D03*
D20*
X012555Y009410D02*
X012555Y009510D01*
X012480Y009460D02*
X012480Y009410D01*
X012405Y009410D02*
X012555Y009410D01*
X012555Y009363D02*
X012405Y009363D01*
X012405Y009410D02*
X012405Y009510D01*
X012405Y009558D02*
X012405Y009658D01*
X012405Y009608D02*
X012555Y009608D01*
X012555Y009363D02*
X012405Y009263D01*
X012555Y009263D01*
X012555Y009216D02*
X012505Y009166D01*
X012505Y009191D02*
X012505Y009116D01*
X012555Y009116D02*
X012405Y009116D01*
X012405Y009191D01*
X012430Y009216D01*
X012480Y009216D01*
X012505Y009191D01*
X012555Y009068D02*
X012555Y008968D01*
X012405Y008968D01*
X012405Y009068D01*
X012480Y009018D02*
X012480Y008968D01*
X012480Y008921D02*
X012480Y008821D01*
X012555Y008821D02*
X012405Y008821D01*
X012405Y008774D02*
X012405Y008674D01*
X012405Y008626D02*
X012405Y008526D01*
X012555Y008526D01*
X012555Y008626D01*
X012480Y008576D02*
X012480Y008526D01*
X012555Y008724D02*
X012405Y008724D01*
X012405Y008921D02*
X012555Y008921D01*
D21*
X011800Y008400D03*
M02*
