G75*
%MOIN*%
%OFA0B0*%
%FSLAX24Y24*%
%IPPOS*%
%LPD*%
%AMOC8*
5,1,8,0,0,1.08239X$1,22.5*
%
%ADD10C,0.0000*%
%ADD11OC8,0.0520*%
%ADD12C,0.0600*%
%ADD13C,0.0594*%
%ADD14C,0.0594*%
%ADD15C,0.0600*%
%ADD16OC8,0.0740*%
%ADD17C,0.1660*%
%ADD18C,0.1620*%
%ADD19R,0.0700X0.0700*%
%ADD20C,0.0700*%
%ADD21C,0.0740*%
%ADD22C,0.0100*%
%ADD23C,0.0080*%
%ADD24C,0.0240*%
D10*
X000300Y002150D02*
X000300Y021835D01*
X019792Y021835D01*
X019792Y002150D01*
X000300Y002150D01*
X000853Y003044D02*
X000855Y003092D01*
X000861Y003140D01*
X000871Y003187D01*
X000884Y003233D01*
X000902Y003278D01*
X000922Y003322D01*
X000947Y003364D01*
X000975Y003403D01*
X001005Y003440D01*
X001039Y003474D01*
X001076Y003506D01*
X001114Y003535D01*
X001155Y003560D01*
X001198Y003582D01*
X001243Y003600D01*
X001289Y003614D01*
X001336Y003625D01*
X001384Y003632D01*
X001432Y003635D01*
X001480Y003634D01*
X001528Y003629D01*
X001576Y003620D01*
X001622Y003608D01*
X001667Y003591D01*
X001711Y003571D01*
X001753Y003548D01*
X001793Y003521D01*
X001831Y003491D01*
X001866Y003458D01*
X001898Y003422D01*
X001928Y003384D01*
X001954Y003343D01*
X001976Y003300D01*
X001996Y003256D01*
X002011Y003211D01*
X002023Y003164D01*
X002031Y003116D01*
X002035Y003068D01*
X002035Y003020D01*
X002031Y002972D01*
X002023Y002924D01*
X002011Y002877D01*
X001996Y002832D01*
X001976Y002788D01*
X001954Y002745D01*
X001928Y002704D01*
X001898Y002666D01*
X001866Y002630D01*
X001831Y002597D01*
X001793Y002567D01*
X001753Y002540D01*
X001711Y002517D01*
X001667Y002497D01*
X001622Y002480D01*
X001576Y002468D01*
X001528Y002459D01*
X001480Y002454D01*
X001432Y002453D01*
X001384Y002456D01*
X001336Y002463D01*
X001289Y002474D01*
X001243Y002488D01*
X001198Y002506D01*
X001155Y002528D01*
X001114Y002553D01*
X001076Y002582D01*
X001039Y002614D01*
X001005Y002648D01*
X000975Y002685D01*
X000947Y002724D01*
X000922Y002766D01*
X000902Y002810D01*
X000884Y002855D01*
X000871Y002901D01*
X000861Y002948D01*
X000855Y002996D01*
X000853Y003044D01*
X002700Y001900D02*
X002702Y001937D01*
X002708Y001974D01*
X002718Y002010D01*
X002731Y002045D01*
X002748Y002078D01*
X002769Y002109D01*
X002793Y002137D01*
X002820Y002163D01*
X002849Y002186D01*
X002880Y002206D01*
X002914Y002222D01*
X002949Y002235D01*
X002985Y002244D01*
X003022Y002249D01*
X003059Y002250D01*
X003096Y002247D01*
X003133Y002240D01*
X003169Y002229D01*
X003203Y002215D01*
X003236Y002197D01*
X003266Y002175D01*
X003294Y002151D01*
X003319Y002123D01*
X003342Y002093D01*
X003361Y002061D01*
X003376Y002027D01*
X003388Y001992D01*
X003396Y001956D01*
X003400Y001919D01*
X003400Y001881D01*
X003396Y001844D01*
X003388Y001808D01*
X003376Y001773D01*
X003361Y001739D01*
X003342Y001707D01*
X003319Y001677D01*
X003294Y001649D01*
X003266Y001625D01*
X003236Y001603D01*
X003203Y001585D01*
X003169Y001571D01*
X003133Y001560D01*
X003096Y001553D01*
X003059Y001550D01*
X003022Y001551D01*
X002985Y001556D01*
X002949Y001565D01*
X002914Y001578D01*
X002880Y001594D01*
X002849Y001614D01*
X002820Y001637D01*
X002793Y001663D01*
X002769Y001691D01*
X002748Y001722D01*
X002731Y001755D01*
X002718Y001790D01*
X002708Y001826D01*
X002702Y001863D01*
X002700Y001900D01*
X008700Y001900D02*
X008702Y001937D01*
X008708Y001974D01*
X008718Y002010D01*
X008731Y002045D01*
X008748Y002078D01*
X008769Y002109D01*
X008793Y002137D01*
X008820Y002163D01*
X008849Y002186D01*
X008880Y002206D01*
X008914Y002222D01*
X008949Y002235D01*
X008985Y002244D01*
X009022Y002249D01*
X009059Y002250D01*
X009096Y002247D01*
X009133Y002240D01*
X009169Y002229D01*
X009203Y002215D01*
X009236Y002197D01*
X009266Y002175D01*
X009294Y002151D01*
X009319Y002123D01*
X009342Y002093D01*
X009361Y002061D01*
X009376Y002027D01*
X009388Y001992D01*
X009396Y001956D01*
X009400Y001919D01*
X009400Y001881D01*
X009396Y001844D01*
X009388Y001808D01*
X009376Y001773D01*
X009361Y001739D01*
X009342Y001707D01*
X009319Y001677D01*
X009294Y001649D01*
X009266Y001625D01*
X009236Y001603D01*
X009203Y001585D01*
X009169Y001571D01*
X009133Y001560D01*
X009096Y001553D01*
X009059Y001550D01*
X009022Y001551D01*
X008985Y001556D01*
X008949Y001565D01*
X008914Y001578D01*
X008880Y001594D01*
X008849Y001614D01*
X008820Y001637D01*
X008793Y001663D01*
X008769Y001691D01*
X008748Y001722D01*
X008731Y001755D01*
X008718Y001790D01*
X008708Y001826D01*
X008702Y001863D01*
X008700Y001900D01*
X018249Y011650D02*
X018251Y011697D01*
X018257Y011743D01*
X018267Y011789D01*
X018280Y011834D01*
X018298Y011877D01*
X018319Y011919D01*
X018343Y011959D01*
X018371Y011996D01*
X018402Y012031D01*
X018436Y012064D01*
X018472Y012093D01*
X018511Y012119D01*
X018552Y012142D01*
X018595Y012161D01*
X018639Y012177D01*
X018684Y012189D01*
X018730Y012197D01*
X018777Y012201D01*
X018823Y012201D01*
X018870Y012197D01*
X018916Y012189D01*
X018961Y012177D01*
X019005Y012161D01*
X019048Y012142D01*
X019089Y012119D01*
X019128Y012093D01*
X019164Y012064D01*
X019198Y012031D01*
X019229Y011996D01*
X019257Y011959D01*
X019281Y011919D01*
X019302Y011877D01*
X019320Y011834D01*
X019333Y011789D01*
X019343Y011743D01*
X019349Y011697D01*
X019351Y011650D01*
X019349Y011603D01*
X019343Y011557D01*
X019333Y011511D01*
X019320Y011466D01*
X019302Y011423D01*
X019281Y011381D01*
X019257Y011341D01*
X019229Y011304D01*
X019198Y011269D01*
X019164Y011236D01*
X019128Y011207D01*
X019089Y011181D01*
X019048Y011158D01*
X019005Y011139D01*
X018961Y011123D01*
X018916Y011111D01*
X018870Y011103D01*
X018823Y011099D01*
X018777Y011099D01*
X018730Y011103D01*
X018684Y011111D01*
X018639Y011123D01*
X018595Y011139D01*
X018552Y011158D01*
X018511Y011181D01*
X018472Y011207D01*
X018436Y011236D01*
X018402Y011269D01*
X018371Y011304D01*
X018343Y011341D01*
X018319Y011381D01*
X018298Y011423D01*
X018280Y011466D01*
X018267Y011511D01*
X018257Y011557D01*
X018251Y011603D01*
X018249Y011650D01*
X018353Y018544D02*
X018355Y018592D01*
X018361Y018640D01*
X018371Y018687D01*
X018384Y018733D01*
X018402Y018778D01*
X018422Y018822D01*
X018447Y018864D01*
X018475Y018903D01*
X018505Y018940D01*
X018539Y018974D01*
X018576Y019006D01*
X018614Y019035D01*
X018655Y019060D01*
X018698Y019082D01*
X018743Y019100D01*
X018789Y019114D01*
X018836Y019125D01*
X018884Y019132D01*
X018932Y019135D01*
X018980Y019134D01*
X019028Y019129D01*
X019076Y019120D01*
X019122Y019108D01*
X019167Y019091D01*
X019211Y019071D01*
X019253Y019048D01*
X019293Y019021D01*
X019331Y018991D01*
X019366Y018958D01*
X019398Y018922D01*
X019428Y018884D01*
X019454Y018843D01*
X019476Y018800D01*
X019496Y018756D01*
X019511Y018711D01*
X019523Y018664D01*
X019531Y018616D01*
X019535Y018568D01*
X019535Y018520D01*
X019531Y018472D01*
X019523Y018424D01*
X019511Y018377D01*
X019496Y018332D01*
X019476Y018288D01*
X019454Y018245D01*
X019428Y018204D01*
X019398Y018166D01*
X019366Y018130D01*
X019331Y018097D01*
X019293Y018067D01*
X019253Y018040D01*
X019211Y018017D01*
X019167Y017997D01*
X019122Y017980D01*
X019076Y017968D01*
X019028Y017959D01*
X018980Y017954D01*
X018932Y017953D01*
X018884Y017956D01*
X018836Y017963D01*
X018789Y017974D01*
X018743Y017988D01*
X018698Y018006D01*
X018655Y018028D01*
X018614Y018053D01*
X018576Y018082D01*
X018539Y018114D01*
X018505Y018148D01*
X018475Y018185D01*
X018447Y018224D01*
X018422Y018266D01*
X018402Y018310D01*
X018384Y018355D01*
X018371Y018401D01*
X018361Y018448D01*
X018355Y018496D01*
X018353Y018544D01*
X008700Y017900D02*
X008702Y017937D01*
X008708Y017974D01*
X008718Y018010D01*
X008731Y018045D01*
X008748Y018078D01*
X008769Y018109D01*
X008793Y018137D01*
X008820Y018163D01*
X008849Y018186D01*
X008880Y018206D01*
X008914Y018222D01*
X008949Y018235D01*
X008985Y018244D01*
X009022Y018249D01*
X009059Y018250D01*
X009096Y018247D01*
X009133Y018240D01*
X009169Y018229D01*
X009203Y018215D01*
X009236Y018197D01*
X009266Y018175D01*
X009294Y018151D01*
X009319Y018123D01*
X009342Y018093D01*
X009361Y018061D01*
X009376Y018027D01*
X009388Y017992D01*
X009396Y017956D01*
X009400Y017919D01*
X009400Y017881D01*
X009396Y017844D01*
X009388Y017808D01*
X009376Y017773D01*
X009361Y017739D01*
X009342Y017707D01*
X009319Y017677D01*
X009294Y017649D01*
X009266Y017625D01*
X009236Y017603D01*
X009203Y017585D01*
X009169Y017571D01*
X009133Y017560D01*
X009096Y017553D01*
X009059Y017550D01*
X009022Y017551D01*
X008985Y017556D01*
X008949Y017565D01*
X008914Y017578D01*
X008880Y017594D01*
X008849Y017614D01*
X008820Y017637D01*
X008793Y017663D01*
X008769Y017691D01*
X008748Y017722D01*
X008731Y017755D01*
X008718Y017790D01*
X008708Y017826D01*
X008702Y017863D01*
X008700Y017900D01*
X002700Y017900D02*
X002702Y017937D01*
X002708Y017974D01*
X002718Y018010D01*
X002731Y018045D01*
X002748Y018078D01*
X002769Y018109D01*
X002793Y018137D01*
X002820Y018163D01*
X002849Y018186D01*
X002880Y018206D01*
X002914Y018222D01*
X002949Y018235D01*
X002985Y018244D01*
X003022Y018249D01*
X003059Y018250D01*
X003096Y018247D01*
X003133Y018240D01*
X003169Y018229D01*
X003203Y018215D01*
X003236Y018197D01*
X003266Y018175D01*
X003294Y018151D01*
X003319Y018123D01*
X003342Y018093D01*
X003361Y018061D01*
X003376Y018027D01*
X003388Y017992D01*
X003396Y017956D01*
X003400Y017919D01*
X003400Y017881D01*
X003396Y017844D01*
X003388Y017808D01*
X003376Y017773D01*
X003361Y017739D01*
X003342Y017707D01*
X003319Y017677D01*
X003294Y017649D01*
X003266Y017625D01*
X003236Y017603D01*
X003203Y017585D01*
X003169Y017571D01*
X003133Y017560D01*
X003096Y017553D01*
X003059Y017550D01*
X003022Y017551D01*
X002985Y017556D01*
X002949Y017565D01*
X002914Y017578D01*
X002880Y017594D01*
X002849Y017614D01*
X002820Y017637D01*
X002793Y017663D01*
X002769Y017691D01*
X002748Y017722D01*
X002731Y017755D01*
X002718Y017790D01*
X002708Y017826D01*
X002702Y017863D01*
X002700Y017900D01*
X000643Y020900D02*
X000645Y020947D01*
X000651Y020993D01*
X000661Y021039D01*
X000674Y021084D01*
X000692Y021127D01*
X000713Y021169D01*
X000737Y021209D01*
X000765Y021246D01*
X000796Y021281D01*
X000830Y021314D01*
X000866Y021343D01*
X000905Y021369D01*
X000946Y021392D01*
X000989Y021411D01*
X001033Y021427D01*
X001078Y021439D01*
X001124Y021447D01*
X001171Y021451D01*
X001217Y021451D01*
X001264Y021447D01*
X001310Y021439D01*
X001355Y021427D01*
X001399Y021411D01*
X001442Y021392D01*
X001483Y021369D01*
X001522Y021343D01*
X001558Y021314D01*
X001592Y021281D01*
X001623Y021246D01*
X001651Y021209D01*
X001675Y021169D01*
X001696Y021127D01*
X001714Y021084D01*
X001727Y021039D01*
X001737Y020993D01*
X001743Y020947D01*
X001745Y020900D01*
X001743Y020853D01*
X001737Y020807D01*
X001727Y020761D01*
X001714Y020716D01*
X001696Y020673D01*
X001675Y020631D01*
X001651Y020591D01*
X001623Y020554D01*
X001592Y020519D01*
X001558Y020486D01*
X001522Y020457D01*
X001483Y020431D01*
X001442Y020408D01*
X001399Y020389D01*
X001355Y020373D01*
X001310Y020361D01*
X001264Y020353D01*
X001217Y020349D01*
X001171Y020349D01*
X001124Y020353D01*
X001078Y020361D01*
X001033Y020373D01*
X000989Y020389D01*
X000946Y020408D01*
X000905Y020431D01*
X000866Y020457D01*
X000830Y020486D01*
X000796Y020519D01*
X000765Y020554D01*
X000737Y020591D01*
X000713Y020631D01*
X000692Y020673D01*
X000674Y020716D01*
X000661Y020761D01*
X000651Y020807D01*
X000645Y020853D01*
X000643Y020900D01*
D11*
X002800Y020650D03*
X003300Y021400D03*
X003800Y020650D03*
X010800Y015650D03*
X010800Y011650D03*
X013300Y009400D03*
X013300Y008650D03*
X013300Y007900D03*
X013300Y007150D03*
X017300Y007150D03*
X017300Y007900D03*
X017300Y008650D03*
X017300Y009400D03*
X007800Y007150D03*
X006800Y007150D03*
X005800Y007150D03*
X004800Y007150D03*
X004800Y003150D03*
X005800Y003150D03*
X006800Y003150D03*
X007800Y003150D03*
D12*
X013550Y002650D03*
X014550Y002650D03*
X001300Y004400D03*
X001300Y005400D03*
X001300Y006400D03*
X001300Y007400D03*
X001300Y008400D03*
X001300Y009400D03*
X001300Y010400D03*
X001300Y011400D03*
X001300Y012400D03*
X001300Y013400D03*
X001300Y014400D03*
X001300Y015400D03*
X001300Y016400D03*
X001300Y017400D03*
X001300Y018400D03*
X001300Y019400D03*
D13*
X006300Y019400D03*
X006300Y020400D03*
X006300Y021400D03*
D14*
X007300Y020947D02*
X007300Y020353D01*
X008300Y020353D02*
X008300Y020947D01*
X009300Y020947D02*
X009300Y020353D01*
X010300Y020353D02*
X010300Y020947D01*
X011300Y020947D02*
X011300Y020353D01*
X012300Y020353D02*
X012300Y020947D01*
X013300Y020947D02*
X013300Y020353D01*
X014300Y020353D02*
X014300Y020947D01*
X015300Y020947D02*
X015300Y020353D01*
X016300Y020353D02*
X016300Y020947D01*
X017300Y020947D02*
X017300Y020353D01*
X018300Y020353D02*
X018300Y020947D01*
X019300Y020947D02*
X019300Y020353D01*
X019097Y009650D02*
X018503Y009650D01*
X018503Y008650D02*
X019097Y008650D01*
X019097Y007650D02*
X018503Y007650D01*
X018503Y006650D02*
X019097Y006650D01*
D15*
X017380Y010260D02*
X016780Y010260D01*
X016780Y012040D02*
X017380Y012040D01*
X017410Y012820D02*
X017410Y013420D01*
X016440Y013420D02*
X016440Y012820D01*
X014660Y012820D02*
X014660Y013420D01*
X013690Y013420D02*
X013690Y012820D01*
X014220Y012040D02*
X014820Y012040D01*
X014820Y010260D02*
X014220Y010260D01*
X011910Y012820D02*
X011910Y013420D01*
X011910Y015380D02*
X011910Y015980D01*
X013690Y015980D02*
X013690Y015380D01*
X014660Y015380D02*
X014660Y015980D01*
X014820Y016760D02*
X014220Y016760D01*
X014220Y018540D02*
X014820Y018540D01*
X016780Y018540D02*
X017380Y018540D01*
X017380Y016760D02*
X016780Y016760D01*
X016440Y015980D02*
X016440Y015380D01*
X017410Y015380D02*
X017410Y015980D01*
X019190Y015980D02*
X019190Y015380D01*
X019190Y013420D02*
X019190Y012820D01*
D16*
X011800Y010400D03*
X011800Y009400D03*
X010800Y009400D03*
X010800Y010400D03*
X010800Y008400D03*
X010800Y007400D03*
X010800Y006400D03*
X011800Y006400D03*
X011800Y007400D03*
X011800Y008400D03*
D17*
X015586Y003900D03*
D18*
X016837Y005381D03*
X018469Y003910D03*
D19*
X003050Y016900D03*
D20*
X003050Y015900D03*
X003050Y014900D03*
X003050Y013900D03*
X003050Y012900D03*
X003050Y011900D03*
X003050Y010900D03*
X003050Y009900D03*
X003050Y008900D03*
X003050Y007900D03*
X003050Y006900D03*
X003050Y005900D03*
X003050Y004900D03*
X003050Y003900D03*
X003050Y002900D03*
X009050Y002900D03*
X009050Y003900D03*
X009050Y004900D03*
X009050Y005900D03*
X009050Y006900D03*
X009050Y007900D03*
X009050Y008900D03*
X009050Y009900D03*
X009050Y010900D03*
X009050Y011900D03*
X009050Y012900D03*
X009050Y013900D03*
X009050Y014900D03*
X009050Y015900D03*
X009050Y016900D03*
D21*
X010550Y002650D03*
X011550Y002650D03*
X012550Y002650D03*
D22*
X018800Y006650D02*
X018820Y006654D01*
X019513Y007347D01*
X019513Y012764D01*
X019198Y013079D01*
X019190Y013120D01*
X019198Y013142D01*
X019198Y015662D01*
X019190Y015680D01*
X017080Y018540D02*
X017056Y018559D01*
X017056Y019882D01*
X016300Y020638D01*
X016300Y020650D01*
X014631Y015693D02*
X013717Y015693D01*
X013690Y015680D01*
X014631Y015693D02*
X014660Y015680D01*
X014662Y015630D01*
X014662Y013174D01*
X014660Y013120D01*
X014536Y013111D01*
X014536Y012071D01*
X014520Y012040D01*
X014660Y013120D02*
X014631Y013142D01*
X013717Y013142D01*
X013690Y013120D01*
X010800Y010400D02*
X010788Y010402D01*
X010473Y010717D01*
X010473Y011441D01*
X009969Y011945D01*
X009969Y020323D01*
X010284Y020638D01*
X010300Y020650D01*
X001717Y018969D02*
X001717Y015819D01*
X001308Y015410D01*
X001300Y015400D01*
X001717Y018969D02*
X001308Y019378D01*
X001300Y019400D01*
D23*
X000898Y019819D02*
X000898Y004796D01*
X001276Y004418D01*
X001300Y004400D01*
X002599Y005457D02*
X003040Y005898D01*
X003050Y005900D01*
X002599Y005457D02*
X002599Y002433D01*
X003229Y002433D01*
X003513Y002717D01*
X003513Y003126D01*
X004772Y003126D01*
X004800Y003150D01*
X005800Y003150D02*
X005812Y003158D01*
X006788Y003158D01*
X006800Y003150D01*
X006820Y003158D01*
X007796Y003158D01*
X007800Y003150D01*
X008583Y002717D02*
X008867Y002433D01*
X010536Y002433D01*
X010536Y002622D01*
X010550Y002650D01*
X011544Y002654D02*
X011550Y002650D01*
X011544Y002654D02*
X010316Y003882D01*
X010316Y010748D01*
X009969Y011095D01*
X009528Y009615D02*
X009528Y014402D01*
X009056Y014874D01*
X009050Y014900D01*
X008552Y014402D02*
X008552Y019914D01*
X009276Y020638D01*
X009300Y020650D01*
X009749Y021079D02*
X009749Y007599D01*
X009050Y006900D01*
X009623Y006433D02*
X006599Y006433D01*
X003072Y002906D01*
X003050Y002900D01*
X003513Y006780D02*
X003513Y012449D01*
X003072Y012890D01*
X003050Y012900D01*
X002599Y013079D02*
X002599Y012355D01*
X003040Y011914D01*
X003050Y011900D01*
X002599Y013079D02*
X001308Y014370D01*
X001300Y014400D01*
X000898Y019819D02*
X001969Y019819D01*
X002800Y020650D01*
X003324Y020607D02*
X003324Y021394D01*
X003300Y021400D01*
X003324Y020607D02*
X003670Y020260D01*
X003670Y008260D01*
X004772Y007158D01*
X004800Y007150D01*
X003513Y006780D02*
X006946Y006780D01*
X007166Y007000D01*
X007166Y007126D01*
X007796Y007126D01*
X007800Y007150D01*
X007702Y008040D02*
X006820Y007158D01*
X006800Y007150D01*
X007702Y008040D02*
X007702Y021489D01*
X010473Y021489D01*
X011292Y020670D01*
X011300Y020650D01*
X009938Y021268D02*
X009749Y021079D01*
X008394Y020544D02*
X008394Y009552D01*
X009024Y008922D01*
X009050Y008900D01*
X010095Y007819D02*
X010095Y003945D01*
X009050Y002900D01*
X008583Y002717D02*
X008583Y005457D01*
X009024Y005898D01*
X009050Y005900D01*
X011292Y009111D02*
X011292Y016197D01*
X014725Y019630D01*
X014725Y021363D01*
X017591Y021363D01*
X018284Y020670D01*
X018300Y020650D01*
X015300Y020650D02*
X015292Y020638D01*
X015292Y009898D01*
X013308Y007914D01*
X013300Y007900D01*
X013300Y007150D02*
X014788Y008638D01*
X017276Y008638D01*
X017300Y008650D01*
X017812Y008418D02*
X017812Y016166D01*
X017245Y016733D01*
X017087Y016733D01*
X017080Y016760D01*
X017410Y015680D02*
X017402Y015662D01*
X017402Y013142D01*
X017410Y013120D01*
X016440Y013120D02*
X016426Y013142D01*
X016426Y015662D01*
X016440Y015680D01*
X016440Y013120D02*
X016426Y013111D01*
X016363Y013048D01*
X016363Y009426D01*
X017276Y009426D01*
X017300Y009400D01*
X017812Y008418D02*
X017308Y007914D01*
X017300Y007900D01*
X017308Y007882D01*
X017308Y007158D01*
X017300Y007150D01*
X014520Y010260D02*
X014505Y010276D01*
X013276Y010276D01*
X013276Y010402D01*
X012583Y011095D01*
X011828Y010370D02*
X011800Y010400D01*
X011828Y010370D02*
X012206Y009993D01*
X012206Y009678D01*
X012930Y008953D01*
X012930Y003252D01*
X013528Y002654D01*
X013550Y002650D01*
X013300Y008650D02*
X013276Y008670D01*
X013087Y008859D01*
X013087Y009079D01*
X012363Y009804D01*
X012363Y012670D01*
X011922Y013111D01*
X011910Y013120D01*
X011922Y013142D01*
X011922Y015662D01*
X011910Y015680D01*
X010221Y015410D02*
X010221Y016575D01*
X014284Y020638D01*
X014300Y020650D01*
X008394Y020544D02*
X008300Y020638D01*
X008300Y020650D01*
X008552Y014402D02*
X009024Y013930D01*
X009050Y013900D01*
X013276Y010276D02*
X013276Y009426D01*
X013300Y009400D01*
D24*
X012583Y011095D03*
X011292Y009111D03*
X010095Y007819D03*
X009623Y006433D03*
X009528Y009615D03*
X009969Y011095D03*
X010221Y015410D03*
X009938Y021268D03*
M02*
