G75*
%MOIN*%
%OFA0B0*%
%FSLAX24Y24*%
%IPPOS*%
%LPD*%
%AMOC8*
5,1,8,0,0,1.08239X$1,22.5*
%
%ADD10C,0.0000*%
D10*
X000550Y002400D02*
X000550Y022085D01*
X020042Y022085D01*
X020042Y002400D01*
X000550Y002400D01*
X001103Y003294D02*
X001105Y003342D01*
X001111Y003390D01*
X001121Y003437D01*
X001134Y003483D01*
X001152Y003528D01*
X001172Y003572D01*
X001197Y003614D01*
X001225Y003653D01*
X001255Y003690D01*
X001289Y003724D01*
X001326Y003756D01*
X001364Y003785D01*
X001405Y003810D01*
X001448Y003832D01*
X001493Y003850D01*
X001539Y003864D01*
X001586Y003875D01*
X001634Y003882D01*
X001682Y003885D01*
X001730Y003884D01*
X001778Y003879D01*
X001826Y003870D01*
X001872Y003858D01*
X001917Y003841D01*
X001961Y003821D01*
X002003Y003798D01*
X002043Y003771D01*
X002081Y003741D01*
X002116Y003708D01*
X002148Y003672D01*
X002178Y003634D01*
X002204Y003593D01*
X002226Y003550D01*
X002246Y003506D01*
X002261Y003461D01*
X002273Y003414D01*
X002281Y003366D01*
X002285Y003318D01*
X002285Y003270D01*
X002281Y003222D01*
X002273Y003174D01*
X002261Y003127D01*
X002246Y003082D01*
X002226Y003038D01*
X002204Y002995D01*
X002178Y002954D01*
X002148Y002916D01*
X002116Y002880D01*
X002081Y002847D01*
X002043Y002817D01*
X002003Y002790D01*
X001961Y002767D01*
X001917Y002747D01*
X001872Y002730D01*
X001826Y002718D01*
X001778Y002709D01*
X001730Y002704D01*
X001682Y002703D01*
X001634Y002706D01*
X001586Y002713D01*
X001539Y002724D01*
X001493Y002738D01*
X001448Y002756D01*
X001405Y002778D01*
X001364Y002803D01*
X001326Y002832D01*
X001289Y002864D01*
X001255Y002898D01*
X001225Y002935D01*
X001197Y002974D01*
X001172Y003016D01*
X001152Y003060D01*
X001134Y003105D01*
X001121Y003151D01*
X001111Y003198D01*
X001105Y003246D01*
X001103Y003294D01*
X000893Y021150D02*
X000895Y021197D01*
X000901Y021243D01*
X000911Y021289D01*
X000924Y021334D01*
X000942Y021377D01*
X000963Y021419D01*
X000987Y021459D01*
X001015Y021496D01*
X001046Y021531D01*
X001080Y021564D01*
X001116Y021593D01*
X001155Y021619D01*
X001196Y021642D01*
X001239Y021661D01*
X001283Y021677D01*
X001328Y021689D01*
X001374Y021697D01*
X001421Y021701D01*
X001467Y021701D01*
X001514Y021697D01*
X001560Y021689D01*
X001605Y021677D01*
X001649Y021661D01*
X001692Y021642D01*
X001733Y021619D01*
X001772Y021593D01*
X001808Y021564D01*
X001842Y021531D01*
X001873Y021496D01*
X001901Y021459D01*
X001925Y021419D01*
X001946Y021377D01*
X001964Y021334D01*
X001977Y021289D01*
X001987Y021243D01*
X001993Y021197D01*
X001995Y021150D01*
X001993Y021103D01*
X001987Y021057D01*
X001977Y021011D01*
X001964Y020966D01*
X001946Y020923D01*
X001925Y020881D01*
X001901Y020841D01*
X001873Y020804D01*
X001842Y020769D01*
X001808Y020736D01*
X001772Y020707D01*
X001733Y020681D01*
X001692Y020658D01*
X001649Y020639D01*
X001605Y020623D01*
X001560Y020611D01*
X001514Y020603D01*
X001467Y020599D01*
X001421Y020599D01*
X001374Y020603D01*
X001328Y020611D01*
X001283Y020623D01*
X001239Y020639D01*
X001196Y020658D01*
X001155Y020681D01*
X001116Y020707D01*
X001080Y020736D01*
X001046Y020769D01*
X001015Y020804D01*
X000987Y020841D01*
X000963Y020881D01*
X000942Y020923D01*
X000924Y020966D01*
X000911Y021011D01*
X000901Y021057D01*
X000895Y021103D01*
X000893Y021150D01*
X018603Y018794D02*
X018605Y018842D01*
X018611Y018890D01*
X018621Y018937D01*
X018634Y018983D01*
X018652Y019028D01*
X018672Y019072D01*
X018697Y019114D01*
X018725Y019153D01*
X018755Y019190D01*
X018789Y019224D01*
X018826Y019256D01*
X018864Y019285D01*
X018905Y019310D01*
X018948Y019332D01*
X018993Y019350D01*
X019039Y019364D01*
X019086Y019375D01*
X019134Y019382D01*
X019182Y019385D01*
X019230Y019384D01*
X019278Y019379D01*
X019326Y019370D01*
X019372Y019358D01*
X019417Y019341D01*
X019461Y019321D01*
X019503Y019298D01*
X019543Y019271D01*
X019581Y019241D01*
X019616Y019208D01*
X019648Y019172D01*
X019678Y019134D01*
X019704Y019093D01*
X019726Y019050D01*
X019746Y019006D01*
X019761Y018961D01*
X019773Y018914D01*
X019781Y018866D01*
X019785Y018818D01*
X019785Y018770D01*
X019781Y018722D01*
X019773Y018674D01*
X019761Y018627D01*
X019746Y018582D01*
X019726Y018538D01*
X019704Y018495D01*
X019678Y018454D01*
X019648Y018416D01*
X019616Y018380D01*
X019581Y018347D01*
X019543Y018317D01*
X019503Y018290D01*
X019461Y018267D01*
X019417Y018247D01*
X019372Y018230D01*
X019326Y018218D01*
X019278Y018209D01*
X019230Y018204D01*
X019182Y018203D01*
X019134Y018206D01*
X019086Y018213D01*
X019039Y018224D01*
X018993Y018238D01*
X018948Y018256D01*
X018905Y018278D01*
X018864Y018303D01*
X018826Y018332D01*
X018789Y018364D01*
X018755Y018398D01*
X018725Y018435D01*
X018697Y018474D01*
X018672Y018516D01*
X018652Y018560D01*
X018634Y018605D01*
X018621Y018651D01*
X018611Y018698D01*
X018605Y018746D01*
X018603Y018794D01*
X018499Y011900D02*
X018501Y011947D01*
X018507Y011993D01*
X018517Y012039D01*
X018530Y012084D01*
X018548Y012127D01*
X018569Y012169D01*
X018593Y012209D01*
X018621Y012246D01*
X018652Y012281D01*
X018686Y012314D01*
X018722Y012343D01*
X018761Y012369D01*
X018802Y012392D01*
X018845Y012411D01*
X018889Y012427D01*
X018934Y012439D01*
X018980Y012447D01*
X019027Y012451D01*
X019073Y012451D01*
X019120Y012447D01*
X019166Y012439D01*
X019211Y012427D01*
X019255Y012411D01*
X019298Y012392D01*
X019339Y012369D01*
X019378Y012343D01*
X019414Y012314D01*
X019448Y012281D01*
X019479Y012246D01*
X019507Y012209D01*
X019531Y012169D01*
X019552Y012127D01*
X019570Y012084D01*
X019583Y012039D01*
X019593Y011993D01*
X019599Y011947D01*
X019601Y011900D01*
X019599Y011853D01*
X019593Y011807D01*
X019583Y011761D01*
X019570Y011716D01*
X019552Y011673D01*
X019531Y011631D01*
X019507Y011591D01*
X019479Y011554D01*
X019448Y011519D01*
X019414Y011486D01*
X019378Y011457D01*
X019339Y011431D01*
X019298Y011408D01*
X019255Y011389D01*
X019211Y011373D01*
X019166Y011361D01*
X019120Y011353D01*
X019073Y011349D01*
X019027Y011349D01*
X018980Y011353D01*
X018934Y011361D01*
X018889Y011373D01*
X018845Y011389D01*
X018802Y011408D01*
X018761Y011431D01*
X018722Y011457D01*
X018686Y011486D01*
X018652Y011519D01*
X018621Y011554D01*
X018593Y011591D01*
X018569Y011631D01*
X018548Y011673D01*
X018530Y011716D01*
X018517Y011761D01*
X018507Y011807D01*
X018501Y011853D01*
X018499Y011900D01*
M02*
