%
M48
M72
T01C0.0120
T02C0.0315
T03C0.0320
T04C0.0394
T05C0.0400
T06C0.1102
T07C0.1180
T08C0.1181
T09C0.1260
%
T01
X9841Y9644
X8487Y6746
X10503Y5644
X12833Y11345
X10597Y18841
X7038Y15282
X10282Y7880
X10219Y11345
T02
X3300Y16900
X3300Y15900
X3300Y14900
X3300Y13900
X3300Y12900
X3300Y11900
X3300Y10900
X3300Y9900
X3300Y8900
X3300Y7900
X3300Y6900
X3300Y5900
X3300Y4900
X3300Y3900
X3300Y2900
X9300Y16900
X9300Y15900
X9300Y14900
X9300Y13900
X9300Y12900
X9300Y11900
X9300Y10900
X9300Y9900
X9300Y8900
X9300Y7900
X9300Y6900
X9300Y5900
X9300Y4900
X9300Y3900
X9300Y2900
T03
X5050Y7400
X5050Y3400
X6050Y3400
X6050Y7400
X7050Y3400
X7050Y7400
X8050Y3400
X8050Y7400
X5300Y20900
X4800Y21650
X4300Y20900
X17550Y9650
X13550Y9650
X11050Y11900
X11050Y15900
X13550Y8900
X17550Y8900
X13550Y7400
X17550Y7400
X17550Y8150
X13550Y8150
T04
X5800Y19900
X4800Y19900
X3800Y19900
X13550Y20900
X14550Y20900
X15550Y20900
X10550Y20900
X11550Y20900
X12550Y20900
X7550Y20900
X8550Y20900
X9550Y20900
X16550Y20900
X17550Y20900
X18550Y20900
X19550Y20900
X19050Y9900
X19050Y8900
X19050Y7900
X19050Y6900
T05
X1550Y19650
X1550Y18650
X1550Y17650
X1550Y16650
X1550Y15650
X1550Y14650
X1550Y13650
X1550Y12650
X1550Y11650
X1550Y10650
X1550Y9650
X1550Y8650
X1550Y7650
X1550Y6650
X1550Y5650
X1550Y4650
X17330Y17010
X17330Y18790
X14770Y17010
X14770Y18790
X17660Y13370
X19440Y13370
X17660Y15930
X19440Y15930
X12160Y13370
X13940Y13370
X12160Y15930
X13940Y15930
X17330Y10510
X17330Y12290
X14770Y10510
X14770Y12290
X16690Y15930
X14910Y15930
X16690Y13370
X14910Y13370
X12050Y6650
X11050Y6650
X12050Y7650
X11050Y7650
X12050Y8650
X11050Y8650
X12050Y9650
X11050Y9650
X12050Y10650
X11050Y10650
X13800Y2900
X14800Y2900
X12800Y2900
X11800Y2900
X10800Y2900
T06
X1444Y21150
X19050Y11900
T07
X18719Y4160
X17087Y5631
T08
X1694Y3294
X19194Y18794
T09
X15836Y4150
M30
