G75*
%MOIN*%
%OFA0B0*%
%FSLAX24Y24*%
%IPPOS*%
%LPD*%
%AMOC8*
5,1,8,0,0,1.08239X$1,22.5*
%
%ADD10C,0.0000*%
%ADD11C,0.1221*%
%ADD12C,0.1142*%
%ADD13OC8,0.0560*%
%ADD14C,0.0640*%
%ADD15C,0.0634*%
%ADD16C,0.0634*%
%ADD17C,0.0640*%
%ADD18OC8,0.0780*%
%ADD19C,0.1700*%
%ADD20C,0.1660*%
%ADD21R,0.0740X0.0740*%
%ADD22C,0.0740*%
%ADD23C,0.0780*%
D10*
X000550Y002400D02*
X000550Y022085D01*
X020042Y022085D01*
X020042Y002400D01*
X000550Y002400D01*
X001103Y003294D02*
X001105Y003342D01*
X001111Y003390D01*
X001121Y003437D01*
X001134Y003483D01*
X001152Y003528D01*
X001172Y003572D01*
X001197Y003614D01*
X001225Y003653D01*
X001255Y003690D01*
X001289Y003724D01*
X001326Y003756D01*
X001364Y003785D01*
X001405Y003810D01*
X001448Y003832D01*
X001493Y003850D01*
X001539Y003864D01*
X001586Y003875D01*
X001634Y003882D01*
X001682Y003885D01*
X001730Y003884D01*
X001778Y003879D01*
X001826Y003870D01*
X001872Y003858D01*
X001917Y003841D01*
X001961Y003821D01*
X002003Y003798D01*
X002043Y003771D01*
X002081Y003741D01*
X002116Y003708D01*
X002148Y003672D01*
X002178Y003634D01*
X002204Y003593D01*
X002226Y003550D01*
X002246Y003506D01*
X002261Y003461D01*
X002273Y003414D01*
X002281Y003366D01*
X002285Y003318D01*
X002285Y003270D01*
X002281Y003222D01*
X002273Y003174D01*
X002261Y003127D01*
X002246Y003082D01*
X002226Y003038D01*
X002204Y002995D01*
X002178Y002954D01*
X002148Y002916D01*
X002116Y002880D01*
X002081Y002847D01*
X002043Y002817D01*
X002003Y002790D01*
X001961Y002767D01*
X001917Y002747D01*
X001872Y002730D01*
X001826Y002718D01*
X001778Y002709D01*
X001730Y002704D01*
X001682Y002703D01*
X001634Y002706D01*
X001586Y002713D01*
X001539Y002724D01*
X001493Y002738D01*
X001448Y002756D01*
X001405Y002778D01*
X001364Y002803D01*
X001326Y002832D01*
X001289Y002864D01*
X001255Y002898D01*
X001225Y002935D01*
X001197Y002974D01*
X001172Y003016D01*
X001152Y003060D01*
X001134Y003105D01*
X001121Y003151D01*
X001111Y003198D01*
X001105Y003246D01*
X001103Y003294D01*
X000893Y021150D02*
X000895Y021197D01*
X000901Y021243D01*
X000911Y021289D01*
X000924Y021334D01*
X000942Y021377D01*
X000963Y021419D01*
X000987Y021459D01*
X001015Y021496D01*
X001046Y021531D01*
X001080Y021564D01*
X001116Y021593D01*
X001155Y021619D01*
X001196Y021642D01*
X001239Y021661D01*
X001283Y021677D01*
X001328Y021689D01*
X001374Y021697D01*
X001421Y021701D01*
X001467Y021701D01*
X001514Y021697D01*
X001560Y021689D01*
X001605Y021677D01*
X001649Y021661D01*
X001692Y021642D01*
X001733Y021619D01*
X001772Y021593D01*
X001808Y021564D01*
X001842Y021531D01*
X001873Y021496D01*
X001901Y021459D01*
X001925Y021419D01*
X001946Y021377D01*
X001964Y021334D01*
X001977Y021289D01*
X001987Y021243D01*
X001993Y021197D01*
X001995Y021150D01*
X001993Y021103D01*
X001987Y021057D01*
X001977Y021011D01*
X001964Y020966D01*
X001946Y020923D01*
X001925Y020881D01*
X001901Y020841D01*
X001873Y020804D01*
X001842Y020769D01*
X001808Y020736D01*
X001772Y020707D01*
X001733Y020681D01*
X001692Y020658D01*
X001649Y020639D01*
X001605Y020623D01*
X001560Y020611D01*
X001514Y020603D01*
X001467Y020599D01*
X001421Y020599D01*
X001374Y020603D01*
X001328Y020611D01*
X001283Y020623D01*
X001239Y020639D01*
X001196Y020658D01*
X001155Y020681D01*
X001116Y020707D01*
X001080Y020736D01*
X001046Y020769D01*
X001015Y020804D01*
X000987Y020841D01*
X000963Y020881D01*
X000942Y020923D01*
X000924Y020966D01*
X000911Y021011D01*
X000901Y021057D01*
X000895Y021103D01*
X000893Y021150D01*
X018603Y018794D02*
X018605Y018842D01*
X018611Y018890D01*
X018621Y018937D01*
X018634Y018983D01*
X018652Y019028D01*
X018672Y019072D01*
X018697Y019114D01*
X018725Y019153D01*
X018755Y019190D01*
X018789Y019224D01*
X018826Y019256D01*
X018864Y019285D01*
X018905Y019310D01*
X018948Y019332D01*
X018993Y019350D01*
X019039Y019364D01*
X019086Y019375D01*
X019134Y019382D01*
X019182Y019385D01*
X019230Y019384D01*
X019278Y019379D01*
X019326Y019370D01*
X019372Y019358D01*
X019417Y019341D01*
X019461Y019321D01*
X019503Y019298D01*
X019543Y019271D01*
X019581Y019241D01*
X019616Y019208D01*
X019648Y019172D01*
X019678Y019134D01*
X019704Y019093D01*
X019726Y019050D01*
X019746Y019006D01*
X019761Y018961D01*
X019773Y018914D01*
X019781Y018866D01*
X019785Y018818D01*
X019785Y018770D01*
X019781Y018722D01*
X019773Y018674D01*
X019761Y018627D01*
X019746Y018582D01*
X019726Y018538D01*
X019704Y018495D01*
X019678Y018454D01*
X019648Y018416D01*
X019616Y018380D01*
X019581Y018347D01*
X019543Y018317D01*
X019503Y018290D01*
X019461Y018267D01*
X019417Y018247D01*
X019372Y018230D01*
X019326Y018218D01*
X019278Y018209D01*
X019230Y018204D01*
X019182Y018203D01*
X019134Y018206D01*
X019086Y018213D01*
X019039Y018224D01*
X018993Y018238D01*
X018948Y018256D01*
X018905Y018278D01*
X018864Y018303D01*
X018826Y018332D01*
X018789Y018364D01*
X018755Y018398D01*
X018725Y018435D01*
X018697Y018474D01*
X018672Y018516D01*
X018652Y018560D01*
X018634Y018605D01*
X018621Y018651D01*
X018611Y018698D01*
X018605Y018746D01*
X018603Y018794D01*
X018499Y011900D02*
X018501Y011947D01*
X018507Y011993D01*
X018517Y012039D01*
X018530Y012084D01*
X018548Y012127D01*
X018569Y012169D01*
X018593Y012209D01*
X018621Y012246D01*
X018652Y012281D01*
X018686Y012314D01*
X018722Y012343D01*
X018761Y012369D01*
X018802Y012392D01*
X018845Y012411D01*
X018889Y012427D01*
X018934Y012439D01*
X018980Y012447D01*
X019027Y012451D01*
X019073Y012451D01*
X019120Y012447D01*
X019166Y012439D01*
X019211Y012427D01*
X019255Y012411D01*
X019298Y012392D01*
X019339Y012369D01*
X019378Y012343D01*
X019414Y012314D01*
X019448Y012281D01*
X019479Y012246D01*
X019507Y012209D01*
X019531Y012169D01*
X019552Y012127D01*
X019570Y012084D01*
X019583Y012039D01*
X019593Y011993D01*
X019599Y011947D01*
X019601Y011900D01*
X019599Y011853D01*
X019593Y011807D01*
X019583Y011761D01*
X019570Y011716D01*
X019552Y011673D01*
X019531Y011631D01*
X019507Y011591D01*
X019479Y011554D01*
X019448Y011519D01*
X019414Y011486D01*
X019378Y011457D01*
X019339Y011431D01*
X019298Y011408D01*
X019255Y011389D01*
X019211Y011373D01*
X019166Y011361D01*
X019120Y011353D01*
X019073Y011349D01*
X019027Y011349D01*
X018980Y011353D01*
X018934Y011361D01*
X018889Y011373D01*
X018845Y011389D01*
X018802Y011408D01*
X018761Y011431D01*
X018722Y011457D01*
X018686Y011486D01*
X018652Y011519D01*
X018621Y011554D01*
X018593Y011591D01*
X018569Y011631D01*
X018548Y011673D01*
X018530Y011716D01*
X018517Y011761D01*
X018507Y011807D01*
X018501Y011853D01*
X018499Y011900D01*
D11*
X019194Y018794D03*
X001694Y003294D03*
D12*
X019050Y011900D03*
X001444Y021150D03*
D13*
X004300Y020900D03*
X004800Y021650D03*
X005300Y020900D03*
X011050Y015900D03*
X011050Y011900D03*
X013550Y009650D03*
X013550Y008900D03*
X013550Y008150D03*
X013550Y007400D03*
X017550Y007400D03*
X017550Y008150D03*
X017550Y008900D03*
X017550Y009650D03*
X008050Y007400D03*
X007050Y007400D03*
X006050Y007400D03*
X005050Y007400D03*
X005050Y003400D03*
X006050Y003400D03*
X007050Y003400D03*
X008050Y003400D03*
D14*
X013800Y002900D03*
X014800Y002900D03*
X001550Y004650D03*
X001550Y005650D03*
X001550Y006650D03*
X001550Y007650D03*
X001550Y008650D03*
X001550Y009650D03*
X001550Y010650D03*
X001550Y011650D03*
X001550Y012650D03*
X001550Y013650D03*
X001550Y014650D03*
X001550Y015650D03*
X001550Y016650D03*
X001550Y017650D03*
X001550Y018650D03*
X001550Y019650D03*
D15*
X003800Y019900D03*
X004800Y019900D03*
X005800Y019900D03*
D16*
X007550Y020603D02*
X007550Y021197D01*
X008550Y021197D02*
X008550Y020603D01*
X009550Y020603D02*
X009550Y021197D01*
X010550Y021197D02*
X010550Y020603D01*
X011550Y020603D02*
X011550Y021197D01*
X012550Y021197D02*
X012550Y020603D01*
X013550Y020603D02*
X013550Y021197D01*
X014550Y021197D02*
X014550Y020603D01*
X015550Y020603D02*
X015550Y021197D01*
X016550Y021197D02*
X016550Y020603D01*
X017550Y020603D02*
X017550Y021197D01*
X018550Y021197D02*
X018550Y020603D01*
X019550Y020603D02*
X019550Y021197D01*
X019347Y009900D02*
X018753Y009900D01*
X018753Y008900D02*
X019347Y008900D01*
X019347Y007900D02*
X018753Y007900D01*
X018753Y006900D02*
X019347Y006900D01*
D17*
X017630Y010510D02*
X017030Y010510D01*
X017030Y012290D02*
X017630Y012290D01*
X017660Y013070D02*
X017660Y013670D01*
X016690Y013670D02*
X016690Y013070D01*
X015070Y012290D02*
X014470Y012290D01*
X014910Y013070D02*
X014910Y013670D01*
X013940Y013670D02*
X013940Y013070D01*
X012160Y013070D02*
X012160Y013670D01*
X012160Y015630D02*
X012160Y016230D01*
X013940Y016230D02*
X013940Y015630D01*
X014910Y015630D02*
X014910Y016230D01*
X015070Y017010D02*
X014470Y017010D01*
X014470Y018790D02*
X015070Y018790D01*
X017030Y018790D02*
X017630Y018790D01*
X017630Y017010D02*
X017030Y017010D01*
X016690Y016230D02*
X016690Y015630D01*
X017660Y015630D02*
X017660Y016230D01*
X019440Y016230D02*
X019440Y015630D01*
X019440Y013670D02*
X019440Y013070D01*
X015070Y010510D02*
X014470Y010510D01*
D18*
X012050Y010650D03*
X012050Y009650D03*
X012050Y008650D03*
X012050Y007650D03*
X012050Y006650D03*
X011050Y006650D03*
X011050Y007650D03*
X011050Y008650D03*
X011050Y009650D03*
X011050Y010650D03*
D19*
X015836Y004150D03*
D20*
X017087Y005631D03*
X018719Y004160D03*
D21*
X003300Y016900D03*
D22*
X003300Y015900D03*
X003300Y014900D03*
X003300Y013900D03*
X003300Y012900D03*
X003300Y011900D03*
X003300Y010900D03*
X003300Y009900D03*
X003300Y008900D03*
X003300Y007900D03*
X003300Y006900D03*
X003300Y005900D03*
X003300Y004900D03*
X003300Y003900D03*
X003300Y002900D03*
X009300Y002900D03*
X009300Y003900D03*
X009300Y004900D03*
X009300Y005900D03*
X009300Y006900D03*
X009300Y007900D03*
X009300Y008900D03*
X009300Y009900D03*
X009300Y010900D03*
X009300Y011900D03*
X009300Y012900D03*
X009300Y013900D03*
X009300Y014900D03*
X009300Y015900D03*
X009300Y016900D03*
D23*
X010800Y002900D03*
X011800Y002900D03*
X012800Y002900D03*
M02*
