G75*
%MOIN*%
%OFA0B0*%
%FSLAX24Y24*%
%IPPOS*%
%LPD*%
%AMOC8*
5,1,8,0,0,1.08239X$1,22.5*
%
%ADD10C,0.0000*%
%ADD11C,0.0808*%
%ADD12R,0.0631X0.0552*%
%ADD13C,0.0560*%
%ADD14R,0.0640X0.0640*%
%ADD15OC8,0.0640*%
%ADD16C,0.1540*%
%ADD17C,0.0516*%
%ADD18R,0.0540X0.0260*%
%ADD19R,0.0260X0.0540*%
%ADD20C,0.0634*%
%ADD21OC8,0.0700*%
%ADD22R,0.0552X0.0631*%
%ADD23C,0.0749*%
%ADD24OC8,0.0560*%
%ADD25R,0.0276X0.0512*%
%ADD26R,0.0552X0.0670*%
%ADD27R,0.0316X0.0394*%
%ADD28OC8,0.1040*%
%ADD29C,0.0780*%
D10*
X018150Y018150D02*
X037520Y018150D01*
X037520Y037835D01*
X018150Y037835D01*
X018150Y037900D02*
X018150Y018150D01*
D11*
X021772Y029341D03*
X021882Y037214D03*
D12*
X026148Y029213D03*
X026148Y028544D03*
X025650Y024024D03*
X024650Y024024D03*
X024650Y023276D03*
X025650Y023276D03*
X026650Y023276D03*
X027650Y023276D03*
X027650Y024024D03*
X026650Y024024D03*
X023650Y024024D03*
X023650Y023276D03*
X033683Y028302D03*
X033683Y028971D03*
X033664Y029837D03*
X033664Y030506D03*
X035400Y031526D03*
X035400Y032274D03*
X033198Y034719D03*
X033198Y035467D03*
D13*
X032093Y030309D03*
X032093Y028309D03*
X031900Y025400D03*
X030900Y025400D03*
X030650Y024390D03*
X029650Y024390D03*
X028650Y024390D03*
X032900Y025400D03*
X020400Y025000D03*
X023342Y034662D03*
X024342Y034662D03*
D14*
X026858Y034783D03*
D15*
X027858Y034783D03*
X027858Y035783D03*
X027858Y036783D03*
X026858Y036783D03*
X026858Y035783D03*
X026150Y027150D03*
X025150Y027150D03*
X024150Y027150D03*
X023150Y027150D03*
X023150Y026150D03*
X024150Y026150D03*
X025150Y026150D03*
X026150Y026150D03*
X022150Y026150D03*
X022150Y027150D03*
D16*
X033223Y036901D03*
X036097Y036901D03*
D17*
X034975Y035860D02*
X034975Y035385D01*
X034660Y034873D02*
X034660Y034397D01*
X034030Y034397D02*
X034030Y034873D01*
X034345Y035385D02*
X034345Y035860D01*
X035290Y034873D02*
X035290Y034397D01*
D18*
X030419Y030654D03*
X030419Y030339D03*
X030419Y030024D03*
X030419Y029709D03*
X030419Y029394D03*
X030419Y029079D03*
X030419Y028764D03*
X030419Y028449D03*
X027039Y028449D03*
X027039Y028764D03*
X027039Y029079D03*
X027039Y029394D03*
X027039Y029709D03*
X027039Y030024D03*
X027039Y030339D03*
X027039Y030654D03*
D19*
X027627Y031241D03*
X027942Y031241D03*
X028257Y031241D03*
X028571Y031241D03*
X028886Y031241D03*
X029201Y031241D03*
X029516Y031241D03*
X029831Y031241D03*
X029831Y027861D03*
X029516Y027861D03*
X029201Y027861D03*
X028886Y027861D03*
X028571Y027861D03*
X028257Y027861D03*
X027942Y027861D03*
X027627Y027861D03*
D20*
X027650Y022526D03*
X026650Y022526D03*
X025650Y022526D03*
X024650Y022526D03*
X023650Y022526D03*
X028650Y022526D03*
X029650Y022526D03*
X030650Y022526D03*
X030650Y038274D03*
X029650Y038274D03*
X028650Y038274D03*
X027650Y038274D03*
X026650Y038274D03*
X025650Y038274D03*
X024650Y038274D03*
X023650Y038274D03*
D21*
X023120Y020540D03*
X021430Y020540D03*
X021430Y018760D03*
X023120Y018760D03*
X025680Y018760D03*
X026620Y018760D03*
X026620Y020540D03*
X025680Y020540D03*
X029180Y020540D03*
X030120Y020540D03*
X030120Y018760D03*
X029180Y018760D03*
X032680Y018760D03*
X032680Y020540D03*
X018870Y020540D03*
X018870Y018760D03*
D22*
X022576Y019700D03*
X023324Y019700D03*
X024876Y019700D03*
X025624Y019700D03*
X027426Y019700D03*
X028174Y019700D03*
X034806Y025780D03*
X035554Y025780D03*
X034774Y026900D03*
X034026Y026900D03*
X034776Y029150D03*
X035524Y029150D03*
X031274Y026650D03*
X030526Y026650D03*
X029434Y026270D03*
X028686Y026270D03*
D23*
X036900Y026150D03*
X036900Y025150D03*
X036900Y023900D03*
X036900Y022900D03*
X036900Y021650D03*
X036900Y020650D03*
X036900Y027150D03*
X036900Y028400D03*
X036900Y029400D03*
X036900Y030400D03*
X036900Y031650D03*
X036900Y032650D03*
X036900Y033650D03*
X018650Y029650D03*
X018650Y028650D03*
X018650Y027150D03*
X018650Y026150D03*
D24*
X020400Y025800D03*
D25*
X028900Y033968D03*
X029400Y033968D03*
X029900Y033968D03*
X030400Y033968D03*
X030900Y033968D03*
X031400Y033968D03*
X031900Y033968D03*
X032400Y033968D03*
X032400Y036172D03*
X031900Y036172D03*
X031400Y036172D03*
X030900Y036172D03*
X030400Y036172D03*
X029900Y036172D03*
X029400Y036172D03*
X028900Y036172D03*
D26*
X030506Y037150D03*
X031294Y037150D03*
D27*
X035394Y033150D03*
X035906Y033150D03*
X036156Y029900D03*
X035644Y029900D03*
X035644Y026650D03*
X036156Y026650D03*
D28*
X033900Y023150D03*
X033900Y020150D03*
D29*
X030930Y032820D03*
X029930Y032820D03*
X028930Y032820D03*
M02*
