G75*
%MOIN*%
%OFA0B0*%
%FSLAX24Y24*%
%IPPOS*%
%LPD*%
%AMOC8*
5,1,8,0,0,1.08239X$1,22.5*
%
%ADD10C,0.0000*%
%ADD11C,0.0808*%
%ADD12R,0.0300X0.0840*%
%ADD13C,0.0560*%
%ADD14R,0.0640X0.0640*%
%ADD15OC8,0.0640*%
%ADD16R,0.0920X0.0520*%
%ADD17R,0.0906X0.1457*%
%ADD18C,0.1540*%
%ADD19C,0.0516*%
%ADD20C,0.0634*%
%ADD21OC8,0.0700*%
%ADD22R,0.0552X0.0631*%
%ADD23C,0.0749*%
%ADD24OC8,0.0560*%
%ADD25R,0.0631X0.0552*%
%ADD26OC8,0.1040*%
%ADD27C,0.0780*%
D10*
X018150Y018150D02*
X037520Y018150D01*
X037520Y037835D01*
X018150Y037835D01*
X018150Y037900D02*
X018150Y018150D01*
D11*
X021772Y029341D03*
X021882Y037214D03*
D12*
X022743Y033597D03*
X023243Y033597D03*
X023743Y033597D03*
X024243Y033597D03*
X024243Y031177D03*
X023743Y031177D03*
X023243Y031177D03*
X022743Y031177D03*
D13*
X023342Y034662D03*
X024342Y034662D03*
X032093Y030309D03*
X032093Y028309D03*
X031900Y025400D03*
X030900Y025400D03*
X030650Y024390D03*
X029650Y024390D03*
X028650Y024390D03*
X032900Y025400D03*
X020400Y025000D03*
D14*
X026858Y034783D03*
D15*
X027858Y034783D03*
X027858Y035783D03*
X027858Y036783D03*
X026858Y036783D03*
X026858Y035783D03*
X026150Y027150D03*
X025150Y027150D03*
X024150Y027150D03*
X023150Y027150D03*
X023150Y026150D03*
X024150Y026150D03*
X025150Y026150D03*
X026150Y026150D03*
X022150Y026150D03*
X022150Y027150D03*
D16*
X020180Y023810D03*
X020180Y022900D03*
X020180Y021990D03*
D17*
X022620Y022900D03*
D18*
X033223Y036901D03*
X036097Y036901D03*
D19*
X034975Y035860D02*
X034975Y035385D01*
X034660Y034873D02*
X034660Y034397D01*
X034030Y034397D02*
X034030Y034873D01*
X034345Y035385D02*
X034345Y035860D01*
X035290Y034873D02*
X035290Y034397D01*
D20*
X030650Y038274D03*
X029650Y038274D03*
X028650Y038274D03*
X027650Y038274D03*
X026650Y038274D03*
X025650Y038274D03*
X024650Y038274D03*
X023650Y038274D03*
X023650Y022526D03*
X024650Y022526D03*
X025650Y022526D03*
X026650Y022526D03*
X027650Y022526D03*
X028650Y022526D03*
X029650Y022526D03*
X030650Y022526D03*
D21*
X030120Y020540D03*
X029180Y020540D03*
X029180Y018760D03*
X030120Y018760D03*
X032680Y018760D03*
X032680Y020540D03*
X026620Y020540D03*
X025680Y020540D03*
X025680Y018760D03*
X026620Y018760D03*
X023120Y018760D03*
X021430Y018760D03*
X021430Y020540D03*
X023120Y020540D03*
X018870Y020540D03*
X018870Y018760D03*
D22*
X023295Y029225D03*
X024043Y029225D03*
X024024Y030150D03*
X023276Y030150D03*
D23*
X018650Y029650D03*
X018650Y028650D03*
X018650Y027150D03*
X018650Y026150D03*
X036900Y026150D03*
X036900Y025150D03*
X036900Y023900D03*
X036900Y022900D03*
X036900Y021650D03*
X036900Y020650D03*
X036900Y027150D03*
X036900Y028400D03*
X036900Y029400D03*
X036900Y030400D03*
X036900Y031650D03*
X036900Y032650D03*
X036900Y033650D03*
D24*
X020400Y025800D03*
D25*
X018900Y022485D03*
X018900Y021815D03*
X028140Y028955D03*
X028140Y029625D03*
X029400Y029735D03*
X029400Y029065D03*
X025150Y031065D03*
X025150Y031735D03*
D26*
X033900Y023150D03*
X033900Y020150D03*
D27*
X030930Y032820D03*
X029930Y032820D03*
X028930Y032820D03*
M02*
