G75*
%MOIN*%
%OFA0B0*%
%FSLAX24Y24*%
%IPPOS*%
%LPD*%
%AMOC8*
5,1,8,0,0,1.08239X$1,22.5*
%
%ADD10C,0.0000*%
%ADD11C,0.0040*%
%ADD12C,0.0080*%
%ADD13C,0.0030*%
%ADD14C,0.0050*%
%ADD15C,0.0060*%
%ADD16C,0.0010*%
%ADD17C,0.0005*%
%ADD18C,0.0100*%
%ADD19C,0.0020*%
D10*
X018150Y018150D02*
X037520Y018150D01*
X037520Y037835D01*
X018150Y037835D01*
X018150Y037900D02*
X018150Y018150D01*
D11*
X022663Y018297D02*
X022739Y018220D01*
X022893Y018220D01*
X022970Y018297D01*
X023123Y018220D02*
X023277Y018373D01*
X023200Y018373D02*
X023430Y018373D01*
X023430Y018220D02*
X023430Y018680D01*
X023200Y018680D01*
X023123Y018604D01*
X023123Y018450D01*
X023200Y018373D01*
X022970Y018527D02*
X022893Y018450D01*
X022663Y018450D01*
X022663Y018297D02*
X022663Y018604D01*
X022739Y018680D01*
X022893Y018680D01*
X022970Y018604D01*
X022970Y018527D01*
X028052Y019520D02*
X028359Y019520D01*
X028206Y019520D02*
X028206Y019980D01*
X028359Y019827D01*
X028513Y019520D02*
X028820Y019520D01*
X028973Y019520D02*
X029127Y019673D01*
X029050Y019673D02*
X029280Y019673D01*
X029280Y019520D02*
X029280Y019980D01*
X029050Y019980D01*
X028973Y019904D01*
X028973Y019750D01*
X029050Y019673D01*
X028820Y019827D02*
X028666Y019980D01*
X028666Y019520D01*
X027130Y022999D02*
X026670Y022999D01*
X026823Y022999D02*
X026823Y023229D01*
X026900Y023306D01*
X027054Y023306D01*
X027130Y023229D01*
X027130Y022999D01*
X026823Y023153D02*
X026670Y023306D01*
X026747Y023460D02*
X026670Y023536D01*
X026670Y023690D01*
X026747Y023767D01*
X026900Y023767D01*
X026977Y023690D01*
X026977Y023613D01*
X026900Y023460D01*
X027130Y023460D01*
X027130Y023767D01*
X026130Y023690D02*
X025900Y023460D01*
X025900Y023767D01*
X025670Y023690D02*
X026130Y023690D01*
X026054Y023306D02*
X025900Y023306D01*
X025823Y023229D01*
X025823Y022999D01*
X025670Y022999D02*
X026130Y022999D01*
X026130Y023229D01*
X026054Y023306D01*
X025823Y023153D02*
X025670Y023306D01*
X025130Y023229D02*
X025054Y023306D01*
X024900Y023306D01*
X024823Y023229D01*
X024823Y022999D01*
X024670Y022999D02*
X025130Y022999D01*
X025130Y023229D01*
X025054Y023460D02*
X025130Y023536D01*
X025130Y023690D01*
X025054Y023767D01*
X024977Y023767D01*
X024900Y023690D01*
X024823Y023767D01*
X024747Y023767D01*
X024670Y023690D01*
X024670Y023536D01*
X024747Y023460D01*
X024670Y023306D02*
X024823Y023153D01*
X024900Y023613D02*
X024900Y023690D01*
X024130Y023690D02*
X024130Y023536D01*
X024054Y023460D01*
X024054Y023306D02*
X023900Y023306D01*
X023823Y023229D01*
X023823Y022999D01*
X023670Y022999D02*
X024130Y022999D01*
X024130Y023229D01*
X024054Y023306D01*
X023823Y023153D02*
X023670Y023306D01*
X023670Y023460D02*
X023977Y023767D01*
X024054Y023767D01*
X024130Y023690D01*
X023670Y023767D02*
X023670Y023460D01*
X023130Y023613D02*
X022670Y023613D01*
X022670Y023460D02*
X022670Y023767D01*
X022977Y023460D02*
X023130Y023613D01*
X023054Y023306D02*
X022900Y023306D01*
X022823Y023229D01*
X022823Y022999D01*
X022670Y022999D02*
X023130Y022999D01*
X023130Y023229D01*
X023054Y023306D01*
X022823Y023153D02*
X022670Y023306D01*
X027523Y026367D02*
X027523Y026443D01*
X027599Y026520D01*
X027830Y026520D01*
X027830Y026367D01*
X027753Y026290D01*
X027599Y026290D01*
X027523Y026367D01*
X027676Y026674D02*
X027830Y026520D01*
X027983Y026520D02*
X028060Y026443D01*
X028290Y026443D01*
X028290Y026290D02*
X028290Y026750D01*
X028060Y026750D01*
X027983Y026674D01*
X027983Y026520D01*
X028137Y026443D02*
X027983Y026290D01*
X027676Y026674D02*
X027523Y026750D01*
X029902Y027247D02*
X029902Y027554D01*
X029979Y027630D01*
X030132Y027630D01*
X030209Y027554D01*
X030209Y027477D01*
X030132Y027400D01*
X029902Y027400D01*
X029902Y027247D02*
X029979Y027170D01*
X030132Y027170D01*
X030209Y027247D01*
X030363Y027170D02*
X030670Y027170D01*
X030823Y027170D02*
X030977Y027323D01*
X030900Y027323D02*
X031130Y027323D01*
X031130Y027170D02*
X031130Y027630D01*
X030900Y027630D01*
X030823Y027554D01*
X030823Y027400D01*
X030900Y027323D01*
X030670Y027477D02*
X030516Y027630D01*
X030516Y027170D01*
X032823Y028012D02*
X032823Y028166D01*
X032900Y028242D01*
X032900Y028396D02*
X032823Y028473D01*
X032823Y028626D01*
X032900Y028703D01*
X033207Y028703D01*
X033284Y028626D01*
X033284Y028473D01*
X033207Y028396D01*
X033130Y028396D01*
X033054Y028473D01*
X033054Y028703D01*
X033207Y028242D02*
X033284Y028166D01*
X033284Y028012D01*
X033207Y027935D01*
X032900Y027935D01*
X032823Y028012D01*
X034533Y027880D02*
X034687Y027804D01*
X034840Y027650D01*
X034610Y027650D01*
X034533Y027573D01*
X034533Y027497D01*
X034610Y027420D01*
X034764Y027420D01*
X034840Y027497D01*
X034840Y027650D01*
X034994Y027420D02*
X035301Y027420D01*
X035363Y027380D02*
X035516Y027380D01*
X035454Y027420D02*
X035761Y027420D01*
X035823Y027304D02*
X035900Y027380D01*
X036053Y027380D01*
X036130Y027304D01*
X036130Y027227D01*
X036053Y027150D01*
X035900Y027150D01*
X035823Y027073D01*
X035823Y026997D01*
X035900Y026920D01*
X036053Y026920D01*
X036130Y026997D01*
X036222Y027420D02*
X036222Y027880D01*
X035991Y027880D01*
X035915Y027804D01*
X035915Y027650D01*
X035991Y027573D01*
X036222Y027573D01*
X036068Y027573D02*
X035915Y027420D01*
X035608Y027420D02*
X035608Y027880D01*
X035761Y027727D01*
X035301Y027727D02*
X035147Y027880D01*
X035147Y027420D01*
X035132Y027380D02*
X034979Y027380D01*
X034902Y027304D01*
X034902Y027227D01*
X034979Y027150D01*
X034902Y027073D01*
X034902Y026997D01*
X034979Y026920D01*
X035132Y026920D01*
X035209Y026997D01*
X035056Y027150D02*
X034979Y027150D01*
X035209Y027304D02*
X035132Y027380D01*
X035439Y027380D02*
X035439Y026997D01*
X035516Y026920D01*
X035593Y026920D01*
X035670Y026997D01*
X035520Y025428D02*
X035520Y025121D01*
X035750Y025351D01*
X035290Y025351D01*
X035290Y024967D02*
X035290Y024660D01*
X035290Y024507D02*
X035443Y024353D01*
X035443Y024430D02*
X035443Y024200D01*
X035290Y024200D02*
X035750Y024200D01*
X035750Y024430D01*
X035674Y024507D01*
X035520Y024507D01*
X035443Y024430D01*
X035597Y024660D02*
X035750Y024814D01*
X035290Y024814D01*
X035380Y029670D02*
X035380Y029900D01*
X035304Y029977D01*
X035150Y029977D01*
X035073Y029900D01*
X035073Y029670D01*
X034920Y029670D02*
X035380Y029670D01*
X035073Y029823D02*
X034920Y029977D01*
X034920Y030130D02*
X034920Y030437D01*
X034920Y030284D02*
X035380Y030284D01*
X035227Y030130D01*
X035420Y030247D02*
X035497Y030170D01*
X035420Y030247D02*
X035420Y030400D01*
X035497Y030477D01*
X035573Y030477D01*
X035650Y030400D01*
X035650Y030247D01*
X035727Y030170D01*
X035804Y030170D01*
X035880Y030247D01*
X035880Y030400D01*
X035804Y030477D01*
X035880Y030784D02*
X035880Y030937D01*
X035880Y030861D02*
X035497Y030861D01*
X035420Y030784D01*
X035420Y030707D01*
X035497Y030630D01*
X035380Y030668D02*
X035380Y030821D01*
X035304Y030898D01*
X035227Y030898D01*
X035150Y030821D01*
X035073Y030898D01*
X034997Y030898D01*
X034920Y030821D01*
X034920Y030668D01*
X034997Y030591D01*
X035150Y030744D02*
X035150Y030821D01*
X035304Y030591D02*
X035380Y030668D01*
X035420Y031091D02*
X035727Y031398D01*
X035804Y031398D01*
X035880Y031321D01*
X035880Y031168D01*
X035804Y031091D01*
X035920Y031289D02*
X036380Y031289D01*
X036380Y031519D01*
X036304Y031596D01*
X036150Y031596D01*
X036073Y031519D01*
X036073Y031289D01*
X036073Y031442D02*
X035920Y031596D01*
X035920Y031749D02*
X035920Y032056D01*
X035920Y031903D02*
X036380Y031903D01*
X036227Y031749D01*
X036304Y032210D02*
X036380Y032286D01*
X036380Y032440D01*
X036304Y032517D01*
X036227Y032517D01*
X035920Y032210D01*
X035920Y032517D01*
X035630Y032399D02*
X035170Y032706D01*
X035170Y032860D02*
X035247Y032860D01*
X035554Y033167D01*
X035630Y033167D01*
X035630Y032860D01*
X035630Y032706D02*
X035170Y032399D01*
X035187Y033420D02*
X035187Y033880D01*
X035340Y033727D01*
X035494Y033880D02*
X035647Y033880D01*
X035571Y033880D02*
X035571Y033497D01*
X035647Y033420D01*
X035724Y033420D01*
X035801Y033497D01*
X035954Y033497D02*
X036031Y033420D01*
X036184Y033420D01*
X036261Y033497D01*
X036184Y033650D02*
X036031Y033650D01*
X035954Y033573D01*
X035954Y033497D01*
X036184Y033650D02*
X036261Y033727D01*
X036261Y033804D01*
X036184Y033880D01*
X036031Y033880D01*
X035954Y033804D01*
X035340Y033420D02*
X035033Y033420D01*
X035420Y031398D02*
X035420Y031091D01*
X033294Y030402D02*
X033217Y030479D01*
X033141Y030479D01*
X033064Y030402D01*
X033064Y030249D01*
X033141Y030172D01*
X033217Y030172D01*
X033294Y030249D01*
X033294Y030402D01*
X033064Y030402D02*
X032987Y030479D01*
X032911Y030479D01*
X032834Y030402D01*
X032834Y030249D01*
X032911Y030172D01*
X032987Y030172D01*
X033064Y030249D01*
X033217Y030019D02*
X033294Y029942D01*
X033294Y029788D01*
X033217Y029712D01*
X032911Y029712D01*
X032834Y029788D01*
X032834Y029942D01*
X032911Y030019D01*
X026388Y030095D02*
X026312Y030019D01*
X026388Y030095D02*
X026388Y030249D01*
X026312Y030326D01*
X026235Y030326D01*
X025928Y030019D01*
X025928Y030326D01*
X026005Y029865D02*
X025928Y029789D01*
X025928Y029635D01*
X026005Y029558D01*
X026312Y029558D01*
X026388Y029635D01*
X026388Y029789D01*
X026312Y029865D01*
X021207Y029790D02*
X020947Y029790D01*
X020860Y029703D01*
X020947Y029617D01*
X020860Y029530D01*
X020947Y029443D01*
X021207Y029443D01*
X021207Y029275D02*
X020947Y029275D01*
X020860Y029188D01*
X020947Y029101D01*
X020860Y029014D01*
X020947Y028928D01*
X021207Y028928D01*
X021207Y028759D02*
X020947Y028759D01*
X020860Y028672D01*
X020947Y028585D01*
X020860Y028499D01*
X020947Y028412D01*
X021207Y028412D01*
X020367Y028412D02*
X020020Y028585D01*
X020367Y028759D01*
X020367Y028928D02*
X020540Y029101D01*
X020020Y029101D01*
X020020Y028928D02*
X020020Y029275D01*
X020030Y029353D02*
X019570Y029353D01*
X019570Y029200D02*
X019570Y029507D01*
X019877Y029200D02*
X020030Y029353D01*
X020020Y029443D02*
X020020Y029530D01*
X020107Y029530D01*
X020107Y029443D01*
X020020Y029443D01*
X020107Y029701D02*
X020020Y029788D01*
X020020Y029961D01*
X020107Y030048D01*
X020193Y030048D01*
X020280Y029961D01*
X020280Y029875D01*
X020280Y029961D02*
X020367Y030048D01*
X020454Y030048D01*
X020540Y029961D01*
X020540Y029788D01*
X020454Y029701D01*
X020860Y029959D02*
X020860Y030046D01*
X020947Y030046D01*
X020947Y029959D01*
X020860Y029959D01*
X020860Y030217D02*
X020860Y030477D01*
X020947Y030564D01*
X021033Y030477D01*
X021033Y030303D01*
X021120Y030217D01*
X021207Y030303D01*
X021207Y030564D01*
X021207Y030819D02*
X021207Y030993D01*
X021120Y031079D01*
X020860Y031079D01*
X020860Y030819D01*
X020947Y030732D01*
X021033Y030819D01*
X021033Y031079D01*
X020947Y031248D02*
X020860Y031335D01*
X020860Y031595D01*
X021207Y031595D01*
X021380Y031764D02*
X021380Y031850D01*
X020860Y031850D01*
X020860Y031764D02*
X020860Y031937D01*
X020947Y032107D02*
X021120Y032107D01*
X021207Y032194D01*
X021207Y032368D01*
X021120Y032454D01*
X021033Y032454D01*
X021033Y032107D01*
X020947Y032107D02*
X020860Y032194D01*
X020860Y032368D01*
X020860Y032796D02*
X021207Y032970D01*
X021207Y033139D02*
X021207Y033225D01*
X020860Y033225D01*
X020860Y033139D02*
X020860Y033312D01*
X020860Y033482D02*
X021207Y033482D01*
X021033Y033482D02*
X021207Y033656D01*
X021207Y033743D01*
X021120Y033912D02*
X021207Y033999D01*
X021207Y034172D01*
X021120Y034259D01*
X021033Y034259D01*
X021033Y033912D01*
X020947Y033912D02*
X021120Y033912D01*
X020947Y033912D02*
X020860Y033999D01*
X020860Y034172D01*
X020860Y034428D02*
X020860Y034514D01*
X020947Y034514D01*
X020947Y034428D01*
X020860Y034428D01*
X020860Y034686D02*
X020860Y034859D01*
X020860Y034772D02*
X021380Y034772D01*
X021380Y034686D01*
X021207Y035029D02*
X021207Y035203D01*
X021294Y035116D02*
X020947Y035116D01*
X020860Y035203D01*
X020860Y035373D02*
X021380Y035720D01*
X021207Y035975D02*
X021120Y035889D01*
X020947Y035889D01*
X020860Y035975D01*
X020860Y036149D01*
X021033Y036236D02*
X021033Y035889D01*
X021207Y035975D02*
X021207Y036149D01*
X021120Y036236D01*
X021033Y036236D01*
X020860Y036404D02*
X021207Y036404D01*
X021207Y036665D01*
X021120Y036751D01*
X020860Y036751D01*
X019190Y036741D02*
X019103Y036654D01*
X019190Y036741D02*
X019190Y036915D01*
X019103Y037001D01*
X018930Y037001D01*
X018843Y036915D01*
X018843Y036828D01*
X018930Y036654D01*
X018670Y036654D01*
X018670Y037001D01*
X018670Y036486D02*
X018670Y036139D01*
X018930Y036139D01*
X018843Y036312D01*
X018843Y036399D01*
X018930Y036486D01*
X019103Y036486D01*
X019190Y036399D01*
X019190Y036225D01*
X019103Y036139D01*
X019190Y035970D02*
X019190Y035623D01*
X019190Y035454D02*
X019190Y035107D01*
X018843Y035454D01*
X018756Y035454D01*
X018670Y035368D01*
X018670Y035194D01*
X018756Y035107D01*
X018930Y034939D02*
X018930Y034592D01*
X018670Y034852D01*
X019190Y034852D01*
X019103Y034423D02*
X019190Y034336D01*
X019190Y034163D01*
X019103Y034076D01*
X018756Y034423D01*
X019103Y034423D01*
X018756Y034423D02*
X018670Y034336D01*
X018670Y034163D01*
X018756Y034076D01*
X019103Y034076D01*
X019103Y033907D02*
X019190Y033821D01*
X019190Y033647D01*
X019103Y033561D01*
X018756Y033907D01*
X019103Y033907D01*
X019103Y033561D02*
X018756Y033561D01*
X018670Y033647D01*
X018670Y033821D01*
X018756Y033907D01*
X018756Y033392D02*
X019103Y033045D01*
X019190Y033132D01*
X019190Y033305D01*
X019103Y033392D01*
X018756Y033392D01*
X018670Y033305D01*
X018670Y033132D01*
X018756Y033045D01*
X019103Y033045D01*
X019190Y032876D02*
X019190Y032529D01*
X019190Y032703D02*
X018670Y032703D01*
X018843Y032529D01*
X018843Y032361D02*
X018843Y032274D01*
X018843Y032014D01*
X019017Y032014D02*
X019017Y032361D01*
X019190Y032274D02*
X018670Y032274D01*
X018670Y032100D02*
X019190Y032100D01*
X020860Y032796D02*
X021207Y032623D01*
X021380Y033225D02*
X021467Y033225D01*
X021207Y031248D02*
X020947Y031248D01*
X020030Y028893D02*
X019570Y028893D01*
X019570Y029046D02*
X019570Y028739D01*
X019570Y028586D02*
X020030Y028279D01*
X020030Y028586D02*
X019570Y028279D01*
X019877Y028739D02*
X020030Y028893D01*
X020027Y027367D02*
X019950Y027290D01*
X019950Y027136D01*
X020027Y027060D01*
X020104Y027060D01*
X020180Y027136D01*
X020180Y027290D01*
X020104Y027367D01*
X020027Y027367D01*
X019950Y027290D02*
X019873Y027367D01*
X019797Y027367D01*
X019720Y027290D01*
X019720Y027136D01*
X019797Y027060D01*
X019873Y027060D01*
X019950Y027136D01*
X019720Y026906D02*
X020180Y026599D01*
X020180Y026906D02*
X019720Y026599D01*
X018843Y035623D02*
X018670Y035797D01*
X019190Y035797D01*
D12*
X020202Y029757D02*
X020084Y029808D01*
X019967Y029863D01*
X019852Y029922D01*
X019738Y029984D01*
X019627Y030050D01*
X019517Y030119D01*
X019410Y030191D01*
X019305Y030266D01*
X019202Y030345D01*
X019102Y030427D01*
X019004Y030512D01*
X018909Y030599D01*
X018817Y030690D01*
X018727Y030783D01*
X018641Y030879D01*
X018557Y030978D01*
X018476Y031079D01*
X018399Y031183D01*
X018325Y031289D01*
X018254Y031397D01*
X018186Y031507D01*
X018122Y031619D01*
X018061Y031733D01*
X018003Y031849D01*
X017950Y031967D01*
X017899Y032086D01*
X017853Y032207D01*
X017810Y032329D01*
X017771Y032452D01*
X017736Y032577D01*
X017704Y032702D01*
X017677Y032829D01*
X017653Y032956D01*
X017633Y033083D01*
X017617Y033212D01*
X017605Y033341D01*
X017597Y033470D01*
X017593Y033599D01*
X017592Y033728D01*
X017596Y033858D01*
X017604Y033987D01*
X017615Y034116D01*
X017631Y034244D01*
X017650Y034372D01*
X017674Y034499D01*
X017701Y034626D01*
X017732Y034751D01*
X017767Y034876D01*
X017805Y034999D01*
X017848Y035121D01*
X017894Y035242D01*
X017944Y035362D01*
X017997Y035480D01*
X018054Y035596D01*
X018114Y035710D01*
X018178Y035822D01*
X018246Y035933D01*
X018316Y036041D01*
X018390Y036147D01*
X018467Y036251D01*
X018548Y036353D01*
X018631Y036452D01*
X018717Y036548D01*
X018807Y036642D01*
X018899Y036733D01*
X018993Y036821D01*
X019091Y036906D01*
X019191Y036988D01*
X019293Y037067D01*
X019398Y037143D01*
X019505Y037215D01*
X019614Y037285D01*
X019725Y037351D01*
X019839Y037413D01*
X019954Y037472D01*
X020071Y037528D01*
X020189Y037580D01*
X020309Y037628D01*
X020430Y037673D01*
X020553Y037714D01*
X020677Y037751D01*
X020802Y037784D01*
X020928Y037814D01*
X021055Y037839D01*
X021182Y037861D01*
X021310Y037879D01*
X021439Y037893D01*
X021568Y037903D01*
X021697Y037909D01*
X021827Y037911D01*
X021956Y037909D01*
X022085Y037903D01*
X022214Y037894D01*
X022343Y037880D01*
X022471Y037863D01*
X022598Y037841D01*
X022725Y037816D01*
X022851Y037787D01*
X022976Y037754D01*
X023100Y037717D01*
X023223Y037676D01*
X023345Y037632D01*
X023465Y037584D01*
X023583Y037532D01*
X023700Y037477D01*
X023816Y037418D01*
X023929Y037356D01*
X024041Y037290D01*
X024150Y037221D01*
X024257Y037149D01*
X024362Y037073D01*
X024465Y036995D01*
X024565Y036913D01*
X024662Y036828D01*
X024757Y036740D01*
X024850Y036649D01*
X024939Y036556D01*
X025026Y036460D01*
X025109Y036361D01*
X025190Y036260D01*
X025267Y036156D01*
X025341Y036050D01*
X025412Y035942D01*
X025480Y035832D01*
X025544Y035720D01*
X025605Y035605D01*
X025662Y035489D01*
X025716Y035372D01*
X025766Y035252D01*
X025812Y035132D01*
X025855Y035010D01*
X025894Y034886D01*
X025929Y034762D01*
X025961Y034636D01*
X025988Y034510D01*
X026012Y034383D01*
X026032Y034255D01*
X026047Y034127D01*
X026059Y033998D01*
X026067Y033869D01*
X026071Y033739D01*
X026072Y033610D01*
X026068Y033481D01*
X026060Y033352D01*
X026048Y033223D01*
X026033Y033094D01*
X026013Y032966D01*
X025990Y032839D01*
X025962Y032713D01*
X025931Y032587D01*
X025896Y032463D01*
X025857Y032339D01*
X025815Y032217D01*
X025769Y032096D01*
X025719Y031977D01*
X025665Y031859D01*
X025608Y031743D01*
X025548Y031629D01*
X025484Y031516D01*
X025416Y031406D01*
X025346Y031298D01*
X025272Y031192D01*
X025194Y031088D01*
X025114Y030987D01*
X025031Y030888D01*
X024944Y030791D01*
X024855Y030698D01*
X024763Y030607D01*
X024668Y030519D01*
X024570Y030434D01*
X024470Y030352D01*
X024368Y030273D01*
X024263Y030197D01*
X024156Y030125D01*
X024047Y030055D01*
X023935Y029990D01*
X023822Y029927D01*
X023707Y029868D01*
X023590Y029813D01*
X023472Y029761D01*
X023352Y029713D01*
X023336Y028532D01*
X020186Y028576D01*
X020203Y029757D01*
X029030Y032120D02*
X028978Y032130D01*
X028927Y032144D01*
X028877Y032162D01*
X028829Y032183D01*
X028782Y032208D01*
X028738Y032236D01*
X028695Y032268D01*
X028655Y032302D01*
X028618Y032340D01*
X028584Y032380D01*
X028552Y032422D01*
X028524Y032467D01*
X028500Y032514D01*
X028479Y032562D01*
X028461Y032612D01*
X028448Y032663D01*
X028438Y032715D01*
X028432Y032767D01*
X028430Y032820D01*
X028432Y032873D01*
X028438Y032925D01*
X028448Y032977D01*
X028461Y033028D01*
X028479Y033078D01*
X028500Y033126D01*
X028524Y033173D01*
X028552Y033218D01*
X028584Y033260D01*
X028618Y033300D01*
X028655Y033338D01*
X028695Y033372D01*
X028738Y033404D01*
X028782Y033432D01*
X028829Y033457D01*
X028877Y033478D01*
X028927Y033496D01*
X028978Y033510D01*
X029030Y033520D01*
X028691Y034304D02*
X032570Y034304D01*
X032570Y034303D02*
X032591Y034302D01*
X032612Y034304D01*
X032632Y034309D01*
X032651Y034317D01*
X032668Y034328D01*
X032684Y034341D01*
X032697Y034357D01*
X032708Y034375D01*
X032716Y034394D01*
X032721Y034414D01*
X032720Y034414D02*
X032720Y034810D01*
X032700Y034810D02*
X032670Y034812D01*
X032640Y034817D01*
X032611Y034826D01*
X032584Y034839D01*
X032558Y034854D01*
X032534Y034873D01*
X032513Y034894D01*
X032494Y034918D01*
X032479Y034944D01*
X032466Y034971D01*
X032457Y035000D01*
X032452Y035030D01*
X032450Y035060D01*
X032452Y035090D01*
X032457Y035120D01*
X032466Y035149D01*
X032479Y035176D01*
X032494Y035202D01*
X032513Y035226D01*
X032534Y035247D01*
X032558Y035266D01*
X032584Y035281D01*
X032611Y035294D01*
X032640Y035303D01*
X032670Y035308D01*
X032700Y035310D01*
X032720Y035310D02*
X032720Y035642D01*
X032720Y035647D02*
X032721Y035672D01*
X032719Y035696D01*
X032713Y035720D01*
X032704Y035742D01*
X032691Y035763D01*
X032676Y035782D01*
X032658Y035799D01*
X032638Y035813D01*
X032617Y035824D01*
X032594Y035832D01*
X032570Y035837D01*
X032570Y035836D02*
X028730Y035836D01*
X028707Y035834D01*
X028684Y035829D01*
X028662Y035820D01*
X028642Y035807D01*
X028624Y035792D01*
X028609Y035774D01*
X028596Y035754D01*
X028587Y035732D01*
X028582Y035709D01*
X028580Y035686D01*
X028580Y034454D01*
X028579Y034454D02*
X028578Y034433D01*
X028580Y034412D01*
X028585Y034392D01*
X028593Y034373D01*
X028604Y034356D01*
X028617Y034340D01*
X028633Y034327D01*
X028651Y034316D01*
X028670Y034308D01*
X028690Y034303D01*
X030830Y033520D02*
X030882Y033510D01*
X030933Y033496D01*
X030983Y033478D01*
X031031Y033457D01*
X031078Y033432D01*
X031122Y033404D01*
X031165Y033372D01*
X031205Y033338D01*
X031242Y033300D01*
X031276Y033260D01*
X031308Y033218D01*
X031336Y033173D01*
X031360Y033126D01*
X031381Y033078D01*
X031399Y033028D01*
X031412Y032977D01*
X031422Y032925D01*
X031428Y032873D01*
X031430Y032820D01*
X031428Y032767D01*
X031422Y032715D01*
X031412Y032663D01*
X031399Y032612D01*
X031381Y032562D01*
X031360Y032514D01*
X031336Y032467D01*
X031308Y032422D01*
X031276Y032380D01*
X031242Y032340D01*
X031205Y032302D01*
X031165Y032268D01*
X031122Y032236D01*
X031078Y032208D01*
X031031Y032183D01*
X030983Y032162D01*
X030933Y032144D01*
X030882Y032130D01*
X030830Y032120D01*
X031193Y030659D02*
X031193Y027959D01*
X031195Y027900D01*
X031201Y027842D01*
X031210Y027783D01*
X031224Y027726D01*
X031241Y027670D01*
X031262Y027615D01*
X031286Y027561D01*
X031314Y027509D01*
X031345Y027459D01*
X031379Y027411D01*
X031416Y027366D01*
X031457Y027323D01*
X031500Y027282D01*
X031545Y027245D01*
X031593Y027211D01*
X031643Y027180D01*
X031695Y027152D01*
X031749Y027128D01*
X031804Y027107D01*
X031860Y027090D01*
X031917Y027076D01*
X031976Y027067D01*
X032034Y027061D01*
X032093Y027059D01*
X032152Y027061D01*
X032210Y027067D01*
X032269Y027076D01*
X032326Y027090D01*
X032382Y027107D01*
X032437Y027128D01*
X032491Y027152D01*
X032543Y027180D01*
X032593Y027211D01*
X032641Y027245D01*
X032686Y027282D01*
X032729Y027323D01*
X032770Y027366D01*
X032807Y027411D01*
X032841Y027459D01*
X032872Y027509D01*
X032900Y027561D01*
X032924Y027615D01*
X032945Y027670D01*
X032962Y027726D01*
X032976Y027783D01*
X032985Y027842D01*
X032991Y027900D01*
X032993Y027959D01*
X032993Y030659D01*
X032991Y030718D01*
X032985Y030776D01*
X032976Y030835D01*
X032962Y030892D01*
X032945Y030948D01*
X032924Y031003D01*
X032900Y031057D01*
X032872Y031109D01*
X032841Y031159D01*
X032807Y031207D01*
X032770Y031252D01*
X032729Y031295D01*
X032686Y031336D01*
X032641Y031373D01*
X032593Y031407D01*
X032543Y031438D01*
X032491Y031466D01*
X032437Y031490D01*
X032382Y031511D01*
X032326Y031528D01*
X032269Y031542D01*
X032210Y031551D01*
X032152Y031557D01*
X032093Y031559D01*
X032034Y031557D01*
X031976Y031551D01*
X031917Y031542D01*
X031860Y031528D01*
X031804Y031511D01*
X031749Y031490D01*
X031695Y031466D01*
X031643Y031438D01*
X031593Y031407D01*
X031545Y031373D01*
X031500Y031336D01*
X031457Y031295D01*
X031416Y031252D01*
X031379Y031207D01*
X031345Y031159D01*
X031314Y031109D01*
X031286Y031057D01*
X031262Y031003D01*
X031241Y030948D01*
X031224Y030892D01*
X031210Y030835D01*
X031201Y030776D01*
X031195Y030718D01*
X031193Y030659D01*
X030830Y033520D02*
X030651Y033538D01*
X030471Y033552D01*
X030291Y033562D01*
X030110Y033568D01*
X029930Y033570D01*
X029750Y033568D01*
X029569Y033562D01*
X029389Y033552D01*
X029209Y033538D01*
X029030Y033520D01*
X029030Y032120D02*
X029209Y032102D01*
X029389Y032088D01*
X029569Y032078D01*
X029750Y032072D01*
X029930Y032070D01*
X030110Y032072D01*
X030291Y032078D01*
X030471Y032088D01*
X030651Y032102D01*
X030830Y032120D01*
D13*
X030787Y037509D02*
X030787Y037880D01*
X030910Y037756D01*
X031032Y037818D02*
X031094Y037880D01*
X031217Y037880D01*
X031279Y037818D01*
X031279Y037571D01*
X031217Y037509D01*
X031094Y037509D01*
X031032Y037571D01*
X030910Y037509D02*
X030664Y037509D01*
X030542Y037509D02*
X030542Y037571D01*
X030295Y037818D01*
X030295Y037880D01*
X030542Y037880D01*
X020982Y037094D02*
X020978Y036804D01*
X020833Y036806D01*
X020785Y036855D01*
X020786Y036903D01*
X020835Y036951D01*
X020980Y036949D01*
X020982Y037094D02*
X020837Y037096D01*
X020788Y037048D01*
X020787Y037000D01*
X020835Y036951D01*
X020685Y036953D02*
X020492Y036956D01*
X020492Y037004D02*
X020490Y036811D01*
X020492Y037004D02*
X020590Y037099D01*
X020686Y037001D01*
X020683Y036808D01*
X020292Y036813D02*
X020296Y037104D01*
X020393Y037102D02*
X020199Y037105D01*
X020097Y037010D02*
X020001Y037108D01*
X019997Y036817D01*
X020094Y036816D02*
X019900Y036819D01*
D14*
X023177Y028375D02*
X023102Y028300D01*
X023402Y028000D01*
X023327Y027925D01*
X023177Y027925D01*
X023102Y028000D01*
X023102Y028300D01*
X023177Y028375D02*
X023327Y028375D01*
X023402Y028300D01*
X023402Y028000D01*
X023562Y028000D02*
X023562Y028075D01*
X023637Y028150D01*
X023863Y028150D01*
X023863Y028000D01*
X023788Y027925D01*
X023637Y027925D01*
X023562Y028000D01*
X023713Y028300D02*
X023863Y028150D01*
X023713Y028300D02*
X023562Y028375D01*
X024023Y028375D02*
X024173Y028375D01*
X024098Y028375D02*
X024098Y028000D01*
X024173Y027925D01*
X024248Y027925D01*
X024323Y028000D01*
X024483Y028000D02*
X024558Y027925D01*
X024708Y027925D01*
X024783Y028000D01*
X024783Y028075D01*
X024708Y028150D01*
X024558Y028150D01*
X024483Y028075D01*
X024483Y028000D01*
X024558Y028150D02*
X024483Y028225D01*
X024483Y028300D01*
X024558Y028375D01*
X024708Y028375D01*
X024783Y028300D01*
X024783Y028225D01*
X024708Y028150D01*
X024944Y028225D02*
X024944Y028300D01*
X025019Y028375D01*
X025169Y028375D01*
X025244Y028300D01*
X025404Y028300D02*
X025479Y028375D01*
X025629Y028375D01*
X025704Y028300D01*
X025704Y028000D01*
X025629Y027925D01*
X025479Y027925D01*
X025404Y028000D01*
X025244Y027925D02*
X024944Y028225D01*
X024944Y027925D02*
X025244Y027925D01*
X025864Y027925D02*
X025864Y028375D01*
X026165Y028375D02*
X025864Y027925D01*
X026165Y027925D02*
X026165Y028375D01*
X026325Y028375D02*
X026625Y028375D01*
X026625Y027925D01*
X026325Y027925D01*
X026475Y028150D02*
X026625Y028150D01*
X030950Y025850D02*
X030900Y025720D01*
X031075Y026050D02*
X032725Y026050D01*
X032860Y025840D02*
X032910Y025680D01*
X032453Y025450D02*
X032347Y025450D01*
X032910Y025120D02*
X032850Y024950D01*
X031796Y024175D02*
X031496Y024175D01*
X031646Y024175D02*
X031646Y023725D01*
X031335Y023725D02*
X031035Y024025D01*
X031035Y024100D01*
X031110Y024175D01*
X031260Y024175D01*
X031335Y024100D01*
X031335Y023725D02*
X031035Y023725D01*
X030600Y023940D02*
X030650Y024070D01*
X030475Y023740D02*
X028825Y023740D01*
X028690Y023950D02*
X028640Y024110D01*
X028305Y024115D02*
X028305Y024565D01*
X028455Y024565D02*
X028155Y024565D01*
X027995Y024415D02*
X027844Y024565D01*
X027844Y024115D01*
X027694Y024115D02*
X027995Y024115D01*
X028640Y024670D02*
X028700Y024840D01*
X029097Y024340D02*
X029203Y024340D01*
X030097Y024340D02*
X030203Y024340D01*
X030660Y024670D02*
X030610Y024830D01*
X030940Y024960D02*
X030890Y025120D01*
X031347Y025450D02*
X031453Y025450D01*
X031778Y028804D02*
X032228Y029105D01*
X032153Y029265D02*
X032228Y029340D01*
X032228Y029490D01*
X032153Y029565D01*
X032078Y029565D01*
X031778Y029265D01*
X031778Y029565D01*
X031778Y029105D02*
X032228Y028804D01*
X033184Y033358D02*
X033109Y033433D01*
X033109Y033583D01*
X033184Y033658D01*
X033184Y033818D02*
X033109Y033893D01*
X033109Y034043D01*
X033184Y034118D01*
X033259Y034118D01*
X033334Y034043D01*
X033334Y033968D01*
X033334Y034043D02*
X033409Y034118D01*
X033484Y034118D01*
X033559Y034043D01*
X033559Y033893D01*
X033484Y033818D01*
X033484Y033658D02*
X033559Y033583D01*
X033559Y033433D01*
X033484Y033358D01*
X033184Y033358D01*
X020186Y027060D02*
X020186Y026760D01*
X020111Y026685D01*
X019961Y026685D01*
X019886Y026760D01*
X019725Y026685D02*
X019425Y026685D01*
X019575Y026685D02*
X019575Y027135D01*
X019725Y026985D01*
X019886Y027060D02*
X019961Y027135D01*
X020111Y027135D01*
X020186Y027060D01*
X030675Y019765D02*
X030675Y019465D01*
X030675Y019615D02*
X031125Y019615D01*
X030975Y019465D01*
X030900Y019304D02*
X030900Y019154D01*
X030900Y019304D02*
X030750Y019304D01*
X030675Y019229D01*
X030675Y019079D01*
X030750Y019004D01*
X031050Y019004D01*
X031125Y019079D01*
X031125Y019229D01*
X031050Y019304D01*
X031050Y018844D02*
X031125Y018769D01*
X031125Y018619D01*
X031050Y018544D01*
X030975Y018544D01*
X030900Y018619D01*
X030900Y018769D01*
X030825Y018844D01*
X030750Y018844D01*
X030675Y018769D01*
X030675Y018619D01*
X030750Y018544D01*
D15*
X032150Y020150D02*
X032152Y020194D01*
X032158Y020238D01*
X032168Y020281D01*
X032181Y020323D01*
X032198Y020364D01*
X032219Y020403D01*
X032243Y020440D01*
X032270Y020475D01*
X032300Y020507D01*
X032333Y020537D01*
X032369Y020563D01*
X032406Y020587D01*
X032446Y020606D01*
X032487Y020623D01*
X032530Y020635D01*
X032573Y020644D01*
X032617Y020649D01*
X032661Y020650D01*
X032705Y020647D01*
X032749Y020640D01*
X032792Y020629D01*
X032834Y020615D01*
X032874Y020597D01*
X032913Y020575D01*
X032949Y020551D01*
X032983Y020523D01*
X033015Y020492D01*
X033044Y020458D01*
X033070Y020422D01*
X033092Y020384D01*
X033111Y020344D01*
X033126Y020302D01*
X033138Y020260D01*
X033146Y020216D01*
X033150Y020172D01*
X033150Y020128D01*
X033146Y020084D01*
X033138Y020040D01*
X033126Y019998D01*
X033111Y019956D01*
X033092Y019916D01*
X033070Y019878D01*
X033044Y019842D01*
X033015Y019808D01*
X032983Y019777D01*
X032949Y019749D01*
X032913Y019725D01*
X032874Y019703D01*
X032834Y019685D01*
X032792Y019671D01*
X032749Y019660D01*
X032705Y019653D01*
X032661Y019650D01*
X032617Y019651D01*
X032573Y019656D01*
X032530Y019665D01*
X032487Y019677D01*
X032446Y019694D01*
X032406Y019713D01*
X032369Y019737D01*
X032333Y019763D01*
X032300Y019793D01*
X032270Y019825D01*
X032243Y019860D01*
X032219Y019897D01*
X032198Y019936D01*
X032181Y019977D01*
X032168Y020019D01*
X032158Y020062D01*
X032152Y020106D01*
X032150Y020150D01*
X033400Y021650D02*
X033402Y021694D01*
X033408Y021738D01*
X033418Y021781D01*
X033431Y021823D01*
X033448Y021864D01*
X033469Y021903D01*
X033493Y021940D01*
X033520Y021975D01*
X033550Y022007D01*
X033583Y022037D01*
X033619Y022063D01*
X033656Y022087D01*
X033696Y022106D01*
X033737Y022123D01*
X033780Y022135D01*
X033823Y022144D01*
X033867Y022149D01*
X033911Y022150D01*
X033955Y022147D01*
X033999Y022140D01*
X034042Y022129D01*
X034084Y022115D01*
X034124Y022097D01*
X034163Y022075D01*
X034199Y022051D01*
X034233Y022023D01*
X034265Y021992D01*
X034294Y021958D01*
X034320Y021922D01*
X034342Y021884D01*
X034361Y021844D01*
X034376Y021802D01*
X034388Y021760D01*
X034396Y021716D01*
X034400Y021672D01*
X034400Y021628D01*
X034396Y021584D01*
X034388Y021540D01*
X034376Y021498D01*
X034361Y021456D01*
X034342Y021416D01*
X034320Y021378D01*
X034294Y021342D01*
X034265Y021308D01*
X034233Y021277D01*
X034199Y021249D01*
X034163Y021225D01*
X034124Y021203D01*
X034084Y021185D01*
X034042Y021171D01*
X033999Y021160D01*
X033955Y021153D01*
X033911Y021150D01*
X033867Y021151D01*
X033823Y021156D01*
X033780Y021165D01*
X033737Y021177D01*
X033696Y021194D01*
X033656Y021213D01*
X033619Y021237D01*
X033583Y021263D01*
X033550Y021293D01*
X033520Y021325D01*
X033493Y021360D01*
X033469Y021397D01*
X033448Y021436D01*
X033431Y021477D01*
X033418Y021519D01*
X033408Y021562D01*
X033402Y021606D01*
X033400Y021650D01*
X030750Y021650D02*
X030752Y021762D01*
X030758Y021873D01*
X030768Y021985D01*
X030782Y022096D01*
X030799Y022206D01*
X030821Y022316D01*
X030847Y022425D01*
X030876Y022533D01*
X030909Y022639D01*
X030946Y022745D01*
X030987Y022849D01*
X031032Y022952D01*
X031080Y023053D01*
X031131Y023152D01*
X031186Y023249D01*
X031245Y023344D01*
X031306Y023438D01*
X031371Y023529D01*
X031440Y023617D01*
X031511Y023703D01*
X031585Y023787D01*
X031663Y023867D01*
X031743Y023945D01*
X031826Y024021D01*
X031911Y024093D01*
X031999Y024162D01*
X032089Y024228D01*
X032182Y024290D01*
X032277Y024350D01*
X032374Y024406D01*
X032472Y024458D01*
X032573Y024507D01*
X032675Y024552D01*
X032779Y024594D01*
X032884Y024632D01*
X032991Y024666D01*
X033098Y024696D01*
X033207Y024723D01*
X033316Y024745D01*
X033427Y024764D01*
X033537Y024779D01*
X033649Y024790D01*
X033760Y024797D01*
X033872Y024800D01*
X033984Y024799D01*
X034096Y024794D01*
X034207Y024785D01*
X034318Y024772D01*
X034429Y024755D01*
X034539Y024735D01*
X034648Y024710D01*
X034756Y024682D01*
X034863Y024649D01*
X034969Y024613D01*
X035073Y024573D01*
X035176Y024530D01*
X035278Y024483D01*
X035377Y024432D01*
X035475Y024378D01*
X035571Y024320D01*
X035665Y024259D01*
X035756Y024195D01*
X035845Y024128D01*
X035932Y024057D01*
X036016Y023983D01*
X036098Y023907D01*
X036176Y023827D01*
X036252Y023745D01*
X036325Y023660D01*
X036395Y023573D01*
X036461Y023483D01*
X036525Y023391D01*
X036585Y023297D01*
X036642Y023201D01*
X036695Y023102D01*
X036745Y023002D01*
X036791Y022901D01*
X036834Y022797D01*
X036873Y022692D01*
X036908Y022586D01*
X036939Y022479D01*
X036967Y022370D01*
X036990Y022261D01*
X037010Y022151D01*
X037026Y022040D01*
X037038Y021929D01*
X037046Y021818D01*
X037050Y021706D01*
X037050Y021594D01*
X037046Y021482D01*
X037038Y021371D01*
X037026Y021260D01*
X037010Y021149D01*
X036990Y021039D01*
X036967Y020930D01*
X036939Y020821D01*
X036908Y020714D01*
X036873Y020608D01*
X036834Y020503D01*
X036791Y020399D01*
X036745Y020298D01*
X036695Y020198D01*
X036642Y020099D01*
X036585Y020003D01*
X036525Y019909D01*
X036461Y019817D01*
X036395Y019727D01*
X036325Y019640D01*
X036252Y019555D01*
X036176Y019473D01*
X036098Y019393D01*
X036016Y019317D01*
X035932Y019243D01*
X035845Y019172D01*
X035756Y019105D01*
X035665Y019041D01*
X035571Y018980D01*
X035475Y018922D01*
X035377Y018868D01*
X035278Y018817D01*
X035176Y018770D01*
X035073Y018727D01*
X034969Y018687D01*
X034863Y018651D01*
X034756Y018618D01*
X034648Y018590D01*
X034539Y018565D01*
X034429Y018545D01*
X034318Y018528D01*
X034207Y018515D01*
X034096Y018506D01*
X033984Y018501D01*
X033872Y018500D01*
X033760Y018503D01*
X033649Y018510D01*
X033537Y018521D01*
X033427Y018536D01*
X033316Y018555D01*
X033207Y018577D01*
X033098Y018604D01*
X032991Y018634D01*
X032884Y018668D01*
X032779Y018706D01*
X032675Y018748D01*
X032573Y018793D01*
X032472Y018842D01*
X032374Y018894D01*
X032277Y018950D01*
X032182Y019010D01*
X032089Y019072D01*
X031999Y019138D01*
X031911Y019207D01*
X031826Y019279D01*
X031743Y019355D01*
X031663Y019433D01*
X031585Y019513D01*
X031511Y019597D01*
X031440Y019683D01*
X031371Y019771D01*
X031306Y019862D01*
X031245Y019956D01*
X031186Y020051D01*
X031131Y020148D01*
X031080Y020247D01*
X031032Y020348D01*
X030987Y020451D01*
X030946Y020555D01*
X030909Y020661D01*
X030876Y020767D01*
X030847Y020875D01*
X030821Y020984D01*
X030799Y021094D01*
X030782Y021204D01*
X030768Y021315D01*
X030758Y021427D01*
X030752Y021538D01*
X030750Y021650D01*
X031140Y021650D02*
X031142Y021754D01*
X031148Y021859D01*
X031158Y021963D01*
X031172Y022066D01*
X031189Y022169D01*
X031211Y022271D01*
X031236Y022373D01*
X031266Y022473D01*
X031299Y022572D01*
X031335Y022670D01*
X031376Y022766D01*
X031420Y022861D01*
X031467Y022954D01*
X031519Y023045D01*
X031573Y023134D01*
X031631Y023221D01*
X031692Y023306D01*
X031756Y023388D01*
X031823Y023468D01*
X031894Y023545D01*
X031967Y023620D01*
X032043Y023692D01*
X032121Y023761D01*
X032203Y023826D01*
X032286Y023889D01*
X032372Y023948D01*
X032460Y024005D01*
X032550Y024057D01*
X032642Y024107D01*
X032736Y024153D01*
X032832Y024195D01*
X032929Y024233D01*
X033027Y024268D01*
X033127Y024300D01*
X033228Y024327D01*
X033330Y024350D01*
X033432Y024370D01*
X033535Y024386D01*
X033639Y024398D01*
X033743Y024406D01*
X033848Y024410D01*
X033952Y024410D01*
X034057Y024406D01*
X034161Y024398D01*
X034265Y024386D01*
X034368Y024370D01*
X034470Y024350D01*
X034572Y024327D01*
X034673Y024300D01*
X034773Y024268D01*
X034871Y024233D01*
X034968Y024195D01*
X035064Y024153D01*
X035158Y024107D01*
X035250Y024057D01*
X035340Y024005D01*
X035428Y023948D01*
X035514Y023889D01*
X035597Y023826D01*
X035679Y023761D01*
X035757Y023692D01*
X035833Y023620D01*
X035906Y023545D01*
X035977Y023468D01*
X036044Y023388D01*
X036108Y023306D01*
X036169Y023221D01*
X036227Y023134D01*
X036281Y023045D01*
X036333Y022954D01*
X036380Y022861D01*
X036424Y022766D01*
X036465Y022670D01*
X036501Y022572D01*
X036534Y022473D01*
X036564Y022373D01*
X036589Y022271D01*
X036611Y022169D01*
X036628Y022066D01*
X036642Y021963D01*
X036652Y021859D01*
X036658Y021754D01*
X036660Y021650D01*
X036658Y021546D01*
X036652Y021441D01*
X036642Y021337D01*
X036628Y021234D01*
X036611Y021131D01*
X036589Y021029D01*
X036564Y020927D01*
X036534Y020827D01*
X036501Y020728D01*
X036465Y020630D01*
X036424Y020534D01*
X036380Y020439D01*
X036333Y020346D01*
X036281Y020255D01*
X036227Y020166D01*
X036169Y020079D01*
X036108Y019994D01*
X036044Y019912D01*
X035977Y019832D01*
X035906Y019755D01*
X035833Y019680D01*
X035757Y019608D01*
X035679Y019539D01*
X035597Y019474D01*
X035514Y019411D01*
X035428Y019352D01*
X035340Y019295D01*
X035250Y019243D01*
X035158Y019193D01*
X035064Y019147D01*
X034968Y019105D01*
X034871Y019067D01*
X034773Y019032D01*
X034673Y019000D01*
X034572Y018973D01*
X034470Y018950D01*
X034368Y018930D01*
X034265Y018914D01*
X034161Y018902D01*
X034057Y018894D01*
X033952Y018890D01*
X033848Y018890D01*
X033743Y018894D01*
X033639Y018902D01*
X033535Y018914D01*
X033432Y018930D01*
X033330Y018950D01*
X033228Y018973D01*
X033127Y019000D01*
X033027Y019032D01*
X032929Y019067D01*
X032832Y019105D01*
X032736Y019147D01*
X032642Y019193D01*
X032550Y019243D01*
X032460Y019295D01*
X032372Y019352D01*
X032286Y019411D01*
X032203Y019474D01*
X032121Y019539D01*
X032043Y019608D01*
X031967Y019680D01*
X031894Y019755D01*
X031823Y019832D01*
X031756Y019912D01*
X031692Y019994D01*
X031631Y020079D01*
X031573Y020166D01*
X031519Y020255D01*
X031467Y020346D01*
X031420Y020439D01*
X031376Y020534D01*
X031335Y020630D01*
X031299Y020728D01*
X031266Y020827D01*
X031236Y020927D01*
X031211Y021029D01*
X031189Y021131D01*
X031172Y021234D01*
X031158Y021337D01*
X031148Y021441D01*
X031142Y021546D01*
X031140Y021650D01*
X026650Y025900D02*
X026650Y027400D01*
X026400Y027650D01*
X025900Y027650D01*
X025650Y027400D01*
X025650Y025900D01*
X025400Y025650D01*
X024900Y025650D01*
X024650Y025900D01*
X024650Y027400D01*
X024400Y027650D01*
X023900Y027650D01*
X023650Y027400D01*
X023650Y025900D01*
X023400Y025650D01*
X022900Y025650D01*
X022650Y025900D01*
X022400Y025650D01*
X021900Y025650D01*
X021650Y025900D01*
X021650Y027400D01*
X021900Y027650D01*
X022400Y027650D01*
X022650Y027400D01*
X022650Y025900D01*
X023650Y025900D02*
X023900Y025650D01*
X024400Y025650D01*
X024650Y025900D01*
X025650Y025900D02*
X025900Y025650D01*
X026400Y025650D01*
X026650Y025900D01*
X025650Y027400D02*
X025400Y027650D01*
X024900Y027650D01*
X024650Y027400D01*
X023650Y027400D02*
X023400Y027650D01*
X022900Y027650D01*
X022650Y027400D01*
X021100Y025100D02*
X021100Y024900D01*
X021000Y025000D02*
X021200Y025000D01*
X019400Y025400D02*
X019402Y025463D01*
X019408Y025525D01*
X019418Y025587D01*
X019431Y025649D01*
X019449Y025709D01*
X019470Y025768D01*
X019495Y025826D01*
X019524Y025882D01*
X019556Y025936D01*
X019591Y025988D01*
X019629Y026037D01*
X019671Y026085D01*
X019715Y026129D01*
X019763Y026171D01*
X019812Y026209D01*
X019864Y026244D01*
X019918Y026276D01*
X019974Y026305D01*
X020032Y026330D01*
X020091Y026351D01*
X020151Y026369D01*
X020213Y026382D01*
X020275Y026392D01*
X020337Y026398D01*
X020400Y026400D01*
X020463Y026398D01*
X020525Y026392D01*
X020587Y026382D01*
X020649Y026369D01*
X020709Y026351D01*
X020768Y026330D01*
X020826Y026305D01*
X020882Y026276D01*
X020936Y026244D01*
X020988Y026209D01*
X021037Y026171D01*
X021085Y026129D01*
X021129Y026085D01*
X021171Y026037D01*
X021209Y025988D01*
X021244Y025936D01*
X021276Y025882D01*
X021305Y025826D01*
X021330Y025768D01*
X021351Y025709D01*
X021369Y025649D01*
X021382Y025587D01*
X021392Y025525D01*
X021398Y025463D01*
X021400Y025400D01*
X021398Y025337D01*
X021392Y025275D01*
X021382Y025213D01*
X021369Y025151D01*
X021351Y025091D01*
X021330Y025032D01*
X021305Y024974D01*
X021276Y024918D01*
X021244Y024864D01*
X021209Y024812D01*
X021171Y024763D01*
X021129Y024715D01*
X021085Y024671D01*
X021037Y024629D01*
X020988Y024591D01*
X020936Y024556D01*
X020882Y024524D01*
X020826Y024495D01*
X020768Y024470D01*
X020709Y024449D01*
X020649Y024431D01*
X020587Y024418D01*
X020525Y024408D01*
X020463Y024402D01*
X020400Y024400D01*
X020337Y024402D01*
X020275Y024408D01*
X020213Y024418D01*
X020151Y024431D01*
X020091Y024449D01*
X020032Y024470D01*
X019974Y024495D01*
X019918Y024524D01*
X019864Y024556D01*
X019812Y024591D01*
X019763Y024629D01*
X019715Y024671D01*
X019671Y024715D01*
X019629Y024763D01*
X019591Y024812D01*
X019556Y024864D01*
X019524Y024918D01*
X019495Y024974D01*
X019470Y025032D01*
X019449Y025091D01*
X019431Y025151D01*
X019418Y025213D01*
X019408Y025275D01*
X019402Y025337D01*
X019400Y025400D01*
X018217Y025642D02*
X018217Y027658D01*
X018217Y028142D02*
X018217Y030158D01*
X026358Y034533D02*
X026608Y034283D01*
X028108Y034283D01*
X028358Y034533D01*
X028358Y035033D01*
X028108Y035283D01*
X026608Y035283D01*
X026358Y035533D01*
X026358Y036033D01*
X026608Y036283D01*
X026358Y036533D01*
X026358Y037033D01*
X026608Y037283D01*
X028108Y037283D01*
X028358Y037033D01*
X028358Y036533D01*
X028108Y036283D01*
X026608Y036283D01*
X026608Y035283D02*
X026358Y035033D01*
X026358Y034533D01*
X028108Y035283D02*
X028358Y035533D01*
X028358Y036033D01*
X028108Y036283D01*
X027349Y030931D02*
X029969Y030931D01*
X030109Y030792D01*
X030109Y028171D01*
X027349Y028171D01*
X027349Y030931D01*
X029668Y030631D02*
X029670Y030654D01*
X029676Y030677D01*
X029685Y030698D01*
X029698Y030718D01*
X029714Y030735D01*
X029732Y030749D01*
X029752Y030760D01*
X029774Y030768D01*
X029797Y030772D01*
X029821Y030772D01*
X029844Y030768D01*
X029866Y030760D01*
X029886Y030749D01*
X029904Y030735D01*
X029920Y030718D01*
X029933Y030698D01*
X029942Y030677D01*
X029948Y030654D01*
X029950Y030631D01*
X029948Y030608D01*
X029942Y030585D01*
X029933Y030564D01*
X029920Y030544D01*
X029904Y030527D01*
X029886Y030513D01*
X029866Y030502D01*
X029844Y030494D01*
X029821Y030490D01*
X029797Y030490D01*
X029774Y030494D01*
X029752Y030502D01*
X029732Y030513D01*
X029714Y030527D01*
X029698Y030544D01*
X029685Y030564D01*
X029676Y030585D01*
X029670Y030608D01*
X029668Y030631D01*
D16*
X029727Y031556D02*
X029827Y031556D01*
X029777Y031556D02*
X029777Y031707D01*
X029827Y031657D01*
X029874Y031707D02*
X029874Y031581D01*
X029899Y031556D01*
X029949Y031556D01*
X029974Y031581D01*
X029974Y031707D01*
D17*
X031056Y026062D02*
X031092Y026034D01*
X031091Y026034D02*
X031057Y025988D01*
X031026Y025941D01*
X030997Y025891D01*
X030971Y025840D01*
X030931Y025859D01*
X030930Y025859D01*
X030957Y025913D01*
X030987Y025964D01*
X031020Y026014D01*
X031056Y026062D01*
X031059Y026060D01*
X031023Y026012D01*
X030991Y025962D01*
X030961Y025911D01*
X030934Y025858D01*
X030938Y025856D01*
X030964Y025909D01*
X030994Y025960D01*
X031027Y026010D01*
X031062Y026057D01*
X031065Y026055D01*
X031030Y026007D01*
X030998Y025958D01*
X030968Y025907D01*
X030941Y025854D01*
X030945Y025852D01*
X030971Y025905D01*
X031001Y025956D01*
X031033Y026005D01*
X031068Y026052D01*
X031072Y026050D01*
X031037Y026003D01*
X031004Y025954D01*
X030975Y025903D01*
X030948Y025851D01*
X030952Y025849D01*
X030978Y025901D01*
X031008Y025952D01*
X031040Y026000D01*
X031075Y026047D01*
X031078Y026045D01*
X031043Y025998D01*
X031011Y025950D01*
X030982Y025899D01*
X030956Y025847D01*
X030959Y025846D01*
X030985Y025897D01*
X031015Y025947D01*
X031046Y025996D01*
X031081Y026042D01*
X031084Y026040D01*
X031050Y025994D01*
X031018Y025945D01*
X030989Y025895D01*
X030963Y025844D01*
X030966Y025842D01*
X030993Y025894D01*
X031021Y025943D01*
X031053Y025991D01*
X031087Y026038D01*
X031090Y026035D01*
X031056Y025989D01*
X031025Y025941D01*
X030996Y025892D01*
X030970Y025841D01*
X030931Y024941D02*
X030971Y024960D01*
X031000Y024904D01*
X031031Y024850D01*
X031067Y024798D01*
X031105Y024749D01*
X031146Y024701D01*
X031190Y024657D01*
X031237Y024615D01*
X031286Y024576D01*
X031337Y024540D01*
X031391Y024507D01*
X031446Y024478D01*
X031503Y024452D01*
X031562Y024429D01*
X031621Y024410D01*
X031682Y024395D01*
X031744Y024384D01*
X031806Y024376D01*
X031869Y024372D01*
X031931Y024372D01*
X031994Y024376D01*
X032056Y024384D01*
X032118Y024395D01*
X032179Y024410D01*
X032238Y024429D01*
X032297Y024452D01*
X032354Y024478D01*
X032409Y024507D01*
X032463Y024540D01*
X032514Y024576D01*
X032563Y024615D01*
X032610Y024657D01*
X032654Y024701D01*
X032695Y024749D01*
X032733Y024798D01*
X032769Y024850D01*
X032800Y024904D01*
X032829Y024960D01*
X032869Y024941D01*
X032870Y024941D01*
X032840Y024882D01*
X032807Y024826D01*
X032770Y024772D01*
X032730Y024720D01*
X032687Y024671D01*
X032641Y024624D01*
X032592Y024580D01*
X032541Y024540D01*
X032488Y024502D01*
X032432Y024468D01*
X032374Y024437D01*
X032314Y024410D01*
X032253Y024387D01*
X032191Y024367D01*
X032127Y024351D01*
X032063Y024339D01*
X031998Y024331D01*
X031933Y024327D01*
X031867Y024327D01*
X031802Y024331D01*
X031737Y024339D01*
X031673Y024351D01*
X031609Y024367D01*
X031547Y024387D01*
X031486Y024410D01*
X031426Y024437D01*
X031368Y024468D01*
X031312Y024502D01*
X031259Y024540D01*
X031208Y024580D01*
X031159Y024624D01*
X031113Y024671D01*
X031070Y024720D01*
X031030Y024772D01*
X030993Y024826D01*
X030960Y024882D01*
X030930Y024941D01*
X030934Y024942D01*
X030964Y024884D01*
X030997Y024828D01*
X031033Y024774D01*
X031073Y024723D01*
X031116Y024673D01*
X031162Y024627D01*
X031210Y024583D01*
X031261Y024543D01*
X031315Y024506D01*
X031370Y024472D01*
X031428Y024441D01*
X031487Y024414D01*
X031548Y024391D01*
X031610Y024371D01*
X031674Y024355D01*
X031738Y024343D01*
X031802Y024335D01*
X031867Y024331D01*
X031933Y024331D01*
X031998Y024335D01*
X032062Y024343D01*
X032126Y024355D01*
X032190Y024371D01*
X032252Y024391D01*
X032313Y024414D01*
X032372Y024441D01*
X032430Y024472D01*
X032485Y024506D01*
X032539Y024543D01*
X032590Y024583D01*
X032638Y024627D01*
X032684Y024673D01*
X032727Y024723D01*
X032767Y024774D01*
X032803Y024828D01*
X032836Y024884D01*
X032866Y024942D01*
X032863Y024944D01*
X032833Y024886D01*
X032800Y024830D01*
X032763Y024777D01*
X032724Y024725D01*
X032681Y024676D01*
X032636Y024630D01*
X032587Y024586D01*
X032536Y024546D01*
X032483Y024509D01*
X032428Y024475D01*
X032370Y024445D01*
X032311Y024418D01*
X032251Y024394D01*
X032189Y024375D01*
X032126Y024359D01*
X032062Y024347D01*
X031997Y024339D01*
X031932Y024335D01*
X031868Y024335D01*
X031803Y024339D01*
X031738Y024347D01*
X031674Y024359D01*
X031611Y024375D01*
X031549Y024394D01*
X031489Y024418D01*
X031430Y024445D01*
X031372Y024475D01*
X031317Y024509D01*
X031264Y024546D01*
X031213Y024586D01*
X031164Y024630D01*
X031119Y024676D01*
X031076Y024725D01*
X031037Y024777D01*
X031000Y024830D01*
X030967Y024886D01*
X030937Y024944D01*
X030941Y024946D01*
X030971Y024888D01*
X031004Y024833D01*
X031040Y024779D01*
X031079Y024728D01*
X031122Y024679D01*
X031167Y024633D01*
X031215Y024590D01*
X031266Y024549D01*
X031319Y024512D01*
X031374Y024478D01*
X031431Y024448D01*
X031490Y024421D01*
X031551Y024398D01*
X031612Y024379D01*
X031675Y024363D01*
X031739Y024351D01*
X031803Y024343D01*
X031868Y024339D01*
X031932Y024339D01*
X031997Y024343D01*
X032061Y024351D01*
X032125Y024363D01*
X032188Y024379D01*
X032249Y024398D01*
X032310Y024421D01*
X032369Y024448D01*
X032426Y024478D01*
X032481Y024512D01*
X032534Y024549D01*
X032585Y024590D01*
X032633Y024633D01*
X032678Y024679D01*
X032721Y024728D01*
X032760Y024779D01*
X032796Y024833D01*
X032829Y024888D01*
X032859Y024946D01*
X032855Y024948D01*
X032826Y024890D01*
X032793Y024835D01*
X032757Y024781D01*
X032718Y024730D01*
X032675Y024682D01*
X032630Y024636D01*
X032582Y024593D01*
X032532Y024552D01*
X032479Y024516D01*
X032424Y024482D01*
X032367Y024452D01*
X032308Y024425D01*
X032248Y024402D01*
X032187Y024383D01*
X032124Y024367D01*
X032061Y024355D01*
X031997Y024347D01*
X031932Y024343D01*
X031868Y024343D01*
X031803Y024347D01*
X031739Y024355D01*
X031676Y024367D01*
X031613Y024383D01*
X031552Y024402D01*
X031492Y024425D01*
X031433Y024452D01*
X031376Y024482D01*
X031321Y024516D01*
X031268Y024552D01*
X031218Y024593D01*
X031170Y024636D01*
X031125Y024682D01*
X031082Y024730D01*
X031043Y024781D01*
X031007Y024835D01*
X030974Y024890D01*
X030945Y024948D01*
X030948Y024949D01*
X030978Y024892D01*
X031010Y024837D01*
X031046Y024784D01*
X031085Y024733D01*
X031128Y024684D01*
X031173Y024639D01*
X031220Y024596D01*
X031271Y024556D01*
X031323Y024519D01*
X031378Y024485D01*
X031435Y024455D01*
X031493Y024429D01*
X031553Y024406D01*
X031615Y024386D01*
X031677Y024371D01*
X031740Y024359D01*
X031804Y024351D01*
X031868Y024347D01*
X031932Y024347D01*
X031996Y024351D01*
X032060Y024359D01*
X032123Y024371D01*
X032185Y024386D01*
X032247Y024406D01*
X032307Y024429D01*
X032365Y024455D01*
X032422Y024485D01*
X032477Y024519D01*
X032529Y024556D01*
X032580Y024596D01*
X032627Y024639D01*
X032672Y024684D01*
X032715Y024733D01*
X032754Y024784D01*
X032790Y024837D01*
X032822Y024892D01*
X032852Y024949D01*
X032848Y024951D01*
X032819Y024894D01*
X032786Y024839D01*
X032750Y024786D01*
X032711Y024735D01*
X032669Y024687D01*
X032625Y024641D01*
X032577Y024599D01*
X032527Y024559D01*
X032474Y024522D01*
X032420Y024489D01*
X032363Y024459D01*
X032305Y024432D01*
X032245Y024409D01*
X032184Y024390D01*
X032122Y024375D01*
X032059Y024363D01*
X031996Y024355D01*
X031932Y024351D01*
X031868Y024351D01*
X031804Y024355D01*
X031741Y024363D01*
X031678Y024375D01*
X031616Y024390D01*
X031555Y024409D01*
X031495Y024432D01*
X031437Y024459D01*
X031380Y024489D01*
X031326Y024522D01*
X031273Y024559D01*
X031223Y024599D01*
X031175Y024641D01*
X031131Y024687D01*
X031089Y024735D01*
X031050Y024786D01*
X031014Y024839D01*
X030981Y024894D01*
X030952Y024951D01*
X030956Y024953D01*
X030985Y024896D01*
X031017Y024841D01*
X031053Y024788D01*
X031092Y024738D01*
X031133Y024690D01*
X031178Y024644D01*
X031226Y024602D01*
X031276Y024562D01*
X031328Y024526D01*
X031382Y024492D01*
X031438Y024462D01*
X031496Y024436D01*
X031556Y024413D01*
X031617Y024394D01*
X031679Y024379D01*
X031741Y024367D01*
X031805Y024359D01*
X031868Y024355D01*
X031932Y024355D01*
X031995Y024359D01*
X032059Y024367D01*
X032121Y024379D01*
X032183Y024394D01*
X032244Y024413D01*
X032304Y024436D01*
X032362Y024462D01*
X032418Y024492D01*
X032472Y024526D01*
X032524Y024562D01*
X032574Y024602D01*
X032622Y024644D01*
X032667Y024690D01*
X032708Y024738D01*
X032747Y024788D01*
X032783Y024841D01*
X032815Y024896D01*
X032844Y024953D01*
X032841Y024954D01*
X032812Y024898D01*
X032780Y024843D01*
X032744Y024791D01*
X032705Y024740D01*
X032664Y024692D01*
X032619Y024647D01*
X032572Y024605D01*
X032522Y024565D01*
X032470Y024529D01*
X032416Y024496D01*
X032360Y024466D01*
X032302Y024440D01*
X032243Y024417D01*
X032182Y024398D01*
X032121Y024383D01*
X032058Y024371D01*
X031995Y024363D01*
X031932Y024359D01*
X031868Y024359D01*
X031805Y024363D01*
X031742Y024371D01*
X031679Y024383D01*
X031618Y024398D01*
X031557Y024417D01*
X031498Y024440D01*
X031440Y024466D01*
X031384Y024496D01*
X031330Y024529D01*
X031278Y024565D01*
X031228Y024605D01*
X031181Y024647D01*
X031136Y024692D01*
X031095Y024740D01*
X031056Y024791D01*
X031020Y024843D01*
X030988Y024898D01*
X030959Y024954D01*
X030963Y024956D01*
X030992Y024900D01*
X031024Y024845D01*
X031059Y024793D01*
X031098Y024743D01*
X031139Y024695D01*
X031184Y024650D01*
X031231Y024608D01*
X031280Y024569D01*
X031332Y024532D01*
X031386Y024499D01*
X031442Y024470D01*
X031500Y024443D01*
X031559Y024421D01*
X031619Y024402D01*
X031680Y024387D01*
X031742Y024375D01*
X031805Y024367D01*
X031868Y024363D01*
X031932Y024363D01*
X031995Y024367D01*
X032058Y024375D01*
X032120Y024387D01*
X032181Y024402D01*
X032241Y024421D01*
X032300Y024443D01*
X032358Y024470D01*
X032414Y024499D01*
X032468Y024532D01*
X032520Y024569D01*
X032569Y024608D01*
X032616Y024650D01*
X032661Y024695D01*
X032702Y024743D01*
X032741Y024793D01*
X032776Y024845D01*
X032808Y024900D01*
X032837Y024956D01*
X032834Y024958D01*
X032805Y024902D01*
X032773Y024847D01*
X032737Y024795D01*
X032699Y024745D01*
X032658Y024698D01*
X032613Y024653D01*
X032567Y024611D01*
X032517Y024572D01*
X032466Y024536D01*
X032412Y024503D01*
X032356Y024473D01*
X032299Y024447D01*
X032240Y024425D01*
X032180Y024406D01*
X032119Y024390D01*
X032057Y024379D01*
X031994Y024371D01*
X031931Y024367D01*
X031869Y024367D01*
X031806Y024371D01*
X031743Y024379D01*
X031681Y024390D01*
X031620Y024406D01*
X031560Y024425D01*
X031501Y024447D01*
X031444Y024473D01*
X031388Y024503D01*
X031334Y024536D01*
X031283Y024572D01*
X031233Y024611D01*
X031187Y024653D01*
X031142Y024698D01*
X031101Y024745D01*
X031063Y024795D01*
X031027Y024847D01*
X030995Y024902D01*
X030966Y024958D01*
X030970Y024959D01*
X030999Y024904D01*
X031031Y024850D01*
X031066Y024798D01*
X031104Y024748D01*
X031145Y024701D01*
X031189Y024656D01*
X031236Y024614D01*
X031285Y024575D01*
X031337Y024539D01*
X031390Y024506D01*
X031446Y024477D01*
X031503Y024451D01*
X031561Y024428D01*
X031621Y024410D01*
X031682Y024394D01*
X031744Y024383D01*
X031806Y024375D01*
X031869Y024371D01*
X031931Y024371D01*
X031994Y024375D01*
X032056Y024383D01*
X032118Y024394D01*
X032179Y024410D01*
X032239Y024428D01*
X032297Y024451D01*
X032354Y024477D01*
X032410Y024506D01*
X032463Y024539D01*
X032515Y024575D01*
X032564Y024614D01*
X032611Y024656D01*
X032655Y024701D01*
X032696Y024748D01*
X032734Y024798D01*
X032769Y024850D01*
X032801Y024904D01*
X032830Y024959D01*
X032874Y025849D02*
X032833Y025830D01*
X032833Y025831D02*
X032807Y025884D01*
X032777Y025936D01*
X032744Y025986D01*
X032709Y026034D01*
X032744Y026062D01*
X032781Y026012D01*
X032815Y025960D01*
X032846Y025906D01*
X032874Y025850D01*
X032871Y025848D01*
X032843Y025904D01*
X032812Y025958D01*
X032778Y026010D01*
X032741Y026060D01*
X032738Y026057D01*
X032775Y026007D01*
X032809Y025956D01*
X032839Y025902D01*
X032867Y025846D01*
X032863Y025845D01*
X032836Y025900D01*
X032805Y025953D01*
X032771Y026005D01*
X032735Y026055D01*
X032732Y026052D01*
X032768Y026003D01*
X032802Y025951D01*
X032832Y025898D01*
X032860Y025843D01*
X032856Y025841D01*
X032829Y025896D01*
X032798Y025949D01*
X032765Y026001D01*
X032728Y026050D01*
X032725Y026047D01*
X032762Y025998D01*
X032795Y025947D01*
X032825Y025894D01*
X032852Y025840D01*
X032849Y025838D01*
X032822Y025892D01*
X032792Y025945D01*
X032758Y025996D01*
X032722Y026045D01*
X032719Y026042D01*
X032755Y025994D01*
X032788Y025943D01*
X032818Y025890D01*
X032845Y025836D01*
X032842Y025835D01*
X032815Y025889D01*
X032785Y025941D01*
X032752Y025991D01*
X032716Y026040D01*
X032713Y026038D01*
X032748Y025989D01*
X032781Y025939D01*
X032811Y025887D01*
X032838Y025833D01*
X032834Y025831D01*
X032808Y025885D01*
X032778Y025937D01*
X032745Y025987D01*
X032710Y026035D01*
X030494Y023728D02*
X030458Y023756D01*
X030459Y023756D02*
X030493Y023802D01*
X030524Y023849D01*
X030553Y023899D01*
X030579Y023950D01*
X030619Y023931D01*
X030620Y023931D01*
X030593Y023877D01*
X030563Y023826D01*
X030530Y023776D01*
X030494Y023728D01*
X030491Y023730D01*
X030527Y023778D01*
X030559Y023828D01*
X030589Y023879D01*
X030616Y023932D01*
X030612Y023934D01*
X030586Y023881D01*
X030556Y023830D01*
X030523Y023780D01*
X030488Y023733D01*
X030485Y023735D01*
X030520Y023783D01*
X030552Y023832D01*
X030582Y023883D01*
X030609Y023936D01*
X030605Y023938D01*
X030579Y023885D01*
X030549Y023834D01*
X030517Y023785D01*
X030482Y023738D01*
X030478Y023740D01*
X030513Y023787D01*
X030546Y023836D01*
X030575Y023887D01*
X030602Y023939D01*
X030598Y023941D01*
X030572Y023889D01*
X030542Y023838D01*
X030510Y023790D01*
X030475Y023743D01*
X030472Y023745D01*
X030507Y023792D01*
X030539Y023840D01*
X030568Y023891D01*
X030594Y023943D01*
X030591Y023944D01*
X030565Y023893D01*
X030535Y023843D01*
X030504Y023794D01*
X030469Y023748D01*
X030466Y023750D01*
X030500Y023796D01*
X030532Y023845D01*
X030561Y023895D01*
X030587Y023946D01*
X030584Y023948D01*
X030557Y023896D01*
X030529Y023847D01*
X030497Y023799D01*
X030463Y023752D01*
X030460Y023755D01*
X030494Y023801D01*
X030525Y023849D01*
X030554Y023898D01*
X030580Y023949D01*
X030619Y024849D02*
X030579Y024830D01*
X030550Y024886D01*
X030519Y024940D01*
X030483Y024992D01*
X030445Y025041D01*
X030404Y025089D01*
X030360Y025133D01*
X030313Y025175D01*
X030264Y025214D01*
X030213Y025250D01*
X030159Y025283D01*
X030104Y025312D01*
X030047Y025338D01*
X029988Y025361D01*
X029929Y025380D01*
X029868Y025395D01*
X029806Y025406D01*
X029744Y025414D01*
X029681Y025418D01*
X029619Y025418D01*
X029556Y025414D01*
X029494Y025406D01*
X029432Y025395D01*
X029371Y025380D01*
X029312Y025361D01*
X029253Y025338D01*
X029196Y025312D01*
X029141Y025283D01*
X029087Y025250D01*
X029036Y025214D01*
X028987Y025175D01*
X028940Y025133D01*
X028896Y025089D01*
X028855Y025041D01*
X028817Y024992D01*
X028781Y024940D01*
X028750Y024886D01*
X028721Y024830D01*
X028681Y024849D01*
X028680Y024849D01*
X028710Y024908D01*
X028743Y024964D01*
X028780Y025018D01*
X028820Y025070D01*
X028863Y025119D01*
X028909Y025166D01*
X028958Y025210D01*
X029009Y025250D01*
X029062Y025288D01*
X029118Y025322D01*
X029176Y025353D01*
X029236Y025380D01*
X029297Y025403D01*
X029359Y025423D01*
X029423Y025439D01*
X029487Y025451D01*
X029552Y025459D01*
X029617Y025463D01*
X029683Y025463D01*
X029748Y025459D01*
X029813Y025451D01*
X029877Y025439D01*
X029941Y025423D01*
X030003Y025403D01*
X030064Y025380D01*
X030124Y025353D01*
X030182Y025322D01*
X030238Y025288D01*
X030291Y025250D01*
X030342Y025210D01*
X030391Y025166D01*
X030437Y025119D01*
X030480Y025070D01*
X030520Y025018D01*
X030557Y024964D01*
X030590Y024908D01*
X030620Y024849D01*
X030616Y024848D01*
X030586Y024906D01*
X030553Y024962D01*
X030517Y025016D01*
X030477Y025067D01*
X030434Y025117D01*
X030388Y025163D01*
X030340Y025207D01*
X030289Y025247D01*
X030235Y025284D01*
X030180Y025318D01*
X030122Y025349D01*
X030063Y025376D01*
X030002Y025399D01*
X029940Y025419D01*
X029876Y025435D01*
X029812Y025447D01*
X029748Y025455D01*
X029683Y025459D01*
X029617Y025459D01*
X029552Y025455D01*
X029488Y025447D01*
X029424Y025435D01*
X029360Y025419D01*
X029298Y025399D01*
X029237Y025376D01*
X029178Y025349D01*
X029120Y025318D01*
X029065Y025284D01*
X029011Y025247D01*
X028960Y025207D01*
X028912Y025163D01*
X028866Y025117D01*
X028823Y025067D01*
X028783Y025016D01*
X028747Y024962D01*
X028714Y024906D01*
X028684Y024848D01*
X028687Y024846D01*
X028717Y024904D01*
X028750Y024960D01*
X028787Y025013D01*
X028826Y025065D01*
X028869Y025114D01*
X028914Y025160D01*
X028963Y025204D01*
X029014Y025244D01*
X029067Y025281D01*
X029122Y025315D01*
X029180Y025345D01*
X029239Y025372D01*
X029299Y025396D01*
X029361Y025415D01*
X029424Y025431D01*
X029488Y025443D01*
X029553Y025451D01*
X029618Y025455D01*
X029682Y025455D01*
X029747Y025451D01*
X029812Y025443D01*
X029876Y025431D01*
X029939Y025415D01*
X030001Y025396D01*
X030061Y025372D01*
X030120Y025345D01*
X030178Y025315D01*
X030233Y025281D01*
X030286Y025244D01*
X030337Y025204D01*
X030386Y025160D01*
X030431Y025114D01*
X030474Y025065D01*
X030513Y025013D01*
X030550Y024960D01*
X030583Y024904D01*
X030613Y024846D01*
X030609Y024844D01*
X030579Y024902D01*
X030546Y024957D01*
X030510Y025011D01*
X030471Y025062D01*
X030428Y025111D01*
X030383Y025157D01*
X030335Y025200D01*
X030284Y025241D01*
X030231Y025278D01*
X030176Y025312D01*
X030119Y025342D01*
X030060Y025369D01*
X029999Y025392D01*
X029938Y025411D01*
X029875Y025427D01*
X029811Y025439D01*
X029747Y025447D01*
X029682Y025451D01*
X029618Y025451D01*
X029553Y025447D01*
X029489Y025439D01*
X029425Y025427D01*
X029362Y025411D01*
X029301Y025392D01*
X029240Y025369D01*
X029181Y025342D01*
X029124Y025312D01*
X029069Y025278D01*
X029016Y025241D01*
X028965Y025200D01*
X028917Y025157D01*
X028872Y025111D01*
X028829Y025062D01*
X028790Y025011D01*
X028754Y024957D01*
X028721Y024902D01*
X028691Y024844D01*
X028695Y024842D01*
X028724Y024900D01*
X028757Y024955D01*
X028793Y025009D01*
X028832Y025060D01*
X028875Y025108D01*
X028920Y025154D01*
X028968Y025197D01*
X029018Y025238D01*
X029071Y025274D01*
X029126Y025308D01*
X029183Y025338D01*
X029242Y025365D01*
X029302Y025388D01*
X029363Y025407D01*
X029426Y025423D01*
X029489Y025435D01*
X029553Y025443D01*
X029618Y025447D01*
X029682Y025447D01*
X029747Y025443D01*
X029811Y025435D01*
X029874Y025423D01*
X029937Y025407D01*
X029998Y025388D01*
X030058Y025365D01*
X030117Y025338D01*
X030174Y025308D01*
X030229Y025274D01*
X030282Y025238D01*
X030332Y025197D01*
X030380Y025154D01*
X030425Y025108D01*
X030468Y025060D01*
X030507Y025009D01*
X030543Y024955D01*
X030576Y024900D01*
X030605Y024842D01*
X030602Y024841D01*
X030572Y024898D01*
X030540Y024953D01*
X030504Y025006D01*
X030465Y025057D01*
X030422Y025106D01*
X030377Y025151D01*
X030330Y025194D01*
X030279Y025234D01*
X030227Y025271D01*
X030172Y025305D01*
X030115Y025335D01*
X030057Y025361D01*
X029997Y025384D01*
X029935Y025404D01*
X029873Y025419D01*
X029810Y025431D01*
X029746Y025439D01*
X029682Y025443D01*
X029618Y025443D01*
X029554Y025439D01*
X029490Y025431D01*
X029427Y025419D01*
X029365Y025404D01*
X029303Y025384D01*
X029243Y025361D01*
X029185Y025335D01*
X029128Y025305D01*
X029073Y025271D01*
X029021Y025234D01*
X028970Y025194D01*
X028923Y025151D01*
X028878Y025106D01*
X028835Y025057D01*
X028796Y025006D01*
X028760Y024953D01*
X028728Y024898D01*
X028698Y024841D01*
X028702Y024839D01*
X028731Y024896D01*
X028764Y024951D01*
X028800Y025004D01*
X028839Y025055D01*
X028881Y025103D01*
X028925Y025149D01*
X028973Y025191D01*
X029023Y025231D01*
X029076Y025268D01*
X029130Y025301D01*
X029187Y025331D01*
X029245Y025358D01*
X029305Y025381D01*
X029366Y025400D01*
X029428Y025415D01*
X029491Y025427D01*
X029554Y025435D01*
X029618Y025439D01*
X029682Y025439D01*
X029746Y025435D01*
X029809Y025427D01*
X029872Y025415D01*
X029934Y025400D01*
X029995Y025381D01*
X030055Y025358D01*
X030113Y025331D01*
X030170Y025301D01*
X030224Y025268D01*
X030277Y025231D01*
X030327Y025191D01*
X030375Y025149D01*
X030419Y025103D01*
X030461Y025055D01*
X030500Y025004D01*
X030536Y024951D01*
X030569Y024896D01*
X030598Y024839D01*
X030594Y024837D01*
X030565Y024894D01*
X030533Y024949D01*
X030497Y025002D01*
X030458Y025052D01*
X030417Y025100D01*
X030372Y025146D01*
X030324Y025188D01*
X030274Y025228D01*
X030222Y025264D01*
X030168Y025298D01*
X030112Y025328D01*
X030054Y025354D01*
X029994Y025377D01*
X029933Y025396D01*
X029871Y025411D01*
X029809Y025423D01*
X029745Y025431D01*
X029682Y025435D01*
X029618Y025435D01*
X029555Y025431D01*
X029491Y025423D01*
X029429Y025411D01*
X029367Y025396D01*
X029306Y025377D01*
X029246Y025354D01*
X029188Y025328D01*
X029132Y025298D01*
X029078Y025264D01*
X029026Y025228D01*
X028976Y025188D01*
X028928Y025146D01*
X028883Y025100D01*
X028842Y025052D01*
X028803Y025002D01*
X028767Y024949D01*
X028735Y024894D01*
X028706Y024837D01*
X028709Y024836D01*
X028738Y024892D01*
X028770Y024947D01*
X028806Y024999D01*
X028845Y025050D01*
X028886Y025098D01*
X028931Y025143D01*
X028978Y025185D01*
X029028Y025225D01*
X029080Y025261D01*
X029134Y025294D01*
X029190Y025324D01*
X029248Y025350D01*
X029307Y025373D01*
X029368Y025392D01*
X029429Y025407D01*
X029492Y025419D01*
X029555Y025427D01*
X029618Y025431D01*
X029682Y025431D01*
X029745Y025427D01*
X029808Y025419D01*
X029871Y025407D01*
X029932Y025392D01*
X029993Y025373D01*
X030052Y025350D01*
X030110Y025324D01*
X030166Y025294D01*
X030220Y025261D01*
X030272Y025225D01*
X030322Y025185D01*
X030369Y025143D01*
X030414Y025098D01*
X030455Y025050D01*
X030494Y024999D01*
X030530Y024947D01*
X030562Y024892D01*
X030591Y024836D01*
X030587Y024834D01*
X030558Y024890D01*
X030526Y024945D01*
X030491Y024997D01*
X030452Y025047D01*
X030411Y025095D01*
X030366Y025140D01*
X030319Y025182D01*
X030270Y025221D01*
X030218Y025258D01*
X030164Y025291D01*
X030108Y025320D01*
X030050Y025347D01*
X029991Y025369D01*
X029931Y025388D01*
X029870Y025403D01*
X029808Y025415D01*
X029745Y025423D01*
X029682Y025427D01*
X029618Y025427D01*
X029555Y025423D01*
X029492Y025415D01*
X029430Y025403D01*
X029369Y025388D01*
X029309Y025369D01*
X029250Y025347D01*
X029192Y025320D01*
X029136Y025291D01*
X029082Y025258D01*
X029030Y025221D01*
X028981Y025182D01*
X028934Y025140D01*
X028889Y025095D01*
X028848Y025047D01*
X028809Y024997D01*
X028774Y024945D01*
X028742Y024890D01*
X028713Y024834D01*
X028716Y024832D01*
X028745Y024888D01*
X028777Y024943D01*
X028813Y024995D01*
X028851Y025045D01*
X028892Y025092D01*
X028937Y025137D01*
X028983Y025179D01*
X029033Y025218D01*
X029084Y025254D01*
X029138Y025287D01*
X029194Y025317D01*
X029251Y025343D01*
X029310Y025365D01*
X029370Y025384D01*
X029431Y025400D01*
X029493Y025411D01*
X029556Y025419D01*
X029619Y025423D01*
X029681Y025423D01*
X029744Y025419D01*
X029807Y025411D01*
X029869Y025400D01*
X029930Y025384D01*
X029990Y025365D01*
X030049Y025343D01*
X030106Y025317D01*
X030162Y025287D01*
X030216Y025254D01*
X030267Y025218D01*
X030317Y025179D01*
X030363Y025137D01*
X030408Y025092D01*
X030449Y025045D01*
X030487Y024995D01*
X030523Y024943D01*
X030555Y024888D01*
X030584Y024832D01*
X030580Y024831D01*
X030551Y024886D01*
X030519Y024940D01*
X030484Y024992D01*
X030446Y025042D01*
X030405Y025089D01*
X030361Y025134D01*
X030314Y025176D01*
X030265Y025215D01*
X030213Y025251D01*
X030160Y025284D01*
X030104Y025313D01*
X030047Y025339D01*
X029989Y025362D01*
X029929Y025380D01*
X029868Y025396D01*
X029806Y025407D01*
X029744Y025415D01*
X029681Y025419D01*
X029619Y025419D01*
X029556Y025415D01*
X029494Y025407D01*
X029432Y025396D01*
X029371Y025380D01*
X029311Y025362D01*
X029253Y025339D01*
X029196Y025313D01*
X029140Y025284D01*
X029087Y025251D01*
X029035Y025215D01*
X028986Y025176D01*
X028939Y025134D01*
X028895Y025089D01*
X028854Y025042D01*
X028816Y024992D01*
X028781Y024940D01*
X028749Y024886D01*
X028720Y024831D01*
X028676Y023941D02*
X028717Y023960D01*
X028717Y023959D02*
X028743Y023906D01*
X028773Y023854D01*
X028806Y023804D01*
X028841Y023756D01*
X028806Y023728D01*
X028769Y023778D01*
X028735Y023830D01*
X028704Y023884D01*
X028676Y023940D01*
X028679Y023942D01*
X028707Y023886D01*
X028738Y023832D01*
X028772Y023780D01*
X028809Y023730D01*
X028812Y023733D01*
X028775Y023783D01*
X028741Y023834D01*
X028711Y023888D01*
X028683Y023944D01*
X028687Y023945D01*
X028714Y023890D01*
X028745Y023837D01*
X028779Y023785D01*
X028815Y023735D01*
X028818Y023738D01*
X028782Y023787D01*
X028748Y023839D01*
X028718Y023892D01*
X028690Y023947D01*
X028694Y023949D01*
X028721Y023894D01*
X028752Y023841D01*
X028785Y023789D01*
X028822Y023740D01*
X028825Y023743D01*
X028788Y023792D01*
X028755Y023843D01*
X028725Y023896D01*
X028698Y023950D01*
X028701Y023952D01*
X028728Y023898D01*
X028758Y023845D01*
X028792Y023794D01*
X028828Y023745D01*
X028831Y023748D01*
X028795Y023796D01*
X028762Y023847D01*
X028732Y023900D01*
X028705Y023954D01*
X028708Y023955D01*
X028735Y023901D01*
X028765Y023849D01*
X028798Y023799D01*
X028834Y023750D01*
X028837Y023752D01*
X028802Y023801D01*
X028769Y023851D01*
X028739Y023903D01*
X028712Y023957D01*
X028716Y023959D01*
X028742Y023905D01*
X028772Y023853D01*
X028805Y023803D01*
X028840Y023755D01*
D18*
X032650Y020400D02*
X032650Y019900D01*
X032900Y020150D02*
X032400Y020150D01*
X019221Y025599D02*
X018079Y025599D01*
X018079Y027701D01*
X019221Y027701D01*
X019221Y025599D01*
X019221Y028099D02*
X018079Y028099D01*
X018079Y030201D01*
X019221Y030201D01*
X019221Y028099D01*
D19*
X031551Y035080D02*
X031698Y035080D01*
X031551Y035227D01*
X031551Y035263D01*
X031588Y035300D01*
X031661Y035300D01*
X031698Y035263D01*
X031772Y035263D02*
X031809Y035300D01*
X031882Y035300D01*
X031919Y035263D01*
X031919Y035227D01*
X031882Y035190D01*
X031809Y035190D01*
X031772Y035153D01*
X031772Y035117D01*
X031809Y035080D01*
X031882Y035080D01*
X031919Y035117D01*
X031993Y035117D02*
X031993Y035300D01*
X032140Y035300D02*
X032140Y035117D01*
X032103Y035080D01*
X032030Y035080D01*
X031993Y035117D01*
X031846Y035043D02*
X031846Y035337D01*
M02*
