%
M48
M72
T01C0.0120
T02C0.0276
T03C0.0315
T04C0.0320
T05C0.0394
T06C0.0400
T07C0.0472
T08C0.0512
T09C0.0787
%
T01
X34020Y27680
X32390Y29950
X27490Y30250
X27150Y24530
X28880Y30490
X31810Y25870
X26340Y30480
X26670Y24950
X27820Y30790
X26580Y29940
X24890Y20390
X28580Y27250
X28580Y26770
X31340Y29470
X29830Y26710
X27150Y23800
X27640Y29000
X27150Y24190
X30870Y30420
X30870Y27150
X27490Y29310
X27390Y27370
X29440Y25010
X21330Y20000
X28640Y28790
X32540Y34560
X31900Y33100
X30670Y31870
X28160Y30790
X27100Y31120
X23130Y31780
X23500Y31750
T02
X34030Y34873
X34345Y35385
X34660Y34873
X34975Y35385
X35290Y34873
T03
X29930Y32820
X30930Y32820
X28930Y32820
T04
X23342Y34662
X24342Y34662
X32093Y28309
X32093Y30309
X30650Y24390
X28650Y24390
X29650Y24390
X20400Y25800
X20400Y25000
X30900Y25400
X32900Y25400
X31900Y25400
T05
X23650Y38274
X24650Y38274
X25650Y38274
X26650Y38274
X27650Y38274
X28650Y38274
X29650Y38274
X30650Y38274
X23650Y22526
X24650Y22526
X25650Y22526
X26650Y22526
X27650Y22526
X28650Y22526
X29650Y22526
X30650Y22526
T06
X26858Y34783
X27858Y34783
X26858Y35783
X27858Y35783
X26858Y36783
X27858Y36783
X26620Y20540
X29180Y20540
X26620Y18760
X29180Y18760
X23120Y20540
X25680Y20540
X23120Y18760
X25680Y18760
X30120Y20540
X32680Y20540
X30120Y18760
X32680Y18760
X21430Y18760
X18870Y18760
X21430Y20540
X18870Y20540
X33900Y23150
X33900Y20150
X26150Y26150
X26150Y27150
X25150Y26150
X25150Y27150
X24150Y26150
X24150Y27150
X23150Y26150
X23150Y27150
X22150Y26150
X22150Y27150
T07
X36900Y27150
X36900Y26150
X36900Y25150
X36900Y30400
X36900Y29400
X36900Y28400
X36900Y33650
X36900Y32650
X36900Y31650
X18650Y29650
X18650Y28650
X36900Y21650
X36900Y20650
X36900Y23900
X36900Y22900
X18650Y27150
X18650Y26150
T08
X21882Y37214
X21772Y29341
T09
X36097Y36901
X33223Y36901
M30
