G75*
%MOIN*%
%OFA0B0*%
%FSLAX24Y24*%
%IPPOS*%
%LPD*%
%AMOC8*
5,1,8,0,0,1.08239X$1,22.5*
%
%ADD10C,0.0000*%
%ADD11R,0.0591X0.0512*%
%ADD12R,0.0500X0.0220*%
%ADD13R,0.0220X0.0500*%
%ADD14R,0.0512X0.0591*%
%ADD15R,0.0236X0.0472*%
%ADD16R,0.0512X0.0630*%
%ADD17R,0.0276X0.0354*%
D10*
X018150Y018150D02*
X037520Y018150D01*
X037520Y037835D01*
X018150Y037835D01*
X018150Y037900D02*
X018150Y018150D01*
D11*
X023650Y023276D03*
X023650Y024024D03*
X024650Y024024D03*
X025650Y024024D03*
X026650Y024024D03*
X027650Y024024D03*
X027650Y023276D03*
X026650Y023276D03*
X025650Y023276D03*
X024650Y023276D03*
X026148Y028544D03*
X026148Y029213D03*
X033683Y028971D03*
X033683Y028302D03*
X033664Y029837D03*
X033664Y030506D03*
X035400Y031526D03*
X035400Y032274D03*
X033198Y034719D03*
X033198Y035467D03*
D12*
X030419Y030654D03*
X030419Y030339D03*
X030419Y030024D03*
X030419Y029709D03*
X030419Y029394D03*
X030419Y029079D03*
X030419Y028764D03*
X030419Y028449D03*
X027039Y028449D03*
X027039Y028764D03*
X027039Y029079D03*
X027039Y029394D03*
X027039Y029709D03*
X027039Y030024D03*
X027039Y030339D03*
X027039Y030654D03*
D13*
X027627Y031241D03*
X027942Y031241D03*
X028257Y031241D03*
X028571Y031241D03*
X028886Y031241D03*
X029201Y031241D03*
X029516Y031241D03*
X029831Y031241D03*
X029831Y027861D03*
X029516Y027861D03*
X029201Y027861D03*
X028886Y027861D03*
X028571Y027861D03*
X028257Y027861D03*
X027942Y027861D03*
X027627Y027861D03*
D14*
X028686Y026270D03*
X029434Y026270D03*
X030526Y026650D03*
X031274Y026650D03*
X034026Y026900D03*
X034774Y026900D03*
X034806Y025780D03*
X035554Y025780D03*
X035524Y029150D03*
X034776Y029150D03*
X028174Y019700D03*
X027426Y019700D03*
X025624Y019700D03*
X024876Y019700D03*
X023324Y019700D03*
X022576Y019700D03*
D15*
X028900Y033968D03*
X029400Y033968D03*
X029900Y033968D03*
X030400Y033968D03*
X030900Y033968D03*
X031400Y033968D03*
X031900Y033968D03*
X032400Y033968D03*
X032400Y036172D03*
X031900Y036172D03*
X031400Y036172D03*
X030900Y036172D03*
X030400Y036172D03*
X029900Y036172D03*
X029400Y036172D03*
X028900Y036172D03*
D16*
X030506Y037150D03*
X031294Y037150D03*
D17*
X035394Y033150D03*
X035906Y033150D03*
X036156Y029900D03*
X035644Y029900D03*
X035644Y026650D03*
X036156Y026650D03*
M02*
