G75*
%MOIN*%
%OFA0B0*%
%FSLAX24Y24*%
%IPPOS*%
%LPD*%
%AMOC8*
5,1,8,0,0,1.08239X$1,22.5*
%
%ADD10C,0.0240*%
%ADD11C,0.0000*%
%ADD12C,0.0060*%
%ADD13C,0.0020*%
%ADD14C,0.0160*%
%ADD15R,0.0160X0.0230*%
%ADD16C,0.0030*%
%ADD17C,0.0080*%
%ADD18C,0.0040*%
%ADD19C,0.0050*%
%ADD20C,0.0100*%
D10*
X033750Y036365D02*
X035750Y036365D01*
D11*
X037520Y018150D02*
X018150Y018150D01*
X018150Y037900D01*
X018150Y037835D02*
X037520Y037835D01*
X037520Y018150D01*
D12*
X037333Y020142D02*
X037333Y022158D01*
X037333Y022392D02*
X037333Y024408D01*
X037333Y024642D02*
X037333Y027658D01*
X037333Y027892D02*
X037333Y030908D01*
X037333Y031142D02*
X037333Y034158D01*
X024493Y033007D02*
X024493Y031767D01*
X024491Y031744D01*
X024486Y031721D01*
X024477Y031699D01*
X024464Y031679D01*
X024449Y031661D01*
X024431Y031646D01*
X024411Y031633D01*
X024389Y031624D01*
X024366Y031619D01*
X024343Y031617D01*
X022643Y031617D01*
X022620Y031619D01*
X022597Y031624D01*
X022575Y031633D01*
X022555Y031646D01*
X022537Y031661D01*
X022522Y031679D01*
X022509Y031699D01*
X022500Y031721D01*
X022495Y031744D01*
X022493Y031767D01*
X022493Y033007D01*
X022495Y033030D01*
X022500Y033053D01*
X022509Y033075D01*
X022522Y033095D01*
X022537Y033113D01*
X022555Y033128D01*
X022575Y033141D01*
X022597Y033150D01*
X022620Y033155D01*
X022643Y033157D01*
X024343Y033157D01*
X024366Y033155D01*
X024389Y033150D01*
X024411Y033141D01*
X024431Y033128D01*
X024449Y033113D01*
X024464Y033095D01*
X024477Y033075D01*
X024486Y033053D01*
X024491Y033030D01*
X024493Y033007D01*
X024493Y032587D02*
X024466Y032585D01*
X024439Y032580D01*
X024413Y032570D01*
X024389Y032558D01*
X024367Y032542D01*
X024347Y032524D01*
X024330Y032502D01*
X024315Y032479D01*
X024305Y032454D01*
X024297Y032428D01*
X024293Y032401D01*
X024293Y032373D01*
X024297Y032346D01*
X024305Y032320D01*
X024315Y032295D01*
X024330Y032272D01*
X024347Y032250D01*
X024367Y032232D01*
X024389Y032216D01*
X024413Y032204D01*
X024439Y032194D01*
X024466Y032189D01*
X024493Y032187D01*
X024192Y035312D02*
X023492Y035312D01*
X023492Y035462D01*
X024192Y035462D01*
X024242Y035462D01*
X024242Y037612D01*
X024240Y037629D01*
X024236Y037646D01*
X024229Y037662D01*
X024219Y037676D01*
X024206Y037689D01*
X024192Y037699D01*
X024176Y037706D01*
X024159Y037710D01*
X024142Y037712D01*
X023542Y037712D01*
X023525Y037710D01*
X023508Y037706D01*
X023492Y037699D01*
X023478Y037689D01*
X023465Y037676D01*
X023455Y037662D01*
X023448Y037646D01*
X023444Y037629D01*
X023442Y037612D01*
X023442Y035462D01*
X023492Y035462D01*
X024192Y035462D02*
X024192Y035312D01*
X023842Y036112D02*
X023842Y036312D01*
X024042Y036312D01*
X024042Y036462D02*
X023642Y036462D01*
X023642Y036612D01*
X024042Y036612D01*
X024042Y036462D01*
X023842Y036312D02*
X023642Y036312D01*
X023642Y036762D02*
X023842Y036762D01*
X024042Y036762D01*
X023842Y036762D02*
X023842Y036962D01*
D13*
X024493Y033017D02*
X022493Y033017D01*
X023736Y031977D02*
X023846Y031977D01*
X023883Y031940D01*
X023883Y031794D01*
X023846Y031757D01*
X023736Y031757D01*
X023736Y031977D01*
X023957Y031940D02*
X023957Y031904D01*
X023994Y031867D01*
X024067Y031867D01*
X024104Y031830D01*
X024104Y031794D01*
X024067Y031757D01*
X023994Y031757D01*
X023957Y031794D01*
X023957Y031940D02*
X023994Y031977D01*
X024067Y031977D01*
X024104Y031940D01*
X024178Y031904D02*
X024252Y031977D01*
X024252Y031757D01*
X024325Y031757D02*
X024178Y031757D01*
D14*
X024042Y034962D02*
X024042Y035112D01*
X023642Y035162D02*
X023642Y034962D01*
D15*
X023642Y035177D03*
X024042Y035177D03*
D16*
X023307Y035268D02*
X023017Y035461D01*
X023114Y035562D02*
X023017Y035659D01*
X023307Y035659D01*
X023307Y035562D02*
X023307Y035756D01*
X023307Y035461D02*
X023017Y035268D01*
X021395Y023887D02*
X021395Y023693D01*
X021395Y023790D02*
X021105Y023790D01*
X021201Y023693D01*
X021153Y023592D02*
X021105Y023544D01*
X021105Y023447D01*
X021153Y023399D01*
X021346Y023399D01*
X021395Y023447D01*
X021395Y023544D01*
X021346Y023592D01*
X021395Y023299D02*
X021395Y023202D01*
X021395Y023251D02*
X021105Y023251D01*
X021105Y023299D02*
X021105Y023202D01*
D17*
X020500Y023940D02*
X021800Y023940D01*
X021800Y021360D01*
X020500Y021360D01*
X020500Y023940D01*
X022800Y020850D02*
X024500Y020850D01*
X024850Y020043D02*
X024850Y019250D01*
X024500Y018450D02*
X022800Y018450D01*
X022450Y019250D02*
X022450Y020055D01*
X022950Y019650D02*
X022952Y019702D01*
X022958Y019754D01*
X022968Y019806D01*
X022981Y019856D01*
X022998Y019906D01*
X023019Y019954D01*
X023044Y020000D01*
X023072Y020044D01*
X023103Y020086D01*
X023137Y020126D01*
X023174Y020163D01*
X023214Y020197D01*
X023256Y020228D01*
X023300Y020256D01*
X023346Y020281D01*
X023394Y020302D01*
X023444Y020319D01*
X023494Y020332D01*
X023546Y020342D01*
X023598Y020348D01*
X023650Y020350D01*
X023702Y020348D01*
X023754Y020342D01*
X023806Y020332D01*
X023856Y020319D01*
X023906Y020302D01*
X023954Y020281D01*
X024000Y020256D01*
X024044Y020228D01*
X024086Y020197D01*
X024126Y020163D01*
X024163Y020126D01*
X024197Y020086D01*
X024228Y020044D01*
X024256Y020000D01*
X024281Y019954D01*
X024302Y019906D01*
X024319Y019856D01*
X024332Y019806D01*
X024342Y019754D01*
X024348Y019702D01*
X024350Y019650D01*
X024348Y019598D01*
X024342Y019546D01*
X024332Y019494D01*
X024319Y019444D01*
X024302Y019394D01*
X024281Y019346D01*
X024256Y019300D01*
X024228Y019256D01*
X024197Y019214D01*
X024163Y019174D01*
X024126Y019137D01*
X024086Y019103D01*
X024044Y019072D01*
X024000Y019044D01*
X023954Y019019D01*
X023906Y018998D01*
X023856Y018981D01*
X023806Y018968D01*
X023754Y018958D01*
X023702Y018952D01*
X023650Y018950D01*
X023598Y018952D01*
X023546Y018958D01*
X023494Y018968D01*
X023444Y018981D01*
X023394Y018998D01*
X023346Y019019D01*
X023300Y019044D01*
X023256Y019072D01*
X023214Y019103D01*
X023174Y019137D01*
X023137Y019174D01*
X023103Y019214D01*
X023072Y019256D01*
X023044Y019300D01*
X023019Y019346D01*
X022998Y019394D01*
X022981Y019444D01*
X022968Y019494D01*
X022958Y019546D01*
X022952Y019598D01*
X022950Y019650D01*
X025950Y019250D02*
X025950Y020055D01*
X026300Y020850D02*
X028000Y020850D01*
X028350Y020043D02*
X028350Y019250D01*
X028000Y018450D02*
X026300Y018450D01*
X026450Y019650D02*
X026452Y019702D01*
X026458Y019754D01*
X026468Y019806D01*
X026481Y019856D01*
X026498Y019906D01*
X026519Y019954D01*
X026544Y020000D01*
X026572Y020044D01*
X026603Y020086D01*
X026637Y020126D01*
X026674Y020163D01*
X026714Y020197D01*
X026756Y020228D01*
X026800Y020256D01*
X026846Y020281D01*
X026894Y020302D01*
X026944Y020319D01*
X026994Y020332D01*
X027046Y020342D01*
X027098Y020348D01*
X027150Y020350D01*
X027202Y020348D01*
X027254Y020342D01*
X027306Y020332D01*
X027356Y020319D01*
X027406Y020302D01*
X027454Y020281D01*
X027500Y020256D01*
X027544Y020228D01*
X027586Y020197D01*
X027626Y020163D01*
X027663Y020126D01*
X027697Y020086D01*
X027728Y020044D01*
X027756Y020000D01*
X027781Y019954D01*
X027802Y019906D01*
X027819Y019856D01*
X027832Y019806D01*
X027842Y019754D01*
X027848Y019702D01*
X027850Y019650D01*
X027848Y019598D01*
X027842Y019546D01*
X027832Y019494D01*
X027819Y019444D01*
X027802Y019394D01*
X027781Y019346D01*
X027756Y019300D01*
X027728Y019256D01*
X027697Y019214D01*
X027663Y019174D01*
X027626Y019137D01*
X027586Y019103D01*
X027544Y019072D01*
X027500Y019044D01*
X027454Y019019D01*
X027406Y018998D01*
X027356Y018981D01*
X027306Y018968D01*
X027254Y018958D01*
X027202Y018952D01*
X027150Y018950D01*
X027098Y018952D01*
X027046Y018958D01*
X026994Y018968D01*
X026944Y018981D01*
X026894Y018998D01*
X026846Y019019D01*
X026800Y019044D01*
X026756Y019072D01*
X026714Y019103D01*
X026674Y019137D01*
X026637Y019174D01*
X026603Y019214D01*
X026572Y019256D01*
X026544Y019300D01*
X026519Y019346D01*
X026498Y019394D01*
X026481Y019444D01*
X026468Y019494D01*
X026458Y019546D01*
X026452Y019598D01*
X026450Y019650D01*
X029450Y019250D02*
X029450Y020055D01*
X029950Y019650D02*
X029952Y019702D01*
X029958Y019754D01*
X029968Y019806D01*
X029981Y019856D01*
X029998Y019906D01*
X030019Y019954D01*
X030044Y020000D01*
X030072Y020044D01*
X030103Y020086D01*
X030137Y020126D01*
X030174Y020163D01*
X030214Y020197D01*
X030256Y020228D01*
X030300Y020256D01*
X030346Y020281D01*
X030394Y020302D01*
X030444Y020319D01*
X030494Y020332D01*
X030546Y020342D01*
X030598Y020348D01*
X030650Y020350D01*
X030702Y020348D01*
X030754Y020342D01*
X030806Y020332D01*
X030856Y020319D01*
X030906Y020302D01*
X030954Y020281D01*
X031000Y020256D01*
X031044Y020228D01*
X031086Y020197D01*
X031126Y020163D01*
X031163Y020126D01*
X031197Y020086D01*
X031228Y020044D01*
X031256Y020000D01*
X031281Y019954D01*
X031302Y019906D01*
X031319Y019856D01*
X031332Y019806D01*
X031342Y019754D01*
X031348Y019702D01*
X031350Y019650D01*
X031348Y019598D01*
X031342Y019546D01*
X031332Y019494D01*
X031319Y019444D01*
X031302Y019394D01*
X031281Y019346D01*
X031256Y019300D01*
X031228Y019256D01*
X031197Y019214D01*
X031163Y019174D01*
X031126Y019137D01*
X031086Y019103D01*
X031044Y019072D01*
X031000Y019044D01*
X030954Y019019D01*
X030906Y018998D01*
X030856Y018981D01*
X030806Y018968D01*
X030754Y018958D01*
X030702Y018952D01*
X030650Y018950D01*
X030598Y018952D01*
X030546Y018958D01*
X030494Y018968D01*
X030444Y018981D01*
X030394Y018998D01*
X030346Y019019D01*
X030300Y019044D01*
X030256Y019072D01*
X030214Y019103D01*
X030174Y019137D01*
X030137Y019174D01*
X030103Y019214D01*
X030072Y019256D01*
X030044Y019300D01*
X030019Y019346D01*
X029998Y019394D01*
X029981Y019444D01*
X029968Y019494D01*
X029958Y019546D01*
X029952Y019598D01*
X029950Y019650D01*
X029800Y018450D02*
X031500Y018450D01*
X031850Y019250D02*
X031850Y020043D01*
X031500Y020850D02*
X029800Y020850D01*
D18*
X028172Y021340D02*
X027932Y021340D01*
X028052Y021340D02*
X028052Y020980D01*
X027803Y021040D02*
X027743Y020980D01*
X027623Y020980D01*
X027563Y021040D01*
X027563Y021280D01*
X027623Y021340D01*
X027743Y021340D01*
X027803Y021280D01*
X027435Y021340D02*
X027195Y021340D01*
X027195Y020980D01*
X027435Y020980D01*
X027315Y021160D02*
X027195Y021160D01*
X027067Y020980D02*
X026827Y020980D01*
X026827Y021340D01*
X026699Y021340D02*
X026458Y021340D01*
X026458Y020980D01*
X026699Y020980D01*
X026578Y021160D02*
X026458Y021160D01*
X026330Y021100D02*
X026330Y021040D01*
X026270Y020980D01*
X026150Y020980D01*
X026090Y021040D01*
X026150Y021160D02*
X026270Y021160D01*
X026330Y021100D01*
X026330Y021280D02*
X026270Y021340D01*
X026150Y021340D01*
X026090Y021280D01*
X026090Y021220D01*
X026150Y021160D01*
X023717Y019404D02*
X023410Y019097D01*
X023486Y019020D01*
X023640Y019020D01*
X023717Y019097D01*
X023717Y019404D01*
X023640Y019480D01*
X023486Y019480D01*
X023410Y019404D01*
X023410Y019097D01*
X023256Y019020D02*
X022949Y019020D01*
X022796Y019020D02*
X022642Y019173D01*
X022719Y019173D02*
X022489Y019173D01*
X022489Y019020D02*
X022489Y019480D01*
X022719Y019480D01*
X022796Y019404D01*
X022796Y019250D01*
X022719Y019173D01*
X022949Y019327D02*
X023103Y019480D01*
X023103Y019020D01*
X018230Y020897D02*
X018153Y020820D01*
X017846Y020820D01*
X017770Y020897D01*
X017770Y021050D01*
X017846Y021127D01*
X017923Y021280D02*
X017770Y021434D01*
X018230Y021434D01*
X018230Y021587D02*
X018230Y021280D01*
X018153Y021127D02*
X018230Y021050D01*
X018230Y020897D01*
X018153Y021741D02*
X017846Y022048D01*
X018153Y022048D01*
X018230Y021971D01*
X018230Y021818D01*
X018153Y021741D01*
X017846Y021741D01*
X017770Y021818D01*
X017770Y021971D01*
X017846Y022048D01*
X026399Y027707D02*
X026476Y027630D01*
X026629Y027630D01*
X026706Y027707D01*
X026859Y027630D02*
X027166Y027630D01*
X027013Y027630D02*
X027013Y028090D01*
X026859Y027937D01*
X026706Y028014D02*
X026629Y028090D01*
X026476Y028090D01*
X026399Y028014D01*
X026399Y027707D01*
X027320Y027630D02*
X027627Y027630D01*
X027473Y027630D02*
X027473Y028090D01*
X027320Y027937D01*
X028770Y027800D02*
X028770Y027647D01*
X028846Y027570D01*
X029153Y027570D01*
X029230Y027647D01*
X029230Y027800D01*
X029153Y027877D01*
X029230Y028030D02*
X029230Y028337D01*
X029230Y028184D02*
X028770Y028184D01*
X028923Y028030D01*
X028846Y027877D02*
X028770Y027800D01*
X028846Y028491D02*
X028770Y028568D01*
X028770Y028721D01*
X028846Y028798D01*
X028923Y028798D01*
X029230Y028491D01*
X029230Y028798D01*
X024680Y030846D02*
X024680Y030999D01*
X024603Y031076D01*
X024680Y031229D02*
X024680Y031536D01*
X024680Y031383D02*
X024220Y031383D01*
X024373Y031229D01*
X024296Y031076D02*
X024220Y030999D01*
X024220Y030846D01*
X024296Y030769D01*
X024603Y030769D01*
X024680Y030846D01*
X024603Y031690D02*
X024680Y031766D01*
X024680Y031920D01*
X024603Y031997D01*
X024527Y031997D01*
X024450Y031920D01*
X024450Y031690D01*
X024603Y031690D01*
X024450Y031690D02*
X024296Y031843D01*
X024220Y031997D01*
X022847Y030440D02*
X022847Y030364D01*
X022540Y030057D01*
X022540Y029980D01*
X022387Y029980D02*
X022233Y030133D01*
X022310Y030133D02*
X022080Y030133D01*
X022080Y029980D02*
X022080Y030440D01*
X022310Y030440D01*
X022387Y030364D01*
X022387Y030210D01*
X022310Y030133D01*
X022540Y030440D02*
X022847Y030440D01*
X022820Y029456D02*
X022897Y029379D01*
X022897Y029302D01*
X022820Y029225D01*
X022666Y029225D01*
X022590Y029302D01*
X022590Y029379D01*
X022666Y029456D01*
X022820Y029456D01*
X022820Y029225D02*
X022897Y029149D01*
X022897Y029072D01*
X022820Y028995D01*
X022666Y028995D01*
X022590Y029072D01*
X022590Y029149D01*
X022666Y029225D01*
X022436Y029225D02*
X022359Y029149D01*
X022129Y029149D01*
X022283Y029149D02*
X022436Y028995D01*
X022436Y029225D02*
X022436Y029379D01*
X022359Y029456D01*
X022129Y029456D01*
X022129Y028995D01*
X032416Y037096D02*
X032492Y037019D01*
X032646Y037019D01*
X032722Y037096D01*
X032722Y037479D01*
X032876Y037403D02*
X032876Y037326D01*
X032953Y037249D01*
X033106Y037249D01*
X033183Y037173D01*
X033183Y037096D01*
X033106Y037019D01*
X032953Y037019D01*
X032876Y037096D01*
X032876Y037403D02*
X032953Y037479D01*
X033106Y037479D01*
X033183Y037403D01*
X033336Y037479D02*
X033566Y037479D01*
X033643Y037403D01*
X033643Y037326D01*
X033566Y037249D01*
X033336Y037249D01*
X033336Y037019D02*
X033566Y037019D01*
X033643Y037096D01*
X033643Y037173D01*
X033566Y037249D01*
X033336Y037019D02*
X033336Y037479D01*
X032416Y037479D02*
X032416Y037096D01*
X033569Y038261D02*
X033569Y038261D01*
X035670Y029587D02*
X035746Y029433D01*
X035900Y029280D01*
X035900Y029510D01*
X035977Y029587D01*
X036053Y029587D01*
X036130Y029510D01*
X036130Y029356D01*
X036053Y029280D01*
X035900Y029280D01*
X036130Y029126D02*
X035670Y028819D01*
X035670Y029126D02*
X036130Y028819D01*
X036043Y027207D02*
X036120Y027130D01*
X036120Y026976D01*
X036043Y026900D01*
X035890Y026900D02*
X035813Y027053D01*
X035813Y027130D01*
X035890Y027207D01*
X036043Y027207D01*
X035890Y026900D02*
X035660Y026900D01*
X035660Y027207D01*
X035660Y026746D02*
X036120Y026439D01*
X036120Y026746D02*
X035660Y026439D01*
X037620Y024290D02*
X037850Y024060D01*
X037850Y024367D01*
X038080Y024290D02*
X037620Y024290D01*
X037620Y023906D02*
X038080Y023599D01*
X038080Y023906D02*
X037620Y023599D01*
X037696Y022117D02*
X037773Y022117D01*
X037850Y022040D01*
X037927Y022117D01*
X038003Y022117D01*
X038080Y022040D01*
X038080Y021886D01*
X038003Y021810D01*
X038080Y021656D02*
X037620Y021349D01*
X037620Y021656D02*
X038080Y021349D01*
X037696Y021810D02*
X037620Y021886D01*
X037620Y022040D01*
X037696Y022117D01*
X037850Y022040D02*
X037850Y021963D01*
D19*
X036150Y021400D02*
X018150Y021400D01*
X018150Y039400D01*
X036150Y039400D01*
X036150Y021400D01*
X035024Y023707D02*
X019276Y023707D01*
X019276Y037093D01*
X035024Y037093D01*
X035024Y023707D01*
X034237Y024494D02*
X034237Y034337D01*
X020063Y034337D01*
X020063Y024494D01*
X034237Y024494D01*
X032655Y020593D02*
X032205Y020593D01*
X032205Y020443D02*
X032205Y020743D01*
X032205Y020283D02*
X032655Y020283D01*
X032430Y020283D02*
X032430Y019983D01*
X032430Y019823D02*
X032430Y019672D01*
X032430Y019823D02*
X032580Y019823D01*
X032655Y019748D01*
X032655Y019597D01*
X032580Y019522D01*
X032280Y019522D01*
X032205Y019597D01*
X032205Y019748D01*
X032280Y019823D01*
X032205Y019983D02*
X032655Y019983D01*
X032655Y019366D02*
X032655Y019215D01*
X032655Y019290D02*
X032205Y019290D01*
X032205Y019215D02*
X032205Y019366D01*
X032280Y019055D02*
X032430Y019055D01*
X032505Y018980D01*
X032505Y018755D01*
X032655Y018755D02*
X032205Y018755D01*
X032205Y018980D01*
X032280Y019055D01*
X032505Y018905D02*
X032655Y019055D01*
X021825Y019125D02*
X021825Y018825D01*
X021375Y018825D01*
X021375Y019285D02*
X021825Y019285D01*
X021825Y019586D01*
X021825Y019746D02*
X021375Y019746D01*
X021375Y020046D01*
X021375Y020206D02*
X021375Y020506D01*
X021375Y020356D02*
X021825Y020356D01*
X021600Y019896D02*
X021600Y019746D01*
X021375Y019586D02*
X021375Y019285D01*
X021600Y019285D02*
X021600Y019436D01*
X031625Y035070D02*
X032334Y035070D01*
X031625Y036054D02*
X031625Y036881D01*
X033987Y035070D02*
X034696Y035070D01*
X034696Y036054D02*
X034696Y037117D01*
X034696Y038692D02*
X031625Y038692D01*
D20*
X036329Y034201D02*
X037471Y034201D01*
X037471Y031099D01*
X036329Y031099D01*
X036329Y034201D01*
X036329Y030951D02*
X037471Y030951D01*
X037471Y027849D01*
X036329Y027849D01*
X036329Y030951D01*
X036329Y027701D02*
X037471Y027701D01*
X037471Y024599D01*
X036329Y024599D01*
X036329Y027701D01*
X036329Y024451D02*
X037471Y024451D01*
X037471Y022349D01*
X036329Y022349D01*
X036329Y024451D01*
X036329Y022201D02*
X037471Y022201D01*
X037471Y020099D01*
X036329Y020099D01*
X036329Y022201D01*
M02*
