%
M48
M72
T01C0.0120
T02C0.0276
T03C0.0315
T04C0.0320
T05C0.0394
T06C0.0400
T07C0.0472
T08C0.0512
T09C0.0787
%
T01
X30994Y23416
X28829Y25827
X28140Y26122
X28239Y27107
X28780Y27107
X29124Y27107
X28681Y27599
X27648Y27894
X26270Y27796
X27500Y28731
X26565Y29420
X27943Y30847
X27402Y31733
X27697Y31930
X29174Y31733
X29469Y33012
X29666Y33357
X30207Y32815
X31093Y34341
X28386Y36605
X23219Y32914
X24006Y32126
X23662Y31782
X24548Y29272
X24203Y28681
X23662Y28731
X22628Y28386
X23563Y27697
X26615Y25483
X26319Y24843
X27156Y24400
X29813Y26122
X30650Y26664
X31142Y26418
X32077Y26664
X30896Y28042
X31683Y28731
X30896Y29370
X29813Y28731
X34685Y31782
X35670Y32766
X35719Y30306
X35965Y27057
X24203Y20955
X22530Y21693
X21447Y19872
T02
X32530Y34873
X32845Y35385
X33160Y34873
X33475Y35385
X33790Y34873
T03
X26820Y30620
X26820Y31620
X26820Y32620
T04
X19750Y25150
X20550Y25150
X28900Y23890
X29900Y23890
X30900Y23890
X30900Y24900
X31900Y24900
X32900Y24900
X32093Y27559
X32093Y29559
X24342Y34662
X23342Y34662
T05
X23650Y22526
X24650Y22526
X25650Y22526
X26650Y22526
X27650Y22526
X28650Y22526
X29650Y22526
X30650Y22526
X30650Y38274
X29650Y38274
X28650Y38274
X27650Y38274
X26650Y38274
X25650Y38274
X24650Y38274
X23650Y38274
T06
X18870Y18760
X18870Y20540
X21430Y20540
X22370Y20540
X22370Y18760
X21430Y18760
X24930Y18760
X25870Y18760
X25870Y20540
X24930Y20540
X28430Y20540
X29370Y20540
X29370Y18760
X28430Y18760
X31930Y18760
X31930Y20540
X34400Y19900
X34400Y22900
X25650Y26150
X24650Y26150
X24650Y27150
X25650Y27150
X23650Y27150
X22650Y27150
X21650Y27150
X21650Y26150
X22650Y26150
X23650Y26150
X28767Y31358
X29767Y31358
X30767Y31358
X30767Y32358
X29767Y32358
X28767Y32358
T07
X36900Y20650
X36900Y21650
X36900Y22900
X36900Y23900
X36900Y25150
X36900Y26150
X36900Y27150
X36900Y28400
X36900Y29400
X36900Y30400
X36900Y31650
X36900Y32650
X36900Y33650
X18650Y29650
X18650Y28650
X18650Y27150
X18650Y26150
T08
X21772Y29341
X21882Y37214
T09
X31723Y36901
X34597Y36901
M30
