G75*
%MOIN*%
%OFA0B0*%
%FSLAX24Y24*%
%IPPOS*%
%LPD*%
%AMOC8*
5,1,8,0,0,1.08239X$1,22.5*
%
%ADD10C,0.0000*%
%ADD11C,0.0808*%
%ADD12R,0.0631X0.0552*%
%ADD13C,0.0560*%
%ADD14R,0.0640X0.0640*%
%ADD15OC8,0.0640*%
%ADD16C,0.1540*%
%ADD17C,0.0516*%
%ADD18R,0.0540X0.0260*%
%ADD19R,0.0260X0.0540*%
%ADD20C,0.0634*%
%ADD21OC8,0.0700*%
%ADD22R,0.0552X0.0631*%
%ADD23C,0.0749*%
%ADD24OC8,0.0560*%
%ADD25R,0.0276X0.0512*%
%ADD26R,0.0552X0.0670*%
%ADD27R,0.0316X0.0394*%
%ADD28OC8,0.1040*%
%ADD29C,0.0780*%
D10*
X018150Y018150D02*
X037520Y018150D01*
X037520Y037835D01*
X018150Y037835D01*
X018150Y037900D02*
X018150Y018150D01*
D11*
X021772Y029341D03*
X021882Y037214D03*
D12*
X031602Y034081D03*
X031602Y033333D03*
X035400Y032274D03*
X035400Y031526D03*
X033914Y029756D03*
X033914Y029087D03*
X033933Y028471D03*
X033933Y027802D03*
X027650Y024024D03*
X026650Y024024D03*
X025650Y024024D03*
X024650Y024024D03*
X024650Y023276D03*
X025650Y023276D03*
X026650Y023276D03*
X027650Y023276D03*
X023650Y023276D03*
X023650Y024024D03*
X023700Y021224D03*
X023700Y020476D03*
X026148Y028294D03*
X026148Y028963D03*
D13*
X020550Y025150D03*
X028900Y023890D03*
X029900Y023890D03*
X030900Y023890D03*
X030900Y024900D03*
X031900Y024900D03*
X032900Y024900D03*
X032093Y027559D03*
X032093Y029559D03*
X024342Y034662D03*
X023342Y034662D03*
D14*
X030767Y031358D03*
D15*
X029767Y031358D03*
X028767Y031358D03*
X028767Y032358D03*
X029767Y032358D03*
X030767Y032358D03*
X025650Y027150D03*
X024650Y027150D03*
X024650Y026150D03*
X025650Y026150D03*
X023650Y026150D03*
X022650Y026150D03*
X021650Y026150D03*
X021650Y027150D03*
X022650Y027150D03*
X023650Y027150D03*
D16*
X031723Y036901D03*
X034597Y036901D03*
D17*
X033475Y035860D02*
X033475Y035385D01*
X033160Y034873D02*
X033160Y034397D01*
X032530Y034397D02*
X032530Y034873D01*
X032845Y035385D02*
X032845Y035860D01*
X033790Y034873D02*
X033790Y034397D01*
D18*
X030419Y029404D03*
X030419Y029089D03*
X030419Y028774D03*
X030419Y028459D03*
X030419Y028144D03*
X030419Y027829D03*
X030419Y027514D03*
X030419Y027199D03*
X027039Y027199D03*
X027039Y027514D03*
X027039Y027829D03*
X027039Y028144D03*
X027039Y028459D03*
X027039Y028774D03*
X027039Y029089D03*
X027039Y029404D03*
D19*
X027627Y029991D03*
X027942Y029991D03*
X028257Y029991D03*
X028571Y029991D03*
X028886Y029991D03*
X029201Y029991D03*
X029516Y029991D03*
X029831Y029991D03*
X029831Y026611D03*
X029516Y026611D03*
X029201Y026611D03*
X028886Y026611D03*
X028571Y026611D03*
X028257Y026611D03*
X027942Y026611D03*
X027627Y026611D03*
D20*
X027650Y022526D03*
X026650Y022526D03*
X025650Y022526D03*
X024650Y022526D03*
X023650Y022526D03*
X028650Y022526D03*
X029650Y022526D03*
X030650Y022526D03*
X030650Y038274D03*
X029650Y038274D03*
X028650Y038274D03*
X027650Y038274D03*
X026650Y038274D03*
X025650Y038274D03*
X024650Y038274D03*
X023650Y038274D03*
D21*
X022370Y020540D03*
X021430Y020540D03*
X021430Y018760D03*
X022370Y018760D03*
X024930Y018760D03*
X025870Y018760D03*
X025870Y020540D03*
X024930Y020540D03*
X028430Y020540D03*
X029370Y020540D03*
X029370Y018760D03*
X028430Y018760D03*
X031930Y018760D03*
X031930Y020540D03*
X018870Y020540D03*
X018870Y018760D03*
D22*
X024126Y019700D03*
X024874Y019700D03*
X025926Y019700D03*
X026674Y019700D03*
X028436Y025020D03*
X029184Y025020D03*
X030776Y025900D03*
X031524Y025900D03*
X034026Y026900D03*
X034774Y026900D03*
X034806Y025780D03*
X035554Y025780D03*
X035524Y029150D03*
X034776Y029150D03*
D23*
X036900Y029400D03*
X036900Y028400D03*
X036900Y027150D03*
X036900Y026150D03*
X036900Y025150D03*
X036900Y023900D03*
X036900Y022900D03*
X036900Y021650D03*
X036900Y020650D03*
X036900Y030400D03*
X036900Y031650D03*
X036900Y032650D03*
X036900Y033650D03*
X018650Y029650D03*
X018650Y028650D03*
X018650Y027150D03*
X018650Y026150D03*
D24*
X019750Y025150D03*
D25*
X027150Y033968D03*
X027650Y033968D03*
X028150Y033968D03*
X028650Y033968D03*
X029150Y033968D03*
X029650Y033968D03*
X030150Y033968D03*
X030650Y033968D03*
X030650Y036172D03*
X030150Y036172D03*
X029650Y036172D03*
X029150Y036172D03*
X028650Y036172D03*
X028150Y036172D03*
X027650Y036172D03*
X027150Y036172D03*
D26*
X028256Y037150D03*
X029044Y037150D03*
D27*
X035394Y033150D03*
X035906Y033150D03*
X036156Y029900D03*
X035644Y029900D03*
X035644Y026650D03*
X036156Y026650D03*
D28*
X034400Y022900D03*
X034400Y019900D03*
D29*
X026820Y030620D03*
X026820Y031620D03*
X026820Y032620D03*
M02*
