G75*
%MOIN*%
%OFA0B0*%
%FSLAX24Y24*%
%IPPOS*%
%LPD*%
%AMOC8*
5,1,8,0,0,1.08239X$1,22.5*
%
%ADD10C,0.0000*%
%ADD11R,0.0591X0.0512*%
%ADD12R,0.0500X0.0220*%
%ADD13R,0.0220X0.0500*%
%ADD14R,0.0512X0.0591*%
%ADD15R,0.0236X0.0472*%
%ADD16R,0.0512X0.0630*%
%ADD17R,0.0276X0.0354*%
D10*
X018150Y018150D02*
X037520Y018150D01*
X037520Y037835D01*
X018150Y037835D01*
X018150Y037900D02*
X018150Y018150D01*
D11*
X023700Y020476D03*
X023700Y021224D03*
X023650Y023276D03*
X023650Y024024D03*
X024650Y024024D03*
X025650Y024024D03*
X026650Y024024D03*
X027650Y024024D03*
X027650Y023276D03*
X026650Y023276D03*
X025650Y023276D03*
X024650Y023276D03*
X026148Y028294D03*
X026148Y028963D03*
X031602Y033333D03*
X031602Y034081D03*
X035400Y032274D03*
X035400Y031526D03*
X033914Y029756D03*
X033914Y029087D03*
X033933Y028471D03*
X033933Y027802D03*
D12*
X030419Y027829D03*
X030419Y028144D03*
X030419Y028459D03*
X030419Y028774D03*
X030419Y029089D03*
X030419Y029404D03*
X030419Y027514D03*
X030419Y027199D03*
X027039Y027199D03*
X027039Y027514D03*
X027039Y027829D03*
X027039Y028144D03*
X027039Y028459D03*
X027039Y028774D03*
X027039Y029089D03*
X027039Y029404D03*
D13*
X027627Y029991D03*
X027942Y029991D03*
X028257Y029991D03*
X028571Y029991D03*
X028886Y029991D03*
X029201Y029991D03*
X029516Y029991D03*
X029831Y029991D03*
X029831Y026611D03*
X029516Y026611D03*
X029201Y026611D03*
X028886Y026611D03*
X028571Y026611D03*
X028257Y026611D03*
X027942Y026611D03*
X027627Y026611D03*
D14*
X028436Y025020D03*
X029184Y025020D03*
X030776Y025900D03*
X031524Y025900D03*
X034026Y026900D03*
X034774Y026900D03*
X034806Y025780D03*
X035554Y025780D03*
X035524Y029150D03*
X034776Y029150D03*
X026674Y019700D03*
X025926Y019700D03*
X024874Y019700D03*
X024126Y019700D03*
D15*
X027150Y033968D03*
X027650Y033968D03*
X028150Y033968D03*
X028650Y033968D03*
X029150Y033968D03*
X029650Y033968D03*
X030150Y033968D03*
X030650Y033968D03*
X030650Y036172D03*
X030150Y036172D03*
X029650Y036172D03*
X029150Y036172D03*
X028650Y036172D03*
X028150Y036172D03*
X027650Y036172D03*
X027150Y036172D03*
D16*
X028256Y037150D03*
X029044Y037150D03*
D17*
X035394Y033150D03*
X035906Y033150D03*
X036156Y029900D03*
X035644Y029900D03*
X035644Y026650D03*
X036156Y026650D03*
M02*
