G75*
%MOIN*%
%OFA0B0*%
%FSLAX24Y24*%
%IPPOS*%
%LPD*%
%AMOC8*
5,1,8,0,0,1.08239X$1,22.5*
%
%ADD10C,0.0000*%
%ADD11C,0.0768*%
%ADD12R,0.0260X0.0800*%
%ADD13C,0.0520*%
%ADD14R,0.0600X0.0600*%
%ADD15OC8,0.0600*%
%ADD16R,0.0880X0.0480*%
%ADD17R,0.0866X0.1417*%
%ADD18C,0.1500*%
%ADD19C,0.0476*%
%ADD20C,0.0594*%
%ADD21OC8,0.0660*%
%ADD22R,0.0512X0.0591*%
%ADD23C,0.0709*%
%ADD24OC8,0.0520*%
%ADD25R,0.0591X0.0512*%
%ADD26OC8,0.1000*%
%ADD27C,0.0740*%
%ADD28C,0.0070*%
%ADD29C,0.0240*%
D10*
X018150Y018150D02*
X037520Y018150D01*
X037520Y037835D01*
X018150Y037835D01*
X018150Y037900D02*
X018150Y018150D01*
D11*
X021772Y029341D03*
X021882Y037214D03*
D12*
X022743Y033597D03*
X023243Y033597D03*
X023743Y033597D03*
X024243Y033597D03*
X024243Y031177D03*
X023743Y031177D03*
X023243Y031177D03*
X022743Y031177D03*
D13*
X023342Y034662D03*
X024342Y034662D03*
X032093Y029559D03*
X032093Y027559D03*
X031900Y024900D03*
X030900Y024900D03*
X030900Y023890D03*
X029900Y023890D03*
X028900Y023890D03*
X032900Y024900D03*
X020550Y025150D03*
D14*
X030767Y031358D03*
D15*
X029767Y031358D03*
X028767Y031358D03*
X028767Y032358D03*
X029767Y032358D03*
X030767Y032358D03*
X025650Y027150D03*
X024650Y027150D03*
X024650Y026150D03*
X025650Y026150D03*
X023650Y026150D03*
X022650Y026150D03*
X021650Y026150D03*
X021650Y027150D03*
X022650Y027150D03*
X023650Y027150D03*
D16*
X019930Y023560D03*
X019930Y022650D03*
X019930Y021740D03*
D17*
X022370Y022650D03*
D18*
X031723Y036901D03*
X034597Y036901D03*
D19*
X033475Y035860D02*
X033475Y035385D01*
X033160Y034873D02*
X033160Y034397D01*
X032530Y034397D02*
X032530Y034873D01*
X032845Y035385D02*
X032845Y035860D01*
X033790Y034873D02*
X033790Y034397D01*
D20*
X030650Y038274D03*
X029650Y038274D03*
X028650Y038274D03*
X027650Y038274D03*
X026650Y038274D03*
X025650Y038274D03*
X024650Y038274D03*
X023650Y038274D03*
X023650Y022526D03*
X024650Y022526D03*
X025650Y022526D03*
X026650Y022526D03*
X027650Y022526D03*
X028650Y022526D03*
X029650Y022526D03*
X030650Y022526D03*
D21*
X029370Y020540D03*
X028430Y020540D03*
X028430Y018760D03*
X029370Y018760D03*
X031930Y018760D03*
X031930Y020540D03*
X025870Y020540D03*
X024930Y020540D03*
X024930Y018760D03*
X025870Y018760D03*
X022370Y018760D03*
X021430Y018760D03*
X021430Y020540D03*
X022370Y020540D03*
X018870Y020540D03*
X018870Y018760D03*
D22*
X023295Y029225D03*
X024043Y029225D03*
X024024Y030150D03*
X023276Y030150D03*
D23*
X018650Y029650D03*
X018650Y028650D03*
X018650Y027150D03*
X018650Y026150D03*
X036900Y026150D03*
X036900Y025150D03*
X036900Y023900D03*
X036900Y022900D03*
X036900Y021650D03*
X036900Y020650D03*
X036900Y027150D03*
X036900Y028400D03*
X036900Y029400D03*
X036900Y030400D03*
X036900Y031650D03*
X036900Y032650D03*
X036900Y033650D03*
D24*
X019750Y025150D03*
D25*
X018650Y021985D03*
X018650Y021315D03*
X028160Y027675D03*
X028160Y028345D03*
X029650Y028235D03*
X029650Y027565D03*
X025150Y031065D03*
X025150Y031735D03*
D26*
X034400Y022900D03*
X034400Y019900D03*
D27*
X026820Y030620D03*
X026820Y031620D03*
X026820Y032620D03*
D28*
X027008Y032126D02*
X024006Y032126D01*
X024006Y031782D02*
X025138Y031782D01*
X025150Y031735D01*
X025187Y031733D01*
X026713Y031733D01*
X026811Y031634D01*
X026820Y031620D01*
X027008Y032126D02*
X027402Y031733D01*
X027697Y031930D02*
X027697Y030798D01*
X026959Y030059D01*
X025335Y030059D01*
X024548Y029272D01*
X024056Y029272D02*
X024043Y029225D01*
X024006Y029223D01*
X024006Y028731D01*
X023982Y028706D01*
X024006Y028681D01*
X024203Y028681D01*
X023982Y028706D02*
X023760Y028485D01*
X023563Y028485D01*
X023416Y028632D01*
X018691Y028632D01*
X018650Y028650D01*
X018650Y029650D02*
X018691Y029666D01*
X022727Y033701D01*
X022743Y033597D01*
X022776Y033554D01*
X022776Y033012D01*
X024006Y031782D01*
X023662Y031782D02*
X023613Y031782D01*
X023268Y031437D01*
X023268Y031191D01*
X023243Y031177D01*
X023268Y031142D01*
X023268Y030158D01*
X023276Y030150D01*
X022776Y029764D02*
X023268Y029272D01*
X023295Y029225D01*
X023317Y029223D01*
X023662Y028878D01*
X023662Y028731D01*
X024056Y029272D02*
X024056Y030109D01*
X024024Y030150D01*
X024056Y030158D01*
X024991Y031093D01*
X025150Y031065D01*
X025138Y031093D01*
X024991Y031093D01*
X024302Y031093D01*
X024252Y031142D01*
X024243Y031177D01*
X022776Y031142D02*
X022776Y029764D01*
X022776Y031142D02*
X022743Y031177D01*
X023219Y032914D02*
X023219Y033554D01*
X023243Y033597D01*
X023711Y033603D02*
X023743Y033597D01*
X023711Y033603D02*
X023711Y034292D01*
X023367Y034636D01*
X023342Y034662D01*
X024252Y034587D02*
X024302Y034636D01*
X024342Y034662D01*
X024252Y034587D02*
X024252Y033603D01*
X024243Y033597D01*
X022743Y033597D02*
X022727Y033603D01*
X022727Y033701D01*
X022727Y036359D01*
X021890Y037195D01*
X021882Y037214D01*
X027943Y036506D02*
X028288Y036851D01*
X028485Y036851D01*
X030847Y034489D01*
X030847Y034243D01*
X034538Y030552D01*
X035817Y030552D01*
X035965Y030404D01*
X035965Y027057D01*
X036408Y026713D02*
X036432Y026688D01*
X036408Y026664D01*
X036408Y024941D01*
X036851Y024498D01*
X036851Y023908D01*
X036900Y023900D01*
X036851Y023859D01*
X036260Y023859D01*
X032963Y020561D01*
X031979Y020561D01*
X031930Y020540D01*
X031930Y020561D01*
X030650Y020561D01*
X030650Y022481D01*
X030650Y022526D01*
X030650Y022530D01*
X030650Y023613D01*
X030896Y023859D01*
X030900Y023890D01*
X030896Y023908D01*
X030896Y024892D01*
X030900Y024900D01*
X030896Y024941D01*
X030896Y028042D01*
X030207Y028042D01*
X029764Y027599D01*
X029666Y027599D01*
X029650Y027565D01*
X029617Y027599D01*
X029567Y027648D01*
X028681Y027648D01*
X028681Y027599D01*
X028681Y027648D02*
X028189Y027648D01*
X028160Y027675D01*
X027648Y027894D02*
X028140Y028386D01*
X028160Y028345D01*
X028042Y028239D01*
X029321Y028239D01*
X029813Y028731D01*
X029813Y029617D01*
X031191Y030994D01*
X031191Y031930D01*
X030798Y032323D01*
X030767Y032358D01*
X030207Y032815D02*
X029666Y033357D01*
X029469Y033012D02*
X029469Y032668D01*
X029223Y032422D01*
X029223Y031782D01*
X029174Y031733D01*
X029223Y031437D02*
X029223Y031191D01*
X027894Y029863D01*
X025729Y029863D01*
X023563Y027697D01*
X022650Y027150D02*
X022628Y027156D01*
X022628Y028386D01*
X024695Y027894D02*
X024695Y027156D01*
X024650Y027150D01*
X025089Y027205D02*
X025089Y026959D01*
X024843Y026713D01*
X019085Y026713D01*
X018691Y027107D01*
X018650Y027150D01*
X018650Y026150D02*
X018691Y026122D01*
X019577Y026122D01*
X020512Y025187D01*
X020550Y025150D01*
X020758Y025187D01*
X022333Y023613D01*
X022333Y022678D01*
X022370Y022650D01*
X022924Y022431D02*
X022924Y021743D01*
X021890Y020709D01*
X021890Y020365D01*
X022185Y020069D01*
X033406Y020069D01*
X036211Y022874D01*
X036851Y022874D01*
X036900Y022900D01*
X036900Y021650D02*
X036851Y021644D01*
X035227Y021644D01*
X033455Y019872D01*
X021447Y019872D01*
X021430Y020540D02*
X021398Y020561D01*
X018888Y020561D01*
X018870Y020540D01*
X018650Y021315D02*
X018691Y021349D01*
X019577Y021349D01*
X019922Y021693D01*
X019930Y021740D01*
X019971Y021693D01*
X022530Y021693D01*
X022924Y022431D02*
X025089Y024597D01*
X025089Y026221D01*
X025483Y026615D01*
X025729Y026615D01*
X026565Y027451D01*
X026565Y029420D01*
X026467Y029666D02*
X024695Y027894D01*
X025089Y027205D02*
X025680Y027796D01*
X026270Y027796D01*
X026073Y026664D02*
X027500Y028091D01*
X027500Y028731D01*
X026467Y029666D02*
X028681Y029666D01*
X030355Y031339D01*
X030748Y031339D01*
X030767Y031358D01*
X029764Y031979D02*
X029223Y031437D01*
X028767Y031358D02*
X028731Y031388D01*
X028337Y031782D01*
X028337Y032520D01*
X028386Y032569D01*
X028386Y036605D01*
X027943Y036506D02*
X027943Y030847D01*
X029764Y031979D02*
X029764Y032323D01*
X029767Y032358D01*
X031093Y034341D02*
X032077Y034341D01*
X032422Y033996D01*
X032668Y033996D01*
X033160Y034489D01*
X033160Y034833D01*
X033160Y034873D01*
X032815Y035128D02*
X032569Y034882D01*
X032530Y034873D01*
X032815Y035128D02*
X032815Y035374D01*
X032845Y035385D01*
X035670Y032766D02*
X034685Y031782D01*
X036408Y032865D02*
X036408Y029666D01*
X036432Y029641D01*
X036851Y030059D01*
X036851Y030355D01*
X036900Y030400D01*
X035719Y030306D02*
X032077Y026664D01*
X031142Y026418D02*
X031142Y028140D01*
X030896Y028386D01*
X030896Y029370D01*
X031683Y028731D02*
X031683Y025237D01*
X031290Y024843D01*
X031290Y023711D01*
X030994Y023416D01*
X029650Y022526D02*
X029617Y022530D01*
X028928Y023219D01*
X028928Y023859D01*
X028900Y023890D01*
X027402Y024302D02*
X027402Y024941D01*
X028288Y025827D01*
X028829Y025827D01*
X028140Y026122D02*
X029813Y026122D01*
X030650Y026664D02*
X030207Y027107D01*
X029124Y027107D01*
X028780Y027107D02*
X027156Y025483D01*
X027156Y024400D01*
X027254Y024154D02*
X027402Y024302D01*
X027254Y024154D02*
X027008Y024154D01*
X026319Y024843D01*
X026073Y024548D02*
X024203Y022678D01*
X024203Y020955D01*
X024892Y020561D02*
X024930Y020540D01*
X024941Y020561D01*
X025827Y020561D01*
X025870Y020540D01*
X025876Y020561D01*
X028386Y020561D01*
X028430Y020540D01*
X028435Y020561D01*
X029321Y020561D01*
X029370Y020540D01*
X029370Y020561D01*
X030650Y020561D01*
X029370Y018790D02*
X029370Y018760D01*
X029370Y018790D02*
X031930Y018790D01*
X031930Y018760D01*
X034400Y019900D02*
X034439Y019922D01*
X035128Y020611D01*
X036851Y020611D01*
X036900Y020650D01*
X034400Y022900D02*
X034390Y022924D01*
X032914Y024400D01*
X032914Y024892D01*
X032900Y024900D01*
X036408Y026713D02*
X036408Y029617D01*
X036432Y029641D01*
X036900Y027150D02*
X036851Y027107D01*
X036432Y026688D01*
X029650Y028235D02*
X029617Y028239D01*
X029321Y028239D01*
X028239Y027107D02*
X026615Y025483D01*
X026073Y024548D02*
X026073Y026664D01*
X021650Y026150D02*
X021644Y026122D01*
X020709Y025187D01*
X020561Y025187D01*
X020550Y025150D01*
X019774Y025138D02*
X019750Y025150D01*
X019774Y025138D02*
X019774Y023416D01*
X019930Y023560D01*
X019922Y023514D01*
X018691Y022284D01*
X018691Y021989D01*
X018650Y021985D01*
X022370Y020540D02*
X022382Y020561D01*
X024892Y020561D01*
X024892Y018790D02*
X022382Y018790D01*
X022370Y018760D01*
X021430Y018760D02*
X021398Y018790D01*
X018888Y018790D01*
X018870Y018760D01*
X024892Y018790D02*
X024930Y018760D01*
X036408Y032865D02*
X036851Y033307D01*
X036851Y033603D01*
X036900Y033650D01*
D29*
X035670Y032766D03*
X034685Y031782D03*
X035719Y030306D03*
X031683Y028731D03*
X030896Y029370D03*
X029813Y028731D03*
X030896Y028042D03*
X030650Y026664D03*
X031142Y026418D03*
X032077Y026664D03*
X029813Y026122D03*
X028829Y025827D03*
X028140Y026122D03*
X028239Y027107D03*
X028780Y027107D03*
X029124Y027107D03*
X028681Y027599D03*
X027648Y027894D03*
X026270Y027796D03*
X027500Y028731D03*
X026565Y029420D03*
X027943Y030847D03*
X027402Y031733D03*
X027697Y031930D03*
X029174Y031733D03*
X029469Y033012D03*
X029666Y033357D03*
X030207Y032815D03*
X031093Y034341D03*
X028386Y036605D03*
X023219Y032914D03*
X024006Y032126D03*
X023662Y031782D03*
X024548Y029272D03*
X024203Y028681D03*
X023662Y028731D03*
X022628Y028386D03*
X023563Y027697D03*
X026615Y025483D03*
X026319Y024843D03*
X027156Y024400D03*
X030994Y023416D03*
X035965Y027057D03*
X024203Y020955D03*
X022530Y021693D03*
X021447Y019872D03*
M02*
