%
M48
M72
T01C0.0120
T02C0.0276
T03C0.0320
T04C0.0354
T05C0.0374
T06C0.0394
T07C0.0400
T08C0.0472
T09C0.0492
T10C0.0650
T11C0.0787
T12C0.1260
T13C0.1400
%
T01
X24420Y30520
X30130Y30890
X37530Y30550
X32820Y28900
X34840Y25680
X19910Y29100
X30380Y29510
X37980Y23320
X20990Y31340
X36690Y22460
X40820Y26570
X31650Y26030
X34220Y28630
X37660Y28630
X33260Y28320
X37810Y28320
X33090Y28610
X20550Y27000
X20550Y23960
X31950Y26570
X25690Y26570
X20910Y26960
X20910Y23820
X33310Y25750
X26500Y25760
X33070Y22050
X33290Y20650
X35040Y32180
X35720Y32460
X30130Y31440
X31950Y27960
X32510Y27400
X35170Y27400
X34230Y23780
X23320Y33430
X25410Y33430
X29820Y30610
X30380Y30320
X20270Y26230
X29910Y20310
X20860Y28290
X21210Y28340
X27790Y26850
X48470Y26850
X33100Y27680
X40260Y27680
X43240Y27680
X22470Y31550
X31340Y29380
X22120Y33150
X23150Y34290
X28640Y34280
X22120Y29250
X30150Y27130
X24190Y33900
X22440Y33060
X25230Y33850
X24140Y29830
X27650Y31330
X46950Y29380
X55650Y22230
X50650Y22230
X45650Y22230
X31360Y21840
X33160Y30750
X34920Y25200
X19350Y25570
T02
X39930Y21217
X39615Y20705
X39300Y21217
X38985Y20705
X38670Y21217
T03
X21888Y27342
X21888Y26342
X42498Y37108
X41498Y37108
X38148Y31658
X38648Y32658
X40148Y31658
X39648Y32658
X40648Y32658
X39148Y31658
X41648Y32658
X41148Y31658
X37298Y37108
X38298Y37108
X35272Y29351
X35272Y31351
X25457Y31741
X25457Y29741
X52650Y25150
X52650Y24150
X52650Y21150
X54650Y21150
X54650Y24150
X54650Y25150
X56150Y26150
X56150Y24150
X56150Y25150
X47650Y25150
X47650Y24150
X47650Y21150
X49650Y21150
X49650Y24150
X49650Y25150
X51150Y26150
X51150Y24150
X51150Y25150
X42650Y25150
X42650Y24150
X42650Y21150
X44650Y21150
X44650Y24150
X44650Y25150
X46150Y26150
X46150Y24150
X46150Y25150
X30650Y35650
X28650Y35650
X29650Y35650
X34900Y34300
X34900Y33500
T04
X56650Y23150
X56650Y20150
X51650Y23150
X51650Y20150
X46650Y23150
X46650Y20150
T05
X29989Y24532
T06
X23650Y36524
X24650Y36524
X25650Y36524
X26650Y36524
X27650Y36524
X28650Y36524
X29650Y36524
X30650Y36524
X23650Y20776
X24650Y20776
X25650Y20776
X26650Y20776
X27650Y20776
X28650Y20776
X29650Y20776
X30650Y20776
X49650Y19150
X48650Y19150
X47650Y19150
X54650Y19150
X53650Y19150
X52650Y19150
X44650Y19150
X43650Y19150
X42650Y19150
T07
X37448Y25843
X38448Y25843
X37448Y24843
X38448Y24843
X37448Y23843
X38448Y23843
X48870Y32040
X51430Y32040
X48870Y30260
X51430Y30260
X45370Y32040
X47930Y32040
X45370Y30260
X47930Y30260
X48870Y29040
X51430Y29040
X48870Y27260
X51430Y27260
X48870Y35040
X51430Y35040
X48870Y33260
X51430Y33260
X52370Y32040
X54930Y32040
X52370Y30260
X54930Y30260
X44626Y35184
X47186Y35184
X44626Y33404
X47186Y33404
T08
X25650Y18900
X24650Y18900
X29150Y18900
X28150Y18900
X27150Y18900
X32650Y18900
X31650Y18900
X30650Y18900
X36150Y18900
X35150Y18900
X34150Y18900
X20900Y18900
X21900Y18900
T09
X27036Y24532
T10
X36748Y34008
X43048Y34008
T11
X37863Y19189
X40737Y19189
T12
X56650Y36900
X56650Y18900
X19150Y36900
X19150Y19150
T13
X42148Y35158
X37648Y35158
M30
