G75*
G70*
%OFA0B0*%
%FSLAX24Y24*%
%IPPOS*%
%LPD*%
%AMOC8*
5,1,8,0,0,1.08239X$1,22.5*
%
%ADD10C,0.0240*%
%ADD11C,0.0000*%
%ADD12C,0.0060*%
%ADD13C,0.0050*%
%ADD14C,0.0000*%
%ADD15C,0.0080*%
%ADD16C,0.0040*%
%ADD17C,0.0020*%
%ADD18C,0.0030*%
%ADD19C,0.0010*%
%ADD20C,0.0160*%
%ADD21R,0.0230X0.0160*%
%ADD22C,0.0001*%
%ADD23R,0.0079X0.0079*%
%ADD24R,0.0098X0.0059*%
%ADD25C,0.0100*%
D10*
X033750Y036365D02*
X035750Y036365D01*
D11*
X018150Y018150D02*
X057520Y018150D01*
X057520Y037835D01*
X018150Y037835D01*
X018150Y037900D02*
X018150Y018150D01*
D12*
X020392Y019333D02*
X022408Y019333D01*
X024142Y018467D02*
X026158Y018467D01*
X026642Y018467D02*
X029658Y018467D01*
X030142Y018467D02*
X033158Y018467D01*
X033642Y018467D02*
X036658Y018467D01*
X035004Y020202D02*
X032642Y020202D01*
X032642Y022062D02*
X035004Y022062D01*
X036948Y023593D02*
X036948Y024093D01*
X037198Y024343D01*
X038698Y024343D01*
X038948Y024093D01*
X038948Y023593D01*
X038698Y023343D01*
X037198Y023343D01*
X036948Y023593D01*
X037198Y024343D02*
X036948Y024593D01*
X036948Y025093D01*
X037198Y025343D01*
X038698Y025343D01*
X038948Y025093D01*
X038948Y024593D01*
X038698Y024343D01*
X038698Y025343D02*
X038948Y025593D01*
X038948Y026093D01*
X038698Y026343D01*
X037198Y026343D01*
X036948Y026093D01*
X036948Y025593D01*
X037198Y025343D01*
X033447Y027733D02*
X031144Y027733D01*
X031144Y031827D01*
X033447Y031827D01*
X033447Y027733D01*
X031347Y031443D02*
X031349Y031469D01*
X031355Y031495D01*
X031364Y031520D01*
X031377Y031543D01*
X031393Y031564D01*
X031412Y031582D01*
X031434Y031598D01*
X031457Y031610D01*
X031482Y031618D01*
X031508Y031623D01*
X031535Y031624D01*
X031561Y031621D01*
X031586Y031614D01*
X031611Y031604D01*
X031633Y031590D01*
X031654Y031573D01*
X031671Y031554D01*
X031686Y031532D01*
X031697Y031508D01*
X031705Y031482D01*
X031709Y031456D01*
X031709Y031430D01*
X031705Y031404D01*
X031697Y031378D01*
X031686Y031354D01*
X031671Y031332D01*
X031654Y031313D01*
X031633Y031296D01*
X031611Y031282D01*
X031586Y031272D01*
X031561Y031265D01*
X031535Y031262D01*
X031508Y031263D01*
X031482Y031268D01*
X031457Y031276D01*
X031434Y031288D01*
X031412Y031304D01*
X031393Y031322D01*
X031377Y031343D01*
X031364Y031366D01*
X031355Y031391D01*
X031349Y031417D01*
X031347Y031443D01*
X034100Y033500D02*
X034300Y033500D01*
X034200Y033400D02*
X034200Y033600D01*
X033900Y033900D02*
X033902Y033963D01*
X033908Y034025D01*
X033918Y034087D01*
X033931Y034149D01*
X033949Y034209D01*
X033970Y034268D01*
X033995Y034326D01*
X034024Y034382D01*
X034056Y034436D01*
X034091Y034488D01*
X034129Y034537D01*
X034171Y034585D01*
X034215Y034629D01*
X034263Y034671D01*
X034312Y034709D01*
X034364Y034744D01*
X034418Y034776D01*
X034474Y034805D01*
X034532Y034830D01*
X034591Y034851D01*
X034651Y034869D01*
X034713Y034882D01*
X034775Y034892D01*
X034837Y034898D01*
X034900Y034900D01*
X034963Y034898D01*
X035025Y034892D01*
X035087Y034882D01*
X035149Y034869D01*
X035209Y034851D01*
X035268Y034830D01*
X035326Y034805D01*
X035382Y034776D01*
X035436Y034744D01*
X035488Y034709D01*
X035537Y034671D01*
X035585Y034629D01*
X035629Y034585D01*
X035671Y034537D01*
X035709Y034488D01*
X035744Y034436D01*
X035776Y034382D01*
X035805Y034326D01*
X035830Y034268D01*
X035851Y034209D01*
X035869Y034149D01*
X035882Y034087D01*
X035892Y034025D01*
X035898Y033963D01*
X035900Y033900D01*
X035898Y033837D01*
X035892Y033775D01*
X035882Y033713D01*
X035869Y033651D01*
X035851Y033591D01*
X035830Y033532D01*
X035805Y033474D01*
X035776Y033418D01*
X035744Y033364D01*
X035709Y033312D01*
X035671Y033263D01*
X035629Y033215D01*
X035585Y033171D01*
X035537Y033129D01*
X035488Y033091D01*
X035436Y033056D01*
X035382Y033024D01*
X035326Y032995D01*
X035268Y032970D01*
X035209Y032949D01*
X035149Y032931D01*
X035087Y032918D01*
X035025Y032908D01*
X034963Y032902D01*
X034900Y032900D01*
X034837Y032902D01*
X034775Y032908D01*
X034713Y032918D01*
X034651Y032931D01*
X034591Y032949D01*
X034532Y032970D01*
X034474Y032995D01*
X034418Y033024D01*
X034364Y033056D01*
X034312Y033091D01*
X034263Y033129D01*
X034215Y033171D01*
X034171Y033215D01*
X034129Y033263D01*
X034091Y033312D01*
X034056Y033364D01*
X034024Y033418D01*
X033995Y033474D01*
X033970Y033532D01*
X033949Y033591D01*
X033931Y033651D01*
X033918Y033713D01*
X033908Y033775D01*
X033902Y033837D01*
X033900Y033900D01*
X039130Y029490D02*
X039130Y029220D01*
X039220Y029130D01*
X039310Y029220D01*
X039400Y029130D01*
X039490Y029220D01*
X039490Y029490D01*
X039682Y029490D02*
X039682Y029220D01*
X039772Y029130D01*
X039862Y029220D01*
X039952Y029130D01*
X040042Y029220D01*
X040042Y029490D01*
X040234Y029490D02*
X040234Y029220D01*
X040325Y029130D01*
X040415Y029220D01*
X040505Y029130D01*
X040595Y029220D01*
X040595Y029490D01*
X040787Y029220D02*
X040877Y029220D01*
X040877Y029130D01*
X040787Y029130D01*
X040787Y029220D01*
X041063Y029220D02*
X041153Y029130D01*
X041333Y029130D01*
X041423Y029220D01*
X041423Y029310D01*
X041333Y029400D01*
X041153Y029400D01*
X041063Y029490D01*
X041063Y029580D01*
X041153Y029670D01*
X041333Y029670D01*
X041423Y029580D01*
X041706Y029490D02*
X041886Y029490D01*
X041976Y029400D01*
X041976Y029130D01*
X041706Y029130D01*
X041616Y029220D01*
X041706Y029310D01*
X041976Y029310D01*
X042168Y029220D02*
X042258Y029130D01*
X042528Y029130D01*
X042528Y029490D01*
X042721Y029670D02*
X042811Y029670D01*
X042811Y029130D01*
X042721Y029130D02*
X042901Y029130D01*
X043089Y029220D02*
X043089Y029400D01*
X043179Y029490D01*
X043359Y029490D01*
X043449Y029400D01*
X043449Y029310D01*
X043089Y029310D01*
X043089Y029220D02*
X043179Y029130D01*
X043359Y029130D01*
X043641Y029310D02*
X043822Y029130D01*
X044002Y029310D01*
X044002Y029670D01*
X044194Y029490D02*
X044284Y029490D01*
X044284Y029130D01*
X044194Y029130D02*
X044374Y029130D01*
X044562Y029130D02*
X044562Y029490D01*
X044562Y029310D02*
X044742Y029490D01*
X044832Y029490D01*
X045023Y029400D02*
X045113Y029490D01*
X045293Y029490D01*
X045383Y029400D01*
X045383Y029310D01*
X045023Y029310D01*
X045023Y029220D02*
X045023Y029400D01*
X045023Y029220D02*
X045113Y029130D01*
X045293Y029130D01*
X045575Y029130D02*
X045575Y029220D01*
X045665Y029220D01*
X045665Y029130D01*
X045575Y029130D01*
X045851Y029130D02*
X046031Y029130D01*
X045941Y029130D02*
X045941Y029670D01*
X045851Y029670D01*
X046220Y029490D02*
X046400Y029490D01*
X046310Y029580D02*
X046310Y029220D01*
X046400Y029130D01*
X044284Y029670D02*
X044284Y029760D01*
X043641Y029670D02*
X043641Y029310D01*
X042168Y029220D02*
X042168Y029490D01*
X024938Y027142D02*
X024938Y026542D01*
X024936Y026525D01*
X024932Y026508D01*
X024925Y026492D01*
X024915Y026478D01*
X024902Y026465D01*
X024888Y026455D01*
X024872Y026448D01*
X024855Y026444D01*
X024838Y026442D01*
X022688Y026442D01*
X022688Y026492D01*
X022688Y027192D01*
X022688Y027242D01*
X024838Y027242D01*
X024855Y027240D01*
X024872Y027236D01*
X024888Y027229D01*
X024902Y027219D01*
X024915Y027206D01*
X024925Y027192D01*
X024932Y027176D01*
X024936Y027159D01*
X024938Y027142D01*
X024188Y026842D02*
X023988Y026842D01*
X023988Y026642D01*
X023838Y026642D02*
X023838Y027042D01*
X023688Y027042D01*
X023688Y026642D01*
X023838Y026642D01*
X023988Y026842D02*
X023988Y027042D01*
X023538Y027042D02*
X023538Y026842D01*
X023538Y026642D01*
X023538Y026842D02*
X023338Y026842D01*
X022688Y026492D02*
X022538Y026492D01*
X022538Y027192D01*
X022688Y027192D01*
X023201Y029109D02*
X020581Y029109D01*
X020581Y031869D01*
X023341Y031869D01*
X023341Y029248D01*
X023201Y029109D01*
X022900Y029409D02*
X022902Y029432D01*
X022908Y029455D01*
X022917Y029476D01*
X022930Y029496D01*
X022946Y029513D01*
X022964Y029527D01*
X022984Y029538D01*
X023006Y029546D01*
X023029Y029550D01*
X023053Y029550D01*
X023076Y029546D01*
X023098Y029538D01*
X023118Y029527D01*
X023136Y029513D01*
X023152Y029496D01*
X023165Y029476D01*
X023174Y029455D01*
X023180Y029432D01*
X023182Y029409D01*
X023180Y029386D01*
X023174Y029363D01*
X023165Y029342D01*
X023152Y029322D01*
X023136Y029305D01*
X023118Y029291D01*
X023098Y029280D01*
X023076Y029272D01*
X023053Y029268D01*
X023029Y029268D01*
X023006Y029272D01*
X022984Y029280D01*
X022964Y029291D01*
X022946Y029305D01*
X022930Y029322D01*
X022917Y029342D01*
X022908Y029363D01*
X022902Y029386D01*
X022900Y029409D01*
X021657Y025183D02*
X019957Y025183D01*
X019934Y025181D01*
X019911Y025176D01*
X019889Y025167D01*
X019869Y025154D01*
X019851Y025139D01*
X019836Y025121D01*
X019823Y025101D01*
X019814Y025079D01*
X019809Y025056D01*
X019807Y025033D01*
X019807Y023793D01*
X019809Y023770D01*
X019814Y023747D01*
X019823Y023725D01*
X019836Y023705D01*
X019851Y023687D01*
X019869Y023672D01*
X019889Y023659D01*
X019911Y023650D01*
X019934Y023645D01*
X019957Y023643D01*
X021657Y023643D01*
X021680Y023645D01*
X021703Y023650D01*
X021725Y023659D01*
X021745Y023672D01*
X021763Y023687D01*
X021778Y023705D01*
X021791Y023725D01*
X021800Y023747D01*
X021805Y023770D01*
X021807Y023793D01*
X021807Y025033D01*
X021805Y025056D01*
X021800Y025079D01*
X021791Y025101D01*
X021778Y025121D01*
X021763Y025139D01*
X021745Y025154D01*
X021725Y025167D01*
X021703Y025176D01*
X021680Y025181D01*
X021657Y025183D01*
X021807Y024613D02*
X021780Y024611D01*
X021753Y024606D01*
X021727Y024596D01*
X021703Y024584D01*
X021681Y024568D01*
X021661Y024550D01*
X021644Y024528D01*
X021629Y024505D01*
X021619Y024480D01*
X021611Y024454D01*
X021607Y024427D01*
X021607Y024399D01*
X021611Y024372D01*
X021619Y024346D01*
X021629Y024321D01*
X021644Y024298D01*
X021661Y024276D01*
X021681Y024258D01*
X021703Y024242D01*
X021727Y024230D01*
X021753Y024220D01*
X021780Y024215D01*
X021807Y024213D01*
D13*
X020063Y022744D02*
X020063Y032587D01*
X034237Y032587D01*
X034237Y022744D01*
X020063Y022744D01*
X019276Y021957D02*
X019276Y035343D01*
X035024Y035343D01*
X035024Y021957D01*
X019276Y021957D01*
X018150Y019650D02*
X018150Y037650D01*
X036150Y037650D01*
X036150Y019650D01*
X018150Y019650D01*
X025461Y021697D02*
X025461Y027367D01*
X026248Y027367D01*
X026248Y021697D01*
X025461Y021697D01*
X025698Y024532D02*
X025702Y024675D01*
X025712Y024818D01*
X025730Y024959D01*
X025754Y025100D01*
X025785Y025240D01*
X025823Y025378D01*
X025868Y025513D01*
X025920Y025647D01*
X025978Y025777D01*
X026042Y025905D01*
X026112Y026030D01*
X026189Y026150D01*
X026271Y026267D01*
X026359Y026380D01*
X026453Y026488D01*
X026551Y026592D01*
X026655Y026690D01*
X026763Y026784D01*
X026876Y026872D01*
X026993Y026954D01*
X027113Y027031D01*
X027238Y027101D01*
X027366Y027165D01*
X027496Y027223D01*
X027630Y027275D01*
X027765Y027320D01*
X027903Y027358D01*
X028043Y027389D01*
X028184Y027413D01*
X028325Y027431D01*
X028468Y027441D01*
X028611Y027445D01*
X028754Y027441D01*
X028897Y027431D01*
X029038Y027413D01*
X029179Y027389D01*
X029319Y027358D01*
X029457Y027320D01*
X029592Y027275D01*
X029726Y027223D01*
X029856Y027165D01*
X029984Y027101D01*
X030109Y027031D01*
X030229Y026954D01*
X030346Y026872D01*
X030459Y026784D01*
X030567Y026690D01*
X030671Y026592D01*
X030769Y026488D01*
X030863Y026380D01*
X030951Y026267D01*
X031033Y026150D01*
X031110Y026030D01*
X031180Y025905D01*
X031244Y025777D01*
X031302Y025647D01*
X031354Y025513D01*
X031399Y025378D01*
X031437Y025240D01*
X031468Y025100D01*
X031492Y024959D01*
X031510Y024818D01*
X031520Y024675D01*
X031524Y024532D01*
X031520Y024389D01*
X031510Y024246D01*
X031492Y024105D01*
X031468Y023964D01*
X031437Y023824D01*
X031399Y023686D01*
X031354Y023551D01*
X031302Y023417D01*
X031244Y023287D01*
X031180Y023159D01*
X031110Y023034D01*
X031033Y022914D01*
X030951Y022797D01*
X030863Y022684D01*
X030769Y022576D01*
X030671Y022472D01*
X030567Y022374D01*
X030459Y022280D01*
X030346Y022192D01*
X030229Y022110D01*
X030109Y022033D01*
X029984Y021963D01*
X029856Y021899D01*
X029726Y021841D01*
X029592Y021789D01*
X029457Y021744D01*
X029319Y021706D01*
X029179Y021675D01*
X029038Y021651D01*
X028897Y021633D01*
X028754Y021623D01*
X028611Y021619D01*
X028468Y021623D01*
X028325Y021633D01*
X028184Y021651D01*
X028043Y021675D01*
X027903Y021706D01*
X027765Y021744D01*
X027630Y021789D01*
X027496Y021841D01*
X027366Y021899D01*
X027238Y021963D01*
X027113Y022033D01*
X026993Y022110D01*
X026876Y022192D01*
X026763Y022280D01*
X026655Y022374D01*
X026551Y022472D01*
X026453Y022576D01*
X026359Y022684D01*
X026271Y022797D01*
X026189Y022914D01*
X026112Y023034D01*
X026042Y023159D01*
X025978Y023287D01*
X025920Y023417D01*
X025868Y023551D01*
X025823Y023686D01*
X025785Y023824D01*
X025754Y023964D01*
X025730Y024105D01*
X025712Y024246D01*
X025702Y024389D01*
X025698Y024532D01*
X025592Y030375D02*
X025142Y030675D01*
X025217Y030835D02*
X025142Y030910D01*
X025142Y031060D01*
X025217Y031135D01*
X025292Y031135D01*
X025592Y030835D01*
X025592Y031135D01*
X025592Y030675D02*
X025142Y030375D01*
X028700Y035200D02*
X028640Y035370D01*
X028345Y035475D02*
X028045Y035475D01*
X028195Y035475D02*
X028195Y035925D01*
X028045Y035775D01*
X027884Y035925D02*
X027584Y035925D01*
X027734Y035925D02*
X027734Y035475D01*
X028640Y035930D02*
X028690Y036090D01*
X028825Y036300D02*
X030475Y036300D01*
X030600Y036100D02*
X030650Y035970D01*
X030203Y035700D02*
X030097Y035700D01*
X030660Y035370D02*
X030610Y035210D01*
X029203Y035700D02*
X029097Y035700D01*
X035114Y035560D02*
X035114Y035260D01*
X035189Y035185D01*
X035339Y035185D01*
X035414Y035260D01*
X035575Y035185D02*
X035875Y035185D01*
X035725Y035185D02*
X035725Y035635D01*
X035575Y035485D01*
X035414Y035560D02*
X035339Y035635D01*
X035189Y035635D01*
X035114Y035560D01*
X036748Y039408D02*
X036748Y030908D01*
X043048Y030908D01*
X043048Y039408D01*
X036748Y039408D01*
X044931Y036270D02*
X044931Y035819D01*
X044931Y035969D02*
X045156Y035969D01*
X045231Y036044D01*
X045231Y036195D01*
X045156Y036270D01*
X044931Y036270D01*
X045081Y035969D02*
X045231Y035819D01*
X045391Y035819D02*
X045692Y035819D01*
X045852Y035894D02*
X045927Y035819D01*
X046077Y035819D01*
X046152Y035894D01*
X046152Y035969D01*
X046077Y036044D01*
X045927Y036044D01*
X045852Y036120D01*
X045852Y036195D01*
X045927Y036270D01*
X046077Y036270D01*
X046152Y036195D01*
X046312Y036270D02*
X046312Y035819D01*
X046612Y035819D01*
X046462Y036044D02*
X046312Y036044D01*
X046312Y036270D02*
X046612Y036270D01*
X046772Y036270D02*
X047073Y036270D01*
X046923Y036270D02*
X046923Y035819D01*
X045692Y036270D02*
X045391Y036270D01*
X045391Y035819D01*
X045391Y036044D02*
X045541Y036044D01*
X049675Y035925D02*
X049675Y035550D01*
X049750Y035475D01*
X049900Y035475D01*
X049975Y035550D01*
X049975Y035925D01*
X050135Y035925D02*
X050361Y035925D01*
X050436Y035850D01*
X050436Y035700D01*
X050361Y035625D01*
X050135Y035625D01*
X050135Y035475D02*
X050135Y035925D01*
X052755Y033095D02*
X052980Y033095D01*
X053055Y033020D01*
X053055Y032870D01*
X052980Y032795D01*
X052755Y032795D01*
X052755Y032645D02*
X052755Y033095D01*
X052905Y032795D02*
X053055Y032645D01*
X053215Y032645D02*
X053366Y032645D01*
X053290Y032645D02*
X053290Y033095D01*
X053215Y033095D02*
X053366Y033095D01*
X053522Y033020D02*
X053522Y032720D01*
X053597Y032645D01*
X053748Y032645D01*
X053823Y032720D01*
X053823Y032870D01*
X053672Y032870D01*
X053522Y033020D02*
X053597Y033095D01*
X053748Y033095D01*
X053823Y033020D01*
X053983Y033095D02*
X053983Y032645D01*
X053983Y032870D02*
X054283Y032870D01*
X054283Y033095D02*
X054283Y032645D01*
X054593Y032645D02*
X054593Y033095D01*
X054443Y033095D02*
X054743Y033095D01*
X047506Y032925D02*
X047206Y032925D01*
X047356Y032925D02*
X047356Y032475D01*
X046896Y032700D02*
X046746Y032700D01*
X046746Y032475D02*
X046746Y032925D01*
X047046Y032925D01*
X046586Y032925D02*
X046285Y032925D01*
X046285Y032475D01*
X046586Y032475D01*
X046436Y032700D02*
X046285Y032700D01*
X046125Y032475D02*
X045825Y032475D01*
X045825Y032925D01*
X043931Y028765D02*
X043781Y028765D01*
X043706Y028690D01*
X043546Y028690D02*
X043246Y028390D01*
X043321Y028315D01*
X043471Y028315D01*
X043546Y028390D01*
X043546Y028690D01*
X043471Y028765D01*
X043321Y028765D01*
X043246Y028690D01*
X043246Y028390D01*
X043091Y028390D02*
X043091Y028315D01*
X043016Y028315D01*
X043016Y028390D01*
X043091Y028390D01*
X042856Y028540D02*
X042555Y028540D01*
X042780Y028765D01*
X042780Y028315D01*
X042395Y028315D02*
X042095Y028315D01*
X042245Y028315D02*
X042245Y028765D01*
X042095Y028615D01*
X041935Y028690D02*
X041634Y028390D01*
X041710Y028315D01*
X041860Y028315D01*
X041935Y028390D01*
X041935Y028690D01*
X041860Y028765D01*
X041710Y028765D01*
X041634Y028690D01*
X041634Y028390D01*
X041474Y028315D02*
X041174Y028315D01*
X041474Y028615D01*
X041474Y028690D01*
X041399Y028765D01*
X041249Y028765D01*
X041174Y028690D01*
X043706Y028315D02*
X044007Y028615D01*
X044007Y028690D01*
X043931Y028765D01*
X044007Y028315D02*
X043706Y028315D01*
X045700Y026100D02*
X045830Y026150D01*
X045500Y025975D02*
X045500Y024325D01*
X045710Y024190D02*
X045870Y024140D01*
X046100Y024597D02*
X046100Y024703D01*
X046430Y024140D02*
X046600Y024200D01*
X046100Y025597D02*
X046100Y025703D01*
X046430Y026160D02*
X046590Y026110D01*
X046965Y026355D02*
X047265Y026355D01*
X047115Y026355D02*
X047115Y025905D01*
X047425Y025905D02*
X047726Y026205D01*
X047726Y026280D01*
X047651Y026355D01*
X047500Y026355D01*
X047425Y026280D01*
X047425Y025905D02*
X047726Y025905D01*
X050500Y025975D02*
X050500Y024325D01*
X050710Y024190D02*
X050870Y024140D01*
X051100Y024597D02*
X051100Y024703D01*
X051430Y024140D02*
X051600Y024200D01*
X051100Y025597D02*
X051100Y025703D01*
X050830Y026150D02*
X050700Y026100D01*
X051430Y026160D02*
X051590Y026110D01*
X052005Y026345D02*
X052305Y026345D01*
X052155Y026345D02*
X052155Y025895D01*
X052465Y025970D02*
X052540Y025895D01*
X052691Y025895D01*
X052766Y025970D01*
X052766Y026045D01*
X052691Y026120D01*
X052616Y026120D01*
X052691Y026120D02*
X052766Y026195D01*
X052766Y026270D01*
X052691Y026345D01*
X052540Y026345D01*
X052465Y026270D01*
X055500Y025975D02*
X055500Y024325D01*
X055710Y024190D02*
X055870Y024140D01*
X056100Y024597D02*
X056100Y024703D01*
X056430Y024140D02*
X056600Y024200D01*
X056100Y025597D02*
X056100Y025703D01*
X055830Y026150D02*
X055700Y026100D01*
X056430Y026160D02*
X056590Y026110D01*
X056745Y026205D02*
X056745Y026655D01*
X056595Y026655D02*
X056895Y026655D01*
X057055Y026430D02*
X057356Y026430D01*
X057281Y026205D02*
X057281Y026655D01*
X057055Y026430D01*
X040835Y021020D02*
X040126Y021020D01*
X040835Y020036D02*
X040835Y019209D01*
X040835Y017398D02*
X037764Y017398D01*
X037764Y018973D02*
X037764Y020036D01*
X037764Y021020D02*
X038473Y021020D01*
D14*
X029802Y024532D02*
X029804Y024559D01*
X029810Y024585D01*
X029819Y024610D01*
X029832Y024633D01*
X029848Y024654D01*
X029867Y024673D01*
X029888Y024689D01*
X029911Y024702D01*
X029936Y024711D01*
X029962Y024717D01*
X029989Y024719D01*
X030016Y024717D01*
X030042Y024711D01*
X030067Y024702D01*
X030090Y024689D01*
X030111Y024673D01*
X030130Y024654D01*
X030146Y024633D01*
X030159Y024610D01*
X030168Y024585D01*
X030174Y024559D01*
X030176Y024532D01*
X030174Y024505D01*
X030168Y024479D01*
X030159Y024454D01*
X030146Y024431D01*
X030130Y024410D01*
X030111Y024391D01*
X030090Y024375D01*
X030067Y024362D01*
X030042Y024353D01*
X030016Y024347D01*
X029989Y024345D01*
X029962Y024347D01*
X029936Y024353D01*
X029911Y024362D01*
X029888Y024375D01*
X029867Y024391D01*
X029848Y024410D01*
X029832Y024431D01*
X029819Y024454D01*
X029810Y024479D01*
X029804Y024505D01*
X029802Y024532D01*
X026790Y024532D02*
X026792Y024563D01*
X026798Y024593D01*
X026807Y024623D01*
X026820Y024651D01*
X026837Y024677D01*
X026857Y024700D01*
X026879Y024722D01*
X026904Y024740D01*
X026931Y024755D01*
X026960Y024766D01*
X026990Y024774D01*
X027021Y024778D01*
X027051Y024778D01*
X027082Y024774D01*
X027112Y024766D01*
X027141Y024755D01*
X027168Y024740D01*
X027193Y024722D01*
X027215Y024700D01*
X027235Y024677D01*
X027252Y024651D01*
X027265Y024623D01*
X027274Y024593D01*
X027280Y024563D01*
X027282Y024532D01*
X027280Y024501D01*
X027274Y024471D01*
X027265Y024441D01*
X027252Y024413D01*
X027235Y024387D01*
X027215Y024364D01*
X027193Y024342D01*
X027168Y024324D01*
X027141Y024309D01*
X027112Y024298D01*
X027082Y024290D01*
X027051Y024286D01*
X027021Y024286D01*
X026990Y024290D01*
X026960Y024298D01*
X026931Y024309D01*
X026904Y024324D01*
X026879Y024342D01*
X026857Y024364D01*
X026837Y024387D01*
X026820Y024413D01*
X026807Y024441D01*
X026798Y024471D01*
X026792Y024501D01*
X026790Y024532D01*
X018520Y019150D02*
X018522Y019200D01*
X018528Y019250D01*
X018538Y019299D01*
X018552Y019347D01*
X018569Y019394D01*
X018590Y019439D01*
X018615Y019483D01*
X018643Y019524D01*
X018675Y019563D01*
X018709Y019600D01*
X018746Y019634D01*
X018786Y019664D01*
X018828Y019691D01*
X018872Y019715D01*
X018918Y019736D01*
X018965Y019752D01*
X019013Y019765D01*
X019063Y019774D01*
X019112Y019779D01*
X019163Y019780D01*
X019213Y019777D01*
X019262Y019770D01*
X019311Y019759D01*
X019359Y019744D01*
X019405Y019726D01*
X019450Y019704D01*
X019493Y019678D01*
X019534Y019649D01*
X019573Y019617D01*
X019609Y019582D01*
X019641Y019544D01*
X019671Y019504D01*
X019698Y019461D01*
X019721Y019417D01*
X019740Y019371D01*
X019756Y019323D01*
X019768Y019274D01*
X019776Y019225D01*
X019780Y019175D01*
X019780Y019125D01*
X019776Y019075D01*
X019768Y019026D01*
X019756Y018977D01*
X019740Y018929D01*
X019721Y018883D01*
X019698Y018839D01*
X019671Y018796D01*
X019641Y018756D01*
X019609Y018718D01*
X019573Y018683D01*
X019534Y018651D01*
X019493Y018622D01*
X019450Y018596D01*
X019405Y018574D01*
X019359Y018556D01*
X019311Y018541D01*
X019262Y018530D01*
X019213Y018523D01*
X019163Y018520D01*
X019112Y018521D01*
X019063Y018526D01*
X019013Y018535D01*
X018965Y018548D01*
X018918Y018564D01*
X018872Y018585D01*
X018828Y018609D01*
X018786Y018636D01*
X018746Y018666D01*
X018709Y018700D01*
X018675Y018737D01*
X018643Y018776D01*
X018615Y018817D01*
X018590Y018861D01*
X018569Y018906D01*
X018552Y018953D01*
X018538Y019001D01*
X018528Y019050D01*
X018522Y019100D01*
X018520Y019150D01*
X036948Y035158D02*
X036950Y035210D01*
X036956Y035262D01*
X036966Y035314D01*
X036979Y035364D01*
X036996Y035414D01*
X037017Y035462D01*
X037042Y035508D01*
X037070Y035552D01*
X037101Y035594D01*
X037135Y035634D01*
X037172Y035671D01*
X037212Y035705D01*
X037254Y035736D01*
X037298Y035764D01*
X037344Y035789D01*
X037392Y035810D01*
X037442Y035827D01*
X037492Y035840D01*
X037544Y035850D01*
X037596Y035856D01*
X037648Y035858D01*
X037700Y035856D01*
X037752Y035850D01*
X037804Y035840D01*
X037854Y035827D01*
X037904Y035810D01*
X037952Y035789D01*
X037998Y035764D01*
X038042Y035736D01*
X038084Y035705D01*
X038124Y035671D01*
X038161Y035634D01*
X038195Y035594D01*
X038226Y035552D01*
X038254Y035508D01*
X038279Y035462D01*
X038300Y035414D01*
X038317Y035364D01*
X038330Y035314D01*
X038340Y035262D01*
X038346Y035210D01*
X038348Y035158D01*
X038346Y035106D01*
X038340Y035054D01*
X038330Y035002D01*
X038317Y034952D01*
X038300Y034902D01*
X038279Y034854D01*
X038254Y034808D01*
X038226Y034764D01*
X038195Y034722D01*
X038161Y034682D01*
X038124Y034645D01*
X038084Y034611D01*
X038042Y034580D01*
X037998Y034552D01*
X037952Y034527D01*
X037904Y034506D01*
X037854Y034489D01*
X037804Y034476D01*
X037752Y034466D01*
X037700Y034460D01*
X037648Y034458D01*
X037596Y034460D01*
X037544Y034466D01*
X037492Y034476D01*
X037442Y034489D01*
X037392Y034506D01*
X037344Y034527D01*
X037298Y034552D01*
X037254Y034580D01*
X037212Y034611D01*
X037172Y034645D01*
X037135Y034682D01*
X037101Y034722D01*
X037070Y034764D01*
X037042Y034808D01*
X037017Y034854D01*
X036996Y034902D01*
X036979Y034952D01*
X036966Y035002D01*
X036956Y035054D01*
X036950Y035106D01*
X036948Y035158D01*
X041448Y035158D02*
X041450Y035210D01*
X041456Y035262D01*
X041466Y035314D01*
X041479Y035364D01*
X041496Y035414D01*
X041517Y035462D01*
X041542Y035508D01*
X041570Y035552D01*
X041601Y035594D01*
X041635Y035634D01*
X041672Y035671D01*
X041712Y035705D01*
X041754Y035736D01*
X041798Y035764D01*
X041844Y035789D01*
X041892Y035810D01*
X041942Y035827D01*
X041992Y035840D01*
X042044Y035850D01*
X042096Y035856D01*
X042148Y035858D01*
X042200Y035856D01*
X042252Y035850D01*
X042304Y035840D01*
X042354Y035827D01*
X042404Y035810D01*
X042452Y035789D01*
X042498Y035764D01*
X042542Y035736D01*
X042584Y035705D01*
X042624Y035671D01*
X042661Y035634D01*
X042695Y035594D01*
X042726Y035552D01*
X042754Y035508D01*
X042779Y035462D01*
X042800Y035414D01*
X042817Y035364D01*
X042830Y035314D01*
X042840Y035262D01*
X042846Y035210D01*
X042848Y035158D01*
X042846Y035106D01*
X042840Y035054D01*
X042830Y035002D01*
X042817Y034952D01*
X042800Y034902D01*
X042779Y034854D01*
X042754Y034808D01*
X042726Y034764D01*
X042695Y034722D01*
X042661Y034682D01*
X042624Y034645D01*
X042584Y034611D01*
X042542Y034580D01*
X042498Y034552D01*
X042452Y034527D01*
X042404Y034506D01*
X042354Y034489D01*
X042304Y034476D01*
X042252Y034466D01*
X042200Y034460D01*
X042148Y034458D01*
X042096Y034460D01*
X042044Y034466D01*
X041992Y034476D01*
X041942Y034489D01*
X041892Y034506D01*
X041844Y034527D01*
X041798Y034552D01*
X041754Y034580D01*
X041712Y034611D01*
X041672Y034645D01*
X041635Y034682D01*
X041601Y034722D01*
X041570Y034764D01*
X041542Y034808D01*
X041517Y034854D01*
X041496Y034902D01*
X041479Y034952D01*
X041466Y035002D01*
X041456Y035054D01*
X041450Y035106D01*
X041448Y035158D01*
X056020Y036900D02*
X056022Y036950D01*
X056028Y037000D01*
X056038Y037049D01*
X056052Y037097D01*
X056069Y037144D01*
X056090Y037189D01*
X056115Y037233D01*
X056143Y037274D01*
X056175Y037313D01*
X056209Y037350D01*
X056246Y037384D01*
X056286Y037414D01*
X056328Y037441D01*
X056372Y037465D01*
X056418Y037486D01*
X056465Y037502D01*
X056513Y037515D01*
X056563Y037524D01*
X056612Y037529D01*
X056663Y037530D01*
X056713Y037527D01*
X056762Y037520D01*
X056811Y037509D01*
X056859Y037494D01*
X056905Y037476D01*
X056950Y037454D01*
X056993Y037428D01*
X057034Y037399D01*
X057073Y037367D01*
X057109Y037332D01*
X057141Y037294D01*
X057171Y037254D01*
X057198Y037211D01*
X057221Y037167D01*
X057240Y037121D01*
X057256Y037073D01*
X057268Y037024D01*
X057276Y036975D01*
X057280Y036925D01*
X057280Y036875D01*
X057276Y036825D01*
X057268Y036776D01*
X057256Y036727D01*
X057240Y036679D01*
X057221Y036633D01*
X057198Y036589D01*
X057171Y036546D01*
X057141Y036506D01*
X057109Y036468D01*
X057073Y036433D01*
X057034Y036401D01*
X056993Y036372D01*
X056950Y036346D01*
X056905Y036324D01*
X056859Y036306D01*
X056811Y036291D01*
X056762Y036280D01*
X056713Y036273D01*
X056663Y036270D01*
X056612Y036271D01*
X056563Y036276D01*
X056513Y036285D01*
X056465Y036298D01*
X056418Y036314D01*
X056372Y036335D01*
X056328Y036359D01*
X056286Y036386D01*
X056246Y036416D01*
X056209Y036450D01*
X056175Y036487D01*
X056143Y036526D01*
X056115Y036567D01*
X056090Y036611D01*
X056069Y036656D01*
X056052Y036703D01*
X056038Y036751D01*
X056028Y036800D01*
X056022Y036850D01*
X056020Y036900D01*
X056020Y018900D02*
X056022Y018950D01*
X056028Y019000D01*
X056038Y019049D01*
X056052Y019097D01*
X056069Y019144D01*
X056090Y019189D01*
X056115Y019233D01*
X056143Y019274D01*
X056175Y019313D01*
X056209Y019350D01*
X056246Y019384D01*
X056286Y019414D01*
X056328Y019441D01*
X056372Y019465D01*
X056418Y019486D01*
X056465Y019502D01*
X056513Y019515D01*
X056563Y019524D01*
X056612Y019529D01*
X056663Y019530D01*
X056713Y019527D01*
X056762Y019520D01*
X056811Y019509D01*
X056859Y019494D01*
X056905Y019476D01*
X056950Y019454D01*
X056993Y019428D01*
X057034Y019399D01*
X057073Y019367D01*
X057109Y019332D01*
X057141Y019294D01*
X057171Y019254D01*
X057198Y019211D01*
X057221Y019167D01*
X057240Y019121D01*
X057256Y019073D01*
X057268Y019024D01*
X057276Y018975D01*
X057280Y018925D01*
X057280Y018875D01*
X057276Y018825D01*
X057268Y018776D01*
X057256Y018727D01*
X057240Y018679D01*
X057221Y018633D01*
X057198Y018589D01*
X057171Y018546D01*
X057141Y018506D01*
X057109Y018468D01*
X057073Y018433D01*
X057034Y018401D01*
X056993Y018372D01*
X056950Y018346D01*
X056905Y018324D01*
X056859Y018306D01*
X056811Y018291D01*
X056762Y018280D01*
X056713Y018273D01*
X056663Y018270D01*
X056612Y018271D01*
X056563Y018276D01*
X056513Y018285D01*
X056465Y018298D01*
X056418Y018314D01*
X056372Y018335D01*
X056328Y018359D01*
X056286Y018386D01*
X056246Y018416D01*
X056209Y018450D01*
X056175Y018487D01*
X056143Y018526D01*
X056115Y018567D01*
X056090Y018611D01*
X056069Y018656D01*
X056052Y018703D01*
X056038Y018751D01*
X056028Y018800D01*
X056022Y018850D01*
X056020Y018900D01*
X018520Y036900D02*
X018522Y036950D01*
X018528Y037000D01*
X018538Y037049D01*
X018552Y037097D01*
X018569Y037144D01*
X018590Y037189D01*
X018615Y037233D01*
X018643Y037274D01*
X018675Y037313D01*
X018709Y037350D01*
X018746Y037384D01*
X018786Y037414D01*
X018828Y037441D01*
X018872Y037465D01*
X018918Y037486D01*
X018965Y037502D01*
X019013Y037515D01*
X019063Y037524D01*
X019112Y037529D01*
X019163Y037530D01*
X019213Y037527D01*
X019262Y037520D01*
X019311Y037509D01*
X019359Y037494D01*
X019405Y037476D01*
X019450Y037454D01*
X019493Y037428D01*
X019534Y037399D01*
X019573Y037367D01*
X019609Y037332D01*
X019641Y037294D01*
X019671Y037254D01*
X019698Y037211D01*
X019721Y037167D01*
X019740Y037121D01*
X019756Y037073D01*
X019768Y037024D01*
X019776Y036975D01*
X019780Y036925D01*
X019780Y036875D01*
X019776Y036825D01*
X019768Y036776D01*
X019756Y036727D01*
X019740Y036679D01*
X019721Y036633D01*
X019698Y036589D01*
X019671Y036546D01*
X019641Y036506D01*
X019609Y036468D01*
X019573Y036433D01*
X019534Y036401D01*
X019493Y036372D01*
X019450Y036346D01*
X019405Y036324D01*
X019359Y036306D01*
X019311Y036291D01*
X019262Y036280D01*
X019213Y036273D01*
X019163Y036270D01*
X019112Y036271D01*
X019063Y036276D01*
X019013Y036285D01*
X018965Y036298D01*
X018918Y036314D01*
X018872Y036335D01*
X018828Y036359D01*
X018786Y036386D01*
X018746Y036416D01*
X018709Y036450D01*
X018675Y036487D01*
X018643Y036526D01*
X018615Y036567D01*
X018590Y036611D01*
X018569Y036656D01*
X018552Y036703D01*
X018538Y036751D01*
X018528Y036800D01*
X018522Y036850D01*
X018520Y036900D01*
D15*
X024557Y032091D02*
X024557Y029391D01*
X024559Y029332D01*
X024565Y029274D01*
X024574Y029215D01*
X024588Y029158D01*
X024605Y029102D01*
X024626Y029047D01*
X024650Y028993D01*
X024678Y028941D01*
X024709Y028891D01*
X024743Y028843D01*
X024780Y028798D01*
X024821Y028755D01*
X024864Y028714D01*
X024909Y028677D01*
X024957Y028643D01*
X025007Y028612D01*
X025059Y028584D01*
X025113Y028560D01*
X025168Y028539D01*
X025224Y028522D01*
X025281Y028508D01*
X025340Y028499D01*
X025398Y028493D01*
X025457Y028491D01*
X025516Y028493D01*
X025574Y028499D01*
X025633Y028508D01*
X025690Y028522D01*
X025746Y028539D01*
X025801Y028560D01*
X025855Y028584D01*
X025907Y028612D01*
X025957Y028643D01*
X026005Y028677D01*
X026050Y028714D01*
X026093Y028755D01*
X026134Y028798D01*
X026171Y028843D01*
X026205Y028891D01*
X026236Y028941D01*
X026264Y028993D01*
X026288Y029047D01*
X026309Y029102D01*
X026326Y029158D01*
X026340Y029215D01*
X026349Y029274D01*
X026355Y029332D01*
X026357Y029391D01*
X026357Y032091D01*
X026355Y032150D01*
X026349Y032208D01*
X026340Y032267D01*
X026326Y032324D01*
X026309Y032380D01*
X026288Y032435D01*
X026264Y032489D01*
X026236Y032541D01*
X026205Y032591D01*
X026171Y032639D01*
X026134Y032684D01*
X026093Y032727D01*
X026050Y032768D01*
X026005Y032805D01*
X025957Y032839D01*
X025907Y032870D01*
X025855Y032898D01*
X025801Y032922D01*
X025746Y032943D01*
X025690Y032960D01*
X025633Y032974D01*
X025574Y032983D01*
X025516Y032989D01*
X025457Y032991D01*
X025398Y032989D01*
X025340Y032983D01*
X025281Y032974D01*
X025224Y032960D01*
X025168Y032943D01*
X025113Y032922D01*
X025059Y032898D01*
X025007Y032870D01*
X024957Y032839D01*
X024909Y032805D01*
X024864Y032768D01*
X024821Y032727D01*
X024780Y032684D01*
X024743Y032639D01*
X024709Y032591D01*
X024678Y032541D01*
X024650Y032489D01*
X024626Y032435D01*
X024605Y032380D01*
X024588Y032324D01*
X024574Y032267D01*
X024565Y032208D01*
X024559Y032150D01*
X024557Y032091D01*
X031149Y033687D02*
X033729Y033687D01*
X033729Y034987D01*
X031149Y034987D01*
X031149Y033687D01*
X034372Y031701D02*
X034372Y029001D01*
X034374Y028942D01*
X034380Y028884D01*
X034389Y028825D01*
X034403Y028768D01*
X034420Y028712D01*
X034441Y028657D01*
X034465Y028603D01*
X034493Y028551D01*
X034524Y028501D01*
X034558Y028453D01*
X034595Y028408D01*
X034636Y028365D01*
X034679Y028324D01*
X034724Y028287D01*
X034772Y028253D01*
X034822Y028222D01*
X034874Y028194D01*
X034928Y028170D01*
X034983Y028149D01*
X035039Y028132D01*
X035096Y028118D01*
X035155Y028109D01*
X035213Y028103D01*
X035272Y028101D01*
X035331Y028103D01*
X035389Y028109D01*
X035448Y028118D01*
X035505Y028132D01*
X035561Y028149D01*
X035616Y028170D01*
X035670Y028194D01*
X035722Y028222D01*
X035772Y028253D01*
X035820Y028287D01*
X035865Y028324D01*
X035908Y028365D01*
X035949Y028408D01*
X035986Y028453D01*
X036020Y028501D01*
X036051Y028551D01*
X036079Y028603D01*
X036103Y028657D01*
X036124Y028712D01*
X036141Y028768D01*
X036155Y028825D01*
X036164Y028884D01*
X036170Y028942D01*
X036172Y029001D01*
X036172Y031701D01*
X036170Y031760D01*
X036164Y031818D01*
X036155Y031877D01*
X036141Y031934D01*
X036124Y031990D01*
X036103Y032045D01*
X036079Y032099D01*
X036051Y032151D01*
X036020Y032201D01*
X035986Y032249D01*
X035949Y032294D01*
X035908Y032337D01*
X035865Y032378D01*
X035820Y032415D01*
X035772Y032449D01*
X035722Y032480D01*
X035670Y032508D01*
X035616Y032532D01*
X035561Y032553D01*
X035505Y032570D01*
X035448Y032584D01*
X035389Y032593D01*
X035331Y032599D01*
X035272Y032601D01*
X035213Y032599D01*
X035155Y032593D01*
X035096Y032584D01*
X035039Y032570D01*
X034983Y032553D01*
X034928Y032532D01*
X034874Y032508D01*
X034822Y032480D01*
X034772Y032449D01*
X034724Y032415D01*
X034679Y032378D01*
X034636Y032337D01*
X034595Y032294D01*
X034558Y032249D01*
X034524Y032201D01*
X034493Y032151D01*
X034465Y032099D01*
X034441Y032045D01*
X034420Y031990D01*
X034403Y031934D01*
X034389Y031877D01*
X034380Y031818D01*
X034374Y031760D01*
X034372Y031701D01*
X042252Y025532D02*
X045032Y025532D01*
X045032Y020768D01*
X042252Y020768D01*
X042252Y025532D01*
X046350Y022650D02*
X046650Y022650D01*
X046650Y022750D01*
X046650Y022650D02*
X046950Y022650D01*
X046950Y020650D01*
X046650Y020650D01*
X046650Y020550D01*
X046650Y020650D02*
X046350Y020650D01*
X046350Y022650D01*
X046400Y020900D02*
X046900Y020900D01*
X047252Y020768D02*
X050032Y020768D01*
X050032Y025532D01*
X047252Y025532D01*
X047252Y020768D01*
X051350Y020650D02*
X051350Y022650D01*
X051650Y022650D01*
X051650Y022750D01*
X051650Y022650D02*
X051950Y022650D01*
X051950Y020650D01*
X051650Y020650D01*
X051650Y020550D01*
X051650Y020650D02*
X051350Y020650D01*
X051400Y020900D02*
X051900Y020900D01*
X052252Y020768D02*
X055032Y020768D01*
X055032Y025532D01*
X052252Y025532D01*
X052252Y020768D01*
X056350Y020650D02*
X056350Y022650D01*
X056650Y022650D01*
X056650Y022750D01*
X056650Y022650D02*
X056950Y022650D01*
X056950Y020650D01*
X056650Y020650D01*
X056650Y020550D01*
X056650Y020650D02*
X056350Y020650D01*
X056400Y020900D02*
X056900Y020900D01*
X051000Y026950D02*
X049300Y026950D01*
X048950Y027750D02*
X048950Y028555D01*
X049300Y029350D02*
X051000Y029350D01*
X051000Y029950D02*
X049300Y029950D01*
X048950Y030750D02*
X048950Y031555D01*
X047850Y031543D02*
X047850Y030750D01*
X047500Y029950D02*
X045800Y029950D01*
X045450Y030750D02*
X045450Y031555D01*
X045950Y031150D02*
X045952Y031202D01*
X045958Y031254D01*
X045968Y031306D01*
X045981Y031356D01*
X045998Y031406D01*
X046019Y031454D01*
X046044Y031500D01*
X046072Y031544D01*
X046103Y031586D01*
X046137Y031626D01*
X046174Y031663D01*
X046214Y031697D01*
X046256Y031728D01*
X046300Y031756D01*
X046346Y031781D01*
X046394Y031802D01*
X046444Y031819D01*
X046494Y031832D01*
X046546Y031842D01*
X046598Y031848D01*
X046650Y031850D01*
X046702Y031848D01*
X046754Y031842D01*
X046806Y031832D01*
X046856Y031819D01*
X046906Y031802D01*
X046954Y031781D01*
X047000Y031756D01*
X047044Y031728D01*
X047086Y031697D01*
X047126Y031663D01*
X047163Y031626D01*
X047197Y031586D01*
X047228Y031544D01*
X047256Y031500D01*
X047281Y031454D01*
X047302Y031406D01*
X047319Y031356D01*
X047332Y031306D01*
X047342Y031254D01*
X047348Y031202D01*
X047350Y031150D01*
X047348Y031098D01*
X047342Y031046D01*
X047332Y030994D01*
X047319Y030944D01*
X047302Y030894D01*
X047281Y030846D01*
X047256Y030800D01*
X047228Y030756D01*
X047197Y030714D01*
X047163Y030674D01*
X047126Y030637D01*
X047086Y030603D01*
X047044Y030572D01*
X047000Y030544D01*
X046954Y030519D01*
X046906Y030498D01*
X046856Y030481D01*
X046806Y030468D01*
X046754Y030458D01*
X046702Y030452D01*
X046650Y030450D01*
X046598Y030452D01*
X046546Y030458D01*
X046494Y030468D01*
X046444Y030481D01*
X046394Y030498D01*
X046346Y030519D01*
X046300Y030544D01*
X046256Y030572D01*
X046214Y030603D01*
X046174Y030637D01*
X046137Y030674D01*
X046103Y030714D01*
X046072Y030756D01*
X046044Y030800D01*
X046019Y030846D01*
X045998Y030894D01*
X045981Y030944D01*
X045968Y030994D01*
X045958Y031046D01*
X045952Y031098D01*
X045950Y031150D01*
X045800Y032350D02*
X047500Y032350D01*
X046756Y033094D02*
X045056Y033094D01*
X044706Y033894D02*
X044706Y034699D01*
X045206Y034294D02*
X045208Y034346D01*
X045214Y034398D01*
X045224Y034450D01*
X045237Y034500D01*
X045254Y034550D01*
X045275Y034598D01*
X045300Y034644D01*
X045328Y034688D01*
X045359Y034730D01*
X045393Y034770D01*
X045430Y034807D01*
X045470Y034841D01*
X045512Y034872D01*
X045556Y034900D01*
X045602Y034925D01*
X045650Y034946D01*
X045700Y034963D01*
X045750Y034976D01*
X045802Y034986D01*
X045854Y034992D01*
X045906Y034994D01*
X045958Y034992D01*
X046010Y034986D01*
X046062Y034976D01*
X046112Y034963D01*
X046162Y034946D01*
X046210Y034925D01*
X046256Y034900D01*
X046300Y034872D01*
X046342Y034841D01*
X046382Y034807D01*
X046419Y034770D01*
X046453Y034730D01*
X046484Y034688D01*
X046512Y034644D01*
X046537Y034598D01*
X046558Y034550D01*
X046575Y034500D01*
X046588Y034450D01*
X046598Y034398D01*
X046604Y034346D01*
X046606Y034294D01*
X046604Y034242D01*
X046598Y034190D01*
X046588Y034138D01*
X046575Y034088D01*
X046558Y034038D01*
X046537Y033990D01*
X046512Y033944D01*
X046484Y033900D01*
X046453Y033858D01*
X046419Y033818D01*
X046382Y033781D01*
X046342Y033747D01*
X046300Y033716D01*
X046256Y033688D01*
X046210Y033663D01*
X046162Y033642D01*
X046112Y033625D01*
X046062Y033612D01*
X046010Y033602D01*
X045958Y033596D01*
X045906Y033594D01*
X045854Y033596D01*
X045802Y033602D01*
X045750Y033612D01*
X045700Y033625D01*
X045650Y033642D01*
X045602Y033663D01*
X045556Y033688D01*
X045512Y033716D01*
X045470Y033747D01*
X045430Y033781D01*
X045393Y033818D01*
X045359Y033858D01*
X045328Y033900D01*
X045300Y033944D01*
X045275Y033990D01*
X045254Y034038D01*
X045237Y034088D01*
X045224Y034138D01*
X045214Y034190D01*
X045208Y034242D01*
X045206Y034294D01*
X045056Y035494D02*
X046756Y035494D01*
X047106Y034687D02*
X047106Y033894D01*
X048950Y033750D02*
X048950Y034555D01*
X049300Y035350D02*
X051000Y035350D01*
X051350Y034543D02*
X051350Y033750D01*
X051000Y032950D02*
X049300Y032950D01*
X049300Y032350D02*
X051000Y032350D01*
X051350Y031543D02*
X051350Y030750D01*
X049450Y031150D02*
X049452Y031202D01*
X049458Y031254D01*
X049468Y031306D01*
X049481Y031356D01*
X049498Y031406D01*
X049519Y031454D01*
X049544Y031500D01*
X049572Y031544D01*
X049603Y031586D01*
X049637Y031626D01*
X049674Y031663D01*
X049714Y031697D01*
X049756Y031728D01*
X049800Y031756D01*
X049846Y031781D01*
X049894Y031802D01*
X049944Y031819D01*
X049994Y031832D01*
X050046Y031842D01*
X050098Y031848D01*
X050150Y031850D01*
X050202Y031848D01*
X050254Y031842D01*
X050306Y031832D01*
X050356Y031819D01*
X050406Y031802D01*
X050454Y031781D01*
X050500Y031756D01*
X050544Y031728D01*
X050586Y031697D01*
X050626Y031663D01*
X050663Y031626D01*
X050697Y031586D01*
X050728Y031544D01*
X050756Y031500D01*
X050781Y031454D01*
X050802Y031406D01*
X050819Y031356D01*
X050832Y031306D01*
X050842Y031254D01*
X050848Y031202D01*
X050850Y031150D01*
X050848Y031098D01*
X050842Y031046D01*
X050832Y030994D01*
X050819Y030944D01*
X050802Y030894D01*
X050781Y030846D01*
X050756Y030800D01*
X050728Y030756D01*
X050697Y030714D01*
X050663Y030674D01*
X050626Y030637D01*
X050586Y030603D01*
X050544Y030572D01*
X050500Y030544D01*
X050454Y030519D01*
X050406Y030498D01*
X050356Y030481D01*
X050306Y030468D01*
X050254Y030458D01*
X050202Y030452D01*
X050150Y030450D01*
X050098Y030452D01*
X050046Y030458D01*
X049994Y030468D01*
X049944Y030481D01*
X049894Y030498D01*
X049846Y030519D01*
X049800Y030544D01*
X049756Y030572D01*
X049714Y030603D01*
X049674Y030637D01*
X049637Y030674D01*
X049603Y030714D01*
X049572Y030756D01*
X049544Y030800D01*
X049519Y030846D01*
X049498Y030894D01*
X049481Y030944D01*
X049468Y030994D01*
X049458Y031046D01*
X049452Y031098D01*
X049450Y031150D01*
X052450Y030750D02*
X052450Y031555D01*
X052950Y031150D02*
X052952Y031202D01*
X052958Y031254D01*
X052968Y031306D01*
X052981Y031356D01*
X052998Y031406D01*
X053019Y031454D01*
X053044Y031500D01*
X053072Y031544D01*
X053103Y031586D01*
X053137Y031626D01*
X053174Y031663D01*
X053214Y031697D01*
X053256Y031728D01*
X053300Y031756D01*
X053346Y031781D01*
X053394Y031802D01*
X053444Y031819D01*
X053494Y031832D01*
X053546Y031842D01*
X053598Y031848D01*
X053650Y031850D01*
X053702Y031848D01*
X053754Y031842D01*
X053806Y031832D01*
X053856Y031819D01*
X053906Y031802D01*
X053954Y031781D01*
X054000Y031756D01*
X054044Y031728D01*
X054086Y031697D01*
X054126Y031663D01*
X054163Y031626D01*
X054197Y031586D01*
X054228Y031544D01*
X054256Y031500D01*
X054281Y031454D01*
X054302Y031406D01*
X054319Y031356D01*
X054332Y031306D01*
X054342Y031254D01*
X054348Y031202D01*
X054350Y031150D01*
X054348Y031098D01*
X054342Y031046D01*
X054332Y030994D01*
X054319Y030944D01*
X054302Y030894D01*
X054281Y030846D01*
X054256Y030800D01*
X054228Y030756D01*
X054197Y030714D01*
X054163Y030674D01*
X054126Y030637D01*
X054086Y030603D01*
X054044Y030572D01*
X054000Y030544D01*
X053954Y030519D01*
X053906Y030498D01*
X053856Y030481D01*
X053806Y030468D01*
X053754Y030458D01*
X053702Y030452D01*
X053650Y030450D01*
X053598Y030452D01*
X053546Y030458D01*
X053494Y030468D01*
X053444Y030481D01*
X053394Y030498D01*
X053346Y030519D01*
X053300Y030544D01*
X053256Y030572D01*
X053214Y030603D01*
X053174Y030637D01*
X053137Y030674D01*
X053103Y030714D01*
X053072Y030756D01*
X053044Y030800D01*
X053019Y030846D01*
X052998Y030894D01*
X052981Y030944D01*
X052968Y030994D01*
X052958Y031046D01*
X052952Y031098D01*
X052950Y031150D01*
X052800Y029950D02*
X054500Y029950D01*
X054850Y030750D02*
X054850Y031543D01*
X054500Y032350D02*
X052800Y032350D01*
X049450Y034150D02*
X049452Y034202D01*
X049458Y034254D01*
X049468Y034306D01*
X049481Y034356D01*
X049498Y034406D01*
X049519Y034454D01*
X049544Y034500D01*
X049572Y034544D01*
X049603Y034586D01*
X049637Y034626D01*
X049674Y034663D01*
X049714Y034697D01*
X049756Y034728D01*
X049800Y034756D01*
X049846Y034781D01*
X049894Y034802D01*
X049944Y034819D01*
X049994Y034832D01*
X050046Y034842D01*
X050098Y034848D01*
X050150Y034850D01*
X050202Y034848D01*
X050254Y034842D01*
X050306Y034832D01*
X050356Y034819D01*
X050406Y034802D01*
X050454Y034781D01*
X050500Y034756D01*
X050544Y034728D01*
X050586Y034697D01*
X050626Y034663D01*
X050663Y034626D01*
X050697Y034586D01*
X050728Y034544D01*
X050756Y034500D01*
X050781Y034454D01*
X050802Y034406D01*
X050819Y034356D01*
X050832Y034306D01*
X050842Y034254D01*
X050848Y034202D01*
X050850Y034150D01*
X050848Y034098D01*
X050842Y034046D01*
X050832Y033994D01*
X050819Y033944D01*
X050802Y033894D01*
X050781Y033846D01*
X050756Y033800D01*
X050728Y033756D01*
X050697Y033714D01*
X050663Y033674D01*
X050626Y033637D01*
X050586Y033603D01*
X050544Y033572D01*
X050500Y033544D01*
X050454Y033519D01*
X050406Y033498D01*
X050356Y033481D01*
X050306Y033468D01*
X050254Y033458D01*
X050202Y033452D01*
X050150Y033450D01*
X050098Y033452D01*
X050046Y033458D01*
X049994Y033468D01*
X049944Y033481D01*
X049894Y033498D01*
X049846Y033519D01*
X049800Y033544D01*
X049756Y033572D01*
X049714Y033603D01*
X049674Y033637D01*
X049637Y033674D01*
X049603Y033714D01*
X049572Y033756D01*
X049544Y033800D01*
X049519Y033846D01*
X049498Y033894D01*
X049481Y033944D01*
X049468Y033994D01*
X049458Y034046D01*
X049452Y034098D01*
X049450Y034150D01*
X049460Y036914D02*
X049320Y036914D01*
X049390Y036914D02*
X049390Y037195D01*
X049320Y037195D01*
X049390Y037335D02*
X049390Y037405D01*
X049140Y037335D02*
X049140Y037055D01*
X049000Y036914D01*
X048859Y037055D01*
X048859Y037335D01*
X048679Y037125D02*
X048679Y037055D01*
X048399Y037055D01*
X048399Y037125D02*
X048469Y037195D01*
X048609Y037195D01*
X048679Y037125D01*
X048609Y036914D02*
X048469Y036914D01*
X048399Y036984D01*
X048399Y037125D01*
X048232Y036914D02*
X048092Y036914D01*
X048162Y036914D02*
X048162Y037335D01*
X048092Y037335D01*
X047912Y037195D02*
X047912Y036914D01*
X047702Y036914D01*
X047632Y036984D01*
X047632Y037195D01*
X047452Y037125D02*
X047452Y036914D01*
X047241Y036914D01*
X047171Y036984D01*
X047241Y037055D01*
X047452Y037055D01*
X047452Y037125D02*
X047381Y037195D01*
X047241Y037195D01*
X046991Y037265D02*
X046921Y037335D01*
X046781Y037335D01*
X046711Y037265D01*
X046711Y037195D01*
X046781Y037125D01*
X046921Y037125D01*
X046991Y037055D01*
X046991Y036984D01*
X046921Y036914D01*
X046781Y036914D01*
X046711Y036984D01*
X046551Y036984D02*
X046551Y036914D01*
X046481Y036914D01*
X046481Y036984D01*
X046551Y036984D01*
X046301Y036984D02*
X046301Y037195D01*
X046301Y036984D02*
X046230Y036914D01*
X046160Y036984D01*
X046090Y036914D01*
X046020Y036984D01*
X046020Y037195D01*
X045840Y037195D02*
X045840Y036984D01*
X045770Y036914D01*
X045700Y036984D01*
X045630Y036914D01*
X045560Y036984D01*
X045560Y037195D01*
X045380Y037195D02*
X045380Y036984D01*
X045310Y036914D01*
X045240Y036984D01*
X045170Y036914D01*
X045100Y036984D01*
X045100Y037195D01*
X049627Y037195D02*
X049627Y036914D01*
X049627Y037055D02*
X049767Y037195D01*
X049837Y037195D01*
X050010Y037125D02*
X050080Y037195D01*
X050221Y037195D01*
X050291Y037125D01*
X050291Y037055D01*
X050010Y037055D01*
X050010Y037125D02*
X050010Y036984D01*
X050080Y036914D01*
X050221Y036914D01*
X050471Y036914D02*
X050541Y036914D01*
X050541Y036984D01*
X050471Y036984D01*
X050471Y036914D01*
X050701Y036914D02*
X050841Y036914D01*
X050771Y036914D02*
X050771Y037335D01*
X050701Y037335D01*
X051008Y037195D02*
X051148Y037195D01*
X051078Y037265D02*
X051078Y036984D01*
X051148Y036914D01*
X051350Y028543D02*
X051350Y027750D01*
X049450Y028150D02*
X049452Y028202D01*
X049458Y028254D01*
X049468Y028306D01*
X049481Y028356D01*
X049498Y028406D01*
X049519Y028454D01*
X049544Y028500D01*
X049572Y028544D01*
X049603Y028586D01*
X049637Y028626D01*
X049674Y028663D01*
X049714Y028697D01*
X049756Y028728D01*
X049800Y028756D01*
X049846Y028781D01*
X049894Y028802D01*
X049944Y028819D01*
X049994Y028832D01*
X050046Y028842D01*
X050098Y028848D01*
X050150Y028850D01*
X050202Y028848D01*
X050254Y028842D01*
X050306Y028832D01*
X050356Y028819D01*
X050406Y028802D01*
X050454Y028781D01*
X050500Y028756D01*
X050544Y028728D01*
X050586Y028697D01*
X050626Y028663D01*
X050663Y028626D01*
X050697Y028586D01*
X050728Y028544D01*
X050756Y028500D01*
X050781Y028454D01*
X050802Y028406D01*
X050819Y028356D01*
X050832Y028306D01*
X050842Y028254D01*
X050848Y028202D01*
X050850Y028150D01*
X050848Y028098D01*
X050842Y028046D01*
X050832Y027994D01*
X050819Y027944D01*
X050802Y027894D01*
X050781Y027846D01*
X050756Y027800D01*
X050728Y027756D01*
X050697Y027714D01*
X050663Y027674D01*
X050626Y027637D01*
X050586Y027603D01*
X050544Y027572D01*
X050500Y027544D01*
X050454Y027519D01*
X050406Y027498D01*
X050356Y027481D01*
X050306Y027468D01*
X050254Y027458D01*
X050202Y027452D01*
X050150Y027450D01*
X050098Y027452D01*
X050046Y027458D01*
X049994Y027468D01*
X049944Y027481D01*
X049894Y027498D01*
X049846Y027519D01*
X049800Y027544D01*
X049756Y027572D01*
X049714Y027603D01*
X049674Y027637D01*
X049637Y027674D01*
X049603Y027714D01*
X049572Y027756D01*
X049544Y027800D01*
X049519Y027846D01*
X049498Y027894D01*
X049481Y027944D01*
X049468Y027994D01*
X049458Y028046D01*
X049452Y028098D01*
X049450Y028150D01*
X032997Y021842D02*
X032999Y021857D01*
X033005Y021870D01*
X033014Y021882D01*
X033025Y021891D01*
X033039Y021897D01*
X033054Y021899D01*
X033069Y021897D01*
X033082Y021891D01*
X033094Y021882D01*
X033103Y021871D01*
X033109Y021857D01*
X033111Y021842D01*
X033109Y021827D01*
X033103Y021814D01*
X033094Y021802D01*
X033083Y021793D01*
X033069Y021787D01*
X033054Y021785D01*
X033039Y021787D01*
X033026Y021793D01*
X033014Y021802D01*
X033005Y021813D01*
X032999Y021827D01*
X032997Y021842D01*
D16*
X031837Y020130D02*
X031683Y020054D01*
X031530Y019900D01*
X031760Y019900D01*
X031837Y019823D01*
X031837Y019747D01*
X031760Y019670D01*
X031606Y019670D01*
X031530Y019747D01*
X031530Y019900D01*
X031376Y019670D02*
X031069Y020130D01*
X031376Y020130D02*
X031069Y019670D01*
X029207Y019757D02*
X029130Y019680D01*
X028976Y019680D01*
X028900Y019757D01*
X028900Y019910D02*
X029053Y019987D01*
X029130Y019987D01*
X029207Y019910D01*
X029207Y019757D01*
X028900Y019910D02*
X028900Y020140D01*
X029207Y020140D01*
X028746Y020140D02*
X028439Y019680D01*
X028746Y019680D02*
X028439Y020140D01*
X025297Y019910D02*
X024990Y019910D01*
X025220Y020140D01*
X025220Y019680D01*
X024836Y019680D02*
X024529Y020140D01*
X024836Y020140D02*
X024529Y019680D01*
X022408Y019770D02*
X022101Y019770D01*
X022254Y019770D02*
X022254Y020230D01*
X022101Y020077D01*
X021794Y020230D02*
X021794Y019770D01*
X021947Y019770D02*
X021640Y019770D01*
X021487Y019770D02*
X021180Y020230D01*
X021487Y020230D02*
X021180Y019770D01*
X021640Y020077D02*
X021794Y020230D01*
X019065Y028861D02*
X019142Y028938D01*
X019142Y029091D01*
X019065Y029168D01*
X019142Y029321D02*
X018835Y029628D01*
X018758Y029628D01*
X018682Y029551D01*
X018682Y029398D01*
X018758Y029321D01*
X018758Y029168D02*
X018682Y029091D01*
X018682Y028938D01*
X018758Y028861D01*
X019065Y028861D01*
X019142Y029321D02*
X019142Y029628D01*
X034899Y020130D02*
X035206Y019670D01*
X035360Y019670D02*
X035360Y019747D01*
X035667Y020054D01*
X035667Y020130D01*
X035360Y020130D01*
X035206Y020130D02*
X034899Y019670D01*
X038703Y019071D02*
X038703Y018688D01*
X038780Y018611D01*
X038934Y018611D01*
X039010Y018688D01*
X039010Y019071D01*
X039164Y018995D02*
X039164Y018918D01*
X039240Y018841D01*
X039394Y018841D01*
X039471Y018764D01*
X039471Y018688D01*
X039394Y018611D01*
X039240Y018611D01*
X039164Y018688D01*
X039164Y018995D02*
X039240Y019071D01*
X039394Y019071D01*
X039471Y018995D01*
X039624Y019071D02*
X039854Y019071D01*
X039931Y018995D01*
X039931Y018918D01*
X039854Y018841D01*
X039624Y018841D01*
X039624Y018611D02*
X039624Y019071D01*
X039854Y018841D02*
X039931Y018764D01*
X039931Y018688D01*
X039854Y018611D01*
X039624Y018611D01*
X038891Y017829D02*
X038891Y017829D01*
X043393Y019820D02*
X043634Y020180D01*
X043762Y020120D02*
X043762Y020060D01*
X043822Y020000D01*
X043942Y020000D01*
X044002Y019940D01*
X044002Y019880D01*
X043942Y019820D01*
X043822Y019820D01*
X043762Y019880D01*
X043762Y019940D01*
X043822Y020000D01*
X043942Y020000D02*
X044002Y020060D01*
X044002Y020120D01*
X043942Y020180D01*
X043822Y020180D01*
X043762Y020120D01*
X043634Y019820D02*
X043393Y020180D01*
X045360Y020115D02*
X045820Y020115D01*
X045820Y020268D02*
X045820Y019961D01*
X045743Y019808D02*
X045436Y019808D01*
X045360Y019731D01*
X045360Y019501D01*
X045820Y019501D01*
X045820Y019731D01*
X045743Y019808D01*
X045513Y019961D02*
X045360Y020115D01*
X045360Y019347D02*
X045360Y019040D01*
X045820Y019040D01*
X045820Y019347D01*
X045590Y019194D02*
X045590Y019040D01*
X045820Y018887D02*
X045820Y018580D01*
X045360Y018580D01*
X048403Y019790D02*
X048644Y020150D01*
X048772Y020090D02*
X048772Y020030D01*
X048832Y019970D01*
X049012Y019970D01*
X049012Y019850D02*
X049012Y020090D01*
X048952Y020150D01*
X048832Y020150D01*
X048772Y020090D01*
X048772Y019850D02*
X048832Y019790D01*
X048952Y019790D01*
X049012Y019850D01*
X048644Y019790D02*
X048403Y020150D01*
X050400Y020151D02*
X050400Y019998D01*
X050476Y019921D01*
X050476Y019768D02*
X050400Y019691D01*
X050400Y019461D01*
X050860Y019461D01*
X050860Y019691D01*
X050783Y019768D01*
X050476Y019768D01*
X050400Y020151D02*
X050476Y020228D01*
X050553Y020228D01*
X050860Y019921D01*
X050860Y020228D01*
X050860Y019307D02*
X050860Y019000D01*
X050400Y019000D01*
X050400Y019307D01*
X050630Y019154D02*
X050630Y019000D01*
X050860Y018847D02*
X050860Y018540D01*
X050400Y018540D01*
X053435Y019880D02*
X053675Y020240D01*
X053803Y020120D02*
X053923Y020240D01*
X053923Y019880D01*
X053803Y019880D02*
X054044Y019880D01*
X054172Y019940D02*
X054412Y020180D01*
X054412Y019940D01*
X054352Y019880D01*
X054232Y019880D01*
X054172Y019940D01*
X054172Y020180D01*
X054232Y020240D01*
X054352Y020240D01*
X054412Y020180D01*
X053675Y019880D02*
X053435Y020240D01*
X055430Y020121D02*
X055506Y020198D01*
X055583Y020198D01*
X055660Y020121D01*
X055737Y020198D01*
X055813Y020198D01*
X055890Y020121D01*
X055890Y019968D01*
X055813Y019891D01*
X055813Y019738D02*
X055506Y019738D01*
X055430Y019661D01*
X055430Y019431D01*
X055890Y019431D01*
X055890Y019661D01*
X055813Y019738D01*
X055660Y020045D02*
X055660Y020121D01*
X055430Y020121D02*
X055430Y019968D01*
X055506Y019891D01*
X055430Y019277D02*
X055430Y018970D01*
X055890Y018970D01*
X055890Y019277D01*
X055660Y019124D02*
X055660Y018970D01*
X055890Y018817D02*
X055890Y018510D01*
X055430Y018510D01*
X051290Y022279D02*
X051290Y022509D01*
X051213Y022586D01*
X050906Y022586D01*
X050830Y022509D01*
X050830Y022279D01*
X051290Y022279D01*
X051290Y022740D02*
X050983Y023047D01*
X050906Y023047D01*
X050830Y022970D01*
X050830Y022816D01*
X050906Y022740D01*
X051290Y022740D02*
X051290Y023047D01*
X049380Y023056D02*
X049150Y022826D01*
X049227Y022749D02*
X048920Y023056D01*
X048996Y023210D02*
X048920Y023286D01*
X048920Y023440D01*
X048996Y023517D01*
X049073Y023517D01*
X049380Y023210D01*
X049380Y023517D01*
X049380Y022749D02*
X048920Y022749D01*
X046280Y022803D02*
X045820Y022803D01*
X045973Y022650D01*
X045896Y022496D02*
X045820Y022419D01*
X045820Y022189D01*
X046280Y022189D01*
X046280Y022419D01*
X046203Y022496D01*
X045896Y022496D01*
X046280Y022650D02*
X046280Y022957D01*
X044320Y022877D02*
X044320Y022570D01*
X044320Y022723D02*
X043860Y022723D01*
X044013Y022570D01*
X043860Y022416D02*
X044167Y022109D01*
X044090Y022186D02*
X044320Y022416D01*
X044320Y022109D02*
X043860Y022109D01*
X045570Y026989D02*
X045570Y027219D01*
X045646Y027296D01*
X045800Y027296D01*
X045877Y027219D01*
X045877Y026989D01*
X046030Y026989D02*
X045570Y026989D01*
X045877Y027142D02*
X046030Y027296D01*
X046030Y027449D02*
X046030Y027756D01*
X046030Y027603D02*
X045570Y027603D01*
X045723Y027449D01*
X045646Y027910D02*
X045570Y027986D01*
X045570Y028140D01*
X045646Y028217D01*
X045723Y028217D01*
X045800Y028140D01*
X045877Y028217D01*
X045953Y028217D01*
X046030Y028140D01*
X046030Y027986D01*
X045953Y027910D01*
X045800Y028063D02*
X045800Y028140D01*
X049490Y029480D02*
X049670Y029480D01*
X049730Y029540D01*
X049730Y029780D01*
X049670Y029840D01*
X049490Y029840D01*
X049490Y029480D01*
X049858Y029540D02*
X049918Y029480D01*
X050038Y029480D01*
X050099Y029540D01*
X050099Y029780D01*
X050038Y029840D01*
X049918Y029840D01*
X049858Y029780D01*
X049858Y029540D01*
X050227Y029480D02*
X050227Y029840D01*
X050467Y029840D02*
X050467Y029480D01*
X050347Y029600D01*
X050227Y029480D01*
X050595Y029480D02*
X050595Y029840D01*
X050835Y029480D01*
X050835Y029840D01*
X050743Y032480D02*
X050803Y032540D01*
X050743Y032480D02*
X050623Y032480D01*
X050563Y032540D01*
X050563Y032780D01*
X050623Y032840D01*
X050743Y032840D01*
X050803Y032780D01*
X050932Y032840D02*
X051172Y032840D01*
X051052Y032840D02*
X051052Y032480D01*
X050435Y032480D02*
X050195Y032480D01*
X050195Y032840D01*
X050435Y032840D01*
X050315Y032660D02*
X050195Y032660D01*
X050067Y032480D02*
X049827Y032480D01*
X049827Y032840D01*
X049699Y032840D02*
X049458Y032840D01*
X049458Y032480D01*
X049699Y032480D01*
X049578Y032660D02*
X049458Y032660D01*
X049330Y032600D02*
X049330Y032540D01*
X049270Y032480D01*
X049150Y032480D01*
X049090Y032540D01*
X049150Y032660D02*
X049270Y032660D01*
X049330Y032600D01*
X049330Y032780D02*
X049270Y032840D01*
X049150Y032840D01*
X049090Y032780D01*
X049090Y032720D01*
X049150Y032660D01*
X056360Y032741D02*
X056360Y032915D01*
X056446Y033001D01*
X056793Y032655D01*
X056880Y032741D01*
X056880Y032915D01*
X056793Y033001D01*
X056446Y033001D01*
X056446Y033170D02*
X056360Y033257D01*
X056360Y033430D01*
X056446Y033517D01*
X056533Y033517D01*
X056880Y033170D01*
X056880Y033517D01*
X056880Y033686D02*
X056793Y033686D01*
X056446Y034033D01*
X056360Y034033D01*
X056360Y033686D01*
X056446Y034201D02*
X056360Y034288D01*
X056360Y034462D01*
X056446Y034548D01*
X056533Y034548D01*
X056620Y034462D01*
X056707Y034548D01*
X056793Y034548D01*
X056880Y034462D01*
X056880Y034288D01*
X056793Y034201D01*
X056620Y034375D02*
X056620Y034462D01*
X056620Y034717D02*
X056620Y034977D01*
X056707Y035064D01*
X056793Y035064D01*
X056880Y034977D01*
X056880Y034804D01*
X056793Y034717D01*
X056620Y034717D01*
X056446Y034891D01*
X056360Y035064D01*
X056446Y035233D02*
X056360Y035319D01*
X056360Y035493D01*
X056446Y035580D01*
X056533Y035580D01*
X056880Y035233D01*
X056880Y035580D01*
X056360Y032741D02*
X056446Y032655D01*
X056793Y032655D01*
X056793Y032486D02*
X056880Y032399D01*
X056880Y032226D01*
X056793Y032139D01*
X056446Y032486D01*
X056793Y032486D01*
X056446Y032486D02*
X056360Y032399D01*
X056360Y032226D01*
X056446Y032139D01*
X056793Y032139D01*
X056793Y031970D02*
X056880Y031883D01*
X056880Y031710D01*
X056793Y031623D01*
X056446Y031970D01*
X056793Y031970D01*
X056446Y031970D02*
X056360Y031883D01*
X056360Y031710D01*
X056446Y031623D01*
X056793Y031623D01*
X056880Y031455D02*
X056880Y031108D01*
X056880Y031281D02*
X056360Y031281D01*
X056533Y031108D01*
X056533Y030939D02*
X056533Y030852D01*
X056533Y030592D01*
X056707Y030592D02*
X056707Y030939D01*
X056880Y030852D02*
X056360Y030852D01*
X056360Y030679D02*
X056880Y030679D01*
X056533Y029907D02*
X056533Y029820D01*
X056707Y029647D01*
X056707Y029478D02*
X056707Y029131D01*
X056793Y029131D02*
X056620Y029131D01*
X056533Y029218D01*
X056533Y029391D01*
X056620Y029478D01*
X056707Y029478D01*
X056880Y029391D02*
X056880Y029218D01*
X056793Y029131D01*
X056880Y028962D02*
X056880Y028702D01*
X056793Y028615D01*
X056620Y028615D01*
X056533Y028702D01*
X056533Y028962D01*
X056360Y028962D02*
X056880Y028962D01*
X056533Y028446D02*
X056533Y028359D01*
X056707Y028186D01*
X056880Y028186D02*
X056533Y028186D01*
X056446Y028017D02*
X056360Y027930D01*
X056360Y027757D01*
X056446Y027670D01*
X056793Y027670D01*
X056880Y027757D01*
X056880Y027930D01*
X056793Y028017D01*
X056446Y028017D01*
X056533Y029647D02*
X056880Y029647D01*
X054313Y023457D02*
X054390Y023380D01*
X054390Y023226D01*
X054313Y023150D01*
X054390Y022996D02*
X054160Y022766D01*
X054237Y022689D02*
X053930Y022996D01*
X054006Y023150D02*
X053930Y023226D01*
X053930Y023380D01*
X054006Y023457D01*
X054083Y023457D01*
X054160Y023380D01*
X054237Y023457D01*
X054313Y023457D01*
X054160Y023380D02*
X054160Y023303D01*
X053930Y022689D02*
X054390Y022689D01*
X055740Y022670D02*
X055740Y022440D01*
X056200Y022440D01*
X056200Y022670D01*
X056123Y022747D01*
X055816Y022747D01*
X055740Y022670D01*
X055816Y022900D02*
X055740Y022977D01*
X055740Y023131D01*
X055816Y023207D01*
X055893Y023207D01*
X055970Y023131D01*
X056047Y023207D01*
X056123Y023207D01*
X056200Y023131D01*
X056200Y022977D01*
X056123Y022900D01*
X055970Y023054D02*
X055970Y023131D01*
D17*
X034460Y021693D02*
X034460Y021657D01*
X034386Y021583D01*
X034386Y021473D01*
X034386Y021583D02*
X034313Y021657D01*
X034313Y021693D01*
X034239Y021693D02*
X034239Y021473D01*
X034092Y021693D01*
X034092Y021473D01*
X034018Y021473D02*
X033945Y021473D01*
X033981Y021473D02*
X033981Y021693D01*
X033945Y021693D02*
X034018Y021693D01*
X033870Y021693D02*
X033724Y021693D01*
X033797Y021693D02*
X033797Y021473D01*
X033576Y021473D02*
X033576Y021693D01*
X033503Y021693D02*
X033649Y021693D01*
X033428Y021620D02*
X033428Y021473D01*
X033428Y021583D02*
X033282Y021583D01*
X033282Y021620D02*
X033355Y021693D01*
X033428Y021620D01*
X033282Y021620D02*
X033282Y021473D01*
X021639Y023783D02*
X021492Y023783D01*
X021565Y023783D02*
X021565Y024003D01*
X021492Y023930D01*
X021418Y023966D02*
X021381Y024003D01*
X021307Y024003D01*
X021271Y023966D01*
X021271Y023930D01*
X021307Y023893D01*
X021381Y023893D01*
X021418Y023856D01*
X021418Y023820D01*
X021381Y023783D01*
X021307Y023783D01*
X021271Y023820D01*
X021197Y023820D02*
X021197Y023966D01*
X021160Y024003D01*
X021050Y024003D01*
X021050Y023783D01*
X021160Y023783D01*
X021197Y023820D01*
X021807Y025043D02*
X019807Y025043D01*
D18*
X022494Y027377D02*
X022688Y027667D01*
X022789Y027571D02*
X022886Y027667D01*
X022886Y027377D01*
X022982Y027377D02*
X022789Y027377D01*
X022688Y027377D02*
X022494Y027667D01*
X027934Y024399D02*
X028079Y024399D01*
X028128Y024351D01*
X028128Y024302D01*
X028079Y024254D01*
X027934Y024254D01*
X027934Y024109D02*
X027934Y024399D01*
X028079Y024254D02*
X028128Y024206D01*
X028128Y024157D01*
X028079Y024109D01*
X027934Y024109D01*
X028229Y024109D02*
X028229Y024302D01*
X028326Y024399D01*
X028422Y024302D01*
X028422Y024109D01*
X028422Y024254D02*
X028229Y024254D01*
X028523Y024399D02*
X028717Y024399D01*
X028620Y024399D02*
X028620Y024109D01*
X028818Y024109D02*
X029012Y024109D01*
X028915Y024109D02*
X028915Y024399D01*
X028818Y024302D01*
X032992Y034092D02*
X033089Y034092D01*
X033040Y034092D02*
X033040Y034382D01*
X032992Y034382D02*
X033089Y034382D01*
X033188Y034334D02*
X033188Y034141D01*
X033237Y034092D01*
X033333Y034092D01*
X033382Y034141D01*
X033483Y034092D02*
X033676Y034092D01*
X033580Y034092D02*
X033580Y034382D01*
X033483Y034286D01*
X033382Y034334D02*
X033333Y034382D01*
X033237Y034382D01*
X033188Y034334D01*
D19*
X030615Y036110D02*
X030579Y036093D01*
X030580Y036093D02*
X030554Y036143D01*
X030526Y036192D01*
X030495Y036239D01*
X030462Y036284D01*
X030493Y036308D01*
X030528Y036262D01*
X030560Y036213D01*
X030589Y036162D01*
X030616Y036110D01*
X030608Y036106D01*
X030581Y036158D01*
X030552Y036208D01*
X030521Y036256D01*
X030486Y036303D01*
X030479Y036297D01*
X030513Y036251D01*
X030545Y036203D01*
X030574Y036154D01*
X030600Y036103D01*
X030592Y036099D01*
X030566Y036149D01*
X030537Y036199D01*
X030506Y036246D01*
X030472Y036292D01*
X030465Y036286D01*
X030499Y036241D01*
X030529Y036194D01*
X030558Y036145D01*
X030583Y036095D01*
X028685Y035190D02*
X028721Y035207D01*
X028720Y035207D02*
X028749Y035151D01*
X028781Y035097D01*
X028816Y035045D01*
X028854Y034996D01*
X028896Y034949D01*
X028940Y034904D01*
X028987Y034862D01*
X029036Y034823D01*
X029087Y034787D01*
X029141Y034755D01*
X029196Y034725D01*
X029253Y034700D01*
X029312Y034677D01*
X029371Y034658D01*
X029432Y034643D01*
X029494Y034632D01*
X029556Y034624D01*
X029619Y034620D01*
X029681Y034620D01*
X029744Y034624D01*
X029806Y034632D01*
X029868Y034643D01*
X029929Y034658D01*
X029988Y034677D01*
X030047Y034700D01*
X030104Y034725D01*
X030159Y034755D01*
X030213Y034787D01*
X030264Y034823D01*
X030313Y034862D01*
X030360Y034904D01*
X030404Y034949D01*
X030446Y034996D01*
X030484Y035045D01*
X030519Y035097D01*
X030551Y035151D01*
X030580Y035207D01*
X030615Y035190D01*
X030616Y035190D01*
X030586Y035132D01*
X030553Y035076D01*
X030516Y035022D01*
X030477Y034970D01*
X030434Y034921D01*
X030388Y034875D01*
X030339Y034832D01*
X030288Y034791D01*
X030235Y034754D01*
X030179Y034720D01*
X030122Y034690D01*
X030062Y034663D01*
X030002Y034639D01*
X029939Y034620D01*
X029876Y034604D01*
X029812Y034592D01*
X029748Y034584D01*
X029683Y034580D01*
X029617Y034580D01*
X029552Y034584D01*
X029488Y034592D01*
X029424Y034604D01*
X029361Y034620D01*
X029298Y034639D01*
X029238Y034663D01*
X029178Y034690D01*
X029121Y034720D01*
X029065Y034754D01*
X029012Y034791D01*
X028961Y034832D01*
X028912Y034875D01*
X028866Y034921D01*
X028823Y034970D01*
X028784Y035022D01*
X028747Y035076D01*
X028714Y035132D01*
X028684Y035190D01*
X028692Y035194D01*
X028722Y035136D01*
X028755Y035081D01*
X028791Y035027D01*
X028830Y034976D01*
X028873Y034928D01*
X028918Y034882D01*
X028966Y034839D01*
X029017Y034798D01*
X029070Y034762D01*
X029125Y034728D01*
X029182Y034698D01*
X029241Y034671D01*
X029301Y034648D01*
X029363Y034629D01*
X029426Y034613D01*
X029489Y034601D01*
X029553Y034593D01*
X029618Y034589D01*
X029682Y034589D01*
X029747Y034593D01*
X029811Y034601D01*
X029874Y034613D01*
X029937Y034629D01*
X029999Y034648D01*
X030059Y034671D01*
X030118Y034698D01*
X030175Y034728D01*
X030230Y034762D01*
X030283Y034798D01*
X030334Y034839D01*
X030382Y034882D01*
X030427Y034928D01*
X030470Y034976D01*
X030509Y035027D01*
X030545Y035081D01*
X030578Y035136D01*
X030608Y035194D01*
X030600Y035197D01*
X030570Y035140D01*
X030538Y035085D01*
X030502Y035032D01*
X030463Y034982D01*
X030420Y034934D01*
X030375Y034888D01*
X030328Y034845D01*
X030278Y034806D01*
X030225Y034769D01*
X030170Y034736D01*
X030114Y034706D01*
X030055Y034679D01*
X029996Y034656D01*
X029935Y034637D01*
X029872Y034622D01*
X029809Y034610D01*
X029746Y034602D01*
X029682Y034598D01*
X029618Y034598D01*
X029554Y034602D01*
X029491Y034610D01*
X029428Y034622D01*
X029365Y034637D01*
X029304Y034656D01*
X029245Y034679D01*
X029186Y034706D01*
X029130Y034736D01*
X029075Y034769D01*
X029022Y034806D01*
X028972Y034845D01*
X028925Y034888D01*
X028880Y034934D01*
X028837Y034982D01*
X028798Y035032D01*
X028762Y035085D01*
X028730Y035140D01*
X028700Y035197D01*
X028708Y035201D01*
X028738Y035145D01*
X028770Y035090D01*
X028806Y035038D01*
X028844Y034988D01*
X028886Y034940D01*
X028931Y034895D01*
X028978Y034852D01*
X029028Y034813D01*
X029080Y034777D01*
X029134Y034744D01*
X029190Y034714D01*
X029248Y034688D01*
X029307Y034665D01*
X029368Y034646D01*
X029429Y034631D01*
X029492Y034619D01*
X029555Y034611D01*
X029618Y034607D01*
X029682Y034607D01*
X029745Y034611D01*
X029808Y034619D01*
X029871Y034631D01*
X029932Y034646D01*
X029993Y034665D01*
X030052Y034688D01*
X030110Y034714D01*
X030166Y034744D01*
X030220Y034777D01*
X030272Y034813D01*
X030322Y034852D01*
X030369Y034895D01*
X030414Y034940D01*
X030456Y034988D01*
X030494Y035038D01*
X030530Y035090D01*
X030562Y035145D01*
X030592Y035201D01*
X030583Y035205D01*
X030555Y035149D01*
X030522Y035095D01*
X030487Y035043D01*
X030449Y034993D01*
X030407Y034946D01*
X030363Y034901D01*
X030316Y034859D01*
X030267Y034820D01*
X030215Y034784D01*
X030161Y034751D01*
X030106Y034722D01*
X030048Y034696D01*
X029990Y034673D01*
X029930Y034655D01*
X029869Y034639D01*
X029807Y034628D01*
X029744Y034620D01*
X029681Y034616D01*
X029619Y034616D01*
X029556Y034620D01*
X029493Y034628D01*
X029431Y034639D01*
X029370Y034655D01*
X029310Y034673D01*
X029252Y034696D01*
X029194Y034722D01*
X029139Y034751D01*
X029085Y034784D01*
X029033Y034820D01*
X028984Y034859D01*
X028937Y034901D01*
X028893Y034946D01*
X028851Y034993D01*
X028813Y035043D01*
X028778Y035095D01*
X028745Y035149D01*
X028717Y035205D01*
X028807Y036308D02*
X028839Y036283D01*
X028838Y036284D02*
X028803Y036236D01*
X028771Y036187D01*
X028742Y036136D01*
X028716Y036084D01*
X028680Y036100D01*
X028680Y036101D01*
X028707Y036155D01*
X028737Y036208D01*
X028770Y036259D01*
X028807Y036308D01*
X028814Y036303D01*
X028778Y036254D01*
X028745Y036203D01*
X028715Y036151D01*
X028688Y036097D01*
X028696Y036093D01*
X028723Y036147D01*
X028752Y036199D01*
X028785Y036249D01*
X028821Y036297D01*
X028828Y036292D01*
X028793Y036244D01*
X028760Y036194D01*
X028731Y036143D01*
X028704Y036089D01*
X028712Y036086D01*
X028739Y036138D01*
X028768Y036189D01*
X028800Y036239D01*
X028835Y036286D01*
X032826Y031238D02*
X032801Y031213D01*
X032801Y031163D01*
X032826Y031138D01*
X032826Y031090D02*
X032801Y031065D01*
X032801Y031015D01*
X032826Y030990D01*
X032926Y030990D01*
X032951Y031015D01*
X032951Y031065D01*
X032926Y031090D01*
X032951Y031138D02*
X032851Y031238D01*
X032826Y031238D01*
X032951Y031238D02*
X032951Y031138D01*
X032951Y030942D02*
X032951Y030892D01*
X032951Y030917D02*
X032801Y030917D01*
X032801Y030892D02*
X032801Y030942D01*
X023169Y028334D02*
X023069Y028334D01*
X023119Y028334D02*
X023119Y028484D01*
X023069Y028434D01*
X023021Y028484D02*
X023021Y028359D01*
X022996Y028334D01*
X022946Y028334D01*
X022921Y028359D01*
X022921Y028484D01*
X046610Y024185D02*
X046593Y024221D01*
X046593Y024220D02*
X046649Y024249D01*
X046703Y024281D01*
X046755Y024316D01*
X046804Y024354D01*
X046851Y024396D01*
X046896Y024440D01*
X046938Y024487D01*
X046977Y024536D01*
X047013Y024587D01*
X047045Y024641D01*
X047075Y024696D01*
X047100Y024753D01*
X047123Y024812D01*
X047142Y024871D01*
X047157Y024932D01*
X047168Y024994D01*
X047176Y025056D01*
X047180Y025119D01*
X047180Y025181D01*
X047176Y025244D01*
X047168Y025306D01*
X047157Y025368D01*
X047142Y025429D01*
X047123Y025488D01*
X047100Y025547D01*
X047075Y025604D01*
X047045Y025659D01*
X047013Y025713D01*
X046977Y025764D01*
X046938Y025813D01*
X046896Y025860D01*
X046851Y025904D01*
X046804Y025946D01*
X046755Y025984D01*
X046703Y026019D01*
X046649Y026051D01*
X046593Y026080D01*
X046610Y026115D01*
X046610Y026116D01*
X046668Y026086D01*
X046724Y026053D01*
X046778Y026016D01*
X046830Y025977D01*
X046879Y025934D01*
X046925Y025888D01*
X046968Y025839D01*
X047009Y025788D01*
X047046Y025735D01*
X047080Y025679D01*
X047110Y025622D01*
X047137Y025562D01*
X047161Y025502D01*
X047180Y025439D01*
X047196Y025376D01*
X047208Y025312D01*
X047216Y025248D01*
X047220Y025183D01*
X047220Y025117D01*
X047216Y025052D01*
X047208Y024988D01*
X047196Y024924D01*
X047180Y024861D01*
X047161Y024798D01*
X047137Y024738D01*
X047110Y024678D01*
X047080Y024621D01*
X047046Y024565D01*
X047009Y024512D01*
X046968Y024461D01*
X046925Y024412D01*
X046879Y024366D01*
X046830Y024323D01*
X046778Y024284D01*
X046724Y024247D01*
X046668Y024214D01*
X046610Y024184D01*
X046606Y024192D01*
X046664Y024222D01*
X046719Y024255D01*
X046773Y024291D01*
X046824Y024330D01*
X046872Y024373D01*
X046918Y024418D01*
X046961Y024466D01*
X047002Y024517D01*
X047038Y024570D01*
X047072Y024625D01*
X047102Y024682D01*
X047129Y024741D01*
X047152Y024801D01*
X047171Y024863D01*
X047187Y024926D01*
X047199Y024989D01*
X047207Y025053D01*
X047211Y025118D01*
X047211Y025182D01*
X047207Y025247D01*
X047199Y025311D01*
X047187Y025374D01*
X047171Y025437D01*
X047152Y025499D01*
X047129Y025559D01*
X047102Y025618D01*
X047072Y025675D01*
X047038Y025730D01*
X047002Y025783D01*
X046961Y025834D01*
X046918Y025882D01*
X046872Y025927D01*
X046824Y025970D01*
X046773Y026009D01*
X046719Y026045D01*
X046664Y026078D01*
X046606Y026108D01*
X046603Y026100D01*
X046660Y026070D01*
X046715Y026038D01*
X046768Y026002D01*
X046818Y025963D01*
X046866Y025920D01*
X046912Y025875D01*
X046955Y025828D01*
X046994Y025778D01*
X047031Y025725D01*
X047064Y025670D01*
X047094Y025614D01*
X047121Y025555D01*
X047144Y025496D01*
X047163Y025435D01*
X047178Y025372D01*
X047190Y025309D01*
X047198Y025246D01*
X047202Y025182D01*
X047202Y025118D01*
X047198Y025054D01*
X047190Y024991D01*
X047178Y024928D01*
X047163Y024865D01*
X047144Y024804D01*
X047121Y024745D01*
X047094Y024686D01*
X047064Y024630D01*
X047031Y024575D01*
X046994Y024522D01*
X046955Y024472D01*
X046912Y024425D01*
X046866Y024380D01*
X046818Y024337D01*
X046768Y024298D01*
X046715Y024262D01*
X046660Y024230D01*
X046603Y024200D01*
X046599Y024208D01*
X046655Y024238D01*
X046710Y024270D01*
X046762Y024306D01*
X046812Y024344D01*
X046860Y024386D01*
X046905Y024431D01*
X046948Y024478D01*
X046987Y024528D01*
X047023Y024580D01*
X047056Y024634D01*
X047086Y024690D01*
X047112Y024748D01*
X047135Y024807D01*
X047154Y024868D01*
X047169Y024929D01*
X047181Y024992D01*
X047189Y025055D01*
X047193Y025118D01*
X047193Y025182D01*
X047189Y025245D01*
X047181Y025308D01*
X047169Y025371D01*
X047154Y025432D01*
X047135Y025493D01*
X047112Y025552D01*
X047086Y025610D01*
X047056Y025666D01*
X047023Y025720D01*
X046987Y025772D01*
X046948Y025822D01*
X046905Y025869D01*
X046860Y025914D01*
X046812Y025956D01*
X046762Y025994D01*
X046710Y026030D01*
X046655Y026062D01*
X046599Y026092D01*
X046595Y026083D01*
X046651Y026055D01*
X046705Y026022D01*
X046757Y025987D01*
X046807Y025949D01*
X046854Y025907D01*
X046899Y025863D01*
X046941Y025816D01*
X046980Y025767D01*
X047016Y025715D01*
X047049Y025661D01*
X047078Y025606D01*
X047104Y025548D01*
X047127Y025490D01*
X047145Y025430D01*
X047161Y025369D01*
X047172Y025307D01*
X047180Y025244D01*
X047184Y025181D01*
X047184Y025119D01*
X047180Y025056D01*
X047172Y024993D01*
X047161Y024931D01*
X047145Y024870D01*
X047127Y024810D01*
X047104Y024752D01*
X047078Y024694D01*
X047049Y024639D01*
X047016Y024585D01*
X046980Y024533D01*
X046941Y024484D01*
X046899Y024437D01*
X046854Y024393D01*
X046807Y024351D01*
X046757Y024313D01*
X046705Y024278D01*
X046651Y024245D01*
X046595Y024217D01*
X045492Y024307D02*
X045517Y024339D01*
X045516Y024338D02*
X045564Y024303D01*
X045613Y024271D01*
X045664Y024242D01*
X045716Y024216D01*
X045700Y024180D01*
X045699Y024180D01*
X045645Y024207D01*
X045592Y024237D01*
X045541Y024270D01*
X045492Y024307D01*
X045497Y024314D01*
X045546Y024278D01*
X045597Y024245D01*
X045649Y024215D01*
X045703Y024188D01*
X045707Y024196D01*
X045653Y024223D01*
X045601Y024252D01*
X045551Y024285D01*
X045503Y024321D01*
X045508Y024328D01*
X045556Y024293D01*
X045606Y024260D01*
X045657Y024231D01*
X045711Y024204D01*
X045714Y024212D01*
X045662Y024239D01*
X045611Y024268D01*
X045561Y024300D01*
X045514Y024335D01*
X045690Y026115D02*
X045707Y026079D01*
X045707Y026080D02*
X045657Y026054D01*
X045608Y026026D01*
X045561Y025995D01*
X045516Y025962D01*
X045492Y025993D01*
X045538Y026028D01*
X045587Y026060D01*
X045638Y026089D01*
X045690Y026116D01*
X045694Y026108D01*
X045642Y026081D01*
X045592Y026052D01*
X045544Y026021D01*
X045497Y025986D01*
X045503Y025979D01*
X045549Y026013D01*
X045597Y026045D01*
X045646Y026074D01*
X045697Y026100D01*
X045701Y026092D01*
X045651Y026066D01*
X045601Y026037D01*
X045554Y026006D01*
X045508Y025972D01*
X045514Y025965D01*
X045559Y025999D01*
X045606Y026029D01*
X045655Y026058D01*
X045705Y026083D01*
X051610Y024185D02*
X051593Y024221D01*
X051593Y024220D02*
X051649Y024249D01*
X051703Y024281D01*
X051755Y024316D01*
X051804Y024354D01*
X051851Y024396D01*
X051896Y024440D01*
X051938Y024487D01*
X051977Y024536D01*
X052013Y024587D01*
X052045Y024641D01*
X052075Y024696D01*
X052100Y024753D01*
X052123Y024812D01*
X052142Y024871D01*
X052157Y024932D01*
X052168Y024994D01*
X052176Y025056D01*
X052180Y025119D01*
X052180Y025181D01*
X052176Y025244D01*
X052168Y025306D01*
X052157Y025368D01*
X052142Y025429D01*
X052123Y025488D01*
X052100Y025547D01*
X052075Y025604D01*
X052045Y025659D01*
X052013Y025713D01*
X051977Y025764D01*
X051938Y025813D01*
X051896Y025860D01*
X051851Y025904D01*
X051804Y025946D01*
X051755Y025984D01*
X051703Y026019D01*
X051649Y026051D01*
X051593Y026080D01*
X051610Y026115D01*
X051610Y026116D01*
X051668Y026086D01*
X051724Y026053D01*
X051778Y026016D01*
X051830Y025977D01*
X051879Y025934D01*
X051925Y025888D01*
X051968Y025839D01*
X052009Y025788D01*
X052046Y025735D01*
X052080Y025679D01*
X052110Y025622D01*
X052137Y025562D01*
X052161Y025502D01*
X052180Y025439D01*
X052196Y025376D01*
X052208Y025312D01*
X052216Y025248D01*
X052220Y025183D01*
X052220Y025117D01*
X052216Y025052D01*
X052208Y024988D01*
X052196Y024924D01*
X052180Y024861D01*
X052161Y024798D01*
X052137Y024738D01*
X052110Y024678D01*
X052080Y024621D01*
X052046Y024565D01*
X052009Y024512D01*
X051968Y024461D01*
X051925Y024412D01*
X051879Y024366D01*
X051830Y024323D01*
X051778Y024284D01*
X051724Y024247D01*
X051668Y024214D01*
X051610Y024184D01*
X051606Y024192D01*
X051664Y024222D01*
X051719Y024255D01*
X051773Y024291D01*
X051824Y024330D01*
X051872Y024373D01*
X051918Y024418D01*
X051961Y024466D01*
X052002Y024517D01*
X052038Y024570D01*
X052072Y024625D01*
X052102Y024682D01*
X052129Y024741D01*
X052152Y024801D01*
X052171Y024863D01*
X052187Y024926D01*
X052199Y024989D01*
X052207Y025053D01*
X052211Y025118D01*
X052211Y025182D01*
X052207Y025247D01*
X052199Y025311D01*
X052187Y025374D01*
X052171Y025437D01*
X052152Y025499D01*
X052129Y025559D01*
X052102Y025618D01*
X052072Y025675D01*
X052038Y025730D01*
X052002Y025783D01*
X051961Y025834D01*
X051918Y025882D01*
X051872Y025927D01*
X051824Y025970D01*
X051773Y026009D01*
X051719Y026045D01*
X051664Y026078D01*
X051606Y026108D01*
X051603Y026100D01*
X051660Y026070D01*
X051715Y026038D01*
X051768Y026002D01*
X051818Y025963D01*
X051866Y025920D01*
X051912Y025875D01*
X051955Y025828D01*
X051994Y025778D01*
X052031Y025725D01*
X052064Y025670D01*
X052094Y025614D01*
X052121Y025555D01*
X052144Y025496D01*
X052163Y025435D01*
X052178Y025372D01*
X052190Y025309D01*
X052198Y025246D01*
X052202Y025182D01*
X052202Y025118D01*
X052198Y025054D01*
X052190Y024991D01*
X052178Y024928D01*
X052163Y024865D01*
X052144Y024804D01*
X052121Y024745D01*
X052094Y024686D01*
X052064Y024630D01*
X052031Y024575D01*
X051994Y024522D01*
X051955Y024472D01*
X051912Y024425D01*
X051866Y024380D01*
X051818Y024337D01*
X051768Y024298D01*
X051715Y024262D01*
X051660Y024230D01*
X051603Y024200D01*
X051599Y024208D01*
X051655Y024238D01*
X051710Y024270D01*
X051762Y024306D01*
X051812Y024344D01*
X051860Y024386D01*
X051905Y024431D01*
X051948Y024478D01*
X051987Y024528D01*
X052023Y024580D01*
X052056Y024634D01*
X052086Y024690D01*
X052112Y024748D01*
X052135Y024807D01*
X052154Y024868D01*
X052169Y024929D01*
X052181Y024992D01*
X052189Y025055D01*
X052193Y025118D01*
X052193Y025182D01*
X052189Y025245D01*
X052181Y025308D01*
X052169Y025371D01*
X052154Y025432D01*
X052135Y025493D01*
X052112Y025552D01*
X052086Y025610D01*
X052056Y025666D01*
X052023Y025720D01*
X051987Y025772D01*
X051948Y025822D01*
X051905Y025869D01*
X051860Y025914D01*
X051812Y025956D01*
X051762Y025994D01*
X051710Y026030D01*
X051655Y026062D01*
X051599Y026092D01*
X051595Y026083D01*
X051651Y026055D01*
X051705Y026022D01*
X051757Y025987D01*
X051807Y025949D01*
X051854Y025907D01*
X051899Y025863D01*
X051941Y025816D01*
X051980Y025767D01*
X052016Y025715D01*
X052049Y025661D01*
X052078Y025606D01*
X052104Y025548D01*
X052127Y025490D01*
X052145Y025430D01*
X052161Y025369D01*
X052172Y025307D01*
X052180Y025244D01*
X052184Y025181D01*
X052184Y025119D01*
X052180Y025056D01*
X052172Y024993D01*
X052161Y024931D01*
X052145Y024870D01*
X052127Y024810D01*
X052104Y024752D01*
X052078Y024694D01*
X052049Y024639D01*
X052016Y024585D01*
X051980Y024533D01*
X051941Y024484D01*
X051899Y024437D01*
X051854Y024393D01*
X051807Y024351D01*
X051757Y024313D01*
X051705Y024278D01*
X051651Y024245D01*
X051595Y024217D01*
X050492Y024307D02*
X050517Y024339D01*
X050516Y024338D02*
X050564Y024303D01*
X050613Y024271D01*
X050664Y024242D01*
X050716Y024216D01*
X050700Y024180D01*
X050699Y024180D01*
X050645Y024207D01*
X050592Y024237D01*
X050541Y024270D01*
X050492Y024307D01*
X050497Y024314D01*
X050546Y024278D01*
X050597Y024245D01*
X050649Y024215D01*
X050703Y024188D01*
X050707Y024196D01*
X050653Y024223D01*
X050601Y024252D01*
X050551Y024285D01*
X050503Y024321D01*
X050508Y024328D01*
X050556Y024293D01*
X050606Y024260D01*
X050657Y024231D01*
X050711Y024204D01*
X050714Y024212D01*
X050662Y024239D01*
X050611Y024268D01*
X050561Y024300D01*
X050514Y024335D01*
X050690Y026115D02*
X050707Y026079D01*
X050707Y026080D02*
X050657Y026054D01*
X050608Y026026D01*
X050561Y025995D01*
X050516Y025962D01*
X050492Y025993D01*
X050538Y026028D01*
X050587Y026060D01*
X050638Y026089D01*
X050690Y026116D01*
X050694Y026108D01*
X050642Y026081D01*
X050592Y026052D01*
X050544Y026021D01*
X050497Y025986D01*
X050503Y025979D01*
X050549Y026013D01*
X050597Y026045D01*
X050646Y026074D01*
X050697Y026100D01*
X050701Y026092D01*
X050651Y026066D01*
X050601Y026037D01*
X050554Y026006D01*
X050508Y025972D01*
X050514Y025965D01*
X050559Y025999D01*
X050606Y026029D01*
X050655Y026058D01*
X050705Y026083D01*
X056610Y024185D02*
X056593Y024221D01*
X056593Y024220D02*
X056649Y024249D01*
X056703Y024281D01*
X056755Y024316D01*
X056804Y024354D01*
X056851Y024396D01*
X056896Y024440D01*
X056938Y024487D01*
X056977Y024536D01*
X057013Y024587D01*
X057045Y024641D01*
X057075Y024696D01*
X057100Y024753D01*
X057123Y024812D01*
X057142Y024871D01*
X057157Y024932D01*
X057168Y024994D01*
X057176Y025056D01*
X057180Y025119D01*
X057180Y025181D01*
X057176Y025244D01*
X057168Y025306D01*
X057157Y025368D01*
X057142Y025429D01*
X057123Y025488D01*
X057100Y025547D01*
X057075Y025604D01*
X057045Y025659D01*
X057013Y025713D01*
X056977Y025764D01*
X056938Y025813D01*
X056896Y025860D01*
X056851Y025904D01*
X056804Y025946D01*
X056755Y025984D01*
X056703Y026019D01*
X056649Y026051D01*
X056593Y026080D01*
X056610Y026115D01*
X056610Y026116D01*
X056668Y026086D01*
X056724Y026053D01*
X056778Y026016D01*
X056830Y025977D01*
X056879Y025934D01*
X056925Y025888D01*
X056968Y025839D01*
X057009Y025788D01*
X057046Y025735D01*
X057080Y025679D01*
X057110Y025622D01*
X057137Y025562D01*
X057161Y025502D01*
X057180Y025439D01*
X057196Y025376D01*
X057208Y025312D01*
X057216Y025248D01*
X057220Y025183D01*
X057220Y025117D01*
X057216Y025052D01*
X057208Y024988D01*
X057196Y024924D01*
X057180Y024861D01*
X057161Y024798D01*
X057137Y024738D01*
X057110Y024678D01*
X057080Y024621D01*
X057046Y024565D01*
X057009Y024512D01*
X056968Y024461D01*
X056925Y024412D01*
X056879Y024366D01*
X056830Y024323D01*
X056778Y024284D01*
X056724Y024247D01*
X056668Y024214D01*
X056610Y024184D01*
X056606Y024192D01*
X056664Y024222D01*
X056719Y024255D01*
X056773Y024291D01*
X056824Y024330D01*
X056872Y024373D01*
X056918Y024418D01*
X056961Y024466D01*
X057002Y024517D01*
X057038Y024570D01*
X057072Y024625D01*
X057102Y024682D01*
X057129Y024741D01*
X057152Y024801D01*
X057171Y024863D01*
X057187Y024926D01*
X057199Y024989D01*
X057207Y025053D01*
X057211Y025118D01*
X057211Y025182D01*
X057207Y025247D01*
X057199Y025311D01*
X057187Y025374D01*
X057171Y025437D01*
X057152Y025499D01*
X057129Y025559D01*
X057102Y025618D01*
X057072Y025675D01*
X057038Y025730D01*
X057002Y025783D01*
X056961Y025834D01*
X056918Y025882D01*
X056872Y025927D01*
X056824Y025970D01*
X056773Y026009D01*
X056719Y026045D01*
X056664Y026078D01*
X056606Y026108D01*
X056603Y026100D01*
X056660Y026070D01*
X056715Y026038D01*
X056768Y026002D01*
X056818Y025963D01*
X056866Y025920D01*
X056912Y025875D01*
X056955Y025828D01*
X056994Y025778D01*
X057031Y025725D01*
X057064Y025670D01*
X057094Y025614D01*
X057121Y025555D01*
X057144Y025496D01*
X057163Y025435D01*
X057178Y025372D01*
X057190Y025309D01*
X057198Y025246D01*
X057202Y025182D01*
X057202Y025118D01*
X057198Y025054D01*
X057190Y024991D01*
X057178Y024928D01*
X057163Y024865D01*
X057144Y024804D01*
X057121Y024745D01*
X057094Y024686D01*
X057064Y024630D01*
X057031Y024575D01*
X056994Y024522D01*
X056955Y024472D01*
X056912Y024425D01*
X056866Y024380D01*
X056818Y024337D01*
X056768Y024298D01*
X056715Y024262D01*
X056660Y024230D01*
X056603Y024200D01*
X056599Y024208D01*
X056655Y024238D01*
X056710Y024270D01*
X056762Y024306D01*
X056812Y024344D01*
X056860Y024386D01*
X056905Y024431D01*
X056948Y024478D01*
X056987Y024528D01*
X057023Y024580D01*
X057056Y024634D01*
X057086Y024690D01*
X057112Y024748D01*
X057135Y024807D01*
X057154Y024868D01*
X057169Y024929D01*
X057181Y024992D01*
X057189Y025055D01*
X057193Y025118D01*
X057193Y025182D01*
X057189Y025245D01*
X057181Y025308D01*
X057169Y025371D01*
X057154Y025432D01*
X057135Y025493D01*
X057112Y025552D01*
X057086Y025610D01*
X057056Y025666D01*
X057023Y025720D01*
X056987Y025772D01*
X056948Y025822D01*
X056905Y025869D01*
X056860Y025914D01*
X056812Y025956D01*
X056762Y025994D01*
X056710Y026030D01*
X056655Y026062D01*
X056599Y026092D01*
X056595Y026083D01*
X056651Y026055D01*
X056705Y026022D01*
X056757Y025987D01*
X056807Y025949D01*
X056854Y025907D01*
X056899Y025863D01*
X056941Y025816D01*
X056980Y025767D01*
X057016Y025715D01*
X057049Y025661D01*
X057078Y025606D01*
X057104Y025548D01*
X057127Y025490D01*
X057145Y025430D01*
X057161Y025369D01*
X057172Y025307D01*
X057180Y025244D01*
X057184Y025181D01*
X057184Y025119D01*
X057180Y025056D01*
X057172Y024993D01*
X057161Y024931D01*
X057145Y024870D01*
X057127Y024810D01*
X057104Y024752D01*
X057078Y024694D01*
X057049Y024639D01*
X057016Y024585D01*
X056980Y024533D01*
X056941Y024484D01*
X056899Y024437D01*
X056854Y024393D01*
X056807Y024351D01*
X056757Y024313D01*
X056705Y024278D01*
X056651Y024245D01*
X056595Y024217D01*
X055492Y024307D02*
X055517Y024339D01*
X055516Y024338D02*
X055564Y024303D01*
X055613Y024271D01*
X055664Y024242D01*
X055716Y024216D01*
X055700Y024180D01*
X055699Y024180D01*
X055645Y024207D01*
X055592Y024237D01*
X055541Y024270D01*
X055492Y024307D01*
X055497Y024314D01*
X055546Y024278D01*
X055597Y024245D01*
X055649Y024215D01*
X055703Y024188D01*
X055707Y024196D01*
X055653Y024223D01*
X055601Y024252D01*
X055551Y024285D01*
X055503Y024321D01*
X055508Y024328D01*
X055556Y024293D01*
X055606Y024260D01*
X055657Y024231D01*
X055711Y024204D01*
X055714Y024212D01*
X055662Y024239D01*
X055611Y024268D01*
X055561Y024300D01*
X055514Y024335D01*
X055690Y026115D02*
X055707Y026079D01*
X055707Y026080D02*
X055657Y026054D01*
X055608Y026026D01*
X055561Y025995D01*
X055516Y025962D01*
X055492Y025993D01*
X055538Y026028D01*
X055587Y026060D01*
X055638Y026089D01*
X055690Y026116D01*
X055694Y026108D01*
X055642Y026081D01*
X055592Y026052D01*
X055544Y026021D01*
X055497Y025986D01*
X055503Y025979D01*
X055549Y026013D01*
X055597Y026045D01*
X055646Y026074D01*
X055697Y026100D01*
X055701Y026092D01*
X055651Y026066D01*
X055601Y026037D01*
X055554Y026006D01*
X055508Y025972D01*
X055514Y025965D01*
X055559Y025999D01*
X055606Y026029D01*
X055655Y026058D01*
X055705Y026083D01*
D20*
X022388Y027042D02*
X022188Y027042D01*
X022188Y026642D02*
X022338Y026642D01*
D21*
X022403Y026642D03*
X022403Y027042D03*
D22*
X045440Y021381D02*
X045466Y021352D01*
X045465Y021352D02*
X045444Y021331D01*
X045425Y021307D01*
X045409Y021281D01*
X045396Y021254D01*
X045386Y021225D01*
X045380Y021195D01*
X045376Y021165D01*
X045376Y021135D01*
X045380Y021105D01*
X045386Y021075D01*
X045396Y021046D01*
X045409Y021019D01*
X045425Y020993D01*
X045444Y020969D01*
X045465Y020948D01*
X045440Y020919D01*
X045439Y020919D01*
X045415Y020943D01*
X045393Y020971D01*
X045375Y021000D01*
X045360Y021032D01*
X045349Y021064D01*
X045341Y021098D01*
X045337Y021133D01*
X045337Y021167D01*
X045341Y021202D01*
X045349Y021236D01*
X045360Y021268D01*
X045375Y021300D01*
X045393Y021329D01*
X045415Y021357D01*
X045439Y021381D01*
X045440Y021381D01*
X045416Y021356D01*
X045394Y021329D01*
X045376Y021299D01*
X045361Y021268D01*
X045350Y021235D01*
X045342Y021202D01*
X045338Y021167D01*
X045338Y021133D01*
X045342Y021098D01*
X045350Y021065D01*
X045361Y021032D01*
X045376Y021001D01*
X045394Y020971D01*
X045416Y020944D01*
X045440Y020919D01*
X045440Y020920D01*
X045416Y020945D01*
X045395Y020972D01*
X045377Y021001D01*
X045362Y021032D01*
X045351Y021065D01*
X045343Y021099D01*
X045339Y021133D01*
X045339Y021167D01*
X045343Y021201D01*
X045351Y021235D01*
X045362Y021268D01*
X045377Y021299D01*
X045395Y021328D01*
X045416Y021355D01*
X045440Y021380D01*
X045441Y021379D01*
X045417Y021355D01*
X045396Y021328D01*
X045378Y021298D01*
X045363Y021267D01*
X045352Y021235D01*
X045344Y021201D01*
X045340Y021167D01*
X045340Y021133D01*
X045344Y021099D01*
X045352Y021065D01*
X045363Y021033D01*
X045378Y021002D01*
X045396Y020972D01*
X045417Y020945D01*
X045441Y020921D01*
X045442Y020922D01*
X045418Y020946D01*
X045397Y020973D01*
X045379Y021002D01*
X045364Y021033D01*
X045353Y021065D01*
X045345Y021099D01*
X045341Y021133D01*
X045341Y021167D01*
X045345Y021201D01*
X045353Y021235D01*
X045364Y021267D01*
X045379Y021298D01*
X045397Y021327D01*
X045418Y021354D01*
X045442Y021378D01*
X045419Y021353D01*
X045397Y021326D01*
X045380Y021297D01*
X045365Y021267D01*
X045354Y021234D01*
X045346Y021201D01*
X045342Y021167D01*
X045342Y021133D01*
X045346Y021099D01*
X045354Y021066D01*
X045365Y021033D01*
X045380Y021003D01*
X045397Y020974D01*
X045419Y020947D01*
X045442Y020922D01*
X045443Y020923D01*
X045419Y020947D01*
X045398Y020974D01*
X045380Y021003D01*
X045366Y021034D01*
X045355Y021066D01*
X045347Y021099D01*
X045343Y021133D01*
X045343Y021167D01*
X045347Y021201D01*
X045355Y021234D01*
X045366Y021266D01*
X045380Y021297D01*
X045398Y021326D01*
X045419Y021353D01*
X045443Y021377D01*
X045444Y021376D01*
X045420Y021352D01*
X045399Y021325D01*
X045381Y021296D01*
X045367Y021266D01*
X045356Y021234D01*
X045348Y021201D01*
X045344Y021167D01*
X045344Y021133D01*
X045348Y021099D01*
X045356Y021066D01*
X045367Y021034D01*
X045381Y021004D01*
X045399Y020975D01*
X045420Y020948D01*
X045444Y020924D01*
X045444Y020925D01*
X045421Y020949D01*
X045400Y020975D01*
X045382Y021004D01*
X045368Y021035D01*
X045357Y021067D01*
X045349Y021100D01*
X045345Y021133D01*
X045345Y021167D01*
X045349Y021200D01*
X045357Y021233D01*
X045368Y021265D01*
X045382Y021296D01*
X045400Y021325D01*
X045421Y021351D01*
X045444Y021375D01*
X045445Y021375D01*
X045422Y021351D01*
X045401Y021324D01*
X045383Y021295D01*
X045369Y021265D01*
X045358Y021233D01*
X045350Y021200D01*
X045346Y021167D01*
X045346Y021133D01*
X045350Y021100D01*
X045358Y021067D01*
X045369Y021035D01*
X045383Y021005D01*
X045401Y020976D01*
X045422Y020949D01*
X045445Y020925D01*
X045446Y020926D01*
X045422Y020950D01*
X045402Y020977D01*
X045384Y021005D01*
X045370Y021035D01*
X045359Y021067D01*
X045351Y021100D01*
X045347Y021133D01*
X045347Y021167D01*
X045351Y021200D01*
X045359Y021233D01*
X045370Y021265D01*
X045384Y021295D01*
X045402Y021323D01*
X045422Y021350D01*
X045446Y021374D01*
X045446Y021373D01*
X045423Y021349D01*
X045402Y021323D01*
X045385Y021294D01*
X045370Y021264D01*
X045360Y021233D01*
X045352Y021200D01*
X045348Y021167D01*
X045348Y021133D01*
X045352Y021100D01*
X045360Y021067D01*
X045370Y021036D01*
X045385Y021006D01*
X045402Y020977D01*
X045423Y020951D01*
X045446Y020927D01*
X045447Y020928D01*
X045424Y020951D01*
X045403Y020978D01*
X045386Y021006D01*
X045371Y021036D01*
X045360Y021068D01*
X045353Y021100D01*
X045349Y021133D01*
X045349Y021167D01*
X045353Y021200D01*
X045360Y021232D01*
X045371Y021264D01*
X045386Y021294D01*
X045403Y021322D01*
X045424Y021349D01*
X045447Y021372D01*
X045448Y021372D01*
X045425Y021348D01*
X045404Y021322D01*
X045387Y021294D01*
X045372Y021263D01*
X045361Y021232D01*
X045354Y021200D01*
X045350Y021167D01*
X045350Y021133D01*
X045354Y021100D01*
X045361Y021068D01*
X045372Y021037D01*
X045387Y021006D01*
X045404Y020978D01*
X045425Y020952D01*
X045448Y020928D01*
X045449Y020929D01*
X045425Y020953D01*
X045405Y020979D01*
X045387Y021007D01*
X045373Y021037D01*
X045362Y021068D01*
X045355Y021101D01*
X045351Y021133D01*
X045351Y021167D01*
X045355Y021199D01*
X045362Y021232D01*
X045373Y021263D01*
X045387Y021293D01*
X045405Y021321D01*
X045425Y021347D01*
X045449Y021371D01*
X045449Y021370D01*
X045426Y021347D01*
X045406Y021321D01*
X045388Y021293D01*
X045374Y021263D01*
X045363Y021232D01*
X045356Y021199D01*
X045352Y021167D01*
X045352Y021133D01*
X045356Y021101D01*
X045363Y021068D01*
X045374Y021037D01*
X045388Y021007D01*
X045406Y020979D01*
X045426Y020953D01*
X045449Y020930D01*
X045450Y020931D01*
X045427Y020954D01*
X045406Y020980D01*
X045389Y021008D01*
X045375Y021038D01*
X045364Y021069D01*
X045357Y021101D01*
X045353Y021134D01*
X045353Y021166D01*
X045357Y021199D01*
X045364Y021231D01*
X045375Y021262D01*
X045389Y021292D01*
X045406Y021320D01*
X045427Y021346D01*
X045450Y021369D01*
X045451Y021369D01*
X045428Y021345D01*
X045407Y021319D01*
X045390Y021292D01*
X045376Y021262D01*
X045365Y021231D01*
X045358Y021199D01*
X045354Y021166D01*
X045354Y021134D01*
X045358Y021101D01*
X045365Y021069D01*
X045376Y021038D01*
X045390Y021008D01*
X045407Y020981D01*
X045428Y020955D01*
X045451Y020931D01*
X045451Y020932D01*
X045428Y020955D01*
X045408Y020981D01*
X045391Y021009D01*
X045377Y021038D01*
X045366Y021069D01*
X045359Y021101D01*
X045355Y021134D01*
X045355Y021166D01*
X045359Y021199D01*
X045366Y021231D01*
X045377Y021262D01*
X045391Y021291D01*
X045408Y021319D01*
X045428Y021345D01*
X045451Y021368D01*
X045452Y021367D01*
X045429Y021344D01*
X045409Y021318D01*
X045392Y021291D01*
X045378Y021261D01*
X045367Y021230D01*
X045360Y021199D01*
X045356Y021166D01*
X045356Y021134D01*
X045360Y021101D01*
X045367Y021070D01*
X045378Y021039D01*
X045392Y021009D01*
X045409Y020982D01*
X045429Y020956D01*
X045452Y020933D01*
X045453Y020934D01*
X045430Y020957D01*
X045410Y020982D01*
X045393Y021010D01*
X045379Y021039D01*
X045368Y021070D01*
X045361Y021102D01*
X045357Y021134D01*
X045357Y021166D01*
X045361Y021198D01*
X045368Y021230D01*
X045379Y021261D01*
X045393Y021290D01*
X045410Y021318D01*
X045430Y021343D01*
X045453Y021366D01*
X045431Y021343D01*
X045411Y021317D01*
X045394Y021290D01*
X045380Y021260D01*
X045369Y021230D01*
X045362Y021198D01*
X045358Y021166D01*
X045358Y021134D01*
X045362Y021102D01*
X045369Y021070D01*
X045380Y021040D01*
X045394Y021010D01*
X045411Y020983D01*
X045431Y020957D01*
X045453Y020934D01*
X045454Y020935D01*
X045431Y020958D01*
X045411Y020983D01*
X045394Y021011D01*
X045381Y021040D01*
X045370Y021070D01*
X045363Y021102D01*
X045359Y021134D01*
X045359Y021166D01*
X045363Y021198D01*
X045370Y021230D01*
X045381Y021260D01*
X045394Y021289D01*
X045411Y021317D01*
X045431Y021342D01*
X045454Y021365D01*
X045455Y021364D01*
X045432Y021341D01*
X045412Y021316D01*
X045395Y021289D01*
X045382Y021260D01*
X045371Y021229D01*
X045364Y021198D01*
X045360Y021166D01*
X045360Y021134D01*
X045364Y021102D01*
X045371Y021071D01*
X045382Y021040D01*
X045395Y021011D01*
X045412Y020984D01*
X045432Y020959D01*
X045455Y020936D01*
X045433Y020959D01*
X045413Y020985D01*
X045396Y021012D01*
X045382Y021041D01*
X045372Y021071D01*
X045365Y021102D01*
X045361Y021134D01*
X045361Y021166D01*
X045365Y021198D01*
X045372Y021229D01*
X045382Y021259D01*
X045396Y021288D01*
X045413Y021315D01*
X045433Y021341D01*
X045455Y021364D01*
X045456Y021363D01*
X045434Y021340D01*
X045414Y021315D01*
X045397Y021288D01*
X045383Y021259D01*
X045373Y021229D01*
X045366Y021198D01*
X045362Y021166D01*
X045362Y021134D01*
X045366Y021102D01*
X045373Y021071D01*
X045383Y021041D01*
X045397Y021012D01*
X045414Y020985D01*
X045434Y020960D01*
X045456Y020937D01*
X045457Y020938D01*
X045434Y020961D01*
X045415Y020986D01*
X045398Y021013D01*
X045384Y021041D01*
X045374Y021071D01*
X045367Y021103D01*
X045363Y021134D01*
X045363Y021166D01*
X045367Y021197D01*
X045374Y021229D01*
X045384Y021259D01*
X045398Y021287D01*
X045415Y021314D01*
X045434Y021339D01*
X045457Y021362D01*
X045457Y021361D01*
X045435Y021339D01*
X045416Y021314D01*
X045399Y021287D01*
X045385Y021258D01*
X045375Y021228D01*
X045368Y021197D01*
X045364Y021166D01*
X045364Y021134D01*
X045368Y021103D01*
X045375Y021072D01*
X045385Y021042D01*
X045399Y021013D01*
X045416Y020986D01*
X045435Y020961D01*
X045457Y020939D01*
X045458Y020939D01*
X045436Y020962D01*
X045416Y020987D01*
X045400Y021014D01*
X045386Y021042D01*
X045376Y021072D01*
X045369Y021103D01*
X045365Y021134D01*
X045365Y021166D01*
X045369Y021197D01*
X045376Y021228D01*
X045386Y021258D01*
X045400Y021286D01*
X045416Y021313D01*
X045436Y021338D01*
X045458Y021361D01*
X045459Y021360D01*
X045437Y021337D01*
X045417Y021313D01*
X045401Y021286D01*
X045387Y021257D01*
X045377Y021228D01*
X045370Y021197D01*
X045366Y021166D01*
X045366Y021134D01*
X045370Y021103D01*
X045377Y021072D01*
X045387Y021043D01*
X045401Y021014D01*
X045417Y020987D01*
X045437Y020963D01*
X045459Y020940D01*
X045459Y020941D01*
X045437Y020963D01*
X045418Y020988D01*
X045401Y021015D01*
X045388Y021043D01*
X045378Y021073D01*
X045371Y021103D01*
X045367Y021134D01*
X045367Y021166D01*
X045371Y021197D01*
X045378Y021227D01*
X045388Y021257D01*
X045401Y021285D01*
X045418Y021312D01*
X045437Y021337D01*
X045459Y021359D01*
X045460Y021358D01*
X045438Y021336D01*
X045419Y021311D01*
X045402Y021285D01*
X045389Y021257D01*
X045379Y021227D01*
X045372Y021197D01*
X045368Y021166D01*
X045368Y021134D01*
X045372Y021103D01*
X045379Y021073D01*
X045389Y021043D01*
X045402Y021015D01*
X045419Y020989D01*
X045438Y020964D01*
X045460Y020942D01*
X045461Y020942D01*
X045439Y020965D01*
X045420Y020989D01*
X045403Y021016D01*
X045390Y021044D01*
X045380Y021073D01*
X045373Y021104D01*
X045369Y021134D01*
X045369Y021166D01*
X045373Y021196D01*
X045380Y021227D01*
X045390Y021256D01*
X045403Y021284D01*
X045420Y021311D01*
X045439Y021335D01*
X045461Y021358D01*
X045461Y021357D01*
X045440Y021335D01*
X045420Y021310D01*
X045404Y021284D01*
X045391Y021256D01*
X045381Y021227D01*
X045374Y021196D01*
X045370Y021166D01*
X045370Y021134D01*
X045374Y021104D01*
X045381Y021073D01*
X045391Y021044D01*
X045404Y021016D01*
X045420Y020990D01*
X045440Y020965D01*
X045461Y020943D01*
X045462Y020944D01*
X045440Y020966D01*
X045421Y020990D01*
X045405Y021017D01*
X045392Y021044D01*
X045382Y021074D01*
X045375Y021104D01*
X045371Y021135D01*
X045371Y021165D01*
X045375Y021196D01*
X045382Y021226D01*
X045392Y021256D01*
X045405Y021283D01*
X045421Y021310D01*
X045440Y021334D01*
X045462Y021356D01*
X045463Y021355D01*
X045441Y021333D01*
X045422Y021309D01*
X045406Y021283D01*
X045393Y021255D01*
X045383Y021226D01*
X045376Y021196D01*
X045372Y021165D01*
X045372Y021135D01*
X045376Y021104D01*
X045383Y021074D01*
X045393Y021045D01*
X045406Y021017D01*
X045422Y020991D01*
X045441Y020967D01*
X045463Y020945D01*
X045442Y020967D01*
X045423Y020991D01*
X045407Y021018D01*
X045394Y021045D01*
X045384Y021074D01*
X045377Y021104D01*
X045373Y021135D01*
X045373Y021165D01*
X045377Y021196D01*
X045384Y021226D01*
X045394Y021255D01*
X045407Y021282D01*
X045423Y021309D01*
X045442Y021333D01*
X045463Y021355D01*
X045464Y021354D01*
X045443Y021332D01*
X045424Y021308D01*
X045408Y021282D01*
X045395Y021254D01*
X045385Y021225D01*
X045378Y021196D01*
X045374Y021165D01*
X045374Y021135D01*
X045378Y021104D01*
X045385Y021075D01*
X045395Y021046D01*
X045408Y021018D01*
X045424Y020992D01*
X045443Y020968D01*
X045464Y020946D01*
X045465Y020947D01*
X045443Y020969D01*
X045425Y020993D01*
X045408Y021018D01*
X045395Y021046D01*
X045385Y021075D01*
X045379Y021104D01*
X045375Y021135D01*
X045375Y021165D01*
X045379Y021196D01*
X045385Y021225D01*
X045395Y021254D01*
X045408Y021282D01*
X045425Y021307D01*
X045443Y021331D01*
X045465Y021353D01*
X045860Y020919D02*
X045834Y020948D01*
X045835Y020948D02*
X045856Y020969D01*
X045875Y020993D01*
X045891Y021019D01*
X045904Y021046D01*
X045914Y021075D01*
X045920Y021105D01*
X045924Y021135D01*
X045924Y021165D01*
X045920Y021195D01*
X045914Y021225D01*
X045904Y021254D01*
X045891Y021281D01*
X045875Y021307D01*
X045856Y021331D01*
X045835Y021352D01*
X045860Y021381D01*
X045861Y021381D01*
X045885Y021357D01*
X045907Y021329D01*
X045925Y021300D01*
X045940Y021268D01*
X045951Y021236D01*
X045959Y021202D01*
X045963Y021167D01*
X045963Y021133D01*
X045959Y021098D01*
X045951Y021064D01*
X045940Y021032D01*
X045925Y021000D01*
X045907Y020971D01*
X045885Y020943D01*
X045861Y020919D01*
X045860Y020919D01*
X045884Y020944D01*
X045906Y020971D01*
X045924Y021001D01*
X045939Y021032D01*
X045950Y021065D01*
X045958Y021098D01*
X045962Y021133D01*
X045962Y021167D01*
X045958Y021202D01*
X045950Y021235D01*
X045939Y021268D01*
X045924Y021299D01*
X045906Y021329D01*
X045884Y021356D01*
X045860Y021381D01*
X045860Y021380D01*
X045884Y021355D01*
X045905Y021328D01*
X045923Y021299D01*
X045938Y021268D01*
X045949Y021235D01*
X045957Y021201D01*
X045961Y021167D01*
X045961Y021133D01*
X045957Y021099D01*
X045949Y021065D01*
X045938Y021032D01*
X045923Y021001D01*
X045905Y020972D01*
X045884Y020945D01*
X045860Y020920D01*
X045859Y020921D01*
X045883Y020945D01*
X045904Y020972D01*
X045922Y021002D01*
X045937Y021033D01*
X045948Y021065D01*
X045956Y021099D01*
X045960Y021133D01*
X045960Y021167D01*
X045956Y021201D01*
X045948Y021235D01*
X045937Y021267D01*
X045922Y021298D01*
X045904Y021328D01*
X045883Y021355D01*
X045859Y021379D01*
X045858Y021378D01*
X045882Y021354D01*
X045903Y021327D01*
X045921Y021298D01*
X045936Y021267D01*
X045947Y021235D01*
X045955Y021201D01*
X045959Y021167D01*
X045959Y021133D01*
X045955Y021099D01*
X045947Y021065D01*
X045936Y021033D01*
X045921Y021002D01*
X045903Y020973D01*
X045882Y020946D01*
X045858Y020922D01*
X045881Y020947D01*
X045903Y020974D01*
X045920Y021003D01*
X045935Y021033D01*
X045946Y021066D01*
X045954Y021099D01*
X045958Y021133D01*
X045958Y021167D01*
X045954Y021201D01*
X045946Y021234D01*
X045935Y021267D01*
X045920Y021297D01*
X045903Y021326D01*
X045881Y021353D01*
X045858Y021378D01*
X045857Y021377D01*
X045881Y021353D01*
X045902Y021326D01*
X045920Y021297D01*
X045934Y021266D01*
X045945Y021234D01*
X045953Y021201D01*
X045957Y021167D01*
X045957Y021133D01*
X045953Y021099D01*
X045945Y021066D01*
X045934Y021034D01*
X045920Y021003D01*
X045902Y020974D01*
X045881Y020947D01*
X045857Y020923D01*
X045856Y020924D01*
X045880Y020948D01*
X045901Y020975D01*
X045919Y021004D01*
X045933Y021034D01*
X045944Y021066D01*
X045952Y021099D01*
X045956Y021133D01*
X045956Y021167D01*
X045952Y021201D01*
X045944Y021234D01*
X045933Y021266D01*
X045919Y021296D01*
X045901Y021325D01*
X045880Y021352D01*
X045856Y021376D01*
X045856Y021375D01*
X045879Y021351D01*
X045900Y021325D01*
X045918Y021296D01*
X045932Y021265D01*
X045943Y021233D01*
X045951Y021200D01*
X045955Y021167D01*
X045955Y021133D01*
X045951Y021100D01*
X045943Y021067D01*
X045932Y021035D01*
X045918Y021004D01*
X045900Y020975D01*
X045879Y020949D01*
X045856Y020925D01*
X045855Y020925D01*
X045878Y020949D01*
X045899Y020976D01*
X045917Y021005D01*
X045931Y021035D01*
X045942Y021067D01*
X045950Y021100D01*
X045954Y021133D01*
X045954Y021167D01*
X045950Y021200D01*
X045942Y021233D01*
X045931Y021265D01*
X045917Y021295D01*
X045899Y021324D01*
X045878Y021351D01*
X045855Y021375D01*
X045854Y021374D01*
X045878Y021350D01*
X045898Y021323D01*
X045916Y021295D01*
X045930Y021265D01*
X045941Y021233D01*
X045949Y021200D01*
X045953Y021167D01*
X045953Y021133D01*
X045949Y021100D01*
X045941Y021067D01*
X045930Y021035D01*
X045916Y021005D01*
X045898Y020977D01*
X045878Y020950D01*
X045854Y020926D01*
X045854Y020927D01*
X045877Y020951D01*
X045898Y020977D01*
X045915Y021006D01*
X045930Y021036D01*
X045940Y021067D01*
X045948Y021100D01*
X045952Y021133D01*
X045952Y021167D01*
X045948Y021200D01*
X045940Y021233D01*
X045930Y021264D01*
X045915Y021294D01*
X045898Y021323D01*
X045877Y021349D01*
X045854Y021373D01*
X045853Y021372D01*
X045876Y021349D01*
X045897Y021322D01*
X045914Y021294D01*
X045929Y021264D01*
X045940Y021232D01*
X045947Y021200D01*
X045951Y021167D01*
X045951Y021133D01*
X045947Y021100D01*
X045940Y021068D01*
X045929Y021036D01*
X045914Y021006D01*
X045897Y020978D01*
X045876Y020951D01*
X045853Y020928D01*
X045852Y020928D01*
X045875Y020952D01*
X045896Y020978D01*
X045913Y021006D01*
X045928Y021037D01*
X045939Y021068D01*
X045946Y021100D01*
X045950Y021133D01*
X045950Y021167D01*
X045946Y021200D01*
X045939Y021232D01*
X045928Y021263D01*
X045913Y021294D01*
X045896Y021322D01*
X045875Y021348D01*
X045852Y021372D01*
X045851Y021371D01*
X045875Y021347D01*
X045895Y021321D01*
X045913Y021293D01*
X045927Y021263D01*
X045938Y021232D01*
X045945Y021199D01*
X045949Y021167D01*
X045949Y021133D01*
X045945Y021101D01*
X045938Y021068D01*
X045927Y021037D01*
X045913Y021007D01*
X045895Y020979D01*
X045875Y020953D01*
X045851Y020929D01*
X045851Y020930D01*
X045874Y020953D01*
X045894Y020979D01*
X045912Y021007D01*
X045926Y021037D01*
X045937Y021068D01*
X045944Y021101D01*
X045948Y021133D01*
X045948Y021167D01*
X045944Y021199D01*
X045937Y021232D01*
X045926Y021263D01*
X045912Y021293D01*
X045894Y021321D01*
X045874Y021347D01*
X045851Y021370D01*
X045850Y021369D01*
X045873Y021346D01*
X045894Y021320D01*
X045911Y021292D01*
X045925Y021262D01*
X045936Y021231D01*
X045943Y021199D01*
X045947Y021166D01*
X045947Y021134D01*
X045943Y021101D01*
X045936Y021069D01*
X045925Y021038D01*
X045911Y021008D01*
X045894Y020980D01*
X045873Y020954D01*
X045850Y020931D01*
X045849Y020931D01*
X045872Y020955D01*
X045893Y020981D01*
X045910Y021008D01*
X045924Y021038D01*
X045935Y021069D01*
X045942Y021101D01*
X045946Y021134D01*
X045946Y021166D01*
X045942Y021199D01*
X045935Y021231D01*
X045924Y021262D01*
X045910Y021292D01*
X045893Y021319D01*
X045872Y021345D01*
X045849Y021369D01*
X045849Y021368D01*
X045872Y021345D01*
X045892Y021319D01*
X045909Y021291D01*
X045923Y021262D01*
X045934Y021231D01*
X045941Y021199D01*
X045945Y021166D01*
X045945Y021134D01*
X045941Y021101D01*
X045934Y021069D01*
X045923Y021038D01*
X045909Y021009D01*
X045892Y020981D01*
X045872Y020955D01*
X045849Y020932D01*
X045848Y020933D01*
X045871Y020956D01*
X045891Y020982D01*
X045908Y021009D01*
X045922Y021039D01*
X045933Y021070D01*
X045940Y021101D01*
X045944Y021134D01*
X045944Y021166D01*
X045940Y021199D01*
X045933Y021230D01*
X045922Y021261D01*
X045908Y021291D01*
X045891Y021318D01*
X045871Y021344D01*
X045848Y021367D01*
X045847Y021366D01*
X045870Y021343D01*
X045890Y021318D01*
X045907Y021290D01*
X045921Y021261D01*
X045932Y021230D01*
X045939Y021198D01*
X045943Y021166D01*
X045943Y021134D01*
X045939Y021102D01*
X045932Y021070D01*
X045921Y021039D01*
X045907Y021010D01*
X045890Y020982D01*
X045870Y020957D01*
X045847Y020934D01*
X045869Y020957D01*
X045889Y020983D01*
X045906Y021010D01*
X045920Y021040D01*
X045931Y021070D01*
X045938Y021102D01*
X045942Y021134D01*
X045942Y021166D01*
X045938Y021198D01*
X045931Y021230D01*
X045920Y021260D01*
X045906Y021290D01*
X045889Y021317D01*
X045869Y021343D01*
X045847Y021366D01*
X045846Y021365D01*
X045869Y021342D01*
X045889Y021317D01*
X045906Y021289D01*
X045919Y021260D01*
X045930Y021230D01*
X045937Y021198D01*
X045941Y021166D01*
X045941Y021134D01*
X045937Y021102D01*
X045930Y021070D01*
X045919Y021040D01*
X045906Y021011D01*
X045889Y020983D01*
X045869Y020958D01*
X045846Y020935D01*
X045845Y020936D01*
X045868Y020959D01*
X045888Y020984D01*
X045905Y021011D01*
X045918Y021040D01*
X045929Y021071D01*
X045936Y021102D01*
X045940Y021134D01*
X045940Y021166D01*
X045936Y021198D01*
X045929Y021229D01*
X045918Y021260D01*
X045905Y021289D01*
X045888Y021316D01*
X045868Y021341D01*
X045845Y021364D01*
X045867Y021341D01*
X045887Y021315D01*
X045904Y021288D01*
X045918Y021259D01*
X045928Y021229D01*
X045935Y021198D01*
X045939Y021166D01*
X045939Y021134D01*
X045935Y021102D01*
X045928Y021071D01*
X045918Y021041D01*
X045904Y021012D01*
X045887Y020985D01*
X045867Y020959D01*
X045845Y020936D01*
X045844Y020937D01*
X045866Y020960D01*
X045886Y020985D01*
X045903Y021012D01*
X045917Y021041D01*
X045927Y021071D01*
X045934Y021102D01*
X045938Y021134D01*
X045938Y021166D01*
X045934Y021198D01*
X045927Y021229D01*
X045917Y021259D01*
X045903Y021288D01*
X045886Y021315D01*
X045866Y021340D01*
X045844Y021363D01*
X045843Y021362D01*
X045866Y021339D01*
X045885Y021314D01*
X045902Y021287D01*
X045916Y021259D01*
X045926Y021229D01*
X045933Y021197D01*
X045937Y021166D01*
X045937Y021134D01*
X045933Y021103D01*
X045926Y021071D01*
X045916Y021041D01*
X045902Y021013D01*
X045885Y020986D01*
X045866Y020961D01*
X045843Y020938D01*
X045843Y020939D01*
X045865Y020961D01*
X045884Y020986D01*
X045901Y021013D01*
X045915Y021042D01*
X045925Y021072D01*
X045932Y021103D01*
X045936Y021134D01*
X045936Y021166D01*
X045932Y021197D01*
X045925Y021228D01*
X045915Y021258D01*
X045901Y021287D01*
X045884Y021314D01*
X045865Y021339D01*
X045843Y021361D01*
X045842Y021361D01*
X045864Y021338D01*
X045884Y021313D01*
X045900Y021286D01*
X045914Y021258D01*
X045924Y021228D01*
X045931Y021197D01*
X045935Y021166D01*
X045935Y021134D01*
X045931Y021103D01*
X045924Y021072D01*
X045914Y021042D01*
X045900Y021014D01*
X045884Y020987D01*
X045864Y020962D01*
X045842Y020939D01*
X045841Y020940D01*
X045863Y020963D01*
X045883Y020987D01*
X045899Y021014D01*
X045913Y021043D01*
X045923Y021072D01*
X045930Y021103D01*
X045934Y021134D01*
X045934Y021166D01*
X045930Y021197D01*
X045923Y021228D01*
X045913Y021257D01*
X045899Y021286D01*
X045883Y021313D01*
X045863Y021337D01*
X045841Y021360D01*
X045841Y021359D01*
X045863Y021337D01*
X045882Y021312D01*
X045899Y021285D01*
X045912Y021257D01*
X045922Y021227D01*
X045929Y021197D01*
X045933Y021166D01*
X045933Y021134D01*
X045929Y021103D01*
X045922Y021073D01*
X045912Y021043D01*
X045899Y021015D01*
X045882Y020988D01*
X045863Y020963D01*
X045841Y020941D01*
X045840Y020942D01*
X045862Y020964D01*
X045881Y020989D01*
X045898Y021015D01*
X045911Y021043D01*
X045921Y021073D01*
X045928Y021103D01*
X045932Y021134D01*
X045932Y021166D01*
X045928Y021197D01*
X045921Y021227D01*
X045911Y021257D01*
X045898Y021285D01*
X045881Y021311D01*
X045862Y021336D01*
X045840Y021358D01*
X045839Y021358D01*
X045861Y021335D01*
X045880Y021311D01*
X045897Y021284D01*
X045910Y021256D01*
X045920Y021227D01*
X045927Y021196D01*
X045931Y021166D01*
X045931Y021134D01*
X045927Y021104D01*
X045920Y021073D01*
X045910Y021044D01*
X045897Y021016D01*
X045880Y020989D01*
X045861Y020965D01*
X045839Y020942D01*
X045839Y020943D01*
X045860Y020965D01*
X045880Y020990D01*
X045896Y021016D01*
X045909Y021044D01*
X045919Y021073D01*
X045926Y021104D01*
X045930Y021134D01*
X045930Y021166D01*
X045926Y021196D01*
X045919Y021227D01*
X045909Y021256D01*
X045896Y021284D01*
X045880Y021310D01*
X045860Y021335D01*
X045839Y021357D01*
X045838Y021356D01*
X045860Y021334D01*
X045879Y021310D01*
X045895Y021283D01*
X045908Y021256D01*
X045918Y021226D01*
X045925Y021196D01*
X045929Y021165D01*
X045929Y021135D01*
X045925Y021104D01*
X045918Y021074D01*
X045908Y021044D01*
X045895Y021017D01*
X045879Y020990D01*
X045860Y020966D01*
X045838Y020944D01*
X045837Y020945D01*
X045859Y020967D01*
X045878Y020991D01*
X045894Y021017D01*
X045907Y021045D01*
X045917Y021074D01*
X045924Y021104D01*
X045928Y021135D01*
X045928Y021165D01*
X045924Y021196D01*
X045917Y021226D01*
X045907Y021255D01*
X045894Y021283D01*
X045878Y021309D01*
X045859Y021333D01*
X045837Y021355D01*
X045858Y021333D01*
X045877Y021309D01*
X045893Y021282D01*
X045906Y021255D01*
X045916Y021226D01*
X045923Y021196D01*
X045927Y021165D01*
X045927Y021135D01*
X045923Y021104D01*
X045916Y021074D01*
X045906Y021045D01*
X045893Y021018D01*
X045877Y020991D01*
X045858Y020967D01*
X045837Y020945D01*
X045836Y020946D01*
X045857Y020968D01*
X045876Y020992D01*
X045892Y021018D01*
X045905Y021046D01*
X045915Y021075D01*
X045922Y021104D01*
X045926Y021135D01*
X045926Y021165D01*
X045922Y021196D01*
X045915Y021225D01*
X045905Y021254D01*
X045892Y021282D01*
X045876Y021308D01*
X045857Y021332D01*
X045836Y021354D01*
X045835Y021353D01*
X045857Y021331D01*
X045875Y021307D01*
X045892Y021282D01*
X045905Y021254D01*
X045915Y021225D01*
X045921Y021196D01*
X045925Y021165D01*
X045925Y021135D01*
X045921Y021104D01*
X045915Y021075D01*
X045905Y021046D01*
X045892Y021018D01*
X045875Y020993D01*
X045857Y020969D01*
X045835Y020947D01*
X050440Y021381D02*
X050466Y021352D01*
X050465Y021352D02*
X050444Y021331D01*
X050425Y021307D01*
X050409Y021281D01*
X050396Y021254D01*
X050386Y021225D01*
X050380Y021195D01*
X050376Y021165D01*
X050376Y021135D01*
X050380Y021105D01*
X050386Y021075D01*
X050396Y021046D01*
X050409Y021019D01*
X050425Y020993D01*
X050444Y020969D01*
X050465Y020948D01*
X050440Y020919D01*
X050439Y020919D01*
X050415Y020943D01*
X050393Y020971D01*
X050375Y021000D01*
X050360Y021032D01*
X050349Y021064D01*
X050341Y021098D01*
X050337Y021133D01*
X050337Y021167D01*
X050341Y021202D01*
X050349Y021236D01*
X050360Y021268D01*
X050375Y021300D01*
X050393Y021329D01*
X050415Y021357D01*
X050439Y021381D01*
X050440Y021381D01*
X050416Y021356D01*
X050394Y021329D01*
X050376Y021299D01*
X050361Y021268D01*
X050350Y021235D01*
X050342Y021202D01*
X050338Y021167D01*
X050338Y021133D01*
X050342Y021098D01*
X050350Y021065D01*
X050361Y021032D01*
X050376Y021001D01*
X050394Y020971D01*
X050416Y020944D01*
X050440Y020919D01*
X050440Y020920D01*
X050416Y020945D01*
X050395Y020972D01*
X050377Y021001D01*
X050362Y021032D01*
X050351Y021065D01*
X050343Y021099D01*
X050339Y021133D01*
X050339Y021167D01*
X050343Y021201D01*
X050351Y021235D01*
X050362Y021268D01*
X050377Y021299D01*
X050395Y021328D01*
X050416Y021355D01*
X050440Y021380D01*
X050441Y021379D01*
X050417Y021355D01*
X050396Y021328D01*
X050378Y021298D01*
X050363Y021267D01*
X050352Y021235D01*
X050344Y021201D01*
X050340Y021167D01*
X050340Y021133D01*
X050344Y021099D01*
X050352Y021065D01*
X050363Y021033D01*
X050378Y021002D01*
X050396Y020972D01*
X050417Y020945D01*
X050441Y020921D01*
X050442Y020922D01*
X050418Y020946D01*
X050397Y020973D01*
X050379Y021002D01*
X050364Y021033D01*
X050353Y021065D01*
X050345Y021099D01*
X050341Y021133D01*
X050341Y021167D01*
X050345Y021201D01*
X050353Y021235D01*
X050364Y021267D01*
X050379Y021298D01*
X050397Y021327D01*
X050418Y021354D01*
X050442Y021378D01*
X050419Y021353D01*
X050397Y021326D01*
X050380Y021297D01*
X050365Y021267D01*
X050354Y021234D01*
X050346Y021201D01*
X050342Y021167D01*
X050342Y021133D01*
X050346Y021099D01*
X050354Y021066D01*
X050365Y021033D01*
X050380Y021003D01*
X050397Y020974D01*
X050419Y020947D01*
X050442Y020922D01*
X050443Y020923D01*
X050419Y020947D01*
X050398Y020974D01*
X050380Y021003D01*
X050366Y021034D01*
X050355Y021066D01*
X050347Y021099D01*
X050343Y021133D01*
X050343Y021167D01*
X050347Y021201D01*
X050355Y021234D01*
X050366Y021266D01*
X050380Y021297D01*
X050398Y021326D01*
X050419Y021353D01*
X050443Y021377D01*
X050444Y021376D01*
X050420Y021352D01*
X050399Y021325D01*
X050381Y021296D01*
X050367Y021266D01*
X050356Y021234D01*
X050348Y021201D01*
X050344Y021167D01*
X050344Y021133D01*
X050348Y021099D01*
X050356Y021066D01*
X050367Y021034D01*
X050381Y021004D01*
X050399Y020975D01*
X050420Y020948D01*
X050444Y020924D01*
X050444Y020925D01*
X050421Y020949D01*
X050400Y020975D01*
X050382Y021004D01*
X050368Y021035D01*
X050357Y021067D01*
X050349Y021100D01*
X050345Y021133D01*
X050345Y021167D01*
X050349Y021200D01*
X050357Y021233D01*
X050368Y021265D01*
X050382Y021296D01*
X050400Y021325D01*
X050421Y021351D01*
X050444Y021375D01*
X050445Y021375D01*
X050422Y021351D01*
X050401Y021324D01*
X050383Y021295D01*
X050369Y021265D01*
X050358Y021233D01*
X050350Y021200D01*
X050346Y021167D01*
X050346Y021133D01*
X050350Y021100D01*
X050358Y021067D01*
X050369Y021035D01*
X050383Y021005D01*
X050401Y020976D01*
X050422Y020949D01*
X050445Y020925D01*
X050446Y020926D01*
X050422Y020950D01*
X050402Y020977D01*
X050384Y021005D01*
X050370Y021035D01*
X050359Y021067D01*
X050351Y021100D01*
X050347Y021133D01*
X050347Y021167D01*
X050351Y021200D01*
X050359Y021233D01*
X050370Y021265D01*
X050384Y021295D01*
X050402Y021323D01*
X050422Y021350D01*
X050446Y021374D01*
X050446Y021373D01*
X050423Y021349D01*
X050402Y021323D01*
X050385Y021294D01*
X050370Y021264D01*
X050360Y021233D01*
X050352Y021200D01*
X050348Y021167D01*
X050348Y021133D01*
X050352Y021100D01*
X050360Y021067D01*
X050370Y021036D01*
X050385Y021006D01*
X050402Y020977D01*
X050423Y020951D01*
X050446Y020927D01*
X050447Y020928D01*
X050424Y020951D01*
X050403Y020978D01*
X050386Y021006D01*
X050371Y021036D01*
X050360Y021068D01*
X050353Y021100D01*
X050349Y021133D01*
X050349Y021167D01*
X050353Y021200D01*
X050360Y021232D01*
X050371Y021264D01*
X050386Y021294D01*
X050403Y021322D01*
X050424Y021349D01*
X050447Y021372D01*
X050448Y021372D01*
X050425Y021348D01*
X050404Y021322D01*
X050387Y021294D01*
X050372Y021263D01*
X050361Y021232D01*
X050354Y021200D01*
X050350Y021167D01*
X050350Y021133D01*
X050354Y021100D01*
X050361Y021068D01*
X050372Y021037D01*
X050387Y021006D01*
X050404Y020978D01*
X050425Y020952D01*
X050448Y020928D01*
X050449Y020929D01*
X050425Y020953D01*
X050405Y020979D01*
X050387Y021007D01*
X050373Y021037D01*
X050362Y021068D01*
X050355Y021101D01*
X050351Y021133D01*
X050351Y021167D01*
X050355Y021199D01*
X050362Y021232D01*
X050373Y021263D01*
X050387Y021293D01*
X050405Y021321D01*
X050425Y021347D01*
X050449Y021371D01*
X050449Y021370D01*
X050426Y021347D01*
X050406Y021321D01*
X050388Y021293D01*
X050374Y021263D01*
X050363Y021232D01*
X050356Y021199D01*
X050352Y021167D01*
X050352Y021133D01*
X050356Y021101D01*
X050363Y021068D01*
X050374Y021037D01*
X050388Y021007D01*
X050406Y020979D01*
X050426Y020953D01*
X050449Y020930D01*
X050450Y020931D01*
X050427Y020954D01*
X050406Y020980D01*
X050389Y021008D01*
X050375Y021038D01*
X050364Y021069D01*
X050357Y021101D01*
X050353Y021134D01*
X050353Y021166D01*
X050357Y021199D01*
X050364Y021231D01*
X050375Y021262D01*
X050389Y021292D01*
X050406Y021320D01*
X050427Y021346D01*
X050450Y021369D01*
X050451Y021369D01*
X050428Y021345D01*
X050407Y021319D01*
X050390Y021292D01*
X050376Y021262D01*
X050365Y021231D01*
X050358Y021199D01*
X050354Y021166D01*
X050354Y021134D01*
X050358Y021101D01*
X050365Y021069D01*
X050376Y021038D01*
X050390Y021008D01*
X050407Y020981D01*
X050428Y020955D01*
X050451Y020931D01*
X050451Y020932D01*
X050428Y020955D01*
X050408Y020981D01*
X050391Y021009D01*
X050377Y021038D01*
X050366Y021069D01*
X050359Y021101D01*
X050355Y021134D01*
X050355Y021166D01*
X050359Y021199D01*
X050366Y021231D01*
X050377Y021262D01*
X050391Y021291D01*
X050408Y021319D01*
X050428Y021345D01*
X050451Y021368D01*
X050452Y021367D01*
X050429Y021344D01*
X050409Y021318D01*
X050392Y021291D01*
X050378Y021261D01*
X050367Y021230D01*
X050360Y021199D01*
X050356Y021166D01*
X050356Y021134D01*
X050360Y021101D01*
X050367Y021070D01*
X050378Y021039D01*
X050392Y021009D01*
X050409Y020982D01*
X050429Y020956D01*
X050452Y020933D01*
X050453Y020934D01*
X050430Y020957D01*
X050410Y020982D01*
X050393Y021010D01*
X050379Y021039D01*
X050368Y021070D01*
X050361Y021102D01*
X050357Y021134D01*
X050357Y021166D01*
X050361Y021198D01*
X050368Y021230D01*
X050379Y021261D01*
X050393Y021290D01*
X050410Y021318D01*
X050430Y021343D01*
X050453Y021366D01*
X050431Y021343D01*
X050411Y021317D01*
X050394Y021290D01*
X050380Y021260D01*
X050369Y021230D01*
X050362Y021198D01*
X050358Y021166D01*
X050358Y021134D01*
X050362Y021102D01*
X050369Y021070D01*
X050380Y021040D01*
X050394Y021010D01*
X050411Y020983D01*
X050431Y020957D01*
X050453Y020934D01*
X050454Y020935D01*
X050431Y020958D01*
X050411Y020983D01*
X050394Y021011D01*
X050381Y021040D01*
X050370Y021070D01*
X050363Y021102D01*
X050359Y021134D01*
X050359Y021166D01*
X050363Y021198D01*
X050370Y021230D01*
X050381Y021260D01*
X050394Y021289D01*
X050411Y021317D01*
X050431Y021342D01*
X050454Y021365D01*
X050455Y021364D01*
X050432Y021341D01*
X050412Y021316D01*
X050395Y021289D01*
X050382Y021260D01*
X050371Y021229D01*
X050364Y021198D01*
X050360Y021166D01*
X050360Y021134D01*
X050364Y021102D01*
X050371Y021071D01*
X050382Y021040D01*
X050395Y021011D01*
X050412Y020984D01*
X050432Y020959D01*
X050455Y020936D01*
X050433Y020959D01*
X050413Y020985D01*
X050396Y021012D01*
X050382Y021041D01*
X050372Y021071D01*
X050365Y021102D01*
X050361Y021134D01*
X050361Y021166D01*
X050365Y021198D01*
X050372Y021229D01*
X050382Y021259D01*
X050396Y021288D01*
X050413Y021315D01*
X050433Y021341D01*
X050455Y021364D01*
X050456Y021363D01*
X050434Y021340D01*
X050414Y021315D01*
X050397Y021288D01*
X050383Y021259D01*
X050373Y021229D01*
X050366Y021198D01*
X050362Y021166D01*
X050362Y021134D01*
X050366Y021102D01*
X050373Y021071D01*
X050383Y021041D01*
X050397Y021012D01*
X050414Y020985D01*
X050434Y020960D01*
X050456Y020937D01*
X050457Y020938D01*
X050434Y020961D01*
X050415Y020986D01*
X050398Y021013D01*
X050384Y021041D01*
X050374Y021071D01*
X050367Y021103D01*
X050363Y021134D01*
X050363Y021166D01*
X050367Y021197D01*
X050374Y021229D01*
X050384Y021259D01*
X050398Y021287D01*
X050415Y021314D01*
X050434Y021339D01*
X050457Y021362D01*
X050457Y021361D01*
X050435Y021339D01*
X050416Y021314D01*
X050399Y021287D01*
X050385Y021258D01*
X050375Y021228D01*
X050368Y021197D01*
X050364Y021166D01*
X050364Y021134D01*
X050368Y021103D01*
X050375Y021072D01*
X050385Y021042D01*
X050399Y021013D01*
X050416Y020986D01*
X050435Y020961D01*
X050457Y020939D01*
X050458Y020939D01*
X050436Y020962D01*
X050416Y020987D01*
X050400Y021014D01*
X050386Y021042D01*
X050376Y021072D01*
X050369Y021103D01*
X050365Y021134D01*
X050365Y021166D01*
X050369Y021197D01*
X050376Y021228D01*
X050386Y021258D01*
X050400Y021286D01*
X050416Y021313D01*
X050436Y021338D01*
X050458Y021361D01*
X050459Y021360D01*
X050437Y021337D01*
X050417Y021313D01*
X050401Y021286D01*
X050387Y021257D01*
X050377Y021228D01*
X050370Y021197D01*
X050366Y021166D01*
X050366Y021134D01*
X050370Y021103D01*
X050377Y021072D01*
X050387Y021043D01*
X050401Y021014D01*
X050417Y020987D01*
X050437Y020963D01*
X050459Y020940D01*
X050459Y020941D01*
X050437Y020963D01*
X050418Y020988D01*
X050401Y021015D01*
X050388Y021043D01*
X050378Y021073D01*
X050371Y021103D01*
X050367Y021134D01*
X050367Y021166D01*
X050371Y021197D01*
X050378Y021227D01*
X050388Y021257D01*
X050401Y021285D01*
X050418Y021312D01*
X050437Y021337D01*
X050459Y021359D01*
X050460Y021358D01*
X050438Y021336D01*
X050419Y021311D01*
X050402Y021285D01*
X050389Y021257D01*
X050379Y021227D01*
X050372Y021197D01*
X050368Y021166D01*
X050368Y021134D01*
X050372Y021103D01*
X050379Y021073D01*
X050389Y021043D01*
X050402Y021015D01*
X050419Y020989D01*
X050438Y020964D01*
X050460Y020942D01*
X050461Y020942D01*
X050439Y020965D01*
X050420Y020989D01*
X050403Y021016D01*
X050390Y021044D01*
X050380Y021073D01*
X050373Y021104D01*
X050369Y021134D01*
X050369Y021166D01*
X050373Y021196D01*
X050380Y021227D01*
X050390Y021256D01*
X050403Y021284D01*
X050420Y021311D01*
X050439Y021335D01*
X050461Y021358D01*
X050461Y021357D01*
X050440Y021335D01*
X050420Y021310D01*
X050404Y021284D01*
X050391Y021256D01*
X050381Y021227D01*
X050374Y021196D01*
X050370Y021166D01*
X050370Y021134D01*
X050374Y021104D01*
X050381Y021073D01*
X050391Y021044D01*
X050404Y021016D01*
X050420Y020990D01*
X050440Y020965D01*
X050461Y020943D01*
X050462Y020944D01*
X050440Y020966D01*
X050421Y020990D01*
X050405Y021017D01*
X050392Y021044D01*
X050382Y021074D01*
X050375Y021104D01*
X050371Y021135D01*
X050371Y021165D01*
X050375Y021196D01*
X050382Y021226D01*
X050392Y021256D01*
X050405Y021283D01*
X050421Y021310D01*
X050440Y021334D01*
X050462Y021356D01*
X050463Y021355D01*
X050441Y021333D01*
X050422Y021309D01*
X050406Y021283D01*
X050393Y021255D01*
X050383Y021226D01*
X050376Y021196D01*
X050372Y021165D01*
X050372Y021135D01*
X050376Y021104D01*
X050383Y021074D01*
X050393Y021045D01*
X050406Y021017D01*
X050422Y020991D01*
X050441Y020967D01*
X050463Y020945D01*
X050442Y020967D01*
X050423Y020991D01*
X050407Y021018D01*
X050394Y021045D01*
X050384Y021074D01*
X050377Y021104D01*
X050373Y021135D01*
X050373Y021165D01*
X050377Y021196D01*
X050384Y021226D01*
X050394Y021255D01*
X050407Y021282D01*
X050423Y021309D01*
X050442Y021333D01*
X050463Y021355D01*
X050464Y021354D01*
X050443Y021332D01*
X050424Y021308D01*
X050408Y021282D01*
X050395Y021254D01*
X050385Y021225D01*
X050378Y021196D01*
X050374Y021165D01*
X050374Y021135D01*
X050378Y021104D01*
X050385Y021075D01*
X050395Y021046D01*
X050408Y021018D01*
X050424Y020992D01*
X050443Y020968D01*
X050464Y020946D01*
X050465Y020947D01*
X050443Y020969D01*
X050425Y020993D01*
X050408Y021018D01*
X050395Y021046D01*
X050385Y021075D01*
X050379Y021104D01*
X050375Y021135D01*
X050375Y021165D01*
X050379Y021196D01*
X050385Y021225D01*
X050395Y021254D01*
X050408Y021282D01*
X050425Y021307D01*
X050443Y021331D01*
X050465Y021353D01*
X050860Y020919D02*
X050834Y020948D01*
X050835Y020948D02*
X050856Y020969D01*
X050875Y020993D01*
X050891Y021019D01*
X050904Y021046D01*
X050914Y021075D01*
X050920Y021105D01*
X050924Y021135D01*
X050924Y021165D01*
X050920Y021195D01*
X050914Y021225D01*
X050904Y021254D01*
X050891Y021281D01*
X050875Y021307D01*
X050856Y021331D01*
X050835Y021352D01*
X050860Y021381D01*
X050861Y021381D01*
X050885Y021357D01*
X050907Y021329D01*
X050925Y021300D01*
X050940Y021268D01*
X050951Y021236D01*
X050959Y021202D01*
X050963Y021167D01*
X050963Y021133D01*
X050959Y021098D01*
X050951Y021064D01*
X050940Y021032D01*
X050925Y021000D01*
X050907Y020971D01*
X050885Y020943D01*
X050861Y020919D01*
X050860Y020919D01*
X050884Y020944D01*
X050906Y020971D01*
X050924Y021001D01*
X050939Y021032D01*
X050950Y021065D01*
X050958Y021098D01*
X050962Y021133D01*
X050962Y021167D01*
X050958Y021202D01*
X050950Y021235D01*
X050939Y021268D01*
X050924Y021299D01*
X050906Y021329D01*
X050884Y021356D01*
X050860Y021381D01*
X050860Y021380D01*
X050884Y021355D01*
X050905Y021328D01*
X050923Y021299D01*
X050938Y021268D01*
X050949Y021235D01*
X050957Y021201D01*
X050961Y021167D01*
X050961Y021133D01*
X050957Y021099D01*
X050949Y021065D01*
X050938Y021032D01*
X050923Y021001D01*
X050905Y020972D01*
X050884Y020945D01*
X050860Y020920D01*
X050859Y020921D01*
X050883Y020945D01*
X050904Y020972D01*
X050922Y021002D01*
X050937Y021033D01*
X050948Y021065D01*
X050956Y021099D01*
X050960Y021133D01*
X050960Y021167D01*
X050956Y021201D01*
X050948Y021235D01*
X050937Y021267D01*
X050922Y021298D01*
X050904Y021328D01*
X050883Y021355D01*
X050859Y021379D01*
X050858Y021378D01*
X050882Y021354D01*
X050903Y021327D01*
X050921Y021298D01*
X050936Y021267D01*
X050947Y021235D01*
X050955Y021201D01*
X050959Y021167D01*
X050959Y021133D01*
X050955Y021099D01*
X050947Y021065D01*
X050936Y021033D01*
X050921Y021002D01*
X050903Y020973D01*
X050882Y020946D01*
X050858Y020922D01*
X050881Y020947D01*
X050903Y020974D01*
X050920Y021003D01*
X050935Y021033D01*
X050946Y021066D01*
X050954Y021099D01*
X050958Y021133D01*
X050958Y021167D01*
X050954Y021201D01*
X050946Y021234D01*
X050935Y021267D01*
X050920Y021297D01*
X050903Y021326D01*
X050881Y021353D01*
X050858Y021378D01*
X050857Y021377D01*
X050881Y021353D01*
X050902Y021326D01*
X050920Y021297D01*
X050934Y021266D01*
X050945Y021234D01*
X050953Y021201D01*
X050957Y021167D01*
X050957Y021133D01*
X050953Y021099D01*
X050945Y021066D01*
X050934Y021034D01*
X050920Y021003D01*
X050902Y020974D01*
X050881Y020947D01*
X050857Y020923D01*
X050856Y020924D01*
X050880Y020948D01*
X050901Y020975D01*
X050919Y021004D01*
X050933Y021034D01*
X050944Y021066D01*
X050952Y021099D01*
X050956Y021133D01*
X050956Y021167D01*
X050952Y021201D01*
X050944Y021234D01*
X050933Y021266D01*
X050919Y021296D01*
X050901Y021325D01*
X050880Y021352D01*
X050856Y021376D01*
X050856Y021375D01*
X050879Y021351D01*
X050900Y021325D01*
X050918Y021296D01*
X050932Y021265D01*
X050943Y021233D01*
X050951Y021200D01*
X050955Y021167D01*
X050955Y021133D01*
X050951Y021100D01*
X050943Y021067D01*
X050932Y021035D01*
X050918Y021004D01*
X050900Y020975D01*
X050879Y020949D01*
X050856Y020925D01*
X050855Y020925D01*
X050878Y020949D01*
X050899Y020976D01*
X050917Y021005D01*
X050931Y021035D01*
X050942Y021067D01*
X050950Y021100D01*
X050954Y021133D01*
X050954Y021167D01*
X050950Y021200D01*
X050942Y021233D01*
X050931Y021265D01*
X050917Y021295D01*
X050899Y021324D01*
X050878Y021351D01*
X050855Y021375D01*
X050854Y021374D01*
X050878Y021350D01*
X050898Y021323D01*
X050916Y021295D01*
X050930Y021265D01*
X050941Y021233D01*
X050949Y021200D01*
X050953Y021167D01*
X050953Y021133D01*
X050949Y021100D01*
X050941Y021067D01*
X050930Y021035D01*
X050916Y021005D01*
X050898Y020977D01*
X050878Y020950D01*
X050854Y020926D01*
X050854Y020927D01*
X050877Y020951D01*
X050898Y020977D01*
X050915Y021006D01*
X050930Y021036D01*
X050940Y021067D01*
X050948Y021100D01*
X050952Y021133D01*
X050952Y021167D01*
X050948Y021200D01*
X050940Y021233D01*
X050930Y021264D01*
X050915Y021294D01*
X050898Y021323D01*
X050877Y021349D01*
X050854Y021373D01*
X050853Y021372D01*
X050876Y021349D01*
X050897Y021322D01*
X050914Y021294D01*
X050929Y021264D01*
X050940Y021232D01*
X050947Y021200D01*
X050951Y021167D01*
X050951Y021133D01*
X050947Y021100D01*
X050940Y021068D01*
X050929Y021036D01*
X050914Y021006D01*
X050897Y020978D01*
X050876Y020951D01*
X050853Y020928D01*
X050852Y020928D01*
X050875Y020952D01*
X050896Y020978D01*
X050913Y021006D01*
X050928Y021037D01*
X050939Y021068D01*
X050946Y021100D01*
X050950Y021133D01*
X050950Y021167D01*
X050946Y021200D01*
X050939Y021232D01*
X050928Y021263D01*
X050913Y021294D01*
X050896Y021322D01*
X050875Y021348D01*
X050852Y021372D01*
X050851Y021371D01*
X050875Y021347D01*
X050895Y021321D01*
X050913Y021293D01*
X050927Y021263D01*
X050938Y021232D01*
X050945Y021199D01*
X050949Y021167D01*
X050949Y021133D01*
X050945Y021101D01*
X050938Y021068D01*
X050927Y021037D01*
X050913Y021007D01*
X050895Y020979D01*
X050875Y020953D01*
X050851Y020929D01*
X050851Y020930D01*
X050874Y020953D01*
X050894Y020979D01*
X050912Y021007D01*
X050926Y021037D01*
X050937Y021068D01*
X050944Y021101D01*
X050948Y021133D01*
X050948Y021167D01*
X050944Y021199D01*
X050937Y021232D01*
X050926Y021263D01*
X050912Y021293D01*
X050894Y021321D01*
X050874Y021347D01*
X050851Y021370D01*
X050850Y021369D01*
X050873Y021346D01*
X050894Y021320D01*
X050911Y021292D01*
X050925Y021262D01*
X050936Y021231D01*
X050943Y021199D01*
X050947Y021166D01*
X050947Y021134D01*
X050943Y021101D01*
X050936Y021069D01*
X050925Y021038D01*
X050911Y021008D01*
X050894Y020980D01*
X050873Y020954D01*
X050850Y020931D01*
X050849Y020931D01*
X050872Y020955D01*
X050893Y020981D01*
X050910Y021008D01*
X050924Y021038D01*
X050935Y021069D01*
X050942Y021101D01*
X050946Y021134D01*
X050946Y021166D01*
X050942Y021199D01*
X050935Y021231D01*
X050924Y021262D01*
X050910Y021292D01*
X050893Y021319D01*
X050872Y021345D01*
X050849Y021369D01*
X050849Y021368D01*
X050872Y021345D01*
X050892Y021319D01*
X050909Y021291D01*
X050923Y021262D01*
X050934Y021231D01*
X050941Y021199D01*
X050945Y021166D01*
X050945Y021134D01*
X050941Y021101D01*
X050934Y021069D01*
X050923Y021038D01*
X050909Y021009D01*
X050892Y020981D01*
X050872Y020955D01*
X050849Y020932D01*
X050848Y020933D01*
X050871Y020956D01*
X050891Y020982D01*
X050908Y021009D01*
X050922Y021039D01*
X050933Y021070D01*
X050940Y021101D01*
X050944Y021134D01*
X050944Y021166D01*
X050940Y021199D01*
X050933Y021230D01*
X050922Y021261D01*
X050908Y021291D01*
X050891Y021318D01*
X050871Y021344D01*
X050848Y021367D01*
X050847Y021366D01*
X050870Y021343D01*
X050890Y021318D01*
X050907Y021290D01*
X050921Y021261D01*
X050932Y021230D01*
X050939Y021198D01*
X050943Y021166D01*
X050943Y021134D01*
X050939Y021102D01*
X050932Y021070D01*
X050921Y021039D01*
X050907Y021010D01*
X050890Y020982D01*
X050870Y020957D01*
X050847Y020934D01*
X050869Y020957D01*
X050889Y020983D01*
X050906Y021010D01*
X050920Y021040D01*
X050931Y021070D01*
X050938Y021102D01*
X050942Y021134D01*
X050942Y021166D01*
X050938Y021198D01*
X050931Y021230D01*
X050920Y021260D01*
X050906Y021290D01*
X050889Y021317D01*
X050869Y021343D01*
X050847Y021366D01*
X050846Y021365D01*
X050869Y021342D01*
X050889Y021317D01*
X050906Y021289D01*
X050919Y021260D01*
X050930Y021230D01*
X050937Y021198D01*
X050941Y021166D01*
X050941Y021134D01*
X050937Y021102D01*
X050930Y021070D01*
X050919Y021040D01*
X050906Y021011D01*
X050889Y020983D01*
X050869Y020958D01*
X050846Y020935D01*
X050845Y020936D01*
X050868Y020959D01*
X050888Y020984D01*
X050905Y021011D01*
X050918Y021040D01*
X050929Y021071D01*
X050936Y021102D01*
X050940Y021134D01*
X050940Y021166D01*
X050936Y021198D01*
X050929Y021229D01*
X050918Y021260D01*
X050905Y021289D01*
X050888Y021316D01*
X050868Y021341D01*
X050845Y021364D01*
X050867Y021341D01*
X050887Y021315D01*
X050904Y021288D01*
X050918Y021259D01*
X050928Y021229D01*
X050935Y021198D01*
X050939Y021166D01*
X050939Y021134D01*
X050935Y021102D01*
X050928Y021071D01*
X050918Y021041D01*
X050904Y021012D01*
X050887Y020985D01*
X050867Y020959D01*
X050845Y020936D01*
X050844Y020937D01*
X050866Y020960D01*
X050886Y020985D01*
X050903Y021012D01*
X050917Y021041D01*
X050927Y021071D01*
X050934Y021102D01*
X050938Y021134D01*
X050938Y021166D01*
X050934Y021198D01*
X050927Y021229D01*
X050917Y021259D01*
X050903Y021288D01*
X050886Y021315D01*
X050866Y021340D01*
X050844Y021363D01*
X050843Y021362D01*
X050866Y021339D01*
X050885Y021314D01*
X050902Y021287D01*
X050916Y021259D01*
X050926Y021229D01*
X050933Y021197D01*
X050937Y021166D01*
X050937Y021134D01*
X050933Y021103D01*
X050926Y021071D01*
X050916Y021041D01*
X050902Y021013D01*
X050885Y020986D01*
X050866Y020961D01*
X050843Y020938D01*
X050843Y020939D01*
X050865Y020961D01*
X050884Y020986D01*
X050901Y021013D01*
X050915Y021042D01*
X050925Y021072D01*
X050932Y021103D01*
X050936Y021134D01*
X050936Y021166D01*
X050932Y021197D01*
X050925Y021228D01*
X050915Y021258D01*
X050901Y021287D01*
X050884Y021314D01*
X050865Y021339D01*
X050843Y021361D01*
X050842Y021361D01*
X050864Y021338D01*
X050884Y021313D01*
X050900Y021286D01*
X050914Y021258D01*
X050924Y021228D01*
X050931Y021197D01*
X050935Y021166D01*
X050935Y021134D01*
X050931Y021103D01*
X050924Y021072D01*
X050914Y021042D01*
X050900Y021014D01*
X050884Y020987D01*
X050864Y020962D01*
X050842Y020939D01*
X050841Y020940D01*
X050863Y020963D01*
X050883Y020987D01*
X050899Y021014D01*
X050913Y021043D01*
X050923Y021072D01*
X050930Y021103D01*
X050934Y021134D01*
X050934Y021166D01*
X050930Y021197D01*
X050923Y021228D01*
X050913Y021257D01*
X050899Y021286D01*
X050883Y021313D01*
X050863Y021337D01*
X050841Y021360D01*
X050841Y021359D01*
X050863Y021337D01*
X050882Y021312D01*
X050899Y021285D01*
X050912Y021257D01*
X050922Y021227D01*
X050929Y021197D01*
X050933Y021166D01*
X050933Y021134D01*
X050929Y021103D01*
X050922Y021073D01*
X050912Y021043D01*
X050899Y021015D01*
X050882Y020988D01*
X050863Y020963D01*
X050841Y020941D01*
X050840Y020942D01*
X050862Y020964D01*
X050881Y020989D01*
X050898Y021015D01*
X050911Y021043D01*
X050921Y021073D01*
X050928Y021103D01*
X050932Y021134D01*
X050932Y021166D01*
X050928Y021197D01*
X050921Y021227D01*
X050911Y021257D01*
X050898Y021285D01*
X050881Y021311D01*
X050862Y021336D01*
X050840Y021358D01*
X050839Y021358D01*
X050861Y021335D01*
X050880Y021311D01*
X050897Y021284D01*
X050910Y021256D01*
X050920Y021227D01*
X050927Y021196D01*
X050931Y021166D01*
X050931Y021134D01*
X050927Y021104D01*
X050920Y021073D01*
X050910Y021044D01*
X050897Y021016D01*
X050880Y020989D01*
X050861Y020965D01*
X050839Y020942D01*
X050839Y020943D01*
X050860Y020965D01*
X050880Y020990D01*
X050896Y021016D01*
X050909Y021044D01*
X050919Y021073D01*
X050926Y021104D01*
X050930Y021134D01*
X050930Y021166D01*
X050926Y021196D01*
X050919Y021227D01*
X050909Y021256D01*
X050896Y021284D01*
X050880Y021310D01*
X050860Y021335D01*
X050839Y021357D01*
X050838Y021356D01*
X050860Y021334D01*
X050879Y021310D01*
X050895Y021283D01*
X050908Y021256D01*
X050918Y021226D01*
X050925Y021196D01*
X050929Y021165D01*
X050929Y021135D01*
X050925Y021104D01*
X050918Y021074D01*
X050908Y021044D01*
X050895Y021017D01*
X050879Y020990D01*
X050860Y020966D01*
X050838Y020944D01*
X050837Y020945D01*
X050859Y020967D01*
X050878Y020991D01*
X050894Y021017D01*
X050907Y021045D01*
X050917Y021074D01*
X050924Y021104D01*
X050928Y021135D01*
X050928Y021165D01*
X050924Y021196D01*
X050917Y021226D01*
X050907Y021255D01*
X050894Y021283D01*
X050878Y021309D01*
X050859Y021333D01*
X050837Y021355D01*
X050858Y021333D01*
X050877Y021309D01*
X050893Y021282D01*
X050906Y021255D01*
X050916Y021226D01*
X050923Y021196D01*
X050927Y021165D01*
X050927Y021135D01*
X050923Y021104D01*
X050916Y021074D01*
X050906Y021045D01*
X050893Y021018D01*
X050877Y020991D01*
X050858Y020967D01*
X050837Y020945D01*
X050836Y020946D01*
X050857Y020968D01*
X050876Y020992D01*
X050892Y021018D01*
X050905Y021046D01*
X050915Y021075D01*
X050922Y021104D01*
X050926Y021135D01*
X050926Y021165D01*
X050922Y021196D01*
X050915Y021225D01*
X050905Y021254D01*
X050892Y021282D01*
X050876Y021308D01*
X050857Y021332D01*
X050836Y021354D01*
X050835Y021353D01*
X050857Y021331D01*
X050875Y021307D01*
X050892Y021282D01*
X050905Y021254D01*
X050915Y021225D01*
X050921Y021196D01*
X050925Y021165D01*
X050925Y021135D01*
X050921Y021104D01*
X050915Y021075D01*
X050905Y021046D01*
X050892Y021018D01*
X050875Y020993D01*
X050857Y020969D01*
X050835Y020947D01*
X055440Y021381D02*
X055466Y021352D01*
X055465Y021352D02*
X055444Y021331D01*
X055425Y021307D01*
X055409Y021281D01*
X055396Y021254D01*
X055386Y021225D01*
X055380Y021195D01*
X055376Y021165D01*
X055376Y021135D01*
X055380Y021105D01*
X055386Y021075D01*
X055396Y021046D01*
X055409Y021019D01*
X055425Y020993D01*
X055444Y020969D01*
X055465Y020948D01*
X055440Y020919D01*
X055439Y020919D01*
X055415Y020943D01*
X055393Y020971D01*
X055375Y021000D01*
X055360Y021032D01*
X055349Y021064D01*
X055341Y021098D01*
X055337Y021133D01*
X055337Y021167D01*
X055341Y021202D01*
X055349Y021236D01*
X055360Y021268D01*
X055375Y021300D01*
X055393Y021329D01*
X055415Y021357D01*
X055439Y021381D01*
X055440Y021381D01*
X055416Y021356D01*
X055394Y021329D01*
X055376Y021299D01*
X055361Y021268D01*
X055350Y021235D01*
X055342Y021202D01*
X055338Y021167D01*
X055338Y021133D01*
X055342Y021098D01*
X055350Y021065D01*
X055361Y021032D01*
X055376Y021001D01*
X055394Y020971D01*
X055416Y020944D01*
X055440Y020919D01*
X055440Y020920D01*
X055416Y020945D01*
X055395Y020972D01*
X055377Y021001D01*
X055362Y021032D01*
X055351Y021065D01*
X055343Y021099D01*
X055339Y021133D01*
X055339Y021167D01*
X055343Y021201D01*
X055351Y021235D01*
X055362Y021268D01*
X055377Y021299D01*
X055395Y021328D01*
X055416Y021355D01*
X055440Y021380D01*
X055441Y021379D01*
X055417Y021355D01*
X055396Y021328D01*
X055378Y021298D01*
X055363Y021267D01*
X055352Y021235D01*
X055344Y021201D01*
X055340Y021167D01*
X055340Y021133D01*
X055344Y021099D01*
X055352Y021065D01*
X055363Y021033D01*
X055378Y021002D01*
X055396Y020972D01*
X055417Y020945D01*
X055441Y020921D01*
X055442Y020922D01*
X055418Y020946D01*
X055397Y020973D01*
X055379Y021002D01*
X055364Y021033D01*
X055353Y021065D01*
X055345Y021099D01*
X055341Y021133D01*
X055341Y021167D01*
X055345Y021201D01*
X055353Y021235D01*
X055364Y021267D01*
X055379Y021298D01*
X055397Y021327D01*
X055418Y021354D01*
X055442Y021378D01*
X055419Y021353D01*
X055397Y021326D01*
X055380Y021297D01*
X055365Y021267D01*
X055354Y021234D01*
X055346Y021201D01*
X055342Y021167D01*
X055342Y021133D01*
X055346Y021099D01*
X055354Y021066D01*
X055365Y021033D01*
X055380Y021003D01*
X055397Y020974D01*
X055419Y020947D01*
X055442Y020922D01*
X055443Y020923D01*
X055419Y020947D01*
X055398Y020974D01*
X055380Y021003D01*
X055366Y021034D01*
X055355Y021066D01*
X055347Y021099D01*
X055343Y021133D01*
X055343Y021167D01*
X055347Y021201D01*
X055355Y021234D01*
X055366Y021266D01*
X055380Y021297D01*
X055398Y021326D01*
X055419Y021353D01*
X055443Y021377D01*
X055444Y021376D01*
X055420Y021352D01*
X055399Y021325D01*
X055381Y021296D01*
X055367Y021266D01*
X055356Y021234D01*
X055348Y021201D01*
X055344Y021167D01*
X055344Y021133D01*
X055348Y021099D01*
X055356Y021066D01*
X055367Y021034D01*
X055381Y021004D01*
X055399Y020975D01*
X055420Y020948D01*
X055444Y020924D01*
X055444Y020925D01*
X055421Y020949D01*
X055400Y020975D01*
X055382Y021004D01*
X055368Y021035D01*
X055357Y021067D01*
X055349Y021100D01*
X055345Y021133D01*
X055345Y021167D01*
X055349Y021200D01*
X055357Y021233D01*
X055368Y021265D01*
X055382Y021296D01*
X055400Y021325D01*
X055421Y021351D01*
X055444Y021375D01*
X055445Y021375D01*
X055422Y021351D01*
X055401Y021324D01*
X055383Y021295D01*
X055369Y021265D01*
X055358Y021233D01*
X055350Y021200D01*
X055346Y021167D01*
X055346Y021133D01*
X055350Y021100D01*
X055358Y021067D01*
X055369Y021035D01*
X055383Y021005D01*
X055401Y020976D01*
X055422Y020949D01*
X055445Y020925D01*
X055446Y020926D01*
X055422Y020950D01*
X055402Y020977D01*
X055384Y021005D01*
X055370Y021035D01*
X055359Y021067D01*
X055351Y021100D01*
X055347Y021133D01*
X055347Y021167D01*
X055351Y021200D01*
X055359Y021233D01*
X055370Y021265D01*
X055384Y021295D01*
X055402Y021323D01*
X055422Y021350D01*
X055446Y021374D01*
X055446Y021373D01*
X055423Y021349D01*
X055402Y021323D01*
X055385Y021294D01*
X055370Y021264D01*
X055360Y021233D01*
X055352Y021200D01*
X055348Y021167D01*
X055348Y021133D01*
X055352Y021100D01*
X055360Y021067D01*
X055370Y021036D01*
X055385Y021006D01*
X055402Y020977D01*
X055423Y020951D01*
X055446Y020927D01*
X055447Y020928D01*
X055424Y020951D01*
X055403Y020978D01*
X055386Y021006D01*
X055371Y021036D01*
X055360Y021068D01*
X055353Y021100D01*
X055349Y021133D01*
X055349Y021167D01*
X055353Y021200D01*
X055360Y021232D01*
X055371Y021264D01*
X055386Y021294D01*
X055403Y021322D01*
X055424Y021349D01*
X055447Y021372D01*
X055448Y021372D01*
X055425Y021348D01*
X055404Y021322D01*
X055387Y021294D01*
X055372Y021263D01*
X055361Y021232D01*
X055354Y021200D01*
X055350Y021167D01*
X055350Y021133D01*
X055354Y021100D01*
X055361Y021068D01*
X055372Y021037D01*
X055387Y021006D01*
X055404Y020978D01*
X055425Y020952D01*
X055448Y020928D01*
X055449Y020929D01*
X055425Y020953D01*
X055405Y020979D01*
X055387Y021007D01*
X055373Y021037D01*
X055362Y021068D01*
X055355Y021101D01*
X055351Y021133D01*
X055351Y021167D01*
X055355Y021199D01*
X055362Y021232D01*
X055373Y021263D01*
X055387Y021293D01*
X055405Y021321D01*
X055425Y021347D01*
X055449Y021371D01*
X055449Y021370D01*
X055426Y021347D01*
X055406Y021321D01*
X055388Y021293D01*
X055374Y021263D01*
X055363Y021232D01*
X055356Y021199D01*
X055352Y021167D01*
X055352Y021133D01*
X055356Y021101D01*
X055363Y021068D01*
X055374Y021037D01*
X055388Y021007D01*
X055406Y020979D01*
X055426Y020953D01*
X055449Y020930D01*
X055450Y020931D01*
X055427Y020954D01*
X055406Y020980D01*
X055389Y021008D01*
X055375Y021038D01*
X055364Y021069D01*
X055357Y021101D01*
X055353Y021134D01*
X055353Y021166D01*
X055357Y021199D01*
X055364Y021231D01*
X055375Y021262D01*
X055389Y021292D01*
X055406Y021320D01*
X055427Y021346D01*
X055450Y021369D01*
X055451Y021369D01*
X055428Y021345D01*
X055407Y021319D01*
X055390Y021292D01*
X055376Y021262D01*
X055365Y021231D01*
X055358Y021199D01*
X055354Y021166D01*
X055354Y021134D01*
X055358Y021101D01*
X055365Y021069D01*
X055376Y021038D01*
X055390Y021008D01*
X055407Y020981D01*
X055428Y020955D01*
X055451Y020931D01*
X055451Y020932D01*
X055428Y020955D01*
X055408Y020981D01*
X055391Y021009D01*
X055377Y021038D01*
X055366Y021069D01*
X055359Y021101D01*
X055355Y021134D01*
X055355Y021166D01*
X055359Y021199D01*
X055366Y021231D01*
X055377Y021262D01*
X055391Y021291D01*
X055408Y021319D01*
X055428Y021345D01*
X055451Y021368D01*
X055452Y021367D01*
X055429Y021344D01*
X055409Y021318D01*
X055392Y021291D01*
X055378Y021261D01*
X055367Y021230D01*
X055360Y021199D01*
X055356Y021166D01*
X055356Y021134D01*
X055360Y021101D01*
X055367Y021070D01*
X055378Y021039D01*
X055392Y021009D01*
X055409Y020982D01*
X055429Y020956D01*
X055452Y020933D01*
X055453Y020934D01*
X055430Y020957D01*
X055410Y020982D01*
X055393Y021010D01*
X055379Y021039D01*
X055368Y021070D01*
X055361Y021102D01*
X055357Y021134D01*
X055357Y021166D01*
X055361Y021198D01*
X055368Y021230D01*
X055379Y021261D01*
X055393Y021290D01*
X055410Y021318D01*
X055430Y021343D01*
X055453Y021366D01*
X055431Y021343D01*
X055411Y021317D01*
X055394Y021290D01*
X055380Y021260D01*
X055369Y021230D01*
X055362Y021198D01*
X055358Y021166D01*
X055358Y021134D01*
X055362Y021102D01*
X055369Y021070D01*
X055380Y021040D01*
X055394Y021010D01*
X055411Y020983D01*
X055431Y020957D01*
X055453Y020934D01*
X055454Y020935D01*
X055431Y020958D01*
X055411Y020983D01*
X055394Y021011D01*
X055381Y021040D01*
X055370Y021070D01*
X055363Y021102D01*
X055359Y021134D01*
X055359Y021166D01*
X055363Y021198D01*
X055370Y021230D01*
X055381Y021260D01*
X055394Y021289D01*
X055411Y021317D01*
X055431Y021342D01*
X055454Y021365D01*
X055455Y021364D01*
X055432Y021341D01*
X055412Y021316D01*
X055395Y021289D01*
X055382Y021260D01*
X055371Y021229D01*
X055364Y021198D01*
X055360Y021166D01*
X055360Y021134D01*
X055364Y021102D01*
X055371Y021071D01*
X055382Y021040D01*
X055395Y021011D01*
X055412Y020984D01*
X055432Y020959D01*
X055455Y020936D01*
X055433Y020959D01*
X055413Y020985D01*
X055396Y021012D01*
X055382Y021041D01*
X055372Y021071D01*
X055365Y021102D01*
X055361Y021134D01*
X055361Y021166D01*
X055365Y021198D01*
X055372Y021229D01*
X055382Y021259D01*
X055396Y021288D01*
X055413Y021315D01*
X055433Y021341D01*
X055455Y021364D01*
X055456Y021363D01*
X055434Y021340D01*
X055414Y021315D01*
X055397Y021288D01*
X055383Y021259D01*
X055373Y021229D01*
X055366Y021198D01*
X055362Y021166D01*
X055362Y021134D01*
X055366Y021102D01*
X055373Y021071D01*
X055383Y021041D01*
X055397Y021012D01*
X055414Y020985D01*
X055434Y020960D01*
X055456Y020937D01*
X055457Y020938D01*
X055434Y020961D01*
X055415Y020986D01*
X055398Y021013D01*
X055384Y021041D01*
X055374Y021071D01*
X055367Y021103D01*
X055363Y021134D01*
X055363Y021166D01*
X055367Y021197D01*
X055374Y021229D01*
X055384Y021259D01*
X055398Y021287D01*
X055415Y021314D01*
X055434Y021339D01*
X055457Y021362D01*
X055457Y021361D01*
X055435Y021339D01*
X055416Y021314D01*
X055399Y021287D01*
X055385Y021258D01*
X055375Y021228D01*
X055368Y021197D01*
X055364Y021166D01*
X055364Y021134D01*
X055368Y021103D01*
X055375Y021072D01*
X055385Y021042D01*
X055399Y021013D01*
X055416Y020986D01*
X055435Y020961D01*
X055457Y020939D01*
X055458Y020939D01*
X055436Y020962D01*
X055416Y020987D01*
X055400Y021014D01*
X055386Y021042D01*
X055376Y021072D01*
X055369Y021103D01*
X055365Y021134D01*
X055365Y021166D01*
X055369Y021197D01*
X055376Y021228D01*
X055386Y021258D01*
X055400Y021286D01*
X055416Y021313D01*
X055436Y021338D01*
X055458Y021361D01*
X055459Y021360D01*
X055437Y021337D01*
X055417Y021313D01*
X055401Y021286D01*
X055387Y021257D01*
X055377Y021228D01*
X055370Y021197D01*
X055366Y021166D01*
X055366Y021134D01*
X055370Y021103D01*
X055377Y021072D01*
X055387Y021043D01*
X055401Y021014D01*
X055417Y020987D01*
X055437Y020963D01*
X055459Y020940D01*
X055459Y020941D01*
X055437Y020963D01*
X055418Y020988D01*
X055401Y021015D01*
X055388Y021043D01*
X055378Y021073D01*
X055371Y021103D01*
X055367Y021134D01*
X055367Y021166D01*
X055371Y021197D01*
X055378Y021227D01*
X055388Y021257D01*
X055401Y021285D01*
X055418Y021312D01*
X055437Y021337D01*
X055459Y021359D01*
X055460Y021358D01*
X055438Y021336D01*
X055419Y021311D01*
X055402Y021285D01*
X055389Y021257D01*
X055379Y021227D01*
X055372Y021197D01*
X055368Y021166D01*
X055368Y021134D01*
X055372Y021103D01*
X055379Y021073D01*
X055389Y021043D01*
X055402Y021015D01*
X055419Y020989D01*
X055438Y020964D01*
X055460Y020942D01*
X055461Y020942D01*
X055439Y020965D01*
X055420Y020989D01*
X055403Y021016D01*
X055390Y021044D01*
X055380Y021073D01*
X055373Y021104D01*
X055369Y021134D01*
X055369Y021166D01*
X055373Y021196D01*
X055380Y021227D01*
X055390Y021256D01*
X055403Y021284D01*
X055420Y021311D01*
X055439Y021335D01*
X055461Y021358D01*
X055461Y021357D01*
X055440Y021335D01*
X055420Y021310D01*
X055404Y021284D01*
X055391Y021256D01*
X055381Y021227D01*
X055374Y021196D01*
X055370Y021166D01*
X055370Y021134D01*
X055374Y021104D01*
X055381Y021073D01*
X055391Y021044D01*
X055404Y021016D01*
X055420Y020990D01*
X055440Y020965D01*
X055461Y020943D01*
X055462Y020944D01*
X055440Y020966D01*
X055421Y020990D01*
X055405Y021017D01*
X055392Y021044D01*
X055382Y021074D01*
X055375Y021104D01*
X055371Y021135D01*
X055371Y021165D01*
X055375Y021196D01*
X055382Y021226D01*
X055392Y021256D01*
X055405Y021283D01*
X055421Y021310D01*
X055440Y021334D01*
X055462Y021356D01*
X055463Y021355D01*
X055441Y021333D01*
X055422Y021309D01*
X055406Y021283D01*
X055393Y021255D01*
X055383Y021226D01*
X055376Y021196D01*
X055372Y021165D01*
X055372Y021135D01*
X055376Y021104D01*
X055383Y021074D01*
X055393Y021045D01*
X055406Y021017D01*
X055422Y020991D01*
X055441Y020967D01*
X055463Y020945D01*
X055442Y020967D01*
X055423Y020991D01*
X055407Y021018D01*
X055394Y021045D01*
X055384Y021074D01*
X055377Y021104D01*
X055373Y021135D01*
X055373Y021165D01*
X055377Y021196D01*
X055384Y021226D01*
X055394Y021255D01*
X055407Y021282D01*
X055423Y021309D01*
X055442Y021333D01*
X055463Y021355D01*
X055464Y021354D01*
X055443Y021332D01*
X055424Y021308D01*
X055408Y021282D01*
X055395Y021254D01*
X055385Y021225D01*
X055378Y021196D01*
X055374Y021165D01*
X055374Y021135D01*
X055378Y021104D01*
X055385Y021075D01*
X055395Y021046D01*
X055408Y021018D01*
X055424Y020992D01*
X055443Y020968D01*
X055464Y020946D01*
X055465Y020947D01*
X055443Y020969D01*
X055425Y020993D01*
X055408Y021018D01*
X055395Y021046D01*
X055385Y021075D01*
X055379Y021104D01*
X055375Y021135D01*
X055375Y021165D01*
X055379Y021196D01*
X055385Y021225D01*
X055395Y021254D01*
X055408Y021282D01*
X055425Y021307D01*
X055443Y021331D01*
X055465Y021353D01*
X055860Y020919D02*
X055834Y020948D01*
X055835Y020948D02*
X055856Y020969D01*
X055875Y020993D01*
X055891Y021019D01*
X055904Y021046D01*
X055914Y021075D01*
X055920Y021105D01*
X055924Y021135D01*
X055924Y021165D01*
X055920Y021195D01*
X055914Y021225D01*
X055904Y021254D01*
X055891Y021281D01*
X055875Y021307D01*
X055856Y021331D01*
X055835Y021352D01*
X055860Y021381D01*
X055861Y021381D01*
X055885Y021357D01*
X055907Y021329D01*
X055925Y021300D01*
X055940Y021268D01*
X055951Y021236D01*
X055959Y021202D01*
X055963Y021167D01*
X055963Y021133D01*
X055959Y021098D01*
X055951Y021064D01*
X055940Y021032D01*
X055925Y021000D01*
X055907Y020971D01*
X055885Y020943D01*
X055861Y020919D01*
X055860Y020919D01*
X055884Y020944D01*
X055906Y020971D01*
X055924Y021001D01*
X055939Y021032D01*
X055950Y021065D01*
X055958Y021098D01*
X055962Y021133D01*
X055962Y021167D01*
X055958Y021202D01*
X055950Y021235D01*
X055939Y021268D01*
X055924Y021299D01*
X055906Y021329D01*
X055884Y021356D01*
X055860Y021381D01*
X055860Y021380D01*
X055884Y021355D01*
X055905Y021328D01*
X055923Y021299D01*
X055938Y021268D01*
X055949Y021235D01*
X055957Y021201D01*
X055961Y021167D01*
X055961Y021133D01*
X055957Y021099D01*
X055949Y021065D01*
X055938Y021032D01*
X055923Y021001D01*
X055905Y020972D01*
X055884Y020945D01*
X055860Y020920D01*
X055859Y020921D01*
X055883Y020945D01*
X055904Y020972D01*
X055922Y021002D01*
X055937Y021033D01*
X055948Y021065D01*
X055956Y021099D01*
X055960Y021133D01*
X055960Y021167D01*
X055956Y021201D01*
X055948Y021235D01*
X055937Y021267D01*
X055922Y021298D01*
X055904Y021328D01*
X055883Y021355D01*
X055859Y021379D01*
X055858Y021378D01*
X055882Y021354D01*
X055903Y021327D01*
X055921Y021298D01*
X055936Y021267D01*
X055947Y021235D01*
X055955Y021201D01*
X055959Y021167D01*
X055959Y021133D01*
X055955Y021099D01*
X055947Y021065D01*
X055936Y021033D01*
X055921Y021002D01*
X055903Y020973D01*
X055882Y020946D01*
X055858Y020922D01*
X055881Y020947D01*
X055903Y020974D01*
X055920Y021003D01*
X055935Y021033D01*
X055946Y021066D01*
X055954Y021099D01*
X055958Y021133D01*
X055958Y021167D01*
X055954Y021201D01*
X055946Y021234D01*
X055935Y021267D01*
X055920Y021297D01*
X055903Y021326D01*
X055881Y021353D01*
X055858Y021378D01*
X055857Y021377D01*
X055881Y021353D01*
X055902Y021326D01*
X055920Y021297D01*
X055934Y021266D01*
X055945Y021234D01*
X055953Y021201D01*
X055957Y021167D01*
X055957Y021133D01*
X055953Y021099D01*
X055945Y021066D01*
X055934Y021034D01*
X055920Y021003D01*
X055902Y020974D01*
X055881Y020947D01*
X055857Y020923D01*
X055856Y020924D01*
X055880Y020948D01*
X055901Y020975D01*
X055919Y021004D01*
X055933Y021034D01*
X055944Y021066D01*
X055952Y021099D01*
X055956Y021133D01*
X055956Y021167D01*
X055952Y021201D01*
X055944Y021234D01*
X055933Y021266D01*
X055919Y021296D01*
X055901Y021325D01*
X055880Y021352D01*
X055856Y021376D01*
X055856Y021375D01*
X055879Y021351D01*
X055900Y021325D01*
X055918Y021296D01*
X055932Y021265D01*
X055943Y021233D01*
X055951Y021200D01*
X055955Y021167D01*
X055955Y021133D01*
X055951Y021100D01*
X055943Y021067D01*
X055932Y021035D01*
X055918Y021004D01*
X055900Y020975D01*
X055879Y020949D01*
X055856Y020925D01*
X055855Y020925D01*
X055878Y020949D01*
X055899Y020976D01*
X055917Y021005D01*
X055931Y021035D01*
X055942Y021067D01*
X055950Y021100D01*
X055954Y021133D01*
X055954Y021167D01*
X055950Y021200D01*
X055942Y021233D01*
X055931Y021265D01*
X055917Y021295D01*
X055899Y021324D01*
X055878Y021351D01*
X055855Y021375D01*
X055854Y021374D01*
X055878Y021350D01*
X055898Y021323D01*
X055916Y021295D01*
X055930Y021265D01*
X055941Y021233D01*
X055949Y021200D01*
X055953Y021167D01*
X055953Y021133D01*
X055949Y021100D01*
X055941Y021067D01*
X055930Y021035D01*
X055916Y021005D01*
X055898Y020977D01*
X055878Y020950D01*
X055854Y020926D01*
X055854Y020927D01*
X055877Y020951D01*
X055898Y020977D01*
X055915Y021006D01*
X055930Y021036D01*
X055940Y021067D01*
X055948Y021100D01*
X055952Y021133D01*
X055952Y021167D01*
X055948Y021200D01*
X055940Y021233D01*
X055930Y021264D01*
X055915Y021294D01*
X055898Y021323D01*
X055877Y021349D01*
X055854Y021373D01*
X055853Y021372D01*
X055876Y021349D01*
X055897Y021322D01*
X055914Y021294D01*
X055929Y021264D01*
X055940Y021232D01*
X055947Y021200D01*
X055951Y021167D01*
X055951Y021133D01*
X055947Y021100D01*
X055940Y021068D01*
X055929Y021036D01*
X055914Y021006D01*
X055897Y020978D01*
X055876Y020951D01*
X055853Y020928D01*
X055852Y020928D01*
X055875Y020952D01*
X055896Y020978D01*
X055913Y021006D01*
X055928Y021037D01*
X055939Y021068D01*
X055946Y021100D01*
X055950Y021133D01*
X055950Y021167D01*
X055946Y021200D01*
X055939Y021232D01*
X055928Y021263D01*
X055913Y021294D01*
X055896Y021322D01*
X055875Y021348D01*
X055852Y021372D01*
X055851Y021371D01*
X055875Y021347D01*
X055895Y021321D01*
X055913Y021293D01*
X055927Y021263D01*
X055938Y021232D01*
X055945Y021199D01*
X055949Y021167D01*
X055949Y021133D01*
X055945Y021101D01*
X055938Y021068D01*
X055927Y021037D01*
X055913Y021007D01*
X055895Y020979D01*
X055875Y020953D01*
X055851Y020929D01*
X055851Y020930D01*
X055874Y020953D01*
X055894Y020979D01*
X055912Y021007D01*
X055926Y021037D01*
X055937Y021068D01*
X055944Y021101D01*
X055948Y021133D01*
X055948Y021167D01*
X055944Y021199D01*
X055937Y021232D01*
X055926Y021263D01*
X055912Y021293D01*
X055894Y021321D01*
X055874Y021347D01*
X055851Y021370D01*
X055850Y021369D01*
X055873Y021346D01*
X055894Y021320D01*
X055911Y021292D01*
X055925Y021262D01*
X055936Y021231D01*
X055943Y021199D01*
X055947Y021166D01*
X055947Y021134D01*
X055943Y021101D01*
X055936Y021069D01*
X055925Y021038D01*
X055911Y021008D01*
X055894Y020980D01*
X055873Y020954D01*
X055850Y020931D01*
X055849Y020931D01*
X055872Y020955D01*
X055893Y020981D01*
X055910Y021008D01*
X055924Y021038D01*
X055935Y021069D01*
X055942Y021101D01*
X055946Y021134D01*
X055946Y021166D01*
X055942Y021199D01*
X055935Y021231D01*
X055924Y021262D01*
X055910Y021292D01*
X055893Y021319D01*
X055872Y021345D01*
X055849Y021369D01*
X055849Y021368D01*
X055872Y021345D01*
X055892Y021319D01*
X055909Y021291D01*
X055923Y021262D01*
X055934Y021231D01*
X055941Y021199D01*
X055945Y021166D01*
X055945Y021134D01*
X055941Y021101D01*
X055934Y021069D01*
X055923Y021038D01*
X055909Y021009D01*
X055892Y020981D01*
X055872Y020955D01*
X055849Y020932D01*
X055848Y020933D01*
X055871Y020956D01*
X055891Y020982D01*
X055908Y021009D01*
X055922Y021039D01*
X055933Y021070D01*
X055940Y021101D01*
X055944Y021134D01*
X055944Y021166D01*
X055940Y021199D01*
X055933Y021230D01*
X055922Y021261D01*
X055908Y021291D01*
X055891Y021318D01*
X055871Y021344D01*
X055848Y021367D01*
X055847Y021366D01*
X055870Y021343D01*
X055890Y021318D01*
X055907Y021290D01*
X055921Y021261D01*
X055932Y021230D01*
X055939Y021198D01*
X055943Y021166D01*
X055943Y021134D01*
X055939Y021102D01*
X055932Y021070D01*
X055921Y021039D01*
X055907Y021010D01*
X055890Y020982D01*
X055870Y020957D01*
X055847Y020934D01*
X055869Y020957D01*
X055889Y020983D01*
X055906Y021010D01*
X055920Y021040D01*
X055931Y021070D01*
X055938Y021102D01*
X055942Y021134D01*
X055942Y021166D01*
X055938Y021198D01*
X055931Y021230D01*
X055920Y021260D01*
X055906Y021290D01*
X055889Y021317D01*
X055869Y021343D01*
X055847Y021366D01*
X055846Y021365D01*
X055869Y021342D01*
X055889Y021317D01*
X055906Y021289D01*
X055919Y021260D01*
X055930Y021230D01*
X055937Y021198D01*
X055941Y021166D01*
X055941Y021134D01*
X055937Y021102D01*
X055930Y021070D01*
X055919Y021040D01*
X055906Y021011D01*
X055889Y020983D01*
X055869Y020958D01*
X055846Y020935D01*
X055845Y020936D01*
X055868Y020959D01*
X055888Y020984D01*
X055905Y021011D01*
X055918Y021040D01*
X055929Y021071D01*
X055936Y021102D01*
X055940Y021134D01*
X055940Y021166D01*
X055936Y021198D01*
X055929Y021229D01*
X055918Y021260D01*
X055905Y021289D01*
X055888Y021316D01*
X055868Y021341D01*
X055845Y021364D01*
X055867Y021341D01*
X055887Y021315D01*
X055904Y021288D01*
X055918Y021259D01*
X055928Y021229D01*
X055935Y021198D01*
X055939Y021166D01*
X055939Y021134D01*
X055935Y021102D01*
X055928Y021071D01*
X055918Y021041D01*
X055904Y021012D01*
X055887Y020985D01*
X055867Y020959D01*
X055845Y020936D01*
X055844Y020937D01*
X055866Y020960D01*
X055886Y020985D01*
X055903Y021012D01*
X055917Y021041D01*
X055927Y021071D01*
X055934Y021102D01*
X055938Y021134D01*
X055938Y021166D01*
X055934Y021198D01*
X055927Y021229D01*
X055917Y021259D01*
X055903Y021288D01*
X055886Y021315D01*
X055866Y021340D01*
X055844Y021363D01*
X055843Y021362D01*
X055866Y021339D01*
X055885Y021314D01*
X055902Y021287D01*
X055916Y021259D01*
X055926Y021229D01*
X055933Y021197D01*
X055937Y021166D01*
X055937Y021134D01*
X055933Y021103D01*
X055926Y021071D01*
X055916Y021041D01*
X055902Y021013D01*
X055885Y020986D01*
X055866Y020961D01*
X055843Y020938D01*
X055843Y020939D01*
X055865Y020961D01*
X055884Y020986D01*
X055901Y021013D01*
X055915Y021042D01*
X055925Y021072D01*
X055932Y021103D01*
X055936Y021134D01*
X055936Y021166D01*
X055932Y021197D01*
X055925Y021228D01*
X055915Y021258D01*
X055901Y021287D01*
X055884Y021314D01*
X055865Y021339D01*
X055843Y021361D01*
X055842Y021361D01*
X055864Y021338D01*
X055884Y021313D01*
X055900Y021286D01*
X055914Y021258D01*
X055924Y021228D01*
X055931Y021197D01*
X055935Y021166D01*
X055935Y021134D01*
X055931Y021103D01*
X055924Y021072D01*
X055914Y021042D01*
X055900Y021014D01*
X055884Y020987D01*
X055864Y020962D01*
X055842Y020939D01*
X055841Y020940D01*
X055863Y020963D01*
X055883Y020987D01*
X055899Y021014D01*
X055913Y021043D01*
X055923Y021072D01*
X055930Y021103D01*
X055934Y021134D01*
X055934Y021166D01*
X055930Y021197D01*
X055923Y021228D01*
X055913Y021257D01*
X055899Y021286D01*
X055883Y021313D01*
X055863Y021337D01*
X055841Y021360D01*
X055841Y021359D01*
X055863Y021337D01*
X055882Y021312D01*
X055899Y021285D01*
X055912Y021257D01*
X055922Y021227D01*
X055929Y021197D01*
X055933Y021166D01*
X055933Y021134D01*
X055929Y021103D01*
X055922Y021073D01*
X055912Y021043D01*
X055899Y021015D01*
X055882Y020988D01*
X055863Y020963D01*
X055841Y020941D01*
X055840Y020942D01*
X055862Y020964D01*
X055881Y020989D01*
X055898Y021015D01*
X055911Y021043D01*
X055921Y021073D01*
X055928Y021103D01*
X055932Y021134D01*
X055932Y021166D01*
X055928Y021197D01*
X055921Y021227D01*
X055911Y021257D01*
X055898Y021285D01*
X055881Y021311D01*
X055862Y021336D01*
X055840Y021358D01*
X055839Y021358D01*
X055861Y021335D01*
X055880Y021311D01*
X055897Y021284D01*
X055910Y021256D01*
X055920Y021227D01*
X055927Y021196D01*
X055931Y021166D01*
X055931Y021134D01*
X055927Y021104D01*
X055920Y021073D01*
X055910Y021044D01*
X055897Y021016D01*
X055880Y020989D01*
X055861Y020965D01*
X055839Y020942D01*
X055839Y020943D01*
X055860Y020965D01*
X055880Y020990D01*
X055896Y021016D01*
X055909Y021044D01*
X055919Y021073D01*
X055926Y021104D01*
X055930Y021134D01*
X055930Y021166D01*
X055926Y021196D01*
X055919Y021227D01*
X055909Y021256D01*
X055896Y021284D01*
X055880Y021310D01*
X055860Y021335D01*
X055839Y021357D01*
X055838Y021356D01*
X055860Y021334D01*
X055879Y021310D01*
X055895Y021283D01*
X055908Y021256D01*
X055918Y021226D01*
X055925Y021196D01*
X055929Y021165D01*
X055929Y021135D01*
X055925Y021104D01*
X055918Y021074D01*
X055908Y021044D01*
X055895Y021017D01*
X055879Y020990D01*
X055860Y020966D01*
X055838Y020944D01*
X055837Y020945D01*
X055859Y020967D01*
X055878Y020991D01*
X055894Y021017D01*
X055907Y021045D01*
X055917Y021074D01*
X055924Y021104D01*
X055928Y021135D01*
X055928Y021165D01*
X055924Y021196D01*
X055917Y021226D01*
X055907Y021255D01*
X055894Y021283D01*
X055878Y021309D01*
X055859Y021333D01*
X055837Y021355D01*
X055858Y021333D01*
X055877Y021309D01*
X055893Y021282D01*
X055906Y021255D01*
X055916Y021226D01*
X055923Y021196D01*
X055927Y021165D01*
X055927Y021135D01*
X055923Y021104D01*
X055916Y021074D01*
X055906Y021045D01*
X055893Y021018D01*
X055877Y020991D01*
X055858Y020967D01*
X055837Y020945D01*
X055836Y020946D01*
X055857Y020968D01*
X055876Y020992D01*
X055892Y021018D01*
X055905Y021046D01*
X055915Y021075D01*
X055922Y021104D01*
X055926Y021135D01*
X055926Y021165D01*
X055922Y021196D01*
X055915Y021225D01*
X055905Y021254D01*
X055892Y021282D01*
X055876Y021308D01*
X055857Y021332D01*
X055836Y021354D01*
X055835Y021353D01*
X055857Y021331D01*
X055875Y021307D01*
X055892Y021282D01*
X055905Y021254D01*
X055915Y021225D01*
X055921Y021196D01*
X055925Y021165D01*
X055925Y021135D01*
X055921Y021104D01*
X055915Y021075D01*
X055905Y021046D01*
X055892Y021018D01*
X055875Y020993D01*
X055857Y020969D01*
X055835Y020947D01*
D23*
X055650Y021150D03*
X050650Y021150D03*
X045650Y021150D03*
D24*
X045876Y021357D03*
X050876Y021357D03*
X055876Y021357D03*
D25*
X055150Y020400D02*
X055150Y018650D01*
X052150Y018650D01*
X052150Y020400D01*
X055150Y020400D01*
X055150Y018650D02*
X055150Y017900D01*
X052150Y017900D01*
X052150Y018650D01*
X050150Y018650D02*
X050150Y017900D01*
X047150Y017900D01*
X047150Y018650D01*
X050150Y018650D01*
X050150Y020400D01*
X047150Y020400D01*
X047150Y018650D01*
X045150Y018650D02*
X045150Y017900D01*
X042150Y017900D01*
X042150Y018650D01*
X045150Y018650D01*
X045150Y020400D01*
X042150Y020400D01*
X042150Y018650D01*
X036701Y018329D02*
X036701Y019471D01*
X033599Y019471D01*
X033599Y018329D01*
X036701Y018329D01*
X033201Y018329D02*
X033201Y019471D01*
X030099Y019471D01*
X030099Y018329D01*
X033201Y018329D01*
X029701Y018329D02*
X029701Y019471D01*
X026599Y019471D01*
X026599Y018329D01*
X029701Y018329D01*
X026201Y018329D02*
X026201Y019471D01*
X024099Y019471D01*
X024099Y018329D01*
X026201Y018329D01*
X022451Y018329D02*
X022451Y019471D01*
X020349Y019471D01*
X020349Y018329D01*
X022451Y018329D01*
M02*
