G75*
G70*
%OFA0B0*%
%FSLAX24Y24*%
%IPPOS*%
%LPD*%
%AMOC8*
5,1,8,0,0,1.08239X$1,22.5*
%
%ADD10C,0.0000*%
%ADD11C,0.0000*%
%ADD12R,0.1063X0.0240*%
%ADD13R,0.1693X0.0945*%
%ADD14R,0.1654X0.0945*%
%ADD15R,0.0260X0.0800*%
%ADD16R,0.0550X0.0137*%
%ADD17R,0.0480X0.0880*%
%ADD18R,0.1417X0.0866*%
%ADD19R,0.0500X0.0220*%
%ADD20R,0.0220X0.0500*%
%ADD21R,0.0591X0.0512*%
%ADD22R,0.0710X0.0630*%
D10*
X018150Y018150D02*
X057520Y018150D01*
X057520Y037835D01*
X018150Y037835D01*
X018150Y037900D02*
X018150Y018150D01*
D11*
X018520Y019150D02*
X018522Y019200D01*
X018528Y019250D01*
X018538Y019299D01*
X018552Y019347D01*
X018569Y019394D01*
X018590Y019439D01*
X018615Y019483D01*
X018643Y019524D01*
X018675Y019563D01*
X018709Y019600D01*
X018746Y019634D01*
X018786Y019664D01*
X018828Y019691D01*
X018872Y019715D01*
X018918Y019736D01*
X018965Y019752D01*
X019013Y019765D01*
X019063Y019774D01*
X019112Y019779D01*
X019163Y019780D01*
X019213Y019777D01*
X019262Y019770D01*
X019311Y019759D01*
X019359Y019744D01*
X019405Y019726D01*
X019450Y019704D01*
X019493Y019678D01*
X019534Y019649D01*
X019573Y019617D01*
X019609Y019582D01*
X019641Y019544D01*
X019671Y019504D01*
X019698Y019461D01*
X019721Y019417D01*
X019740Y019371D01*
X019756Y019323D01*
X019768Y019274D01*
X019776Y019225D01*
X019780Y019175D01*
X019780Y019125D01*
X019776Y019075D01*
X019768Y019026D01*
X019756Y018977D01*
X019740Y018929D01*
X019721Y018883D01*
X019698Y018839D01*
X019671Y018796D01*
X019641Y018756D01*
X019609Y018718D01*
X019573Y018683D01*
X019534Y018651D01*
X019493Y018622D01*
X019450Y018596D01*
X019405Y018574D01*
X019359Y018556D01*
X019311Y018541D01*
X019262Y018530D01*
X019213Y018523D01*
X019163Y018520D01*
X019112Y018521D01*
X019063Y018526D01*
X019013Y018535D01*
X018965Y018548D01*
X018918Y018564D01*
X018872Y018585D01*
X018828Y018609D01*
X018786Y018636D01*
X018746Y018666D01*
X018709Y018700D01*
X018675Y018737D01*
X018643Y018776D01*
X018615Y018817D01*
X018590Y018861D01*
X018569Y018906D01*
X018552Y018953D01*
X018538Y019001D01*
X018528Y019050D01*
X018522Y019100D01*
X018520Y019150D01*
X026790Y024532D02*
X026792Y024563D01*
X026798Y024593D01*
X026807Y024623D01*
X026820Y024651D01*
X026837Y024677D01*
X026857Y024700D01*
X026879Y024722D01*
X026904Y024740D01*
X026931Y024755D01*
X026960Y024766D01*
X026990Y024774D01*
X027021Y024778D01*
X027051Y024778D01*
X027082Y024774D01*
X027112Y024766D01*
X027141Y024755D01*
X027168Y024740D01*
X027193Y024722D01*
X027215Y024700D01*
X027235Y024677D01*
X027252Y024651D01*
X027265Y024623D01*
X027274Y024593D01*
X027280Y024563D01*
X027282Y024532D01*
X027280Y024501D01*
X027274Y024471D01*
X027265Y024441D01*
X027252Y024413D01*
X027235Y024387D01*
X027215Y024364D01*
X027193Y024342D01*
X027168Y024324D01*
X027141Y024309D01*
X027112Y024298D01*
X027082Y024290D01*
X027051Y024286D01*
X027021Y024286D01*
X026990Y024290D01*
X026960Y024298D01*
X026931Y024309D01*
X026904Y024324D01*
X026879Y024342D01*
X026857Y024364D01*
X026837Y024387D01*
X026820Y024413D01*
X026807Y024441D01*
X026798Y024471D01*
X026792Y024501D01*
X026790Y024532D01*
X029802Y024532D02*
X029804Y024559D01*
X029810Y024585D01*
X029819Y024610D01*
X029832Y024633D01*
X029848Y024654D01*
X029867Y024673D01*
X029888Y024689D01*
X029911Y024702D01*
X029936Y024711D01*
X029962Y024717D01*
X029989Y024719D01*
X030016Y024717D01*
X030042Y024711D01*
X030067Y024702D01*
X030090Y024689D01*
X030111Y024673D01*
X030130Y024654D01*
X030146Y024633D01*
X030159Y024610D01*
X030168Y024585D01*
X030174Y024559D01*
X030176Y024532D01*
X030174Y024505D01*
X030168Y024479D01*
X030159Y024454D01*
X030146Y024431D01*
X030130Y024410D01*
X030111Y024391D01*
X030090Y024375D01*
X030067Y024362D01*
X030042Y024353D01*
X030016Y024347D01*
X029989Y024345D01*
X029962Y024347D01*
X029936Y024353D01*
X029911Y024362D01*
X029888Y024375D01*
X029867Y024391D01*
X029848Y024410D01*
X029832Y024431D01*
X029819Y024454D01*
X029810Y024479D01*
X029804Y024505D01*
X029802Y024532D01*
X036948Y035158D02*
X036950Y035210D01*
X036956Y035262D01*
X036966Y035314D01*
X036979Y035364D01*
X036996Y035414D01*
X037017Y035462D01*
X037042Y035508D01*
X037070Y035552D01*
X037101Y035594D01*
X037135Y035634D01*
X037172Y035671D01*
X037212Y035705D01*
X037254Y035736D01*
X037298Y035764D01*
X037344Y035789D01*
X037392Y035810D01*
X037442Y035827D01*
X037492Y035840D01*
X037544Y035850D01*
X037596Y035856D01*
X037648Y035858D01*
X037700Y035856D01*
X037752Y035850D01*
X037804Y035840D01*
X037854Y035827D01*
X037904Y035810D01*
X037952Y035789D01*
X037998Y035764D01*
X038042Y035736D01*
X038084Y035705D01*
X038124Y035671D01*
X038161Y035634D01*
X038195Y035594D01*
X038226Y035552D01*
X038254Y035508D01*
X038279Y035462D01*
X038300Y035414D01*
X038317Y035364D01*
X038330Y035314D01*
X038340Y035262D01*
X038346Y035210D01*
X038348Y035158D01*
X038346Y035106D01*
X038340Y035054D01*
X038330Y035002D01*
X038317Y034952D01*
X038300Y034902D01*
X038279Y034854D01*
X038254Y034808D01*
X038226Y034764D01*
X038195Y034722D01*
X038161Y034682D01*
X038124Y034645D01*
X038084Y034611D01*
X038042Y034580D01*
X037998Y034552D01*
X037952Y034527D01*
X037904Y034506D01*
X037854Y034489D01*
X037804Y034476D01*
X037752Y034466D01*
X037700Y034460D01*
X037648Y034458D01*
X037596Y034460D01*
X037544Y034466D01*
X037492Y034476D01*
X037442Y034489D01*
X037392Y034506D01*
X037344Y034527D01*
X037298Y034552D01*
X037254Y034580D01*
X037212Y034611D01*
X037172Y034645D01*
X037135Y034682D01*
X037101Y034722D01*
X037070Y034764D01*
X037042Y034808D01*
X037017Y034854D01*
X036996Y034902D01*
X036979Y034952D01*
X036966Y035002D01*
X036956Y035054D01*
X036950Y035106D01*
X036948Y035158D01*
X041448Y035158D02*
X041450Y035210D01*
X041456Y035262D01*
X041466Y035314D01*
X041479Y035364D01*
X041496Y035414D01*
X041517Y035462D01*
X041542Y035508D01*
X041570Y035552D01*
X041601Y035594D01*
X041635Y035634D01*
X041672Y035671D01*
X041712Y035705D01*
X041754Y035736D01*
X041798Y035764D01*
X041844Y035789D01*
X041892Y035810D01*
X041942Y035827D01*
X041992Y035840D01*
X042044Y035850D01*
X042096Y035856D01*
X042148Y035858D01*
X042200Y035856D01*
X042252Y035850D01*
X042304Y035840D01*
X042354Y035827D01*
X042404Y035810D01*
X042452Y035789D01*
X042498Y035764D01*
X042542Y035736D01*
X042584Y035705D01*
X042624Y035671D01*
X042661Y035634D01*
X042695Y035594D01*
X042726Y035552D01*
X042754Y035508D01*
X042779Y035462D01*
X042800Y035414D01*
X042817Y035364D01*
X042830Y035314D01*
X042840Y035262D01*
X042846Y035210D01*
X042848Y035158D01*
X042846Y035106D01*
X042840Y035054D01*
X042830Y035002D01*
X042817Y034952D01*
X042800Y034902D01*
X042779Y034854D01*
X042754Y034808D01*
X042726Y034764D01*
X042695Y034722D01*
X042661Y034682D01*
X042624Y034645D01*
X042584Y034611D01*
X042542Y034580D01*
X042498Y034552D01*
X042452Y034527D01*
X042404Y034506D01*
X042354Y034489D01*
X042304Y034476D01*
X042252Y034466D01*
X042200Y034460D01*
X042148Y034458D01*
X042096Y034460D01*
X042044Y034466D01*
X041992Y034476D01*
X041942Y034489D01*
X041892Y034506D01*
X041844Y034527D01*
X041798Y034552D01*
X041754Y034580D01*
X041712Y034611D01*
X041672Y034645D01*
X041635Y034682D01*
X041601Y034722D01*
X041570Y034764D01*
X041542Y034808D01*
X041517Y034854D01*
X041496Y034902D01*
X041479Y034952D01*
X041466Y035002D01*
X041456Y035054D01*
X041450Y035106D01*
X041448Y035158D01*
X056020Y036900D02*
X056022Y036950D01*
X056028Y037000D01*
X056038Y037049D01*
X056052Y037097D01*
X056069Y037144D01*
X056090Y037189D01*
X056115Y037233D01*
X056143Y037274D01*
X056175Y037313D01*
X056209Y037350D01*
X056246Y037384D01*
X056286Y037414D01*
X056328Y037441D01*
X056372Y037465D01*
X056418Y037486D01*
X056465Y037502D01*
X056513Y037515D01*
X056563Y037524D01*
X056612Y037529D01*
X056663Y037530D01*
X056713Y037527D01*
X056762Y037520D01*
X056811Y037509D01*
X056859Y037494D01*
X056905Y037476D01*
X056950Y037454D01*
X056993Y037428D01*
X057034Y037399D01*
X057073Y037367D01*
X057109Y037332D01*
X057141Y037294D01*
X057171Y037254D01*
X057198Y037211D01*
X057221Y037167D01*
X057240Y037121D01*
X057256Y037073D01*
X057268Y037024D01*
X057276Y036975D01*
X057280Y036925D01*
X057280Y036875D01*
X057276Y036825D01*
X057268Y036776D01*
X057256Y036727D01*
X057240Y036679D01*
X057221Y036633D01*
X057198Y036589D01*
X057171Y036546D01*
X057141Y036506D01*
X057109Y036468D01*
X057073Y036433D01*
X057034Y036401D01*
X056993Y036372D01*
X056950Y036346D01*
X056905Y036324D01*
X056859Y036306D01*
X056811Y036291D01*
X056762Y036280D01*
X056713Y036273D01*
X056663Y036270D01*
X056612Y036271D01*
X056563Y036276D01*
X056513Y036285D01*
X056465Y036298D01*
X056418Y036314D01*
X056372Y036335D01*
X056328Y036359D01*
X056286Y036386D01*
X056246Y036416D01*
X056209Y036450D01*
X056175Y036487D01*
X056143Y036526D01*
X056115Y036567D01*
X056090Y036611D01*
X056069Y036656D01*
X056052Y036703D01*
X056038Y036751D01*
X056028Y036800D01*
X056022Y036850D01*
X056020Y036900D01*
X056020Y018900D02*
X056022Y018950D01*
X056028Y019000D01*
X056038Y019049D01*
X056052Y019097D01*
X056069Y019144D01*
X056090Y019189D01*
X056115Y019233D01*
X056143Y019274D01*
X056175Y019313D01*
X056209Y019350D01*
X056246Y019384D01*
X056286Y019414D01*
X056328Y019441D01*
X056372Y019465D01*
X056418Y019486D01*
X056465Y019502D01*
X056513Y019515D01*
X056563Y019524D01*
X056612Y019529D01*
X056663Y019530D01*
X056713Y019527D01*
X056762Y019520D01*
X056811Y019509D01*
X056859Y019494D01*
X056905Y019476D01*
X056950Y019454D01*
X056993Y019428D01*
X057034Y019399D01*
X057073Y019367D01*
X057109Y019332D01*
X057141Y019294D01*
X057171Y019254D01*
X057198Y019211D01*
X057221Y019167D01*
X057240Y019121D01*
X057256Y019073D01*
X057268Y019024D01*
X057276Y018975D01*
X057280Y018925D01*
X057280Y018875D01*
X057276Y018825D01*
X057268Y018776D01*
X057256Y018727D01*
X057240Y018679D01*
X057221Y018633D01*
X057198Y018589D01*
X057171Y018546D01*
X057141Y018506D01*
X057109Y018468D01*
X057073Y018433D01*
X057034Y018401D01*
X056993Y018372D01*
X056950Y018346D01*
X056905Y018324D01*
X056859Y018306D01*
X056811Y018291D01*
X056762Y018280D01*
X056713Y018273D01*
X056663Y018270D01*
X056612Y018271D01*
X056563Y018276D01*
X056513Y018285D01*
X056465Y018298D01*
X056418Y018314D01*
X056372Y018335D01*
X056328Y018359D01*
X056286Y018386D01*
X056246Y018416D01*
X056209Y018450D01*
X056175Y018487D01*
X056143Y018526D01*
X056115Y018567D01*
X056090Y018611D01*
X056069Y018656D01*
X056052Y018703D01*
X056038Y018751D01*
X056028Y018800D01*
X056022Y018850D01*
X056020Y018900D01*
X018520Y036900D02*
X018522Y036950D01*
X018528Y037000D01*
X018538Y037049D01*
X018552Y037097D01*
X018569Y037144D01*
X018590Y037189D01*
X018615Y037233D01*
X018643Y037274D01*
X018675Y037313D01*
X018709Y037350D01*
X018746Y037384D01*
X018786Y037414D01*
X018828Y037441D01*
X018872Y037465D01*
X018918Y037486D01*
X018965Y037502D01*
X019013Y037515D01*
X019063Y037524D01*
X019112Y037529D01*
X019163Y037530D01*
X019213Y037527D01*
X019262Y037520D01*
X019311Y037509D01*
X019359Y037494D01*
X019405Y037476D01*
X019450Y037454D01*
X019493Y037428D01*
X019534Y037399D01*
X019573Y037367D01*
X019609Y037332D01*
X019641Y037294D01*
X019671Y037254D01*
X019698Y037211D01*
X019721Y037167D01*
X019740Y037121D01*
X019756Y037073D01*
X019768Y037024D01*
X019776Y036975D01*
X019780Y036925D01*
X019780Y036875D01*
X019776Y036825D01*
X019768Y036776D01*
X019756Y036727D01*
X019740Y036679D01*
X019721Y036633D01*
X019698Y036589D01*
X019671Y036546D01*
X019641Y036506D01*
X019609Y036468D01*
X019573Y036433D01*
X019534Y036401D01*
X019493Y036372D01*
X019450Y036346D01*
X019405Y036324D01*
X019359Y036306D01*
X019311Y036291D01*
X019262Y036280D01*
X019213Y036273D01*
X019163Y036270D01*
X019112Y036271D01*
X019063Y036276D01*
X019013Y036285D01*
X018965Y036298D01*
X018918Y036314D01*
X018872Y036335D01*
X018828Y036359D01*
X018786Y036386D01*
X018746Y036416D01*
X018709Y036450D01*
X018675Y036487D01*
X018643Y036526D01*
X018615Y036567D01*
X018590Y036611D01*
X018569Y036656D01*
X018552Y036703D01*
X018538Y036751D01*
X018528Y036800D01*
X018522Y036850D01*
X018520Y036900D01*
D12*
X032336Y021882D03*
X032336Y021382D03*
X032336Y020882D03*
X032336Y020382D03*
X035340Y020382D03*
X035340Y020882D03*
X035340Y021382D03*
X035340Y021882D03*
D13*
X031744Y024532D03*
D14*
X025422Y024532D03*
D15*
X021557Y025623D03*
X021057Y025623D03*
X020557Y025623D03*
X020057Y025623D03*
X020057Y023203D03*
X020557Y023203D03*
X021057Y023203D03*
X021557Y023203D03*
D16*
X030856Y028117D03*
X030856Y028372D03*
X030856Y028628D03*
X030856Y028884D03*
X030856Y029140D03*
X030856Y029396D03*
X030856Y029652D03*
X030856Y029908D03*
X030856Y030164D03*
X030856Y030420D03*
X030856Y030676D03*
X030856Y030931D03*
X030856Y031187D03*
X030856Y031443D03*
X033735Y031443D03*
X033735Y031187D03*
X033735Y030931D03*
X033735Y030676D03*
X033735Y030420D03*
X033735Y030164D03*
X033735Y029908D03*
X033735Y029652D03*
X033735Y029396D03*
X033735Y029140D03*
X033735Y028884D03*
X033735Y028628D03*
X033735Y028372D03*
X033735Y028117D03*
D17*
X033349Y035557D03*
X032439Y035557D03*
X031529Y035557D03*
D18*
X032439Y033117D03*
D19*
X023651Y031591D03*
X023651Y031276D03*
X023651Y030961D03*
X023651Y030646D03*
X023651Y030331D03*
X023651Y030016D03*
X023651Y029701D03*
X023651Y029386D03*
X020271Y029386D03*
X020271Y029701D03*
X020271Y030016D03*
X020271Y030331D03*
X020271Y030646D03*
X020271Y030961D03*
X020271Y031276D03*
X020271Y031591D03*
D20*
X020859Y032179D03*
X021174Y032179D03*
X021489Y032179D03*
X021804Y032179D03*
X022119Y032179D03*
X022433Y032179D03*
X022748Y032179D03*
X023063Y032179D03*
X023063Y028799D03*
X022748Y028799D03*
X022433Y028799D03*
X022119Y028799D03*
X021804Y028799D03*
X021489Y028799D03*
X021174Y028799D03*
X020859Y028799D03*
D21*
X018902Y030087D03*
X018902Y030756D03*
D22*
X045650Y021710D03*
X045650Y020590D03*
X050650Y020590D03*
X050650Y021710D03*
X055650Y021710D03*
X055650Y020590D03*
M02*
